<?xml version="1.0" encoding="UTF-8"?>
<svg id="_レイヤー_1" data-name="レイヤー 1" xmlns="http://www.w3.org/2000/svg" xmlns:xlink="http://www.w3.org/1999/xlink" viewBox="0 0 3793.85 2764.04">
  <defs>
    <style>
      .cls-1 {
        clip-path: url(#clippath-1);
      }

      .cls-2 {
        fill: #fadc4d;
      }

      .cls-2, .cls-3, .cls-4, .cls-5, .cls-6 {
        fill-rule: evenodd;
      }

      .cls-3 {
        fill: #ffe97e;
      }

      .cls-4 {
        fill: #f9dc4f;
      }

      .cls-7 {
        clip-rule: evenodd;
        fill: none;
      }

      .cls-5 {
        fill: #a2a2a2;
      }

      .cls-8 {
        clip-path: url(#clippath);
      }

      .cls-6 {
        fill: #c0c0bd;
      }
    </style>
    <clipPath id="clippath">
      <path class="cls-7" d="M3791.31,747.7c4.21-11.11,3.15-23.53-2.91-33.75-6.04-10.22-16.41-17.15-28.17-18.81-91.7-12.96-283.95-40.13-310.5-43.88-2.04-.29-4.1-.42-6.16-.38-44.33.78-551.04,9.74-616.25,10.89-4.56.08-9.11-.64-13.42-2.12-69.88-24.07-679.05-233.86-741.02-255.19-3.37-1.16-6.88-1.86-10.44-2.07-55.08-3.22-517.83-30.33-618.7-36.24-12.2-.71-24.04,4.32-31.98,13.6-52.63,61.49-253.12,295.71-277.42,324.09-1.61,1.88-3.03,3.9-4.25,6.04-16.58,29.05-140.11,245.53-164.6,288.45-2.78,4.86-6.57,9.08-11.12,12.35-35.97,25.89-200.86,144.56-214.44,154.33-.59.43-1.2.84-1.82,1.23-15.27,9.74-215.3,137.31-265.5,169.33-7.37,4.7-12.94,11.73-15.85,19.97-15.9,45.12-69.3,196.69-81.34,230.87-1.6,4.55-4.03,8.76-7.17,12.43-32.01,37.39-216.73,253.2-270.38,315.87-9.04,10.56-11.79,25.14-7.22,38.27,17.6,50.54,61.97,177.99,81.21,233.25,5.47,15.71,20.28,26.24,36.92,26.24h583.69c5.18,0,10.31,1.03,15.09,3.03,49.29,20.62,334.91,140.13,379.64,158.85,3.9,1.63,8.04,2.62,12.26,2.92,52.11,3.78,407.43,29.54,449.33,32.58,2.68.2,5.34.67,7.92,1.41,35.64,10.2,304.78,87.17,328.61,93.99,1.12.32,2.23.69,3.32,1.11,23.76,9.16,299.17,115.4,348.93,134.6,5.06,1.95,10.49,2.83,15.91,2.58,51.85-2.45,332.39-15.67,369.6-17.43,2.71-.13,5.43.03,8.1.46,45.43,7.38,462.06,75.03,584.87,94.98,19.4,3.15,38.12-8.59,43.73-27.42,27.65-92.79,105.06-352.62,118.46-397.6,1.32-4.42,1.84-9.03,1.55-13.63-2.85-45.07-18.71-295.77-22.41-354.17-.5-7.92,1.42-15.8,5.51-22.61,22.85-38.01,100.97-167.97,114.99-191.3,1.43-2.39,2.62-4.93,3.51-7.57,10.32-30.42,76.65-225.92,88.58-261.09,1.22-3.59,1.91-7.34,2.04-11.12,1.7-46.15,13.12-357.6,14.91-406.37.16-4.25,1-8.45,2.52-12.43,12.35-32.58,71.86-189.48,101.84-268.53h0Z"/>
    </clipPath>
    <clipPath id="clippath-1">
      <path class="cls-7" d="M3173.15,150.31c-.21-18.95-14.6-34.74-33.45-36.71C2969.24,95.78,2192.53,14.54,2055.43.2c-12.87-1.35-25.51,4.07-33.42,14.31-102.86,133.13-796.65,1031.05-882.27,1141.86-5.58,7.22-8.32,16.23-7.71,25.34,6.51,96.62,44.48,660.06,53.68,796.56,1.17,17.41,14.25,31.68,31.49,34.38,177.68,27.77,1104,172.53,1275.88,199.39,16.3,2.55,32.33-5.9,39.45-20.78,85.11-177.93,595.88-1245.7,644.72-1347.82,2.47-5.16,3.72-10.82,3.66-16.54-.8-70.24-6.25-545.76-7.75-676.58h0Z"/>
    </clipPath>
  </defs>
  <path class="cls-6" d="M3791.31,747.7c4.21-11.11,3.15-23.53-2.91-33.75-6.04-10.22-16.41-17.15-28.17-18.81-91.7-12.96-283.95-40.13-310.5-43.88-2.04-.29-4.1-.42-6.16-.38-44.33.78-551.04,9.74-616.25,10.89-4.56.08-9.11-.64-13.42-2.12-69.88-24.07-679.05-233.86-741.02-255.19-3.37-1.16-6.88-1.86-10.44-2.07-55.08-3.22-517.83-30.33-618.7-36.24-12.2-.71-24.04,4.32-31.98,13.6-52.63,61.49-253.12,295.71-277.42,324.09-1.61,1.88-3.03,3.9-4.25,6.04-16.58,29.05-140.11,245.53-164.6,288.45-2.78,4.86-6.57,9.08-11.12,12.35-35.97,25.89-200.86,144.56-214.44,154.33-.59.43-1.2.84-1.82,1.23-15.27,9.74-215.3,137.31-265.5,169.33-7.37,4.7-12.94,11.73-15.85,19.97-15.9,45.12-69.3,196.69-81.34,230.87-1.6,4.55-4.03,8.76-7.17,12.43-32.01,37.39-216.73,253.2-270.38,315.87-9.04,10.56-11.79,25.14-7.22,38.27,17.6,50.54,61.97,177.99,81.21,233.25,5.47,15.71,20.28,26.24,36.92,26.24h583.69c5.18,0,10.31,1.03,15.09,3.03,49.29,20.62,334.91,140.13,379.64,158.85,3.9,1.63,8.04,2.62,12.26,2.92,52.11,3.78,407.43,29.54,449.33,32.58,2.68.2,5.34.67,7.92,1.41,35.64,10.2,304.78,87.17,328.61,93.99,1.12.32,2.23.69,3.32,1.11,23.76,9.16,299.17,115.4,348.93,134.6,5.06,1.95,10.49,2.83,15.91,2.58,51.85-2.45,332.39-15.67,369.6-17.43,2.71-.13,5.43.03,8.1.46,45.43,7.38,462.06,75.03,584.87,94.98,19.4,3.15,38.12-8.59,43.73-27.42,27.65-92.79,105.06-352.62,118.46-397.6,1.32-4.42,1.84-9.03,1.55-13.63-2.85-45.07-18.71-295.77-22.41-354.17-.5-7.92,1.42-15.8,5.51-22.61,22.85-38.01,100.97-167.97,114.99-191.3,1.43-2.39,2.62-4.93,3.51-7.57,10.32-30.42,76.65-225.92,88.58-261.09,1.22-3.59,1.91-7.34,2.04-11.12,1.7-46.15,13.12-357.6,14.91-406.37.16-4.25,1-8.45,2.52-12.43,12.35-32.58,71.86-189.48,101.84-268.53h0Z"/>
  <g class="cls-8">
    <path class="cls-5" d="M208.43,1952.31l-193-17.36c7.7,281.29-17.6,206.08-15.28,277.52l181.79,68.51c3.1-100.47-38.56-181.75,26.49-328.68h0Z"/>
    <path class="cls-5" d="M3196.76,835.22c6.81-17.64,5.59-37.37-3.34-54.04-8.92-16.67-24.67-28.62-43.12-32.73-262.95-58.53-1147.97-255.54-1298.5-289.05-14.16-3.15-28.96-1.47-42.06,4.77-58.57,27.94-228.56,109.02-296.05,141.21-17.76,8.47-30.73,24.55-35.25,43.7-19.62,83.2-74.77,317.08-103.65,439.57-4.46,18.92-17.17,34.85-34.63,43.4-17.46,8.55-37.82,8.84-55.51.77-140.76-64.2-438.85-200.16-438.85-200.16,0,0,317.64,277.19,418.48,365.18,18.58,16.21,26.37,41.56,20.11,65.41-11.04,42.06-28.44,108.33-38.82,147.89-5.41,20.62-20.6,37.26-40.64,44.54-20.26,7.36-46.63,16.94-68.34,24.82-24.52,8.91-41.33,31.62-42.68,57.68-3.96,76.7-12.07,233.66-14.58,282.16-.49,9.61,1.15,19.22,4.83,28.12,15.36,37.22,58.93,142.79,86.1,208.62,12.91,31.28,47.7,47.4,79.91,37.03,69.58-22.39,182.89-58.87,223.25-71.86,9.77-3.14,20.14-3.93,30.26-2.29,83.12,13.44,479.22,77.48,610.43,98.7,25.67,4.15,46.39,23.21,52.66,48.45,31.37,126.34,123.35,496.93,123.35,496.93l49.76-41.99s2.25-254.29,3.32-376.71c.31-35.64,29.29-64.36,64.93-64.36h79.66c7.82,0,15.58-1.41,22.9-4.17,28.76-10.84,106.35-40.09,146.25-55.13,15.68-5.91,28.46-17.65,35.69-32.77,24.05-50.34,80.62-168.77,109.76-229.76,10.98-23,34.41-37.45,59.9-36.93,147.03,2.96,631.05,12.73,631.05,12.73l64.04-44.76s-434.52-84.44-611.88-118.9c-18.57-3.61-34.64-15.13-44.01-31.55-9.38-16.42-11.12-36.12-4.79-53.93,23.05-64.87,55.96-157.49,72.47-203.96,6.5-18.31,20.87-32.74,39.15-39.34,55.87-20.16,179.98-64.94,256.08-92.4,16.62-6,30.09-18.52,37.28-34.66,7.19-16.15,7.49-34.53.82-50.9-10.13-24.87-21.23-52.15-29.22-71.75-7.03-17.26-21.13-30.66-38.72-36.81-21.39-7.47-51.84-18.11-79.1-27.64-16.6-5.8-30.14-18.08-37.52-34.04-7.38-15.96-7.97-34.23-1.64-50.64,22.75-58.93,56.79-147.1,80.48-208.45h0Z"/>
  </g>
  <path class="cls-3" d="M3173.15,150.31c-.21-18.95-14.6-34.74-33.45-36.71C2969.24,95.78,2192.53,14.54,2055.43.2c-12.87-1.35-25.51,4.07-33.42,14.31-102.86,133.13-796.65,1031.05-882.27,1141.86-5.58,7.22-8.32,16.23-7.71,25.34,6.51,96.62,44.48,660.06,53.68,796.56,1.17,17.41,14.25,31.68,31.49,34.38,177.68,27.77,1104,172.53,1275.88,199.39,16.3,2.55,32.33-5.9,39.45-20.78,85.11-177.93,595.88-1245.7,644.72-1347.82,2.47-5.16,3.72-10.82,3.66-16.54-.8-70.24-6.25-545.76-7.75-676.58h0Z"/>
  <g class="cls-1">
    <path class="cls-4" d="M3122.26,273.35c-.29-8.87-6.53-16.43-15.2-18.38-8.66-1.96-17.55,2.18-21.63,10.06-111.25,214.99-460.22,889.36-560.52,1083.19-17.85,34.48-26.51,72.97-25.16,111.77,4.59,131.79,15.62,449.51,20.79,597.95.31,9,6.71,16.62,15.52,18.48,8.8,1.87,17.74-2.51,21.67-10.62,120.73-248.95,520.45-1073.18,577.26-1190.32,4.43-9.13,6.57-19.2,6.24-29.33-2.54-76.72-13.87-419.36-18.95-572.79h0Z"/>
    <path class="cls-2" d="M2438.92,1554.5c-4.05-78.53-63.78-142.88-141.79-152.77-259.88-32.95-822.87-104.35-1030.47-130.67-19.4-2.46-38.89,3.9-53.1,17.33-14.21,13.44-21.66,32.53-20.29,52.04,10.86,154.89,34.47,491.89,42.19,602.07,1.46,20.82,17.19,37.83,37.84,40.9,169.43,25.21,899.71,133.87,1128.31,167.88,16.85,2.51,33.94-2.68,46.56-14.14,12.61-11.46,19.42-27.97,18.54-44.99-6.33-122.44-19.58-378.97-27.78-537.66h0Z"/>
  </g>
</svg>