<?xml version="1.0" encoding="UTF-8"?>
<svg xmlns="http://www.w3.org/2000/svg" xmlns:xlink="http://www.w3.org/1999/xlink" viewBox="0 0 650 450">
  <defs>
    <style>
      .cls-1 {
        fill: #939393;
      }

      .cls-2 {
        fill: #2b2b2b;
      }

      .cls-3 {
        fill: #141414;
      }

      .cls-4 {
        fill: #e0e0e0;
      }

      .cls-5 {
        fill: none;
      }

      .cls-6 {
        fill: #afafaf;
      }

      .cls-7 {
        fill: #7fb5aa;
      }

      .cls-8 {
        fill: #565656;
      }

      .cls-9 {
        fill: #897b5f;
      }

      .cls-10 {
        fill: #efefef;
      }

      .cls-11 {
        clip-path: url(#clippath);
      }
    </style>
    <clipPath id="clippath">
      <path class="cls-5" d="M440.81,85.34c1.98-7.6,91.03-14.95,97.29-11.24,6.26,3.71,3.19,93.88,0,97.76-3.19,3.89-65.52,4.08-71.29,0-5.77-4.08-27.99-78.93-26-86.52Z"/>
    </clipPath>
  </defs>
  <g id="back">
    <rect class="cls-5" x="100" y="-100" width="450" height="650" transform="translate(550 -100) rotate(90)"/>
  </g>
  <g id="illustration">
    <g>
      <g>
        <path class="cls-2" d="M297.77,303.65c-.26,0-.53-.03-.79-.09-1.88-.44-3.05-2.32-2.62-4.2l11.1-47.81c.44-1.88,2.32-3.05,4.2-2.62,1.88.44,3.05,2.32,2.62,4.2l-11.1,47.81c-.38,1.62-1.82,2.71-3.41,2.71Z"/>
        <path class="cls-2" d="M323.44,242.37c-8-.43-20.22-1.09-28.22-1.52l-4.91,16.76c10.05.54,26.16,1.41,36.21,1.95l-3.08-17.19Z"/>
      </g>
      <path class="cls-10" d="M247.49,300.15h0c-5.9,0-10.92-4.41-11.52-10.28-5.16-50.42-47.88-89.88-99.63-89.88-31.53,0-60.53,14.44-79.42,39.11-3.6,4.7-10.12,6-15.16,2.9l-.12-.07c20.42-33.14,55.82-52.93,94.7-52.93,61.29,0,111.15,49.86,111.15,111.15Z"/>
      <g>
        <rect class="cls-1" x="125.3" y="204.52" width="1" height="95.82" transform="translate(-21.52 11.93) rotate(-5)"/>
        <rect class="cls-1" x="117.08" y="205.97" width="1" height="95.82" transform="translate(-61.7 39.08) rotate(-15)"/>
        <rect class="cls-1" x="98.96" y="251.92" width="95.82" height="1" transform="translate(-117.49 376.53) rotate(-84.96)"/>
        <rect class="cls-1" x="107.18" y="253.37" width="95.82" height="1" transform="translate(-130.35 337.7) rotate(-74.95)"/>
        <rect class="cls-1" x="89.24" y="237.5" width="1" height="95.82" transform="translate(-206.85 246.12) rotate(-65)"/>
        <rect class="cls-1" x="86.38" y="245.35" width="1" height="95.82" transform="translate(-218.87 301.28) rotate(-75)"/>
        <rect class="cls-1" x="99.77" y="219.26" width="1" height="95.82" transform="translate(-176.09 196.06) rotate(-55)"/>
        <rect class="cls-1" x="105.14" y="212.86" width="1" height="95.82" transform="translate(-153.45 151.07) rotate(-45)"/>
        <rect class="cls-1" x="52.36" y="332.63" width="95.82" height="1" transform="translate(-172.99 117.81) rotate(-35.01)"/>
        <rect class="cls-1" x="57.73" y="339.03" width="95.82" height="1" transform="translate(-209.14 174.14) rotate(-45)"/>
        <rect class="cls-1" x="41.83" y="314.39" width="95.82" height="1" transform="translate(-124.71 67.46) rotate(-25.01)"/>
        <rect class="cls-1" x="38.97" y="306.55" width="95.82" height="1" transform="translate(-76.44 32.91) rotate(-14.99)"/>
        <rect class="cls-1" x="146.37" y="299.97" width="1" height="95.82" transform="translate(-29.76 14.12) rotate(-5)"/>
        <rect class="cls-1" x="154.59" y="298.52" width="1" height="95.82" transform="translate(-84.38 51.94) rotate(-15)"/>
        <rect class="cls-1" x="77.9" y="347.38" width="95.82" height="1" transform="translate(-231.78 442.61) rotate(-84.96)"/>
        <rect class="cls-1" x="69.67" y="345.93" width="95.82" height="1" transform="translate(-247.5 370.02) rotate(-74.95)"/>
        <rect class="cls-1" x="182.43" y="266.98" width="1" height="95.82" transform="translate(-179.77 347.61) rotate(-65)"/>
        <rect class="cls-1" x="185.29" y="259.14" width="1" height="95.82" transform="translate(-158.88 407.04) rotate(-75)"/>
        <rect class="cls-1" x="171.9" y="285.23" width="1" height="95.82" transform="translate(-199.37 283.28) rotate(-55)"/>
        <rect class="cls-1" x="166.53" y="291.62" width="1" height="95.82" transform="translate(-191.16 217.56) rotate(-45)"/>
        <rect class="cls-1" x="124.49" y="266.67" width="95.82" height="1" transform="translate(-122.09 147.26) rotate(-35.01)"/>
        <rect class="cls-1" x="119.12" y="260.27" width="95.82" height="1" transform="translate(-135.47 194.49) rotate(-45)"/>
        <rect class="cls-1" x="135.02" y="284.91" width="95.82" height="1" transform="translate(-103.52 104.11) rotate(-25.01)"/>
        <rect class="cls-1" x="137.88" y="292.76" width="95.82" height="1" transform="translate(-69.51 58.02) rotate(-14.99)"/>
      </g>
      <path class="cls-3" d="M136.34,401.68c-55.98,0-101.53-45.54-101.53-101.53s45.55-101.53,101.53-101.53,101.53,45.54,101.53,101.53-45.55,101.53-101.53,101.53ZM136.34,209.62c-49.92,0-90.53,40.61-90.53,90.53s40.61,90.53,90.53,90.53,90.53-40.61,90.53-90.53-40.61-90.53-90.53-90.53Z"/>
      <path class="cls-3" d="M251,201.74c-.99-.46-3-.29-5.48.29l-3.56-9.64-20.33,8.51,4.23,9.99c-.87.74-4.1,3.06-4.23,3.65-1.1,5,19.3,54.07,24.96,56.83s27.95-4.41,28.77-10.19c.83-5.78-20.23-57.5-24.36-59.43ZM226.84,203.02l12.82-5.37,2.02,5.47c-4.25,1.39-9.01,3.46-12.48,5.49l-2.36-5.58Z"/>
      <path class="cls-8" d="M438.88,135.38c-.95,0-1.87-.55-2.28-1.48-.57-1.26,0-2.74,1.26-3.3l11.39-5.11c1.26-.56,2.74,0,3.3,1.26.57,1.26,0,2.74-1.26,3.3l-11.39,5.11c-.33.15-.68.22-1.02.22Z"/>
      <path class="cls-10" d="M402.66,321.77c-1.37-7.08-2.07-14.35-2.07-21.62,0-62.35,50.72-113.07,113.07-113.07v.14c0,5.92-4.53,10.79-10.42,11.39-51.41,5.24-91.65,48.78-91.65,101.54,0,3.09.14,6.19.42,9.26.53,5.9-3.53,11.23-9.35,12.35h0Z"/>
      <g>
        <rect class="cls-1" x="502.63" y="204.52" width="1" height="95.82" transform="translate(-20.09 44.81) rotate(-5)"/>
        <rect class="cls-1" x="494.41" y="205.97" width="1" height="95.82" transform="translate(-48.84 136.74) rotate(-15)"/>
        <rect class="cls-1" x="476.29" y="251.92" width="95.82" height="1" transform="translate(226.67 752.4) rotate(-84.96)"/>
        <rect class="cls-1" x="484.51" y="253.37" width="95.82" height="1" transform="translate(148.96 702.07) rotate(-74.94)"/>
        <rect class="cls-1" x="466.57" y="237.5" width="1" height="95.82" transform="translate(11.01 588.1) rotate(-65)"/>
        <rect class="cls-1" x="463.71" y="245.35" width="1" height="95.82" transform="translate(60.8 665.75) rotate(-75)"/>
        <rect class="cls-1" x="477.1" y="219.26" width="1" height="95.82" transform="translate(-15.19 505.15) rotate(-55)"/>
        <rect class="cls-1" x="482.47" y="212.86" width="1" height="95.82" transform="translate(-42.93 417.89) rotate(-45)"/>
        <rect class="cls-1" x="429.69" y="332.63" width="95.82" height="1" transform="translate(-104.7 334.26) rotate(-35.01)"/>
        <rect class="cls-1" x="435.06" y="339.03" width="95.82" height="1" transform="translate(-98.62 441) rotate(-45)"/>
        <rect class="cls-1" x="419.16" y="314.39" width="95.82" height="1" transform="translate(-89.33 226.99) rotate(-25.01)"/>
        <rect class="cls-1" x="416.3" y="306.55" width="95.82" height="1" transform="translate(-63.61 130.48) rotate(-14.99)"/>
        <rect class="cls-1" x="523.7" y="299.97" width="1" height="95.82" transform="translate(-28.33 47.01) rotate(-5)"/>
        <rect class="cls-1" x="531.92" y="298.52" width="1" height="95.82" transform="translate(-71.52 149.6) rotate(-15)"/>
        <rect class="cls-1" x="455.23" y="347.38" width="95.82" height="1" transform="translate(112.38 818.48) rotate(-84.96)"/>
        <rect class="cls-1" x="447" y="345.93" width="95.82" height="1" transform="translate(31.85 734.4) rotate(-74.95)"/>
        <rect class="cls-1" x="559.76" y="266.98" width="1" height="95.82" transform="translate(38.09 689.58) rotate(-65)"/>
        <rect class="cls-1" x="562.62" y="259.14" width="1" height="95.82" transform="translate(120.79 771.51) rotate(-75)"/>
        <rect class="cls-1" x="549.23" y="285.23" width="1" height="95.82" transform="translate(-38.47 592.37) rotate(-55)"/>
        <rect class="cls-1" x="543.86" y="291.62" width="1" height="95.82" transform="translate(-80.65 484.37) rotate(-45)"/>
        <rect class="cls-1" x="501.82" y="266.67" width="95.82" height="1" transform="translate(-53.8 363.75) rotate(-35.01)"/>
        <rect class="cls-1" x="496.46" y="260.27" width="95.82" height="1" transform="translate(-24.95 461.3) rotate(-45)"/>
        <rect class="cls-1" x="512.35" y="284.91" width="95.82" height="1" transform="translate(-68.13 263.65) rotate(-25.01)"/>
        <rect class="cls-1" x="515.21" y="292.76" width="95.82" height="1" transform="translate(-56.68 155.59) rotate(-14.99)"/>
      </g>
      <path class="cls-3" d="M513.67,401.68c-55.98,0-101.53-45.54-101.53-101.53s45.55-101.53,101.53-101.53,101.53,45.54,101.53,101.53-45.55,101.53-101.53,101.53ZM513.67,209.62c-49.92,0-90.53,40.61-90.53,90.53s40.61,90.53,90.53,90.53,90.53-40.61,90.53-90.53-40.61-90.53-90.53-90.53Z"/>
      <path class="cls-8" d="M513.67,302.65c-1.38,0-2.5-1.12-2.5-2.5v-125.44c0-1.38,1.12-2.5,2.5-2.5s2.5,1.12,2.5,2.5v125.44c0,1.38-1.12,2.5-2.5,2.5Z"/>
      <rect class="cls-3" x="238.25" y="142.86" width="6" height="61.77" transform="translate(-49.91 113.6) rotate(-24.09)"/>
      <path class="cls-9" d="M195.39,127.87c7.58-8.13,34.02.39,46.53,0,12.51-.39,27.76,2.5,27.76,10.05s-22.22,14.59-38.09,15.37c-15.87.78-27.21,5.08-32.68,0-5.47-5.08-8.99-19.55-3.52-25.42Z"/>
      <polygon class="cls-3" points="423.3 106.63 410.55 78.09 415.89 72.89 429.69 103.77 423.3 106.63"/>
      <circle class="cls-3" cx="513.67" cy="300.15" r="10.55"/>
      <path class="cls-7" d="M509.72,301.13l-86.87-194.29,7.3-3.27,86.87,194.29c.9,2.02,0,4.38-2.02,5.28h0c-2.02.9-4.38,0-5.28-2.02Z"/>
      <path class="cls-4" d="M255,332.84c-1.07-.12-107.02-11.89-118.66-11.89-12.94,0-21.96-7.73-22.46-19.23-.28-6.37,2.04-12.62,6.36-17.12,4.17-4.36,9.74-6.66,16.1-6.66h36.07v3h-36.07c-5.53,0-10.35,1.98-13.94,5.73-3.75,3.92-5.77,9.36-5.53,14.92.43,9.94,8.07,16.36,19.46,16.36s114.63,11.42,119,11.91l-.33,2.98Z"/>
      <rect class="cls-7" x="264.88" y="164.79" width="8" height="141.53" transform="translate(-72.73 130.27) rotate(-24.09)"/>
      <path class="cls-6" d="M158.38,300.15c0,1.37-3.11,2.42-3.36,3.72-.26,1.34,2.2,3.49,1.69,4.72-.52,1.25-3.79,1.03-4.53,2.14-.75,1.12.7,4.06-.25,5.01-.95.95-3.89-.5-5.01.25-1.11.74-.89,4.01-2.14,4.53-1.23.51-3.38-1.95-4.72-1.69-1.3.26-2.35,3.36-3.72,3.36s-2.42-3.11-3.72-3.36c-1.34-.26-3.49,2.2-4.72,1.69-1.25-.52-1.03-3.79-2.14-4.53-1.12-.75-4.06.7-5.01-.25-.95-.95.5-3.89-.25-5.01-.74-1.11-4.01-.89-4.53-2.14-.51-1.23,1.95-3.38,1.69-4.72-.26-1.3-3.36-2.35-3.36-3.72s3.11-2.42,3.36-3.72c.26-1.34-2.2-3.49-1.69-4.72.52-1.25,3.79-1.03,4.53-2.14.75-1.12-.7-4.06.25-5.01.95-.95,3.89.5,5.01-.25,1.11-.74.89-4.01,2.14-4.53,1.23-.51,3.38,1.95,4.72,1.69,1.3-.26,2.35-3.36,3.72-3.36s2.42,3.11,3.72,3.36c1.34.26,3.49-2.2,4.72-1.69,1.25.52,1.03,3.79,2.14,4.53,1.12.75,4.06-.7,5.01.25.95.95-.5,3.89.25,5.01.74,1.11,4.01.89,4.53,2.14.51,1.23-1.95,3.38-1.69,4.72.26,1.3,3.36,2.35,3.36,3.72Z"/>
      <path class="cls-7" d="M303.4,260.68c-18.65-.55-128.93,13.99-139.93,16.02-4.37.81-2.58,5.8,4.28,7.26s38.22,2.08,60.83,9.67c15.08,5.06,16.69,26.72,17.3,40.03,25.19,2.93,49.91,4.41,57.53,4.18,18.65-.55,36.49-14.62,36.49-38.58s-17.83-38.03-36.49-38.58Z"/>
      <circle class="cls-3" cx="136.33" cy="300.15" r="6.36"/>
      <path class="cls-7" d="M297.77,304.15h-160.37c-2.03,0-3.74-1.52-3.97-3.54-2.46-21.09,9.4-51.88,29.51-76.61,22.13-27.22,51.06-43.71,81.45-46.44,2.2-.19,4.14,1.43,4.34,3.63.2,2.2-1.43,4.14-3.63,4.34-28.22,2.53-55.2,17.98-75.96,43.51-17.42,21.42-28.55,48.34-28.02,67.1h155.2l156.23-130.03c1.7-1.41,4.22-1.18,5.63.52,1.41,1.7,1.18,4.22-.52,5.63l-157.35,130.95c-.72.6-1.62.93-2.56.93Z"/>
      <path class="cls-7" d="M276.41,253.96l-2.04-7.73c.45-.12,45.52-12.17,78.73-33.46,52.79-33.85,88.24-69.66,88.6-70.02l5.7,5.61c-.36.36-36.4,36.78-89.98,71.15-34.28,21.99-79.11,33.96-81,34.46Z"/>
      <path class="cls-3" d="M502.88,177.35c-8.36,0-33.03-.28-37.51-3.45-4.5-3.18-13.29-31.32-16.86-43.27-1.97-6.59-11.72-39.8-10.12-45.92h0c.54-2.08,2.77-3.23,4.65-4,15.33-6.3,89.16-13.01,96.33-8.76,1.52.9,2.43,2.93,3.15,7,2.35,13.37,1.68,43.93,1.42,52.98-.41,14.23-1.46,38.54-3.91,41.52-.92,1.12-2.71,2.28-13.41,3.12-6.26.49-14.5.77-23.2.78h-.55ZM443.18,86.24c-1.16,8.4,19.97,78.96,25.13,83.63,1.84,1.17,14.43,2.47,34.03,2.49,19.78.06,31.28-1.22,33.8-2.19,1.13-3.69,2.6-23.1,3-46.86.49-28.77-.93-44.43-2.5-47.12-3.26-1.11-22.68-.73-47.22,1.66-30.41,2.96-44.14,6.58-46.25,8.4ZM536,170.53h0ZM536.54,76.02h0s0,0,0,0Z"/>
      <g class="cls-11">
        <path class="cls-3" d="M559.13,104.47l-.33-2.98-37.22,4.1-.76-13.35,40.66-5.46-.4-2.97-40.43,5.43-1.62-28.22-3,.17,1.63,28.45-15.8,2.12-3.41-29.39-2.98.35,3.41,29.44-15.64,2.1-5.37-30.53-2.95.52,5.35,30.41-15.47,2.08-7.52-31.65-2.92.69,7.45,31.36-31.13,4.18.4,2.97,31.43-4.22,2.79,11.73-30.19,3.33.33,2.98,30.56-3.37,2.79,11.75-29.26,2.44.25,2.99,29.71-2.48,2.8,11.79-28.33,1.51.16,3,28.87-1.54,2.81,11.82-27.4.53.06,3,28.05-.54,5.94,25.02,2.92-.69-5.79-24.39,11.96-.23,4.44,25.23,2.96-.52-4.36-24.76,11.99-.23,2.95,25.43,2.98-.35-2.91-25.14,12.01-.23,1.47,25.63,3-.17-1.46-25.52,27.48-.53-.06-3-27.59.53-.78-13.58,30.79-1.64-.16-3-30.8,1.64-.77-13.5,34.09-2.84-.25-2.99-34.01,2.84-.77-13.42,37.38-4.12ZM517.84,92.64l.76,13.28-14.9,1.64-1.49-12.83,15.63-2.1ZM499.23,95.14l1.48,12.76-14.78,1.63-2.17-12.31,15.47-2.08ZM488.63,124.84l-2.17-12.36,14.6-1.61,1.48,12.81-13.91,1.16ZM502.89,126.66l1.49,12.86-13.04.7-2.18-12.41,13.74-1.15ZM465.5,99.67l15.29-2.05,2.15,12.24-14.64,1.61-2.8-11.8ZM469,114.41l14.46-1.6,2.16,12.28-13.81,1.15-2.81-11.83ZM472.51,129.19l13.63-1.14,2.17,12.32-12.98.69-2.82-11.88ZM478.87,155.96l-2.83-11.93,12.8-.68,2.18,12.37-12.15.23ZM494.05,155.67l-2.2-12.48,12.87-.69,1.5,12.93-12.17.24ZM521.42,155.14l-12.18.24-1.51-13.03,12.92-.69.77,13.48ZM520.47,138.66l-13.09.7-1.5-12.95,13.83-1.15.77,13.41ZM519.53,122.26l-14,1.17-1.49-12.88,14.73-1.62.76,13.34Z"/>
      </g>
      <circle class="cls-7" cx="297.77" cy="300.15" r="9.49"/>
      <g>
        <path class="cls-2" d="M284.46,350.89c-.31,0-.63-.04-.95-.13-1.86-.52-2.94-2.46-2.42-4.32l13.31-47.24c.52-1.86,2.46-2.94,4.32-2.42,1.86.52,2.94,2.46,2.42,4.32l-13.31,47.24c-.44,1.54-1.84,2.55-3.37,2.55Z"/>
        <path class="cls-2" d="M300.01,346.66c-7.85-1.63-19.83-4.11-27.67-5.73l-7.36,15.83c9.86,2.04,25.65,5.31,35.51,7.35l-.47-17.46Z"/>
      </g>
      <g>
        <path class="cls-10" d="M396.72,101.21l-4.24-5.5c4.62-3.58,16.67-14.76,16.87-23.48.21-9.25-15.5-12.74-15.59-12.82l4.37-5.4c.49.4,18.46,5.68,18.17,18.37-.31,13.58-17.6,27.3-19.57,28.82Z"/>
        <polygon class="cls-3" points="395.67 61.36 380.56 55.59 384.48 48.32 400.03 54.01 395.67 61.36"/>
        <rect class="cls-3" x="377.39" y="96.68" width="28.42" height="8.93" transform="translate(33.71 289.56) rotate(-42.25)"/>
      </g>
    </g>
  </g>
</svg>