<?xml version="1.0" encoding="utf-8"?>
<!-- Generator: Adobe Illustrator 22.1.0, SVG Export Plug-In . SVG Version: 6.00 Build 0)  -->
<svg version="1.1" id="Layer_1" xmlns="http://www.w3.org/2000/svg" xmlns:xlink="http://www.w3.org/1999/xlink" x="0px" y="0px"
	 viewBox="0 0 590 479.21" enable-background="new 0 0 590 479.21" xml:space="preserve">
<path fill="#52575D" d="M423.18,123.26c-49.37,0-89.36,39.99-89.36,89.36c0,49.48,39.99,89.47,89.36,89.47
	c49.48,0,89.47-39.99,89.47-89.47C512.64,163.25,472.66,123.26,423.18,123.26z M423.18,273.83c-33.7,0-61.1-27.41-61.1-61.21
	c0-33.7,27.41-61.1,61.1-61.1c33.8,0,61.21,27.41,61.21,61.1C484.39,246.43,456.98,273.83,423.18,273.83z"/>
<path fill="#778CBC" d="M559.08,419.44h-32.26v31.95h32.26c8.81,0,15.94-7.14,15.94-15.94v-0.07
	C575.03,426.58,567.89,419.44,559.08,419.44z"/>
<path fill="#778CBC" d="M559.08,359.32h-32.26v31.95h32.26c8.81,0,15.94-7.14,15.94-15.94v-0.07
	C575.03,366.46,567.89,359.32,559.08,359.32z"/>
<path fill="#52575D" d="M100.07,123.26c-49.37,0-89.36,39.99-89.36,89.36c0,49.48,39.99,89.47,89.36,89.47
	c49.48,0,89.47-39.99,89.47-89.47C189.54,163.25,149.55,123.26,100.07,123.26z M100.07,273.83c-33.7,0-61.1-27.41-61.1-61.21
	c0-33.7,27.41-61.1,61.1-61.1c33.8,0,61.21,27.41,61.21,61.1C161.28,246.43,133.87,273.83,100.07,273.83z"/>
<circle fill="#52575D" cx="282.6" cy="212.67" r="26.66"/>
<path fill="#778CBC" d="M435.41,380.93h-26.9c-4.79,0-8.67,3.88-8.67,8.67v31.52c0,4.79,3.88,8.67,8.67,8.67h26.9V380.93z"/>
<path fill="#98ACF8" d="M522.47,342.17h-47.3c-24.53,0-44.41,19.88-44.41,44.41v37.55c0,24.53,19.88,44.41,44.41,44.41h47.3
	c4.79,0,8.67-3.88,8.67-8.67V350.84C531.14,346.05,527.26,342.17,522.47,342.17z"/>
<path fill="#363838" d="M563.39,408.78h-21.59v-6.84h21.59c14.67,0,26.61-11.93,26.61-26.67c0-14.67-11.93-26.61-26.61-26.61h-21.81
	c-1.1-9.62-9.2-17.15-19.11-17.15h-47.3c-24.65,0-45.32,16.39-52.33,38.76h-18.44c-10.65,0-19.33,8.67-19.33,19.33v5.1h-41.5
	c-27.73,0-50.3-22.57-50.3-50.3V240.07c7.66-3,13.73-9.08,16.73-16.74h13.7c5.34,50.21,47.92,89.45,99.52,89.45
	c55.2,0,100.12-44.91,100.12-100.11s-44.91-100.11-100.12-100.11c-15.75,0-30.61,3.76-43.88,10.27l-29.18-46.41l15.6-37.94h20.43
	c5.89,0,10.66-4.77,10.66-10.66s-4.77-10.66-10.66-10.66h-27.67c0,0-0.01,0-0.01,0h-40.9c-5.89,0-10.66,4.77-10.66,10.66
	s4.77,10.66,10.66,10.66h25.08l-10.85,26.38H173.29l18.15-43.52h34.65c5.89,0,10.66-4.77,10.66-10.66S231.98,0,226.08,0h-41.75
	c-4.3,0-8.19,2.59-9.84,6.56l-45.94,110.17c-9.03-2.68-18.56-4.18-28.45-4.18C44.9,112.56,0,157.47,0,212.67
	s44.9,100.11,100.11,100.11s100.12-44.91,100.12-100.11c0-37.76-21.03-70.69-51.99-87.74l12.46-29.89l95.57,104.62
	c-1.96,3.94-3.16,8.32-3.16,13.01c0,12.49,7.84,23.13,18.84,27.42v104.31c0,39.5,32.13,71.63,71.63,71.63h41.5v5.09
	c0,10.66,8.67,19.33,19.33,19.33h18.44c7.01,22.37,27.68,38.76,52.33,38.76h47.3c9.91,0,18.01-7.53,19.11-17.15h21.81
	c14.67,0,26.61-11.93,26.61-26.67C590,420.71,578.07,408.78,563.39,408.78z M178.9,212.67c0,43.44-35.34,78.79-78.79,78.79
	c-43.44,0-78.78-35.34-78.78-78.79s35.34-78.79,78.78-78.79c6.98,0,13.72,1,20.17,2.71l-2.7,6.48c-5.6-1.41-11.43-2.24-17.46-2.24
	c-39.6,0-71.82,32.22-71.82,71.82s32.22,71.82,71.82,71.82c39.6,0,71.82-32.22,71.82-71.82c0-26-13.94-48.75-34.69-61.36l2.71-6.49
	C163.21,158.53,178.9,183.77,178.9,212.67z M96,222.51c1.34,0.56,2.73,0.83,4.1,0.83c4.18,0,8.13-2.47,9.84-6.57l18.96-45.48
	c13.08,9.13,21.69,24.25,21.69,41.38c0,27.84-22.65,50.5-50.5,50.5s-50.5-22.66-50.5-50.5s22.65-50.5,50.5-50.5
	c3.12,0,6.15,0.38,9.12,0.92l-18.96,45.47C88,214,90.57,220.25,96,222.51z M282.6,204.52c4.5,0,8.15,3.66,8.15,8.15
	c0,4.49-3.66,8.15-8.15,8.15c-4.5,0-8.15-3.66-8.15-8.15C274.44,208.18,278.1,204.52,282.6,204.52z M372.69,152.31l3.76,5.98
	c-12.74,10.98-21.55,26.33-24.15,43.71h-7.04C347.96,182.15,358.03,164.61,372.69,152.31z M432.25,206.99l-26.16-41.62
	c5.37-1.96,11.09-3.2,17.14-3.2c27.85,0,50.5,22.66,50.5,50.5s-22.65,50.5-50.5,50.5c-24.17,0-44.39-17.1-49.3-39.83h49.3
	c3.88,0,7.46-2.11,9.33-5.51C434.44,214.43,434.31,210.28,432.25,206.99z M403.93,202.01h-30.01c2.13-9.83,7.11-18.59,14.05-25.38
	L403.93,202.01z M423.22,133.88c43.45,0,78.79,35.34,78.79,78.79s-35.34,78.79-78.79,78.79c-39.81,0-72.74-29.72-77.97-68.12h7.04
	c5.18,34.55,34.97,61.16,70.93,61.16c39.6,0,71.82-32.22,71.82-71.82s-32.22-71.82-71.82-71.82c-10.22,0-19.94,2.18-28.75,6.05
	l-3.72-5.92C400.67,136.46,411.64,133.88,423.22,133.88z M361.28,134.17c-20.58,16.27-34.66,40.39-37.58,67.83h-13.7
	c-1.59-4.06-4.02-7.67-7.13-10.63l37.32-90.74L361.28,134.17z M323.09,86.18l-39.92,97.07c-0.19,0-0.37-0.06-0.57-0.06
	c-3.75,0-7.31,0.77-10.61,2.05l-90.51-99.06H323.09z M568.67,375.33c0,2.91-2.36,5.28-5.28,5.28h-21.59v-10.63h21.59
	C566.31,369.98,568.67,372.35,568.67,375.33z M406.41,391.59h13.69v27.53h-13.69V391.59z M441.97,429.49v-48.26
	c2.59-16.06,16.43-28.39,33.21-28.39h45.3v49.11v6.84v49.11h-45.3C458.4,457.88,444.56,445.54,441.97,429.49z M563.39,440.73h-21.59
	V430.1h21.59c2.92,0,5.28,2.37,5.28,5.35C568.67,438.36,566.31,440.73,563.39,440.73z"/>
<path fill="#363838" d="M468.95,380.61c-5.89,0-10.66,4.77-10.66,10.66v28.16c0,5.89,4.77,10.66,10.66,10.66
	c5.89,0,10.66-4.77,10.66-10.66v-28.16C479.61,385.39,474.85,380.61,468.95,380.61z"/>
</svg>
