<?xml version="1.0" encoding="UTF-8"?>
<svg id="_Layer_" data-name="&amp;lt;Layer&amp;gt;" xmlns="http://www.w3.org/2000/svg" viewBox="0 0 1781.29 2431.74">
  <defs>
    <style>
      .cls-1 {
        fill: #ead88b;
      }

      .cls-2 {
        opacity: .76;
      }

      .cls-3 {
        opacity: .51;
      }

      .cls-4 {
        fill: #fff;
      }

      .cls-5 {
        fill: #fbfdd6;
      }

      .cls-6 {
        fill: #cedeea;
      }

      .cls-7 {
        opacity: .41;
      }

      .cls-8 {
        fill: #f49422;
      }

      .cls-9 {
        opacity: .56;
      }

      .cls-10 {
        fill: #99250a;
      }

      .cls-11 {
        fill: #511910;
      }

      .cls-12 {
        opacity: .39;
      }

      .cls-13 {
        fill: #b73913;
      }

      .cls-14 {
        fill: #27315b;
      }

      .cls-15 {
        fill: #424868;
      }

      .cls-16 {
        fill: #fffff3;
      }

      .cls-17 {
        opacity: .22;
      }
    </style>
  </defs>
  <g>
    <path class="cls-8" d="M1314.38,1437.56c-5.63-205.87-3.55-382.66-19.35-592.56-176.5,144.48-406.07,147.92-618.79,167.97-20.68,66.25-91.25,136.12-163.01,108.2-59.15-25-71.67-99.09-102.4-149.69-113.47-23.21-214.25-38.05-308.42-114.92-17.03,316.16-90.67,970.35,51.14,1170.2,142.05,200.18,575.3,199.34,829.53,156.38,373.11-85.35,356.25-435.32,331.3-745.58Z"/>
    <g class="cls-7">
      <path class="cls-13" d="M1310.75,1437.56c-5.63-205.87-3.55-382.66-19.35-592.56-73.93,60.52-157.19,96.24-244.6,118.85,6.19,82.7,9.18,165.47,8.13,247.62-2.37,186.69-4.51,528.25-99.15,692.21-93.97,162.8-205.79,207.07-493.33,160.81-198.73-31.97-336.28-114.03-388.42-358.7-1.43-6.69-3.57-13.19-5.37-19.79,8.61,146.38,31.85,271.14,81.25,340.75,142.05,200.18,575.3,199.34,829.53,156.38,373.11-85.35,356.25-435.32,331.3-745.58Z"/>
    </g>
    <g class="cls-9">
      <path class="cls-10" d="M1321.36,1437.56c-5.63-205.87-3.55-382.66-19.34-592.56-18.31,14.99-37.25,28.27-56.64,40.36.38,35.89,17.54,637.93,16.03,728.45-1.98,119.09,6.58,236.47-52.67,345.7-4.64,8.55-13.18,18.3-22.15,14.52-7.16-3.02-8.4-12.47-8.57-20.24-1.13-51.59-14.33-415.85-16.88-474.91-5.22-121.02-9.69-242.08-13.84-363.14-2.04-59.52-4.41-119.05-5.81-178.59-144.2,55.58-305.57,61.42-458.26,75.82-8.54,27.35-25.59,55.3-47.7,76.74,79.82-13.08,165.68-36.39,244.5,15.26,68.4,44.81,68.18,106.07,77.21,179.43,11.9,96.71,9.43,196.58,11.19,293.82,2.1,116.01,3.73,232.12,2.5,348.15-.38,35.48-.75,71.07-2.3,106.51-1.16,26.51-5.17,55.84-34.02,65.62-49.85,16.89-96.72,25.59-149.54,27.22-115.19,3.56-236.97-.85-349.92-23.67-121.77-24.6-220.52-85.28-297.97-182.09-12.23-15.28-24.33-31.7-35.61-48.97,13.24,64.48,32.29,118.17,58.97,155.77,142.05,200.18,575.3,199.34,829.53,156.38,373.11-85.35,356.25-435.32,331.3-745.58Z"/>
    </g>
    <path class="cls-5" d="M1347.43,489.41c1.49-75.3-56.75-118.06-112.72-156.45-24.41-129.37-107.77-127.87-213.94-144.76-32.97-45.37-67.22-87.5-125.59-99.18-38.54-7.71-78.94-1.19-117.33-9.63-61.39-13.5-112.47-64-175.31-65.82-34.63-1-67.45,13.51-95.3,33.08-27.55,19.36-47.8,43-72.99,65.05-12.43,10.88-26.46,20.67-40.18,29.83-7.15,4.77-32.49,25.22-41.08,23.15-118.87-28.56-233.63,83.18-228.74,200.6-85.68,63.51-121.78,207.85-2.35,255.5-7.73,70.71-12.13,139.64-7.1,210.36,44.87,110.99,210.89,122.05,318.35,137.67,32.86,51.73,32.16,153.59,110.5,154.59,71.27,1.6,115.11-59.01,143.24-118.56,189.62,6.67,382.66-21.02,555.15-103.6,89.14-31.29,47.32-168.62,30.24-237.5-1.35-5.67-2.46-11.5-5.09-16.59,50.09-33.81,88.99-95.12,80.23-157.75Z"/>
    <path class="cls-1" d="M409.85,960.07c9.59-18.87-6.28-55.18-14.01-68.99-15.88-28.35-40.36-51.08-66.17-70.32-19.04-14.19-40.97-25.79-54.38-45.39-28.63-41.84-18.1-109.99,19.95-141.65,7.53-6.26,16.08-11.52,22.06-19.27,5.98-7.75,8.76-19.17,3.27-27.28-4.57-6.75-13.34-9.21-21.47-9.78-20.5-1.43-40.55,5.93-61.02,7.77-34.39,3.07-69.88-10.54-93.4-35.81-18.94-20.36-36.46-57.11-29.93-85.78,5.89-25.87,31.37-52.87,50.45-70.03,49.93-44.93,116.07-75.58,183.01-69.95,26.93,2.26,55.03,10.1,80.21.27,13.88-5.42,18.22-13.78,27.66-23.8,9.81-10.4,21.35-19.57,33.01-27.8,23.53-16.61,49.88-29.25,77.62-37.02,45.51-12.75,94.62-12.37,139.92,1.08,13.1,3.89,25.86,8.83,38.66,13.61,5.84,2.18,14.49,3.09,16.37-2.86,1-3.16-.82-6.48-2.79-9.15-7.78-10.55-16.83-15.02-28.25-19.96-12.77-5.53-24.22-13.29-37.52-18.01-26.38-9.36-54.9-12.55-82.74-9.93-47.2,4.44-92.03,24.69-130.12,52.91-19.14,14.18-39.41,31.28-63.18,29.77-10.84-.69-21.02-5.31-31.68-7.41-19.29-3.8-39.26.8-57.84,7.26-18.58,6.46-36.6,14.81-55.84,18.85-19.24,4.05-40.51,3.31-57-7.41-26.3-17.1-27.65-53.5-14.21-78.4-48.51,36.7-78.72,101.36-76.2,161.94-85.68,63.51-121.78,207.85-2.35,255.5-2,18.29-3.76,36.46-5.21,54.57,6.05-1.35,12.67-.47,18.02,2.44,29.46,16.05,37.41,59.3,39.33,89.6,1.75,27.6-17.41,72.42-53.06,49.45-2.67-1.72-5.01-3.58-7.27-5.48.31,6.59.62,13.17,1.09,19.79,42.83,105.96,164.95,106.01,257.05,134.81,6.79,2.12,13.87,4.27,20.9,3.2,8.77-1.34,14.14-5.5,17.09-11.31Z"/>
    <path class="cls-1" d="M1093.61,891.46c-17.21,5.6-34.05,12.2-51.92,17.09-63.02,17.22-126.96,34.56-192.3,34.59-17.34,0-35.48-1.46-50.2-10.62-14.72-9.16-24.63-28.13-18.31-44.28,5.32-13.59,19.86-21.07,33.78-25.49,13.91-4.42,28.9-7.26,40.3-16.37,14.91-11.91,21.58-32.96,38.53-41.71,18.62-9.61,40.79-.43,60.94,5.3,38.17,10.86,79.99,8.45,116.66-6.74,36.67-15.18,67.95-43.04,87.27-77.71,3.82-6.86,7.39-14.21,13.6-19,14.79-11.4,34.64-3.61,51.11-1.82,19.34,2.11,35.45-5.59,54.23-9.47.68-.45,1.39-.86,2.06-1.31-2.54-10.12-4.99-19.55-7.07-27.94-1.35-5.67-2.46-11.5-5.09-16.59,50.09-33.81,88.99-95.12,80.23-157.76,1.49-75.3-56.75-118.06-112.72-156.45-24.41-129.37-107.77-127.87-213.94-144.76-27.45-37.78-55.84-73.24-98.25-90.81,6.23,6.51,12.25,13.29,17.85,20.53,28.35,36.6,50.05,78.56,67.16,121.51,8.72,21.88,12.96,47.57,25.06,67.88,15.92,26.72,41.53,28.8,69.8,33.72,52.82,9.19,99.25,46.63,121.96,94.84,24.29,51.58,16.7,104.4-28.38,141.7-15.38,12.72-36.82,19.52-55.8,13.37-13.18-4.27-25.23-14.48-38.99-12.86-10.13,1.19-18.56,8.88-23.36,17.89-7.72,14.5-7.2,26.74-18.56,39.38-10.17,11.31-21.24,21.69-34.73,28.97-24.81,13.4-54.63,18.11-82.39,13.28-19.41-3.38-44.37-25.76-62.92-20.78-11.91,3.2-21.01,12.86-27.74,23.19-6.72,10.34-11.76,21.77-19.28,31.55-26.12,33.95-74.26,39.89-111.25,61.48-49.97,29.16-67,82.46-79.69,135.23-8.14,33.87-16.54,67.8-30.5,99.83-31.69,72.7-102.73,93.05-148.31,33.7,14.61,41.97,32.84,81.02,81.2,81.64,71.27,1.6,115.11-59.01,143.24-118.56,189.62,6.67,382.66-21.02,555.15-103.6,74.31-26.08,48.89-116.83,43.83-175.72-11.26,44-37.01,84.17-72.29,112.76-26.59,21.55-58.37,36.31-91.85,43.25-9.63,2-18.94,4.7-28.13,7.69Z"/>
    <path class="cls-6" d="M1737.08,1001.78c-8.64-118.68-55.86-212.64-98.22-265.13-58.71-72.74-132.85-77.45-303.81-61.93-8.46-16.85.58-73.31-10.6-76.13-.17.22-.3.47-.48.69-9.57,11.97-19.48,23.58-31.07,33.69-2.78,2.43-5.73,5.02-8.85,7.55-.22,3.91-.25,8.92-.04,15.55,2.36,75.02,24.95,243.58,29.55,303.36,21.81,289.81,15.44,580.36-2.74,871.66-12.52,416.04-690.51,426.8-985.9,316.53-238.71-89.11-232.42-283.2-244.17-475.4-10.52-172.05-14.33-305.89,4.04-426.8,1.29-203.8,4.48-405.01,28.77-606.12-3.45-8.08-1.58-26.35-14.87-21.25-46.27-76.28-51.56,295.68-55.86,330.58-9.86,270.16-38.03,538.21-28.1,808.84-32.73,575.64,226.39,642.25,739.17,648.95,199.8,6.32,419.03-52.19,556.64-181.91,134.91-280.71-40.67-447.44,301.01-620.94,168.81-130.37,139.11-415.37,125.53-601.82ZM1594.65,1192.78c-8.79,49.33-30.7,119.92-45.98,155.53-27.44,91.07-69.54,130.72-163.79,137.21,22.91-188.05-8.17-386.87-18.55-580.47,183.87-159.42,236.77,149.13,228.31,287.73Z"/>
    <path class="cls-1" d="M630.93,536.32c-15.11-19.61-41.19-24.82-64.67-23.74-23.43,1.08-45.8,6.88-66.37,18.19-11.2,6.16-21.72,13.78-31.2,22.35-9.27,8.37-15.75,18.97-21.33,30.06-1.99,3.95,2.39,9.77,6.68,6.68,15.39-11.11,32.58-20.61,50.68-27.35,1.84,6.01,6.71,10.96,14.05,10.48,24.81-1.62,49.42,7.45,73.81,10.9,11.99,1.69,22.35,2.19,33.17-4.92,14.82-9.74,15.48-29.27,5.18-42.64Z"/>
    <path class="cls-1" d="M1050.85,399.3c-13.92,3.1-27.58,10.41-39.93,17.89-16.05,9.72-32.9,20.53-51.88,23.11-17.98,2.45-33-1.68-50.83-3.78-66.7-7.84-125.4,45.56-145.11,106.09-1.56,4.78,4.49,7.28,7.77,4.53,20.09-16.8,38.2-36.48,61.02-49.74,24.63-14.32,52.7-15.34,80.06-8.9,17.4,4.1,35.01,9.45,52.8,7.73,31.12-3.01,36.55-28.63,55.03-48.21,6.8-5.95,11.34-14.82,19.26-19.14,11.76-6.41,26.92-9.54,39.57-14.01,3.45-1.22,7.46-3.09,7.92-6.72.53-4.15-3.97-7.06-7.97-8.3-9.15-2.82-18.5-2.61-27.72-.56Z"/>
    <g class="cls-12">
      <path class="cls-15" d="M1557.66,1592.41c-38.49,12-78.96,18.58-119.14,21.45-7,.5-14.21.9-21.05-.94-9.02-2.43-12.14-7.83-14.32-16.71-2.37-9.66-3.88-19.62-5.45-29.43-.84-5.23-1.1-10.63-2.12-15.82-1.19-6.08-3.07-11.62-3.32-17.91-.11-2.82-4.04-2.73-4.31,0-.66,6.64-2.83,12.89-3.73,19.45-.79,5.78-.58,11.98-.65,17.81-.12,11.17.43,22.57,2.32,33.6.62,3.63,1.72,6.83,3.02,9.83-2.18.55-4.01,2.09-5.08,4.65-2.78,6.68-1.79,13.4.35,20.04-1.13,2.7-1.55,5.72-.73,8.78,4.46,16.7,5.48,35.02,3.85,52.18-1.22,12.89,18.43,21.47,26.69,11.05,9.33-11.77,18.72-23.65,29.95-33.69,10.51-9.39,22.78-16.3,35.33-22.57,28.71-14.32,58.1-27.39,87.16-41.01,11.69-5.48,3.43-24.57-8.76-20.77Z"/>
    </g>
    <g class="cls-12">
      <path class="cls-15" d="M1625.73,1106.7c.18-3.39.43-6.82.6-10.2,2.58-52.05-1.66-107.77-13.54-158.56-10.81-46.2-36.14-91.52-78.12-115.9-22.15-12.86-47.31-18.52-72.81-16.31-20.46,1.77-57.1,13.28-70.62-9.25-10.87-18.1-36.85-2.26-27.96,16.35.67,1.41,1.2,2.85,1.83,4.26-1.57,28.46.08,57.02-.02,85.59-.07,18.86,29.04,18.87,29.3,0l.07-5.09c1.58-1.09,3.25-2.22,4.76-3.27,2.01-1.39,3.86-3,5.77-4.51.03-.02.38-.29.78-.58.81-.58,1.61-1.17,2.42-1.74,6.07-4.25,12.25-8.39,18.8-11.87,3.06-1.63,6.19-3.12,9.38-4.5,2.04-.8,3.76-1.53,5.47-2.28.38-.17,1.48-.65,1.56-.69.36-.14.72-.29,1.08-.44,2.3-.91,4.64-2.03,6.98-3.09.61-.02,1.23-.08,1.84-.09,4.73-.07,9.44.29,14.16.44,4.42.14,8.79.77,13.21.43,2.98-.23,5.8-.75,8.53-1.5.96.74,1.89,1.42,2.66,2.01,2.33,1.79,4.81,3.3,7.2,5,.37.26,1.07.81,1.31.99.83.68,1.64,1.38,2.46,2.08.54.46,2.87,2.32,3.63,2.92.52.43,1.21,1,1.34,1.11,1.81,1.53,3.56,3.14,5.25,4.8,3.41,3.35,6.53,6.99,9.65,10.6.71.82,1.39,1.66,2.09,2.49.27.32.43.5.57.66.13.18.21.29.4.55,1.44,1.95,2.81,3.93,4.19,5.92.73,1.05,1.44,2.11,2.17,3.15,7.56,15.4,15.33,30.71,22.04,46.52,12.7,29.89,21.52,60.65,30.28,91.79.73,11.41,1.28,22.78,1.78,34.07,1.11,25.51,2.94,50.69,1.71,76.24-1.26,26.16-3.95,52.11-6.99,78.11-2.98,25.41-6.18,50.5-11.44,75.46-8.37,32.66-18.03,65.02-26.72,97.53-4.36,16.31,18.68,21.7,24.67,6.8,20.12-50.3,36.88-102.25,46.69-155.71,2.6-14.14,4.79-28.47,6.33-42.84,4.61-22.81,6.87-46.24,6.89-69.13.01-12.84-.62-25.58-1.62-38.32Z"/>
    </g>
    <g class="cls-12">
      <path class="cls-15" d="M1232.8,2116.11c18.46-14.35,34.65-28.1,46.25-48.4,11.81-20.66,21.52-42.48,29.36-64.94,15.65-44.82,24.01-92.27,25.26-139.71.85-32.08,1.68-64.19,1.77-96.28.09-32.93-3.7-65.92-2.92-98.76.09-3.66-5.51-3.64-5.67,0-1.4,31.3-7.55,62.72-10.68,93.94-.96,9.64-1.85,19.29-2.76,28.93-1.72.07-3.32.9-4.15,2.81-9.97,23.04-11.45,48.26-14.56,73.05-3.14,25.02-6.18,50.02-10.08,74.94-3.47,22.19-8.7,43.38-20.2,62.85-11.49,19.45-27.22,36.33-43.67,51.68-34.21,31.94-75.98,54.76-119.23,72.09-45.7,18.31-92.95,33-140.68,44.97-189.07,47.43-391.61,45-578.71-11.15-50.84-15.26-99.81-36.27-143.9-66.09-20.51-13.87-39.18-30.03-56.68-47.53-8.15-8.15-16.1-16.66-23.58-25.42-8.86-10.37-18.66-19.68-26.89-30.6-1.66-2.2-5.67-1.06-4.77,2.01,6.53,22.21,14.06,41.69,27.84,60.57,13.32,18.24,28.66,34.55,45.69,49.36,37.35,32.5,80.18,56.31,125.81,75.11,95.88,39.5,201.27,58.63,304.33,66.16,103.61,7.57,209.47,1.33,311.52-18.2,51.31-9.82,101.86-23.25,151.25-40.3,50.01-17.26,98.07-38.49,140.05-71.12Z"/>
    </g>
    <g class="cls-12">
      <path class="cls-15" d="M1143.52,2334.63c31.4-14.4,60.38-32.58,87.55-53.86,50.68-39.69,92.64-88.9,118.43-148.16,2.88-6.62,5.52-13.2,7.93-19.77,8.84-24.16,14.52-48.36,17.28-75.2,1.84-17.83,2.5-35.78,1.99-53.69-.46-15.93-6.54-35.48-4.7-50.96-9.19,77.12-35.59,164.26-87.41,223.64-32.67,37.43-77.31,65.52-120.46,89.42-87.53,48.48-183.85,79.62-282.32,96.37-99.11,16.86-200.78,17.93-300.68,8.03-101.48-10.05-205.41-31.14-300.59-68.28-51.17-19.97-98.54-47.01-140.73-82.19-20.42-17.03-38.82-36.11-55.08-57.14-16.11-20.83-32.74-42.09-44.01-66-2.71-5.76-10.86-1.48-9.75,4.11,4.86,24.36,10.86,47.2,21.64,69.69,10.73,22.38,26.36,42.83,42.43,61.65,33.52,39.27,76.48,69.99,121.86,94.2,96.58,51.52,208.3,75.86,315.97,90.5,86.44,11.75,174.12,14.42,261.1,7.76,83.04-6.36,165.85-16.11,246.3-38.52,34.19-9.53,71.17-16.87,103.24-31.58Z"/>
    </g>
    <g class="cls-12">
      <path class="cls-15" d="M1325.9,1618.8c-.3-29.43,8.28-61.54,12.22-90.75,15.05-111.8-13.52-463.82,28.22-406.52,0,0,12.66-39.08,8.74-91.57-4.2-56.19-9.15-112.33-14.73-168.41-4.89-49.17-10.43-98.27-16.61-147.29-3-23.81-3.57-50.18-9.74-73.36-5.97-22.46-18.04-17.53-34.35-5.71-8.63,6.26-14.32,13.71-18.14,23.68-5.94,15.51-.11,34.83,1.7,51.04,2.39,21.45,4.79,42.89,7.18,64.34,3.1,27.8,5.92,55.63,8.22,83.51,2.07,25.14.44,52.67,6.46,77.18,11.44,46.57,10.04,93.86,11.25,142.01,2.87,113.58,5.19,227.17,6.98,340.77,1.05,67.02,1.92,134.05,2.6,201.08Z"/>
    </g>
    <path class="cls-16" d="M692.65,635.98c-22.71-46.76-90.38-32.26-130.7-23.77-26.69,5.62-53.26,13.25-80.58,15.1-28.92,1.97-55.84-7.56-84.46-7.97-51.52-.73-89.63,42.19-97.64,90.96-3.86,23.47,1.87,49.26,18.6,66.17,21.54,21.76,55.25,24.67,82.66,38.33,40.24,20.04,64.6,62.17,80.36,104.28,5.13,13.71,9.79,28.01,19.2,39.23,9.4,11.21,25.06,18.68,38.86,13.83,13.15-4.63,20.52-18.51,24.9-31.74,10.1-30.48,10.98-63.11,15.54-94.9,4.56-31.79,13.79-64.66,36.62-87.24,16.09-15.92,37.48-25.24,55.43-39.03,27.39-21.05,36.54-51.66,21.22-83.23Z"/>
    <g>
      <path class="cls-16" d="M1111.27,479.42c-.49.39-.99.74-1.49,1.12-.61.47-1.2.96-1.81,1.43,1.1-.85,2.2-1.7,3.3-2.55Z"/>
      <path class="cls-16" d="M1130.58,438.66c-43.23-23.64-77.85,20.53-105.24,46.54-15.24,14.48-32.19,26.84-50.61,37.02-7.62,4.21-16.43,9.82-24.79,12.27-8.47,2.49-19.07-7.06-27.96-10.12-22.66-7.83-47.13-5.14-67.43,5.45-3.05.51-6.04,1.16-8.8,2.23-18.24,7.1-36.41,19.22-44.5,37.66-9.01,20.54-6.9,47.27,14.78,59.05,22.35,12.14,43.05,1.19,64.91-5.29,10.56-3.13,21.75-4.87,32.75-3.29,12.65,1.81,24.77,6.28,37.5,7.89,21.41,2.7,41.32-3.55,56.63-19,14.78-14.93,22.15-34.2,32.94-51.79,4.71-7.68,9.98-15.46,17.63-20.49,9.86-6.48,21.64-8.19,32.84-11.08,19.82-5.11,37.76-14.19,49.64-31.49,13.3-19.37,11.67-43.54-10.29-55.55ZM1096.12,492.28c2.68-2.8,5.5-5.45,8.48-7.84,1.73-1.28,3.46-2.58,5.18-3.9.89-.68,1.76-1.4,2.65-2.09-1.39,1.74-2.86,3.33-3.87,4.46-3.58,3.97-7.83,6.96-12.44,9.37Z"/>
    </g>
    <path class="cls-16" d="M728.11,335.64c-28.82-9.95-60.23-6.43-89.33.19-15.22,3.46-30.27,7.65-45.63,10.44-5.7,1.04-12.09,2.4-17.92,1.46-1.31-.21-2.48-.61-3.81-.9,3.78-10.67,11.69-19.07,22.02-23.46,12.73-5.4,26.25-9.27,29.52-24.84,6.3-30.07-32.84-34.71-53.3-30.7-12.22,2.39-24.04,5.64-33.93,13.45-11.83,9.34-21.08,21.24-29.94,33.33-17.83,24.33-36.59,48.2-65.24,60.34-15.79,6.69-29.77,6.78-45.34-.27-15.92-7.21-31.42-14.93-48.48-19.21-32.39-8.13-67.66-6.58-96.6,11.44-6.5,4.05-12.4,8.66-17.6,13.78-29.48,15.42-53.47,43.14-56.55,74.21-7.03,70.86,81.81,82.03,132.71,80.52,32.15-.96,64.49-6.98,93.13-22.1,26.32-13.9,48.24-34.6,73.78-49.73,25.93-15.36,55.46-23.25,85.62-22.82,31.41.45,55.43,17.11,83.85,27.9,29.47,11.19,64.48,16.96,92.6-1.27,24.3-15.75,38.14-41.35,38.61-70.24.51-31.06-20.22-51.89-48.16-61.53Z"/>
    <g>
      <path class="cls-16" d="M321.23,245.63c-.93.12-1.58.21-2.24.3-2.05.27-1.3.17,2.24-.3Z"/>
      <path class="cls-16" d="M365.33,214.34c-1.66-3.34-4.44-5.23-7.41-7.06-7.4-8.15-18.07-11.4-29.08-13.08-14.31-2.19-28.12-.57-42.24,2.36-10.1,2.1-20.24,5.16-29.1,10.63-5.6,3.46-10.89,8.93-14.41,14.51-2.95,4.68-6.05,11.89-5.42,17.57,1.03,9.2,7.34,18.37,17.84,17.84,4.65-.24,8.99-1.72,13.51-2.71,1.76-.39,8.63-1.59.44-.32,3.97-.62,7.18-1.17,10.94-2.02,3.42-.77,6.91-1.2,10.35-1.85,2.41-.46,4.82-.94,7.24-1.34,1.29-.22,2.58-.42,3.88-.61,3.04-.43,2.59-.37-1.36.18,3.23-1.21,10.32-1.18,13.05-1.6,2.34-.35,5.02-1.17,7.41-1.17,2.01-.27,4.02-.54,6.02-.81,2.47-.51,4.96-1.18,7.41-1.79,2.42-.6,4.93-1.16,7.3-1.92,2.35-.95,4.69-1.93,7.03-2.94-3.43,1.45-2.41,1.02,3.08-1.29,1.74-1.29,3.45-2.61,5.15-3.95,1.01-.4,2.04-.79,3.04-1.24,1.43-.76,2.59-1.78,3.5-3.07,3.52-4.41,4.4-9.16,1.84-14.3Z"/>
    </g>
    <path class="cls-16" d="M424.31,208.41c-.64-2.28-1.79-4.25-3.45-5.93-.48-.39-.97-.77-1.47-1.14-1.31-1.19-2.84-2-4.6-2.42-1.19-.32-2-.4-2.93-.52-1.82-.41-3.65-.33-5.47.25-1.76.48-2.55.8-3.6,1.53-.22.15-.43.31-.64.47-1.58,1.2-3.2,2.33-4.54,3.8-1.36,1.37-2.31,2.99-2.83,4.86-.46,1.46-.52,2.93-.2,4.39.07,1.46.5,2.83,1.31,4.09.98,1.65,2.29,2.97,3.95,3.95,1.07.5,2.07,1.13,3.01,1.85-.2-.15-.4-.31-.6-.46,1.14.84,2.21,1.46,4.14,1.98,2.31.62,2.61.59,4.06.44.19-.02.39-.04.58-.05,3.26-.26,4.2-.47,7.11-1.92,2.02-1.19,3.62-2.8,4.82-4.82.98-1.54,1.51-3.21,1.59-4.99.4-1.79.32-3.57-.24-5.35Z"/>
    <path class="cls-16" d="M892.92,162.24c-24.64-17.07-59.71-20.23-88.71-22.55-31.75-2.54-67.5,3.31-94.65-16.14-26.13-18.71-47.91-40.28-79.32-50.52-63.08-20.56-131.08,22.96-147.19,85.31-.97,3.76.26,6.97,2.5,9.13.83,6.76,3.61,13.73,9.11,20.78,5.5,7.05,15.9,6.12,22.96,2.96,63.85-28.55,132.88-25.02,199.81-10.69,31.45,6.73,59.89,19.63,89.77,31.12,26.02,10.01,61.44,36.29,89.13,19.26,26.63-16.38,19.28-52.95-3.41-68.67Z"/>
    <g>
      <path class="cls-16" d="M896.81,335.07c-.39.16-.44.37-.48.51.18-.17.34-.33.48-.51Z"/>
      <path class="cls-16" d="M896.25,335.28c-.14.25-.26.49-.34.67.3-.33.32-.54.34-.67Z"/>
      <path class="cls-16" d="M982.69,305.17c-9.49-14.58-25.6-22.36-42.34-25.35-17.37-3.11-35.53-3.11-52.52,2.19-18.67,5.82-34.67,18.38-40.79,37.46-6.41,19.96,2.31,41.83,20.29,52.33,9.38,5.48,20.7,7.68,31.47,7.32,4.77-.16,9.69-.54,14.55-1.23,6.4,1.42,13.25,2.54,19.64,1.99,17.78-1.54,33.9-7.83,45.07-22.29,11.37-14.72,15.27-36.05,4.62-52.41Z"/>
    </g>
    <g class="cls-17">
      <path class="cls-5" d="M604.05,2032.04c87.73-13.41,159.56-44.48,159.64-126.87.2-195.94,0-239.87-4.02-419.64-1.35-60.33-7.92-116.9-5.77-178.19,1.46-41.83-6.53-89.01-40.59-113.34-41.07-29.34-97.46-11.64-147.88-14.23-49.29-2.53-97.06-26.95-127.98-65.42-30.92-38.47-44.5-90.37-36.37-139.06-46.52-9.37-215.03-18.02-232.5-74.58-1.21-3.91-7.69-6.28-11.08-6.58-29.26,204.14-8.97,419.16-17.28,626.32.36,125.21-42.78,267.79,35.27,378.17,100.46,115.11,282.13,147.38,428.56,133.42Z"/>
    </g>
    <g class="cls-3">
      <path class="cls-5" d="M339.17,1439.19c6.49-161.26,12.98-322.52,19.48-483.77-31.38-3.52-161.49-58.24-162.06-40.18-.91,28.7-9.54,419.9-13.74,542.01.31,125.21-35.83,299.79,31.12,410.17,20.22,27.01,52.6,77.62,89.34,36.08,17.19-19.44,19.09-47.61,20.14-73.54,5.24-130.25,10.49-260.51,15.73-390.76Z"/>
    </g>
    <g class="cls-2">
      <path class="cls-4" d="M1605.53,1562.5c4-1.4,7.97-2.91,11.88-4.56,36.43-15.28,55.85-40.54,72.87-75.79,39.49-81.8,43.47-180.96,51.56-269.17,3.42-37.27,4.14-74.78,2.25-112.16-3.73-73.8-17.71-146.81-39.02-217.49-22.59-74.93-59.11-152.09-133.96-186.95-35.04-16.32-127.79-49.54-155.48-4.74-10.48,16.96-8.61,38.85,6.73,52.13,14.43,12.5,35.37,15.09,53.5,17.77,21.93,3.23,44.48,5.08,65.32,13.2,67.16,26.15,86.54,94.84,103.72,159.07,41.37,154.65,47.38,334.03-26.08,480.46-25.73,51.3-66.55,97.4-120.34,117.43-25.5,9.5.58,37.23,16.04,41.24,27.67,7.18,64.84-1.32,91.02-10.44Z"/>
    </g>
    <path class="cls-4" d="M250.79,1095.84c-.93-11.12-1.64-22.28-3.59-33.28-1.75-9.91-2.21-20.97-8.16-29.3-5.27-7.39-15.22-6.75-19.99.74-5.44,8.53-5.59,19.92-6.87,29.85-1.43,11.1-1.81,22.35-2.61,33.51-1.54,21.42-2.73,42.87-2.6,64.35.13,21.4,1.37,42.73,3.08,64.06,1.76,21.94,2.35,44.48,5.77,66.21,1.45,9.22,13.92,11.36,16.79,1.64,6.13-20.78,9.15-43.05,12.65-64.41,3.63-22.1,6.29-44.43,7.24-66.81.95-22.23.14-44.4-1.71-66.57Z"/>
    <path class="cls-4" d="M239.04,1332.45c.86-9.13-3.62-23.28-13.52-22.31-12.63,1.25-12.42,16.4-10.1,25.57,3.19,12.59,17.43,13.27,22.6,1.13.52-1.21.85-2.72,1.01-4.39Z"/>
    <path class="cls-4" d="M1547.38,731.94c-1.16-1.9-2.47-3.71-4.07-5.27-2.95-2.88-5.85-4.66-9.8-5.94-2.82-.91-5.62-1.65-8.52-2.25-3.78-.78-8.41-1.5-12.39-1.35-1.38.05-2.77.25-4.15.38-2.52.23-5.1.29-7.47,1.25-2.31.65-4.31,1.81-6.01,3.5-1.69,1.7-2.85,3.7-3.5,6.01-1.34,4.87.2,9.6,3.5,13.25,2.44,2.7,5.87,4.56,9.02,6.36,2.27,1.3,4.87,2.14,7.32,3.1,1.43.56,2.82,1.11,4.32,1.48,2.79.7,5.53,1.2,8.37,1.63,4.28.64,7.72,1.12,11.92-.29,2.27-.76,4.49-1.62,6.5-2.92,2.87-1.86,5.58-4.82,6.36-8.27.82-3.6.57-7.44-1.4-10.67Z"/>
    <path class="cls-4" d="M288.24,2220.68c-43.44-22.42-82.99-52.26-118.76-85.36-17.97-16.63-33.9-34.65-49.04-53.86-15.19-19.27-30.62-40.09-40.75-62.52-2.21-4.9-10.42-1.42-8.71,3.67,8.42,25.03,16.02,49.59,28.55,73,12.27,22.93,28.41,44.59,45.64,64.02,35.71,40.25,82.35,68.22,133.1,84.7,13.84,4.49,23.04-16.89,9.97-23.64Z"/>
    <path class="cls-4" d="M359.62,2253c-.32-1.14-.9-2.14-1.74-2.98-.84-1.3-2.02-2.26-3.35-3.08-.2-.14-.28-.31-.44-.4-.27-.2-.54-.4-.81-.6-1.34-1.1-2.51-2.19-3.79-2.96-1.42-.86-3.01-1.36-4.54-2,1.27.54,2.54,1.07,3.81,1.61-1.69-.71-3.35-1.48-4.98-2.31-2.02-1.03-4.11-1.93-6.29-2.56-.88-.25-1.75-.52-2.61-.8-.86-.28-1.72-.58-2.57-.89-1.96-.72-4.08-.79-6.15-.89-2-.09-3.42-.23-5.61.36-1.25.34-2.48.86-3.59,1.53-4.05,2.41-6.11,6.46-6.35,11.07,0,.16,0,.3,0,.46.07,2.36.71,4.76,1.85,6.83.27.49.58.97.87,1.45.26.42.52.84.8,1.25.39.6.82,1.17,1.3,1.7,1.08,1.67,2.51,2.98,4.3,3.95.23.17.46.35.69.52.97.73,1.96,1.43,2.96,2.11,2.17,1.47,4,2.39,6.6,3.39,2.17.83,4.45,1.48,6.72,2,2.52.57,4.8.68,7.29.4,2.3-.26,4.6-.57,6.89-.93,1.08-.45,2.15-.91,3.23-1.36.91-.7,1.82-1.41,2.73-2.11,2.11-2.11,3.32-4.83,3.71-7.75.32-1.2.32-2.39,0-3.59,0-1.22-.31-2.35-.92-3.41Z"/>
    <path class="cls-4" d="M1656.33,1425.67c-4.42-1.21-8.66.9-11.15,4.54-5.48,8-10.96,15.99-16.56,23.9-1.41,1.99-2.74,4.04-4.18,6.01-.65.9-1.33,1.78-1.99,2.68,2.2-2.97-.45.54-.75.9-1,1.23-2,2.45-2.97,3.7-.46.59-.91,1.18-1.37,1.78-1.72,2.1-3.23,4-4.82,5.83-6.41,7.41-12.99,14.41-20.2,21.05-3.94,3.63-7.91,7.42-11.06,11.76-4.38,6.03-7.28,15.17.42,20.19,11.61,7.58,27.13-4.19,35.93-11.35,7.75-6.31,14.92-13.23,21.07-21.11,13.73-17.59,23.37-37.86,24.88-60.37.29-4.28-3.27-8.43-7.25-9.52Z"/>
    <path class="cls-4" d="M1593.53,762.69c-.62-1.21-1.32-2.38-2.1-3.5-.2-.29-.41-.57-.62-.85-2.1-2.8-2.02-2.84-4.81-4.87-.57-.42-1.16-.82-1.76-1.2-1.43-.9-3.01-1.51-4.59-2.09-.31-.11-.62-.22-.93-.33-.17-.06-.35-.11-.53-.16-1.05-.14-2.11-.28-3.16-.42-.95.02-1.6.06-2.25.11-1.68-.04-3.05.27-4.33.94-1.48.62-2.26.9-3.52,2.26-.16.18-1.55,1.96-1.66,2.16-.94,1.6-1.22,3.28-1.4,5.11-.1,1.03.07,2.1.39,3.08.36.85.72,1.7,1.08,2.55.55.82,1.15,1.59,1.81,2.32.3.34.59.68.88,1.03.92,1.13,1.9,1.82,3.18,2.75.43.31.85.61,1.27.93-.82-.64-1.64-1.27-2.46-1.9,1.11.87,2.19,1.8,3.39,2.54.41.25.82.51,1.23.78.37.25.73.52,1.1.77.61.41,1.36.71,2.12.99,1.05.49,2.1.99,3.1,1.6.85.36,1.7.72,2.55,1.08,1.42.44,2.84.51,4.25.19.96,0,1.86-.25,2.69-.73,1.32-.43,2.47-1.17,3.43-2.21,1.25-1.36,2.17-2.95,2.74-4.71.87-2.7.18-5.79-1.08-8.22Z"/>
    <g class="cls-3">
      <path class="cls-5" d="M936.29,1611.32c-1.33-93.68-3.71-187.4-9.55-280.93-1.63-26.02-3.59-52.44-7.24-78.26-1.76-12.47-3.66-24.93-5.42-37.4-1.98-14.06-5.69-27.53-8.42-41.47-1-5.08-8.06-3.38-8.47,1.15-1.01,11.23-3.37,22.35-3.93,33.59-.59,11.99-1.06,24-1.66,35.99-1.16,23.19-.86,46.38-.95,69.6-.17,47.2,1.79,94.46,3.18,141.63,2.77,93.64,3.83,187.37,7.1,280.99.9,25.66,1.75,51.25,3.48,76.87,1.87,27.66,7.71,54.2,10.28,81.67.61,6.56,9.58,6.56,10.21,0,2.32-24.29,7.61-47.67,9.43-72.07,1.73-23.2,2.28-46.41,2.63-69.66.72-47.24,0-94.48-.68-141.72Z"/>
    </g>
    <g class="cls-3">
      <path class="cls-5" d="M1218.06,1778.13c-1.18-67.93-2.65-135.89-4.83-203.8-4.32-134.24-10.01-268.26-21.75-402.09-3.35-38.22-6.7-76.48-11.24-114.58-4.18-35.12-4.45-78.01-23.67-108.59-3.48-5.53-11.45-4.26-13.48,1.76-10.2,30.28-3.23,66.01-.39,97.29,3.04,33.43,6.45,66.81,9.55,100.23,6.2,66.88,11.81,133.82,16.48,200.83,9.4,134.9,16.85,269.68,16.68,404.97-.05,37.57-.23,75.14-.38,112.71-.15,38.35-1.76,76.8-.03,115.1.89,19.77,28.73,19.34,30.41,0,5.85-67.34,3.84-136.29,2.66-203.83Z"/>
    </g>
    <g class="cls-12">
      <path class="cls-14" d="M1529.32,819.72c-25.09-13.03-54.65-11.77-81.55-3.8-.05-.72-.01-1.42-.25-2.16-1.51-4.65-5.47-7.72-10.39-7.91-2.46-.09-4.93-.51-7.38-.48-1.15.15-1.95.26-2.55.34-.4.05-.8.1-1.21.14-.94.09-1.89.14-2.84.23-4.94.48-9.79.81-14.75.46-2.36-.17-4.72-.36-7.07-.53-.21-.02-.32-.04-.46-.05-.32-.05-.63-.1-.95-.15-1.47-.25-2.92-.53-4.4-.73-1.43-.19-2.86-.33-4.29-.43-.39-.05-.42-.05-.56-.06-.4-.06-.8-.12-1.19-.19-1.28-.22-2.53-.57-3.79-.86-1.17-2.47-2.28-4.98-3.72-7.33-3.65-5.96-15.14-5.9-16.38,2.14-1.54,9.97-1.97,19.3-1.38,29.38.58,9.76.98,19.57,1.27,29.35.19,6.5.14,13,0,19.49-.34.57-.73,1.11-1.05,1.69-6.3,11.27-9.61,21.48-3.97,33.61,2.57,5.53,9.01,7.05,14.41,5.51,3.72,2.82,8.89,1.89,12.34-.9,2.06-1.67,4.13-3.26,5.7-6.09,1.22-2.2,2.36-4.73,3.15-7.12,1.63-4.86,1.99-10.24,2.09-15.39,3.05-4.16,6.23-8.2,9.8-11.99,9.96-10.55,21.55-19.07,34.11-26.3,26.37-15.18,55.71-20,85.49-23.31,3.15-.35,5.18-4.78,1.78-6.55Z"/>
    </g>
    <g class="cls-12">
      <path class="cls-14" d="M1348.39,676.8c-2.03-9.71-5.25-19.08-9.45-28.07-1.58-3.39-3.77-6.86-6.44-9.83-.12-1.46-.25-2.93-.4-4.38-.22-2.2-.45-4.41-.67-6.61-.21-2.03-1.33-4.1-3.5-4.59-2.19-.5-4.11.39-5.38,2.19-1.27,1.8-2.53,3.6-3.8,5.4-.11.16-.22.32-.33.48-10.88-.42-17.62,9.12-22.79,17.22-5.15,8.08-8.89,17.35-10.99,26.68-1.28,5.67.79,12.41,6.22,15.28,1.29.68,2.67,1.15,4.08,1.43-2.14,2.61-4.11,5.36-5.86,8.18-3.51,5.64-5.03,11.62-5.31,18.19-.16,3.8,4.79,5.6,7.36,3.05,7.18-7.13,14.29-14.58,22.2-20.14,8.6-6.05,16.97-9.49,27.74-11.58,5.8-1.13,8.4-7.7,7.32-12.89Z"/>
    </g>
    <g class="cls-12">
      <path class="cls-14" d="M1610.82,1232.88c-.5-23.88-7.11-44.77-13.19-67.57-2.2-8.26-16.31-6.92-15.38,2.08,2.1,20.27-1.35,41.53-3.45,61.73-2.11,20.27-6.47,40.35-12.22,59.88-11.58,39.35-34.02,73.45-47.89,111.79-3.14,8.68,7.82,16.02,15.17,11.66,2.38-1.41,4.68-2.92,6.92-4.51,2.67,8.3,15.7,11.89,20.8,2.59,9.92-18.13,17.31-38.42,23.6-58.6,8.22-17.14,14.18-35.41,18.34-52.75,5.18-21.59,7.77-44.11,7.3-66.3Z"/>
    </g>
    <g class="cls-12">
      <path class="cls-14" d="M1556.59,1609.52c-4.88.43-9.59-.76-14.47-.43-4.81.32-9.74.66-14.5,1.4-9.21,1.43-18.33,3.59-27.35,5.95-17.76,4.65-35.46,10.64-51.3,20.08-30.68,18.29-56.58,50.6-52.16,88.24,1.01,8.64,6.68,16.11,16.11,16.11,8.92,0,15.88-7.38,16.11-16.11.71-27,20.26-50.11,42.41-64.28,12.97-8.3,27.02-15,41.09-21.21,7.62-3.37,15.45-6.54,22.78-10.53,3.55-1.93,7-4.19,10.4-6.37,4.29-2.75,7.52-6.6,11.85-9.26,1.52-.93,1.03-3.77-.97-3.59Z"/>
    </g>
  </g>
  <g>
    <path class="cls-11" d="M1775.37,1080.32c-7.31-100.8-23.49-204.56-75.71-293.58-53.86-91.01-116.6-139.85-229.19-131.66-39.69,1.29-75.18,4.62-108.07.34-3.07-20.07-6.36-40.11-9.84-60.12,12.99-34.9,16.5-74.83,16-111.59-.6-43.79-13.17-87.27-47.78-116.28-18.05-15.13-40.86-23.1-58.59-38.32-20.38-17.49-18.32-47.33-27.78-70.85-17.59-43.73-57.86-78.25-104.94-86.35-31.23-5.37-64.37,1.27-93.88-12.41-13.01-6.03-25.13-13.61-37.04-21.56-23.91-28.44-56.2-50.33-90.9-61.35-21.61-6.86-43.72-7.34-66.16-8.32-20.88-.92-40.65-4.84-60.56-11.16-37.86-12.01-73.06-30.96-110.63-43.76-37.59-12.8-77.84-18.27-116.7-7.95-40.88,10.85-76.75,33.55-108.93,60.39-31.45,26.23-57.09,62.55-96.16,78.21-39.04,15.65-82.55,8.79-121.45,24.48-39.2,15.81-65.74,50.88-82.34,88.59-9.46,21.5-16.54,43.89-24.58,65.92-6,16.44-13.3,32.31-20.27,48.32-.65.53-1.31,1-1.95,1.54-23.61,19.85-42.43,45.9-55.1,73.97-13.82,30.62-22.69,67.76-13.18,100.92,5.71,19.91,17.63,36.43,32.55,50.04-8.78,50.87-16.54,101.9-21.84,153.31C15.6,984.44,9.76,1219.36,3.19,1453.78c-2.54,112.49-4.05,225.02-2.65,337.54,1.19,119.75,8.49,240.94,40.06,356.94,30.71,109.38,133.09,176.52,234.78,213.07,114.5,45.1,237.25,69.09,360.32,70.05,22.56.66,46.84.4,71.91-.6,25.08,1,49.35,1.26,71.91.6,123.07-.96,245.82-24.95,360.32-70.05,101.69-36.55,204.07-103.69,234.78-213.07,29.21-107.34,37.56-219.12,39.6-330.1,14.4-30.82,42.14-79.35,62.81-94.49,11.05-9.95,19.01-16.24,56.8-36.94,42.65-21.8,87.16-41.43,124.21-71.88,81.5-62.95,110.34-208.97,117.17-276.15,8.89-96.33,7.26-163.17.17-258.39ZM67.24,497.95c6.35-31.63,21.09-61.07,41.35-86.02,20.66-25.44,46.99-49.63,75.49-65.91,6.36-3.63,1.93-12.76-4.8-11.39-14.24,2.89-27.39,6.95-39.84,12.39,7.67-15.92,13.54-32.99,19.25-48.86,12.12-33.69,25.48-70.24,53.21-94.44,30.74-26.83,76.4-24.29,114.56-26.41,41.54-2.31,73.92-18.76,105.7-44.79,30.21-24.75,55.29-54.11,88.46-75.39,32.39-20.78,71-30.57,109.04-21.41,35.74,8.61,67.85,27.16,100.75,42.88,36.87,17.62,72.64,29.51,113.71,31.62,41.89,2.16,79.08,7.37,112.56,34.8,30.52,25.01,52.46,57.03,71.86,91.05,2.59,4.54,10.54,2.76,10.19-2.76-.82-12.83-3.41-25.33-7.37-37.37,9.39,4.28,19.39,7.5,30.07,9.27,25.63,4.25,51.46,1.09,76.45,9.52,20.2,6.81,36.22,19.75,50.73,34.96,16.95,17.78,23.34,36.44,30.4,59.43,6.8,22.17,20.46,37.81,38.45,51.86,17.13,13.37,34.43,25.2,47.65,42.82,27.83,37.08,34.04,86.84,28.38,131.76-5.6,44.43-22.04,94.78-66.52,114.05-33.5,14.51-74.51,9.06-103.25-13.39-10.97-8.57-25.31-3.15-26.67,11.05-4.34,45.44-52.65,81.85-92.69,95.74-40.17,13.93-96.92,8.9-113.32-37.82-4.46-12.7-23.81-14.41-27.54,0-15.48,59.88-97.67,67.56-141.61,97.5-54.9,37.4-61.74,101.23-77.14,160.66-15.06,58.1-38.96,124.54-103.13,142.64-28.15,7.94-55.37.84-76.2-19.68-22.86-22.52-33.39-52.49-43.15-82.3-12.47-38.07-23.56-76.01-43.34-111.18-14.87-26.44-35.02-58.22-69.03-57.72-2.09.03-2.67,2.69-1.03,3.79,22.69,15.26,33.96,44.23,43.05,70.8-26.73-12.94-58.07-20.11-83.84-28.32-28.28-9.01-52.75-23.44-66.67-50.56-12.11-23.6-14.94-51.68-19.34-77.47-4.48-26.25-9.69-52.71-22.19-76.51-12.29-23.39-31.42-39.92-52-55.84-20.05-15.51-41.66-29.03-59.56-47.15-20.54-20.79-26.83-47.27-21.08-75.89ZM244.5,950.31c56.34,19.15,114.87,34.46,174.17,45.91,4.08,13.92,8.43,27.73,13.7,41.19,23.33,59.59,70.34,114.35,140.54,104.8,63.44-8.63,105.57-59.89,127.07-116.56,35.69,2.42,71.26,2.34,106.92-.76,36.86-3.21,73.78-7.7,110.27-13.88,2.24-.38,4.39-.97,6.62-1.4,87.26-10.93,174.02-31.37,256.24-59.31,40.77-13.86,81.68-29.57,115.48-55.08,9.71,155.08,14.76,310.46,17.38,465.81,1.49,101.47,2.04,202.97-.32,304.42-3.56,106.09-7.99,193.78-39.76,293.26-25.41,76.63-106.86,131.77-186.81,159.88-98.6,38.29-187.13,54.65-273.48,61.07-34.88,2.59-69.88,4.58-104.92,5.84-35.04-1.26-70.04-3.25-104.92-5.84-86.35-6.42-174.88-22.78-273.48-61.07-79.95-28.11-161.4-83.25-186.81-159.88-31.77-99.48-36.2-187.17-39.76-293.26-2.36-101.46-1.81-202.96-.32-304.42,2.65-157.75,7.85-315.52,17.85-472.99,35.37,29.79,79.91,47.16,124.34,62.26ZM123.85,832.15c1.8-25.33,3.74-50.66,5.82-75.97,2.37-34.78,5.8-71.52,9.61-109.16,3.32,2.28,6.59,4.65,9.71,7.2,22.79,18.63,34.58,42.29,40.97,70.67,12.26,54.42,9.57,119.39,55.44,159.27,27.82,24.19,63.29,33.36,97.69,43.91,23.41,7.18,46.82,16.22,65.2,31.92.61,2.08,1.19,4.16,1.78,6.24-40.76-9.28-80.88-20.82-120.22-34.4-43.34-14.97-86.7-33.72-122.8-60.91-15.75-11.87-30.17-24.5-43.21-38.77ZM709.71,993.62c6.11-26.05,8.79-52.81,13.24-79.23,5.49-32.57,16.12-65.67,45.05-84.7,30.1-19.8,66.62-26.47,98.49-42.82,21.42-10.98,41.05-26.34,53.36-46.56,29.98,36.45,82.11,49.4,128.78,34.98,48.8-15.07,98.64-53.06,114.63-103.14,35.31,18.35,78.48,20.84,115.26,4.95,2.91,26.96,5.26,53.59,7,79.07,2.33,28.37,4.44,56.75,6.42,85.14-10.68,10.6-22.17,20.33-34.48,29.6-36.1,27.19-79.46,45.95-122.8,60.91-45.8,15.81-92.59,29.06-140.31,38.93-48.99,10.13-98.63,16.89-148.47,22.3-7.24.79-14.5,1.61-21.76,2.42-6.6.13-13.19.27-19.8.25-31.52-.13-63.12-.72-94.63-2.11ZM1381.2,1821.58c-3.96,118.13-8.9,215.77-44.27,326.53-28.3,85.32-118.98,146.72-208,178.01-109.78,42.63-208.36,60.85-304.51,68-38.83,2.89-77.81,5.1-116.82,6.5-39.01-1.4-77.99-3.62-116.82-6.5-96.15-7.15-194.72-25.37-304.51-68-89.02-31.3-179.71-92.69-208-178.01-35.38-110.76-40.31-208.4-44.27-326.53-2.63-112.97-2.02-225.98-.36-338.96,3.78-224.7,12.06-449.47,30.47-673.48,4.18-61.29,11.16-127.75,18.43-195.63,11.11,7.32,23.02,13.58,34.74,20.11-3.41,23.41-6.53,46.86-8.96,70.41-22.22,209.57-27.47,420.56-33.37,631.1-2.29,101.03-3.63,202.1-2.38,303.15,1.07,107.55,7.62,216.39,35.98,320.57,27.58,98.24,119.53,158.54,210.86,191.36,102.83,40.51,213.08,62.05,323.61,62.91,20.27.59,42.07.36,64.59-.54,22.52.9,44.32,1.13,64.59.54,110.53-.86,220.78-22.41,323.61-62.91,91.33-32.82,183.28-93.12,210.86-191.36,28.35-104.18,34.91-213.03,35.98-320.57,1.25-101.05-.1-202.12-2.38-303.15-5.91-210.54-11.15-421.53-33.37-631.1-1.38-13.43-3.11-26.81-4.85-40.19,13.13-9.26,23.83-20.52,32.48-33.22,6.59,61.91,12.76,122.39,16.58,178.52,18.41,224.01,26.68,448.78,30.47,673.48,1.66,112.97,2.27,225.99-.36,338.96ZM1391.96,954.48c14.23-20.98,31.76-40.86,52.53-54.26,77.99-50.33,109.87,92.52,118.58,135.6,16.58,81.97,16.45,167.01-1.47,248.77-8.15,37.18-18.35,75.92-37.79,109.62-15.64,27.12-40.41,50.2-75.66,50.37-13.3.06-25.38-2.08-36.56-5.75-4.51-161.47-9.01-323.13-19.63-484.35ZM1733.39,1234.67c-7.2,57.09-24.25,179.3-61.66,262.24-4.24,7.14-8.75,14.15-14.45,20.61-13.94,15.8-30.18,28.92-48.51,39.27-43.78,24.7-93.77,34.42-140.55,51.71-5.5,2.03-4.65,9.86,1.39,10.24,23.73,1.5,47.91.67,71.68-2.77-35.41,17.87-73.62,37.32-101.9,62.26-9.04,8.24-16.98,17.36-24.19,27,.02-67.02-.87-134.05-2.17-201.06,20.98,9.33,46.09,10.44,68.7,6.23,39.83-7.42,72.5-34.34,96.08-66.12,25.42-34.27,40.26-75.73,50.41-116.84,11.46-46.39,21.07-92.7,24.47-140.49,3.88-54.46-.94-107.4-13.82-160.44-1.71-7.06-13.97-5.76-12.99,1.76,10.84,83.16,10.01,170.84-10.44,252.42-9.65,38.47-24.05,76.23-43.1,111.06-.72,1.32-1.49,2.61-2.23,3.92,7.78-20.18,13.11-41.34,18.11-62.12,22.6-93.89,24.53-192.31,5.77-286.9-8.77-44.25-21.38-89.15-39.72-130.89-15.64-35.59-46.22-68.08-91.78-63.88-29.43,2.71-54.45,18.25-75.14,38.36-2.33-30.31-4.95-60.59-7.83-90.86,14.63,9.27,31.95,13.93,49.1,15.69,44.89,4.6,100.64-16.16,129.51,31.1,7.19,11.76,23.24,3.61,21.15-8.92-8.19-49.23-71.54-54.06-110.56-52.42-22.68.96-47.06,3.26-68.77-4.93-10.81-4.07-18.38-10.48-24.08-18.41-.36-3.48-.64-6.96-1-10.44-2.2-21.36-4.94-42.64-7.88-63.89,1.16.22,2.31.5,3.48.68,52.17,7.49,104.94-4.12,157.34.28,47.92,2.47,105.52,50.53,134.26,103.26,51.09,85.2,65.72,178.68,71.47,277.96,3.27,61.88,4.71,117.47-.13,165.29Z"/>
    <path class="cls-11" d="M766.87,553.3c-.97,2.88,2.36,4.65,4.67,3.59,12.52-5.72,22.68-16.2,34.16-23.77,12.03-7.94,24.85-14.9,38.46-19.74,27.54-9.8,58.96-12.15,87.82-7.68,25.93,4.02,50.3,11,71.29-9.63,19.85-19.5,30.73-47.51,51.91-65.68,3.46-2.97-.96-7.3-4.47-5.79-13.47,5.78-26.24,10.1-37.53,19.87-10.3,8.92-16.56,20.48-25.3,30.64-12.17,14.15-24.09,8.65-39.03,1.96-14.37-6.44-28.97-10.94-44.87-11.31-29.41-.69-58.68,11.62-82.33,28.28-20.08,14.15-46.69,35.17-54.77,59.27Z"/>
    <path class="cls-11" d="M578.62,580.38c10.23-.38,12.29-12.41,4.88-18.01-24.38-18.4-62.45-18.43-90.3-8.66-12.83,4.5-24.17,11.03-34.64,19.69-9.4,7.77-15.72,19.8-20.17,30.95-1.49,3.72,3.68,5.75,6.16,3.59,8.62-7.52,18.51-12.13,28.54-17.39,9.21-4.83,19.48-8.06,29.65-10.12,11.91-2.41,24.22-3.16,36.34-2.34,13.2.89,26.26,2.78,39.54,2.29Z"/>
    <path class="cls-11" d="M310.94,317.15c20.77-.29,43.19,7.81,63.43,12.06,18.14,3.81,37.12,12.33,55.95,8.36,17.01-3.59,29.33-15.98,39.97-28.92,11.45-13.92,24.25-26.47,39.39-36.32,29.29-19.06,63.64-29.43,98.25-33.28,34.3-3.82,67.66,1.55,101.77,3.77,6.77.44,10.11-10.45,3.59-13.27-61.55-26.68-136.71-5.64-194.89,20.43-15.27,6.84-30.32,14.27-44.9,22.5-7.79,4.4-15.49,8.99-22.92,13.98-7.47,5.01-13.89,11.69-21.78,16.03-15.71,8.64-38.65.11-55.92-.49-21.99-.77-41.36,6.65-62.69,9.65-3.16.44-2.35,5.54.74,5.5Z"/>
    <path class="cls-11" d="M766.08,258.29c-.86-.12-1.69-.26-2.54-.38-.49-.06-.99-.09-1.48-.16,1.34.18,2.68.36,4.02.54Z"/>
    <path class="cls-11" d="M741.78,250.2c2.53,2.08,4.39,3.22,7.49,4.3.87.3,1.75.59,2.62.9,3.81,1.36,7.68,1.96,11.65,2.51,6.67.88,13.5,1.44,20.22,1.5,3.96.03,7.56-2.52,9.07-6.1,1.58-3.76.69-7.85-2.05-10.84-2.95-3.21-6.48-5.76-10.04-8.26-1.29-.91-2.59-1.86-3.96-2.67-2.48-1.47-5.3-2.41-7.98-3.5-4.25-1.72-9.04-2.23-13.59-2.27-.91,0-1.83-.03-2.75,0-3.46.15-5.21,1.02-8.33,2.41-4.08,1.81-8.22,6.77-7.65,11.54.33,2.76.49,4.33,1.96,6.75,1.07,1.76,1.93,2.56,3.32,3.7Z"/>
    <path class="cls-11" d="M1039.94,285.02c-.07,1.85.33,3.58,1.11,5.21.4,1.05.69,1.72.99,2.38.28.67.48,1.17.7,1.66.73.94,1.46,1.89,2.19,2.83.3.3.62.57.94.85.6.54,1.18,1.11,1.74,1.69,1.36,1.36,2.97,2.29,4.83,2.81,1.45.46,2.91.52,4.36.19,1.45-.07,2.81-.5,4.07-1.3,1.64-.97,2.95-2.28,3.92-3.92.44-.59.87-1.18,1.29-1.8.19-.28.37-.56.55-.84.11-.18.21-.35.3-.53.47-1.11.94-2.23,1.41-3.35.17-1.24.33-2.48.5-3.72.03-.41.04-.83.05-1.25,0-.21.01-.41.01-.62.02-.75-.06-1.5-.25-2.24.01-.72-.09-1.41-.31-2.08-.64-1.89-1.51-3.75-2.38-5.56-.18-.37-.36-.73-.58-1.08-.76-1.21-1.72-2.4-2.77-3.37-.31-.29-.63-.58-.96-.86-.75-.64-1.91-1.63-2.76-2.13-.48-.31-1.01-.54-1.58-.69-.97-.56-2.01-.84-3.13-.85-3.24-.44-6.66.02-9.18,2.36-.3.28-.61.55-.93.81-.94,1.07-1.59,1.91-2.23,2.75-.54.99-.97,2.01-1.29,3.08-.1.46-.17.94-.25,1.41-.29,1.57-.75,3.16-.65,4.75.04.61.13,1.22.17,1.83.04.51.06,1.03.11,1.54Z"/>
    <path class="cls-11" d="M265.55,1514.11c.94,1.59,2.2,2.85,3.79,3.79,1.32,1.31,2.87,2.21,4.66,2.71,1.65.96,3.42,1.44,5.33,1.44,2.81.63,5.61.5,8.42-.38.82-.31,1.64-.61,2.46-.92,2.06-.77,4.36-1.52,6.16-2.56,1.98-1.14,3.67-2.74,5.44-4.18,1.38-1.12,2.76-2.24,4.15-3.36,1.39-1.12,2.84-2.15,3.95-3.55.55-.7,1.11-1.39,1.67-2.09,2.68-3.38,4.79-5.74,5.97-10.03.13-.49.08-.92.18-1.39.18-.44.37-.87.55-1.31.23-1.72.46-3.43.69-5.15-.23-1.72-.46-3.43-.69-5.15-.6-2.52-1.75-4.71-3.46-6.58-.86-1.45-2.02-2.61-3.47-3.47-1.21-1.2-2.63-2.03-4.27-2.49-1.51-.88-3.14-1.32-4.88-1.32-1.61-.36-3.23-.35-4.84-.17-4.84-.02-7.79,1.21-11.69,3.14-.85.42-1.69.84-2.53,1.27-3.16,1.58-5.77,4.16-8.52,6.38-1.38,1.12-2.76,2.24-4.15,3.36-2.81,2.27-4.64,5.51-6.55,8.53-.71,1.68-1.42,3.36-2.13,5.04-.25,1.87-.5,3.74-.75,5.61.25,1.87.5,3.74.75,5.61.65,2.75,1.91,5.14,3.78,7.18Z"/>
    <path class="cls-11" d="M303.99,1436.82c.46-.12.93-.24,1.39-.36,1.21-.31,2.1-.72,3.34-1.25,1.22-.52,1.86-.72,2.8-1.31.21-.13.42-.26.62-.39.21-.13.41-.26.62-.4,1.26-.97,2.52-1.95,3.78-2.92l.32-.4c.32-.39.64-.79.96-1.18.16-.2.32-.4.48-.59.11-.13.21-.26.32-.4l2.87-3.71c.89-1.44,1.53-2.97,1.9-4.59.22-1.61.43-3.22.65-4.84,0-.18-.02-.36-.03-.53-.03-.41-.05-.83-.08-1.24.09-2.24-.38-4.33-1.4-6.27-.66-2.02-1.78-3.76-3.37-5.24l-3.29-2.55c-2.54-1.47-5.28-2.21-8.22-2.22-.39-.03-.78-.06-1.17-.09-.18-.01-.36-.03-.54-.04-3.26-.21-4.73.52-7.33,1.61-2.27.74-4.24,2-5.9,3.79-.13.1-.27.21-.4.32-.2.16-.4.31-.6.47-.4.32-.8.63-1.2.95-1.86,1.46-3.24,3.87-4.52,5.94-1.32,2.14-1.91,4.51-2.56,6.88-1.58,5.76.08,12.05,4.3,16.26,4.26,4.26,10.47,5.81,16.26,4.3Z"/>
    <path class="cls-11" d="M346.84,1563.13c-2.2,1.54-4.75,3.05-6.54,4.94-2.42,2.56-4.63,5.42-6.31,8.51-.41.76-.85,1.49-1.3,2.23-2,3.29-3,6.84-3.09,10.5-.04.25-.09.46-.13.75-.39,1.43-.39,2.87,0,4.31.06.78.16,1.54.32,2.3.53,1.26,1.06,2.52,1.59,3.77,1.4,2.37,3.29,4.26,5.67,5.67,1.87,1.04,3.79,1.58,5.76,1.9.31.1.56.32.88.4,2.59.81,5.17.93,7.76.35,1.4-.19,2.48-.32,3.77-.64.79-.19,1.57-.39,2.37-.54.93-.18,1.87-.32,2.76-.65.38-.14.76-.3,1.14-.45l.76-.3c1.81-.76,3.62-1.53,5.43-2.29,1.58-.98,3.03-2.26,4.5-3.39,4.46-3.43,5.5-3.91,8.63-8.74.22-.33.44-.67.64-1.01.6-.9,1.03-1.88,1.31-2.94,1.37-2.6,1.99-5.4,1.88-8.4-.19-1.99-.46-3.98-.81-5.95-.66-2.79-1.94-5.21-3.83-7.28-1.51-2.33-3.51-4.17-6.01-5.51-1.71-.91-3.5-1.67-5.36-2.28-1.93-.26-3.86-.52-5.79-.78-2.11.03-4.18.33-6.19.88-2.61.68-5.23,1.55-7.51,3.02-.78.51-1.54,1.08-2.3,1.61Z"/>
    <path class="cls-11" d="M372.81,1639.07c-2.33,1.3-4.37,3.51-6.33,5.36-2.25,2.13-4.23,4.84-4.85,7.94-.04.2-.08.4-.11.6-.9,1.7-1.41,3.52-1.41,5.47-.06,1.61.28,3.11,1.01,4.51.47,1.45,1.28,2.71,2.42,3.77,1.33,1.32,2.9,2.21,4.65,2.79.16.12.33.24.5.35,2.05,1.42,3.88,1.77,6.18,2.08,1.1.15,1.93.31,2.97.3,2.91-.02,5.83.09,8.69-.66,2.96-.78,5.88-1.79,8.81-2.7,3.14-.88,5.88-2.47,8.19-4.77l2.9-3.76c1.68-2.9,2.52-6.02,2.53-9.37.1-2.56-.44-4.94-1.6-7.15-.75-2.3-2.03-4.29-3.84-5.98-1.68-1.81-3.67-3.09-5.97-3.84-2.21-1.16-4.6-1.7-7.15-1.6-3.35,0-6.48.85-9.37,2.53-2.73,1.37-5.54,2.64-8.21,4.13Z"/>
    <path class="cls-11" d="M473.19,1482.62c.89,1.51,2.09,2.71,3.6,3.6,1.25,1.25,2.73,2.11,4.43,2.58,1.57.91,3.26,1.37,5.07,1.37,2.67.6,5.34.48,8.01-.36,1.07-.27,2.14-.54,3.22-.81,2.8-.71,5.41-2,7.92-3.42,2.03-1.15,4.1-2.26,6.11-3.46,3.39-2.05,6.52-5.13,9.57-7.74,1.76-1.51,3.53-3.01,5.29-4.52,2.08-1.93,3.55-4.23,4.42-6.88,1.34-2.55,1.95-5.29,1.84-8.23-.25-1.89-.51-3.79-.76-5.68-.66-2.78-1.94-5.2-3.82-7.27-.95-1.6-2.23-2.88-3.83-3.83-2.06-1.89-4.49-3.16-7.27-3.82-1.89-.25-3.79-.51-5.68-.76-3.86.01-7.45.98-10.78,2.92-2.03,1.16-4.07,2.31-6.1,3.47-1.02.58-2.03,1.16-3.05,1.73-2.68,1.52-4.68,2.96-7.22,5.1-1.77,1.5-3.52,3.02-5.29,4.52-2.98,2.55-5.06,5.93-7.24,9.16-.68,1.6-1.35,3.2-2.03,4.8-.24,1.78-.48,3.56-.72,5.34.24,1.78.48,3.56.72,5.34.62,2.61,1.82,4.89,3.6,6.83Z"/>
    <path class="cls-11" d="M485.87,1321.52c.71,1.2,1.67,2.16,2.87,2.87,1.55,1.42,3.36,2.37,5.45,2.87,1.42.19,2.84.38,4.26.57,2.89,0,5.59-.74,8.09-2.19,1.47-.68,2.94-1.35,4.41-2.03,1.38-.64,2.66-1.41,3.97-2.2,3.83-2.29,7.05-5.46,10.36-8.42,1.59-1.47,2.71-3.22,3.37-5.24,1.02-1.94,1.49-4.03,1.4-6.27-.19-1.44-.39-2.88-.58-4.33-.5-2.12-1.47-3.96-2.91-5.54-.72-1.22-1.7-2.2-2.92-2.92-1.57-1.44-3.42-2.41-5.54-2.91-1.44-.19-2.88-.39-4.33-.58-2.94,0-5.68.75-8.22,2.22-1.45.71-2.9,1.42-4.35,2.13-.63.31-1.28.6-1.9.93-.72.38-1.34.91-1.99,1.4-2.28,1.72-4.64,3.37-6.73,5.33-1.15,1.09-2.31,2.18-3.46,3.26-1.56,1.45-2.67,3.17-3.31,5.16-1,1.91-1.46,3.97-1.38,6.17.19,1.42.38,2.84.57,4.26.49,2.08,1.45,3.9,2.87,5.45Z"/>
    <path class="cls-11" d="M300.72,1083.57c.67,2.05,1.81,3.83,3.42,5.33,1.12.86,2.23,1.73,3.35,2.59,1.32.56,2.64,1.11,3.95,1.67,2.2.69,4.4.79,6.6.3,2.2-.1,4.25-.75,6.15-1.96.86-.47,1.72-.94,2.58-1.42.43-.24.87-.46,1.29-.71l3.6-2.78c.44-.45.6-.65.76-.84.33-.38.66-.77.99-1.15,2.28-2.65,3.82-4.6,4.76-8.03.84-3.11.84-6.22,0-9.33-.38-1.49-.98-2.9-1.78-4.24-.65-1.42-1.1-2.11-2.6-3.6-1.42-1.41-2.23-1.95-3.64-2.63-1.35-.77-2.77-1.37-4.25-1.78-3.11-.84-6.22-.84-9.33,0-3.52.97-5.29,2.49-8.04,4.76-.39.32-.78.65-1.17.97-2.61,2.16-4.16,5.26-5.82,8.15-.56,1.32-1.11,2.64-1.67,3.95-.69,2.2-.79,4.4-.3,6.6,0,1.49.38,2.89,1.13,4.18Z"/>
    <path class="cls-11" d="M297.23,1166.78c.79,1.33,1.84,2.38,3.17,3.17,1.1,1.09,2.4,1.85,3.9,2.27,1.38.8,2.87,1.2,4.46,1.21,2.35.53,4.7.42,7.05-.32,3.26-1.19,6.54-2.35,9.74-3.7,4.25-1.8,8.11-4.54,11.76-7.36,2.95-2.28,6.02-4.71,8.5-7.52,1.06-1.2,2.03-2.4,3.02-3.69,2.05-2.65,1.72-2.03,3.03-5.13.45-1.06.9-2.08,1.31-3.15.48-1.25.96-2.5,1.45-3.75.9-3.34.9-6.67,0-10.01-.89-3.19-2.51-5.96-4.84-8.31-4.86-4.86-11.72-6.42-18.31-4.84-1.25.3-2.5.6-3.75.9-3.07.74-5.91,2.13-8.5,3.89-3.74,2.53-7.5,5.59-10.79,8.76-1.02.98-1.89,2.15-2.81,3.23-1.96,2.29-4.11,4.56-5.73,7.1-1.53,2.39-2.72,5.08-4.03,7.6-.59,1.41-1.19,2.82-1.78,4.22l-.63,4.7c.21,1.57.42,3.13.63,4.7.55,2.3,1.6,4.3,3.16,6.01Z"/>
    <path class="cls-11" d="M656.88,1188.42c1.15,1.77,2.67,3.17,4.57,4.19,1.3.55,2.59,1.09,3.89,1.64,2.89.78,5.77.78,8.65,0,3.04-.87,5.93-2.15,8.82-3.41.81-.35,1.6-.73,2.38-1.14,2.11-1.1,3.85-2.55,5.74-4.08.69-.55,1.35-1.13,2-1.73.34-.31.67-.63,1-.96.15-.15.3-.29.44-.45,1.18-1.49,2.11-2.7,3.05-3.91,1.57-2.75,2.76-5.82,3.88-8.75.2-1.48.4-2.95.59-4.43.09-2.29-.39-4.43-1.43-6.42-.39-1.41-1.11-2.64-2.14-3.67-1.17-1.81-2.73-3.24-4.67-4.29-1.33-.56-2.65-1.12-3.98-1.68-1.48-.2-2.95-.4-4.43-.6-2.29-.09-4.43.39-6.42,1.43-2.07.67-3.85,1.82-5.36,3.44-.23.2-.47.39-.71.59-1.52,1.09-3.03,2.2-4.31,3.58-.86.92-1.76,1.8-2.7,2.63-.93.82-1.73,1.79-2.63,2.65-.9.86-1.84,1.66-2.82,2.42-1.31.88-2.53,1.86-3.4,3.19-1.44,1.57-2.41,3.42-2.91,5.54-.19,1.44-.39,2.88-.58,4.33-.08,2.24.38,4.33,1.4,6.27.39,1.38,1.08,2.58,2.09,3.59Z"/>
    <path class="cls-11" d="M540.44,1817.12c.83,1.4,1.94,2.5,3.33,3.33,1.16,1.15,2.52,1.95,4.1,2.39,1.45.84,3.01,1.26,4.69,1.27,2.47.55,4.94.44,7.4-.33,2.54-.34,5.1-.61,7.62-1.03,2.35-.4,4.76-1.58,6.98-2.45,3.25-1.27,5.68-2.36,8.47-4.03,2.73-1.64,5.13-3.78,7.62-5.77,3.21-2.57,5.4-6.71,7.69-10.17.7-1.67,1.41-3.34,2.12-5.01.25-1.86.5-3.72.75-5.58-.25-1.86-.5-3.72-.75-5.58-.65-2.73-1.9-5.11-3.76-7.14-.93-1.58-2.19-2.83-3.76-3.76-1.31-1.3-2.85-2.2-4.63-2.7-1.64-.95-3.4-1.43-5.3-1.43-2.79-.63-5.58-.5-8.37.37-1.26.2-2.53.4-3.79.59-3.17.5-5.96,1.79-8.87,3.25-3.84,1.92-7.85,4.67-10.87,7.61-3.06,2.97-6,5.91-8.33,9.54-1.28,1.99-2.53,4.01-3.79,6.02-.62,1.48-1.25,2.96-1.87,4.44-.22,1.64-.44,3.29-.66,4.94.22,1.65.44,3.29.66,4.94.58,2.42,1.68,4.52,3.32,6.31Z"/>
    <path class="cls-11" d="M590.85,1713.67c1.07,1.65,2.48,2.95,4.25,3.9,1.21.51,2.41,1.02,3.61,1.53,2.68.72,5.36.72,8.05,0,1.19-.38,2.37-.76,3.56-1.15,2.35-.76,4.6-1.76,6.81-2.85,3.31-1.63,5.71-4.37,8.23-6.97.73-.94,1.46-1.89,2.19-2.83.47-1.11.94-2.23,1.41-3.34.17-1.24.33-2.48.5-3.72.07-1.93-.33-3.72-1.2-5.39-.33-1.18-.93-2.21-1.8-3.09-.62-1.05-1.46-1.89-2.51-2.51-.87-.87-1.9-1.47-3.09-1.8-1.67-.88-3.46-1.28-5.39-1.21-1.14.13-2.27.27-3.41.4-.53.06-1.06.12-1.59.19-1.55-.06-3.03.16-4.45.65-1.27.53-2.53,1.07-3.8,1.6-.3.15-.61.3-.91.45-1.08.53-2.09,1.07-3.08,1.75-1.04.72-2.09,1.44-3.13,2.15-1.76.95-3.18,2.25-4.25,3.9-1.34,1.46-2.24,3.18-2.71,5.15-.18,1.34-.36,2.68-.54,4.02-.08,2.08.36,4.03,1.3,5.83.36,1.28,1.01,2.39,1.95,3.34Z"/>
    <path class="cls-11" d="M701.78,1576.97c-.7,1.05-1.27,2.17-1.67,3.4-1.16,2.21-1.7,4.6-1.6,7.15.22,1.64.44,3.29.66,4.94.88,3.15,2.47,5.88,4.77,8.19.54.61.81.96,1.08,1.31l4.18,3.23c1.64.69,3.29,1.39,4.94,2.08,1.62.47,4.07.61,5.75.82.17.02.34.05.51.07.71.08,1.43.13,2.14.15.33,0,.66.01.99,0,2.16-.08,4.44-.54,6.57-.86.72-.11,1.44-.24,2.14-.42,1.78-.75,3.56-1.5,5.34-2.25.38-.2.52-.3.66-.4.28-.2.56-.4.84-.6,1.97-1.47,3.99-2.94,5.84-4.57,1.09-.96,2.07-2.03,2.96-3.18,2.07-1.92,3.53-4.2,4.39-6.83,1.33-2.53,1.94-5.26,1.83-8.18-.25-1.88-.51-3.76-.76-5.65-.66-2.76-1.92-5.17-3.8-7.22-.94-1.6-2.21-2.87-3.81-3.81-2.05-1.88-4.46-3.14-7.22-3.8-1.88-.25-3.76-.51-5.65-.76-3.83.01-7.41.98-10.72,2.9-.91.65-1.92,1.12-2.91,1.63-1.33.47-2.67.99-4,1.75-.77.44-1.52.93-2.29,1.37-.76.43-1.48.91-2.25,1.31-.36.19-.73.35-1.09.53-1.64.81-4.05,2.86-4.6,3.46-1.08,1.39-2.15,2.79-3.23,4.18,0,.01-.01.03-.02.05Z"/>
    <path class="cls-11" d="M623.76,1848.36c-1.84-1.69-4-2.82-6.49-3.41l-5.07-.68c-3.44.01-6.65.88-9.63,2.6-1.29.99-2.57,1.99-3.86,2.98-1.36,1.37-2.41,2.92-3.28,4.57-.95,1.23-1.74,2.25-2.53,3.28-.6,1.42-1.2,2.84-1.79,4.25-.74,2.37-.85,4.73-.32,7.1,0,1.61.41,3.11,1.22,4.49.42,1.51,1.19,2.82,2.29,3.93.79,1.34,1.86,2.4,3.19,3.19,1.72,1.57,3.74,2.64,6.06,3.19.2.06.4.11.61.15.84.14,1.85.25,2.55.35.74.1,1.72.26,2.57.34.54.03.75.02.96,0,1.71-.15,3.47-.16,5.1-.69l4.5-1.9c1.89-1.31,3.38-2.38,4.72-3.61.18-.16.34-.34.49-.52.52-.66,1.03-1.32,1.53-1.98.51-.64,1.01-1.3,1.51-1.95,1.23-2.09,1.85-3.9,2.52-5.63.79-2.54.91-5.07.34-7.61-.12-2.54-.87-4.9-2.26-7.09-1.2-2.22-2.84-4.01-4.91-5.35Z"/>
    <path class="cls-11" d="M411.01,1934.82c-.19-.08-.38-.17-.57-.25-1.44-.63-3.02-1.47-4.36-1.84-3.05-.84-6.48-.82-9.53.01-2.6.72-3.45,1.22-5.07,2.4-.18.13-.36.26-.54.39-1.18.92-2.37,1.83-3.55,2.74-1.01,1.18-1.96,2.41-2.86,3.68-.44.59-.89,1.18-1.33,1.77-1.27,1.69-1.85,3.59-2.15,5.59-.63,2.01-.72,4.01-.27,6.02.09,2.01.69,3.88,1.79,5.61.79,1.02,1.57,2.04,2.36,3.06,1.88,1.87,4.1,3.16,6.66,3.88.29.09.57.18.86.27,3.24,1.03,6.08.65,9.33,0,.78-.16,1.56-.3,2.33-.47,2.81-.6,7.65-3.26,9.64-5.43.92-1.19,1.84-2.38,2.76-3.58.78-1.37,1.4-2.82,1.86-4.35.52-1.88.6-3.23.63-4.88,0-.24.01-.47.02-.71,0-2.92-.74-5.63-2.2-8.15-1.44-2.43-3.37-4.36-5.79-5.79Z"/>
    <path class="cls-11" d="M401.83,1854.59c-1.79-.1-3.58.33-5.32.71-.83.18-1.66.36-2.5.55-.4.09-.8.18-1.2.26-1.88.41-2.89.84-5.05,1.92-.78.39-1.55.78-2.32,1.18-1.88,1.01-3.39,2.4-4.53,4.16-1.43,1.56-2.39,3.39-2.89,5.49-.19,1.43-.38,2.86-.58,4.29-.08,2.22.38,4.3,1.39,6.22.38,1.37,1.08,2.56,2.08,3.56,1.14,1.76,2.65,3.14,4.53,4.16,1.29.54,2.57,1.09,3.86,1.63,2.86.77,5.72.77,8.59,0,.87-.16,1.75-.29,2.61-.49,1.93-.46,4.14-1.74,6.06-2.65.76-.36,1.52-.72,2.27-1.07,1.91-.9,3.46-2.43,5.05-3.8.8-1.03,1.59-2.06,2.39-3.09.51-1.21,1.03-2.43,1.54-3.64.18-1.35.36-2.7.54-4.06.08-2.1-.36-4.06-1.31-5.88-.36-1.29-1.02-2.42-1.96-3.37-.68-1.15-1.59-2.06-2.74-2.74-.95-.95-2.07-1.6-3.37-1.96-1.82-.96-3.78-1.39-5.88-1.31-.42-.02-.84-.05-1.25-.07Z"/>
    <path class="cls-11" d="M1264.04,2187.42c-60.59,39.6-126.9,73.23-195.6,96.11-69.88,23.27-142.88,37.56-216.15,44.56-150.82,14.4-302.89.31-448.6-41.08-81.44-23.13-158.1-60.04-239.76-81.86-3.45-.92-6.35,3.61-3.59,6.16,57.54,53.21,131.79,82.41,205.38,106.68,75.37,24.86,152.83,41.33,231.65,50.39,152.57,17.54,312.95,6.97,459.05-42.33,40.16-13.55,80.13-30.11,116.93-51.24,37.12-21.32,69.07-46.39,98.23-77.62,4.65-4.98-1.4-13.81-7.55-9.79Z"/>
    <path class="cls-11" d="M139.52,1705.67c.55,4.77,6.76,4.71,7.38,0,3.09-23.65,7.87-46.42,9.59-70.27,1.69-23.34,1.48-46.87,1.96-70.27.97-46.82.31-93.7.28-140.53-.06-94.56,1.13-189.22-.34-283.77-.41-26.15-.85-52.25-2.02-78.37-1.22-27.14-5.34-53.9-5.92-81.08-.04-1.97-2.98-1.96-3.05,0-.88,23.63-4.86,46.73-6.54,70.27-1.67,23.41-2.59,46.82-3.32,70.27-1.47,46.83-2.02,93.68-2.78,140.53-1.53,94.57-4.05,189.19-4.62,283.77-.16,26.08-.36,52.31.35,78.37.75,27.57,5.91,53.81,9.04,81.08Z"/>
    <path class="cls-11" d="M156.83,1729.8c-1.37-2-2.38-3.11-4.41-4.45-3.05-2.01-7.85-2.01-10.9,0-2.04,1.34-3.03,2.45-4.41,4.45-.22.32-.43.64-.65.95-1.09,1.61-1.88,3.38-2.2,5.3-.49,2.93-.98,5.85-.9,8.83.14,5.56,2.27,11.33,5.37,15.91,1.92,2.84,4.7,4.72,8.24,4.72s6.31-1.89,8.24-4.72c1.03-1.52,1.79-3.05,2.54-4.73,1.55-3.47,2.79-7.33,2.83-11.18.03-2.98-.41-5.89-.9-8.83-.32-1.9-1.12-3.72-2.2-5.3-.22-.32-.43-.64-.65-.95Z"/>
    <path class="cls-11" d="M1271.69,2065.31c-18.89,9.43-32.48,23.23-48.6,36.52-16.07,13.26-33.34,25.26-50.99,36.33-35,21.96-72.62,39.37-111.72,52.66-87.69,29.81-184.16,44.93-276.65,46.4-28.82.46-57.61-.23-86.43-.51-13.95-.13-27.95-.05-41.9.22-14.7.28-29.96,3.11-44.46,2.68-3.13-.09-3.08,4.63,0,4.83,13,.85,26.14,4.74,39.22,6.21,13.06,1.46,26.17,2.56,39.28,3.55,26.1,1.97,52.41,2.37,78.58,2.73,53.15.73,105.95,1.68,158.94-3.61,89.19-8.91,177.55-35.47,254.49-82.04,20.27-12.27,39.4-26.13,57.39-41.55,18.92-16.22,35.77-31.71,44.24-55.65,2.43-6.86-5.82-11.54-11.4-8.76Z"/>
    <path class="cls-11" d="M1320.19,2011.23c-1.12-1.21-2.45-2.06-3.99-2.56-1.48-.78-3.07-1.13-4.77-1.07-2.24,0-4.32.57-6.25,1.69-2.16,1.2-4.14,1.94-5.97,3.85-1.87,1.95-3.54,3.94-5.1,6.18-1.12,1.61-1.72,3.51-2.35,5.36-.71,2.07-1.21,3.27-1.22,5.89,0,1.78.37,3.44.79,5.12.34,1.34.52,2.05,1.46,3.67.59.98,1.28,1.88,2.08,2.71,1.17,1.26,2.57,2.16,4.17,2.68,1.98.83,2.84,1.14,5.37,1.17.24,0,.48,0,.72,0,.87-.02,1.58-.16,2.53-.28.76-.03,1.5-.13,2.23-.33,2.59-.73,4.84-2.04,6.74-3.93,2.07-1.76,3.98-3.73,5.2-6.2.86-1.76,1.74-3.52,2.13-5.44.39-1.89.9-4.2.9-5.98,0-2.47-.66-4.79-1.48-7.07-.59-2.1-1.65-3.92-3.19-5.47Z"/>
    <path class="cls-11" d="M1599.61,872.48c-.38-1.1-.76-2.22-1.35-3.23-.58-.99-1.38-1.83-2.1-2.73-.27-.33-.53-.66-.8-.99-.57-.7-1.14-1.41-1.71-2.11-.72-.56-1.44-1.11-2.16-1.67-1.23-.78-2.55-1.2-3.97-1.27-.95-.25-1.89-.25-2.84,0-1.42.07-2.75.49-3.97,1.27-.72.56-1.44,1.11-2.16,1.67-.56.72-1.11,1.44-1.67,2.16-.78,1.23-1.2,2.55-1.27,3.97-.32,1.42-.25,2.84.19,4.26.64,2.58,1.09,5.48,2.59,7.71,1,1.5,2.01,3,3.01,4.5.69,1.27,1.63,2.3,2.82,3.07,1.06.97,2.3,1.62,3.72,1.96.97.13,1.94.26,2.91.39,1.51.06,2.91-.26,4.21-.94.93-.26,1.73-.73,2.41-1.41,1.19-.77,2.13-1.79,2.82-3.07.37-.87.73-1.74,1.1-2.61.52-1.94.52-3.88,0-5.81-.59-1.71-1.18-3.41-1.78-5.12Z"/>
    <path class="cls-11" d="M353.1,2063.84c-12.7-3.13-27.31-3.44-39.34-8.16-2.59-1.02-3.71,3.16-1.15,4.17,10.95,4.3,19.86,12.29,30.72,16.9,10.38,4.4,20.82,8.4,31.57,11.84,21.54,6.9,43.39,12.57,65.48,17.44,43.74,9.66,88.11,16.71,132.53,22.44,88.38,11.41,177.82,18.3,266.86,12.2,51.47-3.53,135.88-.96,163.2-55.43,15.28-30.46,11.21-67.58,10.94-100.52-.61-73.9-1.8-147.79-3.88-221.67-4.21-149.57-10.56-299.16-20.57-448.47-2.78-41.38-5.03-82.9-9.34-124.15-4.37-41.84-11.28-83.11-17.76-124.65-.38-2.46-4.22-1.79-4.25.58-.41,35.98-2.08,71.9-1.29,107.89.76,34.21,2.41,68.36,3.83,102.55,2.91,70.19,5.46,140.41,7.51,210.63,4.04,138.7,5.55,277.44,5.4,416.2-.04,39.35,0,78.72-.71,118.06-.62,34.06-6.69,50.81-37.74,65.19-27.3,12.64-58.53,14.78-87.96,18.68-42.62,5.65-86.28,4.83-129.16,3.56-86.32-2.55-174.4-6.4-259.55-21.43-23.93-4.23-47.7-9.38-71.29-15.22-11.37-2.82-22.68-5.82-34.05-8.63Z"/>
    <path class="cls-11" d="M1148.2,1204.49c4.4,64.51,9.45,128.97,13.35,193.52,7.74,128.25,9.57,256.51,11.54,384.94.55,35.91.92,71.83,1.18,107.75.26,36.77,1.55,73.78-1.32,110.45-1.04,13.24,19.13,22.54,27.73,11.49,21.71-27.94,38.99-59.43,51.01-92.7,8.1-22.43,15.76-44.84,19.98-68.41,2.48-13.86,7.97-32.78,4.23-46.52-.74-2.73-2.32-5.92-5.15-6.01-3.46-.11-4.97,4.27-5.43,7.7-.26,1.89-.53,3.79-.82,5.68-7.98,51.8-29.2,104.07-62.49,145.05,1.83-50.06,1.63-100.07.69-150.25-1.2-64.7-3.63-129.28-7.1-193.9-6.93-129.11-11.83-258.4-22.05-387.31-2.84-35.81-5.93-71.68-9.72-107.41-3.88-36.68-10.27-72.01-18.49-107.95-.62-2.72-4.66-2.02-4.75.64-.99,32.42-1.15,64.19.74,96.57,1.88,32.24,4.66,64.43,6.86,96.65Z"/>
    <path class="cls-11" d="M1254.43,1133.74c3.13,50.14,6.43,100.29,9.11,150.46,5.37,100.36,3.28,200.79,3.58,301.22.09,28.68-.15,57.36-.64,86.03-.49,28.68,2.03,57.25,1.64,85.98-.05,4,5.73,3.84,6.1,0,2.42-25.12,7.32-50.11,9.12-75.23,1.79-25.06,2.95-50.18,4.28-75.27,2.71-51.07,3.32-102.17,3.4-153.31.16-101.12-.38-202.82-6.36-303.78-1.65-27.79-3.89-55.49-6.58-83.2-2.49-25.64-3.36-97.68-16.27-120.48-2.28-4.02-7.91-2.76-9.3,1.22-7.55,21.62-3.35,88.71-2.12,111.22,1.37,25.05,2.49,50.1,4.05,75.14Z"/>
    <path class="cls-11" d="M657.01,863.87c-13.76,43.03-18.27,88.58-35.1,130.7-15.73,39.39-46.13,67.43-87.45,77.98-3.87.99-3.63,6.5,0,7.6,38.74,11.79,75.98-15.09,98.69-44.79,28.06-36.7,34.93-83.65,43.6-127.73,8.06-40.97,19.22-87.22,55.27-112.82,17.42-12.37,38.09-19.74,58.19-26.43,10.88-3.62,22.1-7.01,32.35-12.25,10.14-5.18,18.64-13.65,27.71-20.46,6.18-4.63,2.86-15.07-5.49-13.02-11.45,2.82-22.86,2.3-34.33,4.74-9.9,2.1-19.57,5.51-29.09,8.9-20.13,7.15-40.24,14.89-57.78,27.33-34.12,24.22-54.06,61.12-66.58,100.26Z"/>
    <path class="cls-11" d="M888.56,690.28c-.37-.87-.73-1.74-1.1-2.61-.69-1.27-1.62-2.29-2.81-3.06-.68-.68-1.48-1.14-2.41-1.4-1.3-.68-2.7-1-4.21-.94-1.07-.04-1.97.05-3.06.19-1.27.17-2.27.42-3.46.75-.3.08-.61.16-.91.24-1.15.49-2.3.97-3.45,1.46-.38.23-.52.34-.67.45-.33.23-.66.46-1,.69-.91.63-2.43,1.71-3.22,2.5-.93.93-1.78,2.27-2.58,3.32.77-1,1.54-2,2.32-3-.89,1.14-1.82,2.25-2.71,3.39-1.41,1.82-1.1,1.26-2,3.38-.35.83-.62,1.38-.85,2.15-.1.36-.22.71-.33,1.07-.63,2.34-.63,4.69,0,7.03.41,1.72,1.2,3.22,2.37,4.5.93,1.44,2.17,2.58,3.71,3.41,2.06,1.2,4.29,1.8,6.68,1.81.51-.03,1.01-.06,1.52-.11,3.08-.28,4.74-.55,7.48-2.07.32-.18.62-.37.93-.57.46-.29.92-.58,1.37-.89,3.02-2.05,3.53-2.77,5.7-5.73.16-.22.32-.43.47-.65,1.34-1.89,2.04-4.05,2.41-6.3.14-.82.24-1.63.35-2.45.3-2.22.35-2.85-.24-5.45-.08-.37-.17-.74-.29-1.11Z"/>
    <path class="cls-11" d="M1057.39,683.55c-8.84,7.31-19.42,12.93-30.31,16.48-6.42,2.09-13.11,3.97-19.31,6.63-5.93,2.54-11.2,5.96-17.38,7.83-3.49,1.05-3.01,5.39,0,6.62,7.26,2.96,13.79,6.42,21.73,7.15,7.15.65,15.19-.55,22.02-2.62,15.35-4.65,29.41-12.17,41.96-22.11,11.48-9.09,20.8-20.04,27.32-33.19,3.26-6.56,5.9-13.59,7.58-20.73.94-3.98.33-7.53.44-11.46.1-3.53.36-7.03.31-10.57-.09-7.03-9.11-7.39-11.49-1.56-1.08,2.65-2.17,5.7-3.76,8.08-1.66,2.49-3.8,4.53-5.3,7.16-3.14,5.52-6.38,10.86-10.01,16.08-6.63,9.55-14.84,18.8-23.8,26.2Z"/>
    <path class="cls-11" d="M1307.44,541.38c5.67-26.15,5.28-53.4-2.54-79.08-6.99-22.95-20.04-48.97-41.75-61.17-6.53-3.67-13.16,3.56-9.92,9.92,9.36,18.37,20.46,34.48,25.57,54.84,5.07,20.21,4.87,41.57.02,61.81-9.1,37.97-32.18,80.43-70.7,95.47-3.32,1.3-4.72,6.16-1.06,8.13,50.13,27.01,92.01-51.3,100.38-89.92Z"/>
    <path class="cls-11" d="M113.52,571.24c11.74,8.17,24.08,9.71,37.92,10.99,8.03.74,9.34-10.19,3.79-13.98-4.19-2.86-7.24-6.37-10.93-9.8-3.87-3.6-7.78-7.09-11.66-10.67-3.72-3.43-7.46-6.88-10.79-10.69-.29-.34-1.18-1.38-1.4-1.61-.7-.92-1.37-1.86-2.01-2.81-1.5-2.21-2.87-4.5-4.12-6.86-4.66-8.84-5.9-17.79-7.89-27.6-1.58-7.8-1.13-19.37,1.59-27.97,1.65-5.22-4.74-7.59-8.29-4.83-10.43,8.12-16.72,18.41-19.82,31.28-3.47,14.39.13,30.4,6.68,43.47,6.11,12.19,15.77,23.31,26.94,31.09Z"/>
    <path class="cls-11" d="M160.01,593.09c.34.87.66,1.9,1.13,2.71l1.66,2.14c.33.38.72.69,1.17.94.71.55.82.69,1.37.99.5.27.97.59,1.43.93-.78-.61-1.57-1.21-2.35-1.82.97.75,1.85,1.66,2.94,2.21.3.15.59.29.88.45.55.31,1.07.67,1.58,1.06.55.38,1,.49,1.41.66.48.22.96.45,1.41.72.68.41,1.15.61,1.99.97.48.33.99.53,1.54.61.16.02.32.04.48.06.23.14.48.24.7.4-.16-.12-.32-.24-.47-.37,2.07,1.73,4.73,2.54,7.38,1.81,2.77-.76,4.75-2.9,5.6-5.6.44-1.4.59-2.93.73-4.37.07-.68.02-1.35.07-2.02.37-4.6-2.16-8.56-5.26-11.69-.83-.84-1.88-1.73-2.81-2.24-.98-.54-2.21-1.01-3.26-1.41-.39-.15-.79-.28-1.2-.4-.41-.11-.83-.21-1.25-.28-.18-.03-.37-.06-.55-.08-3.36-.48-3.15-.61-6.53.02-.75.14-1.46.35-2.17.62-2.1.81-3.2,1.21-4.82,2.84-1.34,1.35-2.25,2.93-2.75,4.76-.28,1-.4,1.86-.4,2.75,0,1.56.41,3.01,1.12,4.37-.25-.59-.5-1.18-.75-1.77Z"/>
    <path class="cls-11" d="M253.35,828.17c6.39,10.93,14.77,20.06,24.71,27.85,5.48,4.3,12.03,8.36,18.9,9.91,6,1.36,12.13,1.45,18.22,1.95,6.27.52,7.29-7.91,2.95-10.9-4.33-2.99-7.58-7.1-11.33-10.75-3.88-3.78-8.7-7.08-13.04-10.56-7.1-5.7-15.33-14.22-21.61-22.01-6.23-7.73-11.55-16.9-15.56-25.98-4.26-9.62-10.53-20.05-10.61-30.76-.02-2.32-3.37-2.25-3.56,0-.53,6.16-2.08,12.08-2.87,18.22-.83,6.44-.52,12.26.66,18.64,2.27,12.22,6.89,23.67,13.15,34.38Z"/>
    <path class="cls-11" d="M1086.31,234.31c3.1-.04,6.12,1.86,9.04,2.65,2.79.76,5.61,1.37,8.37,2.26,5.27,1.69,10.48,3.8,15.39,6.35,10.45,5.42,18.2,10.92,25.93,18.89,2.05,2.11,3.9,4.36,5.78,6.61.16.19,1.36,1.64,1.8,2.14.4.57,1.47,2.05,1.61,2.26,3.91,5.82,6.98,12.15,9.92,18.51,3.21,6.95,6.23,14.02,10.32,20.52,2.32,3.69,5.1,7.67,8.7,10.14,2.88,1.98,6.11,3.39,9.03,5.33,4.54,3.01,9.21-1.13,9.76-5.6.47-3.87,2.04-7.7,1.97-11.64-.09-4.62-1.85-9.51-3.4-13.79-3.04-8.36-6.75-16.42-10.61-24.43-6.85-14.2-15.52-26.02-28.35-35.32-11.55-8.38-24.46-12.43-38.52-14.03-6.11-.7-12.11-.67-18.22.05-3.13.37-6.43.7-9.48,1.5-3.31.87-6.2,3.2-9.55,3.85-2.13.42-1.61,3.78.51,3.75Z"/>
    <path class="cls-11" d="M885.93,963.06c34.17-1.37,68.09-6.12,101.52-13.25,32.83-7,64.88-16.07,96.56-27.14,16.47-5.75,33-11.66,49.08-18.44,16.23-6.85,25.86-17.75,39.35-28.31,4.99-3.9-.73-10.03-5.44-9.35-8.79,1.26-17.57.22-26.35,1.41-8.02,1.08-15.61,3.7-23.24,6.32-15.02,5.16-30.08,10.09-45.32,14.55-31.24,9.15-62.97,17.23-94.76,24.24-30.92,6.82-62.02,12.87-93.07,19.11-16.23,3.26-32.53,6.07-48.9,8.57-16.48,2.52-31.77,6.73-47.9,10.34-3.18.71-3.37,6.04,0,6.62,15.69,2.71,29.9,5.7,46.02,6.06,17.47.4,35-.04,52.45-.74Z"/>
    <path class="cls-11" d="M1191.06,868.39c.6,1.02,1.41,1.82,2.43,2.43.84.84,1.84,1.42,2.98,1.74,1.61.85,3.35,1.24,5.21,1.16,2.71.36,5.4.18,7.96-.87,2.49-1.02,5.12-2.04,7.47-3.4,1.61-.93,3.18-2.35,4.64-3.61,1.46-1.26,2.66-2.79,3.59-4.48,1.45-2.63,2.66-5.38,2.57-8.48-.01-.53-.09-1.07-.15-1.6.06-1.65-.28-3.19-1.03-4.62-.48-1.49-1.31-2.77-2.48-3.86-.81-.62-1.62-1.25-2.43-1.87-1.87-1.08-3.88-1.63-6.05-1.64-.21-.02-.41-.05-.62-.08,1.12.15,2.25.3,3.37.45-2.9-.4-5.45-1.05-8.37-.12-.59.19-1.18.38-1.77.56-2.26.7-4.88,2.03-6.89,3.47-1.14.81-2.33,1.57-3.55,2.25-1.62.9-3.12,1.74-4.41,3.21-.47.53-.93,1.06-1.42,1.58-.7.91-1.41,1.82-2.11,2.74-.45,1.08-.91,2.15-1.36,3.23-.16,1.2-.32,2.4-.48,3.6-.07,1.86.32,3.6,1.16,5.21.32,1.15.9,2.14,1.74,2.98Z"/>
  </g>
</svg>