<?xml version="1.0" encoding="utf-8"?>
<!-- Generator: Adobe Illustrator 27.8.1, SVG Export Plug-In . SVG Version: 6.00 Build 0)  -->
<svg version="1.1" id="Layer_1" xmlns="http://www.w3.org/2000/svg" xmlns:xlink="http://www.w3.org/1999/xlink" x="0px" y="0px"
	 viewBox="0 0 512 512" style="enable-background:new 0 0 512 512;" xml:space="preserve">
<style type="text/css">
	.st0{fill-rule:evenodd;clip-rule:evenodd;fill:#F59700;}
	.st1{fill-rule:evenodd;clip-rule:evenodd;fill:#FFAF10;}
	.st2{fill-rule:evenodd;clip-rule:evenodd;fill:#FFD00D;}
	
		.st3{fill-rule:evenodd;clip-rule:evenodd;fill:none;stroke:#000000;stroke-width:15.9999;stroke-linecap:round;stroke-linejoin:round;stroke-miterlimit:22.9256;}
	.st4{fill-rule:evenodd;clip-rule:evenodd;fill:#D4333B;}
	.st5{fill-rule:evenodd;clip-rule:evenodd;fill:#EA3942;}
	.st6{fill-rule:evenodd;clip-rule:evenodd;fill:#E6E6A1;}
	.st7{fill-rule:evenodd;clip-rule:evenodd;fill:#FFFFCC;}
	.st8{fill-rule:evenodd;clip-rule:evenodd;fill:#E8D387;}
	.st9{fill-rule:evenodd;clip-rule:evenodd;fill:#F0DE9C;}
	.st10{fill-rule:evenodd;clip-rule:evenodd;}
	.st11{fill-rule:evenodd;clip-rule:evenodd;fill:#E89348;}
	.st12{fill-rule:evenodd;clip-rule:evenodd;fill:#FFAC63;}
	.st13{fill-rule:evenodd;clip-rule:evenodd;fill:#B36934;}
	.st14{fill-rule:evenodd;clip-rule:evenodd;fill:#C27742;}
	.st15{fill-rule:evenodd;clip-rule:evenodd;fill:#BD1520;}
	.st16{fill-rule:evenodd;clip-rule:evenodd;fill:#D31C29;}
	.st17{fill-rule:evenodd;clip-rule:evenodd;fill:#E3202D;}
	.st18{fill-rule:evenodd;clip-rule:evenodd;fill:#E64042;}
	.st19{fill-rule:evenodd;clip-rule:evenodd;fill:#7C6D6D;}
	.st20{fill-rule:evenodd;clip-rule:evenodd;fill:#B8A0A0;}
	.st21{fill-rule:evenodd;clip-rule:evenodd;fill:#C1AEAE;}
	.st22{fill-rule:evenodd;clip-rule:evenodd;fill:#C4A8A8;}
	.st23{fill-rule:evenodd;clip-rule:evenodd;fill:#BFAEAE;}
	.st24{fill-rule:evenodd;clip-rule:evenodd;fill:#CFC3C3;}
	.st25{fill-rule:evenodd;clip-rule:evenodd;fill:#6C8C04;}
	.st26{fill-rule:evenodd;clip-rule:evenodd;fill:#789C02;}
	.st27{fill-rule:evenodd;clip-rule:evenodd;fill:#82AB00;}
	.st28{fill-rule:evenodd;clip-rule:evenodd;fill:#B80713;}
	.st29{fill-rule:evenodd;clip-rule:evenodd;fill:#F9B044;}
	.st30{fill-rule:evenodd;clip-rule:evenodd;fill:#F5CB4F;}
	.st31{fill-rule:evenodd;clip-rule:evenodd;fill:#FCD258;}
	.st32{fill-rule:evenodd;clip-rule:evenodd;fill:#D9D9D9;}
	.st33{fill-rule:evenodd;clip-rule:evenodd;fill:#EDEBEB;}
	.st34{fill-rule:evenodd;clip-rule:evenodd;fill:#6B3F20;}
	.st35{fill-rule:evenodd;clip-rule:evenodd;fill:#754727;}
	.st36{fill-rule:evenodd;clip-rule:evenodd;fill:#F7F7A6;}
	.st37{fill-rule:evenodd;clip-rule:evenodd;fill:#F5B53F;}
	.st38{fill-rule:evenodd;clip-rule:evenodd;fill:#EDA113;}
	.st39{fill-rule:evenodd;clip-rule:evenodd;fill:#E89700;}
	.st40{fill-rule:evenodd;clip-rule:evenodd;fill:#DE9000;}
	.st41{fill-rule:evenodd;clip-rule:evenodd;fill:#D18800;}
	.st42{fill-rule:evenodd;clip-rule:evenodd;fill:#7A4215;}
	.st43{fill-rule:evenodd;clip-rule:evenodd;fill:#FFB812;}
	.st44{fill-rule:evenodd;clip-rule:evenodd;fill:#DEC97E;}
	.st45{fill-rule:evenodd;clip-rule:evenodd;fill:#D1B758;}
	.st46{fill-rule:evenodd;clip-rule:evenodd;fill:#F593BA;}
	.st47{fill-rule:evenodd;clip-rule:evenodd;fill:#FDA2C6;}
	.st48{fill-rule:evenodd;clip-rule:evenodd;fill:#ED6B9D;}
	.st49{fill-rule:evenodd;clip-rule:evenodd;fill:#FB82B1;}
	.st50{fill-rule:evenodd;clip-rule:evenodd;fill:#613C22;}
	.st51{fill-rule:evenodd;clip-rule:evenodd;fill:#694023;}
	.st52{fill-rule:evenodd;clip-rule:evenodd;fill:#824E28;}
	.st53{fill-rule:evenodd;clip-rule:evenodd;fill:#ED5C94;}
	.st54{fill-rule:evenodd;clip-rule:evenodd;fill:#F56CA0;}
	
		.st55{fill-rule:evenodd;clip-rule:evenodd;fill:none;stroke:#000000;stroke-width:15.9999;stroke-linejoin:round;stroke-miterlimit:22.9256;}
	.st56{fill-rule:evenodd;clip-rule:evenodd;fill:#E02320;}
	.st57{fill-rule:evenodd;clip-rule:evenodd;fill:#F0302D;}
	.st58{fill-rule:evenodd;clip-rule:evenodd;fill:#82E1ED;}
	.st59{fill-rule:evenodd;clip-rule:evenodd;fill:#A2E9F2;}
	.st60{fill-rule:evenodd;clip-rule:evenodd;fill:#FFF1DB;}
	.st61{fill-rule:evenodd;clip-rule:evenodd;fill:#47C7DE;}
	.st62{fill-rule:evenodd;clip-rule:evenodd;fill:#57D5EB;}
	.st63{fill-rule:evenodd;clip-rule:evenodd;fill:#F7DF88;}
	.st64{fill-rule:evenodd;clip-rule:evenodd;fill:#FF9518;}
	.st65{fill-rule:evenodd;clip-rule:evenodd;fill:#F79D0D;}
	.st66{fill-rule:evenodd;clip-rule:evenodd;fill:#FFB521;}
	.st67{fill-rule:evenodd;clip-rule:evenodd;fill:#D4BE70;}
	.st68{fill-rule:evenodd;clip-rule:evenodd;fill:#674025;}
	.st69{fill-rule:evenodd;clip-rule:evenodd;fill:#719301;}
	.st70{fill-rule:evenodd;clip-rule:evenodd;fill:#BABABA;}
	.st71{fill-rule:evenodd;clip-rule:evenodd;fill:#D8D6D6;}
	.st72{fill-rule:evenodd;clip-rule:evenodd;fill:#C7BDBD;}
	.st73{fill-rule:evenodd;clip-rule:evenodd;fill:#C4BCBC;}
	.st74{fill-rule:evenodd;clip-rule:evenodd;fill:#C71C25;}
	.st75{fill-rule:evenodd;clip-rule:evenodd;fill:#A35C29;}
	.st76{fill-rule:evenodd;clip-rule:evenodd;fill:#F2E5D0;}
	.st77{fill-rule:evenodd;clip-rule:evenodd;fill:#FFF6E8;}
	.st78{fill-rule:evenodd;clip-rule:evenodd;fill:#CC7E4A;}
	.st79{fill-rule:evenodd;clip-rule:evenodd;fill:#8A4D1C;}
	.st80{fill-rule:evenodd;clip-rule:evenodd;fill:#F2DFC2;}
</style>
<g>
	<g>
		<g>
			<g>
				<g>
					<path class="st4" d="M38.99,416.51L35,408.52c-7.56-15.12-10.97-29.59-10.97-46.49V96.75c0-16.9,3.42-31.37,10.97-46.49
						l3.99-7.99V12.34h207.08v29.94l3.99,7.99c7.56,15.12,10.97,29.59,10.97,46.49v265.28c0,16.9-3.42,31.37-10.97,46.49l-3.99,7.99
						v29.94H38.99V416.51z"/>
					<path class="st5" d="M38.99,416.51L35,408.52c-7.56-15.12-10.97-29.59-10.97-46.49V96.75c0-16.9,3.42-31.37,10.97-46.49
						l3.99-7.99V12.34h172.72v29.94l3.99,7.99c7.56,15.12,10.97,29.59,10.97,46.49v265.28c0,16.9-3.42,31.37-10.97,46.49l-3.99,7.99
						v29.94H38.99V416.51z"/>
				</g>
				<path class="st16" d="M24.02,96.75c0-16.9,3.42-31.37,10.97-46.49l3.99-7.99V27.83l51.64,14.44
					c0.56,84.81,23.58,203.46,93.56,374.23H82.68C54.55,303.24,32.56,141.14,24.02,96.75z"/>
			</g>
			<g>
				<path class="st70" d="M246.07,416.51v29.94H38.99v-29.94H246.07L246.07,416.51z M38.99,42.27V12.34h207.08v29.94H38.99z"/>
				<path class="st71" d="M211.71,446.45H38.99v-29.94h172.72V446.45L211.71,446.45z M211.71,12.34v29.94H38.99V12.34H211.71z"/>
			</g>
		</g>
		<g>
			<path class="st72" d="M397.79,368.04l-45.34,17.33l43.43,21.27h21.09c39.06,0,71.02-31.96,71.02-71.02V223.1
				c0-39.06-31.96-71.02-71.02-71.02h-8.47l-37.43,22.04l35.51,16.55h10.38c17.83,0,32.42,14.59,32.42,32.42v112.52
				c0,17.83-14.59,32.42-32.42,32.42H397.79z"/>
			<g>
				<path class="st72" d="M164.2,91.37l19.24,388.08c0.56,11.33,9.9,20.22,21.25,20.22h166.32c11.35,0,20.69-8.89,21.25-20.22
					L411.5,91.37H164.2z"/>
				<path class="st33" d="M164.2,91.37l19.24,388.08c0.56,11.33,9.9,20.22,21.25,20.22H335.2c11.35,0,20.69-8.89,21.25-20.22
					l19.24-388.08H164.2z"/>
			</g>
			<g>
				<g>
					<path class="st68" d="M168.35,175.14l15.09,304.31c0.56,11.33,9.9,20.22,21.25,20.22h166.32c11.35,0,20.69-8.89,21.25-20.22
						l14.28-287.98l0,0C291.74,199.81,269.13,146.42,168.35,175.14z"/>
					<path class="st35" d="M168.35,175.14l15.09,304.31c0.56,11.33,9.9,20.22,21.25,20.22H335.2c11.35,0,20.69-8.89,21.25-20.22
						l14.25-287.32C285.59,188.71,257.66,149.69,168.35,175.14z"/>
				</g>
			</g>
		</g>
	</g>
	<path class="st10" d="M170.84,97.7l3.43,69.28c94.67-24.12,120.72,24.49,226.24,18.53l4.35-87.81H170.84L170.84,97.7z
		 M284.64,376.62c-3.25,1.24-6.9-0.39-8.14-3.64c-1.24-3.25,0.39-6.9,3.64-8.14C288.67,361.56,293.22,373.31,284.64,376.62
		L284.64,376.62z M336.34,436.91c-3.25,1.26-6.91-0.36-8.17-3.61c-1.26-3.25,0.36-6.91,3.61-8.17
		C340.37,421.82,344.9,433.62,336.34,436.91L336.34,436.91z M227.91,274.95c-3.25,1.26-6.91-0.36-8.17-3.61
		c-1.26-3.25,0.36-6.91,3.61-8.17C231.92,259.86,236.46,271.65,227.91,274.95L227.91,274.95z M246.53,441.28
		c-3.25,1.26-6.91-0.36-8.17-3.61c-1.26-3.25,0.36-6.91,3.61-8.17C250.55,426.19,255.09,437.98,246.53,441.28L246.53,441.28z
		 M297.05,300.32c-3.25,1.26-6.91-0.36-8.17-3.61c-1.26-3.25,0.36-6.91,3.61-8.17C301.07,285.23,305.61,297.02,297.05,300.32
		L297.05,300.32z M346.3,339.92c-3.25,1.24-6.9-0.39-8.14-3.64c-1.24-3.25,0.39-6.9,3.64-8.14
		C350.33,324.87,354.88,336.62,346.3,339.92L346.3,339.92z M355.05,252.29c-3.25,1.26-6.91-0.36-8.17-3.61
		c-1.26-3.25,0.36-6.91,3.61-8.17C359.07,237.2,363.61,248.99,355.05,252.29L355.05,252.29z M269.6,222.98
		c-3.25,1.26-6.91-0.36-8.17-3.61c-1.26-3.25,0.36-6.91,3.61-8.17C273.62,207.89,278.16,219.68,269.6,222.98L269.6,222.98z
		 M402.51,400.3l1.29-25.92h13.17c21.33,0,38.76-17.43,38.76-38.76V223.1c0-21.33-17.43-38.76-38.76-38.76h-3.74l1.29-25.92h2.46
		c35.56,0,64.68,29.12,64.68,64.68v112.52c0,35.56-29.12,64.68-64.68,64.68H402.51L402.51,400.3z M415.13,145.75h1.83
		c42.56,0,77.35,34.79,77.35,77.35v112.52c0,42.56-34.79,77.35-77.35,77.35h-15.08l-3.31,66.77c-0.73,14.72-12.87,26.26-27.56,26.26
		H204.69c-14.69,0-26.83-11.54-27.56-26.26l-1.34-26.96H38.99c-3.5,0-6.34-2.84-6.34-6.34v-28.5l-3.3-6.6
		c-8.02-16.04-11.67-31.43-11.67-49.31V96.75c0-17.88,3.65-33.26,11.67-49.31l3.3-6.6v-28.5c0-3.5,2.84-6.34,6.34-6.34h207.08
		c3.5,0,6.34,2.84,6.34,6.34v28.5l3.3,6.6c6.12,12.25,9.77,24.23,11.09,37.59H411.5v0.02c3.75,0.09,6.48,3.06,6.31,6.61
		L415.13,145.75L415.13,145.75z M404.43,361.7h12.54c14.33,0,26.09-11.75,26.09-26.09V223.1c0-14.33-11.75-26.09-26.09-26.09h-4.37
		L404.43,361.7L404.43,361.7z M174.92,179.9c92.15-24.4,117.66,23.99,224.97,18.32l-13.93,280.93c-0.39,7.94-6.93,14.18-14.94,14.18
		H204.69c-8,0-14.54-6.24-14.94-14.18L174.92,179.9L174.92,179.9z M254.09,85.03H164.2c-3.72,0-6.64,3.08-6.29,7.13l13.65,275.23
		C130.81,260.37,98.97,147.23,97.03,48.61h145.15C248.55,61.35,252.46,70.54,254.09,85.03L254.09,85.03z M173.53,407.05l0.15,3.13
		H87.63c-19.8-81.21-36.48-185.84-47.4-254.33c-4.21-26.4-7.57-47.48-9.88-59.62c0.03-7.78,0.83-14.98,2.48-21.95
		c2.39-10.13,5.41-16.41,10.04-25.66H84.4C86.51,158.62,124.86,286.21,173.53,407.05L173.53,407.05z M174.31,422.84H45.33v17.27
		h129.84L174.31,422.84L174.31,422.84z M30.36,174.08v187.95c0,15.92,3.19,29.48,10.28,43.67l2.24,4.48h31.75
		C56.55,335.28,41.14,241.48,30.36,174.08L30.36,174.08z M239.73,35.94V18.67H45.33v17.27H239.73z"/>
</g>
</svg>
