<?xml version="1.0" encoding="UTF-8"?>
<svg xmlns="http://www.w3.org/2000/svg" xmlns:xlink="http://www.w3.org/1999/xlink" viewBox="0 0 274.96 323.66">
  <defs>
    <style>
      .cls-1, .cls-2 {
        fill: #fff31a;
      }

      .cls-1, .cls-3 {
        opacity: .59;
      }

      .cls-4 {
        fill: #966c05;
      }

      .cls-5 {
        opacity: .36;
      }

      .cls-5, .cls-6 {
        fill: #590037;
      }

      .cls-7 {
        opacity: .07;
      }

      .cls-7, .cls-8, .cls-9, .cls-10, .cls-11, .cls-12, .cls-13 {
        fill: #fff;
      }

      .cls-14 {
        fill: #e2d5ba;
      }

      .cls-15 {
        mask: url(#mask-5);
      }

      .cls-16 {
        fill: url(#linear-gradient-2);
      }

      .cls-16, .cls-17, .cls-18, .cls-19, .cls-20, .cls-21, .cls-22 {
        mix-blend-mode: multiply;
      }

      .cls-23 {
        fill: url(#linear-gradient-5);
      }

      .cls-23, .cls-24, .cls-25 {
        mix-blend-mode: darken;
        opacity: .3;
      }

      .cls-24 {
        fill: url(#linear-gradient-9);
      }

      .cls-26 {
        mask: url(#mask-1);
      }

      .cls-27 {
        fill: url(#Gradient_8);
      }

      .cls-6 {
        opacity: .21;
      }

      .cls-28 {
        mask: url(#mask-10);
      }

      .cls-29 {
        mask: url(#mask-6);
      }

      .cls-30 {
        mask: url(#mask-7);
      }

      .cls-17 {
        fill: url(#Gradient_35);
      }

      .cls-8 {
        opacity: .54;
      }

      .cls-8, .cls-31 {
        mix-blend-mode: screen;
      }

      .cls-32 {
        filter: url(#luminosity-noclip-5);
      }

      .cls-33 {
        mask: url(#mask);
      }

      .cls-34 {
        fill: url(#linear-gradient);
        opacity: .53;
      }

      .cls-35 {
        fill: #151618;
      }

      .cls-36 {
        opacity: .89;
      }

      .cls-36, .cls-37, .cls-38, .cls-39, .cls-40, .cls-41, .cls-42, .cls-43 {
        mix-blend-mode: overlay;
      }

      .cls-36, .cls-31, .cls-44, .cls-39, .cls-42 {
        fill: #ffdb84;
      }

      .cls-45 {
        fill: url(#Gradient_14-3);
      }

      .cls-45, .cls-44, .cls-46, .cls-42 {
        opacity: .49;
      }

      .cls-47 {
        fill: #fdae1b;
        opacity: .56;
      }

      .cls-48 {
        fill: #3b3e3f;
      }

      .cls-37, .cls-38, .cls-40, .cls-49 {
        fill: #fff8e9;
      }

      .cls-37, .cls-11 {
        opacity: .6;
      }

      .cls-25 {
        fill: url(#linear-gradient-3);
      }

      .cls-31, .cls-50, .cls-51 {
        opacity: .25;
      }

      .cls-18 {
        fill: url(#Gradient_35-3);
      }

      .cls-52 {
        mask: url(#mask-8);
      }

      .cls-53 {
        filter: url(#luminosity-noclip-11);
      }

      .cls-54 {
        mask: url(#mask-2);
      }

      .cls-55 {
        filter: url(#luminosity-noclip-3);
      }

      .cls-56 {
        mask: url(#mask-9);
      }

      .cls-38 {
        opacity: .34;
      }

      .cls-57 {
        fill: #ff9800;
      }

      .cls-58 {
        fill: #1b1a18;
      }

      .cls-19 {
        fill: url(#linear-gradient-4);
      }

      .cls-50 {
        fill: url(#Gradient_19);
      }

      .cls-20 {
        opacity: .13;
      }

      .cls-10 {
        opacity: .18;
      }

      .cls-59 {
        isolation: isolate;
      }

      .cls-21 {
        fill: url(#linear-gradient-8);
      }

      .cls-46 {
        fill: url(#Gradient_14-2);
      }

      .cls-60 {
        filter: url(#luminosity-noclip-9);
      }

      .cls-61 {
        fill: url(#linear-gradient-7);
      }

      .cls-62 {
        fill: #f1f2e7;
      }

      .cls-63 {
        fill: url(#linear-gradient-6);
      }

      .cls-51 {
        fill: url(#Gradient_19-2);
      }

      .cls-64 {
        mask: url(#mask-11);
      }

      .cls-39 {
        opacity: .63;
      }

      .cls-65 {
        mask: url(#mask-4);
      }

      .cls-66 {
        opacity: .58;
      }

      .cls-67 {
        opacity: .94;
      }

      .cls-12 {
        opacity: .98;
      }

      .cls-22 {
        fill: url(#Gradient_35-2);
      }

      .cls-68 {
        filter: url(#luminosity-noclip-7);
      }

      .cls-40 {
        opacity: .52;
      }

      .cls-41 {
        fill: #f2f1e9;
        opacity: .75;
      }

      .cls-69 {
        fill: url(#Gradient_14);
        opacity: .2;
      }

      .cls-70 {
        opacity: .62;
      }

      .cls-71 {
        fill: #128ac6;
      }

      .cls-72 {
        fill: #f4e9d7;
      }

      .cls-73 {
        fill: #f7f7f7;
        opacity: .11;
      }

      .cls-13 {
        opacity: .68;
      }

      .cls-74 {
        mask: url(#mask-3);
      }

      .cls-75 {
        filter: url(#luminosity-noclip);
      }

      .cls-43 {
        fill: #ff812c;
        opacity: .88;
      }
    </style>
    <filter id="luminosity-noclip" x="248.23" y="200.15" width="26.73" height="83.94" color-interpolation-filters="sRGB" filterUnits="userSpaceOnUse">
      <feFlood flood-color="#fff" result="bg"/>
      <feBlend in="SourceGraphic" in2="bg"/>
    </filter>
    <filter id="luminosity-noclip-2" x="248.23" y="-8383.44" width="26.73" height="32766" color-interpolation-filters="sRGB" filterUnits="userSpaceOnUse">
      <feFlood flood-color="#fff" result="bg"/>
      <feBlend in="SourceGraphic" in2="bg"/>
    </filter>
    <mask id="mask-1" x="248.23" y="-8383.44" width="26.73" height="32766" maskUnits="userSpaceOnUse"/>
    <linearGradient id="Gradient_35" data-name="Gradient 35" x1="265.76" y1="187.52" x2="254.37" y2="301.19" gradientUnits="userSpaceOnUse">
      <stop offset="0" stop-color="#fff"/>
      <stop offset=".12" stop-color="#fafafa"/>
      <stop offset=".24" stop-color="#ededed"/>
      <stop offset=".37" stop-color="#d8d8d8"/>
      <stop offset=".5" stop-color="#bababa"/>
      <stop offset=".63" stop-color="#949494"/>
      <stop offset=".77" stop-color="#656565"/>
      <stop offset=".9" stop-color="#2e2e2e"/>
      <stop offset="1" stop-color="#000"/>
    </linearGradient>
    <mask id="mask" x="248.23" y="200.15" width="26.73" height="83.94" maskUnits="userSpaceOnUse">
      <g class="cls-75">
        <g class="cls-26">
          <path class="cls-17" d="M248.41,268.33c.44,21.79,10.66,18.13,22.33,6.18-.31-7.8-.49-16.12-.32-23.57.51-22.09,4.54-43.33,4.54-43.33,0,0-8.59-5.04-23.75-7.46h-.05s-3.77,16.8-2.74,68.18Z"/>
        </g>
      </g>
    </mask>
    <linearGradient id="Gradient_14" data-name="Gradient 14" x1="265.76" y1="187.52" x2="254.37" y2="301.19" gradientUnits="userSpaceOnUse">
      <stop offset="0" stop-color="#000"/>
      <stop offset=".29" stop-color="#000004"/>
      <stop offset=".6" stop-color="#001"/>
      <stop offset=".92" stop-color="#000026"/>
      <stop offset="1" stop-color="#00002d"/>
    </linearGradient>
    <filter id="luminosity-noclip-3" x="180.54" y="208" width="92.87" height="99.18" color-interpolation-filters="sRGB" filterUnits="userSpaceOnUse">
      <feFlood flood-color="#fff" result="bg"/>
      <feBlend in="SourceGraphic" in2="bg"/>
    </filter>
    <filter id="luminosity-noclip-4" x="180.54" y="-8383.44" width="92.87" height="32766" color-interpolation-filters="sRGB" filterUnits="userSpaceOnUse">
      <feFlood flood-color="#fff" result="bg"/>
      <feBlend in="SourceGraphic" in2="bg"/>
    </filter>
    <mask id="mask-3" x="180.54" y="-8383.44" width="92.87" height="32766" maskUnits="userSpaceOnUse"/>
    <linearGradient id="Gradient_35-2" data-name="Gradient 35" x1="199.8" y1="342.36" x2="244.37" y2="185.02" xlink:href="#Gradient_35"/>
    <mask id="mask-2" x="180.54" y="208" width="92.87" height="99.18" maskUnits="userSpaceOnUse">
      <g class="cls-55">
        <g class="cls-74">
          <path class="cls-22" d="M186.83,257.54c-.38-10.88-.77-27.19-4.62-47.87l-1.67-1.67s5.91,30.7,4.75,59.09c-1.16,28.39-1.92,30.19-1.54,31.09.39.9,16.37,7.48,19.14,7.71,29.67,2.44,46.88.77,48.68.38,1.8-.38,17.99-8.35,18.5-9.63.51-1.28-1.15-27.23-1.15-41.36s3.21-39.82,4.49-46.5l-1.92.39s-4.37,32.37-4.11,51.25c.26,18.88-41.23,15.8-47.91,15.29-6.68-.52-10.79,2.18-19.14-2.7-8.35-4.88-13.49-15.46-13.49-15.46Z"/>
        </g>
      </g>
    </mask>
    <linearGradient id="Gradient_14-2" data-name="Gradient 14" x1="199.8" y1="342.36" x2="244.37" y2="185.02" xlink:href="#Gradient_14"/>
    <linearGradient id="Gradient_19" data-name="Gradient 19" x1="227.21" y1="334.84" x2="227.21" y2="283.1" gradientUnits="userSpaceOnUse">
      <stop offset="0" stop-color="#ffb300"/>
      <stop offset="1" stop-color="#8b1100"/>
    </linearGradient>
    <linearGradient id="linear-gradient" x1="224.88" y1="321.17" x2="243.7" y2="282.65" gradientUnits="userSpaceOnUse">
      <stop offset="0" stop-color="#ffb300"/>
      <stop offset="1" stop-color="#bf1100"/>
    </linearGradient>
    <linearGradient id="Gradient_8" data-name="Gradient 8" x1="253.7" y1="228.76" x2="199.23" y2="329.47" gradientUnits="userSpaceOnUse">
      <stop offset="0" stop-color="#ffb300"/>
      <stop offset="1" stop-color="#ff6300"/>
    </linearGradient>
    <linearGradient id="Gradient_19-2" data-name="Gradient 19" x1="253.7" y1="228.76" x2="199.23" y2="329.47" xlink:href="#Gradient_19"/>
    <filter id="luminosity-noclip-5" x="189.15" y="289.17" width="76.14" height="13.8" color-interpolation-filters="sRGB" filterUnits="userSpaceOnUse">
      <feFlood flood-color="#fff" result="bg"/>
      <feBlend in="SourceGraphic" in2="bg"/>
    </filter>
    <filter id="luminosity-noclip-6" x="189.15" y="-8383.44" width="76.14" height="32766" color-interpolation-filters="sRGB" filterUnits="userSpaceOnUse">
      <feFlood flood-color="#fff" result="bg"/>
      <feBlend in="SourceGraphic" in2="bg"/>
    </filter>
    <mask id="mask-5" x="189.15" y="-8383.44" width="76.14" height="32766" maskUnits="userSpaceOnUse"/>
    <linearGradient id="linear-gradient-2" x1="189.15" y1="296.07" x2="265.29" y2="296.07" gradientUnits="userSpaceOnUse">
      <stop offset="0" stop-color="#fff"/>
      <stop offset=".12" stop-color="#fafafa"/>
      <stop offset=".24" stop-color="#ededed"/>
      <stop offset=".37" stop-color="#d8d8d8"/>
      <stop offset=".5" stop-color="#bababa"/>
      <stop offset=".63" stop-color="#949494"/>
      <stop offset=".77" stop-color="#656565"/>
      <stop offset=".9" stop-color="#2e2e2e"/>
      <stop offset="1" stop-color="#000"/>
    </linearGradient>
    <mask id="mask-4" x="189.15" y="289.17" width="76.14" height="13.8" maskUnits="userSpaceOnUse">
      <g class="cls-32">
        <g class="cls-15">
          <path class="cls-16" d="M189.15,292.31s17.13-2.74,21.92-3.08c4.79-.34,37.33,1.03,38.36,1.03s14.04,2.05,15.75,3.77c1.71,1.71-19.52,9.59-22.95,8.9-3.43-.68,16.1-7.54-4.11-9.25-20.21-1.71-41.45-1.71-34.77,3.6,6.68,5.31-10.45-2.57-14.22-4.97Z"/>
        </g>
      </g>
    </mask>
    <linearGradient id="linear-gradient-3" x1="189.15" y1="296.07" x2="265.29" y2="296.07" gradientUnits="userSpaceOnUse">
      <stop offset="0" stop-color="#9b0000"/>
      <stop offset=".29" stop-color="#970004"/>
      <stop offset=".6" stop-color="#8e0011"/>
      <stop offset=".92" stop-color="#7f0026"/>
      <stop offset="1" stop-color="#7b002d"/>
    </linearGradient>
    <filter id="luminosity-noclip-7" x="179.47" y="207.54" width="23.99" height="110.72" color-interpolation-filters="sRGB" filterUnits="userSpaceOnUse">
      <feFlood flood-color="#fff" result="bg"/>
      <feBlend in="SourceGraphic" in2="bg"/>
    </filter>
    <filter id="luminosity-noclip-8" x="179.47" y="-8383.44" width="23.99" height="32766" color-interpolation-filters="sRGB" filterUnits="userSpaceOnUse">
      <feFlood flood-color="#fff" result="bg"/>
      <feBlend in="SourceGraphic" in2="bg"/>
    </filter>
    <mask id="mask-7" x="179.47" y="-8383.44" width="23.99" height="32766" maskUnits="userSpaceOnUse"/>
    <linearGradient id="linear-gradient-4" x1="154.42" y1="306.18" x2="243.48" y2="198.61" xlink:href="#linear-gradient-2"/>
    <mask id="mask-6" x="179.47" y="207.54" width="23.99" height="110.72" maskUnits="userSpaceOnUse">
      <g class="cls-68">
        <g class="cls-30">
          <path class="cls-19" d="M203.45,291.97c-.26-10.41-1.5-70.22-.85-77.16,0,0-9.12-.98-13.87-2.65-2.83-.99-6.36-2.49-9.11-4.62-.07.04-.14.08-.14.08,0,0,4.02,21.24,4.54,43.33.52,22.09-2.05,51.81-2.14,53.01-.08,1.2,7.02,10.7,19.1,14.3,0,0,2.72-16.86,2.49-26.29Z"/>
        </g>
      </g>
    </mask>
    <linearGradient id="linear-gradient-5" x1="154.42" y1="306.18" x2="243.48" y2="198.61" xlink:href="#linear-gradient-3"/>
    <filter id="luminosity-noclip-9" x="2.42" y="98.31" width="141.08" height="222.9" color-interpolation-filters="sRGB" filterUnits="userSpaceOnUse">
      <feFlood flood-color="#fff" result="bg"/>
      <feBlend in="SourceGraphic" in2="bg"/>
    </filter>
    <filter id="luminosity-noclip-10" x="2.42" y="-8383.44" width="141.08" height="32766" color-interpolation-filters="sRGB" filterUnits="userSpaceOnUse">
      <feFlood flood-color="#fff" result="bg"/>
      <feBlend in="SourceGraphic" in2="bg"/>
    </filter>
    <mask id="mask-9" x="2.42" y="-8383.44" width="141.08" height="32766" maskUnits="userSpaceOnUse"/>
    <linearGradient id="Gradient_35-3" data-name="Gradient 35" x1="72.52" y1="412.09" x2="74.41" y2="-100.69" xlink:href="#Gradient_35"/>
    <mask id="mask-8" x="2.42" y="98.31" width="141.08" height="222.9" maskUnits="userSpaceOnUse">
      <g class="cls-60">
        <g class="cls-56">
          <path class="cls-18" d="M140.9,245.64l-.05-2.32h0c.45-49.82.45-110.02-2.04-119.52-1.88-7.18-13.33-17.4-27.74-24.48l-72.08-1.01c-14.93,5.06-29.97,18.32-31.85,25.49-2.49,9.49-2.49,69.68-2.04,119.5h-.09s.03,2.34.03,2.34c.19,12.7,0,34.25-1.3,38.02-2.2,6.39-2.15,21.69,4.51,27.49,3.95,3.44,21.12,7.21,40.8,8.97,7.48.72,15.34,1.09,23.39,1.09h1.09c8.04,0,15.9-.37,23.37-1.09,19.7-1.76,36.87-5.53,40.82-8.97,6.66-5.8,6.71-21.1,4.51-27.49-1.3-3.77-1.49-25.32-1.3-38.02Z"/>
        </g>
      </g>
    </mask>
    <linearGradient id="Gradient_14-3" data-name="Gradient 14" x1="72.52" y1="412.09" x2="74.41" y2="-100.69" xlink:href="#Gradient_14"/>
    <linearGradient id="linear-gradient-6" x1="66.4" y1="92.6" x2="75.77" y2="329.45" gradientUnits="userSpaceOnUse">
      <stop offset="0" stop-color="#893700"/>
      <stop offset="1" stop-color="#df4b00"/>
    </linearGradient>
    <linearGradient id="linear-gradient-7" x1="72.65" y1="120.6" x2="74.84" y2="87.49" gradientUnits="userSpaceOnUse">
      <stop offset="0" stop-color="#ffb300"/>
      <stop offset=".59" stop-color="#ff8300"/>
      <stop offset="1" stop-color="#ff6300"/>
    </linearGradient>
    <filter id="luminosity-noclip-11" x="0" y="53.14" width="65.59" height="268.88" color-interpolation-filters="sRGB" filterUnits="userSpaceOnUse">
      <feFlood flood-color="#fff" result="bg"/>
      <feBlend in="SourceGraphic" in2="bg"/>
    </filter>
    <filter id="luminosity-noclip-12" x="0" y="-8383.44" width="65.59" height="32766" color-interpolation-filters="sRGB" filterUnits="userSpaceOnUse">
      <feFlood flood-color="#fff" result="bg"/>
      <feBlend in="SourceGraphic" in2="bg"/>
    </filter>
    <mask id="mask-11" x="0" y="-8383.44" width="65.59" height="32766" maskUnits="userSpaceOnUse"/>
    <linearGradient id="linear-gradient-8" x1="-28.02" y1="315.8" x2="185.71" y2="-69.17" xlink:href="#linear-gradient-2"/>
    <mask id="mask-10" x="0" y="53.14" width="65.59" height="268.88" maskUnits="userSpaceOnUse">
      <g class="cls-53">
        <g class="cls-64">
          <path class="cls-21" d="M43.4,322.02c-1.59-1.51-3.29-3.25-5.05-5.25-9.58-10.83-4.58-27.5-3.07-28.07,1.52-.57.15-136.5,2.23-159.41,2.08-22.92,24.58-31.25,26.66-35,2.09-3.75,1.25-8.75,1.25-8.75l-2.5-8.75c-1.73-6.05.13-17.3,1.44-23.65-2.64.09-4.99.23-6.98.41-1.74.16-3.4.31-4.87.69l-1.85-.86-.77.93c-.33.38-2.58,5.73-2.58,5.73-1.98,7.08-2.69,14.34-.12,25.82-.34,1.77-2.92,3.93-7.02,5.84-1.37.65-2.69,1.31-3.98,1.98-17.19,8.92-28.95,19.95-31.46,29.5-2.04,7.77-2.76,47.41-2.14,117.84h-.1s.06,4.66.06,4.66c.23,15.59-.16,34.24-1.17,37.19-2.3,6.69-2.54,23.38,5.22,30.13,4.59,4,20.97,7.27,36.78,9.02Z"/>
        </g>
      </g>
    </mask>
    <linearGradient id="linear-gradient-9" x1="-28.02" y1="315.8" x2="185.71" y2="-69.17" xlink:href="#linear-gradient-3"/>
  </defs>
  <g class="cls-59">
    <g id="Layer_1" data-name="Layer 1">
      <g>
        <g>
          <g>
            <path class="cls-72" d="M270.42,250.95c.51-22.09,4.54-43.33,4.54-43.33,0,0-17.94-10.54-47.74-8.48-29.8-2.06-47.74,8.48-47.74,8.48,0,0,4.02,21.24,4.54,43.33.52,22.09-2.05,51.81-2.14,53.01-.08,1.2,7.02,10.7,19.1,14.3,0,0,17.77,1.88,26.25,1.88s26.25-1.88,26.25-1.88c12.07-3.6,19.18-13.11,19.1-14.3-.08-1.2-2.66-30.91-2.14-53.01Z"/>
            <g class="cls-33">
              <path class="cls-69" d="M248.41,268.33c.44,21.79,10.66,18.13,22.33,6.18-.31-7.8-.49-16.12-.32-23.57.51-22.09,4.54-43.33,4.54-43.33,0,0-8.59-5.04-23.75-7.46h-.05s-3.77,16.8-2.74,68.18Z"/>
            </g>
            <g class="cls-54">
              <path class="cls-46" d="M186.83,257.54c-.38-10.88-.77-27.19-4.62-47.87l-1.67-1.67s5.91,30.7,4.75,59.09c-1.16,28.39-1.92,30.19-1.54,31.09.39.9,16.37,7.48,19.14,7.71,29.67,2.44,46.88.77,48.68.38,1.8-.38,17.99-8.35,18.5-9.63.51-1.28-1.15-27.23-1.15-41.36s3.21-39.82,4.49-46.5l-1.92.39s-4.37,32.37-4.11,51.25c.26,18.88-41.23,15.8-47.91,15.29-6.68-.52-10.79,2.18-19.14-2.7-8.35-4.88-13.49-15.46-13.49-15.46Z"/>
            </g>
            <path class="cls-41" d="M203.36,297.28s0-23.46.51-34.17c.51-10.62-1.34-48.33-2.54-62.62-13.96,2.52-21.86,7.13-21.86,7.13,0,0,4.02,21.24,4.54,43.33.44,19.1-1.41,43.87-1.98,51.02,6.99-2.15,21.34-4.69,21.34-4.69Z"/>
            <path class="cls-50" d="M269.56,301.64c-.2-4.04-.37-13.04-2.19-13.04-1.92,0-79.58,3.23-80.86,3.47-1.25.23-.41,6.56-1.67,9.72-.02.22-.03.37-.04.43-.08,1.12,6.57,10.01,17.86,13.37,0,0,16.61,1.76,24.54,1.76s24.54-1.76,24.54-1.76c11.29-3.36,17.94-12.25,17.86-13.37,0-.08-.02-.28-.05-.58Z"/>
            <path class="cls-34" d="M243.48,308.75c-.87.14-25,0-27.64,0s-.88,5.29,1.76,5.29,24.71-.3,26.17-.3,3.23-5.59-.29-5Z"/>
            <path class="cls-27" d="M268.13,283.75c-.92-7.6-.6-22.58-.53-25.62.14-.6.03-1.1-.39-1.44-2.4-1.97-12.3-4.32-18.24-5.69-2.7-.62-6.6-1.37-21.15-1.37h-1.08c-14.56,0-18.47.7-21.15,1.37-5.13,1.29-15.84,3.72-18.24,5.69-.27.22-.4.52-.43.86h-.08s.52,17.73-.51,26.2c-1.03,8.48-.77,11-.77,11.73,0,2.57,12.33,6.51,17.72,7.79,5.4,1.28,12.65,1.8,23.95,1.8s18.61-.6,24-1.88c5.4-1.28,17.67-5.99,17.67-7.71,0-.73.26-3.25-.77-11.73Z"/>
            <path class="cls-51" d="M268.13,283.75c-.92-7.6-.6-22.58-.53-25.62.14-.6.03-1.1-.39-1.44-2.4-1.97-12.3-4.32-18.24-5.69-2.7-.62-6.6-1.37-21.15-1.37h-1.08c-14.56,0-18.47.7-21.15,1.37-5.13,1.29-15.84,3.72-18.24,5.69-.27.22-.4.52-.43.86h-.08s.52,17.73-.51,26.2c-1.03,8.48-.77,11-.77,11.73,0,2.57,12.33,6.51,17.72,7.79,5.4,1.28,12.65,1.8,23.95,1.8s18.61-.6,24-1.88c5.4-1.28,17.67-5.99,17.67-7.71,0-.73.26-3.25-.77-11.73Z"/>
            <g class="cls-65">
              <path class="cls-25" d="M189.15,292.31s17.13-2.74,21.92-3.08c4.79-.34,37.33,1.03,38.36,1.03s14.04,2.05,15.75,3.77c1.71,1.71-19.52,9.59-22.95,8.9-3.43-.68,16.1-7.54-4.11-9.25-20.21-1.71-41.45-1.71-34.77,3.6,6.68,5.31-10.45-2.57-14.22-4.97Z"/>
            </g>
            <path class="cls-47" d="M267.21,256.28c-2.4-1.36-12.3-4.38-18.24-5.32-2.7-.43-6.6-.95-21.15-.95h-1.08c-14.56,0-18.47.48-21.15.95-5.13.89-15.84,3.96-18.24,5.32-2.4,1.36,4.79,6.27,17.55,7.87,10.19,1.27,17.09,1.5,22.38,1.44,5.29.05,12.19-.17,22.38-1.44,12.76-1.6,19.95-6.51,17.55-7.87Z"/>
            <path class="cls-44" d="M267.21,256.28c-2.4-1.36-12.3-4.38-18.24-5.32-1.2-.19-2.66-.4-5.18-.57,1.39.21,2.62.39,3.49.48,3.34.34,8.9,2.14,12.33,3.42,3.42,1.29,7.79,2.91,6.85,3.51-.94.6-4.11,1.97-5.14,2.14-1.03.17-9.67,3.94-11.21,4.11-1.54.17-10.62.69-13.62.77-2.99.09-15.07.09-16.7,0-1.62-.09-12.59-.94-15.93-1.71-3.34-.77-13.1-3.85-14.47-4.79-1.37-.94-1.71-1.37-.43-2.23,1.29-.86,3.77-.94,4.88-1.37.91-.35,3.63-1.43,6.68-2.65-5.22,1.3-11.43,3.22-13.19,4.21-2.4,1.36,4.79,6.27,17.55,7.87,10.19,1.27,17.09,1.5,22.38,1.44,5.29.05,12.19-.17,22.38-1.44,12.76-1.6,19.95-6.51,17.55-7.87Z"/>
            <path class="cls-11" d="M270.2,250.95c.5-21.65,4.38-42.47,4.53-43.29l-1.41,1.85c-3.34,22.26-4.66,39.74-4.15,53.48.52,13.74,1.67,34.81,1.16,38.41-.52,3.59-10.54,10.79-13.88,12.07-3.34,1.28-5.78-23.89-5.39-46.76.38-22.86,1.93-49.84,2.32-51.38l-4.11.13s.64,13.1.64,51.9.26,48.17-1.8,48.81c-2,.62-16.07,1.61-21,1.66-4.94-.06-19.01-1.04-21-1.66-2.06-.64-1.8-10.02-1.8-48.81s.64-51.9.64-51.9l-4.11-.13c.38,1.54,1.93,28.52,2.31,51.38.39,22.87-2.05,48.04-5.39,46.76-3.34-1.28-13.36-8.48-13.87-12.07-.51-3.6.64-24.67,1.16-38.41.52-13.75-2.44-46.76-1.92-52.8l-3.63-2.53c.16.83,4.03,21.64,4.53,43.29.52,22.09-2.05,51.81-2.14,53.01-.08,1.2,7.02,10.7,19.1,14.3,0,0,12.64,1.33,21.68,1.75,0,0,0,0,0,0,.97.04,1.89.07,2.77.09.25,0,.49,0,.73.01.29,0,.6.01.86.01.04,0,.07,0,.11,0,.03,0,.07,0,.1,0,.27,0,.58,0,.87-.01.25,0,.47,0,.73-.01.88-.02,1.79-.05,2.77-.09,0,0,0,0,0,0,9.04-.42,21.68-1.76,21.68-1.76,12.08-3.6,19.18-13.11,19.1-14.3-.08-1.2-2.65-30.91-2.14-53.01Z"/>
            <path class="cls-8" d="M250.16,215.45c.38,2.05.38,29.8.64,29.67.25-.12.65-27.81,1.48-29.58l-2.13-.09Z"/>
            <path class="cls-42" d="M272.56,303.96c-.08-1.2-2.66-30.91-2.14-53.01.51-22.09,4.54-43.33,4.54-43.33,0,0-.32-.19-.93-.5-.79,1.32-1.73,2.61-2.92,3.06l-20.47,3.85s-1.23,68.34,2.66,104.24c.1,0,.17-.01.17-.01,12.07-3.6,19.18-13.11,19.1-14.3Z"/>
            <path class="cls-8" d="M250.55,286.62s.51,20.04.77,24.4c.26,4.37,1.16,7.2,1.54,7.07.39-.13-.13-2.44-.64-9.76-.52-7.33-1.16-21.71-1.67-21.71Z"/>
            <g class="cls-20">
              <path class="cls-71" d="M272.78,207.83s-.04.03-.05.04c.02-.01.04-.02.05-.04Z"/>
            </g>
            <g class="cls-29">
              <path class="cls-23" d="M203.45,291.97c-.26-10.41-1.5-70.22-.85-77.16,0,0-9.12-.98-13.87-2.65-2.83-.99-6.36-2.49-9.11-4.62-.07.04-.14.08-.14.08,0,0,4.02,21.24,4.54,43.33.52,22.09-2.05,51.81-2.14,53.01-.08,1.2,7.02,10.7,19.1,14.3,0,0,2.72-16.86,2.49-26.29Z"/>
            </g>
            <path class="cls-42" d="M188.94,245.29c1.85-2.04.74-34.2.74-34.2l-6.84-2.59s4.25,38.82,6.1,36.78Z"/>
            <path class="cls-39" d="M248.98,250.95c-.85-.13-1.82-.28-3.21-.41,2.95,1.04,4.94,2.14,4.1,3.06-2.42,2.67-14.54.73-20.84,3.88-6.3,3.15-20.6,4.85-27.88,3.64-5.28-.88-10.17-1.5-10.58-.94,3.1,1.58,8.03,3.17,14.34,3.96,10.19,1.27,17.09,1.5,22.38,1.44,2.71.03,5.85-.02,9.63-.24-2.48-.94-6.34-2.82-3.76-4.71,3.64-2.67,16.24-.48,21.82-2.67,3.02-1.18,3.62-2.72,4.5-4.5-3.52-1.05-7.5-2.05-10.48-2.52Z"/>
            <path class="cls-12" d="M250.63,214.04s-2.57,44.36.86,40.59c3.42-3.77,5.14-40.76,5.14-40.76l-6,.17Z"/>
            <path class="cls-43" d="M183.37,281.38c-.63,12.25-1.46,21.91-1.51,22.58-.05.75,2.74,4.78,7.81,8.57,1.13-10.78,3.46-36.22.5-38.37-2.09-1.51-4.79,2.94-6.8,7.22Z"/>
            <path class="cls-42" d="M221.69,214.89s-1.71,76.39,2.05,82.21c3.77,5.82,25.69-.34,25.69-.34,0,0,8.9-15.41,10.96-26.37,2.06-10.96,5.48-58.58,5.14-58.58s-14.9,2.23-14.9,2.23l-28.94.86Z"/>
          </g>
          <path class="cls-12" d="M201.86,301.37s-4.23,16.2-.41,15.8c2.79-.29,3-19.59.41-15.8Z"/>
          <path class="cls-9" d="M250.31,284.66s.93,31.42,2.96,30.13c2.03-1.29-2.96-30.13-2.96-30.13Z"/>
          <g class="cls-67">
            <path class="cls-62" d="M227.4,216.84c-3.69-.07-21.69-.44-24.14-1.04-1.53-.2-20.44-2.83-23.52-7.45-.3-.45-.36-.99-.15-1.51,1.26-3.15,16.5-6.71,19.54-7.4,5.83-1.31,26.61-1.33,27.47-1.31.93-.02,23.37-.5,29.12,1.33h0c.94.3,2.15.66,3.49,1.05,10.45,3.1,15.2,4.83,15.69,6.94.15.61-.05,1.2-.54,1.66-3.85,3.61-20.93,6.45-22.87,6.68-2.49.61-20.45.97-24.1,1.04ZM183.63,207.1c0,2.57,17.35,5.72,21,6.09l.22.05c1.25.39,14.49.77,22.54.93,8.02-.15,21.27-.54,22.52-.93l.22-.05c8.37-1.08,21.35-3.78,21.48-5.57.07-.9-10.64-4.17-14.38-5.28-1.3-.38-2.46-.73-3.37-1.02-5.19-1.65-26.99-1.19-27.21-1.19-.22,0-20.47,0-25.84,1.21-9.23,2.07-17.19,4.16-17.19,5.76Z"/>
          </g>
          <path class="cls-12" d="M274.92,208.14l-8.54,1.91c-4.56,1.27-11.22,2.5-16.24,3.14l-.22.05c-1.25.39-14.5.78-22.52.93-8.05-.15-21.29-.54-22.54-.93l-.22-.05c-.43-.04-1.05-.13-1.8-.24-.7,1.22,5.45,2.49,13.61,3.62,4.74.15,9.3.24,10.96.27,3.64-.07,21.61-.44,24.1-1.04,1.94-.23,19.02-3.07,22.87-6.68.31-.29.48-.63.55-.98Z"/>
        </g>
        <path class="cls-42" d="M96.85,91.24s-12.76,3.87-26.3,2.71c-17.41-1.49-22.05-2.71-25.53-1.93-3.48.77-38.67,21.66-37.13,27.84,1.55,6.19,40.63,9.03,76.96,7.73,43.32-1.54,47.18-7.35,49.11-9.28,1.94-1.93-25.52-25.91-37.12-27.07Z"/>
        <g>
          <path class="cls-14" d="M72.42,323.66c-8.12,0-16.06-.37-23.62-1.1-17.29-1.55-37.05-5.1-42.17-9.56-7.75-6.75-7.51-23.45-5.22-30.13,1.01-2.95,1.4-21.6,1.17-37.19l-.06-4.65h.1c-.62-70.43.1-110.07,2.14-117.84,2.5-9.55,14.26-20.58,31.46-29.5,1.29-.67,2.61-1.34,3.98-1.98,4.1-1.91,6.67-4.07,7.02-5.84-2.58-11.48-1.86-18.74.12-25.82,0,0,2.25-5.35,2.58-5.73l.77-.93,1.85.86c1.47-.38,3.14-.54,4.87-.69,3.81-.35,8.97-.53,14.94-.53h1.25c5.96,0,11.13.18,14.94.53,1.74.16,3.41.31,4.88.7l2.32-2.89,2.87,8.67c1.86,6.53,3.66,15.98.18,26.05.51,1.73,3.04,3.79,6.93,5.6,1.39.67,2.72,1.33,4.01,2,17.19,8.92,28.95,19.95,31.45,29.5,2.06,7.85,2.77,48.15,2.12,119.79l.05,2.62c-.22,15.67.16,34.32,1.17,37.27,2.3,6.69,2.54,23.38-5.22,30.13-5.12,4.46-24.89,8.01-42.21,9.56-7.53.73-15.47,1.1-23.58,1.1h-1.09Z"/>
          <path class="cls-40" d="M82.8,59.01s1.95,14.51,1.95,20.83,10.88,6.58,13.66-.76c2.78-7.33-5.56-25.29-6.32-25.8-.76-.51-9.28,5.72-9.28,5.72Z"/>
          <g class="cls-52">
            <path class="cls-45" d="M140.9,245.64l-.05-2.32h0c.45-49.82.45-110.02-2.04-119.52-1.88-7.18-13.33-17.4-27.74-24.48l-72.08-1.01c-14.93,5.06-29.97,18.32-31.85,25.49-2.49,9.49-2.49,69.68-2.04,119.5h-.09s.03,2.34.03,2.34c.19,12.7,0,34.25-1.3,38.02-2.2,6.39-2.15,21.69,4.51,27.49,3.95,3.44,21.12,7.21,40.8,8.97,7.48.72,15.34,1.09,23.39,1.09h1.09c8.04,0,15.9-.37,23.37-1.09,19.7-1.76,36.87-5.53,40.82-8.97,6.66-5.8,6.71-21.1,4.51-27.49-1.3-3.77-1.49-25.32-1.3-38.02Z"/>
          </g>
          <path class="cls-63" d="M139.3,245.6s-.02,0-.08,0c.46-47.9.55-111.74-1.96-121.17-1.76-6.63-10.13-15.34-23.46-23.17H32.12c-13.34,7.83-21.7,16.54-23.46,23.17-2.5,9.43-2.42,73.26-1.96,121.17-.05,0-.08,0-.08,0,0,0,.48,33.27-1.46,38.86-1.94,5.59-2.01,19.79,3.85,24.83,3.17,2.73,19.03,6.54,39.95,8.39,8.08.77,16.17,1.09,24,1.08,7.83.01,15.92-.31,24-1.08,20.92-1.85,36.78-5.66,39.95-8.39,5.87-5.04,5.8-19.24,3.85-24.83-1.94-5.59-1.46-38.86-1.46-38.86Z"/>
          <path class="cls-5" d="M126.47,306.24c0,3.97-26.45,8.49-56.14,8.49s-51.38-4.52-51.38-8.49,24.07-7.19,53.76-7.19,53.76,3.22,53.76,7.19Z"/>
          <path class="cls-6" d="M140.76,284.46c-1.94-5.59-1.46-38.86-1.46-38.86,0,0-.02,0-.08,0,.46-47.9.55-111.74-1.96-121.17-1.76-6.63-11.08-16.03-24.41-23.87l-76.85-1.35c-13.34,7.83-25.59,18.58-27.35,25.22-2.5,9.43-2.42,73.26-1.96,121.17-.05,0-.08,0-.08,0,0,0,.48,33.27-1.46,38.86-1.94,5.59-2.01,19.79,3.85,24.83.95.82,3.04,1.73,6.06,2.66.77-21.68,1.78-57.34,1.15-96.68-.96-60.38,34.5-88.18,72.84-76.67,38.34,11.5,48.88,64.22,47.92,98.72-.63,22.64-.43,53.52-.22,72.09.05-.04.11-.08.15-.12,5.87-5.04,5.8-19.24,3.85-24.83Z"/>
          <g>
            <path class="cls-58" d="M143.41,272.54c.01-27.39.03-81.01.01-103.84-12.8,11.69-129.87,9.98-140.82-.83-.02,21.79,0,74.26,0,102.56,0,1.9,1.07,3.68,2.86,4.61,23.17,11.99,114.78,13.51,135.13,2.09,1.75-.98,2.81-2.7,2.81-4.59Z"/>
            <path class="cls-57" d="M143.43,186.34c0-3.25,0-6.21,0-8.77-12.8,11.69-129.87,9.98-140.82-.83,0,2.54,0,5.51,0,8.79,12.95,10.47,126.35,12.1,140.83.81Z"/>
            <path class="cls-57" d="M140.99,258.93c-20.46,11.49-112.59,9.95-135.9-2.1-1.19-.62-2.03-1.63-2.48-2.78,0,2.63,0,5.14,0,7.47,0,1.9,1.07,3.68,2.86,4.61,23.17,11.99,114.78,13.51,135.13,2.09,1.75-.98,2.81-2.71,2.81-4.59,0-2.31,0-4.83,0-7.48-.45,1.13-1.27,2.13-2.43,2.78Z"/>
            <g>
              <g>
                <g>
                  <path class="cls-4" d="M45.87,252.09c.29.12.57.25.86.37l.89.33c.14.05.29.11.44.16l.45.14c.3.1.59.2.9.28.61.16,1.21.34,1.83.47.31.07.61.14.92.2l.93.16c.31.06.63.09.94.13.31.04.62.09.94.11.63.04,1.26.12,1.89.12.32,0,.63.03.95.03h.95c.16-.01.32-.01.48-.02l.48-.03.95-.06.07.74-.97.06-.49.03c-.16,0-.33,0-.49,0h-.98c-.33.01-.65,0-.98-.01-.65,0-1.3-.08-1.95-.13-.32-.03-.65-.08-.97-.11-.32-.04-.65-.08-.97-.14l-.96-.17c-.32-.06-.63-.14-.95-.2-.63-.13-1.26-.32-1.88-.48-.31-.09-.62-.2-.92-.29l-.46-.15c-.16-.05-.3-.11-.46-.17l-.91-.34c-.3-.12-.59-.25-.89-.38l.34-.67Z"/>
                  <path class="cls-4" d="M55.83,254.83c.2.11.4.23.6.32-.02.03-.07.11-.18.25-.1.14-.24.32-.43.54-.19.22-.42.48-.69.77-.28.28-.6.6-.96.91-.37.31-.78.63-1.24.94-.23.16-.47.31-.72.46-.25.15-.51.29-.79.43-.27.14-.56.28-.85.4-.29.12-.59.23-.91.34-.31.1-.63.2-.96.29-.33.08-.66.14-1,.19l-.3-.62c.32-.05.64-.12.96-.19.31-.07.62-.15.92-.26.6-.21,1.17-.43,1.7-.7.53-.27,1.02-.56,1.47-.85.11-.08.22-.15.33-.22.11-.08.21-.16.31-.23.2-.16.39-.31.57-.46.36-.3.67-.59.94-.86.27-.27.5-.53.68-.74.18-.21.32-.39.41-.51.09-.12.14-.19.15-.2Z"/>
                  <path class="cls-4" d="M55,256.46s.07.17.14.46c.07.29.14.69.14,1.17s-.07,1-.31,1.54c-.12.27-.28.54-.5.81-.11.13-.23.26-.37.39-.14.13-.29.25-.46.37-.52.36-1.11.65-1.74.88-.63.21-1.3.37-1.98.47-.68.08-1.38.13-2.06.11-.34-.01-.68-.03-1.01-.06-.17-.01-.33-.03-.49-.05-.08,0-.16-.02-.24-.03-.08-.01-.16-.02-.23-.04-.63-.1-1.21-.22-1.74-.35-.52-.14-.99-.29-1.38-.41-.39-.12-.69-.25-.9-.34-.21-.09-.32-.14-.32-.14,0,0,.1-.14.32-.38.22-.23.56-.55,1.03-.92.47-.36,1.09-.79,1.84-1.21.37-.21.78-.43,1.22-.64.45-.22.93-.45,1.43-.66.18-.07.36-.14.54-.2.19-.06.39-.12.58-.17.4-.1.82-.17,1.24-.23.85-.14,1.7-.19,2.48-.26.77-.04,1.47-.09,1.97-.1.25,0,.45,0,.59-.02.14,0,.22,0,.22,0Z"/>
                  <path class="cls-4" d="M52,247.11c.13.18.26.38.39.57.13.19.26.39.39.59.13.2.25.41.37.62.12.21.25.42.37.62.12.21.24.42.36.63.12.21.24.42.36.62.23.4.46.8.67,1.18.21.39.41.73.59,1.06.18.33.34.62.48.86.27.5.44.81.47.86-.21.09-.42.16-.64.24,0,0-.04-.08-.11-.22-.07-.13-.18-.33-.3-.57-.13-.23-.29-.51-.46-.83-.17-.32-.36-.67-.57-1.05-.1-.18-.21-.38-.32-.58-.11-.19-.22-.39-.33-.6-.22-.41-.45-.82-.69-1.23-.24-.42-.47-.84-.72-1.23-.12-.2-.25-.39-.37-.59-.12-.19-.25-.38-.38-.55.15-.14.29-.28.43-.42Z"/>
                  <path class="cls-4" d="M55.35,253.23s.1-.16.2-.43c.11-.28.24-.67.32-1.13.07-.46.1-1,.03-1.56-.04-.28-.1-.57-.19-.86-.05-.14-.1-.29-.16-.43-.06-.15-.13-.3-.2-.44-.23-.46-.48-.85-.75-1.21-.26-.37-.54-.69-.82-.97-.27-.3-.56-.54-.84-.77-.14-.12-.27-.23-.41-.33-.07-.05-.14-.09-.2-.14-.04-.02-.07-.04-.1-.07-.03-.02-.06-.04-.1-.07-.25-.18-.5-.33-.73-.45-.22-.14-.43-.24-.6-.32-.18-.08-.31-.15-.41-.19-.1-.04-.15-.06-.15-.06,0,0-.07.16-.16.44-.09.28-.2.7-.29,1.23-.09.53-.14,1.15-.1,1.87.02.36.06.75.14,1.15.08.39.2.81.36,1.24.05.15.12.29.2.43.08.14.17.27.27.4.19.26.43.52.68.75.53.44,1.14.85,1.73,1.13.59.3,1.17.49,1.58.62.21.07.38.12.5.14.12.03.19.04.19.04Z"/>
                </g>
                <g>
                  <path class="cls-4" d="M34.39,243.12c.18.24.36.48.55.72l.58.69c.19.23.4.46.6.68.21.22.41.45.63.66.43.43.86.86,1.32,1.26l.34.31.17.15.18.14.72.58c.98.75,1.98,1.46,3.06,2.08l.4.24c.14.08.27.15.41.22l.82.44.84.41.42.2.43.18-.34.67-.44-.19-.43-.21-.87-.42-.84-.45c-.14-.08-.28-.15-.42-.23l-.41-.25c-1.11-.64-2.14-1.37-3.14-2.14l-.74-.6-.18-.15-.18-.16-.35-.31c-.48-.41-.92-.85-1.37-1.29-.22-.22-.43-.46-.64-.68-.21-.23-.43-.46-.62-.7l-.6-.71c-.19-.24-.38-.49-.57-.74l.66-.42Z"/>
                  <path class="cls-4" d="M41.5,250.13c.11.19.23.37.35.56-.05.02-.4.19-.97.41-.56.21-1.36.46-2.34.67-.96.19-2.12.34-3.36.29-.31,0-.63-.03-.95-.05-.32-.03-.64-.08-.96-.13-.32-.06-.65-.12-.98-.2-.33-.08-.65-.18-.98-.29l.08-.67c.31.1.62.2.93.28.16.04.31.08.47.11.16.03.31.06.47.09.31.05.62.09.93.13.31.03.61.06.91.06.6.02,1.18,0,1.73-.05.55-.05,1.07-.13,1.54-.22.24-.05.46-.09.68-.14.21-.05.42-.1.61-.16.38-.11.72-.22.99-.32.27-.1.49-.18.63-.24.14-.06.23-.1.23-.1Z"/>
                  <path class="cls-4" d="M39.91,251.14s-.04.18-.13.46c-.1.28-.26.67-.52,1.07-.25.4-.61.83-1.11,1.18-.5.35-1.14.64-1.99.73-.64.07-1.31.04-1.98-.05-.66-.11-1.32-.29-1.97-.51-.64-.24-1.25-.53-1.84-.86-.57-.34-1.12-.69-1.62-1.06-.48-.38-.93-.76-1.31-1.11-.38-.37-.7-.71-.96-1-.27-.29-.46-.54-.59-.71-.13-.18-.2-.27-.2-.27,0,0,.16-.08.48-.18.31-.1.78-.22,1.39-.31.15-.02.31-.05.48-.07.17-.02.35-.04.54-.06.38-.03.79-.06,1.23-.07.44-.01.9,0,1.4.01.51.01,1.04.04,1.6.09.19.02.38.04.58.08.2.03.4.08.6.13.4.1.8.23,1.19.37.4.14.79.29,1.18.46.09.04.19.08.28.12.1.04.19.08.28.12.18.08.36.16.54.24.17.08.34.16.5.24.16.07.32.15.47.21.3.14.56.27.78.38.22.11.4.19.52.25.12.06.19.09.19.09Z"/>
                  <path class="cls-4" d="M42.4,241.67c.01.22.02.45.02.68,0,.22.01.45.01.69s0,.47-.02.71c0,.23,0,.47-.01.71-.04.96-.07,1.89-.13,2.75-.04.85-.08,1.6-.11,2.16-.03.55-.06.9-.06.96-.23-.03-.46-.04-.68-.08,0,0,0-.09.02-.24.01-.15.03-.36.05-.63.04-.52.08-1.26.14-2.1.02-.41.05-.86.08-1.32.03-.46.06-.93.08-1.39,0-.23.02-.47.03-.7,0-.23.01-.46.01-.69v-.34s0-.34,0-.34c0-.22-.01-.44-.03-.65.2-.05.4-.1.6-.16Z"/>
                  <path class="cls-4" d="M41.97,248.52s.17-.09.41-.28c.25-.19.57-.46.89-.83.64-.72,1.25-1.81,1.35-3.09.05-.5.05-.97.01-1.4-.03-.44-.09-.85-.18-1.23-.08-.39-.18-.74-.31-1.06-.11-.33-.24-.63-.37-.9-.12-.28-.26-.52-.39-.74-.12-.22-.24-.41-.34-.56-.11-.15-.19-.27-.25-.36-.06-.09-.1-.13-.1-.13,0,0-.14.1-.37.31-.23.21-.56.51-.92.93-.09.1-.18.21-.28.33-.09.12-.18.24-.28.37-.19.26-.37.55-.55.87-.18.32-.35.68-.5,1.06-.14.38-.27.79-.37,1.24-.03.15-.05.31-.06.47,0,.16,0,.32.01.47.03.32.09.65.18.97.11.31.24.63.38.93.04.07.07.15.11.22.04.07.08.14.13.21.09.14.17.28.26.41.09.13.18.26.27.38.09.12.18.23.27.34.18.21.35.4.49.56.14.16.27.27.36.35.09.08.14.12.14.12Z"/>
                </g>
                <g>
                  <path class="cls-4" d="M29.37,230.03c.02.29.06.58.09.88.04.29.07.58.11.87l.16.87.08.43.1.43.2.86.25.85.12.42c.04.14.1.28.15.42l.3.84c.11.27.23.55.34.82l.17.41c.06.14.13.27.19.4l.38.8.42.78.21.39.23.38.47.77.51.74c.09.12.17.25.26.37l.27.36-.66.42-.28-.37c-.09-.12-.17-.26-.26-.38l-.52-.76-.48-.79-.24-.39-.22-.4-.44-.81-.39-.82c-.06-.14-.13-.28-.2-.41l-.17-.42c-.12-.28-.24-.56-.35-.85l-.3-.86c-.05-.14-.1-.29-.15-.43l-.13-.43-.25-.87-.21-.88-.1-.44-.08-.45-.16-.89c-.04-.3-.07-.6-.11-.9-.04-.3-.08-.6-.1-.9l.8-.06Z"/>
                  <path class="cls-4" d="M31.68,239.4c0,.22,0,.43,0,.64-.06,0-.44-.02-1.06-.09-.6-.09-1.43-.24-2.39-.52-.47-.14-.97-.32-1.49-.54-.26-.11-.53-.23-.79-.35-.26-.13-.52-.27-.78-.42-.52-.31-1.06-.65-1.55-1.06-.25-.2-.49-.41-.73-.63-.12-.11-.24-.23-.35-.34-.11-.12-.22-.24-.33-.36l.44-.54c.21.24.42.46.64.68.22.21.46.41.7.61.49.39.97.73,1.49,1.02.51.3,1.02.55,1.52.77.51.21,1,.38,1.46.53.91.29,1.73.43,2.3.52.29.04.52.07.68.08.16.02.25.02.25.02Z"/>
                  <path class="cls-4" d="M29.75,239.53s-.13.14-.37.34c-.24.2-.59.46-1.03.68-.89.46-2.14.83-3.73.22-.59-.25-1.15-.58-1.68-.97-.27-.2-.5-.42-.74-.64-.23-.23-.46-.47-.68-.72-.22-.25-.41-.52-.59-.78-.19-.27-.36-.54-.53-.82-.04-.07-.08-.14-.12-.21-.04-.07-.07-.14-.11-.21-.07-.14-.14-.28-.21-.42-.14-.28-.26-.56-.37-.83-.43-1.1-.7-2.13-.82-2.87-.06-.37-.11-.68-.13-.89-.01-.1-.02-.18-.02-.24,0-.06,0-.09,0-.09,0,0,.18,0,.5.07.32.06.8.17,1.38.37.58.2,1.27.49,2.04.88.37.19.79.41,1.22.66.43.25.87.52,1.32.83.32.21.62.45.91.72.29.27.55.57.83.88.27.31.53.63.76.95.25.31.48.63.69.93.11.15.2.3.31.44.1.14.2.28.29.41.18.26.34.49.46.69.13.2.24.36.32.46.07.11.11.17.11.17Z"/>
                  <path class="cls-4" d="M37.08,232.52l-.34.59c-.12.2-.24.4-.37.6-.27.41-.52.8-.8,1.21-.14.2-.28.41-.42.6-.14.2-.27.39-.4.59-.27.39-.54.77-.79,1.13-.49.71-.94,1.35-1.28,1.81-.32.46-.54.75-.57.8-.18-.13-.37-.25-.55-.39,0,0,.06-.08.15-.2.09-.13.22-.3.39-.52.32-.44.76-1.05,1.27-1.75.25-.35.52-.72.78-1.1.28-.38.56-.77.83-1.17.26-.39.55-.79.8-1.18.13-.2.24-.39.36-.59.12-.19.24-.39.34-.58.2.05.4.1.6.14Z"/>
                  <path class="cls-4" d="M32.96,238.23s.2,0,.51-.05c.31-.05.74-.13,1.22-.3.95-.33,2.07-.99,2.85-2.04.32-.41.58-.81.78-1.2.09-.19.2-.39.29-.58.09-.19.16-.38.23-.56.06-.18.13-.37.18-.54.05-.18.1-.35.13-.51l.02-.12.03-.13c.02-.08.04-.16.05-.24.03-.16.05-.31.06-.46.09-.59.08-1.1.08-1.47,0-.18-.02-.33-.03-.43,0-.05,0-.09-.01-.12,0-.02,0-.04,0-.04,0,0-.18.03-.49.09-.31.07-.76.18-1.29.37-.53.19-1.16.46-1.82.85-.34.2-.66.42-1,.68s-.67.56-1,.9c-.22.23-.4.5-.55.79-.15.29-.29.6-.37.92-.09.32-.14.65-.19.99-.03.33-.03.65-.03.96,0,.15,0,.31.02.46.02.14.03.28.05.42.04.27.08.5.12.71.04.2.09.36.12.47.03.11.05.17.05.17Z"/>
                </g>
                <g>
                  <path class="cls-4" d="M32.15,216.39c-1.1,2.11-1.91,4.35-2.38,6.65-.47,2.3-.6,4.66-.41,7l-.8.06c-.2-2.4-.07-4.82.42-7.19.48-2.37,1.3-4.67,2.44-6.84l.72.32Z"/>
                  <path class="cls-4" d="M29.06,225.55c-.13.18-.23.37-.36.55-.09-.06-1.3-.76-2.64-2.13-.17-.17-.34-.35-.51-.55-.17-.19-.33-.4-.5-.61-.16-.21-.33-.44-.49-.67-.15-.23-.3-.48-.45-.73-.3-.51-.54-1.05-.77-1.63-.11-.29-.2-.59-.29-.89-.04-.15-.08-.31-.12-.46-.03-.15-.06-.31-.09-.47l.67-.27c.05.3.11.6.19.89.08.29.18.58.27.86.19.55.46,1.09.73,1.58.28.49.59.95.9,1.37.32.42.65.8.96,1.13.65.68,1.25,1.18,1.71,1.52.23.17.41.3.54.39.13.09.21.13.21.14Z"/>
                  <path class="cls-4" d="M27.31,224.77s-.18.06-.5.12c-.31.06-.75.12-1.26.11-.51,0-1.08-.08-1.66-.3-.29-.11-.58-.27-.86-.47-.28-.2-.55-.46-.8-.77-.78-.98-1.23-2.19-1.41-3.46-.2-1.27-.1-2.58.11-3.74.06-.29.12-.57.18-.84.07-.27.14-.53.22-.77.14-.49.32-.91.46-1.27.14-.36.28-.63.38-.83.09-.19.15-.3.15-.3,0,0,.15.09.4.3.25.2.59.52.98.97.79.88,1.74,2.28,2.66,4.18.16.33.27.68.39,1.05.1.37.17.75.24,1.15.03.2.06.39.08.59.02.19.05.39.07.59.02.19.03.38.05.57.02.19.03.38.04.55.02.36.04.7.05,1,0,.15,0,.3.02.44,0,.14.01.26.02.38,0,.23,0,.42,0,.54,0,.13,0,.2,0,.2Z"/>
                  <path class="cls-4" d="M37.46,222.12c-.1.06-.2.12-.31.18-.1.06-.21.12-.31.18-.21.12-.43.23-.65.34-.43.23-.9.45-1.34.68-.47.22-.92.44-1.36.64-.45.21-.88.42-1.29.61-.83.38-1.54.72-2.09.97-.54.25-.88.4-.93.42-.09-.2-.18-.39-.26-.59,0,0,.09-.04.24-.1.14-.06.36-.16.62-.27.51-.23,1.24-.56,2.05-.93.41-.18.84-.38,1.28-.58.45-.2.9-.42,1.34-.63.46-.21.89-.43,1.33-.65.22-.11.43-.22.63-.33.21-.11.41-.23.61-.34.15.14.29.27.45.41Z"/>
                  <path class="cls-4" d="M30.79,225.13s.17.09.47.2c.3.11.72.23,1.22.31.5.08,1.08.11,1.69.05.31-.03.62-.09.93-.16.32-.08.64-.19.96-.32.97-.42,1.75-.91,2.38-1.42.62-.51,1.12-1.02,1.5-1.5.1-.12.19-.23.27-.35.08-.11.16-.22.23-.32.14-.21.26-.39.35-.55.09-.16.17-.29.21-.38.05-.09.07-.14.07-.14,0,0-.17-.06-.48-.15-.31-.09-.75-.2-1.32-.29-1.13-.17-2.74-.25-4.61.32-.32.1-.63.24-.91.42-.29.18-.57.39-.82.63-.12.12-.25.24-.36.37-.12.13-.22.26-.33.39-.11.13-.21.27-.3.41-.09.14-.17.27-.25.41-.17.27-.3.54-.41.79-.06.12-.11.24-.16.35-.04.11-.08.22-.12.31-.07.19-.12.35-.16.46-.04.11-.05.17-.05.17Z"/>
                </g>
                <g>
                  <path class="cls-4" d="M42,205.89c-4.21,2.62-7.64,6.28-9.85,10.5l-.72-.32c2.27-4.34,5.8-8.1,10.12-10.79l.45.61Z"/>
                  <path class="cls-4" d="M34.33,212.37c-.2.1-.4.21-.6.31-.03-.05-.2-.37-.43-.9-.11-.27-.23-.58-.35-.95-.06-.18-.12-.38-.18-.58-.06-.2-.11-.42-.16-.64-.1-.45-.19-.95-.24-1.47-.02-.26-.04-.53-.05-.81,0-.27,0-.55,0-.84.02-.58.1-1.16.22-1.77.06-.3.15-.6.24-.9.05-.15.09-.3.15-.45.05-.15.11-.3.18-.45l.73.08c-.12.29-.22.57-.32.86-.09.29-.17.58-.23.86-.06.29-.11.58-.15.86-.04.28-.06.57-.07.84-.02.56-.01,1.09.03,1.6.05.51.13.99.22,1.43.1.44.2.84.31,1.2.11.35.23.66.33.92.1.25.19.45.26.58.06.14.1.22.1.22Z"/>
                  <path class="cls-4" d="M33.25,210.88s-.19-.03-.5-.13c-.3-.1-.72-.25-1.15-.49-.44-.24-.89-.57-1.27-1.04-.38-.46-.68-1.07-.76-1.85-.15-1.2.13-2.46.65-3.64.52-1.19,1.31-2.27,2.12-3.17.2-.22.41-.44.61-.64.21-.2.41-.39.6-.56.39-.36.77-.64,1.09-.88.32-.24.59-.41.77-.54.19-.12.29-.18.29-.18,0,0,.08.15.18.44.1.29.23.73.32,1.29.09.56.17,1.26.18,2.07,0,.4,0,.84-.03,1.3-.01.23-.03.47-.05.71-.02.25-.04.5-.07.76-.04.35-.13.71-.24,1.08-.11.37-.26.73-.41,1.1-.08.18-.16.37-.25.54-.09.18-.17.36-.26.54-.09.18-.18.34-.27.51-.09.17-.18.34-.27.5-.18.32-.34.63-.5.9-.16.27-.3.51-.42.72-.24.4-.39.65-.39.65Z"/>
                  <path class="cls-4" d="M43.47,213.31c-.12,0-.24,0-.36,0h-.36c-.24.01-.5,0-.75,0-.5,0-1.02-.02-1.53-.04-.52-.03-1.04-.05-1.53-.07-.51-.03-.99-.05-1.45-.08-.46-.03-.9-.05-1.29-.07-.4-.03-.75-.05-1.05-.06-.59-.03-.98-.07-1.03-.07.03-.21.06-.42.1-.63,0,0,.1,0,.26.02.16.01.39.03.68.05.29.02.63.04,1.01.07.38.02.81.05,1.26.08.45.03.93.07,1.42.1.49.03,1,.06,1.5.09.51.03,1.01.04,1.51.06.25,0,.49,0,.73,0,.24,0,.48,0,.71-.02.05.19.11.37.16.56Z"/>
                  <path class="cls-4" d="M36.06,212.82s.1.16.3.39c.2.23.49.53.88.83.39.3.87.59,1.44.83.56.23,1.19.4,1.9.46,1.07.09,2.02.03,2.84-.13.82-.15,1.54-.37,2.13-.6.15-.06.29-.12.42-.18.14-.06.26-.11.38-.17.23-.12.44-.22.61-.32.16-.1.3-.17.39-.23.09-.06.14-.09.14-.09,0,0-.11-.14-.33-.35-.22-.22-.55-.52-.99-.86-.45-.34-1-.71-1.69-1.04-.35-.17-.72-.33-1.13-.47-.21-.07-.42-.14-.64-.2-.23-.06-.46-.11-.69-.16-.33-.06-.68-.09-1.02-.06-.34.02-.7.07-1.04.16-.18.05-.35.09-.52.15-.17.05-.33.12-.5.19-.16.07-.32.14-.48.21-.15.08-.3.16-.45.24-.29.16-.55.33-.79.49-.24.16-.43.32-.6.45-.17.14-.3.24-.39.33-.09.08-.14.13-.14.13Z"/>
                </g>
              </g>
              <path class="cls-4" d="M38.51,207.89s.14-6.29,5.97-8.33c5.83-2.04,8.7-.96,8.7-.96,0,0-3.55,5.72-7.02,7.95-3.47,2.23-7.66,1.34-7.66,1.34Z"/>
            </g>
            <g>
              <g>
                <g>
                  <path class="cls-4" d="M96.61,252.09c-.29.12-.58.25-.87.37l-.88.33c-.14.05-.29.11-.44.16l-.45.14c-.3.1-.6.2-.9.28-.61.16-1.21.34-1.83.47-.31.07-.61.14-.93.2l-.93.16c-.31.06-.63.09-.94.13-.31.04-.63.09-.95.11-.62.04-1.26.12-1.89.12-.31,0-.63.03-.95.03h-.95c-.16-.01-.32-.01-.48-.02l-.48-.03-.95-.06-.07.74.98.06.49.03c.16,0,.32,0,.49,0h.97c.33.01.66,0,.98-.01.65,0,1.3-.08,1.95-.13.33-.03.64-.08.97-.11.32-.04.64-.08.96-.14l.96-.17c.32-.06.63-.14.95-.2.64-.13,1.26-.32,1.88-.48.31-.09.61-.2.93-.29l.46-.15c.16-.05.31-.11.46-.17l.91-.34c.29-.12.59-.25.88-.38l-.34-.67Z"/>
                  <path class="cls-4" d="M86.65,254.83c-.2.11-.4.23-.59.32.01.03.07.11.17.25.1.14.25.32.43.54.19.22.42.48.69.77.28.28.6.6.97.91.37.31.77.63,1.24.94.23.16.47.31.72.46.25.15.51.29.79.43.27.14.55.28.85.4.29.12.6.23.91.34.31.1.63.2.96.29.32.08.66.14,1,.19l.3-.62c-.32-.05-.64-.12-.96-.19-.31-.07-.62-.15-.92-.26-.6-.21-1.16-.43-1.69-.7-.54-.27-1.02-.56-1.47-.85-.11-.08-.22-.15-.33-.22-.1-.08-.21-.16-.31-.23-.2-.16-.4-.31-.58-.46-.36-.3-.67-.59-.94-.86-.27-.27-.49-.53-.67-.74-.19-.21-.32-.39-.41-.51-.1-.12-.14-.19-.15-.2Z"/>
                  <path class="cls-4" d="M87.48,256.46s-.07.17-.13.46c-.07.29-.14.69-.14,1.17s.07,1,.31,1.54c.12.27.28.54.5.81.1.13.23.26.37.39.13.13.29.25.46.37.52.36,1.11.65,1.74.88.63.21,1.3.37,1.98.47.68.08,1.38.13,2.06.11.34-.01.68-.03,1.01-.06.16-.01.33-.03.49-.05.08,0,.16-.02.24-.03.08-.01.16-.02.23-.04.62-.1,1.21-.22,1.74-.35.52-.14.99-.29,1.38-.41.39-.12.69-.25.9-.34.2-.09.32-.14.32-.14,0,0-.1-.14-.31-.38-.22-.23-.56-.55-1.03-.92-.47-.36-1.09-.79-1.83-1.21-.37-.21-.78-.43-1.22-.64-.45-.22-.93-.45-1.43-.66-.18-.07-.36-.14-.55-.2-.19-.06-.39-.12-.58-.17-.4-.1-.82-.17-1.24-.23-.85-.14-1.7-.19-2.48-.26-.77-.04-1.47-.09-1.97-.1-.25,0-.45,0-.59-.02-.14,0-.22,0-.22,0Z"/>
                  <path class="cls-4" d="M90.48,247.11c-.13.18-.26.38-.39.57-.13.19-.25.39-.38.59-.13.2-.25.41-.37.62-.13.21-.25.42-.37.62-.12.21-.25.42-.36.63-.12.21-.24.42-.36.62-.23.4-.46.8-.67,1.18-.22.39-.41.73-.6,1.06-.18.33-.34.62-.48.86-.27.5-.45.81-.47.86.21.09.42.16.64.24,0,0,.04-.08.11-.22.07-.13.18-.33.3-.57.13-.23.28-.51.46-.83.18-.32.36-.67.57-1.05.1-.18.21-.38.31-.58.12-.19.22-.39.34-.6.22-.41.45-.82.69-1.23.23-.42.48-.84.72-1.23.12-.2.24-.39.36-.59.13-.19.25-.38.38-.55-.15-.14-.3-.28-.44-.42Z"/>
                  <path class="cls-4" d="M87.14,253.23s-.1-.16-.2-.43c-.12-.28-.24-.67-.32-1.13-.07-.46-.1-1-.02-1.56.04-.28.09-.57.18-.86.05-.14.1-.29.16-.43.06-.15.13-.3.2-.44.23-.46.48-.85.75-1.21.26-.37.54-.69.82-.97.28-.3.56-.54.84-.77.14-.12.27-.23.41-.33.07-.05.13-.09.2-.14.04-.02.07-.04.1-.07.03-.02.07-.04.1-.07.26-.18.5-.33.73-.45.22-.14.43-.24.6-.32.17-.08.31-.15.41-.19.1-.04.16-.06.16-.06,0,0,.06.16.16.44.08.28.21.7.29,1.23.09.53.14,1.15.1,1.87-.02.36-.06.75-.15,1.15-.08.39-.2.81-.35,1.24-.05.15-.12.29-.2.43-.08.14-.17.27-.27.4-.2.26-.43.52-.69.75-.52.44-1.14.85-1.73,1.13-.6.3-1.17.49-1.59.62-.21.07-.38.12-.5.14-.12.03-.18.04-.18.04Z"/>
                </g>
                <g>
                  <path class="cls-4" d="M108.08,243.12c-.19.24-.36.48-.55.72l-.58.69c-.19.23-.4.46-.61.68-.21.22-.4.45-.62.66-.43.43-.86.86-1.32,1.26l-.34.31-.17.15-.17.14-.72.58c-.98.75-1.98,1.46-3.06,2.08l-.4.24c-.13.08-.27.15-.41.22l-.82.44-.84.41-.43.2-.43.18.34.67.45-.19.43-.21.86-.42.84-.45c.14-.08.28-.15.42-.23l.41-.25c1.11-.64,2.14-1.37,3.14-2.14l.73-.6.19-.15.17-.16.35-.31c.48-.41.92-.85,1.36-1.29.22-.22.43-.46.64-.68.21-.23.43-.46.62-.7l.6-.71c.19-.24.37-.49.57-.74l-.66-.42Z"/>
                  <path class="cls-4" d="M100.98,250.13c-.1.19-.22.37-.34.56.06.02.4.19.96.41.57.21,1.37.46,2.35.67.97.19,2.13.34,3.36.29.31,0,.63-.03.95-.05.31-.03.64-.08.96-.13.33-.06.65-.12.98-.2.33-.08.65-.18.97-.29l-.08-.67c-.31.1-.62.2-.93.28-.16.04-.31.08-.47.11-.16.03-.31.06-.47.09-.31.05-.63.09-.93.13-.31.03-.61.06-.91.06-.61.02-1.18,0-1.73-.05-.55-.05-1.07-.13-1.54-.22-.23-.05-.46-.09-.67-.14-.21-.05-.41-.1-.61-.16-.39-.11-.72-.22-.99-.32-.28-.1-.49-.18-.64-.24-.14-.06-.23-.1-.23-.1Z"/>
                  <path class="cls-4" d="M102.58,251.14s.04.18.13.46c.1.28.26.67.52,1.07.26.4.61.83,1.11,1.18.5.35,1.15.64,1.99.73.65.07,1.31.04,1.98-.05.66-.11,1.32-.29,1.97-.51.63-.24,1.25-.53,1.84-.86.57-.34,1.12-.69,1.61-1.06.48-.38.93-.76,1.32-1.11.37-.37.7-.71.96-1,.27-.29.46-.54.59-.71.13-.18.2-.27.2-.27,0,0-.16-.08-.48-.18-.31-.1-.78-.22-1.39-.31-.15-.02-.31-.05-.48-.07-.17-.02-.35-.04-.54-.06-.38-.03-.79-.06-1.23-.07-.44-.01-.9,0-1.41.01-.5.01-1.03.04-1.59.09-.19.02-.39.04-.58.08-.2.03-.4.08-.6.13-.4.1-.8.23-1.19.37-.4.14-.8.29-1.18.46-.1.04-.19.08-.28.12-.09.04-.18.08-.28.12-.19.08-.37.16-.54.24-.18.08-.34.16-.5.24-.16.07-.32.15-.47.21-.3.14-.57.27-.78.38-.22.11-.4.19-.52.25-.12.06-.19.09-.19.09Z"/>
                  <path class="cls-4" d="M100.07,241.67c-.01.22-.02.45-.02.68,0,.22-.01.45-.01.69s0,.47.02.71c0,.23,0,.47.01.71.04.96.07,1.89.13,2.75.04.85.08,1.6.11,2.16.04.55.05.9.06.96.23-.03.46-.04.69-.08,0,0-.01-.09-.02-.24-.01-.15-.03-.36-.05-.63-.03-.52-.08-1.26-.14-2.1-.02-.41-.05-.86-.08-1.32-.03-.46-.06-.93-.07-1.39,0-.23-.02-.47-.03-.7-.01-.23-.01-.46-.01-.69v-.68c0-.22.01-.44.03-.65-.2-.05-.4-.1-.61-.16Z"/>
                  <path class="cls-4" d="M100.51,248.52s-.16-.09-.41-.28c-.25-.19-.57-.46-.89-.83-.64-.72-1.25-1.81-1.35-3.09-.05-.5-.05-.97-.01-1.4.03-.44.09-.85.19-1.23.07-.39.19-.74.31-1.06.11-.33.24-.63.37-.9.12-.28.26-.52.39-.74.12-.22.24-.41.35-.56.11-.15.18-.27.25-.36.06-.09.09-.13.09-.13,0,0,.15.1.37.31.23.21.56.51.93.93.09.1.18.21.28.33.09.12.19.24.28.37.18.26.37.55.55.87.18.32.35.68.49,1.06.14.38.27.79.37,1.24.03.15.05.31.06.47,0,.16,0,.32-.01.47-.03.32-.09.65-.19.97-.11.31-.24.63-.39.93-.04.07-.07.15-.11.22-.04.07-.09.14-.13.21-.09.14-.18.28-.26.41-.09.13-.18.26-.27.38-.09.12-.18.23-.27.34-.18.21-.35.4-.49.56-.14.16-.27.27-.36.35-.09.08-.14.12-.14.12Z"/>
                </g>
                <g>
                  <path class="cls-4" d="M113.11,230.03c-.02.29-.06.58-.1.88-.04.29-.07.58-.11.87l-.16.87-.08.43-.1.43-.21.86-.25.85-.13.42c-.05.14-.09.28-.14.42l-.3.84c-.11.27-.22.55-.34.82l-.17.41c-.06.14-.13.27-.19.4l-.39.8-.43.78-.21.39-.23.38-.47.77-.5.74c-.08.12-.17.25-.26.37l-.27.36.66.42.27-.37c.09-.12.18-.26.27-.38l.52-.76.48-.79.24-.39.22-.4.44-.81.4-.82c.06-.14.13-.28.19-.41l.17-.42c.12-.28.24-.56.35-.85l.31-.86c.05-.14.1-.29.15-.43l.13-.43.26-.87.21-.88.1-.44.08-.45.16-.89c.04-.3.08-.6.12-.9.04-.3.07-.6.1-.9l-.8-.06Z"/>
                  <path class="cls-4" d="M110.8,239.4c0,.22,0,.43,0,.64.06,0,.44-.02,1.06-.09.6-.09,1.43-.24,2.39-.52.48-.14.97-.32,1.49-.54.26-.11.52-.23.79-.35.26-.13.52-.27.79-.42.52-.31,1.06-.65,1.55-1.06.25-.2.49-.41.73-.63.12-.11.24-.23.35-.34.11-.12.22-.24.33-.36l-.44-.54c-.2.24-.42.46-.64.68-.22.21-.46.41-.7.61-.49.39-.97.73-1.49,1.02-.51.3-1.02.55-1.51.77-.51.21-1,.38-1.46.53-.91.29-1.73.43-2.3.52-.29.04-.52.07-.68.08-.16.02-.25.02-.25.02Z"/>
                  <path class="cls-4" d="M112.73,239.53s.13.14.37.34c.23.2.58.46,1.03.68.89.46,2.14.83,3.73.22.59-.25,1.15-.58,1.68-.97.27-.2.5-.42.75-.64.23-.23.46-.47.67-.72.22-.25.41-.52.59-.78.19-.27.36-.54.53-.82.04-.07.08-.14.12-.21.04-.07.07-.14.11-.21.07-.14.14-.28.21-.42.13-.28.26-.56.37-.83.43-1.1.7-2.13.81-2.87.07-.37.11-.68.13-.89.01-.1.02-.18.02-.24,0-.06,0-.09,0-.09,0,0-.18,0-.51.07-.32.06-.8.17-1.38.37-.58.2-1.28.49-2.03.88-.38.19-.79.41-1.22.66-.43.25-.86.52-1.32.83-.31.21-.62.45-.91.72-.29.27-.55.57-.83.88-.27.31-.52.63-.76.95-.25.31-.49.63-.7.93-.11.15-.2.3-.31.44-.1.14-.2.28-.29.41-.18.26-.34.49-.46.69-.13.2-.24.36-.31.46-.07.11-.12.17-.12.17Z"/>
                  <path class="cls-4" d="M105.4,232.52l.34.59c.12.2.24.4.37.6.27.41.52.8.8,1.21.14.2.28.41.42.6.14.2.27.39.4.59.27.39.54.77.79,1.13.49.71.94,1.35,1.28,1.81.33.46.54.75.57.8.18-.13.37-.25.55-.39,0,0-.05-.08-.15-.2-.09-.13-.22-.3-.39-.52-.32-.44-.76-1.05-1.27-1.75-.26-.35-.52-.72-.78-1.1-.28-.38-.57-.77-.83-1.17-.27-.39-.55-.79-.8-1.18-.13-.2-.24-.39-.36-.59-.13-.19-.24-.39-.34-.58-.2.05-.4.1-.61.14Z"/>
                  <path class="cls-4" d="M109.52,238.23s-.19,0-.5-.05c-.31-.05-.75-.13-1.22-.3-.94-.33-2.07-.99-2.85-2.04-.32-.41-.58-.81-.77-1.2-.1-.19-.21-.39-.29-.58-.09-.19-.16-.38-.23-.56-.05-.18-.13-.37-.18-.54-.05-.18-.09-.35-.13-.51l-.02-.12-.03-.13c-.02-.08-.04-.16-.05-.24-.03-.16-.05-.31-.07-.46-.08-.59-.07-1.1-.08-1.47,0-.18.02-.33.04-.43,0-.05,0-.09.01-.12,0-.02,0-.04,0-.04,0,0,.18.03.49.09.31.07.76.18,1.29.37.53.19,1.16.46,1.82.85.34.2.67.42,1,.68.34.26.67.56,1,.9.22.23.4.5.55.79.15.29.29.6.37.92.08.32.14.65.18.99.03.33.04.65.03.96,0,.15,0,.31-.02.46-.02.14-.04.28-.05.42-.04.27-.08.5-.12.71-.04.2-.09.36-.12.47-.04.11-.05.17-.05.17Z"/>
                </g>
                <g>
                  <path class="cls-4" d="M110.33,216.39c1.11,2.11,1.91,4.35,2.37,6.65.47,2.3.6,4.66.41,7l.8.06c.2-2.4.07-4.82-.42-7.19-.48-2.37-1.3-4.67-2.44-6.84l-.72.32Z"/>
                  <path class="cls-4" d="M113.42,225.55c.13.18.24.37.36.55.1-.06,1.3-.76,2.64-2.13.17-.17.34-.35.5-.55.17-.19.33-.4.5-.61.16-.21.32-.44.49-.67.15-.23.3-.48.45-.73.29-.51.54-1.05.77-1.63.11-.29.2-.59.28-.89.04-.15.09-.31.12-.46.03-.15.06-.31.09-.47l-.67-.27c-.05.3-.11.6-.19.89-.08.29-.17.58-.27.86-.2.55-.46,1.09-.73,1.58-.27.49-.59.95-.89,1.37-.32.42-.65.8-.97,1.13-.65.68-1.25,1.18-1.71,1.52-.22.17-.41.3-.54.39-.13.09-.21.13-.21.14Z"/>
                  <path class="cls-4" d="M115.17,224.77s.18.06.5.12c.31.06.75.12,1.26.11.51,0,1.09-.08,1.67-.3.29-.11.58-.27.87-.47.28-.2.55-.46.8-.77.79-.98,1.23-2.19,1.42-3.46.19-1.27.1-2.58-.11-3.74-.05-.29-.12-.57-.18-.84-.07-.27-.14-.53-.22-.77-.14-.49-.32-.91-.46-1.27-.14-.36-.29-.63-.38-.83-.1-.19-.16-.3-.16-.3,0,0-.15.09-.4.3-.25.2-.59.52-.98.97-.79.88-1.74,2.28-2.66,4.18-.16.33-.28.68-.39,1.05-.1.37-.17.75-.24,1.15-.03.2-.05.39-.08.59-.02.19-.05.39-.07.59-.02.19-.03.38-.05.57-.02.19-.03.38-.04.55-.02.36-.04.7-.05,1,0,.15-.01.3-.01.44,0,.14-.01.26-.02.38-.01.23-.01.42-.01.54s0,.2,0,.2Z"/>
                  <path class="cls-4" d="M105.02,222.12c.1.06.2.12.31.18.1.06.2.12.31.18.2.12.43.23.65.34.43.23.9.45,1.34.68.46.22.92.44,1.36.64.45.21.89.42,1.29.61.83.38,1.54.72,2.09.97.54.25.88.4.93.42.08-.2.18-.39.26-.59,0,0-.09-.04-.23-.1-.15-.06-.36-.16-.62-.27-.51-.23-1.25-.56-2.05-.93-.41-.18-.85-.38-1.28-.58-.45-.2-.9-.42-1.35-.63-.46-.21-.9-.43-1.34-.65-.22-.11-.43-.22-.63-.33-.21-.11-.41-.23-.61-.34-.14.14-.29.27-.44.41Z"/>
                  <path class="cls-4" d="M111.69,225.13s-.17.09-.46.2c-.3.11-.72.23-1.22.31-.5.08-1.08.11-1.69.05-.31-.03-.62-.09-.93-.16-.31-.08-.64-.19-.96-.32-.97-.42-1.75-.91-2.38-1.42-.63-.51-1.12-1.02-1.51-1.5-.1-.12-.19-.23-.26-.35-.09-.11-.16-.22-.24-.32-.14-.21-.26-.39-.35-.55-.09-.16-.16-.29-.21-.38-.05-.09-.07-.14-.07-.14,0,0,.16-.06.48-.15.31-.09.75-.2,1.32-.29,1.13-.17,2.74-.25,4.61.32.32.1.63.24.91.42.29.18.57.39.82.63.13.12.25.24.37.37.11.13.22.26.32.39.11.13.2.27.3.41.09.14.18.27.26.41.16.27.29.54.41.79.06.12.11.24.16.35.05.11.08.22.12.31.07.19.12.35.16.46.04.11.05.17.05.17Z"/>
                </g>
                <g>
                  <path class="cls-4" d="M100.48,205.89c4.21,2.62,7.64,6.28,9.85,10.5l.72-.32c-2.27-4.34-5.8-8.1-10.12-10.79l-.45.61Z"/>
                  <path class="cls-4" d="M108.15,212.37c.2.1.4.21.6.31.03-.05.2-.37.43-.9.11-.27.23-.58.35-.95.06-.18.13-.38.18-.58.06-.2.11-.42.16-.64.1-.45.19-.95.23-1.47.02-.26.04-.53.05-.81,0-.27,0-.55-.01-.84-.02-.58-.1-1.16-.22-1.77-.07-.3-.15-.6-.24-.9-.05-.15-.1-.3-.15-.45-.05-.15-.11-.3-.17-.45l-.73.08c.12.29.22.57.32.86.09.29.16.58.23.86.06.29.11.58.15.86.04.28.06.57.08.84.02.56.01,1.09-.04,1.6-.05.51-.12.99-.22,1.43-.1.44-.21.84-.31,1.2-.11.35-.23.66-.33.92-.1.25-.19.45-.26.58-.06.14-.1.22-.1.22Z"/>
                  <path class="cls-4" d="M109.23,210.88s.19-.03.5-.13c.3-.1.71-.25,1.15-.49.44-.24.89-.57,1.27-1.04.37-.46.68-1.07.76-1.85.15-1.2-.13-2.46-.66-3.64-.52-1.19-1.31-2.27-2.12-3.17-.2-.22-.41-.44-.61-.64-.2-.2-.41-.39-.61-.56-.39-.36-.77-.64-1.08-.88-.32-.24-.59-.41-.77-.54-.19-.12-.3-.18-.3-.18,0,0-.08.15-.19.44-.1.29-.23.73-.32,1.29-.1.56-.18,1.26-.18,2.07,0,.4,0,.84.02,1.3.01.23.03.47.05.71.02.25.05.5.07.76.04.35.13.71.24,1.08.11.37.26.73.41,1.1.08.18.16.37.25.54.08.18.17.36.26.54.09.18.18.34.27.51.09.17.17.34.26.5.18.32.34.63.5.9.16.27.3.51.41.72.25.4.4.65.4.65Z"/>
                  <path class="cls-4" d="M99,213.31c.12,0,.24,0,.36,0h.37c.25.01.5,0,.75,0,.49,0,1.02-.02,1.53-.04.52-.03,1.03-.05,1.53-.07.5-.03.99-.05,1.45-.08.46-.03.9-.05,1.29-.07.4-.03.75-.05,1.05-.06.6-.03.98-.07,1.04-.07-.03-.21-.07-.42-.1-.63-.01,0-.1,0-.26.02-.16.01-.39.03-.68.05-.28.02-.63.04-1.01.07-.38.02-.8.05-1.26.08-.46.03-.94.07-1.43.1-.49.03-1,.06-1.5.09-.51.03-1.01.04-1.51.06-.25,0-.49,0-.73,0-.24,0-.48,0-.71-.02-.05.19-.11.37-.16.56Z"/>
                  <path class="cls-4" d="M106.42,212.82s-.1.16-.29.39c-.2.23-.49.53-.89.83-.39.3-.87.59-1.44.83-.56.23-1.19.4-1.89.46-1.07.09-2.02.03-2.84-.13-.82-.15-1.53-.37-2.13-.6-.14-.06-.29-.12-.42-.18-.13-.06-.26-.11-.38-.17-.23-.12-.44-.22-.61-.32-.16-.1-.3-.17-.39-.23-.09-.06-.14-.09-.14-.09,0,0,.11-.14.33-.35.22-.22.55-.52.99-.86.45-.34,1-.71,1.7-1.04.34-.17.72-.33,1.13-.47.2-.07.42-.14.64-.2.22-.06.45-.11.7-.16.32-.06.67-.09,1.02-.06.35.02.7.07,1.05.16.17.05.35.09.52.15.18.05.34.12.5.19.17.07.33.14.48.21.16.08.31.16.45.24.29.16.55.33.79.49.23.16.44.32.6.45.16.14.3.24.39.33.09.08.14.13.14.13Z"/>
                </g>
              </g>
              <path class="cls-4" d="M103.98,207.89s-.14-6.29-5.98-8.33c-5.83-2.04-8.7-.96-8.7-.96,0,0,3.55,5.72,7.01,7.95,3.47,2.23,7.67,1.34,7.67,1.34Z"/>
            </g>
            <path class="cls-57" d="M98.58,229.89c0,16.89-12.01,30.57-26.81,30.57s-26.82-13.69-26.82-30.57,12.01-30.57,26.82-30.57,26.81,13.69,26.81,30.57Z"/>
            <path class="cls-58" d="M97.2,229.89c0,16.02-11.38,29-25.43,29s-25.44-12.98-25.44-29,11.39-29,25.44-29,25.43,12.98,25.43,29Z"/>
            <path class="cls-57" d="M95.69,229.89c0,15.07-10.71,27.28-23.92,27.28s-23.93-12.21-23.93-27.28,10.71-27.28,23.93-27.28,23.92,12.21,23.92,27.28Z"/>
            <path class="cls-4" d="M52.71,223.55c.11,1.09.46,4.19,1.07,5.51h36.71c.61-1.32.97-4.42,1.08-5.51h-38.87Z"/>
            <path class="cls-4" d="M57.94,232.63c.08.8.34,3.06.79,4.03h26.83c.45-.96.7-3.23.79-4.03h-28.4Z"/>
            <g class="cls-3">
              <path class="cls-2" d="M69.64,209.49s-2.19,4.67-7.07,3.74c-4.89-.94-2.53-5.76,1.18-3.43,3.7,2.33,3.37,4.67-2.36,4.98-5.73.31-7.58,3.27-5.89,5.6,1.68,2.34,5.56,1.71,5.56-.47s-3.54.47-4.04-1.56c-.51-2.02,5.22-4.51,7.92-2.8,2.69,1.71,4.54-7.16-1.35-7.16s-5.56,2.33-5.22,4.05c.34,1.71,5.89,2.64,9.09.31,3.2-2.34,2.19-3.27,2.19-3.27Z"/>
              <path class="cls-2" d="M74.65,209.49s2.19,4.67,7.07,3.74c4.88-.94,2.53-5.76-1.18-3.43-3.7,2.33-3.37,4.67,2.36,4.98,5.72.31,7.58,3.27,5.89,5.6-1.68,2.34-5.56,1.71-5.56-.47s3.54.47,4.04-1.56c.5-2.02-5.22-4.51-7.91-2.8-2.69,1.71-4.55-7.16,1.35-7.16s5.55,2.33,5.22,4.05c-.34,1.71-5.89,2.64-9.09.31-3.2-2.34-2.19-3.27-2.19-3.27Z"/>
            </g>
            <g class="cls-3">
              <path class="cls-2" d="M69.64,250.97s-2.19-4.67-7.07-3.74c-4.89.93-2.53,5.76,1.18,3.42,3.7-2.33,3.37-4.67-2.36-4.98-5.73-.31-7.58-3.27-5.89-5.61,1.68-2.33,5.56-1.71,5.56.47s-3.54-.47-4.04,1.56c-.51,2.03,5.22,4.51,7.92,2.8,2.69-1.71,4.54,7.16-1.35,7.16s-5.56-2.33-5.22-4.04c.34-1.72,5.89-2.65,9.09-.32,3.2,2.34,2.19,3.27,2.19,3.27Z"/>
              <path class="cls-2" d="M74.65,250.97s2.19-4.67,7.07-3.74c4.88.93,2.53,5.76-1.18,3.42-3.7-2.33-3.37-4.67,2.36-4.98,5.72-.31,7.58-3.27,5.89-5.61-1.68-2.33-5.56-1.71-5.56.47s3.54-.47,4.04,1.56c.5,2.03-5.22,4.51-7.91,2.8-2.69-1.71-4.55,7.16,1.35,7.16s5.55-2.33,5.22-4.04c-.34-1.72-5.89-2.65-9.09-.32-3.2,2.34-2.19,3.27-2.19,3.27Z"/>
            </g>
            <path class="cls-1" d="M76,241.96c0,.87-1.73,1.58-3.86,1.58s-3.86-.71-3.86-1.58,1.73-1.58,3.86-1.58,3.86.71,3.86,1.58Z"/>
            <path class="cls-1" d="M76,218.45c0,.87-1.73,1.57-3.86,1.57s-3.86-.7-3.86-1.57,1.73-1.58,3.86-1.58,3.86.7,3.86,1.58Z"/>
          </g>
          <path class="cls-38" d="M99,92.67c-16.8,3.13-19.83,1.14-18.61,2.96,1.22,1.83,11.57,31.14,14,50.04,2.44,18.9,2.06,140.09,3.66,143.85,1.61,3.76-15.84,24.99,3.66,23.77,19.5-1.22,42.86-9.55,34.23-18.49-2.38-2.47-1.35-10.63-1.93-23.57-1.51-33.98,2.37-96.49,2.37-120.76,0-33.53-8.12-37.27-37.38-57.81Z"/>
          <path class="cls-61" d="M112.68,100.4c0,2.22-17.3,4.62-39.61,4.62s-37.74-3.07-37.74-5.29,15.43-2.74,37.74-2.74,39.61,1.2,39.61,3.42Z"/>
          <g class="cls-70">
            <path class="cls-57" d="M20.66,302.06s20.73-13.85,56.88-13.26c36.16.6,60.48,13.55,57.51,16.52-2.96,2.96-26.67,6.22-41.19,5.93-14.52-.3,17.79-2.67,25.19-6.23,7.41-3.55-7.71-8.3-9.19-8.3s-7.11,5.93-29.64,5.93-10.37-1.78-2.07-2.67c8.3-.89,22.82-3.26,23.42-5.63.59-2.37-21.34-.3-27.56,0-6.22.3-17.19-4.25-29.34.49-12.15,4.74-12.88,2.41-24.01,7.21Z"/>
          </g>
          <path class="cls-42" d="M135.94,289.32s-21.04,6.52-48.61,7.41c-27.56.89-21.33,17.79,8.89,15.12,30.23-2.67,42.08-5.92,44.15-12.15,2.07-6.22.6-10.67-4.44-10.37Z"/>
          <path class="cls-58" d="M89.51,27.38c0-1.03,3.15-4.8,3.15-5.65v-.19c0-1.83,0-17.3-.18-17.8l-19.25.33-19.25-.33c-.1.28-.14,5.49-.16,10.24v.2c0,.23,0,.46,0,.69,0,2.95-.01,5.58-.01,6.52v.34c0,.86,3.15,4.62,3.15,5.65,0,.69-4.29,15.14-7.52,27.8-1.67,5.15,48.72,5.92,47.5-.31-3.22-12.58-7.44-26.81-7.44-27.49Z"/>
          <path class="cls-35" d="M54.83,21.73l-1.02-.3v.3c0,.86,3.15,4.63,3.15,5.65,0,0,0,.04,0,.05,8.07,1.66,25.35,2.85,32.56-.05,0-.9,2.42-3.91,3.02-5.21-6.99,1.29-21.64,3.09-37.69-.44Z"/>
          <g>
            <path class="cls-66" d="M56.56,3.87c-.47.46-1.4,18.11,0,18.88,1.4.76,5.13,1.67,6.07,1.37.93-.3-.16-19.79-.16-19.79l-5.91-.46Z"/>
            <path class="cls-73" d="M64.81,5.85s10.42-.76,11.2,5.79c.78,6.55-.16,11.57,1.71,11.72,1.87.15,12.24-.15,13.8-2.39.67-4.95-.27-18.62-.27-18.62,0,0-26.29.46-26.44,3.5Z"/>
            <path class="cls-7" d="M90.88,11.09c.44-2.62.58-5.13.57-7.33l-18.2.31-12.04-.2c.61,4.05,3.21,16.59,12.48,18.05,11.06,1.74,15.81-2.51,17.19-10.83Z"/>
          </g>
          <path class="cls-9" d="M133.91,301.18c2.28,2.28-4.24,4.75-10.79,5.52-6.55.77-10.41,2.05-12.46-.13-2.06-2.18,3.85-1.93,12.33-3.47,8.48-1.54,9.89-2.96,10.92-1.93Z"/>
          <path class="cls-48" d="M92.49,3.42c0,1.89-8.62,3.43-19.25,3.43s-19.25-1.54-19.25-3.43,8.62-3.42,19.25-3.42,19.25,1.53,19.25,3.42Z"/>
          <path d="M69.16,24.42c-7.93-.31-12.44-1.83-12.44-1.83l2.95,5.03s.32.17.89.46c6.58,1.36,11.71,1.67,17.93,1l5.13-5.88s-6.53,1.52-14.47,1.22Z"/>
          <path class="cls-73" d="M92.49,3.42c0-.95-2.15-1.8-5.63-2.42.98.53,1.43,1.05.82,1.5-2.33,1.68-6.53,1.52-11.51,2.44-4.98.91-12.29.3-16.64-.76-3.97-.97-2.24-2.2,3.76-3.68-5.56.6-9.29,1.68-9.29,2.93,0,1.89,8.62,3.43,19.25,3.43s19.25-1.54,19.25-3.43Z"/>
          <path class="cls-13" d="M87.67,5.7c-.61.12-14.93.15-10.58,1.52,4.36,1.37,18.05-3.04,10.58-1.52Z"/>
          <path class="cls-9" d="M75.35,7.09c0,.23-.63.41-1.41.41s-1.41-.18-1.41-.41.63-.41,1.41-.41,1.41.18,1.41.41Z"/>
          <path class="cls-73" d="M74.61,59.29c8.94-.05,17.58-.87,20.91-2.58-1.23-5.89-7.26-28.49-7.26-28.49,0,0-9.71,2.05-15.35,1.67,0,0,1.12,25.45,1.71,29.4Z"/>
          <path class="cls-10" d="M78.59,29.71l4.21,29.31c4.68-.31,8.76-.88,11.32-1.73l-8.58-28.55c-1.84.32-4.39.73-6.95.97Z"/>
          <path class="cls-66" d="M50.88,56.81c1.48.66,3.97,1.19,7.08,1.6,2.01-9.68,6.15-30.07,6.15-30.07l-5.12-.77-8.11,29.24Z"/>
          <g class="cls-28">
            <path class="cls-24" d="M43.4,322.02c-1.59-1.51-3.29-3.25-5.05-5.25-9.58-10.83-4.58-27.5-3.07-28.07,1.52-.57.15-136.5,2.23-159.41,2.08-22.92,24.58-31.25,26.66-35,2.09-3.75,1.25-8.75,1.25-8.75l-2.5-8.75c-1.73-6.05.13-17.3,1.44-23.65-2.64.09-4.99.23-6.98.41-1.74.16-3.4.31-4.87.69l-1.85-.86-.77.93c-.33.38-2.58,5.73-2.58,5.73-1.98,7.08-2.69,14.34-.12,25.82-.34,1.77-2.92,3.93-7.02,5.84-1.37.65-2.69,1.31-3.98,1.98-17.19,8.92-28.95,19.95-31.46,29.5-2.04,7.77-2.76,47.41-2.14,117.84h-.1s.06,4.66.06,4.66c.23,15.59-.16,34.24-1.17,37.19-2.3,6.69-2.54,23.38,5.22,30.13,4.59,4,20.97,7.27,36.78,9.02Z"/>
          </g>
          <path class="cls-31" d="M13.7,313.22c-13.15-6.96-8.51-19.72-7.35-25.91,1.16-6.19,2.83-14.75,2.32-20.5-.51-5.74,0-112.54.77-132.27.77-19.72,12.76-23.98,15.86-30.55,1.35-2.87-1.86-1.76-5.91.39-7.88,6.26-13.08,12.81-14.64,18.79-2.04,7.77-2.76,47.41-2.14,117.84h-.1s.06,4.66.06,4.66c.23,15.59-.16,34.24-1.17,37.19-2.3,6.69-2.54,23.38,5.22,30.13,2.71,2.36,9.55,4.47,17.94,6.16-2.69-1.53-6.24-3.48-10.86-5.93Z"/>
          <path class="cls-36" d="M98.7,96.09s-8.92,2.66-14.56,2.82c-5.63.16,8.14,16.75,15.18,18.94,7.05,2.19,23.79-2.35,25.04-4.54,1.25-2.19-21.6-17.22-25.67-17.22Z"/>
          <path class="cls-36" d="M127.34,117.07c-.48.12-19.57,4.54-22.39,4.54s.16,3.91,7.05,3.91,16.75-3.44,18.62-4.85c1.88-1.41-2.66-3.76-3.28-3.6Z"/>
          <path class="cls-49" d="M105.41,102.25c-3.65-1.82-7.38,2.22-5.33,5.75,3.19,5.47,8.54,10.78,16.94,8.92,10.54-2.34-1.89-9.83-11.61-14.66Z"/>
          <path class="cls-9" d="M120.9,118.8c-.76.15-7.1.77-5.24,3.06,1.86,2.3,8.85.98,10.05-.11,1.2-1.09,1.42-4.15-4.81-2.95Z"/>
          <path class="cls-37" d="M15.65,119.28s18.53,4.28,35.15,4.75c16.62.47,3.83,3.32-9,2.84-12.83-.47-34.81-1.72-26.15-7.59Z"/>
          <path class="cls-42" d="M84.04,104c.43,2.18,1.3,14.79-13.49,17.84-14.79,3.05-63.52-5.66-55.69,0,7.83,5.66,55.25,4.78,68.74,16.1,13.49,11.31,18.71,26.1,22.63,72.22,3.91,46.12,26.1,31.32,26.97-3.48.87-34.81,0-77.44-2.18-84.41-2.18-6.96-15.12-19.59-24.74-20.89-9.63-1.3-22.24,2.62-22.24,2.62Z"/>
          <path class="cls-40" d="M49.6,59.43c-.54.5-4.69,9.85-2.58,17.58,2.11,7.74,4.45,9.38,3.52,3.75-.94-5.63-.94-7.03-.71-12.42.23-5.39,3.05-11.95-.23-8.91Z"/>
        </g>
      </g>
    </g>
  </g>
</svg>