<?xml version="1.0" encoding="UTF-8"?>
<svg id="Layer_1" data-name="Layer 1" xmlns="http://www.w3.org/2000/svg" xmlns:xlink="http://www.w3.org/1999/xlink" viewBox="0 0 4000 4000">
  <defs>
    <style>
      .cls-1 {
        fill: #af5317;
      }

      .cls-2 {
        fill: #db8022;
      }

      .cls-3 {
        fill: #bd611a;
      }

      .cls-4 {
        fill: #c96d1d;
      }

      .cls-5 {
        fill: #f0a038;
      }

      .cls-6 {
        fill: #e08626;
      }

      .cls-7 {
        fill: #cf721f;
      }

      .cls-8 {
        fill: #d1751f;
      }

      .cls-9 {
        fill: #c3671c;
      }

      .cls-10 {
        fill: #bf631a;
      }

      .cls-11 {
        fill: #ca6e1d;
      }

      .cls-12 {
        fill: #b35617;
      }

      .cls-13 {
        fill: #e99430;
      }

      .cls-14 {
        fill: #bb5e19;
      }

      .cls-15 {
        fill: #f4a63d;
      }

      .cls-16 {
        fill: #e7912e;
      }

      .cls-17 {
        fill: #227086;
      }

      .cls-18 {
        fill: #e48e2b;
      }

      .cls-19 {
        fill: #ae5117;
      }

      .cls-20, .cls-21 {
        fill: none;
      }

      .cls-22 {
        fill: #e99531;
      }

      .cls-23 {
        fill: #ba5d19;
      }

      .cls-24 {
        fill: #c2661b;
      }

      .cls-25 {
        fill: #ec9a34;
      }

      .cls-26 {
        fill: #de8325;
      }

      .cls-27 {
        fill: url(#radial-gradient);
      }

      .cls-28 {
        fill: #eb9833;
      }

      .cls-29 {
        fill: #c76b1d;
      }

      .cls-30 {
        fill: #e38c2a;
      }

      .cls-31 {
        fill: #f2a43b;
      }

      .cls-32 {
        fill: #f4a63e;
      }

      .cls-33 {
        fill: #c5691c;
      }

      .cls-34 {
        fill: #e08727;
      }

      .cls-35 {
        fill: #b65918;
      }

      .cls-36 {
        fill: #f7f4e4;
      }

      .cls-37 {
        fill: #e8932f;
      }

      .cls-21 {
        opacity: 0;
      }

      .cls-38 {
        fill: #c66a1c;
      }

      .cls-39 {
        fill: #d37720;
      }

      .cls-40 {
        fill: #ad5017;
      }

      .cls-41 {
        fill: #c1651b;
      }

      .cls-42 {
        fill: #ea9732;
      }

      .cls-43 {
        fill: #df8425;
      }

      .cls-44 {
        fill: #b85b19;
      }

      .cls-45 {
        fill: #e58f2c;
      }

      .cls-46 {
        fill: #e38b29;
      }

      .cls-47 {
        fill: #d0741f;
      }

      .cls-48 {
        fill: #e28928;
      }

      .cls-49 {
        fill: #e6902d;
      }

      .cls-50 {
        fill: #f5a83f;
      }

      .cls-51 {
        fill: #ee9d36;
      }

      .cls-52 {
        fill: #d47820;
      }

      .cls-53 {
        fill: #7d4e24;
      }

      .cls-54 {
        fill: #ed9c35;
      }

      .cls-55 {
        fill: #ed9b35;
      }

      .cls-56 {
        fill: #f0a139;
      }

      .cls-57 {
        fill: #f5a73e;
      }

      .cls-58 {
        fill: #f3a53c;
      }

      .cls-59 {
        fill: #b45717;
      }

      .cls-60 {
        fill: #dd8223;
      }

      .cls-61 {
        fill: #b55817;
      }

      .cls-62 {
        fill: #de8224;
      }

      .cls-63 {
        fill: #dc8123;
      }

      .cls-64 {
        fill: #f2a33b;
      }

      .cls-65 {
        fill: #e18828;
      }

      .cls-66 {
        fill: #e7922f;
      }

      .cls-67 {
        fill: #e6912d;
      }

      .cls-68 {
        fill: #d2761f;
      }

      .cls-69 {
        fill: #b75918;
      }

      .cls-70 {
        fill: #ea9631;
      }

      .cls-71 {
        fill: #d97d22;
      }

      .cls-72 {
        fill: #b15417;
      }

      .cls-73 {
        fill: #b05317;
      }

      .cls-74 {
        fill: #c4681c;
      }

      .cls-75 {
        fill: #b95c19;
      }

      .cls-76 {
        fill: #da7f22;
      }

      .cls-77 {
        fill: #ae5217;
      }

      .cls-78 {
        fill: #d67a21;
      }

      .cls-79 {
        fill: #d57920;
      }

      .cls-80 {
        fill: #bc5f1a;
      }

      .cls-81 {
        fill: #ef9f38;
      }

      .cls-82 {
        fill: #b85a18;
      }

      .cls-83 {
        fill: #c86c1d;
      }

      .cls-84 {
        fill: #cb6f1e;
      }

      .cls-85 {
        fill: #df8526;
      }

      .cls-86 {
        fill: #b25517;
      }

      .cls-87 {
        fill: #d87c21;
      }

      .cls-88 {
        fill: #c0641b;
      }

      .cls-89 {
        fill: #e28a29;
      }

      .cls-90 {
        fill: #ac4f17;
      }

      .cls-91 {
        fill: #be621a;
      }

      .cls-92 {
        fill: #ce711e;
      }

      .cls-93 {
        fill: #ef9e37;
      }

      .cls-94 {
        fill: #ec9933;
      }

      .cls-95 {
        fill: #d77b21;
      }

      .cls-96 {
        fill: #cc701e;
      }

      .cls-97 {
        fill: #e48d2b;
      }

      .cls-98 {
        fill: #f1a23a;
      }
    </style>
    <radialGradient id="radial-gradient" cx="1822.1" cy="15076.68" fx="1822.1" fy="15076.68" r="917" gradientTransform="translate(0 -3928.19) scale(1 .37)" gradientUnits="userSpaceOnUse">
      <stop offset=".94" stop-color="#72a6a9"/>
      <stop offset=".97" stop-color="#c0d0d7"/>
      <stop offset="1" stop-color="#4b8d90"/>
    </radialGradient>
  </defs>
  <rect class="cls-21" width="4000" height="4000"/>
  <g>
    <path class="cls-17" d="M2739.47,1582.34c0,470.85-140.85,802.81-416.06,1029.34-54.38,42.56-161.94,145.39-501.31,145.39s-446.94-102.83-501.31-145.39c-275.22-226.53-416.06-558.48-416.06-1029.34,0,187.45,410.72,339.4,917.37,339.4s917.37-151.95,917.37-339.4Z"/>
    <ellipse class="cls-27" cx="1822.1" cy="1582.34" rx="917.37" ry="339.41"/>
    <path class="cls-53" d="M1822.1,1883c-121.84,0-239.97-8.82-351.09-26.21-106.7-16.7-202.3-40.52-284.14-70.8-78.68-29.11-142.5-63.94-184.54-100.71-39.05-34.16-58.86-68.8-58.86-102.95s19.8-68.79,58.86-102.95c42.04-36.77,105.85-71.6,184.54-100.71,81.84-30.28,177.44-54.1,284.14-70.8,111.12-17.39,229.25-26.21,351.09-26.21s239.97,8.82,351.09,26.21c106.7,16.7,202.3,40.52,284.14,70.8,78.68,29.11,142.5,63.94,184.54,100.71,39.05,34.16,58.86,68.8,58.86,102.95s-19.8,68.79-58.86,102.95c-42.04,36.77-105.85,71.6-184.54,100.71-81.84,30.28-177.44,54.1-284.14,70.8-111.12,17.39-229.25,26.21-351.09,26.21Z"/>
    <path class="cls-17" d="M3042.44,2192.02c-44.43,72.58-105.46,137.91-181.39,194.18-102.94,76.28-230.81,133.47-380.05,169.96-22.7,5.55-44.8,12.92-65.68,21.91l-96.62,41.58-1.79-2.82c2.26-1.8,4.42-3.52,6.5-5.15,81.65-67.21,151.48-143.7,209.3-230.34,198.67-52.82,331.64-154.04,404.9-307.59,26.35-55.22,7.52-99.55-6.05-121.06-23.93-37.95-65.31-61.51-107.97-61.51-24.19,0-47.55,7.44-69.43,22.11-18.84,12.63-35.73,28.21-50.51,46.56,13.22-63.54,22.79-130.46,28.69-200.9.68-.15,1.39-.3,2.12-.48,38.64-9.4,75.78-14.16,110.41-14.16,132.74,0,219.4,69.54,244,195.83,16.78,86.13.29,175.58-46.43,251.9Z"/>
    <g>
      <path class="cls-90" d="M1822.1,1883c-121.84,0-239.97-8.82-351.09-26.21-106.7-16.7-202.3-40.52-284.14-70.8-78.68-29.11-142.5-63.94-184.54-100.71-39.05-34.16-58.86-68.8-58.86-102.95s19.8-68.79,58.86-102.95c42.04-36.77,105.85-71.6,184.54-100.71,81.84-30.28,177.44-54.1,284.14-70.8,111.12-17.39,229.25-26.21,351.09-26.21s239.97,8.82,351.09,26.21c106.7,16.7,202.3,40.52,284.14,70.8,78.68,29.11,142.5,63.94,184.54,100.71,39.05,34.16,58.86,68.8,58.86,102.95s-19.8,68.79-58.86,102.95c-42.04,36.77-105.85,71.6-184.54,100.71-81.84,30.28-177.44,54.1-284.14,70.8-111.12,17.39-229.25,26.21-351.09,26.21Z"/>
      <path class="cls-40" d="M1822.1,1879.27c-120.34,0-237-8.71-346.74-25.88-105.38-16.49-199.8-40.01-280.62-69.92-77.71-28.75-140.73-63.14-182.25-99.46-38.57-33.74-58.13-67.95-58.13-101.68s19.56-67.94,58.13-101.68c41.52-36.32,104.54-70.71,182.25-99.46,80.83-29.9,175.24-53.43,280.62-69.92,109.75-17.17,226.41-25.88,346.74-25.88s237,8.71,346.74,25.88c105.38,16.49,199.79,40.01,280.62,69.92,77.71,28.75,140.73,63.14,182.25,99.46,38.57,33.74,58.13,67.95,58.13,101.68s-19.56,67.94-58.13,101.68c-41.52,36.32-104.54,70.71-182.25,99.46-80.83,29.9-175.24,53.43-280.62,69.92-109.75,17.17-226.41,25.88-346.74,25.88Z"/>
      <path class="cls-19" d="M1822.1,1875.55c-118.83,0-234.02-8.6-342.39-25.56-104.06-16.28-197.29-39.51-277.1-69.04-76.73-28.39-138.96-62.35-179.96-98.21-38.09-33.32-57.4-67.09-57.4-100.4s19.31-67.08,57.4-100.4c41-35.86,103.23-69.82,179.96-98.21,79.81-29.53,173.04-52.76,277.1-69.04,108.37-16.96,223.57-25.56,342.39-25.56s234.02,8.6,342.39,25.56c104.06,16.28,197.29,39.51,277.1,69.04,76.73,28.39,138.97,62.35,179.96,98.21,38.09,33.32,57.4,67.09,57.4,100.4s-19.31,67.08-57.4,100.4c-41,35.86-103.23,69.82-179.96,98.21-79.81,29.53-173.04,52.76-277.1,69.04-108.37,16.96-223.57,25.56-342.39,25.56Z"/>
      <path class="cls-77" d="M1822.1,1871.82c-117.32,0-231.05-8.49-338.04-25.23-102.74-16.08-194.78-39.01-273.58-68.16-75.76-28.03-137.2-61.56-177.68-96.97-37.6-32.89-56.67-66.24-56.67-99.12s19.07-66.23,56.67-99.12c40.48-35.41,101.92-68.94,177.68-96.97,78.8-29.15,170.84-52.09,273.58-68.16,106.99-16.74,220.72-25.23,338.04-25.23s231.05,8.49,338.04,25.23c102.74,16.08,194.78,39.01,273.58,68.16,75.76,28.03,137.2,61.56,177.68,96.97,37.6,32.89,56.67,66.24,56.67,99.12s-19.07,66.23-56.67,99.12c-40.48,35.41-101.92,68.94-177.68,96.97-78.8,29.15-170.84,52.09-273.58,68.16-106.99,16.74-220.73,25.23-338.04,25.23Z"/>
      <path class="cls-1" d="M1822.1,1868.1c-115.81,0-228.08-8.38-333.69-24.91-101.41-15.87-192.28-38.51-270.06-67.29-74.78-27.67-135.43-60.77-175.39-95.72-37.12-32.47-55.94-65.39-55.94-97.85s18.82-65.38,55.94-97.85c39.96-34.95,100.6-68.05,175.39-95.72,77.78-28.78,168.65-51.42,270.06-67.29,105.61-16.53,217.88-24.91,333.69-24.91s228.08,8.38,333.69,24.91c101.41,15.87,192.28,38.51,270.06,67.29,74.78,27.67,135.43,60.77,175.39,95.72,37.12,32.47,55.94,65.39,55.94,97.85s-18.82,65.38-55.94,97.85c-39.96,34.95-100.61,68.05-175.39,95.72-77.79,28.78-168.65,51.42-270.06,67.29-105.62,16.53-217.89,24.91-333.69,24.91Z"/>
      <path class="cls-73" d="M1822.1,1864.37c-114.3,0-225.1-8.27-329.34-24.58-100.09-15.66-189.77-38.01-266.54-66.41-73.81-27.31-133.67-59.98-173.1-94.47-36.63-32.05-55.21-64.54-55.21-96.57s18.58-64.53,55.21-96.57c39.44-34.49,99.29-67.16,173.1-94.47,76.77-28.4,166.45-50.75,266.54-66.41,104.24-16.31,215.04-24.58,329.34-24.58s225.1,8.27,329.34,24.58c100.09,15.66,189.77,38.01,266.54,66.41,73.81,27.31,133.67,59.98,173.1,94.47,36.63,32.05,55.21,64.54,55.21,96.57s-18.58,64.53-55.21,96.57c-39.44,34.49-99.29,67.16-173.1,94.47-76.77,28.4-166.45,50.75-266.54,66.41-104.24,16.31-215.04,24.58-329.34,24.58Z"/>
      <path class="cls-72" d="M1822.1,1860.65c-112.79,0-222.13-8.16-324.99-24.26-98.77-15.46-187.26-37.5-263.02-65.53-72.84-26.95-131.9-59.18-170.82-93.22-36.15-31.62-54.48-63.69-54.48-95.3s18.33-63.68,54.48-95.3c38.91-34.04,97.98-66.28,170.82-93.22,75.76-28.03,164.25-50.08,263.02-65.53,102.86-16.1,212.2-24.26,324.99-24.26s222.13,8.16,324.99,24.26c98.77,15.46,187.26,37.5,263.02,65.53,72.84,26.95,131.9,59.18,170.82,93.22,36.15,31.62,54.48,63.69,54.48,95.3s-18.33,63.68-54.48,95.3c-38.91,34.04-97.98,66.28-170.82,93.22-75.76,28.03-164.25,50.08-263.02,65.53-102.86,16.1-212.2,24.26-324.99,24.26Z"/>
      <path class="cls-86" d="M1822.1,1856.92c-111.28,0-219.16-8.05-320.64-23.93-97.45-15.25-184.76-37-259.5-64.66-71.86-26.59-130.14-58.39-168.53-91.97-35.67-31.2-53.75-62.83-53.75-94.02s18.08-62.82,53.75-94.02c38.39-33.58,96.67-65.39,168.53-91.97,74.74-27.65,162.05-49.41,259.5-64.66,101.48-15.88,209.36-23.93,320.64-23.93s219.16,8.05,320.64,23.93c97.45,15.25,184.76,37,259.5,64.66,71.86,26.59,130.14,58.39,168.53,91.97,35.67,31.2,53.75,62.83,53.75,94.02s-18.08,62.82-53.75,94.02c-38.39,33.58-96.67,65.39-168.53,91.97-74.74,27.65-162.05,49.41-259.5,64.66-101.48,15.88-209.36,23.93-320.64,23.93Z"/>
      <path class="cls-12" d="M1822.1,1853.2c-109.77,0-216.18-7.94-316.29-23.61-96.13-15.04-182.25-36.5-255.98-63.78-70.89-26.23-128.37-57.6-166.24-90.73-35.18-30.78-53.02-61.98-53.02-92.75s17.84-61.97,53.02-92.75c37.87-33.13,95.36-64.5,166.24-90.73,73.73-27.28,159.85-48.74,255.98-63.78,100.11-15.67,206.52-23.61,316.29-23.61s216.18,7.94,316.29,23.61c96.13,15.04,182.25,36.5,255.98,63.78,70.89,26.23,128.37,57.6,166.24,90.73,35.18,30.78,53.02,61.98,53.02,92.75s-17.84,61.97-53.02,92.75c-37.87,33.13-95.36,64.5-166.24,90.73-73.73,27.28-159.85,48.74-255.98,63.78-100.11,15.67-206.52,23.61-316.29,23.61Z"/>
      <path class="cls-59" d="M1822.1,1849.47c-108.26,0-213.21-7.83-311.94-23.28-94.8-14.84-179.74-36-252.46-62.9-69.91-25.86-126.61-56.81-163.96-89.48-34.7-30.35-52.29-61.13-52.29-91.47s17.59-61.12,52.29-91.47c37.35-32.67,94.05-63.61,163.96-89.48,72.71-26.9,157.65-48.07,252.46-62.9,98.73-15.45,203.68-23.28,311.94-23.28s213.21,7.83,311.94,23.28c94.8,14.84,179.74,36,252.46,62.9,69.91,25.87,126.61,56.81,163.96,89.48,34.7,30.35,52.29,61.13,52.29,91.47s-17.59,61.12-52.29,91.47c-37.35,32.67-94.05,63.61-163.96,89.48-72.72,26.9-157.65,48.07-252.46,62.9-98.73,15.45-203.68,23.28-311.94,23.28Z"/>
      <path class="cls-61" d="M1822.1,1845.75c-106.75,0-210.24-7.72-307.59-22.96-93.48-14.63-177.24-35.5-248.94-62.02-68.94-25.5-124.84-56.01-161.67-88.23-34.22-29.93-51.56-60.28-51.56-90.2s17.35-60.27,51.56-90.2c36.83-32.22,92.74-62.73,161.67-88.23,71.7-26.53,155.46-47.4,248.94-62.02,97.35-15.23,200.84-22.96,307.59-22.96s210.24,7.72,307.59,22.96c93.48,14.63,177.24,35.5,248.94,62.02,68.94,25.5,124.84,56.01,161.67,88.23,34.22,29.93,51.56,60.28,51.56,90.2s-17.35,60.27-51.56,90.2c-36.83,32.22-92.74,62.73-161.67,88.23-71.7,26.53-155.46,47.4-248.94,62.02-97.35,15.23-200.84,22.96-307.59,22.96Z"/>
      <path class="cls-35" d="M1822.1,1844.22c-106.13,0-209.01-7.68-305.8-22.83-92.94-14.54-176.21-35.29-247.49-61.66-68.53-25.36-124.11-55.69-160.73-87.72-34.02-29.76-51.26-59.92-51.26-89.67s17.25-59.92,51.26-89.67c36.62-32.03,92.2-62.36,160.73-87.72,71.28-26.37,154.55-47.12,247.49-61.66,96.79-15.15,199.67-22.83,305.8-22.83s209.01,7.68,305.8,22.83c92.94,14.54,176.21,35.29,247.49,61.66,68.53,25.36,124.11,55.69,160.73,87.72,34.02,29.75,51.26,59.92,51.26,89.67s-17.25,59.92-51.26,89.67c-36.62,32.03-92.2,62.36-160.73,87.72-71.28,26.37-154.55,47.12-247.49,61.66-96.79,15.15-199.67,22.83-305.8,22.83Z"/>
      <path class="cls-69" d="M1822.1,1842.68c-105.51,0-207.79-7.63-304.01-22.69-92.4-14.46-175.18-35.08-246.04-61.3-68.13-25.21-123.39-55.36-159.79-87.2-33.82-29.58-50.96-59.57-50.96-89.15s17.15-59.57,50.96-89.15c36.4-31.84,91.66-62,159.79-87.2,70.87-26.22,153.65-46.84,246.04-61.3,96.22-15.06,198.51-22.69,304.01-22.69s207.79,7.63,304.01,22.69c92.39,14.46,175.17,35.08,246.04,61.3,68.13,25.21,123.39,55.36,159.79,87.2,33.82,29.58,50.96,59.57,50.96,89.15s-17.15,59.57-50.96,89.15c-36.4,31.84-91.66,62-159.79,87.2-70.87,26.22-153.65,46.84-246.04,61.3-96.22,15.06-198.51,22.69-304.01,22.69Z"/>
      <path class="cls-82" d="M1822.1,1841.15c-104.89,0-206.57-7.59-302.22-22.56-91.85-14.37-174.14-34.88-244.59-60.94-67.73-25.06-122.66-55.04-158.85-86.69-33.62-29.41-50.66-59.22-50.66-88.62s17.05-59.21,50.66-88.62c36.19-31.65,91.12-61.63,158.85-86.69,70.45-26.06,152.74-46.57,244.59-60.94,95.66-14.97,197.34-22.56,302.22-22.56s206.57,7.59,302.22,22.56c91.85,14.37,174.14,34.88,244.59,60.94,67.73,25.06,122.66,55.04,158.85,86.69,33.62,29.41,50.66,59.22,50.66,88.62s-17.05,59.21-50.66,88.62c-36.19,31.65-91.12,61.63-158.85,86.69-70.45,26.06-152.74,46.57-244.59,60.94-95.66,14.97-197.34,22.56-302.22,22.56Z"/>
      <path class="cls-44" d="M1822.1,1839.62c-104.27,0-205.35-7.54-300.44-22.43-91.31-14.29-173.11-34.67-243.15-60.58-67.33-24.91-121.94-54.71-157.91-86.18-33.42-29.23-50.36-58.87-50.36-88.1s16.94-58.86,50.36-88.1c35.97-31.47,90.58-61.27,157.91-86.18,70.03-25.91,151.84-46.29,243.15-60.58,95.09-14.88,196.17-22.43,300.44-22.43s205.35,7.55,300.44,22.43c91.31,14.29,173.11,34.67,243.15,60.58,67.33,24.91,121.94,54.71,157.91,86.18,33.42,29.23,50.36,58.87,50.36,88.1s-16.94,58.86-50.36,88.1c-35.97,31.47-90.58,61.27-157.91,86.18-70.03,25.91-151.84,46.29-243.15,60.58-95.09,14.88-196.17,22.43-300.44,22.43Z"/>
      <path class="cls-75" d="M1822.1,1838.09c-103.64,0-204.12-7.5-298.65-22.29-90.76-14.2-172.08-34.46-241.7-60.22-66.93-24.76-121.21-54.39-156.97-85.67-33.22-29.06-50.06-58.52-50.06-87.57s16.84-58.51,50.06-87.57c35.76-31.28,90.04-60.9,156.97-85.67,69.62-25.76,150.93-46.02,241.7-60.22,94.52-14.79,195-22.29,298.65-22.29s204.12,7.5,298.65,22.29c90.76,14.2,172.08,34.46,241.7,60.22,66.93,24.76,121.21,54.39,156.97,85.67,33.22,29.06,50.06,58.52,50.06,87.57s-16.84,58.51-50.06,87.57c-35.76,31.28-90.04,60.9-156.97,85.67-69.62,25.76-150.93,46.02-241.7,60.22-94.52,14.79-195,22.29-298.65,22.29Z"/>
      <path class="cls-23" d="M1822.1,1836.56c-103.02,0-202.9-7.45-296.86-22.16-90.22-14.12-171.05-34.26-240.25-59.86-66.53-24.61-120.48-54.06-156.03-85.15-33.02-28.88-49.76-58.17-49.76-87.05s16.74-58.16,49.76-87.05c35.55-31.09,89.5-60.54,156.03-85.15,69.2-25.6,150.03-45.74,240.25-59.86,93.96-14.7,193.83-22.16,296.86-22.16s202.9,7.46,296.86,22.16c90.22,14.12,171.05,34.26,240.25,59.86,66.53,24.61,120.48,54.06,156.03,85.15,33.02,28.88,49.76,58.17,49.76,87.05s-16.74,58.16-49.76,87.05c-35.55,31.09-89.5,60.54-156.03,85.15-69.2,25.6-150.03,45.74-240.25,59.86-93.96,14.7-193.83,22.16-296.86,22.16Z"/>
      <path class="cls-14" d="M1822.1,1835.02c-102.4,0-201.68-7.41-295.07-22.02-89.68-14.03-170.02-34.05-238.8-59.5-66.13-24.47-119.76-53.73-155.09-84.64-32.82-28.71-49.46-57.82-49.46-86.52s16.64-57.81,49.46-86.52c35.33-30.91,88.96-60.17,155.09-84.64,68.78-25.45,149.13-45.47,238.8-59.5,93.39-14.61,192.67-22.02,295.07-22.02s201.68,7.41,295.07,22.02c89.68,14.03,170.02,34.05,238.8,59.5,66.13,24.47,119.76,53.73,155.09,84.64,32.82,28.71,49.46,57.82,49.46,86.52s-16.64,57.81-49.46,86.52c-35.33,30.91-88.96,60.17-155.09,84.64-68.78,25.45-149.13,45.47-238.8,59.5-93.39,14.61-192.67,22.02-295.07,22.02Z"/>
      <path class="cls-80" d="M1822.1,1833.49c-101.78,0-200.45-7.37-293.28-21.89-89.13-13.95-168.99-33.85-237.35-59.14-65.73-24.32-119.03-53.41-154.15-84.13-32.62-28.54-49.16-57.47-49.16-86s16.54-57.46,49.16-86c35.12-30.72,88.42-59.81,154.15-84.13,68.36-25.29,148.22-45.19,237.35-59.14,92.82-14.53,191.5-21.89,293.28-21.89s200.45,7.37,293.28,21.89c89.13,13.95,168.99,33.85,237.35,59.14,65.73,24.32,119.03,53.41,154.15,84.13,32.62,28.54,49.16,57.47,49.16,86s-16.54,57.46-49.16,86c-35.12,30.72-88.42,59.81-154.15,84.13-68.36,25.29-148.22,45.19-237.35,59.14-92.82,14.53-191.5,21.89-293.28,21.89Z"/>
      <path class="cls-3" d="M1822.1,1831.96c-101.16,0-199.23-7.32-291.49-21.76-88.59-13.86-167.96-33.64-235.91-58.78-65.33-24.17-118.31-53.08-153.21-83.61-32.42-28.36-48.86-57.12-48.86-85.47s16.44-57.11,48.86-85.47c34.9-30.53,87.88-59.44,153.21-83.61,67.95-25.14,147.32-44.91,235.91-58.78,92.26-14.44,190.33-21.76,291.49-21.76s199.23,7.32,291.49,21.76c88.59,13.86,167.96,33.64,235.91,58.78,65.33,24.17,118.31,53.08,153.21,83.61,32.42,28.36,48.86,57.12,48.86,85.47s-16.44,57.11-48.86,85.47c-34.9,30.53-87.88,59.44-153.21,83.61-67.95,25.14-147.32,44.91-235.91,58.78-92.26,14.44-190.33,21.76-291.49,21.76Z"/>
      <path class="cls-91" d="M1822.1,1830.43c-100.54,0-198.01-7.28-289.7-21.62-88.05-13.78-166.93-33.43-234.46-58.42-64.93-24.02-117.58-52.76-152.27-83.1-32.23-28.19-48.56-56.77-48.56-84.95s16.34-56.76,48.56-84.95c34.69-30.34,87.34-59.08,152.27-83.1,67.53-24.98,146.41-44.64,234.46-58.42,91.69-14.35,189.16-21.62,289.7-21.62s198.01,7.28,289.7,21.62c88.04,13.78,166.93,33.43,234.46,58.42,64.93,24.02,117.58,52.76,152.27,83.1,32.23,28.19,48.56,56.77,48.56,84.95s-16.34,56.76-48.56,84.95c-34.69,30.34-87.34,59.08-152.27,83.1-67.53,24.98-146.41,44.64-234.46,58.42-91.69,14.35-189.16,21.62-289.7,21.62Z"/>
      <path class="cls-10" d="M1822.1,1828.9c-99.92,0-196.79-7.23-287.91-21.49-87.5-13.69-165.9-33.23-233.01-58.06-64.53-23.87-116.85-52.43-151.33-82.59-32.03-28.01-48.27-56.42-48.27-84.42s16.24-56.41,48.27-84.42c34.47-30.16,86.8-58.71,151.33-82.59,67.11-24.83,145.51-44.36,233.01-58.06,91.13-14.26,187.99-21.49,287.91-21.49s196.79,7.23,287.91,21.49c87.5,13.69,165.9,33.23,233.01,58.06,64.53,23.87,116.85,52.43,151.33,82.59,32.03,28.01,48.27,56.42,48.27,84.42s-16.24,56.41-48.27,84.42c-34.47,30.16-86.8,58.71-151.33,82.59-67.11,24.83-145.51,44.36-233.01,58.06-91.13,14.26-187.99,21.49-287.91,21.49Z"/>
      <path class="cls-88" d="M1822.1,1827.36c-99.3,0-195.56-7.19-286.12-21.36-86.96-13.61-164.87-33.02-231.56-57.7-64.12-23.72-116.13-52.1-150.39-82.07-31.83-27.84-47.97-56.07-47.97-83.9s16.14-56.06,47.97-83.9c34.26-29.97,86.26-58.35,150.39-82.07,66.7-24.68,144.61-44.09,231.56-57.7,90.56-14.17,186.82-21.36,286.12-21.36s195.56,7.19,286.12,21.36c86.96,13.61,164.87,33.02,231.56,57.7,64.12,23.72,116.13,52.1,150.39,82.07,31.83,27.84,47.97,56.07,47.97,83.9s-16.14,56.06-47.97,83.9c-34.26,29.97-86.26,58.35-150.39,82.07-66.7,24.68-144.61,44.09-231.56,57.7-90.56,14.17-186.83,21.36-286.12,21.36Z"/>
      <path class="cls-41" d="M1822.1,1825.83c-98.68,0-194.34-7.14-284.33-21.22-86.41-13.52-163.84-32.81-230.12-57.33-63.72-23.58-115.4-51.78-149.45-81.56-31.63-27.67-47.67-55.72-47.67-83.38s16.04-55.71,47.67-83.38c34.05-29.78,85.72-57.98,149.45-81.56,66.28-24.52,143.7-43.81,230.12-57.33,89.99-14.08,185.66-21.22,284.33-21.22s194.34,7.14,284.33,21.22c86.41,13.52,163.84,32.81,230.11,57.33,63.72,23.58,115.4,51.78,149.45,81.56,31.63,27.67,47.67,55.72,47.67,83.38s-16.04,55.71-47.67,83.38c-34.05,29.78-85.72,57.98-149.45,81.56-66.28,24.52-143.7,43.81-230.11,57.33-89.99,14.08-185.66,21.22-284.33,21.22Z"/>
      <path class="cls-24" d="M1822.1,1824.3c-98.06,0-193.12-7.1-282.54-21.09-85.87-13.44-162.8-32.61-228.67-56.97-63.32-23.43-114.68-51.45-148.51-81.05-31.43-27.49-47.37-55.37-47.37-82.85s15.94-55.36,47.37-82.85c33.83-29.59,85.18-57.62,148.51-81.05,65.86-24.37,142.8-43.54,228.67-56.97,89.43-13.99,184.49-21.09,282.54-21.09s193.12,7.1,282.54,21.09c85.87,13.44,162.8,32.61,228.67,56.97,63.32,23.43,114.68,51.45,148.51,81.05,31.43,27.49,47.37,55.37,47.37,82.85s-15.94,55.36-47.37,82.85c-33.83,29.59-85.18,57.62-148.51,81.05-65.86,24.37-142.8,43.54-228.67,56.97-89.43,13.99-184.49,21.09-282.54,21.09Z"/>
      <path class="cls-9" d="M1822.1,1822.77c-97.44,0-191.9-7.05-280.76-20.96-85.33-13.35-161.77-32.4-227.22-56.61-62.92-23.28-113.95-51.13-147.57-80.53-31.23-27.32-47.07-55.02-47.07-82.33s15.83-55.01,47.07-82.33c33.62-29.41,84.65-57.25,147.57-80.53,65.45-24.21,141.89-43.26,227.22-56.61,88.86-13.91,183.32-20.96,280.76-20.96s191.9,7.05,280.76,20.96c85.33,13.35,161.77,32.4,227.22,56.61,62.92,23.28,113.95,51.13,147.57,80.53,31.23,27.32,47.07,55.02,47.07,82.33s-15.84,55.01-47.07,82.33c-33.62,29.41-84.65,57.25-147.57,80.53-65.45,24.21-141.89,43.26-227.22,56.61-88.86,13.91-183.32,20.96-280.76,20.96Z"/>
      <path class="cls-74" d="M1822.1,1821.23c-96.81,0-190.67-7.01-278.97-20.82-84.78-13.27-160.74-32.19-225.77-56.25-62.52-23.13-113.22-50.8-146.63-80.02-31.03-27.14-46.77-54.67-46.77-81.8s15.73-54.66,46.77-81.8c33.4-29.22,84.11-56.89,146.63-80.02,65.03-24.06,140.99-42.99,225.77-56.25,88.29-13.82,182.15-20.82,278.97-20.82s190.67,7.01,278.97,20.82c84.78,13.27,160.74,32.19,225.77,56.25,62.52,23.13,113.22,50.8,146.63,80.02,31.03,27.14,46.77,54.67,46.77,81.8s-15.73,54.66-46.77,81.8c-33.4,29.22-84.11,56.89-146.63,80.02-65.03,24.06-140.99,42.98-225.77,56.25-88.29,13.82-182.15,20.82-278.97,20.82Z"/>
      <path class="cls-33" d="M1822.1,1819.7c-96.19,0-189.45-6.96-277.18-20.69-84.24-13.18-159.71-31.99-224.32-55.89-62.12-22.98-112.5-50.48-145.69-79.51-30.83-26.97-46.47-54.32-46.47-81.28s15.63-54.31,46.47-81.28c33.19-29.03,83.57-56.52,145.69-79.51,64.61-23.9,140.08-42.71,224.32-55.89,87.73-13.73,180.98-20.69,277.18-20.69s189.45,6.96,277.18,20.69c84.24,13.18,159.71,31.99,224.32,55.89,62.12,22.98,112.5,50.48,145.69,79.51,30.83,26.97,46.47,54.32,46.47,81.28s-15.63,54.31-46.47,81.28c-33.19,29.03-83.57,56.52-145.69,79.51-64.61,23.9-140.08,42.71-224.32,55.89-87.73,13.73-180.98,20.69-277.18,20.69Z"/>
      <path class="cls-38" d="M1822.1,1818.17c-95.57,0-188.23-6.92-275.39-20.56-83.7-13.1-158.68-31.78-222.88-55.53-61.72-22.83-111.77-50.15-144.75-78.99-30.63-26.8-46.17-53.97-46.17-80.75s15.53-53.96,46.17-80.75c32.97-28.84,83.03-56.16,144.75-78.99,64.19-23.75,139.18-42.43,222.88-55.53,87.16-13.64,179.82-20.56,275.39-20.56s188.23,6.92,275.39,20.56c83.7,13.1,158.68,31.78,222.88,55.53,61.72,22.83,111.77,50.15,144.75,78.99,30.63,26.8,46.17,53.97,46.17,80.75s-15.53,53.96-46.17,80.75c-32.97,28.84-83.03,56.16-144.75,78.99-64.19,23.75-139.18,42.43-222.88,55.53-87.16,13.64-179.82,20.56-275.39,20.56Z"/>
      <path class="cls-29" d="M1822.1,1816.64c-94.95,0-187-6.87-273.6-20.42-83.15-13.01-157.65-31.57-221.43-55.17-61.32-22.69-111.04-49.82-143.81-78.48-30.43-26.62-45.87-53.61-45.87-80.23s15.43-53.61,45.87-80.23c32.76-28.66,82.49-55.79,143.81-78.48,63.78-23.6,138.28-42.16,221.43-55.17,86.6-13.55,178.65-20.42,273.6-20.42s187,6.87,273.6,20.42c83.15,13.01,157.65,31.57,221.43,55.17,61.32,22.69,111.05,49.82,143.81,78.48,30.43,26.62,45.87,53.61,45.87,80.23s-15.43,53.61-45.87,80.23c-32.76,28.66-82.49,55.8-143.81,78.48-63.78,23.6-138.28,42.16-221.43,55.17-86.6,13.55-178.65,20.42-273.6,20.42Z"/>
      <path class="cls-83" d="M1822.1,1815.11c-94.33,0-185.78-6.83-271.81-20.29-82.61-12.93-156.62-31.37-219.98-54.81-60.92-22.54-110.32-49.5-142.86-77.97-30.24-26.45-45.57-53.26-45.57-79.7s15.33-53.26,45.57-79.7c32.55-28.47,81.95-55.43,142.86-77.97,63.36-23.44,137.37-41.88,219.98-54.81,86.03-13.46,177.48-20.29,271.81-20.29s185.78,6.83,271.81,20.29c82.61,12.93,156.62,31.37,219.98,54.81,60.92,22.54,110.32,49.5,142.87,77.97,30.24,26.45,45.57,53.26,45.57,79.7s-15.33,53.26-45.57,79.7c-32.55,28.47-81.95,55.43-142.87,77.97-63.36,23.44-137.37,41.88-219.98,54.81-86.03,13.46-177.48,20.29-271.81,20.29Z"/>
      <path class="cls-4" d="M1822.1,1813.57c-93.71,0-184.56-6.78-270.02-20.16-82.06-12.84-155.59-31.16-218.53-54.45-60.52-22.39-109.59-49.17-141.92-77.45-30.04-26.27-45.27-52.91-45.27-79.18s15.23-52.91,45.27-79.18c32.33-28.28,81.41-55.07,141.92-77.45,62.94-23.29,136.47-41.61,218.53-54.45,85.46-13.37,176.31-20.16,270.02-20.16s184.56,6.78,270.02,20.16c82.06,12.84,155.59,31.16,218.53,54.45,60.52,22.39,109.59,49.17,141.93,77.45,30.04,26.27,45.27,52.91,45.27,79.18s-15.23,52.91-45.27,79.18c-32.33,28.28-81.41,55.07-141.93,77.45-62.94,23.29-136.47,41.61-218.53,54.45-85.46,13.37-176.31,20.16-270.02,20.16Z"/>
      <path class="cls-11" d="M1822.1,1812.04c-93.09,0-183.34-6.74-268.23-20.02-81.52-12.76-154.56-30.95-217.08-54.09-60.11-22.24-108.87-48.85-140.98-76.94-29.84-26.1-44.97-52.56-44.97-78.65s15.13-52.55,44.97-78.65c32.12-28.09,80.87-54.7,140.98-76.94,62.53-23.13,135.56-41.33,217.08-54.09,84.9-13.29,175.14-20.02,268.23-20.02s183.34,6.74,268.23,20.02c81.52,12.76,154.56,30.95,217.08,54.09,60.11,22.24,108.87,48.85,140.98,76.94,29.84,26.1,44.97,52.56,44.97,78.65s-15.13,52.55-44.97,78.65c-32.12,28.09-80.87,54.7-140.98,76.94-62.53,23.13-135.56,41.33-217.08,54.09-84.9,13.29-175.14,20.02-268.23,20.02Z"/>
      <path class="cls-84" d="M1822.1,1810.51c-92.47,0-182.11-6.69-266.44-19.89-80.98-12.67-153.53-30.75-215.64-53.73-59.71-22.09-108.14-48.52-140.04-76.43-29.64-25.93-44.67-52.21-44.67-78.13s15.03-52.2,44.67-78.13c31.9-27.91,80.33-54.34,140.04-76.43,62.11-22.98,134.66-41.06,215.64-53.73,84.33-13.2,173.97-19.89,266.44-19.89s182.11,6.69,266.44,19.89c80.98,12.67,153.53,30.75,215.64,53.73,59.71,22.09,108.14,48.52,140.04,76.43,29.64,25.93,44.67,52.21,44.67,78.13s-15.03,52.2-44.67,78.13c-31.9,27.91-80.33,54.34-140.04,76.43-62.11,22.98-134.66,41.06-215.64,53.73-84.33,13.2-173.98,19.89-266.44,19.89Z"/>
      <path class="cls-96" d="M1822.1,1808.98c-91.85,0-180.89-6.65-264.65-19.75-80.43-12.59-152.5-30.54-214.19-53.37-59.31-21.94-107.41-48.2-139.1-75.91-29.44-25.75-44.37-51.86-44.37-77.61s14.93-51.85,44.37-77.61c31.69-27.72,79.79-53.97,139.1-75.91,61.69-22.82,133.76-40.78,214.19-53.37,83.76-13.11,172.81-19.75,264.65-19.75s180.89,6.65,264.65,19.75c80.43,12.59,152.5,30.54,214.19,53.37,59.31,21.94,107.41,48.2,139.1,75.91,29.44,25.75,44.37,51.86,44.37,77.61s-14.93,51.85-44.37,77.61c-31.69,27.72-79.79,53.97-139.1,75.91-61.69,22.82-133.75,40.78-214.19,53.37-83.76,13.11-172.81,19.75-264.65,19.75Z"/>
      <path class="cls-92" d="M1822.1,1807.45c-91.23,0-179.67-6.6-262.87-19.62-79.89-12.5-151.47-30.34-212.74-53.01-58.91-21.8-106.69-47.87-138.16-75.4-29.24-25.58-44.07-51.51-44.07-77.08s14.83-51.5,44.07-77.08c31.48-27.53,79.25-53.61,138.16-75.4,61.27-22.67,132.85-40.5,212.74-53.01,83.2-13.02,171.64-19.62,262.87-19.62s179.67,6.6,262.87,19.62c79.89,12.5,151.46,30.34,212.74,53.01,58.91,21.8,106.69,47.87,138.16,75.4,29.24,25.58,44.07,51.51,44.07,77.08s-14.83,51.5-44.07,77.08c-31.48,27.53-79.25,53.61-138.16,75.4-61.28,22.67-132.85,40.5-212.74,53.01-83.2,13.02-171.64,19.62-262.87,19.62Z"/>
      <path class="cls-7" d="M1822.1,1805.91c-90.61,0-178.44-6.56-261.08-19.49-79.35-12.42-150.43-30.13-211.29-52.64-58.51-21.65-105.96-47.54-137.22-74.89-29.04-25.4-43.77-51.16-43.77-76.56s14.72-51.15,43.77-76.56c31.26-27.34,78.71-53.24,137.22-74.89,60.86-22.52,131.95-40.23,211.29-52.64,82.63-12.93,170.47-19.49,261.08-19.49s178.44,6.56,261.08,19.49c79.35,12.42,150.43,30.13,211.29,52.64,58.51,21.65,105.96,47.54,137.22,74.89,29.04,25.4,43.77,51.16,43.77,76.56s-14.73,51.15-43.77,76.56c-31.26,27.34-78.71,53.24-137.22,74.89-60.86,22.52-131.95,40.23-211.29,52.64-82.63,12.93-170.47,19.49-261.08,19.49Z"/>
      <path class="cls-47" d="M1822.1,1804.38c-89.98,0-177.22-6.51-259.29-19.35-78.8-12.33-149.4-29.92-209.84-52.28-58.11-21.5-105.24-47.22-136.28-74.38-28.84-25.23-43.47-50.81-43.47-76.03s14.62-50.8,43.47-76.03c31.05-27.16,78.17-52.88,136.28-74.38,60.44-22.36,131.04-39.95,209.84-52.28,82.07-12.84,169.3-19.35,259.29-19.35s177.22,6.51,259.29,19.35c78.8,12.33,149.4,29.92,209.84,52.28,58.11,21.5,105.24,47.22,136.28,74.38,28.84,25.23,43.47,50.81,43.47,76.03s-14.62,50.8-43.47,76.03c-31.05,27.16-78.17,52.88-136.28,74.38-60.44,22.36-131.04,39.95-209.84,52.28-82.07,12.84-169.3,19.35-259.29,19.35Z"/>
      <path class="cls-8" d="M1822.1,1802.85c-89.36,0-176-6.47-257.5-19.22-78.26-12.25-148.37-29.72-208.4-51.92-57.71-21.35-104.51-46.89-135.34-73.86-28.64-25.06-43.17-50.46-43.17-75.51s14.52-50.45,43.17-75.51c30.83-26.97,77.63-52.51,135.34-73.86,60.02-22.21,130.14-39.68,208.4-51.92,81.5-12.75,168.13-19.22,257.5-19.22s176,6.47,257.5,19.22c78.26,12.25,148.37,29.72,208.4,51.92,57.71,21.35,104.51,46.89,135.34,73.86,28.64,25.06,43.17,50.46,43.17,75.51s-14.52,50.45-43.17,75.51c-30.83,26.97-77.63,52.51-135.34,73.86-60.02,22.21-130.14,39.68-208.4,51.92-81.5,12.75-168.13,19.22-257.5,19.22Z"/>
      <path class="cls-68" d="M1822.1,1801.32c-88.74,0-174.78-6.42-255.71-19.09-77.71-12.16-147.34-29.51-206.95-51.56-57.31-21.2-103.78-46.57-134.4-73.35-28.44-24.88-42.87-50.11-42.87-74.98s14.42-50.1,42.87-74.98c30.62-26.78,77.09-52.15,134.4-73.35,59.61-22.05,129.23-39.4,206.95-51.56,80.93-12.67,166.97-19.09,255.71-19.09s174.78,6.42,255.71,19.09c77.71,12.16,147.34,29.51,206.95,51.56,57.31,21.2,103.78,46.57,134.4,73.35,28.44,24.88,42.87,50.11,42.87,74.98s-14.42,50.1-42.87,74.98c-30.62,26.78-77.09,52.15-134.4,73.35-59.61,22.05-129.23,39.4-206.95,51.56-80.93,12.67-166.97,19.09-255.71,19.09Z"/>
      <path class="cls-39" d="M1822.1,1799.79c-88.12,0-173.55-6.38-253.92-18.95-77.17-12.08-146.31-29.3-205.5-51.2-56.91-21.05-103.06-46.24-133.46-72.84-28.25-24.71-42.57-49.76-42.57-74.46s14.32-49.75,42.57-74.46c30.4-26.6,76.55-51.78,133.46-72.84,59.19-21.9,128.33-39.13,205.5-51.2,80.37-12.58,165.8-18.95,253.92-18.95s173.55,6.38,253.92,18.95c77.17,12.08,146.31,29.3,205.5,51.2,56.91,21.05,103.06,46.24,133.46,72.84,28.25,24.71,42.57,49.76,42.57,74.46s-14.32,49.75-42.57,74.46c-30.4,26.6-76.55,51.78-133.46,72.84-59.19,21.9-128.33,39.13-205.5,51.2-80.37,12.58-165.8,18.95-253.92,18.95Z"/>
      <path class="cls-52" d="M1822.1,1798.25c-87.5,0-172.33-6.33-252.13-18.82-76.63-11.99-145.28-29.1-204.05-50.84-56.51-20.91-102.33-45.91-132.52-72.32-28.05-24.53-42.27-49.41-42.27-73.93s14.22-49.4,42.27-73.93c30.19-26.41,76.02-51.42,132.52-72.32,58.77-21.74,127.43-38.85,204.05-50.84,79.8-12.49,164.63-18.82,252.13-18.82s172.33,6.33,252.13,18.82c76.63,11.99,145.28,29.1,204.05,50.84,56.51,20.91,102.33,45.91,132.52,72.32,28.05,24.53,42.27,49.41,42.27,73.93s-14.22,49.4-42.27,73.93c-30.19,26.41-76.02,51.42-132.52,72.32-58.77,21.74-127.43,38.85-204.05,50.84-79.8,12.49-164.63,18.82-252.13,18.82Z"/>
      <path class="cls-79" d="M1822.1,1796.72c-86.88,0-171.11-6.29-250.34-18.69-76.08-11.91-144.25-28.89-202.61-50.48-56.11-20.76-101.61-45.59-131.58-71.81-27.85-24.36-41.97-49.06-41.97-73.41s14.12-49.05,41.97-73.41c29.98-26.22,75.48-51.05,131.58-71.81,58.36-21.59,126.52-38.57,202.61-50.48,79.23-12.4,163.46-18.69,250.34-18.69s171.11,6.29,250.34,18.69c76.08,11.91,144.25,28.89,202.6,50.48,56.11,20.76,101.61,45.59,131.58,71.81,27.85,24.36,41.97,49.06,41.97,73.41s-14.12,49.05-41.97,73.41c-29.98,26.22-75.48,51.05-131.58,71.81-58.36,21.59-126.52,38.57-202.6,50.48-79.23,12.4-163.46,18.69-250.34,18.69Z"/>
      <path class="cls-78" d="M1822.1,1795.19c-86.26,0-169.88-6.24-248.55-18.55-75.54-11.82-143.22-28.68-201.16-50.12-55.7-20.61-100.88-45.26-130.64-71.3-27.65-24.18-41.67-48.71-41.67-72.88s14.02-48.7,41.67-72.88c29.76-26.03,74.94-50.69,130.64-71.3,57.94-21.44,125.62-38.3,201.16-50.12,78.67-12.31,162.29-18.55,248.55-18.55s169.88,6.24,248.55,18.55c75.54,11.82,143.22,28.68,201.16,50.12,55.7,20.61,100.88,45.26,130.64,71.3,27.65,24.18,41.67,48.71,41.67,72.88s-14.02,48.7-41.67,72.88c-29.76,26.03-74.94,50.69-130.64,71.3-57.94,21.44-125.62,38.3-201.16,50.12-78.67,12.31-162.29,18.55-248.55,18.55Z"/>
      <path class="cls-95" d="M1822.1,1793.66c-85.64,0-168.66-6.2-246.76-18.42-75-11.74-142.19-28.48-199.71-49.76-55.3-20.46-100.15-44.94-129.7-70.78-27.45-24.01-41.37-48.36-41.37-72.36s13.92-48.35,41.37-72.36c29.55-25.85,74.4-50.32,129.7-70.78,57.52-21.28,124.71-38.02,199.71-49.76,78.1-12.22,161.13-18.42,246.76-18.42s168.66,6.2,246.76,18.42c75,11.74,142.19,28.48,199.71,49.76,55.3,20.46,100.15,44.94,129.7,70.78,27.45,24.01,41.37,48.36,41.37,72.36s-13.92,48.35-41.37,72.36c-29.55,25.85-74.4,50.32-129.7,70.78-57.52,21.28-124.71,38.02-199.71,49.76-78.1,12.22-161.13,18.42-246.76,18.42Z"/>
      <path class="cls-87" d="M1822.1,1792.13c-85.02,0-167.44-6.15-244.97-18.29-74.45-11.65-141.16-28.27-198.26-49.4-54.9-20.31-99.43-44.61-128.76-70.27-27.25-23.84-41.07-48.01-41.07-71.83s13.82-48,41.07-71.83c29.33-25.66,73.86-49.96,128.76-70.27,57.1-21.13,123.81-37.75,198.26-49.4,77.54-12.13,159.96-18.29,244.97-18.29s167.44,6.15,244.98,18.29c74.45,11.65,141.16,28.27,198.26,49.4,54.9,20.31,99.43,44.61,128.76,70.27,27.25,23.84,41.07,48.01,41.07,71.83s-13.82,48-41.07,71.83c-29.33,25.66-73.86,49.96-128.76,70.27-57.1,21.13-123.81,37.75-198.26,49.4-77.54,12.13-159.96,18.29-244.98,18.29Z"/>
      <path class="cls-71" d="M1822.1,1790.59c-84.4,0-166.22-6.11-243.19-18.15-73.91-11.57-140.13-28.06-196.81-49.04-54.5-20.16-98.7-44.29-127.82-69.76-27.05-23.66-40.77-47.65-40.77-71.31s13.72-47.65,40.77-71.31c29.12-25.47,73.32-49.59,127.82-69.76,56.69-20.97,122.91-37.47,196.81-49.04,76.97-12.04,158.79-18.15,243.19-18.15s166.22,6.11,243.19,18.15c73.91,11.57,140.13,28.06,196.81,49.04,54.5,20.16,98.7,44.29,127.82,69.76,27.05,23.66,40.77,47.65,40.77,71.31s-13.72,47.65-40.77,71.31c-29.12,25.47-73.32,49.59-127.82,69.76-56.69,20.97-122.9,37.47-196.81,49.04-76.97,12.04-158.79,18.15-243.19,18.15Z"/>
      <path class="cls-76" d="M1822.1,1789.06c-83.78,0-164.99-6.06-241.4-18.02-73.36-11.48-139.1-27.86-195.37-48.68-54.1-20.02-97.97-43.96-126.88-69.24-26.85-23.49-40.47-47.3-40.47-70.79s13.61-47.3,40.47-70.79c28.9-25.28,72.78-49.23,126.88-69.24,56.27-20.82,122-37.2,195.37-48.68,76.4-11.96,157.62-18.02,241.4-18.02s164.99,6.06,241.4,18.02c73.36,11.48,139.09,27.86,195.37,48.68,54.1,20.02,97.98,43.96,126.88,69.24,26.85,23.49,40.47,47.3,40.47,70.79s-13.62,47.3-40.47,70.79c-28.9,25.28-72.78,49.23-126.88,69.24-56.27,20.82-122,37.2-195.37,48.68-76.4,11.96-157.62,18.02-241.4,18.02Z"/>
      <path class="cls-2" d="M1822.1,1787.53c-83.15,0-163.77-6.02-239.61-17.89-72.82-11.4-138.06-27.65-193.92-48.32-53.7-19.87-97.25-43.63-125.94-68.73-26.65-23.31-40.17-46.95-40.17-70.26s13.51-46.95,40.17-70.26c28.69-25.1,72.24-48.86,125.94-68.73,55.85-20.66,121.1-36.92,193.92-48.32,75.84-11.87,156.45-17.89,239.61-17.89s163.77,6.02,239.61,17.89c72.82,11.4,138.06,27.65,193.92,48.32,53.7,19.87,97.25,43.63,125.94,68.73,26.65,23.31,40.17,46.95,40.17,70.26s-13.51,46.95-40.17,70.26c-28.69,25.1-72.24,48.86-125.94,68.73-55.85,20.66-121.1,36.92-193.92,48.32-75.84,11.87-156.45,17.89-239.61,17.89Z"/>
      <path class="cls-63" d="M1822.1,1786c-82.53,0-162.55-5.97-237.82-17.75-72.28-11.31-137.03-27.44-192.47-47.96-53.3-19.72-96.52-43.31-125-68.22-26.45-23.14-39.87-46.6-39.87-69.74s13.41-46.6,39.87-69.74c28.48-24.91,71.7-48.5,125-68.22,55.44-20.51,120.19-36.64,192.47-47.96,75.27-11.78,155.28-17.75,237.82-17.75s162.55,5.97,237.82,17.75c72.28,11.31,137.03,27.44,192.47,47.96,53.3,19.72,96.52,43.31,125,68.22,26.45,23.14,39.87,46.6,39.87,69.74s-13.41,46.6-39.87,69.74c-28.48,24.91-71.7,48.5-125,68.22-55.44,20.51-120.19,36.64-192.47,47.96-75.27,11.78-155.28,17.75-237.82,17.75Z"/>
      <path class="cls-60" d="M1822.1,1783.45c-81.5,0-160.52-5.9-234.85-17.53-71.37-11.17-135.32-27.1-190.06-47.36-52.63-19.47-95.32-42.77-123.44-67.36-26.12-22.85-39.37-46.02-39.37-68.86s13.25-46.01,39.37-68.86c28.12-24.6,70.8-47.89,123.44-67.36,54.74-20.25,118.69-36.19,190.06-47.36,74.33-11.63,153.34-17.53,234.85-17.53s160.52,5.9,234.85,17.53c71.37,11.17,135.32,27.1,190.06,47.36,52.63,19.47,95.32,42.77,123.44,67.36,26.12,22.85,39.37,46.02,39.37,68.86s-13.25,46.01-39.37,68.86c-28.12,24.6-70.8,47.89-123.44,67.36-54.74,20.25-118.69,36.19-190.06,47.36-74.33,11.63-153.34,17.53-234.85,17.53Z"/>
      <path class="cls-62" d="M1822.1,1780.91c-80.47,0-158.48-5.82-231.87-17.31-70.47-11.03-133.61-26.76-187.66-46.76-51.97-19.23-94.11-42.23-121.87-66.51-25.79-22.56-38.87-45.44-38.87-67.99s13.08-45.43,38.87-67.99c27.76-24.29,69.91-47.29,121.87-66.51,54.05-20,117.19-35.73,187.66-46.76,73.39-11.48,151.4-17.31,231.87-17.31s158.48,5.82,231.87,17.31c70.47,11.03,133.61,26.76,187.66,46.76,51.97,19.23,94.11,42.23,121.87,66.51,25.79,22.56,38.87,45.44,38.87,67.99s-13.08,45.43-38.87,67.99c-27.76,24.29-69.91,47.29-121.87,66.51-54.05,20-117.19,35.73-187.66,46.76-73.39,11.48-151.4,17.31-231.87,17.31Z"/>
      <path class="cls-26" d="M1822.1,1778.36c-79.44,0-156.45-5.75-228.9-17.09-69.57-10.89-131.9-26.42-185.25-46.16-51.3-18.98-92.9-41.68-120.31-65.66-25.46-22.27-38.37-44.86-38.37-67.12s12.91-44.85,38.37-67.12c27.41-23.97,69.01-46.68,120.31-65.66,53.36-19.74,115.69-35.27,185.25-46.16,72.45-11.34,149.46-17.09,228.9-17.09s156.45,5.75,228.9,17.09c69.57,10.89,131.89,26.42,185.25,46.16,51.3,18.98,92.9,41.68,120.31,65.66,25.46,22.27,38.37,44.86,38.37,67.12s-12.91,44.85-38.37,67.12c-27.41,23.97-69.01,46.68-120.31,65.66-53.36,19.74-115.69,35.27-185.25,46.16-72.45,11.34-149.46,17.09-228.9,17.09Z"/>
      <path class="cls-43" d="M1822.1,1775.82c-78.41,0-154.42-5.67-225.93-16.86-68.66-10.74-130.18-26.07-182.85-45.56-50.63-18.73-91.7-41.14-118.75-64.81-25.13-21.98-37.87-44.27-37.87-66.25s12.74-44.27,37.87-66.25c27.05-23.66,68.12-46.07,118.75-64.81,52.66-19.48,114.18-34.81,182.85-45.56,71.51-11.19,147.52-16.86,225.93-16.86s154.42,5.67,225.93,16.86c68.66,10.74,130.18,26.07,182.85,45.56,50.63,18.73,91.7,41.14,118.75,64.81,25.13,21.98,37.87,44.27,37.87,66.25s-12.74,44.27-37.87,66.25c-27.05,23.66-68.12,46.07-118.75,64.81-52.67,19.49-114.18,34.81-182.85,45.56-71.51,11.19-147.52,16.86-225.93,16.86Z"/>
      <path class="cls-85" d="M1822.1,1773.27c-77.38,0-152.39-5.6-222.96-16.64-67.76-10.6-128.47-25.73-180.44-44.96-49.97-18.49-90.49-40.6-117.19-63.95-24.8-21.69-37.38-43.69-37.38-65.38s12.57-43.68,37.38-65.38c26.7-23.35,67.22-45.47,117.19-63.95,51.97-19.23,112.68-34.35,180.44-44.96,70.57-11.04,145.58-16.64,222.96-16.64s152.39,5.6,222.96,16.64c67.76,10.6,128.47,25.73,180.44,44.96,49.97,18.49,90.49,40.6,117.19,63.95,24.8,21.69,37.38,43.69,37.38,65.38s-12.58,43.68-37.38,65.38c-26.7,23.35-67.22,45.47-117.19,63.95-51.97,19.23-112.68,34.35-180.44,44.96-70.57,11.04-145.58,16.64-222.96,16.64Z"/>
      <path class="cls-6" d="M1822.1,1770.72c-76.34,0-150.36-5.52-219.98-16.42-66.86-10.46-126.76-25.39-178.04-44.36-49.3-18.24-89.28-40.06-115.62-63.1-24.47-21.4-36.88-43.11-36.88-64.51s12.41-43.1,36.88-64.51c26.34-23.04,66.32-44.86,115.62-63.1,51.28-18.97,111.18-33.9,178.04-44.36,69.63-10.9,143.64-16.42,219.98-16.42s150.36,5.52,219.98,16.42c66.86,10.46,126.76,25.39,178.04,44.36,49.3,18.24,89.28,40.06,115.63,63.1,24.47,21.4,36.88,43.11,36.88,64.51s-12.41,43.1-36.88,64.51c-26.34,23.04-66.32,44.86-115.63,63.1-51.28,18.97-111.18,33.9-178.04,44.36-69.63,10.9-143.64,16.42-219.98,16.42Z"/>
      <path class="cls-34" d="M1822.1,1768.18c-75.31,0-148.33-5.45-217.01-16.2-65.95-10.32-125.04-25.04-175.63-43.76-48.64-17.99-88.08-39.52-114.06-62.25-24.14-21.12-36.38-42.53-36.38-63.63s12.24-42.52,36.38-63.63c25.98-22.73,65.43-44.25,114.06-62.25,50.59-18.72,109.68-33.44,175.63-43.76,68.69-10.75,141.7-16.2,217.01-16.2s148.33,5.45,217.01,16.2c65.95,10.32,125.04,25.04,175.63,43.76,48.64,17.99,88.08,39.52,114.06,62.25,24.14,21.12,36.38,42.53,36.38,63.63s-12.24,42.52-36.38,63.63c-25.98,22.73-65.43,44.26-114.06,62.25-50.59,18.72-109.68,33.44-175.63,43.76-68.69,10.75-141.7,16.2-217.01,16.2Z"/>
      <path class="cls-65" d="M1822.1,1765.63c-74.28,0-146.29-5.38-214.04-15.98-65.05-10.18-123.33-24.7-173.22-43.16-47.97-17.75-86.87-38.98-112.5-61.4-23.81-20.83-35.88-41.94-35.88-62.76s12.07-41.94,35.88-62.76c25.63-22.42,64.53-43.65,112.5-61.4,49.89-18.46,108.17-32.98,173.22-43.16,67.74-10.6,139.76-15.98,214.04-15.98s146.29,5.38,214.04,15.98c65.05,10.18,123.33,24.7,173.22,43.16,47.97,17.75,86.87,38.98,112.5,61.4,23.81,20.83,35.88,41.94,35.88,62.76s-12.07,41.94-35.88,62.76c-25.63,22.42-64.53,43.65-112.5,61.4-49.89,18.46-108.17,32.98-173.22,43.16-67.74,10.6-139.76,15.98-214.04,15.98Z"/>
      <path class="cls-48" d="M1822.1,1763.09c-73.25,0-144.26-5.3-211.07-15.75-64.15-10.04-121.62-24.36-170.82-42.56-47.3-17.5-85.66-38.44-110.94-60.54-23.48-20.54-35.38-41.36-35.38-61.89s11.9-41.35,35.38-61.89c25.27-22.11,63.63-43.04,110.94-60.54,49.2-18.2,106.67-32.52,170.82-42.56,66.8-10.45,137.82-15.75,211.07-15.75s144.26,5.3,211.07,15.75c64.15,10.04,121.62,24.36,170.82,42.56,47.3,17.5,85.67,38.44,110.94,60.54,23.48,20.54,35.38,41.36,35.38,61.89s-11.9,41.35-35.38,61.89c-25.27,22.11-63.64,43.04-110.94,60.54-49.2,18.2-106.67,32.52-170.82,42.56-66.8,10.45-137.82,15.75-211.07,15.75Z"/>
      <path class="cls-89" d="M1822.1,1760.54c-72.22,0-142.23-5.23-208.09-15.53-63.24-9.9-119.91-24.01-168.41-41.96-46.64-17.25-84.46-37.9-109.38-59.69-23.15-20.25-34.88-40.78-34.88-61.02s11.74-40.77,34.88-61.02c24.92-21.8,62.74-42.44,109.38-59.69,48.51-17.95,105.17-32.06,168.41-41.96,65.86-10.31,135.88-15.53,208.09-15.53s142.23,5.23,208.09,15.53c63.24,9.9,119.91,24.01,168.41,41.96,46.64,17.25,84.46,37.9,109.38,59.69,23.15,20.25,34.88,40.78,34.88,61.02s-11.74,40.77-34.88,61.02c-24.92,21.8-62.74,42.44-109.38,59.69-48.51,17.95-105.17,32.06-168.41,41.96-65.86,10.31-135.88,15.53-208.09,15.53Z"/>
      <path class="cls-46" d="M1822.1,1758c-71.19,0-140.2-5.15-205.12-15.31-62.34-9.76-118.19-23.67-166.01-41.36-45.97-17.01-83.25-37.35-107.81-58.84-22.82-19.96-34.39-40.2-34.39-60.15s11.57-40.19,34.39-60.15c24.56-21.48,61.84-41.83,107.81-58.84,47.81-17.69,103.67-31.61,166.01-41.36,64.92-10.16,133.94-15.31,205.12-15.31s140.2,5.15,205.12,15.31c62.34,9.76,118.19,23.67,166.01,41.36,45.97,17.01,83.25,37.35,107.81,58.84,22.82,19.96,34.39,40.2,34.39,60.15s-11.57,40.19-34.39,60.15c-24.56,21.48-61.84,41.83-107.81,58.84-47.81,17.69-103.67,31.61-166.01,41.36-64.92,10.16-133.94,15.31-205.12,15.31Z"/>
      <path class="cls-30" d="M1822.1,1755.45c-70.16,0-138.17-5.08-202.15-15.09-61.44-9.61-116.48-23.33-163.6-40.76-45.3-16.76-82.05-36.81-106.25-57.99-22.49-19.67-33.89-39.61-33.89-59.28s11.4-39.61,33.89-59.28c24.21-21.17,60.95-41.22,106.25-57.99,47.12-17.43,102.17-31.15,163.6-40.76,63.98-10.01,131.99-15.09,202.15-15.09s138.17,5.08,202.15,15.09c61.44,9.61,116.48,23.33,163.6,40.76,45.3,16.76,82.05,36.81,106.25,57.99,22.49,19.67,33.89,39.61,33.89,59.28s-11.4,39.61-33.89,59.28c-24.21,21.17-60.95,41.22-106.25,57.99-47.12,17.43-102.17,31.15-163.6,40.76-63.98,10.01-131.99,15.09-202.15,15.09Z"/>
      <path class="cls-97" d="M1822.1,1752.91c-69.12,0-136.14-5-199.18-14.87-60.53-9.47-114.77-22.99-161.2-40.16-44.64-16.52-80.84-36.27-104.69-57.13-22.16-19.38-33.39-39.03-33.39-58.41s11.23-39.02,33.39-58.41c23.85-20.86,60.05-40.62,104.69-57.13,46.43-17.18,100.66-30.69,161.2-40.16,63.04-9.87,130.05-14.87,199.18-14.87s136.14,5,199.18,14.87c60.53,9.47,114.77,22.99,161.2,40.16,44.64,16.52,80.84,36.27,104.69,57.13,22.16,19.38,33.39,39.03,33.39,58.41s-11.23,39.02-33.39,58.41c-23.85,20.86-60.05,40.62-104.69,57.13-46.43,17.18-100.66,30.69-161.2,40.16-63.04,9.87-130.05,14.87-199.18,14.87Z"/>
      <path class="cls-18" d="M1822.1,1750.36c-68.09,0-134.1-4.93-196.2-14.65-59.63-9.33-113.06-22.64-158.79-39.56-43.97-16.27-79.63-35.73-103.13-56.28-21.83-19.09-32.89-38.45-32.89-57.53s11.07-38.44,32.89-57.53c23.49-20.55,59.15-40.01,103.13-56.28,45.74-16.92,99.16-30.23,158.79-39.56,62.1-9.72,128.11-14.65,196.2-14.65s134.1,4.93,196.21,14.65c59.63,9.33,113.05,22.64,158.79,39.56,43.97,16.27,79.63,35.73,103.13,56.28,21.83,19.09,32.89,38.45,32.89,57.53s-11.07,38.44-32.89,57.53c-23.49,20.55-59.15,40.01-103.13,56.28-45.74,16.92-99.16,30.23-158.79,39.56-62.1,9.72-128.11,14.65-196.21,14.65Z"/>
      <path class="cls-45" d="M1822.1,1747.81c-67.06,0-132.07-4.85-193.23-14.42-58.73-9.19-111.34-22.3-156.39-38.96-43.31-16.02-78.43-35.19-101.56-55.43-21.49-18.8-32.39-37.87-32.39-56.66s10.9-37.86,32.39-56.66c23.14-20.24,58.26-39.41,101.56-55.43,45.04-16.66,97.66-29.77,156.39-38.96,61.16-9.57,126.17-14.42,193.23-14.42s132.07,4.85,193.23,14.42c58.73,9.19,111.34,22.3,156.39,38.96,43.31,16.02,78.43,35.19,101.56,55.43,21.49,18.8,32.39,37.87,32.39,56.66s-10.9,37.86-32.39,56.66c-23.14,20.24-58.26,39.41-101.56,55.43-45.04,16.67-97.66,29.77-156.39,38.96-61.16,9.57-126.17,14.42-193.23,14.42Z"/>
      <path class="cls-49" d="M1822.1,1745.27c-66.03,0-130.04-4.78-190.26-14.2-57.82-9.05-109.63-21.96-153.98-38.37-42.64-15.78-77.22-34.65-100-54.58-21.16-18.51-31.89-37.28-31.89-55.79s10.73-37.28,31.89-55.79c22.78-19.93,57.36-38.8,100-54.58,44.35-16.41,96.16-29.32,153.98-38.36,60.22-9.42,124.23-14.2,190.26-14.2s130.04,4.78,190.26,14.2c57.82,9.05,109.63,21.96,153.98,38.36,42.64,15.78,77.22,34.65,100,54.58,21.16,18.51,31.89,37.28,31.89,55.79s-10.73,37.28-31.89,55.79c-22.78,19.93-57.36,38.8-100,54.58-44.35,16.41-96.16,29.32-153.98,38.37-60.22,9.42-124.23,14.2-190.26,14.2Z"/>
      <path class="cls-67" d="M1822.1,1742.72c-65,0-128.01-4.7-187.29-13.98-56.92-8.91-107.92-21.61-151.57-37.77-41.97-15.53-76.01-34.11-98.44-53.72-20.83-18.22-31.4-36.7-31.4-54.92s10.56-36.7,31.4-54.92c22.43-19.62,56.47-38.19,98.44-53.72,43.66-16.15,94.65-28.86,151.57-37.77,59.28-9.28,122.29-13.98,187.29-13.98s128.01,4.7,187.29,13.98c56.92,8.91,107.92,21.61,151.57,37.77,41.97,15.53,76.01,34.11,98.44,53.72,20.83,18.22,31.4,36.7,31.4,54.92s-10.56,36.7-31.4,54.92c-22.43,19.62-56.47,38.19-98.44,53.72-43.66,16.15-94.65,28.86-151.57,37.77-59.28,9.28-122.29,13.98-187.29,13.98Z"/>
      <path class="cls-16" d="M1822.1,1740.18c-63.97,0-125.98-4.63-184.32-13.76-56.02-8.77-106.2-21.27-149.17-37.17-41.31-15.28-74.81-33.57-96.88-52.87-20.5-17.93-30.9-36.12-30.9-54.05s10.4-36.11,30.9-54.05c22.07-19.3,55.57-37.59,96.88-52.87,42.96-15.9,93.15-28.4,149.17-37.17,58.34-9.13,120.35-13.76,184.32-13.76s125.98,4.63,184.32,13.76c56.02,8.77,106.2,21.27,149.17,37.17,41.31,15.28,74.81,33.57,96.88,52.87,20.5,17.93,30.9,36.12,30.9,54.05s-10.4,36.11-30.9,54.05c-22.07,19.3-55.57,37.59-96.88,52.87-42.96,15.9-93.15,28.4-149.17,37.17-58.34,9.13-120.35,13.76-184.32,13.76Z"/>
      <path class="cls-66" d="M1822.1,1737.63c-62.93,0-123.95-4.55-181.34-13.54-55.11-8.62-104.49-20.93-146.76-36.57-40.64-15.04-73.6-33.02-95.31-52.02-20.17-17.64-30.4-35.54-30.4-53.18s10.23-35.53,30.4-53.18c21.71-18.99,54.67-36.98,95.31-52.02,42.27-15.64,91.65-27.94,146.76-36.57,57.4-8.98,118.41-13.54,181.34-13.54s123.95,4.55,181.34,13.54c55.11,8.62,104.49,20.93,146.76,36.57,40.64,15.04,73.6,33.02,95.31,52.02,20.17,17.64,30.4,35.54,30.4,53.18s-10.23,35.53-30.4,53.18c-21.71,18.99-54.67,36.98-95.31,52.02-42.27,15.64-91.65,27.94-146.76,36.57-57.4,8.98-118.41,13.54-181.34,13.54Z"/>
      <path class="cls-37" d="M1822.1,1735.09c-61.9,0-121.92-4.48-178.37-13.31-54.21-8.48-102.78-20.58-144.36-35.97-39.98-14.79-72.39-32.48-93.75-51.16-19.84-17.36-29.9-34.95-29.9-52.3s10.06-34.95,29.9-52.3c21.36-18.68,53.78-36.37,93.75-51.16,41.58-15.38,90.15-27.48,144.36-35.97,56.46-8.83,116.47-13.31,178.37-13.31s121.92,4.48,178.37,13.31c54.21,8.48,102.78,20.58,144.36,35.97,39.98,14.79,72.39,32.48,93.75,51.16,19.84,17.36,29.9,34.95,29.9,52.3s-10.06,34.95-29.9,52.3c-21.36,18.68-53.78,36.37-93.75,51.16-41.58,15.38-90.15,27.48-144.36,35.97-56.46,8.83-116.47,13.31-178.37,13.31Z"/>
      <path class="cls-13" d="M1822.1,1732.54c-60.87,0-119.88-4.4-175.4-13.09-53.31-8.34-101.07-20.24-141.95-35.37-39.31-14.54-71.19-31.94-92.19-50.31-19.51-17.07-29.4-34.37-29.4-51.43s9.89-34.37,29.4-51.43c21-18.37,52.88-35.77,92.19-50.31,40.89-15.13,88.65-27.03,141.95-35.37,55.51-8.69,114.53-13.09,175.4-13.09s119.88,4.4,175.4,13.09c53.31,8.34,101.07,20.24,141.95,35.37,39.31,14.54,71.19,31.94,92.19,50.31,19.51,17.07,29.4,34.37,29.4,51.43s-9.89,34.37-29.4,51.43c-21,18.37-52.88,35.77-92.19,50.31-40.89,15.13-88.65,27.03-141.95,35.37-55.51,8.69-114.53,13.09-175.4,13.09Z"/>
      <path class="cls-22" d="M1822.1,1730c-59.84,0-117.85-4.33-172.43-12.87-52.4-8.2-99.35-19.9-139.55-34.77-38.64-14.3-69.98-31.4-90.63-49.46-19.18-16.78-28.91-33.79-28.91-50.56s9.72-33.78,28.91-50.56c20.65-18.06,51.98-35.16,90.63-49.46,40.19-14.87,87.14-26.57,139.55-34.77,54.57-8.54,112.59-12.87,172.43-12.87s117.85,4.33,172.43,12.87c52.4,8.2,99.35,19.9,139.55,34.77,38.64,14.3,69.98,31.4,90.63,49.46,19.18,16.78,28.91,33.79,28.91,50.56s-9.72,33.78-28.91,50.56c-20.65,18.06-51.98,35.16-90.63,49.46-40.19,14.87-87.14,26.57-139.55,34.77-54.57,8.54-112.59,12.87-172.43,12.87Z"/>
      <path class="cls-70" d="M1822.1,1727.45c-58.81,0-115.82-4.26-169.45-12.65-51.5-8.06-97.64-19.56-137.14-34.17-37.98-14.05-68.78-30.86-89.07-48.61-18.85-16.49-28.41-33.21-28.41-49.69s9.56-33.2,28.41-49.69c20.29-17.75,51.09-34.56,89.07-48.61,39.5-14.61,85.64-26.11,137.14-34.17,53.63-8.39,110.64-12.65,169.45-12.65s115.82,4.26,169.45,12.65c51.5,8.06,97.64,19.56,137.14,34.17,37.98,14.05,68.78,30.86,89.07,48.61,18.85,16.49,28.41,33.21,28.41,49.69s-9.56,33.2-28.41,49.69c-20.29,17.75-51.09,34.56-89.07,48.61-39.5,14.61-85.64,26.11-137.14,34.17-53.63,8.39-110.65,12.65-169.45,12.65Z"/>
      <path class="cls-42" d="M1822.1,1724.91c-57.78,0-113.79-4.18-166.48-12.43-50.6-7.92-95.93-19.21-134.74-33.57-37.31-13.8-67.57-30.32-87.5-47.75-18.52-16.2-27.91-32.62-27.91-48.82s9.39-32.62,27.91-48.82c19.93-17.44,50.19-33.95,87.5-47.75,38.81-14.36,84.14-25.65,134.74-33.57,52.69-8.25,108.7-12.43,166.48-12.43s113.79,4.18,166.48,12.43c50.6,7.92,95.93,19.21,134.73,33.57,37.31,13.8,67.57,30.32,87.5,47.75,18.52,16.2,27.91,32.62,27.91,48.82s-9.39,32.62-27.91,48.82c-19.93,17.44-50.19,33.95-87.5,47.75-38.81,14.36-84.14,25.65-134.73,33.57-52.69,8.25-108.7,12.43-166.48,12.43Z"/>
      <path class="cls-28" d="M1822.1,1722.36c-56.74,0-111.76-4.11-163.51-12.2-49.69-7.78-94.22-18.87-132.33-32.97-36.64-13.56-66.36-29.78-85.94-46.9-18.19-15.91-27.41-32.04-27.41-47.95s9.22-32.04,27.41-47.95c19.58-17.13,49.3-33.34,85.94-46.9,38.11-14.1,82.64-25.19,132.33-32.97,51.75-8.1,106.76-12.2,163.51-12.2s111.76,4.11,163.51,12.2c49.69,7.78,94.21,18.87,132.33,32.97,36.64,13.56,66.36,29.78,85.94,46.9,18.19,15.91,27.41,32.04,27.41,47.95s-9.22,32.04-27.41,47.95c-19.58,17.13-49.3,33.34-85.94,46.9-38.11,14.1-82.64,25.19-132.33,32.97-51.75,8.1-106.76,12.2-163.51,12.2Z"/>
      <path class="cls-94" d="M1822.1,1719.81c-55.71,0-109.73-4.03-160.54-11.98-48.79-7.63-92.5-18.53-129.92-32.37-35.98-13.31-65.16-29.23-84.38-46.05-17.86-15.62-26.91-31.46-26.91-47.07s9.05-31.45,26.91-47.07c19.22-16.81,48.4-32.74,84.38-46.05,37.42-13.85,81.13-24.74,129.92-32.37,50.81-7.95,104.82-11.98,160.54-11.98s109.73,4.03,160.54,11.98c48.79,7.64,92.5,18.53,129.92,32.37,35.98,13.31,65.16,29.23,84.38,46.05,17.86,15.62,26.91,31.46,26.91,47.07s-9.05,31.45-26.91,47.07c-19.22,16.81-48.4,32.74-84.38,46.05-37.42,13.85-81.13,24.74-129.92,32.37-50.81,7.95-104.82,11.98-160.54,11.98Z"/>
      <path class="cls-25" d="M1822.1,1717.27c-54.68,0-107.69-3.96-157.56-11.76-47.89-7.49-90.79-18.18-127.52-31.77-35.31-13.06-63.95-28.69-82.82-45.2-17.53-15.33-26.41-30.88-26.41-46.2s8.89-30.87,26.41-46.2c18.87-16.5,47.5-32.13,82.82-45.2,36.73-13.59,79.63-24.28,127.52-31.77,49.87-7.8,102.88-11.76,157.56-11.76s107.69,3.96,157.56,11.76c47.89,7.49,90.79,18.18,127.52,31.77,35.31,13.06,63.95,28.69,82.82,45.2,17.53,15.33,26.41,30.88,26.41,46.2s-8.89,30.87-26.41,46.2c-18.87,16.5-47.5,32.13-82.82,45.2-36.73,13.59-79.63,24.28-127.52,31.77-49.87,7.8-102.88,11.76-157.56,11.76Z"/>
      <path class="cls-55" d="M1822.1,1714.72c-53.65,0-105.66-3.88-154.59-11.54-46.98-7.35-89.08-17.84-125.11-31.17-34.65-12.82-62.74-28.15-81.25-44.34-17.2-15.04-25.92-30.29-25.92-45.33s8.72-30.29,25.92-45.33c18.51-16.19,46.61-31.53,81.25-44.34,36.04-13.33,78.13-23.82,125.11-31.17,48.93-7.66,100.94-11.54,154.59-11.54s105.66,3.88,154.59,11.54c46.98,7.35,89.08,17.84,125.11,31.17,34.65,12.82,62.74,28.15,81.25,44.34,17.2,15.04,25.92,30.29,25.92,45.33s-8.72,30.29-25.92,45.33c-18.51,16.19-46.61,31.53-81.25,44.34-36.04,13.33-78.13,23.82-125.11,31.17-48.93,7.66-100.94,11.54-154.59,11.54Z"/>
      <path class="cls-54" d="M1822.1,1712.18c-52.62,0-103.63-3.81-151.62-11.32-46.08-7.21-87.36-17.5-122.71-30.57-33.98-12.57-61.54-27.61-79.69-43.49-16.87-14.75-25.42-29.71-25.42-44.46s8.55-29.71,25.42-44.46c18.15-15.88,45.71-30.92,79.69-43.49,35.34-13.08,76.63-23.36,122.71-30.57,47.99-7.51,99-11.32,151.62-11.32s103.63,3.81,151.62,11.32c46.08,7.21,87.36,17.5,122.71,30.57,33.98,12.57,61.54,27.61,79.69,43.49,16.87,14.75,25.42,29.71,25.42,44.46s-8.55,29.71-25.42,44.46c-18.15,15.88-45.71,30.92-79.69,43.49-35.34,13.08-76.63,23.36-122.71,30.57-47.99,7.51-99,11.32-151.62,11.32Z"/>
      <path class="cls-51" d="M1822.1,1709.63c-51.59,0-101.6-3.73-148.65-11.1-45.18-7.07-85.65-17.15-120.3-29.97-33.31-12.33-60.33-27.07-78.13-42.64-16.53-14.46-24.92-29.13-24.92-43.59s8.38-29.12,24.92-43.59c17.8-15.57,44.82-30.31,78.13-42.64,34.65-12.82,75.12-22.9,120.3-29.97,47.05-7.36,97.06-11.1,148.65-11.1s101.6,3.73,148.65,11.1c45.18,7.07,85.65,17.15,120.3,29.97,33.31,12.33,60.33,27.07,78.13,42.64,16.53,14.46,24.92,29.13,24.92,43.59s-8.38,29.12-24.92,43.59c-17.8,15.57-44.82,30.31-78.13,42.64-34.65,12.82-75.13,22.9-120.3,29.97-47.05,7.36-97.06,11.1-148.65,11.1Z"/>
      <path class="cls-93" d="M1822.1,1707.09c-50.56,0-99.57-3.66-145.67-10.87-44.27-6.93-83.94-16.81-117.9-29.37-32.65-12.08-59.12-26.53-76.57-41.79-16.2-14.17-24.42-28.55-24.42-42.72s8.22-28.54,24.42-42.72c17.44-15.26,43.92-29.71,76.57-41.79,33.96-12.56,73.62-22.45,117.9-29.37,46.11-7.22,95.12-10.87,145.67-10.87s99.57,3.66,145.67,10.87c44.27,6.93,83.94,16.81,117.9,29.37,32.65,12.08,59.12,26.53,76.57,41.79,16.2,14.17,24.42,28.55,24.42,42.72s-8.22,28.54-24.42,42.72c-17.44,15.26-43.92,29.71-76.57,41.79-33.96,12.56-73.62,22.45-117.9,29.37-46.11,7.22-95.12,10.87-145.67,10.87Z"/>
      <path class="cls-81" d="M1822.1,1704.54c-49.52,0-97.54-3.58-142.7-10.65-43.37-6.79-82.23-16.47-115.49-28.78-31.98-11.83-57.92-25.99-75-40.93-15.87-13.89-23.92-27.96-23.92-41.84s8.05-27.96,23.92-41.84c17.09-14.95,43.02-29.1,75-40.93,33.26-12.31,72.12-21.99,115.49-28.78,45.17-7.07,93.18-10.65,142.7-10.65s97.54,3.58,142.7,10.65c43.37,6.79,82.23,16.47,115.49,28.78,31.98,11.83,57.92,25.99,75,40.93,15.87,13.89,23.92,27.96,23.92,41.84s-8.05,27.96-23.92,41.84c-17.09,14.95-43.02,29.1-75,40.93-33.26,12.31-72.12,21.99-115.49,28.78-45.17,7.07-93.18,10.65-142.7,10.65Z"/>
      <path class="cls-5" d="M1822.1,1702c-48.49,0-95.5-3.51-139.73-10.43-42.47-6.65-80.51-16.12-113.08-28.18-31.32-11.59-56.71-25.45-73.44-40.08-15.54-13.6-23.42-27.38-23.42-40.97s7.88-27.38,23.42-40.97c16.73-14.63,42.13-28.49,73.44-40.08,32.57-12.05,70.62-21.53,113.08-28.18,44.22-6.92,91.24-10.43,139.73-10.43s95.5,3.51,139.73,10.43c42.47,6.65,80.51,16.12,113.08,28.18,31.32,11.59,56.71,25.45,73.44,40.08,15.54,13.6,23.42,27.38,23.42,40.97s-7.88,27.38-23.42,40.97c-16.73,14.64-42.13,28.49-73.44,40.08-32.57,12.05-70.62,21.53-113.08,28.18-44.23,6.92-91.24,10.43-139.73,10.43Z"/>
      <path class="cls-56" d="M1822.1,1699.45c-47.46,0-93.47-3.43-136.76-10.21-41.56-6.5-78.8-15.78-110.68-27.58-30.65-11.34-55.5-24.9-71.88-39.23-15.21-13.31-22.93-26.8-22.93-40.1s7.71-26.79,22.93-40.1c16.38-14.32,41.23-27.89,71.88-39.23,31.88-11.79,69.12-21.07,110.68-27.58,43.28-6.77,89.3-10.21,136.76-10.21s93.47,3.43,136.76,10.21c41.56,6.5,78.8,15.78,110.68,27.58,30.65,11.34,55.5,24.9,71.88,39.23,15.21,13.31,22.93,26.8,22.93,40.1s-7.71,26.79-22.93,40.1c-16.38,14.32-41.23,27.89-71.88,39.23-31.88,11.79-69.12,21.07-110.68,27.58-43.28,6.77-89.3,10.21-136.76,10.21Z"/>
      <path class="cls-98" d="M1822.1,1696.91c-46.43,0-91.44-3.36-133.78-9.99-40.66-6.36-77.09-15.44-108.27-26.98-29.98-11.09-54.3-24.36-70.32-38.38-14.88-13.02-22.43-26.22-22.43-39.23s7.55-26.21,22.43-39.23c16.02-14.01,40.33-27.28,70.32-38.38,31.19-11.54,67.61-20.61,108.27-26.98,42.34-6.63,87.35-9.99,133.78-9.99s91.44,3.36,133.78,9.99c40.66,6.36,77.09,15.44,108.27,26.98,29.98,11.09,54.3,24.36,70.32,38.38,14.88,13.02,22.43,26.22,22.43,39.23s-7.55,26.21-22.43,39.23c-16.02,14.01-40.33,27.28-70.32,38.38-31.19,11.54-67.61,20.61-108.27,26.98-42.34,6.63-87.35,9.99-133.78,9.99Z"/>
      <path class="cls-64" d="M1822.1,1694.36c-45.4,0-89.41-3.29-130.81-9.76-39.76-6.22-75.38-15.1-105.87-26.38-29.32-10.85-53.09-23.82-68.76-37.52-14.55-12.73-21.93-25.63-21.93-38.36s7.38-25.63,21.93-38.36c15.66-13.7,39.44-26.68,68.76-37.52,30.49-11.28,66.11-20.16,105.87-26.38,41.4-6.48,85.41-9.76,130.81-9.76s89.41,3.28,130.81,9.76c39.76,6.22,75.37,15.1,105.87,26.38,29.32,10.85,53.09,23.82,68.76,37.52,14.55,12.73,21.93,25.63,21.93,38.36s-7.38,25.63-21.93,38.36c-15.66,13.7-39.44,26.68-68.76,37.52-30.49,11.28-66.11,20.16-105.87,26.38-41.4,6.48-85.41,9.76-130.81,9.76Z"/>
      <path class="cls-31" d="M1822.1,1691.81c-44.37,0-87.38-3.21-127.84-9.54-38.85-6.08-73.66-14.75-103.46-25.78-28.65-10.6-51.89-23.28-67.19-36.67-14.22-12.44-21.43-25.05-21.43-37.49s7.21-25.05,21.43-37.49c15.31-13.39,38.54-26.07,67.19-36.67,29.8-11.03,64.61-19.7,103.46-25.78,40.46-6.33,83.47-9.54,127.84-9.54s87.38,3.21,127.84,9.54c38.85,6.08,73.66,14.75,103.46,25.78,28.65,10.6,51.89,23.28,67.19,36.67,14.22,12.44,21.43,25.05,21.43,37.49s-7.21,25.05-21.43,37.49c-15.31,13.39-38.54,26.07-67.19,36.67-29.8,11.03-64.61,19.7-103.46,25.78-40.46,6.33-83.47,9.54-127.84,9.54Z"/>
      <path class="cls-58" d="M1822.1,1689.27c-43.33,0-85.35-3.14-124.87-9.32-37.95-5.94-71.95-14.41-101.06-25.18-27.98-10.35-50.68-22.74-65.63-35.82-13.89-12.15-20.93-24.47-20.93-36.61s7.04-24.47,20.93-36.61c14.95-13.08,37.65-25.46,65.63-35.82,29.11-10.77,63.11-19.24,101.06-25.18,39.52-6.18,81.53-9.32,124.87-9.32s85.35,3.14,124.87,9.32c37.95,5.94,71.95,14.41,101.06,25.18,27.98,10.35,50.68,22.74,65.63,35.82,13.89,12.15,20.93,24.47,20.93,36.61s-7.04,24.47-20.93,36.61c-14.95,13.08-37.65,25.46-65.63,35.82-29.11,10.77-63.11,19.24-101.06,25.18-39.52,6.18-81.53,9.32-124.87,9.32Z"/>
      <path class="cls-15" d="M1822.1,1686.72c-42.3,0-83.31-3.06-121.89-9.1-37.05-5.8-70.24-14.07-98.65-24.58-27.32-10.11-49.47-22.2-64.07-34.97-13.56-11.86-20.43-23.89-20.43-35.74s6.88-23.88,20.43-35.74c14.6-12.77,36.75-24.86,64.07-34.96,28.41-10.51,61.6-18.78,98.65-24.58,38.58-6.04,79.59-9.1,121.89-9.1s83.31,3.06,121.89,9.1c37.05,5.8,70.24,14.07,98.65,24.58,27.32,10.11,49.47,22.2,64.07,34.96,13.56,11.86,20.43,23.89,20.43,35.74s-6.87,23.88-20.43,35.74c-14.6,12.77-36.75,24.86-64.07,34.97-28.41,10.51-61.6,18.78-98.65,24.58-38.58,6.04-79.59,9.1-121.89,9.1Z"/>
      <path class="cls-32" d="M1822.1,1684.18c-41.27,0-81.28-2.99-118.92-8.88-36.14-5.66-68.52-13.72-96.25-23.98-26.65-9.86-48.27-21.66-62.51-34.11-13.23-11.57-19.94-23.3-19.94-34.87s6.71-23.3,19.94-34.87c14.24-12.46,35.85-24.25,62.51-34.11,27.72-10.26,60.1-18.32,96.25-23.98,37.64-5.89,77.65-8.88,118.92-8.88s81.28,2.99,118.92,8.88c36.14,5.66,68.52,13.72,96.24,23.98,26.65,9.86,48.27,21.66,62.51,34.11,13.23,11.57,19.94,23.3,19.94,34.87s-6.71,23.3-19.94,34.87c-14.24,12.46-35.85,24.25-62.51,34.11-27.72,10.26-60.1,18.32-96.24,23.98-37.64,5.89-77.65,8.88-118.92,8.88Z"/>
      <path class="cls-57" d="M1822.1,1681.63c-40.24,0-79.25-2.91-115.95-8.65-35.24-5.51-66.81-13.38-93.84-23.38-25.99-9.61-47.06-21.12-60.94-33.26-12.9-11.28-19.44-22.72-19.44-34s6.54-22.72,19.44-34c13.88-12.14,34.96-23.65,60.94-33.26,27.03-10,58.6-17.87,93.84-23.38,36.7-5.74,75.71-8.65,115.95-8.65s79.25,2.91,115.95,8.65c35.24,5.51,66.81,13.38,93.84,23.38,25.99,9.61,47.06,21.12,60.94,33.26,12.9,11.28,19.44,22.72,19.44,34s-6.54,22.72-19.44,34c-13.88,12.14-34.96,23.65-60.94,33.26-27.03,10-58.6,17.87-93.84,23.38-36.7,5.74-75.71,8.65-115.95,8.65Z"/>
      <path class="cls-50" d="M1822.1,1679.09c-39.21,0-77.22-2.84-112.98-8.43-34.34-5.37-65.1-13.04-91.43-22.78-25.32-9.37-45.85-20.57-59.38-32.41-12.57-10.99-18.94-22.14-18.94-33.13s6.37-22.14,18.94-33.13c13.53-11.83,34.06-23.04,59.38-32.41,26.34-9.74,57.1-17.41,91.43-22.78,35.76-5.6,73.77-8.43,112.98-8.43s77.22,2.84,112.98,8.43c34.34,5.37,65.1,13.04,91.43,22.78,25.32,9.37,45.85,20.57,59.38,32.41,12.57,10.99,18.94,22.14,18.94,33.13s-6.37,22.14-18.94,33.13c-13.53,11.83-34.06,23.04-59.38,32.41-26.34,9.74-57.1,17.41-91.43,22.78-35.76,5.6-73.77,8.43-112.98,8.43Z"/>
    </g>
    <g>
      <path class="cls-20" d="M2453.14,1735.73c-79.49,36.83-163.83,65.88-248.25,89.49-155.8,43.58-314.22,66.38-476.2,54.32-159.9-11.91-317.66-55.54-466.16-113.85-78.07-30.66-155.81-66.72-229.75-106.78-26.62-14.42-77.3-35.77-87.71-67.92-9.28-28.66,29.91-50.76,49.33-63.03,61.9-39.07,130.53-68.4,196.66-99,287.63-133.11,614.61-185.55,925.9-112.52,90.03,21.12,178.81,48.78,264.72,82.56,76.44,30.06,152.39,65.33,224.95,104.18,27.67,14.82,81.67,37.01,92.52,70.52,8.9,27.5-27.05,48.67-45.86,60.8-62.66,40.38-132.8,70.03-200.13,101.23Z"/>
      <g>
        <path class="cls-36" d="M1723.46,1619.57c-.08.03-.12.04-.19.07,92.11,2.84,184.52,3.31,276.5-3.08,72.54-5.04,148.95-13.51,217.08-37.88,12.67-4.53,37.6-13.02,26.88-30.33-8.75-14.13-36.8-21.61-51.27-26.25-58.42-18.72-127.73-25.12-187.41-8.82.08-.03.11-.04.19-.07,49.63-25.88-14.03-56.73-39.96-65.18-54.83-17.87-123.57-24.46-177.4-2.34-36.53,15.01-78.88,38.32-88.05,81.01-6.95,32.38,7.2,65.61,23.63,92.86Z"/>
        <path class="cls-36" d="M1675.8,1637.58c-.08.03-.11.04-.19.07,61.29-11.31,128.5-.47,190.18,2.36,85.55,3.93,171.98,5.31,256.78-8.5,13.39-2.18,7.64-8.85-6.71-7.78-80.89,6.04-162.26,6.63-243.33,4.86-47.98-1.04-101.98,2.22-149.07-9.04.08-.03.12-.04.19-.07-41.84-16.83-69.63-90.93-60.89-131.42,1.09-5.07-20.15-5.99-24.27-1.08-24.27,28.93-12.25,58.62,9.82,87.39,9.45,12.31,47.45,46.73,27.49,63.19Z"/>
        <path class="cls-36" d="M1603.88,1664.6c-.07.03-.11.04-.18.07,34.32-6.23,71.08-2.26,105.6-.05,54.81,3.52,109.53,8.33,164.37,11.5,115.84,6.71,238.44-.38,346.39-19.51,22.24-3.94-4.94-12.15-14.51-11.19-113.34,11.4-228.08,11.22-342.31,6.01-67.31-3.07-140.63-15.63-207.87-6.15.08-.03.11-.04.19-.07,13.8-16.66-31.22-57.53-39.82-68.68-26.73-34.64-32.78-82.11-32.64-115.54.04-8.91-29.86-6.75-36.6-2.51-19.69,12.4-39.25,31.79-36.29,58.52,2.51,22.76,19.36,42.58,34.06,58.94,10.8,12.02,83.66,70.31,59.61,88.65Z"/>
        <path class="cls-36" d="M1522.9,1694.44c-.07.03-.11.04-.18.06,40.13-12.12,88.88-4.6,129.76-1.66,73.08,5.26,145.98,12.66,219.11,17.24,147.45,9.22,302.79,11.47,444.75-35.56,9.19-3.05,1.41-6.78-10.4-5.04-149.5,22-300.03,24.4-450.94,15.29-57.63-3.48-115.13-8.58-172.73-12.41-32.13-2.14-67.36-6.7-99.24,0,.07-.03.11-.04.18-.07,24.91-15.29-51.42-78.95-60.94-89.36-39.36-43.03-67.43-93.78-33.34-146.96,2.53-3.95-11.26-5.31-18.39-1.72-27.13,13.68-68.75,35.8-67.46,71.96,1.02,28.61,28.15,54.85,46.75,74.08,12.76,13.2,118.63,97.01,73.05,114.15Z"/>
        <path class="cls-36" d="M2397.31,1691.01c-174.2,36.37-353.26,37.87-530.25,28.14-77.56-4.26-154.93-10.97-232.41-16.34-42.41-2.94-90.38-10.25-132.47-.9.07-.02.1-.04.17-.06,34.5-17.82-65-106.71-76.97-119.21-43.93-45.9-97.8-107.66-39.18-165.75,2.77-2.74-7.76-3.22-13.34-.53-37.07,17.89-114.03,48.8-120.58,98.12-4.7,35.39,35.92,63.03,60.44,80.7,19.44,14,183.66,104.13,114.16,132.43-.07.02-.11.03-.18.05,95.96-18.33,199.88,5.33,295.25,17.44,138.55,17.59,278.64,30.17,417.87,12.39,89.88-11.48,178.74-33.23,264.01-63.62,6.35-2.26,1.27-4.48-6.52-2.85Z"/>
      </g>
    </g>
  </g>
</svg>