<?xml version="1.0" encoding="UTF-8"?>
<svg id="Livello_1" data-name="Livello 1" xmlns="http://www.w3.org/2000/svg" viewBox="0 0 3155.36 2066.67">
  <defs>
    <style>
      .cls-1 {
        fill: #f4cd9c;
        stroke: #f4cd9c;
      }

      .cls-1, .cls-2, .cls-3, .cls-4, .cls-5, .cls-6, .cls-7, .cls-8, .cls-9, .cls-10, .cls-11, .cls-12, .cls-13, .cls-14, .cls-15, .cls-16, .cls-17, .cls-18, .cls-19, .cls-20, .cls-21, .cls-22, .cls-23, .cls-24, .cls-25, .cls-26, .cls-27, .cls-28, .cls-29 {
        stroke-miterlimit: 10;
        stroke-width: .09px;
      }

      .cls-2 {
        fill: #9b9ca2;
        stroke: #9b9ca2;
      }

      .cls-3 {
        fill: #f2cb9a;
        stroke: #f2cb9a;
      }

      .cls-4 {
        fill: #040303;
        stroke: #040303;
      }

      .cls-5 {
        fill: #707274;
        stroke: #707274;
      }

      .cls-6 {
        fill: #cfcfcf;
        stroke: #cfcfcf;
      }

      .cls-7 {
        fill: #020101;
        stroke: #020101;
      }

      .cls-8 {
        fill: #373737;
        stroke: #373737;
      }

      .cls-9 {
        fill: #080c0d;
        stroke: #080c0d;
      }

      .cls-10 {
        fill: #717375;
        stroke: #717375;
      }

      .cls-11 {
        fill: #a3a4a6;
        stroke: #a3a4a6;
      }

      .cls-12 {
        fill: #707070;
        stroke: #707070;
      }

      .cls-13 {
        fill: #2c2c2c;
        stroke: #2c2c2c;
      }

      .cls-14 {
        fill: #744427;
        stroke: #744427;
      }

      .cls-15 {
        fill: #515355;
        stroke: #515355;
      }

      .cls-16 {
        fill: #030202;
        stroke: #030202;
      }

      .cls-17 {
        fill: #222526;
        stroke: #222526;
      }

      .cls-18 {
        fill: #31353a;
        stroke: #31353a;
      }

      .cls-19 {
        fill: #0a0e0f;
        stroke: #0a0e0f;
      }

      .cls-20 {
        stroke: #000;
      }

      .cls-21 {
        fill: #010101;
        stroke: #010101;
      }

      .cls-22 {
        fill: #131416;
        stroke: #131416;
      }

      .cls-23 {
        fill: #33373a;
        stroke: #33373a;
      }

      .cls-24 {
        fill: #0f0f0f;
        stroke: #0f0f0f;
      }

      .cls-25 {
        fill: #d0d0d0;
        stroke: #d0d0d0;
      }

      .cls-26 {
        fill: #707173;
        stroke: #707173;
      }

      .cls-27 {
        fill: #010000;
        stroke: #010000;
      }

      .cls-28 {
        fill: #333639;
        stroke: #333639;
      }

      .cls-29 {
        fill: #707175;
        stroke: #707175;
      }
    </style>
  </defs>
  <g>
    <path class="cls-9" d="M1107.06.05h52.04c14.31,4.55,28.3,9.76,42.29,15.61-2.28,1.3-6.83,3.9-9.11,5.2-23.42-13.99-53.02-14.64-79.37-10.73-15.61,4.23-19.84,22.77-27.97,34.8,3.25-.98,6.83-1.95,10.41-2.93,0,23.75-5.53,48.79,4.55,71.56,19.19,43.59,46.84,82.62,72.54,122.63,56.92,84.57,118.07,175,213.71,218.91,89.78,40.98,190.61,16.59,282.99-2.28,16.59-3.58,33.18-7.48,48.79-13.66,23.42,9.11,48.79,18.22,64.08,39.36,26.67,32.2,30.58,76.11,52.04,110.92,19.52,26.02,48.14,43.91,63.43,73.19,33.83,58.22,67.33,117.1,94.66,178.58,28.3,68.63,58.22,136.62,96.61,200.04-24.72,12.69-51.07,21.79-77.09,31.23,55.62-1.63,115.47-9.76,160.36-45.86,20.49-16.59,45.86-32.85,52.69-60.5,8.46-24.4,20.82-46.84,29.27-71.24.98-10.73-2.28-21.14-5.2-31.55,10.41-8.13,20.49-16.91,31.23-25.05-.65,35.45,5.2,72.21-8.13,106.36-15.29,56.92-66.03,93.35-112.22,125.23-46.19,33.18-103.76,54-161.01,44.56-72.54-17.24-132.06-64.4-200.37-90.75,23.09,31.23,52.04,57.57,76.11,88.15,81.97,101.16,186.06,183.13,298.28,248.18,99.21,59.2,209.8,96.28,320.4,128.48,125.88,35.78,252.74,69.93,373.74,121,34.8,13.99,69.93,29.93,107.99,31.55,24.72,2.6,49.12-4.88,71.56-14.31-11.38-53.67-41.64-101.81-80.02-139.54-60.83-62.45-141.82-97.91-220.86-130.76-37.41-16.26-77.74-27.32-111.24-51.39-56.92-40.66-112.22-84.9-155.81-140.19-43.91-55.95-80.99-117.1-111.57-181.18-28.3-49.77-48.79-102.79-74.49-153.53,28.95-14.96,59.2-27.97,86.52-46.51,22.77,29.93,48.14,57.9,69.28,89.13,13.66,24.72,23.09,51.39,39.03,74.81l-1.95-1.95c-15.29-14.64-29.27-31.88-49.12-40.98-16.59-7.81-34.8-11.71-52.37-16.91,58.55,91.4,147.67,158.08,208.83,247.53,27,38.38,49.77,81.32,87.82,110.59,91.08,69.28,206.55,98.88,291.77,176.95,35.78,33.5,67.33,72.21,94.33,113.52,23.42,36.43,35.13,79.04,38.38,121.65-20.82,13.99-41.31,29.27-64.73,38.38-56.27,15.94-115.15,3.58-170.44-8.78-117.75-27.65-238.1-40.33-356.5-63.1-131.41-25.7-262.5-53.02-392.61-85.87-71.24-19.84-143.12-46.51-200.04-95.63-61.15-48.14-106.36-112.55-147.67-177.27-80.67-131.74-175.32-257.94-298.93-351.95-27.65-24.4-68.96-17.24-101.16-7.16-3.9-7.81-7.48-15.61-11.06-23.42-15.29,14.31-30.9,28.3-44.56,44.24,3.58-7.48,6.83-15.29,11.38-22.44,8.78-9.76,18.22-18.87,27.65-27.97-59.85-51.39-117.75-106.04-184.76-148.65-67.33-44.89-145.07-74.16-205.25-129.78-33.5-28.62-61.15-62.78-90.43-95.63,10.41-101.49,57.57-193.86,107.34-281.04,16.59-28.95,35.13-57.25,43.26-89.78-20.82,10.41-40.66,23.75-56.27,41.31,27.97-43.59,55.3-87.5,85.55-129.46,14.64-17.24,31.88-32.53,51.39-43.91M1071.93,111.94c-12.04,22.77-34.8,44.56-29.27,72.21,16.26,57.25,46.84,108.64,79.69,157.43h13.01c11.06-38.71,21.14-81.97,3.25-120.35-18.54-38.71-42.94-73.84-66.68-109.29M928.81,391.68c-2.93,39.68-3.58,83.6,18.22,118.73,35.13,59.85,88.15,109.29,149.95,140.52-9.43-51.39-28.3-103.11-19.84-156.13,1.3-34.15,13.01-66.36,20.17-99.53,9.11-30.9-13.01-55.3-27-79.69-20.17-31.23-35.78-65.06-50.74-99.21-47.49,46.84-82.62,108.64-90.75,175.32h0Z"/>
    <path class="cls-3" d="M1112.91,10.13c26.35-3.9,55.95-3.25,79.37,10.73,14.96,10.08,29.27,20.82,44.24,30.9-33.5-18.87-71.24-32.85-110.27-28.3-12.36,2.28-21.79,11.06-30.9,18.54-3.58.98-7.16,1.95-10.41,2.93,8.13-12.04,12.36-30.58,27.97-34.8h0Z"/>
    <path class="cls-27" d="M1192.28,20.86c2.28-1.3,6.83-3.9,9.11-5.2,127.18,62.13,220.21,173.7,337.31,251.11,54.65,39.36,117.1,65.38,178.9,91.4,12.69,5.85,28.3,7.81,38.71-3.9,55.95-38.38,113.52-81.32,183.78-85.87,8.46,17.56,17.24,35.13,26.02,52.69,15.61-10.08,39.36-19.19,53.67-1.95,27.65,27.65,50.74,59.53,76.11,89.13,36.11,57.25,71.89,114.5,114.5,167.19-18.22,11.06-36.11,22.12-54,33.5-13.66-27.32-26.02-55.3-44.24-80.02-4.55-6.18-12.04-9.11-18.87-12.36,14.31-9.11,28.3-18.22,41.96-28.3-16.91,3.58-34.15,7.48-51.07,11.38-8.78-25.7-24.4-47.49-41.96-67.66,16.26-10.73,32.85-20.82,48.14-32.85-39.68-.33-71.24,26.67-99.86,50.74-38.06-21.47-82.29-21.79-123.93-31.55-50.42-13.99-101.16,4.23-148.65,20.82-15.61,6.18-32.2,10.08-48.79,13.66,8.78-12.69,17.24-25.37,26.02-38.06,10.08-13.66,20.82-26.67,32.53-39.03-42.61-15.29-84.25-32.85-124.91-52.69-77.09-40.98-144.75-97.26-211.75-152.55-49.44-40.66-96.28-85.87-152.55-117.42l-1.95-1.3c-14.96-10.08-29.27-20.82-44.24-30.9h0Z"/>
    <path class="cls-14" d="M1095.35,42.01c9.11-7.48,18.54-16.26,30.9-18.54,39.03-4.55,76.76,9.43,110.27,28.3l1.95,1.3c81.97,58.55,139.54,142.8,207.2,215.66,41.96,39.03,93.03,65.71,141.17,96.28,34.15,20.17,69.61,40.01,108.32,49.77-8.78,12.69-17.24,25.37-26.02,38.06-92.38,18.87-193.21,43.26-282.99,2.28-95.63-43.91-156.78-134.34-213.71-218.91-25.7-40.01-53.35-79.04-72.54-122.63-10.08-22.77-4.55-47.82-4.55-71.56h0Z"/>
    <path class="cls-1" d="M1238.47,53.07c56.27,31.55,103.11,76.76,152.55,117.42,67.01,55.3,134.66,111.57,211.75,152.55,40.66,19.84,82.29,37.41,124.91,52.69-11.71,12.36-22.44,25.37-32.53,39.03-38.71-9.76-74.16-29.6-108.32-49.77-48.14-30.58-99.21-57.25-141.17-96.28-67.66-72.86-125.23-157.11-207.2-215.66h0Z"/>
    <path class="cls-10" d="M1071.93,111.94c23.75,35.45,48.14,70.58,66.68,109.29,17.89,38.38,7.81,81.64-3.25,120.35h-13.01c-32.85-48.79-63.43-100.18-79.69-157.43-5.53-27.65,17.24-49.44,29.27-72.21h0Z"/>
    <path class="cls-5" d="M970.12,173.42c15.61-17.56,35.45-30.9,56.27-41.31-8.13,32.53-26.67,60.83-43.26,89.78-49.77,87.17-96.93,179.55-107.34,281.04-4.23,35.46-5.2,72.54,7.81,106.69,11.06,39.36,39.03,70.58,67.33,99.21-35.78-26.35-72.86-54.97-93.68-95.31-16.59-49.44-10.73-102.79-6.83-153.86,9.11-73.84,42.61-141.17,77.09-205.57,12.69-22.77,27.32-44.56,35.78-69.28,2.28-3.9,4.55-7.81,6.83-11.38h0Z"/>
    <path class="cls-21" d="M847.81,421.93c19.19-86.85,60.83-167.52,115.47-237.13-8.46,24.72-23.09,46.51-35.78,69.28-34.48,64.4-67.98,131.74-77.09,205.57-3.9,51.07-9.76,104.41,6.83,153.86,20.82,40.33,57.9,68.96,93.68,95.31,7.81,7.16,15.29,14.64,23.09,22.12,46.19,44.89,104.41,73.51,158.08,108.32,59.85,36.11,112.22,83.27,173.37,118.07,3.58-10.08,7.16-20.17,11.71-29.93,13.66-15.94,29.27-29.93,44.56-44.24,3.58,7.81,7.16,15.61,11.06,23.42-15.61,14.31-29.93,30.25-41.31,48.14,106.69,50.09,197.77,129.46,269.33,222.16,57.25,73.84,112.87,148.98,180.85,213.06,94.33,98.23,216.31,164.91,341.86,214.36,164.26,64.08,337.31,99.86,510.36,130.76,107.02,18.54,215.66,32.2,324.3,29.93,45.86-.33,93.35-9.43,132.71-34.15,7.48-5.53,14.96-11.38,22.44-16.91-1.63,12.36-3.9,27-16.59,32.85-56.6,33.5-124.58,28.3-186.38,44.24-141.17-7.81-281.69-27.32-419.93-55.95-106.36-22.77-213.71-45.21-315.19-84.9-71.56-27-141.82-56.92-209.48-92.7-50.74-36.43-106.04-66.03-153.85-106.69-60.18-54-113.85-114.82-162.96-178.9-101.81-129.78-239.73-224.11-376.67-313.24-83.6-56.92-168.49-112.55-250.14-172.07-42.61-30.9-89.45-56.6-126.21-94.98-21.79-23.42-43.26-47.49-69.93-65.71,22.44-66.03,6.83-136.94,21.79-203.95h0Z"/>
    <path class="cls-29" d="M928.81,391.68c8.13-66.68,43.26-128.48,90.75-175.32,14.96,34.15,30.58,67.98,50.74,99.21,13.99,24.4,36.11,48.79,27,79.69-7.16,33.18-18.87,65.38-20.17,99.53-8.46,53.02,10.41,104.74,19.84,156.13-61.8-31.23-114.82-80.67-149.95-140.52-21.79-35.13-21.14-79.04-18.22-118.73h0Z"/>
    <path class="cls-11" d="M1990.5,449.9c28.62-24.07,60.18-51.07,99.86-50.74-15.29,12.04-31.88,22.12-48.14,32.85-7.48,5.53-27,24.4-27,24.4-4.23,4.23-8.46,8.46-12.69,12.69,15.29,18.87,31.55,36.76,46.51,56.27-14.31,10.73-27.97,22.12-41.64,34.15-8.78,4.55-17.89,7.81-27.32,10.73-3.25.98-6.51,1.95-9.43,2.93-1.63,16.91,5.2,32.2,16.59,44.24,1.95-1.3,5.85-3.9,7.81-5.2,22.44-13.01,35.78-35.78,51.39-55.62,29.27,14.31,63.11,89.69,52.7,95.55-12.69,5.53-41.31,15.37-54,19.92,3.58,8.78,6.18,18.54,12.36,25.7,8.46,6.51,19.52,8.13,28.62,12.69,14.96-22.12,32.2-42.61,52.37-59.85,2.93,2.28,6.18,4.55,9.11,6.83,15.94,29.27,38.06,54.65,60.5,79.37-18.22,10.08-35.45,21.79-54.65,29.93-12.69,3.58-26.02,5.85-39.03,8.78.33,20.82,15.61,32.85,32.53,41.64,21.14-23.75,45.54-44.89,75.14-58.22,4.55,5.2,9.11,10.41,13.34,15.94,1.95,3.58,3.9,7.16,5.53,10.73,3.9,8.13,7.81,16.59,11.71,24.72.33.98.98,2.6,1.3,3.58.33,6.18.33,12.69.33,18.87-13.99,10.08-27.97,19.84-41.31,30.58-14.64,3.9-29.6,6.51-44.56,9.76,4.55,13.66,9.76,27,15.94,40.01,16.26-12.04,32.53-24.72,48.47-37.41,5.53-3.9,10.73-8.13,15.94-12.36,2.93,10.41,6.18,20.82,5.2,31.55-8.46,24.4-20.82,46.84-29.27,71.24-6.83,27.65-32.2,43.91-52.69,60.5-44.89,36.11-104.74,44.24-160.36,45.86,26.02-9.43,52.37-18.54,77.09-31.23-38.38-63.43-68.31-131.41-96.61-200.04-27.32-61.48-60.83-120.35-94.66-178.58-15.29-29.27-43.91-47.16-63.43-73.19-21.47-34.8-25.37-78.72-52.04-110.92-15.29-21.14-40.66-30.25-64.08-39.36,47.49-16.59,98.23-34.8,148.65-20.82,41.64,9.76,85.87,10.08,123.93,31.55M1912.76,481.45c-15.94,7.48-11.71,29.93-14.31,43.26,23.09-14.31,44.56-30.25,64.73-48.14-16.91,1.63-34.15.98-50.42,4.88M1941.71,521.46c2.93,6.83,5.85,13.66,8.78,20.49,17.24-13.34,27.97-32.53,30.9-54.32-13.01,11.38-26.35,22.77-39.68,33.83h0Z"/>
    <path class="cls-12" d="M2042.22,432.01c17.56,20.17,33.18,41.96,41.96,67.66,16.91-3.9,34.15-7.81,51.07-11.38-13.66,10.08-27.65,19.19-41.96,28.3,6.83,3.25,14.31,6.18,18.87,12.36,18.22,24.72,30.58,52.69,44.24,80.02,17.89-11.38,35.78-22.44,54-33.5.65.98,1.95,2.93,2.93,3.9-12.04,14.96-27.97,26.67-38.38,42.61,12.36,36.76,38.06,67.01,57.57,100.18,22.44-12.04,45.21-24.72,69.93-30.58-11.06,23.74-40.01,30.9-60.83,44.24,13.99,26.35,24.07,54.65,31.23,83.92,30.9-20.17,65.38-34.8,102.14-40.33.98.98,2.93,3.25,3.9,4.23-27.32,18.54-57.57,31.55-86.52,46.51-4.55,2.28-8.46,5.2-12.36,8.13-10.73,8.13-20.82,16.91-31.23,25.05-5.2,4.23-10.41,8.46-15.94,12.36-10.08,3.25-20.17,6.18-30.58,9.11,3.58-7.16,7.16-14.31,10.73-21.47,13.34-10.73,45.54-42.94,40.98-49.44-.33-.98-.98-2.6-1.3-3.58-3.25-8.46-7.16-16.59-11.71-24.72-1.63-3.58-3.58-7.16-5.53-10.73-2.6-11.71-61.15-.98-88.15,15.94,1.95-8.13,4.23-15.94,6.18-24.07,19.19-8.13,36.43-19.84,54.65-29.93-22.44-24.72-44.56-50.09-60.5-79.37-2.6-5.86-4.88-12.04-7.16-17.89-20.17,13.34-38.71,29.6-58.22,44.24.65-8.46,1.3-16.91,1.63-25.37,10.41-5.85,2.85-74-37.41-101.81-16.59,11.06-32.2,23.42-49.77,33.18,3.25-10.41,6.51-20.49,10.73-30.25,13.66-12.04,27.32-23.42,41.64-34.15,5.2-3.58,10.73-6.51,15.94-9.43-18.54-17.56-41.96-33.5-49.77-59.53M2079.63,527.64c-7.16,3.25,4.23-1.95,0,0M2129.72,604.08c3.58,7.16,5.2,6.18,0,0M2211.04,720.53c-2.6,3.58,5.85-1.63,0,0h0Z"/>
    <path class="cls-28" d="M2002.54,469.09c4.23-4.23,8.46-8.46,12.69-12.69,7.81,26.02,31.23,41.96,49.77,59.53-5.2,2.93-10.73,5.85-15.94,9.43-14.96-19.52-31.23-37.41-46.51-56.27h0Z"/>
    <path class="cls-16" d="M1912.76,481.45c16.26-3.9,33.5-3.25,50.42-4.88-20.17,17.89-41.64,33.83-64.73,48.14,2.6-13.34-1.63-35.78,14.31-43.26h0Z"/>
    <path class="cls-7" d="M1941.71,521.46c13.34-11.06,26.67-22.44,39.68-33.83-2.93,21.79-13.66,40.98-30.9,54.32-2.93-6.83-5.85-13.66-8.78-20.49h0Z"/>
    <path class="cls-23" d="M883.59,609.61c-13.01-34.15-12.04-71.23-7.81-106.69,29.27,32.85,56.92,67.01,90.43,95.63,60.18,55.62,137.92,84.9,205.25,129.78,67.01,42.61,124.91,97.26,184.76,148.65-9.43,9.11-18.87,18.22-27.65,27.97-12.36.65-26.35,1.63-35.45-8.46-72.21-61.48-151.58-114.82-235.82-158.08-25.05-14.96-55.62-12.69-83.27-7.48-7.81-7.48-15.29-14.96-23.09-22.12-28.3-28.62-56.27-59.85-67.33-99.21h0Z"/>
    <path class="cls-4" d="M1996.68,589.77c17.56-9.76,33.18-22.12,49.77-33.18-15.61,19.84-28.95,42.61-51.39,55.62-5.2-13.99-10.41-27.65-14.96-41.96,9.43-2.93,18.54-6.18,27.32-10.73-4.23,9.76-7.48,19.84-10.73,30.25h0Z"/>
    <path class="cls-22" d="M1970.66,573.18c2.93-.98,6.18-1.95,9.43-2.93,4.55,14.31,9.76,27.97,14.96,41.96-1.95,1.3-5.85,3.9-7.81,5.2-11.38-12.04-18.22-27.32-16.59-44.24h0Z"/>
    <path class="cls-7" d="M2213.31,579.36c27.65,37.73,52.04,78.39,87.17,109.94l1.95,2.28c-24.72,5.85-47.49,18.54-69.93,30.58-19.52-33.18-45.21-63.43-57.57-100.18,10.41-15.94,26.35-27.65,38.38-42.61h0Z"/>
    <path class="cls-8" d="M817.24,655.8c2.6-10.08,5.53-20.17,8.78-29.93,26.67,18.22,48.14,42.29,69.93,65.71,36.76,38.38,83.6,64.08,126.21,94.98,81.64,59.53,166.54,115.15,250.14,172.07-5.53,12.04-10.73,24.07-14.96,36.76-11.06,46.51-17.56,94-28.95,140.52-70.26-38.38-134.99-85.87-203.3-127.83-41.96-25.37-81.97-54-118.73-85.87-35.45-30.58-77.09-56.27-102.79-95.96-13.99-19.19-9.43-44.24-2.93-65.05,10.08-34.15,16.91-69.61,16.59-105.39h0Z"/>
    <path class="cls-27" d="M2082.23,683.77c19.52-14.64,38.06-30.9,58.22-44.24,2.28,5.86,4.55,12.04,7.16,17.89-2.93-2.28-6.18-4.55-9.11-6.83-20.17,17.24-37.41,37.73-52.37,59.85-9.11-4.55-20.17-6.18-28.62-12.69-6.18-7.16-8.78-16.91-12.36-25.7,12.69-4.55,26.02-8.13,38.71-13.66-.33,8.46-.98,16.91-1.63,25.37h0Z"/>
    <path class="cls-24" d="M817.24,655.8c.33,35.78-6.51,71.24-16.59,105.39-6.51,20.82-11.06,45.86,2.93,65.05,25.7,39.68,67.33,65.38,102.79,95.96,36.76,31.88,76.76,60.5,118.73,85.87,68.31,41.96,133.04,89.45,203.3,127.83,11.38-46.51,17.89-94,28.95-140.52,13.34,21.14,29.27,40.98,49.77,55.95,31.88,24.72,63.1,50.09,92.7,76.76-33.83,11.06-68.96,19.52-102.14,33.18-28.95,11.38-58.22,27.32-90.43,25.7-20.17-5.85-38.06-17.56-55.95-28.62-92.05-59.2-188.01-113.2-272.58-182.8-37.41-31.23-72.54-64.4-107.67-98.23v-42.29c15.94-59.53,24.72-121.33,46.19-179.23h0Z"/>
    <path class="cls-9" d="M2300.49,689.3c25.37,29.6,47.82,61.8,74.49,90.1-36.76,5.53-71.24,20.17-102.14,40.33-7.16-29.27-17.24-57.57-31.23-83.92,20.82-13.34,49.77-20.49,60.83-44.24l-1.95-2.28h0Z"/>
    <path class="cls-15" d="M974.02,730.94c27.65-5.2,58.22-7.48,83.27,7.48,84.25,43.26,163.61,96.61,235.82,158.08,9.11,10.08,23.09,9.11,35.45,8.46-4.55,7.16-7.81,14.96-11.38,22.44-4.55,9.76-8.13,19.84-11.71,29.93-61.15-34.8-113.52-81.97-173.37-118.07-53.67-34.8-111.89-63.43-158.08-108.32h0Z"/>
    <path class="cls-9" d="M2147.28,790.79c27-16.91,85.55-27.65,88.15-15.94-4.23-5.53-8.78-10.73-13.34-15.94-29.6,13.34-54,34.48-75.14,58.22-16.91-8.78-32.2-20.82-32.53-41.64,13.01-2.93,26.35-5.2,39.03-8.78-1.95,8.13-4.23,15.94-6.18,24.07h0Z"/>
    <path class="cls-17" d="M2240.96,785.59c4.55,8.13,3.9,8.13,0,0h0Z"/>
    <path class="cls-2" d="M2280,838.28c3.9-2.93,7.81-5.85,12.36-8.13,25.7,50.74,46.19,103.76,74.49,153.53,30.58,64.08,67.66,125.23,111.57,181.18,43.59,55.3,98.88,99.53,155.81,140.19,33.5,24.07,73.84,35.13,111.24,51.39,79.04,32.85,160.03,68.31,220.86,130.76,38.38,37.73,68.63,85.87,80.02,139.54-22.44,9.43-46.84,16.91-71.56,14.31-38.06-1.63-73.19-17.56-107.99-31.55-121-51.07-247.86-85.22-373.74-121-110.59-32.2-221.19-69.28-320.4-128.48-112.22-65.05-216.31-147.02-298.28-248.18-24.07-30.58-53.02-56.92-76.11-88.15,68.31,26.35,127.83,73.51,200.37,90.75,57.25,9.43,114.82-11.38,161.01-44.56,46.19-31.88,96.93-68.31,112.22-125.23,13.34-34.15,7.48-70.91,8.13-106.36M2260.15,991.81c-9.43,17.56-27,33.18-24.72,55.3,6.83,38.71,24.4,74.49,38.38,110.92,22.12,57.9,53.35,112.55,94.98,158.73,70.91,71.56,168.82,106.69,263.8,133.04,73.19,19.52,143.12,48.47,213.71,76.11,27.97,12.36,59.53,7.48,88.8,9.43-7.81-13.66-15.61-27.97-28.3-37.73-61.8-48.79-141.17-63.43-210.78-97.26-84.57-29.6-178.9-51.39-240.7-121.33-63.75-73.19-94-167.84-125.56-258.27-9.43-27.65-18.54-55.95-34.8-80.99-14.96,14.64-22.44,35.13-34.8,52.04h0Z"/>
    <path class="cls-19" d="M2168.43,873.08c14.96-3.25,29.93-5.85,44.56-9.76-3.58,7.16-7.16,14.31-10.73,21.47,10.41-2.93,20.49-5.85,30.58-9.11-15.94,12.69-32.2,25.37-48.47,37.41-6.18-13.01-11.38-26.35-15.94-40.01h0Z"/>
    <path class="cls-26" d="M2383.76,887.72c17.57,5.2,35.78,9.11,52.37,16.91,19.84,9.11,33.83,26.35,49.12,40.98,12.36,24.72,27.97,47.49,47.49,67.33,71.24,76.11,145.4,151.58,232.57,209.8,107.02,73.19,219.56,146.05,295.67,254.04,11.38,15.94,25.05,30.25,39.68,43.26,27.32,45.86,34.8,102.14,20.82,153.85-2.93,13.34-6.18,26.35-8.13,40.01-7.48,5.53-14.96,11.38-22.44,16.91,7.16-23.75,14.96-47.82,13.99-72.86-3.25-42.61-14.96-85.22-38.38-121.65-27-41.31-58.55-80.02-94.33-113.52-85.22-78.07-200.69-107.67-291.77-176.95-38.06-29.27-60.83-72.21-87.82-110.59-61.15-89.45-150.28-156.13-208.83-247.53h0Z"/>
    <path class="cls-18" d="M1372.81,906.59c32.2-10.08,73.51-17.24,101.16,7.16,123.6,94,218.26,220.21,298.93,351.95,41.31,64.73,86.52,129.13,147.67,177.27,56.92,49.12,128.81,75.79,200.04,95.63,130.11,32.85,261.2,60.18,392.61,85.87,118.4,22.77,238.75,35.45,356.5,63.1,55.3,12.36,114.17,24.72,170.44,8.78,23.42-9.11,43.91-24.4,64.73-38.38.98,25.05-6.83,49.12-13.99,72.86-39.36,24.72-86.85,33.83-132.71,34.15-108.64,2.28-217.28-11.38-324.3-29.93-173.05-30.9-346.09-66.68-510.36-130.76-125.56-49.44-247.53-116.12-341.86-214.36-67.98-64.08-123.6-139.22-180.85-213.06-71.56-92.7-162.64-172.07-269.33-222.16,11.38-17.89,25.7-33.83,41.31-48.14h0Z"/>
    <path class="cls-25" d="M2260.15,991.81c12.36-16.91,19.84-37.41,34.8-52.04,16.26,25.05,25.37,53.35,34.8,80.99,31.55,90.43,61.8,185.08,125.56,258.27,61.8,69.93,156.13,91.73,240.7,121.33,69.61,33.83,148.98,48.47,210.78,97.26,12.69,9.76,20.49,24.07,28.3,37.73-29.27-1.95-60.83,2.93-88.8-9.43-70.58-27.65-140.52-56.6-213.71-76.11-94.98-26.35-192.89-61.48-263.8-133.04-41.64-46.19-72.86-100.84-94.98-158.73-13.99-36.43-31.55-72.21-38.38-110.92-2.28-22.12,15.29-37.73,24.72-55.3h0Z"/>
    <path class="cls-20" d="M2485.24,945.62l1.95,1.95c43.59,36.76,79.37,81.32,121,120.03,51.39,48.47,104.09,96.28,161.99,137.27,72.86,52.69,148.98,101.16,216.31,161.01,47.49,43.26,89.45,94.33,114.17,154.18-14.64-13.01-28.3-27.32-39.68-43.26-76.11-107.99-188.66-180.85-295.67-254.04-87.17-58.22-161.34-133.69-232.57-209.8-19.52-19.84-35.13-42.61-47.49-67.33h0Z"/>
    <path class="cls-13" d="M1272.3,958.63c136.94,89.13,274.86,183.45,376.67,313.24,49.12,64.08,102.79,124.91,162.96,178.9,47.82,40.66,103.11,70.26,153.85,106.69-38.71-17.24-75.14-40.01-115.8-52.04,29.27,28.95,65.38,50.09,101.81,68.96,125.88,69.93,263.8,115.47,403.34,149.63,133.04,33.83,268.68,56.27,404.97,73.19,66.68,8.46,134.34,10.08,201.35,3.58-16.91-3.9-34.15-7.48-51.07-9.76,61.8-15.94,129.78-10.73,186.38-44.24,12.69-5.85,14.96-20.49,16.59-32.85,1.95-13.66,5.2-26.67,8.13-40.01,11.06,12.04,22.44,23.75,33.83,35.13v49.77c-9.76,24.07-25.37,47.16-50.09,58.22-57.57,29.27-123.6,31.55-186.38,43.59h-90.1c-84.9-16.59-171.09-23.09-256.32-38.38-181.18-29.6-360.73-72.86-532.8-137.27-67.98-21.47-129.13-59.2-188.66-97.58-44.89-30.25-90.75-60.18-127.18-100.51-59.53-63.75-106.36-137.92-162.96-204.6-49.12-55.95-103.11-107.02-161.01-154.18-29.6-26.67-60.83-52.04-92.7-76.76-20.49-14.96-36.43-34.8-49.77-55.95,4.23-12.69,9.43-24.72,14.96-36.76h0Z"/>
    <path class="cls-6" d="M1849.98,1505.42c40.66,12.04,77.09,34.8,115.8,52.04,67.66,35.78,137.92,65.71,209.48,92.7,101.49,39.68,208.83,62.13,315.19,84.9,138.24,28.62,278.76,48.14,419.93,55.95,16.91,2.28,34.15,5.85,51.07,9.76-67.01,6.51-134.66,4.88-201.35-3.58-136.29-16.91-271.93-39.36-404.97-73.19-139.54-34.15-277.46-79.69-403.34-149.63-36.43-18.87-72.54-40.01-101.81-68.96h0Z"/>
  </g>
  <g>
    <path class="cls-9" d="M336.06,206.05h52.04c14.31,4.55,28.3,9.76,42.29,15.61-2.28,1.3-6.83,3.9-9.11,5.2-23.42-13.99-53.02-14.64-79.37-10.73-15.61,4.23-19.84,22.77-27.97,34.8,3.25-.98,6.83-1.95,10.41-2.93,0,23.75-5.53,48.79,4.55,71.56,19.19,43.59,46.84,82.62,72.54,122.63,56.92,84.57,118.07,175,213.71,218.91,89.78,40.98,190.61,16.59,282.99-2.28,16.59-3.58,33.18-7.48,48.79-13.66,23.42,9.11,48.79,18.22,64.08,39.36,26.67,32.2,30.58,76.11,52.04,110.92,19.52,26.02,48.14,43.91,63.43,73.19,33.83,58.22,67.33,117.1,94.66,178.58,28.3,68.63,58.22,136.62,96.61,200.04-24.72,12.69-51.07,21.79-77.09,31.23,55.62-1.63,115.47-9.76,160.36-45.86,20.49-16.59,45.86-32.85,52.69-60.5,8.46-24.4,20.82-46.84,29.27-71.24.98-10.73-2.28-21.14-5.2-31.55,10.41-8.13,20.49-16.91,31.23-25.05-.65,35.45,5.2,72.21-8.13,106.36-15.29,56.92-66.03,93.35-112.22,125.23-46.19,33.18-103.76,54-161.01,44.56-72.54-17.24-132.06-64.4-200.37-90.75,23.09,31.23,52.04,57.57,76.11,88.15,81.97,101.16,186.06,183.13,298.28,248.18,99.21,59.2,209.8,96.28,320.4,128.48,125.88,35.78,252.74,69.93,373.74,121,34.8,13.99,69.93,29.93,107.99,31.55,24.72,2.6,49.12-4.88,71.56-14.31-11.38-53.67-41.64-101.81-80.02-139.54-60.83-62.45-141.82-97.91-220.86-130.76-37.41-16.26-77.74-27.32-111.24-51.39-56.92-40.66-112.22-84.9-155.81-140.19-43.91-55.95-80.99-117.1-111.57-181.18-28.3-49.77-48.79-102.79-74.49-153.53,28.95-14.96,59.2-27.97,86.52-46.51,22.77,29.93,48.14,57.9,69.28,89.13,13.66,24.72,23.09,51.39,39.03,74.81l-1.95-1.95c-15.29-14.64-29.27-31.88-49.12-40.98-16.59-7.81-34.8-11.71-52.37-16.91,58.55,91.4,147.67,158.08,208.83,247.53,27,38.38,49.77,81.32,87.82,110.59,91.08,69.28,206.55,98.88,291.77,176.95,35.78,33.5,67.33,72.21,94.33,113.52,23.42,36.43,35.13,79.04,38.38,121.65-20.82,13.99-41.31,29.27-64.73,38.38-56.27,15.94-115.15,3.58-170.44-8.78-117.75-27.65-238.1-40.33-356.5-63.1-131.41-25.7-262.5-53.02-392.61-85.87-71.24-19.84-143.12-46.51-200.04-95.63-61.15-48.14-106.36-112.55-147.67-177.27-80.67-131.74-175.32-257.94-298.93-351.95-27.65-24.4-68.96-17.24-101.16-7.16-3.9-7.81-7.48-15.61-11.06-23.42-15.29,14.31-30.9,28.3-44.56,44.24,3.58-7.48,6.83-15.29,11.38-22.44,8.78-9.76,18.22-18.87,27.65-27.97-59.85-51.39-117.75-106.04-184.76-148.65-67.33-44.89-145.07-74.16-205.25-129.78-33.5-28.62-61.15-62.78-90.43-95.63,10.41-101.49,57.57-193.86,107.34-281.04,16.59-28.95,35.13-57.25,43.26-89.78-20.82,10.41-40.66,23.75-56.27,41.31,27.97-43.59,55.3-87.5,85.55-129.46,14.64-17.24,31.88-32.53,51.39-43.91M300.93,317.94c-12.04,22.77-34.8,44.56-29.27,72.21,16.26,57.25,46.84,108.64,79.69,157.43h13.01c11.06-38.71,21.14-81.97,3.25-120.35-18.54-38.71-42.94-73.84-66.68-109.29M157.81,597.68c-2.93,39.68-3.58,83.6,18.22,118.73,35.13,59.85,88.15,109.29,149.95,140.52-9.43-51.39-28.3-103.11-19.84-156.13,1.3-34.15,13.01-66.36,20.17-99.53,9.11-30.9-13.01-55.3-27-79.69-20.17-31.23-35.78-65.06-50.74-99.21-47.49,46.84-82.62,108.64-90.75,175.32h0Z"/>
    <path class="cls-3" d="M341.91,216.13c26.35-3.9,55.95-3.25,79.37,10.73,14.96,10.08,29.27,20.82,44.24,30.9-33.5-18.87-71.24-32.85-110.27-28.3-12.36,2.28-21.79,11.06-30.9,18.54-3.58.98-7.16,1.95-10.41,2.93,8.13-12.04,12.36-30.58,27.97-34.8h0Z"/>
    <path class="cls-27" d="M421.28,226.86c2.28-1.3,6.83-3.9,9.11-5.2,127.18,62.13,220.21,173.7,337.31,251.11,54.65,39.36,117.1,65.38,178.9,91.4,12.69,5.86,28.3,7.81,38.71-3.9,55.95-38.38,113.52-81.32,183.78-85.87,8.46,17.56,17.24,35.13,26.02,52.69,15.61-10.08,39.36-19.19,53.67-1.95,27.65,27.65,50.74,59.53,76.11,89.13,36.11,57.25,71.89,114.5,114.5,167.19-18.22,11.06-36.11,22.12-54,33.5-13.66-27.32-26.02-55.3-44.24-80.02-4.55-6.18-12.04-9.11-18.87-12.36,14.31-9.11,28.3-18.22,41.96-28.3-16.91,3.58-34.15,7.48-51.07,11.38-8.78-25.7-24.4-47.49-41.96-67.66,16.26-10.73,32.85-20.82,48.14-32.85-39.68-.33-71.24,26.67-99.86,50.74-38.06-21.47-82.29-21.79-123.93-31.55-50.42-13.99-101.16,4.23-148.65,20.82-15.61,6.18-32.2,10.08-48.79,13.66,8.78-12.69,17.24-25.37,26.02-38.06,10.08-13.66,20.82-26.67,32.53-39.03-42.61-15.29-84.25-32.85-124.91-52.69-77.09-40.98-144.75-97.26-211.75-152.55-49.44-40.66-96.28-85.87-152.55-117.42l-1.95-1.3c-14.96-10.08-29.27-20.82-44.24-30.9h0Z"/>
    <path class="cls-14" d="M324.35,248.01c9.11-7.48,18.54-16.26,30.9-18.54,39.03-4.55,76.76,9.43,110.27,28.3l1.95,1.3c81.97,58.55,139.54,142.8,207.2,215.66,41.96,39.03,93.03,65.71,141.17,96.28,34.15,20.17,69.61,40.01,108.32,49.77-8.78,12.69-17.24,25.37-26.02,38.06-92.38,18.87-193.21,43.26-282.99,2.28-95.63-43.91-156.78-134.34-213.71-218.91-25.7-40.01-53.35-79.04-72.54-122.63-10.08-22.77-4.55-47.82-4.55-71.56h0Z"/>
    <path class="cls-1" d="M467.47,259.07c56.27,31.55,103.11,76.76,152.55,117.42,67.01,55.3,134.66,111.57,211.75,152.55,40.66,19.84,82.29,37.41,124.91,52.69-11.71,12.36-22.44,25.37-32.53,39.03-38.71-9.76-74.16-29.6-108.32-49.77-48.14-30.58-99.21-57.25-141.17-96.28-67.66-72.86-125.23-157.11-207.2-215.66h0Z"/>
    <path class="cls-10" d="M300.93,317.94c23.75,35.45,48.14,70.58,66.68,109.29,17.89,38.38,7.81,81.64-3.25,120.35h-13.01c-32.85-48.79-63.43-100.18-79.69-157.43-5.53-27.65,17.24-49.44,29.27-72.21h0Z"/>
    <path class="cls-5" d="M199.12,379.42c15.61-17.56,35.45-30.9,56.27-41.31-8.13,32.53-26.67,60.83-43.26,89.78-49.77,87.17-96.93,179.55-107.34,281.04-4.23,35.46-5.2,72.54,7.81,106.69,11.06,39.36,39.03,70.58,67.33,99.21-35.78-26.35-72.86-54.97-93.68-95.31-16.59-49.44-10.73-102.79-6.83-153.86,9.11-73.84,42.61-141.17,77.09-205.57,12.69-22.77,27.32-44.56,35.78-69.28,2.28-3.9,4.55-7.81,6.83-11.38h0Z"/>
    <path class="cls-21" d="M76.81,627.93c19.19-86.85,60.83-167.52,115.47-237.13-8.46,24.72-23.09,46.51-35.78,69.28-34.48,64.4-67.98,131.74-77.09,205.57-3.9,51.07-9.76,104.41,6.83,153.86,20.82,40.33,57.9,68.96,93.68,95.31,7.81,7.16,15.29,14.64,23.09,22.12,46.19,44.89,104.41,73.51,158.08,108.32,59.85,36.11,112.22,83.27,173.37,118.07,3.58-10.08,7.16-20.17,11.71-29.93,13.66-15.94,29.27-29.93,44.56-44.24,3.58,7.81,7.16,15.61,11.06,23.42-15.61,14.31-29.93,30.25-41.31,48.14,106.69,50.09,197.77,129.46,269.33,222.16,57.25,73.84,112.87,148.98,180.85,213.06,94.33,98.23,216.31,164.91,341.86,214.36,164.26,64.08,337.31,99.86,510.36,130.76,107.02,18.54,215.66,32.2,324.3,29.93,45.86-.33,93.35-9.43,132.71-34.15,7.48-5.53,14.96-11.38,22.44-16.91-1.63,12.36-3.9,27-16.59,32.85-56.6,33.5-124.58,28.3-186.38,44.24-141.17-7.81-281.69-27.32-419.93-55.95-106.36-22.77-213.71-45.21-315.19-84.9-71.56-27-141.82-56.92-209.48-92.7-50.74-36.43-106.04-66.03-153.85-106.69-60.18-54-113.85-114.82-162.96-178.9-101.81-129.78-239.73-224.11-376.67-313.24-83.6-56.92-168.49-112.55-250.14-172.07-42.61-30.9-89.45-56.6-126.21-94.98-21.79-23.42-43.26-47.49-69.93-65.71,22.44-66.03,6.83-136.94,21.79-203.95h0Z"/>
    <path class="cls-29" d="M157.81,597.68c8.13-66.68,43.26-128.48,90.75-175.32,14.96,34.15,30.58,67.98,50.74,99.21,13.99,24.4,36.11,48.79,27,79.69-7.16,33.18-18.87,65.38-20.17,99.53-8.46,53.02,10.41,104.74,19.84,156.13-61.8-31.23-114.82-80.67-149.95-140.52-21.79-35.13-21.14-79.04-18.22-118.73h0Z"/>
    <path class="cls-11" d="M1219.5,655.9c28.62-24.07,60.18-51.07,99.86-50.74-15.29,12.04-31.88,22.12-48.14,32.85-7.48,5.53-27,24.4-27,24.4-4.23,4.23-8.46,8.46-12.69,12.69,15.29,18.87,31.55,36.76,46.51,56.27-14.31,10.73-27.97,22.12-41.64,34.15-8.78,4.55-17.89,7.81-27.32,10.73-3.25.98-6.51,1.95-9.43,2.93-1.63,16.91,5.2,32.2,16.59,44.24,1.95-1.3,5.85-3.9,7.81-5.2,22.44-13.01,35.78-35.78,51.39-55.62,29.27,14.31,63.11,89.69,52.7,95.55-12.69,5.53-41.31,15.37-54,19.92,3.58,8.78,6.18,18.54,12.36,25.7,8.46,6.51,19.52,8.13,28.62,12.69,14.96-22.12,32.2-42.61,52.37-59.85,2.93,2.28,6.18,4.55,9.11,6.83,15.94,29.27,38.06,54.65,60.5,79.37-18.22,10.08-35.45,21.79-54.65,29.93-12.69,3.58-26.02,5.85-39.03,8.78.33,20.82,15.61,32.85,32.53,41.64,21.14-23.75,45.54-44.89,75.14-58.22,4.55,5.2,9.11,10.41,13.34,15.94,1.95,3.58,3.9,7.16,5.53,10.73,3.9,8.13,7.81,16.59,11.71,24.72.33.98.98,2.6,1.3,3.58.33,6.18.33,12.69.33,18.87-13.99,10.08-27.97,19.84-41.31,30.58-14.64,3.9-29.6,6.51-44.56,9.76,4.55,13.66,9.76,27,15.94,40.01,16.26-12.04,32.53-24.72,48.47-37.41,5.53-3.9,10.73-8.13,15.94-12.36,2.93,10.41,6.18,20.82,5.2,31.55-8.46,24.4-20.82,46.84-29.27,71.24-6.83,27.65-32.2,43.91-52.69,60.5-44.89,36.11-104.74,44.24-160.36,45.86,26.02-9.43,52.37-18.54,77.09-31.23-38.38-63.43-68.31-131.41-96.61-200.04-27.32-61.48-60.83-120.35-94.66-178.58-15.29-29.27-43.91-47.16-63.43-73.19-21.47-34.8-25.37-78.72-52.04-110.92-15.29-21.14-40.66-30.25-64.08-39.36,47.49-16.59,98.23-34.8,148.65-20.82,41.64,9.76,85.87,10.08,123.93,31.55M1141.76,687.45c-15.94,7.48-11.71,29.93-14.31,43.26,23.09-14.31,44.56-30.25,64.73-48.14-16.91,1.63-34.15.98-50.42,4.88M1170.71,727.46c2.93,6.83,5.86,13.66,8.78,20.49,17.24-13.34,27.97-32.53,30.9-54.32-13.01,11.38-26.35,22.77-39.68,33.83h0Z"/>
    <path class="cls-12" d="M1271.22,638.01c17.56,20.17,33.18,41.96,41.96,67.66,16.91-3.9,34.15-7.81,51.07-11.38-13.66,10.08-27.65,19.19-41.96,28.3,6.83,3.25,14.31,6.18,18.87,12.36,18.22,24.72,30.58,52.69,44.24,80.02,17.89-11.38,35.78-22.44,54-33.5.65.98,1.95,2.93,2.93,3.9-12.04,14.96-27.97,26.67-38.38,42.61,12.36,36.76,38.06,67.01,57.57,100.18,22.44-12.04,45.21-24.72,69.93-30.58-11.06,23.74-40.01,30.9-60.83,44.24,13.99,26.35,24.07,54.65,31.23,83.92,30.9-20.17,65.38-34.8,102.14-40.33.98.98,2.93,3.25,3.9,4.23-27.32,18.54-57.57,31.55-86.52,46.51-4.55,2.28-8.46,5.2-12.36,8.13-10.73,8.13-20.82,16.91-31.23,25.05-5.2,4.23-10.41,8.46-15.94,12.36-10.08,3.25-20.17,6.18-30.58,9.11,3.58-7.16,7.16-14.31,10.73-21.47,13.34-10.73,45.54-42.94,40.98-49.44-.33-.98-.98-2.6-1.3-3.58-3.25-8.46-7.16-16.59-11.71-24.72-1.63-3.58-3.58-7.16-5.53-10.73-2.6-11.71-61.15-.98-88.15,15.94,1.95-8.13,4.23-15.94,6.18-24.07,19.19-8.13,36.43-19.84,54.65-29.93-22.44-24.72-44.56-50.09-60.5-79.37-2.6-5.86-4.88-12.04-7.16-17.89-20.17,13.34-38.71,29.6-58.22,44.24.65-8.46,1.3-16.91,1.63-25.37,10.41-5.85,2.85-74-37.41-101.81-16.59,11.06-32.2,23.42-49.77,33.18,3.25-10.41,6.51-20.49,10.73-30.25,13.66-12.04,27.32-23.42,41.64-34.15,5.2-3.58,10.73-6.51,15.94-9.43-18.54-17.56-41.96-33.5-49.77-59.53M1308.63,733.64c-7.16,3.25,4.23-1.95,0,0M1358.72,810.08c3.58,7.16,5.2,6.18,0,0M1440.04,926.53c-2.6,3.58,5.85-1.63,0,0h0Z"/>
    <path class="cls-28" d="M1231.54,675.09c4.23-4.23,8.46-8.46,12.69-12.69,7.81,26.02,31.23,41.96,49.77,59.53-5.2,2.93-10.73,5.85-15.94,9.43-14.96-19.52-31.23-37.41-46.51-56.27h0Z"/>
    <path class="cls-16" d="M1141.76,687.45c16.26-3.9,33.5-3.25,50.42-4.88-20.17,17.89-41.64,33.83-64.73,48.14,2.6-13.34-1.63-35.78,14.31-43.26h0Z"/>
    <path class="cls-7" d="M1170.71,727.46c13.34-11.06,26.67-22.44,39.68-33.83-2.93,21.79-13.66,40.98-30.9,54.32-2.93-6.83-5.86-13.66-8.78-20.49h0Z"/>
    <path class="cls-23" d="M112.59,815.61c-13.01-34.15-12.04-71.23-7.81-106.69,29.27,32.85,56.92,67.01,90.43,95.63,60.18,55.62,137.92,84.9,205.25,129.78,67.01,42.61,124.91,97.26,184.76,148.65-9.43,9.11-18.87,18.22-27.65,27.97-12.36.65-26.35,1.63-35.45-8.46-72.21-61.48-151.58-114.82-235.82-158.08-25.05-14.96-55.62-12.69-83.27-7.48-7.81-7.48-15.29-14.96-23.09-22.12-28.3-28.62-56.27-59.85-67.33-99.21h0Z"/>
    <path class="cls-4" d="M1225.68,795.77c17.56-9.76,33.18-22.12,49.77-33.18-15.61,19.84-28.95,42.61-51.39,55.62-5.2-13.99-10.41-27.65-14.96-41.96,9.43-2.93,18.54-6.18,27.32-10.73-4.23,9.76-7.48,19.84-10.73,30.25h0Z"/>
    <path class="cls-22" d="M1199.66,779.18c2.93-.98,6.18-1.95,9.43-2.93,4.55,14.31,9.76,27.97,14.96,41.96-1.95,1.3-5.85,3.9-7.81,5.2-11.38-12.04-18.22-27.32-16.59-44.24h0Z"/>
    <path class="cls-7" d="M1442.31,785.36c27.65,37.73,52.04,78.39,87.17,109.94l1.95,2.28c-24.72,5.85-47.49,18.54-69.93,30.58-19.52-33.18-45.21-63.43-57.57-100.18,10.41-15.94,26.35-27.65,38.38-42.61h0Z"/>
    <path class="cls-8" d="M46.24,861.8c2.6-10.08,5.53-20.17,8.78-29.93,26.67,18.22,48.14,42.29,69.93,65.71,36.76,38.38,83.6,64.08,126.21,94.98,81.64,59.53,166.54,115.15,250.14,172.07-5.53,12.04-10.73,24.07-14.96,36.76-11.06,46.51-17.56,94-28.95,140.52-70.26-38.38-134.99-85.87-203.3-127.83-41.96-25.37-81.97-54-118.73-85.87-35.45-30.58-77.09-56.27-102.79-95.96-13.99-19.19-9.43-44.24-2.93-65.05,10.08-34.15,16.91-69.61,16.59-105.39h0Z"/>
    <path class="cls-27" d="M1311.23,889.77c19.52-14.64,38.06-30.9,58.22-44.24,2.28,5.86,4.55,12.04,7.16,17.89-2.93-2.28-6.18-4.55-9.11-6.83-20.17,17.24-37.41,37.73-52.37,59.85-9.11-4.55-20.17-6.18-28.62-12.69-6.18-7.16-8.78-16.91-12.36-25.7,12.69-4.55,26.02-8.13,38.71-13.66-.33,8.46-.98,16.91-1.63,25.37h0Z"/>
    <path class="cls-24" d="M46.24,861.8c.33,35.78-6.51,71.24-16.59,105.39-6.51,20.82-11.06,45.86,2.93,65.05,25.7,39.68,67.33,65.38,102.79,95.96,36.76,31.88,76.76,60.5,118.73,85.87,68.31,41.96,133.04,89.45,203.3,127.83,11.38-46.51,17.89-94,28.95-140.52,13.34,21.14,29.27,40.98,49.77,55.95,31.88,24.72,63.1,50.09,92.7,76.76-33.83,11.06-68.96,19.52-102.14,33.18-28.95,11.38-58.22,27.32-90.43,25.7-20.17-5.85-38.06-17.56-55.95-28.62-92.05-59.2-188.01-113.2-272.58-182.8-37.41-31.23-72.54-64.4-107.67-98.23v-42.29c15.94-59.53,24.72-121.33,46.19-179.23h0Z"/>
    <path class="cls-9" d="M1529.49,895.3c25.37,29.6,47.82,61.8,74.49,90.1-36.76,5.53-71.24,20.17-102.14,40.33-7.16-29.27-17.24-57.57-31.23-83.92,20.82-13.34,49.77-20.49,60.83-44.24l-1.95-2.28h0Z"/>
    <path class="cls-15" d="M203.02,936.94c27.65-5.2,58.22-7.48,83.27,7.48,84.25,43.26,163.61,96.61,235.82,158.08,9.11,10.08,23.09,9.11,35.45,8.46-4.55,7.16-7.81,14.96-11.38,22.44-4.55,9.76-8.13,19.84-11.71,29.93-61.15-34.8-113.52-81.97-173.37-118.07-53.67-34.8-111.89-63.43-158.08-108.32h0Z"/>
    <path class="cls-9" d="M1376.28,996.79c27-16.91,85.55-27.65,88.15-15.94-4.23-5.53-8.78-10.73-13.34-15.94-29.6,13.34-54,34.48-75.14,58.22-16.91-8.78-32.2-20.82-32.53-41.64,13.01-2.93,26.35-5.2,39.03-8.78-1.95,8.13-4.23,15.94-6.18,24.07h0Z"/>
    <path class="cls-17" d="M1469.96,991.59c4.55,8.13,3.9,8.13,0,0h0Z"/>
    <path class="cls-2" d="M1509,1044.28c3.9-2.93,7.81-5.85,12.36-8.13,25.7,50.74,46.19,103.76,74.49,153.53,30.58,64.08,67.66,125.23,111.57,181.18,43.59,55.3,98.88,99.53,155.81,140.19,33.5,24.07,73.84,35.13,111.24,51.39,79.04,32.85,160.03,68.31,220.86,130.76,38.38,37.73,68.63,85.87,80.02,139.54-22.44,9.43-46.84,16.91-71.56,14.31-38.06-1.63-73.19-17.56-107.99-31.55-121-51.07-247.86-85.22-373.74-121-110.59-32.2-221.19-69.28-320.4-128.48-112.22-65.05-216.31-147.02-298.28-248.18-24.07-30.58-53.02-56.92-76.11-88.15,68.31,26.35,127.83,73.51,200.37,90.75,57.25,9.43,114.82-11.38,161.01-44.56,46.19-31.88,96.93-68.31,112.22-125.23,13.34-34.15,7.48-70.91,8.13-106.36M1489.15,1197.81c-9.43,17.56-27,33.18-24.72,55.3,6.83,38.71,24.4,74.49,38.38,110.92,22.12,57.9,53.35,112.55,94.98,158.73,70.91,71.56,168.82,106.69,263.8,133.04,73.19,19.52,143.12,48.47,213.71,76.11,27.97,12.36,59.53,7.48,88.8,9.43-7.81-13.66-15.61-27.97-28.3-37.73-61.8-48.79-141.17-63.43-210.78-97.26-84.57-29.6-178.9-51.39-240.7-121.33-63.75-73.19-94-167.84-125.56-258.27-9.43-27.65-18.54-55.95-34.8-80.99-14.96,14.64-22.44,35.13-34.8,52.04h0Z"/>
    <path class="cls-19" d="M1397.43,1079.08c14.96-3.25,29.93-5.85,44.56-9.76-3.58,7.16-7.16,14.31-10.73,21.47,10.41-2.93,20.49-5.85,30.58-9.11-15.94,12.69-32.2,25.37-48.47,37.41-6.18-13.01-11.38-26.35-15.94-40.01h0Z"/>
    <path class="cls-26" d="M1612.76,1093.72c17.57,5.2,35.78,9.11,52.37,16.91,19.84,9.11,33.83,26.35,49.12,40.98,12.36,24.72,27.97,47.49,47.49,67.33,71.24,76.11,145.4,151.58,232.57,209.8,107.02,73.19,219.56,146.05,295.67,254.04,11.38,15.94,25.05,30.25,39.68,43.26,27.32,45.86,34.8,102.14,20.82,153.85-2.93,13.34-6.18,26.35-8.13,40.01-7.48,5.53-14.96,11.38-22.44,16.91,7.16-23.75,14.96-47.82,13.99-72.86-3.25-42.61-14.96-85.22-38.38-121.65-27-41.31-58.55-80.02-94.33-113.52-85.22-78.07-200.69-107.67-291.77-176.95-38.06-29.27-60.83-72.21-87.82-110.59-61.15-89.45-150.28-156.13-208.83-247.53h0Z"/>
    <path class="cls-18" d="M601.81,1112.59c32.2-10.08,73.51-17.24,101.16,7.16,123.6,94,218.26,220.21,298.93,351.95,41.31,64.73,86.52,129.13,147.67,177.27,56.92,49.12,128.81,75.79,200.04,95.63,130.11,32.85,261.2,60.18,392.61,85.87,118.4,22.77,238.75,35.45,356.5,63.1,55.3,12.36,114.17,24.72,170.44,8.78,23.42-9.11,43.91-24.4,64.73-38.38.98,25.05-6.83,49.12-13.99,72.86-39.36,24.72-86.85,33.83-132.71,34.15-108.64,2.28-217.28-11.38-324.3-29.93-173.05-30.9-346.09-66.68-510.36-130.76-125.56-49.44-247.53-116.12-341.86-214.36-67.98-64.08-123.6-139.22-180.85-213.06-71.56-92.7-162.64-172.07-269.33-222.16,11.38-17.89,25.7-33.83,41.31-48.14h0Z"/>
    <path class="cls-25" d="M1489.15,1197.81c12.36-16.91,19.84-37.41,34.8-52.04,16.26,25.05,25.37,53.35,34.8,80.99,31.55,90.43,61.8,185.08,125.56,258.27,61.8,69.93,156.13,91.73,240.7,121.33,69.61,33.83,148.98,48.47,210.78,97.26,12.69,9.76,20.49,24.07,28.3,37.73-29.27-1.95-60.83,2.93-88.8-9.43-70.58-27.65-140.52-56.6-213.71-76.11-94.98-26.35-192.89-61.48-263.8-133.04-41.64-46.19-72.86-100.84-94.98-158.73-13.99-36.43-31.55-72.21-38.38-110.92-2.28-22.12,15.29-37.73,24.72-55.3h0Z"/>
    <path class="cls-20" d="M1714.24,1151.62l1.95,1.95c43.59,36.76,79.37,81.32,121,120.03,51.39,48.47,104.09,96.28,161.99,137.27,72.86,52.69,148.98,101.16,216.31,161.01,47.49,43.26,89.45,94.33,114.17,154.18-14.64-13.01-28.3-27.32-39.68-43.26-76.11-107.99-188.66-180.85-295.67-254.04-87.17-58.22-161.34-133.69-232.57-209.8-19.52-19.84-35.13-42.61-47.49-67.33h0Z"/>
    <path class="cls-13" d="M501.3,1164.63c136.94,89.13,274.86,183.45,376.67,313.24,49.12,64.08,102.79,124.91,162.96,178.9,47.82,40.66,103.11,70.26,153.85,106.69-38.71-17.24-75.14-40.01-115.8-52.04,29.27,28.95,65.38,50.09,101.81,68.96,125.88,69.93,263.8,115.47,403.34,149.63,133.04,33.83,268.68,56.27,404.97,73.19,66.68,8.46,134.34,10.08,201.35,3.58-16.91-3.9-34.15-7.48-51.07-9.76,61.8-15.94,129.78-10.73,186.38-44.24,12.69-5.85,14.96-20.49,16.59-32.85,1.95-13.66,5.2-26.67,8.13-40.01,11.06,12.04,22.44,23.75,33.83,35.13v49.77c-9.76,24.07-25.37,47.16-50.09,58.22-57.57,29.27-123.6,31.55-186.38,43.59h-90.1c-84.9-16.59-171.09-23.09-256.32-38.38-181.18-29.6-360.73-72.86-532.8-137.27-67.98-21.47-129.13-59.2-188.66-97.58-44.89-30.25-90.75-60.18-127.18-100.51-59.53-63.75-106.36-137.92-162.96-204.6-49.12-55.95-103.11-107.02-161.01-154.18-29.6-26.67-60.83-52.04-92.7-76.76-20.49-14.96-36.43-34.8-49.77-55.95,4.23-12.69,9.43-24.72,14.96-36.76h0Z"/>
    <path class="cls-6" d="M1078.98,1711.42c40.66,12.04,77.09,34.8,115.8,52.04,67.66,35.78,137.92,65.71,209.48,92.7,101.49,39.68,208.83,62.13,315.19,84.9,138.24,28.62,278.76,48.14,419.93,55.95,16.91,2.28,34.15,5.85,51.07,9.76-67.01,6.51-134.66,4.88-201.35-3.58-136.29-16.91-271.93-39.36-404.97-73.19-139.54-34.15-277.46-79.69-403.34-149.63-36.43-18.87-72.54-40.01-101.81-68.96h0Z"/>
  </g>
</svg>