<svg id="_Шар_2" data-name="Шар 2" xmlns="http://www.w3.org/2000/svg" viewBox="0 0 498.36 414.74">
   <metadata>
      <rdf:RDF xmlns:rdf="http://www.w3.org/1999/02/22-rdf-syntax-ns#">
         <rdf:Description xmlns:dc="http://purl.org/dc/elements/1.1/" rdf:about="">
            <dc:title>
               <rdf:Alt>
                  <rdf:li xml:lang="x-default">Fashionable classic brown low heel loafer shoes</rdf:li>
               </rdf:Alt>
            </dc:title>
            <dc:description>
               <rdf:Alt>
                  <rdf:li xml:lang="x-default"></rdf:li>
               </rdf:Alt>
            </dc:description>
            <dc:subject>
               <rdf:Bag>
                  <rdf:li>accessory</rdf:li>
                  <rdf:li>shopping</rdf:li>
                  <rdf:li>trendy</rdf:li>
                  <rdf:li>season</rdf:li>
                  <rdf:li>casual</rdf:li>
                  <rdf:li>flop</rdf:li>
                  <rdf:li>female</rdf:li>
                  <rdf:li>fashionable</rdf:li>
                  <rdf:li>flip</rdf:li>
                  <rdf:li>sandal</rdf:li>
                  <rdf:li>girl</rdf:li>
                  <rdf:li>woman</rdf:li>
                  <rdf:li>clothing</rdf:li>
                  <rdf:li>slipon</rdf:li>
                  <rdf:li>footwear</rdf:li>
                  <rdf:li>pair</rdf:li>
                  <rdf:li>slipper</rdf:li>
                  <rdf:li>beach</rdf:li>
                  <rdf:li>fashion</rdf:li>
               </rdf:Bag>
            </dc:subject>
         </rdf:Description>
      </rdf:RDF>
   </metadata>
  <defs>
    <style>
      .cls-1 {
        fill: none;
        stroke: #521e00;
        stroke-linecap: round;
        stroke-linejoin: round;
        stroke-width: 3px;
      }

      .cls-2 {
        fill: #521e00;
      }

      .cls-3 {
        fill: #8f3e15;
      }

      .cls-4 {
        fill: #753311;
      }

      .cls-5 {
        fill: #c78e73;
      }

      .cls-6 {
        fill: #e0a081;
      }

      .cls-7 {
        fill: #ffebe0;
      }
    </style>
  </defs>
  <g id="_Шар_24" data-name="Шар 24">
    <g>
      <g>
        <g>
          <path class="cls-2" d="M187.3,230.15c-5.01,4.08-21.13,16.15-26.67,17.9-1.31.41-1.94.6-3.36.42-3.91-.49-12.8-4.02-16.79-5.67-7.11-2.94-13.83-6.64-19.87-11.54l-32.56,9.1c-5.52-9.63,11.97-24.34,8.74-23.76,8.45-2.6,18.45-1,27.12.1,20.81,2.64,63.89,13.04,63.4,13.45Z" />
          <path class="cls-4" d="M304.81,167.64c5.54-3.28,15.07-9.42,20.53-12.82,4.36-2.71,14.41-9.05,18.73-10.57,1.29-.45,5.48-5.73,5.17-3.67-12.62,21.11-17.91,76.72-17.91,76.72l-8.4,3.55-11.09-1.46s-.49-18.49-1.24-28.45c-.49-6.53-6.18-22.63-5.8-23.31Z" />
          <path class="cls-3" d="M332.68,0c3.81,3.68,8.5,3.59,11.79,8.35,4.17,6.03,7.78,25.46,8.96,33.31,2.03,13.54,3.67,29.92,4.12,43.58.15,4.52-.67,9.73.67,13.97.01,10.53.14,18.26-2.02,28.65l-46.3,29.77c-6.23,4.6-12.51,11.45-16.2,18.44-4.19-18.61-4.08-37.92-1.13-56.73,1.45-9.26,3.73-19.62,6.51-28.52,7.21-23.09,19.94-43.57,30.59-64.97,3.35-6.73,8.83-15.94.55-21.56-7-4.75-13.58-2.12-20.39,1.28l5.24-3.29,6.86-2.3h10.75Z" />
          <path class="cls-4" d="M96.78,216.6c6.22-1.8,8.57-1.62,7.86-1.33-11.87,4.86-16.35,16.11-16.6,25.08l-1.33,1.22c-6.12,29.89-.34,60.69,11.41,88.22-1.36.26-5.15.53-5.38.7-10.53-27.34-16.49-53.55-11.78-83.17.95-5.99,3.61-13.2,4.24-18.65.12-1.05.65-1.85-.86-1.58-12.9,33.85-6.65,71.36,6.37,104.1-23.44,1.74-49.78,10.63-73.69,12.48-5.09.02-10.02,2.38-15.03.8-.58-1.12-.67-2.64-2.02-3.49v-6.99c7.91-19.68,21.52-36.24,34.6-52.42,11.97-14.8,25.28-31.03,37.97-45.07,6.1-6.75,15.66-17.26,24.21-19.9Z" />
          <path class="cls-6" d="M299.07,90.83c-2.78,8.9-5.06,19.26-6.51,28.52-2.95,18.81-3.06,38.12,1.13,56.73-11.34,21.47-19.2,51.52-29.57,74.76-13,1.94-26.19,3.96-39.32,4.88-18.97,1.34-43.63.28-61.87-5.53-1.3-.41-11.1,2.13-11.03.04,5.55-1.75,28.61-14.52,33.62-18.6.5-.41,5.13-4.31,6.64-5.65,19.15-16.87,51.38-69.8,52.47-72.27,9.83-22.34,21.86-41.43,41.46-55.77,3.86-2.82,8.27-6.18,12.98-7.12Z" />
          <path class="cls-4" d="M309.83,5.59c6.81-3.41,13.39-6.04,20.39-1.28,8.28,5.62,2.8,14.84-.55,21.56-10.66,21.39-23.38,41.87-30.59,64.97-4.71.94-9.12,4.3-12.98,7.12-19.6,14.34-31.63,33.43-41.46,55.77,0,0-11.58-47.34,15.34-96.19,10.15-18.43,31.28-42.65,49.85-51.93Z" />
          <path class="cls-4" d="M344.07,144.25c-3.92,2.37-14.37,7.86-18.73,10.57-5.46,3.4-10.5,7.64-16.05,10.91-4.24,3.55-6.54,6.64-7.81,8.3-12.47,16.35-21.35,51.6-29.64,71.9-12.43,30.45-19.95,47.96-51.06,60.11-36.62,14.31-81.85,22.52-120.52,29.81-27.2,5.13-61.48,12.89-88.51,14.88-7.2.53-6.62-.26-9.74-6.28,5,1.58,9.93-.78,15.03-.8,23.91-1.84,50.24-10.73,73.69-12.48.24-.02,1.06.83,1.61.73.69-.12.3-1.36.4-1.43.22-.17,4.02-.44,5.38-.7,35.97-6.78,72.48-13.48,107.37-24.97,37.11-12.22,42.51-17.88,58.63-53.99,10.38-23.24,18.23-53.3,29.57-74.76,3.69-6.99,9.98-13.84,16.2-18.44l46.3-29.77c-2.32,11.17-9.12,14.56-12.13,16.39Z" />
          <polygon class="cls-2" points="331.33 217.3 331.22 227.67 323.11 231.77 311.84 230 311.84 219.4 322.93 220.86 331.33 217.3" />
          <path class="cls-3" d="M162.93,250.19c18.24,5.82,42.9,6.87,61.87,5.53,13.13-.93,26.32-2.95,39.32-4.88-16.12,36.11-21.52,41.77-58.63,53.99-34.89,11.49-71.4,18.19-107.37,24.97-11.75-27.53-17.53-58.33-11.41-88.22l1.33-1.22,32.56-9.1c6.03,4.9,12.76,8.6,19.87,11.54,3.99,1.65,12.88,5.18,16.79,5.67,1.42.18,4.37,1.31,5.67,1.73ZM257.4,258.53c-12.21.35-24.36,3.58-36.6,4.22-36.68,1.91-73.38-3.7-104.25-25.18-3.49.57-24.26,6.13-25.14,8.04-.76,1.66,2.16.95,2.84.85,6.63-.93,14.96-5.22,21.71-6.78.38-.05.24,1.09.76,1.38,33.87,18.89,56.34,24.98,95.32,23.76,13.26-.42,30.17-.77,42.92-4.3,1.27-.35,2.89-.12,2.43-1.99Z" />
          <path class="cls-2" d="M90.73,331.2c-13.02-32.74-19.27-70.25-6.37-104.1,1.51-.26.98.54.86,1.58-.63,5.46-3.29,12.66-4.24,18.65-4.72,29.62,1.25,55.83,11.78,83.17-.1.07.29,1.31-.4,1.43-.55.1-1.37-.75-1.61-.73Z" />
          <path class="cls-2" d="M257.4,258.53c.46,1.87-1.16,1.64-2.43,1.99-12.75,3.53-29.66,3.89-42.92,4.3-38.98,1.22-61.45-4.86-95.32-23.76-.52-.29-.38-1.43-.76-1.38-6.75,1.56-15.09,5.85-21.71,6.78-.68.1-3.6.8-2.84-.85.88-1.91,21.65-7.47,25.14-8.04,30.88,21.48,67.57,27.09,104.25,25.18,12.23-.64,24.39-3.87,36.6-4.22Z" />
        </g>
        <path class="cls-1" d="M304.79,16.02c-19.41,10.03-45.12,52.34-47.31,61.7" />
      </g>
      <g>
        <path class="cls-4" d="M443.26,322.86c1.23-32.93-2.08-61.85-14.93-82.32l63.8-1.99c-22.15,24.22-26.39,52.09-26.04,84.31l-8.78,3.51-14.05-3.51Z" />
        <path class="cls-4" d="M482.1,129.07c-13.03-17.71-31.04-11.63-28.94-12.33,1.78-.59,13.51-3.47,20.55,4.47,1.23,1.39,2.03,3.6,2.56,5.82,1.4,5.74-18,26.12-31.74,56.49-.83,1.84-2.56,3.14-4.56,3.39-17.14,2.17-37.9,11.67-58.69,35.19-13.55,15.33-19.21,39.15-50.94,72.57-18.99,20-44.58,33.03-66.06,41.02-1.35.5-2.84.51-4.18,0-21.62-8.35-38.2-17.82-43.5-24.36-.76-.94-40.72,5.68-40.72,5.04,0-.02,0-.04.01-.06.71-2.98,1.44-5.68,2.09-8.14.05-.17.09-.34.14-.51,1.48-5.39-4.67-9.6-9.17-6.29-3.23,2.38-6.77,5.32-10.62,8.98-36.52,34.63-94.81,75.42-88.2,93.64.59,1.62,2.92,5.93,5.22,8.62,1.12,1.31,2.74,2.08,4.47,2.09,10.2.05,56.64.18,109.26-1.59,71.63-2.42,154.71-8.37,173.37-22.84,10.31-7.99,18.9-20.87,26.51-35.4h0c17.35-33.13,29.58-74.82,45.29-86.84.22-.17.45-.32.7-.45,6.14-3.45,17.78-8.88,29.4-14.11.15-.07.31-.13.46-.18,14.99-5.24,31.07-8.16,31.56-23.47.4-12.42-5.36-88.65-14.26-100.76Z" />
        <path class="cls-4" d="M443.04,92.81c-33.46,12.78-85.68,51.41-84.05,123.22,1.63,71.81,24.48,33.46,24.48,33.46l98.74-47.33v-87.32l-10.34-17.95s-2.6-3.44-13.23-5.41c-6.5-1.2-15.61,1.33-15.61,1.33Z" />
        <path class="cls-2" d="M190.39,285.6c28.26.52,122.54,36.19,122.54,36.19,20.83,20.51-29.93,41.97-31.5,41.45-1.57-.52-91.04,0-91.04,0l-41.89-16.29s10.29-31.62,20.76-47.85c10.47-16.22,21.13-13.5,21.13-13.5Z" />
        <g>
          <path class="cls-7" d="M386.26,348.6c17.47-33.36,29.75-75.41,45.62-87.08,16.95-14.04,63.24-28.94,63.24-28.94,3.71-13.71-6.59-36.97-27.21-47.44-17.16-8.71-53.18-10.18-89.32,30.7-13.55,15.33-19.21,39.15-50.94,72.57-31.4,33.07-80.86,47.1-99.92,50.76-19.05,3.66-18.53,24.07-9.63,27.21s87.4,7.33,87.4,7.33l80.76-25.11" />
          <path class="cls-6" d="M386.26,348.6c-7.61,14.53-16.2,27.41-26.51,35.4-18.66,14.47-101.74,20.42-173.37,22.84-59.63,2.01-111.33,1.58-111.33,1.58-25.79-12.19,39.65-65.52,80.59-104.34,22.2-21.05,34.03-18.65,34.74-18.48-.67-.07-10.59-.79-15.09,16.29-.65,2.46-1.38,5.16-2.09,8.14,0,.02,0,.04-.01.06,0,.65,39.96-5.97,40.72-5.04,10.06,12.44,60.89,35.42,109.55,41.26,8.97,1.07,52.43,3.25,62.8,2.28Z" />
        </g>
        <path class="cls-5" d="M173.2,310.09c-4.41,18.46-8.09,47.67,13.19,96.75-59.63,2.01-111.33,1.58-111.33,1.58-25.79-12.19,39.65-65.52,80.59-104.34,22.2-21.05,34.03-18.65,34.74-18.48-.67-.07-10.59-.79-15.09,16.29-.65,2.46-1.38,5.16-2.09,8.14,0,.02,0,.04-.01.06Z" />
        <path class="cls-6" d="M495.12,232.58h0c-.44.19-16.77,7.12-33.23,14.52-9.89,3.45-20.44,7.73-29.56,14.09-.14.1-.29.22-.44.33-3.89,2.86-7.56,7.54-11.15,13.48-11.05,18.28-21.28,48.42-34.47,73.61l-80.76,25.1s-78.51-4.18-87.4-7.32c-8.9-3.14-9.42-23.55,9.63-27.21,19.06-3.66,68.52-17.7,99.92-50.77,31.73-33.41,37.39-57.24,50.94-72.57,17.22-19.49,34.43-29.35,49.58-33.39,4.28-1.14,8.41-1.82,12.32-2.12,11.25-.86,20.76,1.43,27.43,4.81,20.61,10.47,30.92,33.73,27.21,47.45Z" />
        <path class="cls-3" d="M386.26,348.6c-7.61,14.53-16.2,27.41-26.51,35.4-18.66,14.47-101.74,20.42-173.37,22.84-51.83,1.75-97.67,1.65-108.78,1.59-2.62-.01-5.15-1.14-6.72-3.24-12.39-16.51,46.75-65.07,84.76-101.12,22.2-21.05,34.03-18.65,34.74-18.48-.67-.07-10.59-.79-15.09,16.29-.65,2.46-1.38,5.16-2.09,8.14,0,.02,0,.04-.01.06,0,.65,39.96-5.97,40.72-5.04,10.06,12.44,60.89,35.42,109.55,41.26,8.97,1.07,52.43,3.25,62.8,2.28Z" />
        <path class="cls-3" d="M495.12,232.58h0c-.44.19-16.77,7.12-33.23,14.52-9.89,3.45-20.44,7.73-29.56,14.09-.14.1-.29.22-.44.33-3.89,2.86-7.56,7.54-11.15,13.48-8.47-41.02-1.8-68.15,7.43-92.55,1.02-2.7,2.09-5.34,3.2-7.93,16.1-37.5,40.39-62.72,38.71-69.66-.64-2.59-1.57-5.19-3.01-6.81-8.23-9.29-21.95-5.92-24.03-5.23-.08.03-.12.04-.14.04.44-.26,24.88-8.75,39.31,10.88,10.42,14.17,21.88,117.42,12.91,128.84Z" />
        <path class="cls-4" d="M173.2,310.09c-4.41,18.46-8.09,47.67,13.19,96.75-51.83,1.75-97.67,1.65-108.78,1.59-2.62-.01-5.15-1.14-6.72-3.24-12.39-16.51,46.75-65.07,84.76-101.12,22.2-21.05,34.03-18.65,34.74-18.48-.67-.07-10.59-.79-15.09,16.29-.65,2.46-1.38,5.16-2.09,8.14,0,.02,0,.04-.01.06Z" />
        <path class="cls-1" d="M170.32,295.57c-.83,1.78-1.59,3.87-2.24,6.32-.65,2.46-1.38,5.16-2.09,8.14,0,.02,0,.04-.01.06-4.41,18.46-8.09,47.67,13.19,96.75" />
        <polygon class="cls-2" points="466.09 334.06 457.3 337.57 443.26 334.06 443.26 322.86 457.3 326.38 466.09 322.86 466.09 334.06" />
        <path class="cls-1" d="M179.17,316.12l28.98-4.17c40.3,31.83,96.3,46.66,167.99,44.48" />
        <path class="cls-1" d="M484.66,136.51c4.19,12.33,7.11,62.97,7.47,78.09.36,15.37-14.08,17.19-29.1,23.94-13.03,5.85-25.59,14.64-25.59,14.64" />
      </g>
    </g>
  </g>
</svg>
