<?xml version="1.0" encoding="UTF-8"?>
<svg xmlns="http://www.w3.org/2000/svg" viewBox="0 0 2753.02 3519.38">
  <defs>
    <style>
      .cls-1 {
        fill: #e6e8ea;
      }

      .cls-2 {
        fill: #5bdcdd;
      }

      .cls-3 {
        fill: #3cbdbe;
      }

      .cls-4 {
        fill: #e7eaec;
      }

      .cls-5 {
        fill: #713b30;
      }

      .cls-6 {
        fill: #241514;
      }

      .cls-7 {
        fill: #885043;
      }

      .cls-8 {
        fill: #a46e60;
      }

      .cls-9 {
        fill: #5bd6d7;
      }

      .cls-10 {
        fill: #a76f60;
      }

      .cls-11 {
        fill: #20a5a6;
      }

      .cls-12 {
        fill: #cfd5d8;
      }

      .cls-13 {
        fill: #d49c89;
      }

      .cls-14 {
        fill: #3cbebf;
      }

      .cls-15 {
        fill: #0a9090;
      }

      .cls-16 {
        fill: #1ea6a7;
      }

      .cls-17 {
        fill: #343231;
      }

      .cls-18 {
        fill: #3eb9ba;
      }

      .cls-19 {
        fill: #f0f0f1;
      }
    </style>
  </defs>
  <path class="cls-6" d="M2596.99,2845.28c-4.6,21.96-9.41,46.03-14.73,70-4.1,18.46-16.34,25.98-33.83,18.64-22.52-9.45-44.12-21.09-69.22-33.3-6.31,11.78-13.41,24.81-20.28,37.95-16.13,30.86-23.72,34.35-57.4,24.31-16.11-4.8-31.88-10.74-48.01-16.23-11.56,16.3-23.34,32.29-34.43,48.73-8.32,12.34-19.64,17.32-33.32,12.76-20.35-6.8-40.16-15.22-60.38-23.02-5.31,17.71-10.89,37.17-17.01,56.46-7.39,23.32-16.63,28.98-39.2,21.05-31.37-11.01-62.13-23.75-94.62-36.32-6.31,17.35-13.73,36.62-20.33,56.18-6.18,18.3-14.7,24.33-32.9,17.46-22.87-8.64-44.79-19.78-68.78-30.6-5.75,14.67-11.72,30.83-18.38,46.71-14.46,34.49-26.52,39.16-59.33,21.82-15.42-8.15-29.85-18.19-44.77-27.4-6.48,22.66-13.07,45.27-19.4,67.96-6.48,23.2-19.4,30.93-42.05,21.17-21.84-9.41-42.34-21.94-64.83-33.85-5.41,20.06-11.13,40.05-16.15,60.21-5.8,23.26-15.05,29.4-38.07,21.7-25.45-8.51-50.4-18.54-75.82-28.01-4.76,20.13-9.29,40.31-14.33,60.36-7.44,29.64-22.97,37.82-50.54,25.16-29.69-13.63-58.73-28.7-87.45-42.85-8.75,25.4-17.58,52.29-27.31,78.85-7.23,19.75-19.05,25.82-38.46,18.01-24.33-9.8-47.81-21.72-73.1-33.39-10.38,20.59-21.38,42.27-32.26,64.01-11,21.98-20.09,26.51-43.71,19.91-17.91-5-35.52-11.06-53.15-16.62-10.31,17.18-19.61,33.38-29.61,49.13-12.29,19.36-24.25,23.82-46.26,17.42-27.46-7.98-54.79-16.39-83.98-25.16-14.49,27.71-28.75,54.98-44.38,84.87-10.85-11.56-22.48-21.26-30.76-33.26-28.3-41.02-54.15-83.39-67.26-132.34-5.44-20.3-13.14-39.98-19.79-59.96-9.37-28.14-3.39-53.53,15.66-75.36,17.7-20.28,37.13-39.05,54.98-59.21,3.31-3.74,5.33-11.85,3.65-16.33-50.02-133.02-103.25-264.9-150.58-398.85-150.31-425.41-298.49-851.57-447.38-1277.48-11.36-32.5-21.78-65.33-33.42-100.35-61.78,51.67-86.49,120.82-101.68,196.44-50.13-30.07-88.33-68.79-118.12-117.29C-.74,1355.43-8.55,1258.49,7.13,1157.23c8.72-56.35,25.03-110.15,60.93-155.2,28.76-36.09,60.26-70.29,106.59-89.05-44.18-116.01-88.62-232.69-132.85-348.82C129.77,504.94,1227.57,94.08,1547.85,0c1.64,3.2,3.84,6.46,5.09,10.06,53.52,154.16,107.2,308.25,160,462.65,5.33,15.58,11.79,22.55,29.1,25.06,235.21,34.13,414.59,156.06,545.89,351.49,20.68,30.77,40.81,63.02,42.93,101.39-117.12,54.89-242.93,83.43-366.73,123.23,15.37,41.86,30.6,82.3,45.09,123,141.63,397.97,283.46,795.87,424.29,1194.12,18.89,53.41,33.16,108.5,48.2,163.18,3.66,13.32,9.68,19.49,22.75,21.38,39.94,5.75,79.66,13.31,119.74,17.64,23.98,2.59,42.78,11.15,56.12,31.01,20.87,31.08,42.09,61.97,61.94,93.69,10.85,17.33,13.65,36.31,7.64,57.13-7.77,26.93-12.96,54.59-19.32,81.93-5.02,21.58-15.5,29.31-37.03,22.63-32.22-10.01-63.67-22.49-96.58-34.32ZM893.35,312.07c1.6-.61,3.21-1.22,4.81-1.83,31.95-11.2,63.66-23.15,95.94-33.31,19.21-6.05,29.47-18.98,35.79-36.67.35-.26.69-.52,1.04-.78-.28.34-.57.69-.85,1.03-1.16-.03-2.44-.41-3.46-.05-104.84,37.61-209.66,75.27-314.49,112.93-37.85,13.5-75.69,27.01-116.23,41.47,22.52,13.43,41.21,14.41,61.82,6.21,39.08-15.55,78.89-29.26,118.25-44.12,34.29-12.94,68.38-26.42,102.56-39.65,3.55-1.1,7.09-2.2,10.64-3.3,1.41-.65,2.83-1.31,4.24-1.96l-.05.03ZM442.13,1079.86l8.03-3.33c5.54-1.65,11.28-2.82,16.59-5.01,70.69-29.27,140.4-61.34,212.52-86.47,21.91-7.64,31.65-20.56,42.73-35.89,3.95-5.46,4.74-13.21,6.97-19.91-8.16-.84-17.56-4.79-24.28-2.07-113.2,45.78-226.06,92.39-338.99,138.82-16.38,7.04-32.76,14.07-49.14,21.11,0,1.54,0,3.07.01,4.61,15.65,5.2,31.29,10.4,46.94,15.6,5.88-.78,11.75-1.57,17.63-2.35,20.43-8.42,40.86-16.84,61.29-25.26l-.28.16ZM2011.83,2855.93c-7.51,2.78-14.88,6.08-22.58,8.2-9.54,2.63-9.96,7.86-5.7,15.24,18.13,48.12,36.26,96.24,54.39,144.36,1.93-.43,3.85-.86,5.78-1.29,4.41-14.92,27.87-21.38,17.58-42.82,1.7-1.63,3.4-3.26,5.1-4.89,7.23,37.18,41.06,29.03,63.18,40.84,1.02-1.09,2.03-2.17,3.05-3.26-18.35-53.45-36.69-106.91-55.04-160.36-1.41-4.75-2.81-9.51-5.26-17.77-16.52,7.91-31.34,15.01-46.16,22.11-1.05,1.22-2.11,2.43-3.16,3.65-.58-.97-.82-2.03-.71-3.16-3.49-.29-6.98-.57-10.47-.86ZM1735.66,2956.1c1.04,1.39,2.08,2.78,3.12,4.16,4.28,14.05,8.56,28.1,12.84,42.15.51,1.23,1.02,2.47,1.52,3.7.68,2.34,1.35,4.67,2.03,7.01-2.64-.02-5.29-.05-7.93-.07-2.97-8.48-5.94-16.96-8.91-25.44l-3.58-10.55c-3.97-12.04-10.64-19.36-24.41-13.46-13.97,5.99-5.83,15.76-3.06,23.51,19.22,53.86,38.86,107.56,58.6,161.23,2.21,6.01,5.87,11.5,10.28,19.94,9.73-23.43,15.42-42.74,3.75-63.43-3.92-6.95-5.24-15.36-7.75-23.11,2.57-.16,5.13-.32,7.7-.48,4.39,10.64,8.77,21.27,13.02,31.57,17.31-8.3,15.28-49.96,53.58-20.72-19.84-53.41-37.35-100.54-54.85-147.68-.53-8.69-4.45-10.84-12.65-7.58-14.08,5.59-28.44,10.5-42.68,15.69-.2,1.19-.41,2.37-.61,3.56ZM1206.93,811.44c.06,1.59.12,3.18.18,4.77,1.45,6.79,2.19,13.83,4.47,20.33,21.78,62.22,43.61,124.42,65.85,186.47,14.73,41.09,30.13,81.94,45.24,122.9,5.08,17.07,10.15,34.14,16.86,56.7,13.48-20.79,24.04-36.65,34-52.87,1.5-2.45,1.19-6.93.12-9.89-6.14-16.98-12.76-33.78-19.22-50.65-1.28-4.46-2.31-9.01-3.89-13.36-33.34-91.97-66.74-183.93-100.13-275.88-4.14-12.7-8.28-25.4-13.79-42.31-11.07,19.9-20.3,36.48-29.52,53.05l-.16.73ZM1631.89,630.88l.05-.02c34.33-3.56,35.04-34.42,48.06-55.29-.92-1.22-1.83-2.44-2.75-3.66-4.91,2.27-9.82,4.54-14.73,6.81-5.62,1.57-11.4,2.74-16.85,4.79-118.86,44.61-237.69,89.29-356.49,134.05-10.48,3.95-20.72,8.53-32.94,13.59,35.69,18.38,58.16,20.32,94.23,6.92,92.68-34.44,185.15-69.46,277.7-104.25,1.24-.98,2.48-1.97,3.71-2.95ZM2462.99,2716.96c-17.06-11.79-28.7,4.52-44.3,5.95,3.28,9,5.63,15.47,7.99,21.93,7.66,24.45,17.17,48.5,22.51,73.44,7.36,34.31,20.58,61.04,59.89,64.86.55.05,1.06.46,1.59.7,3.02-1.79,6.04-3.59,9.07-5.38,8.22,6.93,16.43,13.86,28.24,23.83,3.7-22.83,11.94-41.17,8.15-56.54-10.14-41.14-25.43-81.01-38.67-121.38-.18-1.23-.36-2.46-.53-3.69-.52-1.35-1.04-2.69-1.57-4.04-2.17-7.38-4.34-14.75-6.64-22.57-14.08,4.05-26.1,7.5-38.12,10.95-2.53,3.98-5.07,7.95-7.6,11.93ZM1702.68,606.15c-2.45-6.07-4.9-12.14-7.83-19.4-29.52,37.98-32.12,53.02-13.56,77.8,5.79-10.7,11.25-20.81,16.72-30.92,1.56-9.16,3.11-18.33,4.67-27.49ZM2264.69,2773.33c-12.39,4.09-24.78,8.18-38.13,12.59,2.62,6.47,4.73,11.69,6.84,16.9,18.69,57.01,37.39,114.03,56.64,172.76,20.21-19.85,31.13-38.74,18.67-63.82.13-1.17-.19-2.19-.97-3.07-.75-2.45-1.5-4.9-2.26-7.35,2.52.06,5.03.13,7.55.19,2.7,8.13,5.39,16.26,8.45,25.46,12.22-6.52,24.45-13.04,38.84-20.72-14.57-40.98-30.01-84.38-45.45-127.78-1.94-6.19-3.88-12.38-6.44-20.57-13.41,5.58-24.71,10.29-36.01,14.99-2.58.14-5.15.28-7.73.41ZM180.36,559.85l-.3-.04c-20.55,6.96-41.1,13.92-61.66,20.88.65,2.48,1.31,4.95,1.96,7.43,23.44-1.85,46.88-3.7,70.32-5.56,7.8-2.37,15.82-4.22,23.38-7.2,92.42-36.52,184.43-74.1,277.36-109.25,23.87-9.03,36.35-24.6,46.21-49.02-21.48,8.18-40.99,15.3-60.26,23-97.67,38.99-195.28,78.12-292.92,117.2-1.37.86-2.74,1.71-4.1,2.57ZM1600.5,2999.19c-2.41,2.18-4.83,4.36-7.24,6.54-20.61,7.32-41.22,14.64-61.83,21.96-.7-.3-1.44-.44-2.2-.41-11.02,4.25-22.05,8.49-33.07,12.74-2.55.03-5.1.06-7.65.09-11.76,4-23.53,8-35.29,11.99-5.87,1.96-11.73,3.93-17.6,5.89-11.66,4.69-23.32,9.39-37.08,14.92,19.66,53.51,38.7,105.44,57.92,157.3,1.16,3.14,3.1,7.07,5.79,8.41,18.9,9.43,38.09,18.28,58.53,27.95.3-6.62.46-10.02.62-13.42,2.45-4.14,4.89-8.28,7.34-12.41,4.46-11,8.92-21.99,13.38-32.99,2.28-3.33,4.55-6.67,6.83-10,12.41-11.87,23.31,2.85,35.09,2.01,7,1.28,13.99,2.55,20.99,3.83,16.85,5.78,33.7,11.56,52.86,18.13,1.48-9.28,2.54-15.88,3.59-22.49,1.24-2.48,2.48-4.96,3.73-7.44,4.25-15.06,8.64-30.08,12.64-45.21,1.11-4.21,2.51-9.17,1.31-13.03-14.17-45.52-28.81-90.9-43.32-136.32-3.74-2-7.84-6.14-11.15-5.59-8.25,1.38-16.15,4.9-24.19,7.56ZM1860.27,2908.68c-2.11,1.23-4.22,2.46-6.34,3.69-17.14,5.21-34.28,10.42-53.11,16.14,2.57,5.57,4.41,9.55,6.25,13.54,16.2,45.55,33.73,90.69,48.06,136.82,7.36,23.7,23.33,32.69,48.27,40.05,3.8-18.36,7.36-35.54,10.91-52.72,2.53-2.63,5.05-5.27,7.58-7.9q13.72-22.78,51.53-15.24c-18.76-48.31-36.94-95.14-55.13-141.98-1.51-3.54-3.02-7.08-4.76-11.14-18.43,6.48-35.85,12.6-53.28,18.72ZM2556.92,2712.19c-3.59-10.01-7.19-20.03-11.13-31-10.61,3.58-18.98,6.4-28.57,9.63,4.12,10.66,7.42,19.17,10.71,27.68,11.85,37.94,23.7,75.88,35.43,113.45,12.18-8.8,22.16-16,33.04-23.86-12.44-30.23-25.96-63.06-39.48-95.89ZM2571.16,2706.17c11.45,29.26,25.08,57.9,33.71,87.97,8.07,28.13,26.96,36.57,52.21,39.04,3.91,1.33,7.83,2.65,14.81,5.02-24.44-60.6-47.43-117.62-70.82-175.63-15.45,5.28-28.42,9.72-42.64,14.59,4.87,11.09,8.8,20.05,12.74,29.01ZM2089.36,2849.84c16.91,51.58,34.32,103,50.42,154.83,4.63,14.9,12.32,22.53,30.21,22.7-19.73-63.41-39.09-125.64-58.45-187.86-1.31-4.68-2.63-9.35-4.15-14.77-9.26,3.11-16.63,5.59-25.59,8.6,2.94,6.43,5.25,11.46,7.55,16.5ZM1220.57,1309.35l.15.05c21.41-7.42,42.89-14.69,64.18-22.44,2.96-1.08,5.64-4.18,7.42-7,12.52-19.71,24.98-39.46,36.92-59.52,2-3.36,1.41-8.26,2.02-12.46-4.31-.04-9.05-1.29-12.85.08-16.33,5.87-32.38,12.52-48.53,18.88-2.28.43-4.67.55-6.82,1.34-98.69,36.37-197.41,72.67-295.91,109.57-5.34,2-12.27,8.96-12.37,13.74-.16,8.07,2.6,17.86,7.69,23.96,7.34,8.79,17.41,15.63,27.22,21.86,4.43,2.81,12.05,4.55,16.55,2.71,70.31-28.91,140.34-58.5,210.44-87.92,1.29-.95,2.58-1.89,3.87-2.84ZM2325.57,2775.52c13.43,39.25,28.31,78.09,39.72,117.92,6.38,22.28,18.87,30.97,41.83,31.39-17.58-53.61-34.83-106.21-52.07-158.81-1.69-6.45-3.38-12.9-5.39-20.55-11.83,3.99-21.49,7.24-32.68,11.02,3.44,7.63,6.02,13.33,8.59,19.03ZM993.66,3404.7c7.05.23,14.1.47,21.15.7,1.55-.16,3.1-.32,4.65-.48,15.29,4.39,30.58,8.78,48.9,14.05-25.43-66.27-49.4-128.74-73.58-191.75-11.73,3.84-21.66,7.09-31.61,10.34-2.73,3.3-5.45,6.6-8.18,9.9-12.25,2.83-24.51,5.66-36.76,8.48-4.35.94-8.7,1.87-13.05,2.81-3.29,1.22-6.54,2.56-9.88,3.64-22.5,7.25-22.31,7.15-13.92,28.71,8.07,20.72,16.12,41.47,23.35,62.49,12.12,35.25,23.59,70.73,35.26,105.89,9.55-16.23,19.25-32.73,28.95-49.22,8.23-1.86,16.47-3.71,24.7-5.57ZM1236.44,3340.34c7.59-13.19,15.17-26.38,22.76-39.57,8.27-3.53,16.55-7.05,25.76-10.98.03.18-.43-2.57-.9-5.33,1.39-2.47,2.78-4.93,4.17-7.4,9.3,22.39,29.44,35.79,54.4,35.85-24.32-63.88-48.58-127.57-73.37-192.69-12.97,5.03-24.74,9.6-35.59,13.81,10.87,26.96,21.27,52.73,31.66,78.5-2.27,1.23-4.55,2.47-6.82,3.7-11.21-26.02-22.41-52.04-34.12-79.21-8.6,3.82-15.96,7.09-23.33,10.36-11.6,4.9-23.21,9.8-34.81,14.71-1.19.07-2.39.15-3.58.22-16.46,6.22-32.92,12.45-49.38,18.67-2.49.99-4.97,1.98-7.46,2.97-15.53,6.06-31.07,12.12-48.31,18.85,22.14,59.18,43.45,116.17,66.85,178.72,15.06-24.55,30.9-18.96,46.97-11.43.99.46,2.31.24,3.47.33,5.06.04,10.11.09,15.17.13,9.36,2.67,18.72,5.34,28.31,8.07,4.34-8.83,7.93-16.13,11.52-23.43,2.21-4.95,4.42-9.89,6.63-14.84ZM2371.76,2760.2c16.84,53.45,33.68,106.91,51.07,162.1,11.17-16.03,20.01-28.29,28.28-40.92,1.6-2.44,2.04-6.7,1.16-9.55-12.44-40.2-25.2-80.3-37.89-120.43-2.06-8.14-4.13-16.28-6.38-25.16-15.62,5.22-29.11,9.74-44.03,14.73,3.11,7.68,5.45,13.46,7.79,19.23ZM1646.53,534.11c9.95,3.91,19.9,7.82,35.22,13.84-6.29-17.75-10.65-30.04-15.01-42.33-1.08-4.54-1.88-9.17-3.3-13.61-40.92-128.22-81.88-256.42-122.92-384.6-4.4-13.74-9.29-27.33-14-41.13-24.2,4.88-33.83,24.45-47.61,39.04-1.01,6.57-4.66,14.13-2.64,19.58,47.81,129.19,96.37,258.11,144.3,387.25,4.84,13.05,12.25,20.6,25.95,21.96ZM1163.42,1393.86c19.91-8.48,39.28-18.75,59.87-25.02,33.78-10.29,35.92-43.07,54.1-64.27-1.17-1.18-2.34-2.36-3.52-3.55-25.23,10.47-50.47,20.94-75.7,31.41-63.59,25.58-127.17,51.15-193.07,77.66,12.26,12.35,21.26,22.2,31.25,30.91,2.54,2.21,8.84,2.27,12.39.81,38.34-15.7,76.48-31.9,114.68-47.96ZM1023.34,3216.34c-5.81,2.09-11.62,4.18-18.71,6.73,13.21,33.09,25.71,64.41,38.21,95.72,11.69,31.83,23.09,63.77,35.45,95.33,1.53,3.91,8.76,8.78,12.33,8.07,9.58-1.89,24.22-40.13,20.4-49.58-16.22-40.13-32.5-80.24-48.39-120.49-5.69-14.41-10.37-29.21-15.98-45.16-9.4,3.79-16.36,6.59-23.31,9.39ZM1645.42,2991.39c11.11,33.87,22.88,67.55,33.06,101.7,5.34,17.89,10.53,33.02,31.98,38.35,13.83,3.43,26.18,12.83,43.17,21.61-21.87-61.48-42.01-118.07-62.14-174.66-1.03-2.54-2.83-7.37-2.99-7.31-15.17,5.09-30.22,10.54-45.28,15.98.73,1.44,1.46,2.89,2.2,4.33ZM1972.59,2882.31c-.29-7.95-2.43-11.27-11.9-8.62-27.5,7.71-33.19,10.84-31.73,21.06,17.55,45.83,36.3,91.25,52.12,137.66,7.45,21.86,22.41,29.12,45.84,34.63,1.87-12.39,7.99-25.31,4.56-34.77-18.32-50.47-39.02-100.07-58.9-149.96ZM893.22,3238.85c40.3-17.02,80.6-34.04,120.9-51.06,57.48-24.08,114.95-48.16,172.43-72.24,139.47-52.04,278.94-104.07,418.4-156.13,38.53-14.38,77.02-28.86,115.53-43.3,2.96-.83,5.92-1.66,8.88-2.49l.76.51.68-.62c4.96-2.04,9.92-4.09,14.88-6.13l-.18.39c27.63-9.4,55.22-18.92,82.9-28.16,236.82-79.04,473.65-158.03,710.47-237.06,6-2,11.89-4.3,20.75-7.52-31.1-8.97-58.3-15.71-84.68-24.8-19.13-6.59-37.11-16.05-34.6-41.98.42-4.36-3.59-9.14-5.84-14.4-26.47,9.04-51.33,17.42-76.12,26.01-68.42,23.71-136.81,47.5-205.21,71.26-2.84.4-5.84.34-8.49,1.26-255.46,88.76-511.05,177.16-766.24,266.68-77.27,27.11-153.45,57.34-230.14,86.14-55.84,21.56-111.69,43.11-167.53,64.67-7.74,2.59-15.5,5.09-23.2,7.79-22.25,7.78-24.09,8.55-15.41,30.24,10.57,26.4,12.18,50.56-5.49,74.09-3.07,4.09-6.18,8.16-9.44,12.1-11.88,14.32-23.82,28.58-35.74,42.87-.72.77-1.45,1.54-2.17,2.31,1.3-.15,2.6-.3,3.91-.45ZM1088.16,1510.52c10.96,26.14,21.92,52.28,32.88,78.43,2.17.14,4.35.29,6.52.43,31.63-64.43,63.27-128.87,97.08-197.73-32.89,14.45-61.92,27.21-90.95,39.96-25.69,9.86-51.37,19.71-77.22,29.63,11.09,17.25,21.39,33.26,31.69,49.28ZM362.26,1055.16c3.34-.98,6.8-1.68,10.02-2.97,78.2-31.34,156.43-62.62,234.53-94.19,29.46-11.91,58.63-24.51,89.65-37.52-22.96-14.98-42.87-19.59-67.44-8.78-45.48,20.01-92.49,36.49-138.65,54.98-44.96,18.01-89.65,36.71-134.45,55.1-6.47.23-12.94.46-19.34.69-8.21,18.12-16.59,36.58-26.92,59.37,20.74-10.52,36.67-18.6,52.6-26.68ZM2126.07,2833.2c18.04,61.3,36.08,122.6,53.36,181.33,11.31-21.71,22.9-43.53,33.91-65.64,1.51-3.03,1.09-7.82-.06-11.26-9.59-28.86-19.63-57.56-29.37-86.37-3.2-9.45-5.9-19.08-8.83-28.62,1.42-.61,2.85-1.21,4.27-1.82,2.1,3.48,4.8,6.74,6.2,10.48,11.92,31.74,26.11,62.91,34.62,95.56,7.64,29.31,28.72,36.14,55.18,44.3-19.3-57.12-37.72-111.62-56.14-166.13-1.5-4.75-2.99-9.51-4.71-14.95-29.31,9.42-56.76,18.5-84.39,27.01-11.17,3.44-7.08,9.65-4.05,16.11ZM1399.72,1014.27c-27.7-77.45-55.22-154.97-83.52-232.2-1.87-5.11-9.68-8.04-14.73-11.98-16.63-7.12-33.26-14.24-53.85-23.07,6.54,17.09,11.46,29.96,16.39,42.83,1.43,5.65,2.39,11.48,4.37,16.94,32,87.71,64.14,175.37,96.24,263.04,6.66,19.42,13.33,38.85,20.42,59.52,39.06-45.89,39.81-49.92,20.11-102.4-1.62-4.3-3.61-8.46-5.43-12.69ZM796.52,961.25c-2.54-13.61-22.47-30.67-35.36-28.12-3.81.75-9.12,9.91-8.38,14.3,1.59,9.39,6.68,18.2,10.34,27.24.92,3.96,1.46,8.06,2.8,11.87,37.31,106.35,75.32,212.46,111.67,319.14,10.38,30.46,38.98,34,59.34,49.91-.53-6.88-2.83-11.94-4.68-17.15-28.7-80.91-57.12-161.91-86.07-242.73-16.11-44.98-33.09-89.65-49.67-134.46ZM711.13,990.07c-1.97,7.7-7.52,16.63-5.36,22.9,30.15,87.23,61.28,174.13,92.51,260.99,1.77,4.91,5.6,10.6,10.02,12.78,15.67,7.73,32.02,14.1,48.13,20.96,1.15.45,2.31.89,3.46,1.34-.42-1.11-.84-2.22-1.26-3.33-.84-3.38-1.45-6.84-2.55-10.13-29.02-86.25-58.06-172.5-87.19-258.71-6.31-18.66-13.01-37.19-19.53-55.78-1.58-9.97-3.15-19.94-5.58-35.26-13.06,17.71-22.85,30.98-32.64,44.26ZM754.32,865.07c.46-9.53,3.67-19.93.98-28.46-41.37-131.05-83.39-261.89-125.57-392.68-8.35-25.89-30.92-38.91-61.47-36.11,2.4,8.52,4.33,16.99,7.15,25.15,36.77,106.75,73.56,213.5,110.59,320.16,14.17,40.81,28.95,81.41,43.46,122.1,2.38,9.01,4.76,18.03,7.14,27.04,1.53-.11,3.07-.22,4.6-.33,4.38-12.29,8.75-24.58,13.13-36.87ZM1230.52,690.51c1.54,6.44,3.07,12.88,4.61,19.32,1.47.25,2.93.5,4.4.75,4.2-9.01,8.4-18.02,12.6-27.03,20.1-21.12,14.7-43.2,5.02-67.37-16.27-40.64-30.56-82.1-44.85-123.51-27.05-78.39-53.9-156.85-79.9-235.59-5.48-16.59-15.29-23.46-31.61-23.57-8.85-1.25-17.69-2.5-29.75-4.2,3.23,7.4,5.38,12.32,7.53,17.25,31.32,94.69,62.12,189.55,94.16,283.99,18.21,53.67,38.45,106.65,57.78,159.95ZM712.65,873.33c-51.34-152.6-102.68-305.19-154.39-458.87-7.36,12.16-13.65,24.09-21.43,34.96-8.93,12.48-10.31,24.34-5.24,39.19,17.4,50.93,33.36,102.35,50.07,153.52,25.42,77.87,51.02,155.68,76.52,233.52,2.95,9.01,5.17,18.66,17.94,17.63,15.3,4.87,30.61,9.74,50.74,16.15-6.32-16.04-10.26-26.07-14.21-36.09ZM1068.14,252.75c-2.77-7.31-5.53-14.62-9.32-24.63-8.93,11.75-15.85,20.85-22.77,29.95-11.98,10.57-15.71,21.49-9.75,38.36,25.52,72.24,48.87,145.24,73.78,217.69,20.52,59.68,41.98,119.03,63.49,178.36,1.7,4.7,6.4,10.65,10.72,11.66,15.7,3.67,31.83,5.47,48.31,8.06-.17-3.16.1-5-.42-6.57-38.11-116.1-75.92-232.3-114.65-348.19-11.81-35.34-26.18-69.82-39.38-104.69ZM284.55,1041.61c2.63,7.85,5.27,15.71,9.54,28.45,9.35-18.46,16.25-32.11,23.16-45.76,4.88-13.54,16.05-23.84,8.92-42.1-48.06-123.03-94.53-246.69-141.84-370.01-1.55-4.05-6.41-9.32-10.11-9.64-21.24-1.85-42.59-2.39-65.32-3.43,7.29,18.72,13.24,34.34,19.45,49.86,30.85,77.06,61.9,154.05,92.62,231.17,21.41,53.73,42.39,107.63,63.57,161.46ZM1419.24,969.6c7.54,22.76,15.08,45.51,23.93,72.23,9.9-15.16,17-25.81,23.89-36.61,60.73-95.25,121.63-190.4,181.96-285.91,13.35-21.13,11.08-34.4-6.84-57.45-15.62,6.35-31.72,12.9-47.82,19.45-76.68,28.31-153.31,56.78-230.12,84.74-11.11,4.05-12.21,9.43-8.56,19.8,21.51,61.14,42.44,122.48,63.56,183.75ZM2239.58,891.16c-3.2-6.18-5.94-12.66-9.68-18.5-68.5-106.79-160-188.77-271.43-248.38-47.68-25.5-97-47.93-146.47-72.19-4.77,8.81-7.9,15-11.4,20.99-53.09,90.84-105.36,182.18-159.67,272.28-31.65,52.51-66.58,103.05-100.03,154.47-40.75,61.58-81.51,123.15-122.26,184.73-48.99,76.27-98.77,152.05-146.63,229.02-24.69,39.71-45.98,81.53-68.81,122.4,1.15,1.13,2.3,2.26,3.45,3.39,6.12-3.76,12.62-7.01,18.3-11.34,75.83-57.72,142.34-125.32,206.24-195.6,95.78-105.35,206.95-189.28,337.5-247.38,102.41-45.57,208.53-80.17,315.62-112.52,51.93-15.69,102.87-34.67,154.26-52.16,4.54-1.69,9.08-3.37,15.15-5.63-5.4-9-9.77-16.3-14.14-23.59ZM206.94,1001.52c-6.24-17.75-12.49-35.49-18.99-53.97-179.79,132.98-168.29,397.8-40.6,536.68,4.92-14.57,9.75-28.86,14.57-43.15,39.54-88.27,107.69-146.95,193.71-187.03,14.17-6.6,28.77-12.27,43.87-18.67-36.67-19.4-73.63-35.87-107.21-57.58-33.19-21.46-63.35-47.74-93.8-73.14-4.98-4.16-4.65-14.69-6.77-22.27,8.09-.4,16.64-2.62,24.14-.72,8.46,2.15,15.98,8.02,28,14.46-13.34-34.17-25.13-64.38-36.92-94.6ZM360.26,1310.87c-15.38,8.18-30.75,16.36-44.04,23.43,206.04,576.09,411.27,1149.92,617.11,1725.47,12.71-5.37,27.62-11.66,42.53-17.96,52.36-20.86,104.73-41.72,157.09-62.58,89.97-33.38,179.82-67.09,269.95-100.05,81.78-29.91,163.86-58.99,245.81-88.44,3.95-1.03,7.98-1.8,11.83-3.12,228.06-78.22,456.1-156.48,684.14-234.74,25.73-8.83,51.45-17.71,77.53-26.69-8.25-19.83-16.48-37.35-22.94-55.5-104.18-292.84-208.39-585.67-312.05-878.69-55.63-157.25-110.23-314.86-165.3-472.31-3.06-9.08-6.13-18.17-9.58-28.41-8.26,3.52-14.54,6.19-20.82,8.86-65.38,29.67-132.24,56.48-195.79,89.65-102.13,53.31-180.83,135.91-259.22,218.24-85.95,90.26-178.73,171.88-290.91,228.79-10.5,3.42-19.83,14.38-32.3,5-34.03-47.36-65.44-96.14-106.47-138.8-84.94-88.32-183.23-152.47-302.17-183.1-69.61-17.93-139.76-33.78-209.69-50.46-3.33-.79-7.28-1.6-10.33-.59-41.52,13.81-82.93,27.95-124.37,42ZM784.69,819.44c112.61-41.64,223.59-82.69,335.02-123.89-42.49-128.52-84.29-254.97-126.26-381.93-109.2,40.21-217.36,80.19-325.69,119.7-12.54,4.57-9.84,11.37-6.77,20.45,27.15,80.42,53.9,160.97,81,241.41,13.78,40.9,28.03,81.64,42.69,124.26ZM958.03,1315.19c4.27-1.02,6.57-1.31,8.67-2.1,103.56-38.94,206.98-78.26,310.78-116.56,15.56-5.74,17.42-12.26,12.02-26.95-32.47-88.49-64.06-177.3-95.94-266-7.84-21.82-15.69-43.65-24.04-66.88-113.01,40.47-224.07,80.25-336.59,120.55,42.03,120.27,83.3,238.35,125.1,357.94ZM1453.18,146.02c-95.61,34.37-189.45,68.09-286.09,102.83,44.89,128.64,88.95,254.87,133.07,381.29,4.83-1.04,7.15-1.26,9.26-2.03,86.84-31.8,173.7-63.57,260.47-95.57,22.63-8.35,22.11-8.55,13.57-31.15-30.59-81.03-61.16-162.08-91.19-243.32-13.54-36.63-25.78-73.74-39.1-112.05ZM620.83,882.6c-41.69-129.85-82.5-256.94-123.36-384.21-94.74,36.64-186.84,72.27-280.75,108.59,46.28,125.87,92.41,251.31,139.41,379.11,88.8-34.72,176.21-68.9,264.7-103.5ZM405.91,1127.37c17.99,61.74,17.64,63.18,75.05,77.2,72.59,17.73,145.86,32.69,218.78,49.09,18.57,4.18,36.94,9.25,58,14.57-30.09-84.45-59.07-165.81-88.8-249.27-88.31,36.4-175.2,72.21-263.02,108.41ZM763.5,914.45c16.86,6.84,28.6,12.09,40.7,16.27,4.44,1.53,10.3,2.02,14.6.47,111.66-40.35,223.05-81.42,334.84-121.41,33.52-11.99,59.64-29.99,69.14-68.36-152.54,56.44-307.07,105.74-459.28,173.04ZM1214.28,730.56c-27.71-16.98-54.47-20.89-83.4-5.67-14.85,7.81-31.78,11.63-47.67,17.51-97.06,35.89-194.17,71.63-291.07,107.95-23.64,8.86-33.06,26.76-31.02,49.41,149.98-56,300.9-112.35,453.17-169.2ZM1672.53,560.56c-22.55-8.24-37.33-20.44-61.19-11.25-102.45,39.48-205.54,77.46-309.42,112.97-29.39,10.05-36.64,31.09-46.75,55.97,139.26-52.61,276.23-104.37,417.36-157.69ZM1359.6,3324.7q33.95-67.7,9.36-133.15c-5.13-13.68-10-27.46-14.86-41.24-6.35-18.01-12.56-36.06-19.14-54.97-19.22,7.21-36.51,13.7-53.71,20.16,26.18,69.91,51.69,138.04,78.34,209.2ZM1478.4,90.86c-1.3-2.45-2.61-4.9-3.91-7.34-126.53,44.14-253.06,88.27-382.96,133.58,25.19,8.58,45.08,8.7,66.8.52,94.61-35.63,189.95-69.31,284.68-104.61,12.77-4.76,23.64-14.64,35.39-22.15ZM1442.61,3227.9c-18.1-52.31-35.23-101.8-52.89-152.83-13.77,5.24-27.62,10.52-43.02,16.38,18.29,50.53,35.84,98.98,53.38,147.43,8.85-25,25.52-16.15,42.53-10.98ZM2688.6,2841.24c1.47-.08,2.94-.17,4.42-.25,4.5-17.36,9.2-34.67,13.31-52.12.72-3.04-.24-7.11-1.8-9.94-21.15-38.35-42.72-76.47-63.78-114.87-6.82-12.44-14.67-12.9-25.26-4.12,24.41,60.53,48.76,120.92,73.11,181.3ZM391.95,1173.46c1.37-1.17,2.75-2.34,4.12-3.51-4.22-11.21-7.97-22.63-12.85-33.55-2.38-5.34-5.85-12.3-10.54-14.13-21.5-8.38-43.6-15.21-69.85-24.07,9,17.62,12.9,36.99,24.67,45.58,18.73,13.67,42.7,20.15,64.45,29.67Z"/>
  <path class="cls-14" d="M1648.7,2790.74c-81.95,29.45-164.03,58.54-245.81,88.44-90.13,32.96-179.98,66.67-269.95,100.04-.7-3.4-.88-7.01-2.18-10.16-31.36-76.13-62.52-152.35-94.37-228.27-45.67-108.86-92.22-217.35-137.76-326.26-59.04-141.2-118.35-282.29-175.78-424.14-31.75-78.42-61.05-157.89-89.33-237.64-31.79-89.64-61.29-180.1-91.56-270.28-7.29-21.71-13.68-43.73-20.96-67.14,6.47-.21,10.1-1.13,13.29-.31,51.23,13.16,103.85,22.64,153.22,40.89,56.77,20.99,111.43,48.27,165.51,75.77,32.63,16.6,65.07,35.66,92.86,59.21,49.33,41.8,102.95,62.33,167.41,50.93,12.48,9.38,21.81-1.59,32.3-5,5.01,3.69,9.52,8.77,15.13,10.84,29.17,10.79,57.5,5.36,84.93-6.65,52.63-23.04,91.52-63.77,131.18-103.31,42.97-42.84,83.59-88.26,128.77-128.59,53.91-48.13,109.49-94.95,168.17-137,62.89-45.06,129.61-84.95,195.92-125,28.54-17.24,29.99-14.85,21.82-46.97,6.28-2.67,12.55-5.34,20.82-8.86,3.45,10.24,6.52,19.32,9.58,28.41-22.54,10.31-22.08,10.16-13.7,36.61,41.12,129.76,81.2,259.85,123.17,389.33,29.17,90,59.76,179.59,91.64,268.66,35.24,98.46,72.58,196.17,109.21,294.12,34.17,91.39,68.69,182.65,102.91,274.02,13.04,34.81,25.67,69.77,38.38,104.37-2.69,2.1-3.89,3.54-5.42,4.16-101.47,40.67-202.93,81.35-304.47,121.85-98.22,39.18-196.96,77.09-294.57,117.73-41.31,17.2-80.31,39.96-120.36,60.2Z"/>
  <path class="cls-16" d="M1113.29,1641.82c-64.46,11.4-118.08-9.13-167.41-50.93-27.79-23.55-60.23-42.61-92.86-59.21-54.07-27.5-108.74-54.78-165.51-75.77-49.37-18.25-101.99-27.73-153.22-40.89-3.19-.82-6.83.1-13.29.31,7.28,23.41,13.67,45.43,20.96,67.14,30.27,90.18,59.77,180.64,91.56,270.28,28.28,79.75,57.58,159.22,89.33,237.64,57.43,141.85,116.74,282.94,175.78,424.14,45.54,108.91,92.09,217.41,137.76,326.26,31.86,75.92,63.01,152.14,94.37,228.27,1.3,3.15,1.48,6.76,2.18,10.16-52.37,20.87-104.73,41.73-157.09,62.58-2.28-4-5.26-7.76-6.75-12.03-25.12-72.11-48.59-144.83-75.4-216.3-35.9-95.7-74.44-190.42-111.69-285.62-22.75-58.14-46.77-115.85-67.41-174.73-31.05-88.61-59.42-178.15-89.33-267.16-43.52-129.48-87.12-258.94-131.22-388.23-32.76-96.04-66.4-191.79-99.62-287.68-11.45-33.04-22.78-66.13-34.17-99.19,41.44-14.06,82.85-28.19,124.37-42,3.06-1.02,7-.21,10.33.59,69.93,16.68,140.08,32.53,209.69,50.46,118.94,30.64,217.23,94.78,302.17,183.1,41.03,42.66,72.44,91.45,106.47,138.8Z"/>
  <path class="cls-4" d="M1418.62,1184.57c40.75-61.58,81.51-123.15,122.26-184.73,6.48-3.21,14.28-5.08,19.13-9.92,8.19-8.16,14.71-18.06,21.59-27.48,56.45-77.22,112.15-154.99,169.48-231.55,30.3-40.46,63.4-78.83,97.48-120.9,49.07,29.45,99.09,55.47,144.64,87.8,60.28,42.79,117.75,89.67,174.91,136.63,17.13,14.07,29.22,34.29,43.61,51.69-4.63.41-9.46.13-13.86,1.35-39.78,11.06-80,20.83-119.1,33.93-93.96,31.5-187.66,63.82-280.91,97.34-56.55,20.33-112.81,41.83-167.88,65.84-62.48,27.24-123.5,57.85-185.13,87.05-8.8,4.17-17.48,8.61-26.22,12.93Z"/>
  <path class="cls-10" d="M784.69,819.44c-14.66-42.62-28.91-83.36-42.69-124.26-27.1-80.44-53.86-160.99-81-241.41-3.07-9.08-5.77-15.88,6.77-20.45,108.33-39.5,216.48-79.49,325.69-119.7,41.97,126.96,83.77,253.4,126.26,381.93-111.43,41.21-222.41,82.25-335.02,123.89Z"/>
  <path class="cls-10" d="M958.03,1315.19c-41.8-119.59-83.07-237.67-125.1-357.94,112.52-40.3,223.59-80.08,336.59-120.55,8.35,23.24,16.19,45.06,24.04,66.88,31.88,88.7,63.48,177.51,95.94,266,5.39,14.69,3.54,21.2-12.02,26.95-103.8,38.3-207.22,77.62-310.78,116.56-2.11.79-4.4,1.08-8.67,2.1Z"/>
  <path class="cls-3" d="M1720.48,2916.12c-38.51,14.44-77,28.92-115.53,43.3-139.46,52.06-278.93,104.09-418.39,156.12-.92-3.94-1.46-8-2.81-11.78-11.73-32.87-23.61-65.7-35.44-98.54,76.68-28.8,152.86-59.03,230.14-86.14,255.19-89.52,510.78-177.93,766.24-266.68,2.66-.92,5.65-.86,8.5-1.27,4.06-.3,8.3.08,12.15-.99,52.83-14.66,105.8-28.84,158.31-44.58,28.34-8.5,55.85-19.76,85.7-30.48,6.44,20.04,12.3,38.27,18.11,56.35-65.75,24.57-127.54,47.79-189.42,70.75-160.66,59.6-320.27,121.76-475.67,194.23-6.06,2.83-11.25,7.53-16.85,11.36,0,0,.18-.39.18-.39-4.96,2.04-9.92,4.08-14.88,6.13l-.68.62s-.76-.51-.77-.51c-2.96.83-5.92,1.66-8.88,2.49Z"/>
  <path class="cls-10" d="M1453.18,146.02c13.32,38.31,25.56,75.42,39.1,112.05,30.03,81.24,60.59,162.29,91.19,243.32,8.53,22.6,9.06,22.8-13.57,31.15-86.77,32-173.63,63.76-260.47,95.57-2.11.77-4.43.99-9.26,2.03-44.12-126.42-88.18-252.65-133.07-381.29,96.64-34.74,190.48-68.46,286.09-102.83Z"/>
  <path class="cls-10" d="M620.83,882.6c-88.49,34.6-175.89,68.78-264.7,103.5-47-127.81-93.13-253.25-139.41-379.11,93.91-36.32,186.01-71.95,280.75-108.59,40.86,127.27,81.67,254.36,123.36,384.21Z"/>
  <path class="cls-12" d="M1418.62,1184.57c8.74-4.32,17.41-8.76,26.22-12.93,61.63-29.19,122.65-59.81,185.13-87.05,55.07-24.01,111.33-45.51,167.88-65.84,93.26-33.52,186.96-65.84,280.91-97.34,39.1-13.11,79.32-22.88,119.1-33.93,4.4-1.22,9.23-.94,13.86-1.35,2.29.25,4.59.49,6.88.73,6.65,11.17,13.3,22.34,19.95,33.51-51.39,17.49-102.33,36.48-154.26,52.16-107.09,32.35-213.21,66.95-315.62,112.52-130.56,58.1-241.72,142.02-337.5,247.38-63.89,70.28-130.41,137.88-206.24,195.6-5.68,4.33-12.18,7.59-18.3,11.34-1.15-1.13-2.3-2.26-3.45-3.39,22.83-40.87,44.12-82.69,68.81-122.4,47.86-76.97,97.64-152.75,146.63-229.02Z"/>
  <path class="cls-15" d="M360.26,1310.87c11.39,33.06,22.72,66.15,34.17,99.19,33.21,95.89,66.85,191.63,99.62,287.68,44.11,129.29,87.7,258.75,131.22,388.23,29.92,89.01,58.28,178.55,89.33,267.16,20.64,58.89,44.66,116.59,67.41,174.73,37.25,95.2,75.79,189.91,111.69,285.62,26.81,71.47,50.27,144.19,75.4,216.3,1.49,4.27,4.47,8.03,6.75,12.03-14.91,6.3-29.82,12.59-42.53,17.96-205.84-575.54-411.07-1149.38-617.11-1725.47,13.29-7.07,28.66-15.25,44.04-23.43Z"/>
  <path class="cls-2" d="M1648.7,2790.74c40.05-20.23,79.05-42.99,120.36-60.2,97.61-40.64,196.35-78.56,294.57-117.73,101.54-40.5,203-81.18,304.47-121.85,1.53-.61,2.73-2.06,5.42-4.16-12.71-34.6-25.34-69.56-38.38-104.37-34.22-91.37-68.73-182.63-102.91-274.02-36.63-97.96-73.97-195.67-109.21-294.12-31.89-89.08-62.47-178.66-91.64-268.66-41.97-129.48-82.06-259.57-123.17-389.33-8.38-26.44-8.84-26.3,13.7-36.61,55.06,157.45,109.67,315.06,165.3,472.31,103.66,293.02,207.87,585.85,312.05,878.69,6.46,18.16,14.7,35.68,22.94,55.5-26.08,8.98-51.8,17.86-77.53,26.69-228.04,78.26-456.08,156.52-684.14,234.74-3.85,1.32-7.88,2.09-11.83,3.12Z"/>
  <path class="cls-1" d="M206.94,1001.52c11.79,30.21,23.58,60.43,36.92,94.6-12.02-6.44-19.54-12.31-28-14.46-7.5-1.91-16.05.32-24.14.72,2.12,7.59,1.79,18.12,6.77,22.27,30.46,25.4,60.62,51.68,93.8,73.14,33.57,21.71,70.54,38.19,107.21,57.58-15.1,6.4-29.7,12.07-43.87,18.67-86.02,40.08-154.17,98.76-193.71,187.03-10.1-15.62-21.37-30.62-30.09-46.98-36.7-68.87-45.41-141.34-25.83-217.06,11.4-44.11,33.47-83.22,58.1-120.81,12.65-19.3,28.45-36.54,42.83-54.7Z"/>
  <path class="cls-10" d="M405.91,1127.37c87.82-36.2,174.71-72.01,263.02-108.41,29.73,83.46,58.72,164.82,88.8,249.27-21.06-5.32-39.43-10.4-58-14.57-72.92-16.4-146.18-31.36-218.78-49.09-57.41-14.02-57.06-15.46-75.05-77.2Z"/>
  <path class="cls-11" d="M1891.52,1100.13c8.17,32.12,6.72,29.73-21.82,46.97-66.31,40.05-133.03,79.94-195.92,125-58.68,42.05-114.27,88.88-168.17,137-45.18,40.33-85.8,85.75-128.77,128.59-39.66,39.55-78.55,80.27-131.18,103.31-27.43,12.01-55.76,17.43-84.93,6.65-5.61-2.08-10.12-7.15-15.13-10.84,112.19-56.92,204.97-138.53,290.92-228.79,78.39-82.33,157.09-164.93,259.22-218.24,63.55-33.17,130.41-59.98,195.79-89.65Z"/>
  <path class="cls-19" d="M2218.61,886.86c-2.29-.24-4.59-.48-6.88-.73-14.4-17.4-26.48-37.62-43.61-51.69-57.16-46.96-114.63-93.84-174.91-136.63-45.55-32.33-95.57-58.35-144.64-87.8-34.07,42.07-67.17,80.44-97.48,120.9-57.33,76.55-113.03,154.33-169.48,231.55-6.88,9.42-13.4,19.31-21.59,27.48-4.85,4.84-12.65,6.71-19.13,9.92,33.45-51.42,68.38-101.96,100.03-154.47,54.31-90.11,106.59-181.44,159.67-272.28,3.5-5.98,6.63-12.18,11.4-20.99,49.47,24.26,98.8,46.68,146.47,72.19,111.43,59.6,202.94,141.59,271.43,248.38,3.74,5.83,6.48,12.32,9.68,18.5-6.99-1.43-13.98-2.87-20.97-4.3Z"/>
  <path class="cls-2" d="M1745.5,2907.79c5.6-3.83,10.78-8.54,16.85-11.36,155.4-72.46,315.01-134.63,475.67-194.23,61.88-22.96,123.67-46.18,189.42-70.75-5.81-18.08-11.67-36.31-18.11-56.35-29.84,10.72-57.36,21.98-85.7,30.48-52.5,15.75-105.48,29.93-158.31,44.58-3.84,1.07-8.08.69-12.15.99,68.4-23.76,136.79-47.55,205.21-71.26,24.79-8.59,49.65-16.98,76.12-26.01,2.25,5.25,6.26,10.04,5.84,14.4-2.51,25.93,15.47,35.39,34.6,41.98,26.38,9.09,53.58,15.83,84.68,24.8-8.86,3.22-14.75,5.52-20.75,7.52-236.82,79.03-473.66,158.02-710.47,237.06-27.68,9.24-55.27,18.77-82.9,28.16Z"/>
  <path class="cls-10" d="M1419.24,969.6c-21.12-61.27-42.05-122.62-63.56-183.75-3.65-10.36-2.55-15.75,8.56-19.8,76.81-27.96,153.43-56.43,230.11-84.74-2.86,6.34-5.18,12.99-8.65,18.98-29.58,51.06-59.24,102.07-89.12,152.95-19.22,32.73-38.49,65.45-58.54,97.67-4.55,7.3-12.45,12.52-18.8,18.69Z"/>
  <path class="cls-7" d="M284.55,1041.61c-21.17-53.83-42.16-107.73-63.57-161.46-30.72-77.12-61.77-154.1-92.62-231.17-6.21-15.52-12.16-31.15-19.45-49.86,22.73,1.05,44.08,1.58,65.32,3.43,3.7.32,8.56,5.59,10.11,9.64,47.31,123.33,93.78,246.98,141.84,370.01,7.13,18.25-4.04,28.55-8.92,42.1-10.9,5.77-21.81,11.54-32.71,17.31Z"/>
  <path class="cls-12" d="M206.94,1001.52c-14.38,18.17-30.18,35.4-42.83,54.7-24.63,37.59-46.7,76.7-58.1,120.81-19.58,75.72-10.87,148.2,25.83,217.06,8.72,16.36,19.99,31.36,30.09,46.98-4.83,14.29-9.65,28.59-14.57,43.15-127.69-138.88-139.2-403.7,40.6-536.68,6.5,18.47,12.74,36.22,18.99,53.97Z"/>
  <path class="cls-8" d="M1068.14,252.75c13.2,34.87,27.57,69.36,39.38,104.69,38.74,115.89,76.55,232.09,114.65,348.19.52,1.57.24,3.41.42,6.57-16.48-2.59-32.61-4.4-48.31-8.06-4.32-1.01-9.02-6.96-10.72-11.66-21.5-59.33-42.97-118.68-63.49-178.36-24.91-72.46-48.25-145.46-73.78-217.69-5.96-16.87-2.23-27.79,9.75-38.36,10.7-1.77,21.4-3.55,32.09-5.32Z"/>
  <path class="cls-8" d="M676.11,893.27c-12.77,1.03-14.99-8.62-17.94-17.63-25.5-77.84-51.1-155.65-76.52-233.52-16.71-51.17-32.67-102.59-50.07-153.52-5.07-14.84-3.7-26.71,5.24-39.19,7.78-10.87,14.07-22.8,21.43-34.96,51.71,153.68,103.05,306.28,154.39,458.87-4.81,3.52-9.28,7.67-14.49,10.42-7.05,3.73-14.67,6.4-22.04,9.52Z"/>
  <path class="cls-7" d="M1419.24,969.6c6.36-6.18,14.26-11.39,18.8-18.69,20.06-32.22,39.32-64.93,58.54-97.67,29.88-50.88,59.54-101.89,89.12-152.95,3.47-5.99,5.79-12.63,8.65-18.98,16.1-6.55,32.21-13.1,47.82-19.45,17.92,23.05,20.19,36.32,6.84,57.45-60.33,95.51-121.23,190.65-181.96,285.91-6.88,10.79-13.99,21.45-23.89,36.61-8.85-26.71-16.39-49.47-23.93-72.23Z"/>
  <path class="cls-7" d="M1100.8,233.52c16.32.11,26.13,6.98,31.61,23.57,26,78.74,52.85,157.2,79.9,235.59,14.29,41.4,28.58,82.86,44.85,123.51,9.67,24.17,15.07,46.24-5.02,67.37-7.2,2.32-14.41,4.64-21.61,6.95-19.33-53.29-39.57-106.27-57.78-159.95-32.04-94.44-62.84-189.3-94.16-283.99,7.77-2.05,15.56-4.02,23.22-6.43.33-.1-.63-4.32-1-6.62Z"/>
  <path class="cls-11" d="M1148.3,3005.23c11.83,32.84,23.71,65.66,35.44,98.54,1.35,3.78,1.89,7.84,2.81,11.78-57.48,24.09-114.96,48.17-172.43,72.24-11.12-39.3-22.24-78.59-33.35-117.89,55.84-21.56,111.69-43.11,167.53-64.67Z"/>
  <path class="cls-7" d="M729.45,875.23c-14.5-40.69-29.29-81.29-43.46-122.1-37.03-106.66-73.82-213.41-110.59-320.16-2.81-8.16-4.75-16.63-7.15-25.15,30.55-2.8,53.12,10.22,61.47,36.11,42.18,130.79,84.2,261.63,125.57,392.68,2.69,8.53-.51,18.93-.97,28.46-8.29,3.39-16.58,6.77-24.87,10.16Z"/>
  <path class="cls-13" d="M1478.92,105.32c13.78-14.59,23.41-34.17,47.61-39.04,4.71,13.8,9.6,27.39,14,41.13,41.03,128.18,82,256.39,122.92,384.6,1.42,4.43,2.21,9.07,3.3,13.61-7.52,3.21-15.05,6.43-22.57,9.64-2.25-3.22-5.21-6.16-6.66-9.72-13.19-32.41-26.66-64.72-39.03-97.45-33.58-88.87-66.45-178.02-100.19-266.83-4.79-12.61-12.84-23.99-19.38-35.94Z"/>
  <path class="cls-7" d="M1216.7,1312.19c-70.1,29.43-140.13,59.01-210.44,87.92-4.5,1.85-12.12.11-16.55-2.71-9.82-6.23-19.89-13.07-27.22-21.86-5.09-6.1-7.85-15.89-7.69-23.96.1-4.77,7.02-11.74,12.37-13.74,98.5-36.9,197.22-73.2,295.91-109.57,2.15-.79,4.54-.91,6.82-1.34-8.7,12.93-17.98,25.5-25.93,38.87-8.41,14.14-15.54,29.03-23.23,43.59,0,0-.15-.05-.15-.05-1.29.94-2.58,1.89-3.87,2.84Z"/>
  <path class="cls-7" d="M763.5,914.45c152.21-67.3,306.74-116.59,459.28-173.04-9.5,38.37-35.62,56.37-69.14,68.36-111.78,39.99-223.18,81.07-334.84,121.41-4.3,1.55-10.15,1.06-14.6-.47-12.11-4.18-23.84-9.42-40.7-16.27Z"/>
  <path class="cls-8" d="M1322.66,1145.91c-15.1-40.96-30.51-81.81-45.24-122.9-22.24-62.05-44.07-124.25-65.85-186.47-2.28-6.5-3.02-13.54-4.46-20.33-.06-1.59-.12-3.18-.18-4.76,0,0,.16-.73.17-.72,14.44-3.58,28.87-7.17,43.3-10.76,33.39,91.96,66.79,183.91,100.13,275.88,1.58,4.35,2.61,8.9,3.89,13.36-10.59,18.9-21.17,37.8-31.76,56.7Z"/>
  <path class="cls-8" d="M856.41,1307.71c-16.09-6.88-32.44-13.25-48.11-20.98-4.42-2.18-8.25-7.86-10.02-12.78-31.23-86.86-62.36-173.75-92.51-260.99-2.17-6.27,3.39-15.21,5.35-22.9,12.74-3,25.48-6,38.22-8.99,6.52,18.59,13.23,37.12,19.53,55.78,29.14,86.21,58.17,172.46,87.19,258.71,1.11,3.29,1.71,6.75,2.55,10.13-.75.66-1.49,1.33-2.22,2.01Z"/>
  <path class="cls-7" d="M1214.28,730.56c-152.27,56.85-303.19,113.2-453.17,169.2-2.04-22.65,7.38-40.55,31.02-49.41,96.9-36.32,194.01-72.06,291.07-107.95,15.9-5.88,32.82-9.7,47.67-17.51,28.93-15.23,55.69-11.31,83.4,5.67Z"/>
  <path class="cls-7" d="M796.52,961.25c16.59,44.81,33.56,89.48,49.67,134.46,28.95,80.82,57.37,161.82,86.07,242.73,1.85,5.22,4.15,10.27,4.68,17.15-20.36-15.9-48.96-19.45-59.34-49.91-36.35-106.68-74.36-212.79-111.67-319.14-1.34-3.82-1.89-7.91-2.8-11.87,11.13-4.48,22.26-8.95,33.39-13.43Z"/>
  <path class="cls-7" d="M1628.18,633.83c-92.55,34.79-185.02,69.81-277.7,104.25-36.07,13.4-58.54,11.46-94.23-6.92,12.21-5.06,22.46-9.64,32.94-13.59,118.8-44.76,237.63-89.44,356.49-134.05,5.45-2.04,11.22-3.21,16.84-4.78-3.49,5.37-7.21,10.6-10.4,16.13-6.87,11.92-13.47,23.99-20.17,36h-.05c-1.24,1-2.48,1.98-3.71,2.97Z"/>
  <path class="cls-7" d="M381.12,1104.95c-5.88.78-11.75,1.57-17.63,2.35,17.16-20.93,17.3-23.63,2.19-41.32,112.94-46.43,225.8-93.04,338.99-138.82,6.72-2.72,16.12,1.23,24.28,2.07-2.23,6.7-3.02,14.45-6.97,19.91-11.07,15.33-20.82,28.25-42.73,35.89-72.12,25.14-141.83,57.2-212.52,86.47-5.31,2.2-11.05,3.37-16.59,5.01-2.68,1.11-5.35,2.22-8.03,3.33l.28-.16c-18.34,4.7-36.81,9-54.91,14.49-2.94.89-4.29,7.05-6.38,10.77Z"/>
  <path class="cls-7" d="M1301.47,770.09c5.05,3.94,12.86,6.87,14.73,11.98,28.3,77.23,55.82,154.75,83.51,232.2-11.7,18.52-23.4,37.05-35.1,55.57-32.1-87.67-64.24-175.33-96.24-263.04-1.99-5.45-2.94-11.28-4.36-16.93,12.49-6.59,24.97-13.18,37.45-19.77Z"/>
  <path class="cls-18" d="M2219.22,2805.03c18.42,54.5,36.84,109.01,56.14,166.13-26.46-8.16-47.54-14.99-55.18-44.3-8.51-32.64-22.7-63.82-34.62-95.56-1.41-3.74-4.1-7-6.2-10.48-1.42.61-2.85,1.21-4.27,1.82,2.93,9.55,5.63,19.17,8.83,28.62,9.74,28.81,19.78,57.51,29.37,86.37,1.14,3.44,1.57,8.23.06,11.26-11.01,22.11-22.61,43.92-33.91,65.64-17.28-58.72-35.32-120.03-53.36-181.33,31.05-9.39,62.1-18.78,93.15-28.17Z"/>
  <path class="cls-7" d="M1672.53,560.56c-141.13,53.32-278.11,105.08-417.36,157.69,10.11-24.88,17.35-45.92,46.75-55.97,103.89-35.51,206.98-73.48,309.42-112.97,23.86-9.2,38.64,3,61.19,11.25Z"/>
  <path class="cls-18" d="M2510.67,2883.84c-.53-.24-1.05-.65-1.59-.7-39.31-3.82-52.53-30.55-59.89-64.86-5.35-24.94-14.86-48.99-22.52-73.44,13.24-2.89,26.49-5.78,39.73-8.67,2.61,2.54,5.21,5.07,7.82,7.61.76-3.05,1.52-6.09,2.28-9.14,13.65-3.43,27.3-6.85,40.95-10.28,13.24,40.37,28.54,80.24,38.67,121.38,3.79,15.37-4.45,33.71-8.15,56.54-11.81-9.97-20.03-16.9-28.24-23.83,0,0-.33-.09-.33-.09-1.1-5.24-2.21-10.48-3.31-15.73-.28-1.5-.56-3-.84-4.5v-.03c-1.09-3.43-2.18-6.86-3.26-10.29-.89-2.56-1.77-5.12-2.66-7.68-2.03-6.12-4.07-12.25-6.1-18.37-1.04-2.85-2.08-5.71-3.12-8.56-1.15-4.05-2.29-8.11-3.44-12.16-3.09-9.54-6.18-19.07-9.27-28.61-.29-1.33-.59-2.66-.88-3.98-.84-2.27-1.68-4.53-2.53-6.8-.9-2.45-1.8-4.89-2.69-7.34-1.92-1.59-3.84-3.18-5.75-4.77-.61,1.9-2.01,3.96-1.67,5.67.88,4.39,2.54,8.63,3.89,12.93,1.95,5.9,3.89,11.8,5.84,17.69,2.52,7.85,5.03,15.71,7.55,23.56.96,3.15,1.91,6.3,2.87,9.45.99,2.74,1.98,5.48,2.97,8.21,1.66,5.41,3.31,10.82,4.97,16.23,4.02,11.97,8.04,23.93,12.05,35.9-1.12,1.55-2.23,3.09-3.35,4.64Z"/>
  <path class="cls-7" d="M355.92,1021.79c44.81-18.4,89.49-37.09,134.45-55.1,46.16-18.49,93.18-34.97,138.65-54.98,24.58-10.81,44.48-6.2,67.44,8.78-31.02,13.01-60.2,25.61-89.65,37.52-78.11,31.57-156.33,62.85-234.53,94.19-3.22,1.29-6.67,2-10.02,2.97-2.11-11.13-4.23-22.25-6.34-33.37Z"/>
  <path class="cls-18" d="M1201.05,3147.38c7.37-3.27,14.73-6.54,23.33-10.36,11.7,27.18,22.91,53.19,34.12,79.21,2.04,2.55,4.09,5.1,6.13,7.65,1.19-.16,2.38-.32,3.56-.48-.54-1.82-1.08-3.65-1.61-5.47-.42-1.8-.84-3.59-1.26-5.39-10.39-25.77-20.79-51.54-31.66-78.5,10.85-4.21,22.62-8.78,35.59-13.81,24.8,65.12,49.05,128.82,73.37,192.69-24.95-.05-45.09-13.45-54.4-35.85-6.16-16.99-12.33-33.99-18.49-50.98-1.52,2.59-3.04,5.19-4.56,7.78,6.29,16.87,12.59,33.73,18.88,50.6.47,2.76.93,5.51.9,5.33-9.21,3.93-17.48,7.45-25.75,10.98-1.35-1.86-3.22-3.54-3.99-5.62-18.13-49.23-36.13-98.5-54.16-147.77Z"/>
  <path class="cls-3" d="M1661.49,3199.21c-1.05,6.6-2.11,13.21-3.59,22.48-19.16-6.57-36.01-12.35-52.86-18.13-1.21-3.87-2.14-7.85-3.67-11.59-22.24-54.47-44.57-108.9-66.87-163.35,19.65-5.3,39.29-10.6,58.94-15.89,10.27,29.11,20.17,58.35,30.92,87.28,8.82,23.74,18.65,47.12,28.03,70.65l-.17-.31c1.05,3.68,2.11,7.35,3.16,11.03l-.17-.29c2.09,6.04,4.19,12.07,6.28,18.11Z"/>
  <path class="cls-18" d="M1359.6,3324.7c-26.65-71.16-52.16-139.29-78.34-209.2,17.21-6.46,34.5-12.95,53.71-20.16,6.57,18.91,12.79,36.96,19.14,54.97,4.86,13.78,9.72,27.56,14.86,41.24q24.56,65.46-9.36,133.15Z"/>
  <path class="cls-8" d="M184.46,557.28c97.63-39.08,195.25-78.22,292.92-117.2,19.28-7.7,38.78-14.82,60.26-23-9.86,24.42-22.34,39.99-46.21,49.02-92.93,35.16-184.95,72.73-277.36,109.25-7.56,2.99-15.58,4.83-23.38,7.2-3.54-7.58-7.09-15.17-10.63-22.75,0,0,.3.04.3.05,1.37-.85,2.74-1.71,4.1-2.57Z"/>
  <path class="cls-5" d="M1133.69,1431.61c29.03-12.75,58.05-25.51,90.95-39.96-33.81,68.86-65.44,133.3-97.08,197.73-2.17-.14-4.35-.29-6.52-.43-10.96-26.14-21.92-52.28-32.88-78.42,15.18-26.3,30.35-52.61,45.53-78.91Z"/>
  <path class="cls-18" d="M1914.32,3066.21c-3.56,17.18-7.11,34.35-10.92,52.71-24.94-7.36-40.91-16.35-48.27-40.05-14.33-46.13-31.86-91.27-48.06-136.82,16.31-6.48,32.61-12.96,48.92-19.44,3.35,8.03,6.79,16.03,10.05,24.09,16.12,39.83,32.19,79.67,48.28,119.51Z"/>
  <path class="cls-11" d="M1174.81,3370.41c-1.17-.09-2.48.14-3.47-.33-16.08-7.53-31.91-13.12-46.97,11.43-23.4-62.55-44.72-119.54-66.85-178.72,17.24-6.73,32.78-12.79,48.31-18.85,23.93,57.52,47.99,114.99,71.47,172.69,1.49,3.65-1.55,9.14-2.48,13.78Z"/>
  <path class="cls-11" d="M1229.82,3355.18c-3.59,7.3-7.19,14.61-11.53,23.43-9.6-2.74-18.96-5.4-28.32-8.07-2.58-7.1-4.92-14.31-7.77-21.3-22.92-56.11-45.94-112.18-68.92-168.26,16.46-6.22,32.92-12.45,49.38-18.67,13.2,39.21,26.16,78.5,39.68,117.59,8.73,25.24,18.29,50.19,27.48,75.27Z"/>
  <path class="cls-18" d="M1521.39,3253.15c-.16,3.4-.31,6.8-.62,13.42-20.44-9.67-39.63-18.52-58.53-27.95-2.69-1.34-4.62-5.27-5.79-8.41-19.22-51.86-38.25-103.79-57.92-157.3,13.76-5.54,25.42-10.23,37.08-14.92,4.62,4.6,11.3,8.37,13.55,13.93,24.47,60.25,48.25,120.78,72.22,181.23Z"/>
  <path class="cls-18" d="M1791.59,2944.43c17.51,47.14,35.02,94.28,54.85,147.68-38.31-29.24-36.27,12.41-53.58,20.72-4.25-10.3-8.63-20.94-13.02-31.57-8.23-22.71-16.45-45.42-24.68-68.13-.68-2.34-1.35-4.67-2.03-7.01-.51-1.23-1.02-2.47-1.53-3.7-4.28-14.05-8.56-28.1-12.85-42.15,17.61-5.28,35.21-10.55,52.82-15.83Z"/>
  <path class="cls-15" d="M980.77,3069.9c11.12,39.3,22.24,78.59,33.35,117.89-40.3,17.02-80.6,34.04-120.9,51.06-.57-.63-1.15-1.25-1.74-1.87,11.92-14.28,23.87-28.55,35.74-42.87,3.26-3.94,6.37-8.01,9.44-12.1,17.67-23.54,16.06-47.69,5.49-74.09-8.68-21.69-6.84-22.46,15.41-30.24,7.7-2.69,15.47-5.2,23.2-7.79Z"/>
  <path class="cls-18" d="M1918.31,2901.09c18.18,46.83,36.37,93.66,55.13,141.98q-37.81-7.55-51.53,15.23c-1.92-2.82-4.41-5.4-5.67-8.49-18.2-44.54-36.24-89.15-54.32-133.74,18.8-4.99,37.59-9.99,56.39-14.98Z"/>
  <path class="cls-18" d="M1972.59,2882.31c19.88,49.9,40.58,99.5,58.9,149.96,3.43,9.46-2.69,22.39-4.56,34.77-23.44-5.51-38.39-12.77-45.84-34.63-15.82-46.42-34.57-91.84-52.12-137.67,14.54-4.15,29.08-8.29,43.63-12.44Z"/>
  <path class="cls-18" d="M1691.5,2978.39c20.13,56.59,40.27,113.18,62.14,174.66-16.99-8.78-29.34-18.17-43.17-21.61-21.45-5.33-26.65-20.46-31.98-38.35-10.19-34.15-21.95-67.83-33.06-101.71,15.36-4.33,30.72-8.66,46.08-13Z"/>
  <path class="cls-11" d="M1023.34,3216.34c6.95-2.8,13.9-5.6,23.31-9.39,5.61,15.95,10.29,30.76,15.98,45.16,15.9,40.26,32.17,80.37,48.39,120.49,3.82,9.45-10.81,47.69-20.4,49.58-3.57.71-10.8-4.16-12.33-8.07-12.36-31.56-23.76-63.51-35.45-95.33-.34-5.17-.08-10.46-1.12-15.49-5.96-29.02-12.23-57.98-18.39-86.96Z"/>
  <path class="cls-13" d="M1478.4,90.86c-11.75,7.51-22.61,17.39-35.39,22.15-94.74,35.29-190.07,68.98-284.68,104.61-21.73,8.18-41.62,8.06-66.8-.52,129.91-45.31,256.43-89.45,382.96-133.58,1.3,2.45,2.61,4.9,3.91,7.34Z"/>
  <path class="cls-7" d="M1163.42,1393.86c-38.2,16.06-76.33,32.26-114.68,47.96-3.55,1.45-9.86,1.4-12.39-.81-9.99-8.71-18.99-18.57-31.25-30.91,65.9-26.51,129.49-52.09,193.07-77.66-2.89,5.59-5.59,11.3-8.72,16.75-8.58,14.95-17.34,29.79-26.03,44.67Z"/>
  <path class="cls-18" d="M2077.58,2851.96c18.35,53.45,36.69,106.91,55.04,160.36-1.01,1.09-2.03,2.17-3.05,3.26-22.12-11.81-55.95-3.66-63.18-40.84-1.47-5.61-2.67-11.3-4.45-16.81-10.05-31.07-20.24-62.1-30.38-93.15,15.34-4.28,30.68-8.55,46.02-12.83Z"/>
  <path class="cls-15" d="M968.96,3410.27c-9.7,16.49-19.4,32.98-28.95,49.22-11.67-35.17-23.13-70.64-35.26-105.89-7.23-21.02-15.28-41.77-23.35-62.49-8.39-21.56-8.59-21.46,13.92-28.71,3.34-1.07,6.59-2.42,9.88-3.64,4.14,4.2,9.87,7.7,12.1,12.75,6.34,14.33,11.28,29.29,16.72,44.02,11.66,31.58,23.29,63.16,34.94,94.75Z"/>
  <path class="cls-15" d="M963.19,3237.55c9.94-3.25,19.87-6.5,31.6-10.34,24.18,63.01,48.15,125.48,73.58,191.75-18.33-5.26-33.62-9.65-48.91-14.04-11.49-33.73-23.06-67.44-34.43-101.21-7.41-22.01-14.56-44.1-21.83-66.16Z"/>
  <path class="cls-18" d="M1442.61,3227.9c-17-5.17-33.68-14.02-42.53,10.98-17.54-48.45-35.08-96.9-53.38-147.43,15.4-5.86,29.25-11.14,43.02-16.38,17.66,51.03,34.79,100.52,52.89,152.83Z"/>
  <path class="cls-8" d="M1478.92,105.32c6.54,11.95,14.58,23.32,19.38,35.94,33.74,88.82,66.61,177.96,100.19,266.83,12.37,32.73,25.84,65.04,39.03,97.45,1.45,3.55,4.4,6.49,6.66,9.71.79,6.28,1.57,12.57,2.36,18.86-13.7-1.36-21.11-8.91-25.95-21.96-47.93-129.15-96.49-258.06-144.3-387.25-2.02-5.45,1.63-13.01,2.64-19.58Z"/>
  <path class="cls-18" d="M1584.04,3199.74c-11.78.84-22.68-13.88-35.09-2.01-1.27-3.26-2.67-6.48-3.77-9.79-16.36-49.3-32.68-98.62-49.02-147.94,11.02-4.25,22.05-8.49,33.07-12.74,22.05,56.97,44.1,113.94,66.75,172.47-5.29,0-8.61,0-11.94,0Z"/>
  <path class="cls-18" d="M2414.37,2751.4c12.68,40.13,25.45,80.23,37.89,120.43.88,2.85.44,7.11-1.16,9.55-8.26,12.64-17.1,24.9-28.28,40.92-17.39-55.19-34.23-108.65-51.07-162.11,14.2-2.93,28.41-5.87,42.61-8.8Z"/>
  <path class="cls-11" d="M1201.05,3147.38c18.03,49.27,36.04,98.54,54.16,147.77.77,2.08,2.63,3.75,3.99,5.62-7.59,13.19-15.17,26.38-22.76,39.56-3.26-6.12-7.21-11.97-9.66-18.39-20.34-53.23-40.4-106.56-60.54-159.86,11.6-4.9,23.21-9.8,34.81-14.71Z"/>
  <path class="cls-18" d="M1453.22,3052.1c11.76-4,23.53-8,35.3-11.99,17.87,55.88,35.74,111.76,53.61,167.64-4.46,11-8.92,21.99-13.39,33-3.04-3.43-7.27-6.38-8.93-10.39-11.83-28.56-23.67-57.14-34.44-86.1-11.33-30.48-21.48-61.41-32.14-92.14Z"/>
  <path class="cls-18" d="M2305.48,2901.34c.75,2.45,1.5,4.9,2.25,7.34.32,1.02.65,2.05.98,3.08,12.46,25.07,1.54,43.96-18.67,63.82-19.26-58.73-37.95-115.74-56.64-172.76,12.45-2.99,24.9-5.98,37.35-8.96,11.58,35.83,23.16,71.66,34.74,107.49Z"/>
  <path class="cls-13" d="M1029.88,240.25c-6.31,17.7-16.57,30.63-35.78,36.68-32.28,10.16-63.99,22.12-95.94,33.31-1.6.61-3.2,1.22-4.81,1.84,0,0,.05-.03.05-.03-1.41.65-2.83,1.31-4.24,1.96-3.55,1.1-7.09,2.2-10.64,3.3-3.68-.03-7.58-.88-11,.04-46.36,12.41-92.6,25.24-139.02,37.42-5,1.31-10.9-.83-16.38-1.37,104.82-37.66,209.64-75.32,314.49-112.93,1.02-.36,2.3.01,3.46.05l-.19-.25Z"/>
  <path class="cls-18" d="M1635.84,2997.22c14.52,45.42,29.15,90.79,43.32,136.31,1.2,3.85-.19,8.82-1.31,13.03-4,15.13-8.4,30.15-12.64,45.21-3.33-3.56-6.67-7.11-10-10.67l.17.29c-1.05-3.68-2.11-7.35-3.16-11.03l.17.31c-1.57-6.74-2.65-13.64-4.79-20.19-15.74-48.1-31.69-96.13-47.58-144.18,11.94-3.03,23.88-6.06,35.82-9.08Z"/>
  <path class="cls-15" d="M1014.81,3405.4c-7.05-.23-14.1-.47-21.15-.7-13.66,1.49-20.62-4.65-25.38-17.76-15.96-43.93-33.25-87.37-50.03-131,12.25-2.83,24.51-5.66,36.76-8.48,3.56,10.41,6.78,20.95,10.73,31.21,16.24,42.29,32.7,84.49,49.08,126.73Z"/>
  <path class="cls-18" d="M2061.29,2979.62c10.29,21.44-13.17,27.9-17.58,42.82-1.93.43-3.85.86-5.78,1.29-18.13-48.12-36.26-96.24-54.39-144.36,12.97-5.34,25.95-10.67,38.92-16.01,12.94,38.75,25.88,77.51,38.82,116.26Z"/>
  <path class="cls-18" d="M2314.86,2778.49c15.44,43.4,30.88,86.81,45.45,127.78-14.4,7.68-26.62,14.2-38.84,20.72-3.05-9.21-5.75-17.33-8.45-25.46-11.38-37.97-22.77-75.94-34.15-113.91,12-3.05,23.99-6.09,35.99-9.14Z"/>
  <path class="cls-9" d="M2688.6,2841.24c-24.35-60.38-48.7-120.77-73.11-181.3,10.59-8.78,18.44-8.31,25.26,4.12,21.06,38.4,42.63,76.52,63.78,114.87,1.56,2.83,2.51,6.9,1.8,9.94-4.11,17.45-8.81,34.76-13.31,52.12-1.47.08-2.94.17-4.42.25Z"/>
  <path class="cls-18" d="M1738.33,2987.62c2.97,8.48,5.94,16.96,8.91,25.44,8.3,22.9,16.61,45.79,24.91,68.69,2.51,7.75,3.83,16.16,7.75,23.11,11.68,20.69,5.99,40.01-3.75,63.43-4.41-8.45-8.07-13.93-10.28-19.94-19.74-53.67-39.38-107.37-58.6-161.23-2.77-7.75-10.91-17.52,3.06-23.51,13.77-5.9,20.43,1.42,24.41,13.46,1.19,3.52,2.38,7.03,3.58,10.55Z"/>
  <path class="cls-8" d="M712.13,353.38c5.48.54,11.38,2.68,16.38,1.37,46.42-12.18,92.66-25.01,139.02-37.42,3.42-.92,7.32-.07,11-.04-34.18,13.24-68.27,26.71-102.56,39.65-39.36,14.86-79.17,28.57-118.25,44.12-20.61,8.2-39.3,7.22-61.82-6.21,40.54-14.46,78.38-27.97,116.23-41.47Z"/>
  <path class="cls-18" d="M2355.05,2766.03c17.25,52.6,34.49,105.19,52.07,158.81-22.96-.43-35.45-9.11-41.83-31.39-11.41-39.83-26.29-78.67-39.72-117.92,9.83-3.17,19.65-6.33,29.48-9.5Z"/>
  <path class="cls-5" d="M1220.72,1309.41c7.69-14.56,14.83-29.45,23.23-43.59,7.95-13.37,17.23-25.95,25.93-38.87,16.15-6.36,32.2-13,48.53-18.88,3.8-1.37,8.54-.12,12.85-.08-.61,4.19-.02,9.09-2.02,12.46-11.94,20.06-24.4,39.81-36.92,59.52-1.79,2.81-4.47,5.92-7.42,7-21.29,7.76-42.76,15.02-64.18,22.44Z"/>
  <path class="cls-18" d="M2111.54,2839.5c19.36,62.23,38.72,124.45,58.45,187.86-17.88-.17-25.58-7.8-30.21-22.7-16.1-51.83-33.51-103.25-50.42-154.83,7.39-3.45,14.79-6.89,22.18-10.33Z"/>
  <path class="cls-9" d="M2571.16,2706.17c-3.93-8.96-7.87-17.92-12.74-29.01,14.23-4.87,27.19-9.3,42.64-14.59,23.39,58.01,46.39,115.03,70.82,175.63-6.98-2.37-10.9-3.69-14.81-5.02-1.97-5.36-3.44-10.98-6-16.05-15.17-30.07-31.21-59.71-45.65-90.11-7.27-15.32-14.52-27.5-34.27-20.86Z"/>
  <path class="cls-18" d="M2556.92,2712.19c13.52,32.83,27.03,65.67,39.48,95.89-10.88,7.86-20.86,15.06-33.04,23.86-11.73-37.56-23.58-75.5-35.43-113.45,9.66-2.1,19.33-4.21,28.99-6.31Z"/>
  <path class="cls-5" d="M1163.42,1393.86c8.69-14.88,17.45-29.72,26.03-44.67,3.13-5.45,5.82-11.16,8.72-16.75,25.24-10.47,50.47-20.94,75.71-31.41,1.17,1.18,2.34,2.36,3.52,3.55-18.19,21.2-20.32,53.98-54.1,64.27-20.59,6.27-39.95,16.54-59.87,25.02Z"/>
  <path class="cls-18" d="M2571.16,2706.17c19.75-6.64,27,5.54,34.27,20.86,14.44,30.41,30.48,60.05,45.65,90.11,2.56,5.07,4.03,10.68,6,16.05-25.25-2.48-44.14-10.92-52.21-39.05-8.63-30.07-22.26-58.71-33.71-87.97Z"/>
  <path class="cls-5" d="M1364.62,1069.84c11.7-18.52,23.4-37.05,35.1-55.57,1.82,4.23,3.81,8.39,5.43,12.69,19.71,52.48,18.95,56.51-20.11,102.4-7.09-20.68-13.76-40.1-20.42-59.52Z"/>
  <path class="cls-7" d="M391.95,1173.46c-21.75-9.52-45.73-16-64.45-29.67-11.77-8.59-15.66-27.96-24.67-45.58,26.25,8.86,48.35,15.68,69.85,24.07,4.69,1.83,8.16,8.79,10.54,14.13,4.87,10.92,8.63,22.33,12.85,33.55-1.37,1.17-2.75,2.34-4.12,3.51Z"/>
  <path class="cls-7" d="M1322.66,1145.91c10.58-18.9,21.17-37.8,31.76-56.7,6.46,16.86,13.09,33.67,19.23,50.65,1.07,2.96,1.38,7.44-.12,9.89-9.96,16.22-20.52,32.08-34,52.87-6.71-22.56-11.79-39.63-16.86-56.7Z"/>
  <path class="cls-7" d="M1133.69,1431.61c-15.18,26.3-30.36,52.61-45.53,78.91-10.3-16.01-20.59-32.03-31.69-49.28,25.85-9.92,51.54-19.78,77.22-29.63Z"/>
  <path class="cls-17" d="M1453.22,3052.1c10.66,30.73,20.81,61.66,32.14,92.14,10.77,28.97,22.62,57.54,34.44,86.1,1.66,4.01,5.89,6.96,8.93,10.39-2.45,4.13-4.89,8.27-7.34,12.41-23.97-60.45-47.75-120.98-72.22-181.23-2.26-5.56-8.93-9.33-13.55-13.93,5.87-1.96,11.73-3.93,17.6-5.89Z"/>
  <path class="cls-17" d="M1542.12,3207.74c-17.87-55.88-35.74-111.76-53.61-167.64,2.55-.03,5.1-.06,7.65-.1,16.33,49.31,32.65,98.63,49.02,147.94,1.1,3.32,2.51,6.53,3.77,9.79-2.28,3.34-4.55,6.67-6.83,10Z"/>
  <path class="cls-9" d="M2219.22,2805.03c-31.05,9.39-62.1,18.78-93.15,28.17-3.03-6.45-7.11-12.67,4.05-16.11,27.63-8.52,55.08-17.59,84.39-27.01,1.72,5.45,3.21,10.2,4.71,14.95Z"/>
  <path class="cls-17" d="M1113.28,3180.98c22.99,56.08,46,112.15,68.92,168.26,2.86,6.99,5.19,14.19,7.77,21.3-5.05-.04-10.11-.08-15.17-.13.93-4.64,3.97-10.13,2.48-13.78-23.48-57.7-47.54-115.17-71.47-172.69,2.48-.99,4.97-1.98,7.46-2.97Z"/>
  <path class="cls-5" d="M355.92,1021.79c2.11,11.12,4.23,22.25,6.34,33.37-15.93,8.08-31.86,16.16-52.6,26.69,10.33-22.79,18.71-41.25,26.92-59.37,6.4-.23,12.87-.46,19.34-.69Z"/>
  <path class="cls-5" d="M365.69,1065.98c15.11,17.7,14.97,20.4-2.19,41.32-15.65-5.2-31.29-10.4-46.94-15.61,0-1.54,0-3.07-.01-4.61,16.38-7.04,32.76-14.07,49.14-21.11Z"/>
  <path class="cls-17" d="M1861.92,2916.07c18.08,44.59,36.11,89.2,54.32,133.74,1.26,3.09,3.75,5.67,5.67,8.49-2.53,2.64-5.05,5.27-7.58,7.9-16.09-39.84-32.16-79.68-48.28-119.51-3.26-8.07-6.7-16.06-10.05-24.09-.69-3.41-1.37-6.82-2.05-10.23,2.11-1.23,4.22-2.46,6.34-3.69.55,2.47,1.09,4.93,1.64,7.4Z"/>
  <path class="cls-17" d="M1014.81,3405.4c-16.38-42.24-32.84-84.44-49.08-126.73-3.94-10.26-7.17-20.8-10.73-31.21,2.73-3.3,5.45-6.6,8.18-9.91,7.27,22.06,14.42,44.15,21.83,66.16,11.38,33.77,22.94,67.48,34.43,101.21-1.54.16-3.09.32-4.64.48Z"/>
  <path class="cls-17" d="M1166.24,3162.09c20.14,53.3,40.2,106.63,60.54,159.86,2.45,6.42,6.4,12.27,9.66,18.39-2.21,4.95-4.42,9.9-6.62,14.84-9.18-25.08-18.75-50.03-27.48-75.27-13.52-39.1-26.48-78.39-39.68-117.59,1.19-.07,2.39-.15,3.58-.22Z"/>
  <path class="cls-17" d="M1584.04,3199.74c3.32,0,6.65,0,11.94,0-22.65-58.53-44.7-115.5-66.75-172.47.76-.02,1.5.11,2.2.41,1.03.27,2.05.59,3.06.94,22.3,54.44,44.63,108.88,66.87,163.35,1.53,3.74,2.46,7.72,3.67,11.59-7-1.27-13.99-2.55-20.99-3.83Z"/>
  <path class="cls-5" d="M796.52,961.25c-11.13,4.48-22.26,8.95-33.39,13.43-3.66-9.05-8.76-17.85-10.35-27.24-.74-4.4,4.57-13.55,8.38-14.3,12.89-2.55,32.81,14.5,35.36,28.12Z"/>
  <path class="cls-9" d="M2517.46,2724.37c-13.65,3.43-27.3,6.85-40.95,10.28-2.72-6.46-5.45-12.91-8.17-19.37.75-3.41,1.51-6.83,2.26-10.24,12.02-3.45,24.05-6.91,38.12-10.95,2.3,7.81,4.47,15.19,6.64,22.56.52,1.34,1.04,2.69,1.57,4.04.18,1.23.36,2.46.53,3.69Z"/>
  <path class="cls-17" d="M918.24,3255.94c16.78,43.63,34.08,87.07,50.03,131,4.76,13.11,11.72,19.25,25.38,17.76-8.23,1.86-16.47,3.71-24.7,5.57-11.64-31.58-23.27-63.17-34.94-94.75-5.44-14.73-10.38-29.69-16.72-44.02-2.23-5.05-7.97-8.54-12.1-12.75,4.35-.94,8.7-1.88,13.05-2.81Z"/>
  <path class="cls-17" d="M1600.01,3006.3c15.89,48.05,31.84,96.08,47.58,144.18,2.14,6.55,3.22,13.45,4.79,20.19-9.38-23.54-19.21-46.91-28.03-70.65-10.75-28.93-20.65-58.18-30.92-87.28-.06-2.34-.11-4.67-.17-7.01,2.41-2.18,4.83-4.36,7.24-6.54-.16,2.37-.33,4.74-.49,7.11Z"/>
  <path class="cls-7" d="M180.06,559.81c3.54,7.58,7.09,15.16,10.63,22.75-23.44,1.85-46.88,3.71-70.32,5.56-.65-2.48-1.31-4.95-1.96-7.43,20.55-6.96,41.1-13.92,61.66-20.88Z"/>
  <path class="cls-17" d="M2278.87,2787.62c11.38,37.97,22.77,75.94,34.15,113.91-2.51-.06-5.03-.13-7.54-.19-11.58-35.83-23.16-71.66-34.73-107.49-2.02-6.84-4.04-13.69-6.06-20.53,2.58-.14,5.15-.28,7.73-.41,2.15,4.9,4.3,9.81,6.46,14.71Z"/>
  <path class="cls-7" d="M1698.02,633.63c-5.47,10.11-10.93,20.21-16.72,30.92-18.56-24.78-15.96-39.83,13.56-77.8,2.93,7.26,5.38,13.33,7.83,19.4-5.72,3.76-11.45,7.53-17.17,11.29,4.17,5.4,8.34,10.8,12.51,16.2Z"/>
  <path class="cls-9" d="M2466.41,2736.18c-13.24,2.89-26.49,5.78-39.73,8.67-2.35-6.46-4.71-12.93-7.98-21.93,15.61-1.43,27.24-17.74,44.31-5.95,0,0,.15-.02.15-.02,1.09,6.41,2.18,12.82,3.26,19.24Z"/>
  <path class="cls-15" d="M1023.34,3216.34c6.16,28.98,12.43,57.94,18.39,86.96,1.03,5.03.78,10.32,1.12,15.49-12.5-31.32-25-62.63-38.21-95.72,7.08-2.55,12.9-4.64,18.71-6.73Z"/>
  <path class="cls-5" d="M1301.47,770.09c-12.48,6.59-24.96,13.19-37.45,19.77-4.94-12.88-9.86-25.75-16.4-42.84,20.59,8.82,37.22,15.94,53.85,23.07Z"/>
  <path class="cls-9" d="M2414.37,2751.4c-14.2,2.93-28.41,5.86-42.61,8.8-2.34-5.77-4.68-11.55-7.79-19.23,14.91-4.99,28.41-9.5,44.03-14.73,2.25,8.88,4.32,17.02,6.38,25.16Z"/>
  <path class="cls-5" d="M1631.95,630.86c6.71-12.01,13.3-24.08,20.17-36,3.19-5.53,6.92-10.76,10.4-16.13,4.91-2.27,9.82-4.54,14.74-6.81.92,1.22,1.83,2.44,2.75,3.66-13.02,20.86-13.73,51.73-48.06,55.29Z"/>
  <path class="cls-17" d="M2061.29,2979.62c-12.94-38.75-25.88-77.51-38.83-116.26-.05-1.18.13-2.31.54-3.41,1.05-1.22,2.11-2.43,3.16-3.65,1.8,2.83,3.59,5.66,5.39,8.48,10.14,31.04,20.33,62.07,30.38,93.15,1.78,5.51,2.98,11.2,4.45,16.81-1.7,1.63-3.4,3.26-5.1,4.89Z"/>
  <path class="cls-7" d="M1250.4,799.96c-14.43,3.59-28.86,7.18-43.3,10.76,9.21-16.59,18.43-33.17,29.51-53.07,5.51,16.91,9.65,29.61,13.79,42.31Z"/>
  <path class="cls-9" d="M2556.92,2712.19c-9.66,2.1-19.33,4.2-28.99,6.31-3.29-8.51-6.58-17.02-10.71-27.68,9.59-3.23,17.95-6.05,28.57-9.63,3.94,10.98,7.53,20.99,11.13,31Z"/>
  <path class="cls-10" d="M1646.53,534.11c-.79-6.29-1.57-12.57-2.36-18.86,7.52-3.21,15.05-6.43,22.57-9.64,4.36,12.29,8.72,24.59,15.01,42.33-15.32-6.02-25.27-9.93-35.22-13.84Z"/>
  <path class="cls-9" d="M2264.69,2773.33c2.02,6.84,4.04,13.69,6.06,20.53-12.45,2.99-24.9,5.98-37.36,8.96-2.11-5.22-4.22-10.43-6.84-16.9,13.36-4.41,25.74-8.5,38.13-12.59Z"/>
  <path class="cls-9" d="M2278.87,2787.62c-2.15-4.9-4.3-9.81-6.46-14.71,11.3-4.71,22.6-9.41,36.01-14.99,2.57,8.19,4.5,14.38,6.44,20.57-12,3.05-23.99,6.09-35.99,9.14Z"/>
  <path class="cls-7" d="M676.11,893.27c7.37-3.12,14.99-5.79,22.04-9.52,5.21-2.76,9.69-6.9,14.49-10.42,3.95,10.02,7.9,20.05,14.21,36.09-20.13-6.41-35.44-11.28-50.74-16.15Z"/>
  <path class="cls-9" d="M2031.56,2864.78c-1.8-2.83-3.59-5.66-5.39-8.48,14.82-7.1,29.64-14.2,46.16-22.11,2.44,8.26,3.85,13.01,5.26,17.77-15.34,4.28-30.68,8.55-46.02,12.83Z"/>
  <path class="cls-7" d="M749.35,981.07c-12.74,3-25.48,6-38.22,8.99,9.79-13.27,19.59-26.55,32.65-44.26,2.42,15.32,4,25.29,5.58,35.26Z"/>
  <path class="cls-17" d="M1772.15,3081.74c-8.3-22.9-16.61-45.79-24.91-68.69,2.64.02,5.29.05,7.93.07,8.23,22.71,16.45,45.42,24.68,68.13-2.57.16-5.13.32-7.7.48Z"/>
  <path class="cls-9" d="M2355.05,2766.03c-9.83,3.16-19.65,6.33-29.48,9.5-2.57-5.7-5.15-11.4-8.59-19.03,11.19-3.77,20.85-7.03,32.68-11.02,2,7.64,3.7,14.1,5.39,20.55Z"/>
  <path class="cls-5" d="M284.55,1041.61c10.9-5.77,21.81-11.54,32.71-17.31-6.91,13.65-13.82,27.29-23.17,45.76-4.28-12.75-6.91-20.6-9.54-28.45Z"/>
  <path class="cls-9" d="M1861.92,2916.07c-.55-2.46-1.09-4.93-1.64-7.39,17.42-6.12,34.84-12.25,53.27-18.72,1.73,4.06,3.24,7.6,4.76,11.14-18.8,4.99-37.59,9.99-56.39,14.98Z"/>
  <path class="cls-9" d="M1972.59,2882.31c-14.54,4.15-29.08,8.29-43.63,12.44-1.46-10.22,4.23-13.35,31.73-21.06,9.47-2.65,11.61.67,11.9,8.62Z"/>
  <path class="cls-9" d="M1853.94,2912.37c.68,3.41,1.37,6.82,2.05,10.23-16.3,6.48-32.61,12.96-48.91,19.44-1.84-3.98-3.68-7.97-6.25-13.54,18.83-5.72,35.97-10.93,53.11-16.14Z"/>
  <path class="cls-9" d="M1791.59,2944.43c-17.61,5.28-35.21,10.55-52.82,15.83-1.04-1.39-2.08-2.77-3.12-4.16.2-1.19.41-2.37.61-3.56,14.24-5.19,28.59-10.1,42.68-15.69,8.2-3.26,12.13-1.11,12.65,7.58Z"/>
  <path class="cls-9" d="M2023.01,2859.95c-.41,1.1-.59,2.24-.54,3.41-12.97,5.34-25.95,10.67-38.92,16.01-4.25-7.38-3.83-12.61,5.7-15.24,7.69-2.12,15.06-5.42,22.58-8.2,3.49.29,6.98.57,10.47.86-.11,1.13.13,2.18.71,3.16Z"/>
  <path class="cls-13" d="M1068.14,252.75c-10.7,1.77-21.4,3.55-32.09,5.32,6.92-9.1,13.84-18.2,22.77-29.95,3.79,10.01,6.55,17.32,9.32,24.63Z"/>
  <path class="cls-9" d="M1593.26,3005.73c.06,2.34.11,4.67.17,7.01-19.64,5.3-39.29,10.6-58.94,15.89-1.01-.35-2.03-.67-3.06-.94,20.61-7.32,41.22-14.64,61.83-21.96Z"/>
  <path class="cls-4" d="M2218.61,886.86c6.99,1.43,13.98,2.87,20.97,4.3,4.37,7.29,8.74,14.58,14.14,23.59-6.07,2.25-10.61,3.94-15.15,5.63-6.65-11.17-13.3-22.34-19.95-33.51Z"/>
  <path class="cls-5" d="M729.45,875.23c8.29-3.39,16.58-6.77,24.87-10.16-4.38,12.29-8.75,24.58-13.13,36.87-1.53.11-3.07.22-4.6.33-2.38-9.01-4.76-18.03-7.14-27.04Z"/>
  <path class="cls-8" d="M381.12,1104.95c2.08-3.72,3.43-9.88,6.38-10.77,18.1-5.49,36.57-9.79,54.91-14.49-20.43,8.42-40.86,16.84-61.29,25.26Z"/>
  <path class="cls-17" d="M1284.05,3284.46c-6.29-16.87-12.59-33.73-18.88-50.6,1.52-2.59,3.04-5.19,4.56-7.78,6.16,16.99,12.33,33.99,18.49,50.98-1.39,2.47-2.78,4.93-4.17,7.4Z"/>
  <path class="cls-9" d="M1691.5,2978.39c-15.36,4.33-30.72,8.66-46.08,13-.73-1.44-1.46-2.89-2.19-4.33,15.06-5.43,30.11-10.89,45.28-15.98.16-.05,1.96,4.77,2.99,7.31Z"/>
  <path class="cls-9" d="M2111.54,2839.5c-7.39,3.44-14.79,6.89-22.18,10.33-2.3-5.03-4.61-10.06-7.55-16.5,8.95-3.01,16.33-5.49,25.59-8.6,1.52,5.41,2.83,10.09,4.15,14.77Z"/>
  <path class="cls-10" d="M1698.02,633.63c-4.17-5.4-8.34-10.8-12.51-16.2,5.72-3.76,11.45-7.53,17.17-11.29-1.56,9.16-3.11,18.33-4.67,27.49Z"/>
  <path class="cls-10" d="M1100.8,233.52c.36,2.3,1.33,6.52,1,6.62-7.65,2.41-15.45,4.38-23.22,6.43-2.15-4.92-4.3-9.85-7.53-17.25,12.06,1.7,20.9,2.95,29.75,4.2Z"/>
  <path class="cls-5" d="M1230.52,690.51c7.21-2.32,14.41-4.63,21.61-6.95-4.2,9.01-8.41,18.02-12.61,27.03-1.47-.25-2.93-.5-4.4-.75-1.54-6.44-3.07-12.88-4.61-19.32Z"/>
  <path class="cls-9" d="M1600.01,3006.3c.16-2.37.33-4.74.49-7.11,8.04-2.66,15.93-6.18,24.19-7.56,3.31-.55,7.41,3.59,11.15,5.59-11.94,3.03-23.88,6.06-35.82,9.08Z"/>
  <path class="cls-17" d="M1655.21,3181.1c3.33,3.56,6.67,7.11,10,10.67-1.24,2.48-2.48,4.96-3.72,7.44-2.09-6.04-4.19-12.07-6.28-18.11Z"/>
  <path class="cls-2" d="M1730.8,2913.52c4.96-2.04,9.92-4.08,14.88-6.13-4.96,2.04-9.92,4.08-14.88,6.13Z"/>
  <path class="cls-17" d="M1265.32,3212.53c.42,1.8.84,3.59,1.26,5.4-.65,1.99-1.3,3.97-1.95,5.95-2.04-2.55-4.08-5.1-6.13-7.65,2.27-1.23,4.55-2.47,6.82-3.7Z"/>
  <path class="cls-17" d="M1738.33,2987.62c-1.19-3.51-2.38-7.03-3.58-10.55,1.19,3.51,2.38,7.03,3.58,10.55Z"/>
  <path class="cls-17" d="M2470.6,2705.04c-.75,3.41-1.51,6.83-2.26,10.24-1.73.55-3.46,1.11-5.19,1.66,0,0-.15.02-.15.02,2.53-3.97,5.07-7.95,7.6-11.93Z"/>
  <path class="cls-17" d="M2510.67,2883.84c1.12-1.55,2.23-3.09,3.35-4.64,1.79-.27,3.59-.55,5.38-.82,0,0,.33.09.33.09-3.02,1.79-6.04,3.58-9.07,5.38Z"/>
  <path class="cls-17" d="M2022.29,2856.79c-3.49-.29-6.98-.57-10.47-.86,3.49.29,6.98.57,10.47.86Z"/>
  <path class="cls-8" d="M442.13,1079.86c2.67-1.11,5.35-2.22,8.03-3.33-2.67,1.11-5.35,2.22-8.03,3.33Z"/>
  <path class="cls-2" d="M1720.48,2916.12c2.96-.83,5.92-1.66,8.88-2.49-2.96.83-5.92,1.66-8.88,2.49Z"/>
  <path class="cls-7" d="M1206.93,811.44c.06,1.59.12,3.17.18,4.76-.06-1.59-.12-3.18-.18-4.76Z"/>
  <path class="cls-15" d="M893.22,3238.85c-1.3.15-2.6.3-3.91.45.72-.77,1.45-1.54,2.17-2.31.58.61,1.16,1.24,1.74,1.87Z"/>
  <path class="cls-7" d="M184.46,557.28c-1.37.86-2.73,1.72-4.1,2.57,1.37-.86,2.73-1.72,4.1-2.57Z"/>
  <path class="cls-8" d="M889.16,313.99c1.41-.65,2.83-1.31,4.24-1.96-1.41.65-2.83,1.31-4.24,1.96Z"/>
  <path class="cls-5" d="M1216.7,1312.19c1.29-.95,2.58-1.89,3.87-2.84-1.29.95-2.58,1.89-3.87,2.84Z"/>
  <path class="cls-8" d="M858.63,1305.7c.42,1.11.84,2.22,1.26,3.33-1.15-.45-2.31-.89-3.47-1.33.72-.67,1.46-1.34,2.21-2Z"/>
  <path class="cls-5" d="M1628.18,633.83c1.24-.99,2.48-1.97,3.71-2.95-1.24.99-2.48,1.97-3.71,2.95Z"/>
  <path class="cls-8" d="M893.35,312.07c1.6-.62,3.2-1.23,4.81-1.84-1.6.62-3.2,1.23-4.81,1.84Z"/>
  <path class="cls-13" d="M1030.08,240.5c.28-.34.57-.69.85-1.03-.35.26-.69.52-1.04.78,0,0,.19.25.19.25Z"/>
  <path class="cls-18" d="M2516.93,2720.69c-.52-1.35-1.05-2.7-1.57-4.04.52,1.35,1.05,2.7,1.57,4.04Z"/>
  <path class="cls-17" d="M2308.7,2911.76c-.33-1.03-.65-2.05-.98-3.08.79.88,1.11,1.91.98,3.08Z"/>
  <path class="cls-17" d="M1736.26,2952.54c-.2,1.18-.41,2.37-.61,3.56.2-1.18.41-2.37.61-3.56Z"/>
  <path class="cls-17" d="M1751.62,3002.41c.51,1.23,1.02,2.47,1.53,3.7-.51-1.23-1.02-2.47-1.53-3.7Z"/>
  <path class="cls-6" d="M2519.4,2878.38c-1.79.28-3.58.55-5.38.82-4.02-11.97-8.04-23.93-12.05-35.9,2.46-1.05,4.91-2.1,7.37-3.16.89,2.56,1.77,5.12,2.66,7.68,1.08,3.43,2.17,6.86,3.25,10.29v.03c.29,1.5.57,3,.85,4.5,1.1,5.24,2.21,10.48,3.31,15.73Z"/>
  <path class="cls-6" d="M2491.16,2809.41c-2.52-7.85-5.03-15.71-7.55-23.56,1.26-4.47,2.53-8.94,3.79-13.4,3.09,9.54,6.18,19.07,9.27,28.61-1.84,2.78-3.68,5.57-5.51,8.35Z"/>
  <path class="cls-6" d="M2463.14,2716.94c1.73-.55,3.46-1.11,5.19-1.66,2.72,6.46,5.45,12.91,8.17,19.37-.76,3.05-1.52,6.09-2.28,9.14-2.61-2.54-5.21-5.07-7.82-7.61-1.09-6.41-2.18-12.82-3.26-19.23Z"/>
  <path class="cls-17" d="M2509.33,2840.15c-2.46,1.05-4.91,2.1-7.37,3.16-1.66-5.41-3.31-10.82-4.96-16.23,2.08-1.76,4.15-3.53,6.22-5.29,2.03,6.12,4.07,12.25,6.1,18.37Z"/>
  <path class="cls-6" d="M2477.77,2768.16c-1.35-4.3-3.01-8.54-3.89-12.93-.34-1.71,1.06-3.77,1.67-5.67,1.92,1.59,3.84,3.18,5.76,4.77.9,2.45,1.79,4.89,2.69,7.34.84,2.27,1.68,4.53,2.53,6.8-2.92-.1-5.83-.2-8.75-.31Z"/>
  <path class="cls-17" d="M2477.77,2768.16c2.92.1,5.83.21,8.75.31.29,1.33.59,2.65.88,3.98-1.26,4.47-2.53,8.94-3.79,13.41-1.95-5.9-3.89-11.8-5.84-17.69Z"/>
  <path class="cls-17" d="M2491.16,2809.41c1.84-2.78,3.68-5.57,5.51-8.35,1.14,4.05,2.29,8.11,3.43,12.16-2.03,1.88-4.05,3.76-6.08,5.64-.96-3.15-1.91-6.3-2.87-9.45Z"/>
  <path class="cls-6" d="M2494.03,2818.86c2.03-1.88,4.05-3.76,6.08-5.64,1.04,2.85,2.08,5.71,3.12,8.56-2.07,1.76-4.14,3.52-6.22,5.29-1-2.74-1.99-5.47-2.98-8.21Z"/>
  <path class="cls-17" d="M2515.24,2858.13c-1.08-3.43-2.17-6.86-3.25-10.29,1.08,3.43,2.17,6.86,3.25,10.29Z"/>
  <path class="cls-17" d="M2484,2761.66c-.9-2.44-1.79-4.89-2.69-7.34.9,2.44,1.79,4.89,2.69,7.34Z"/>
  <path class="cls-17" d="M2516.09,2862.65c-.28-1.5-.56-3-.84-4.5.28,1.5.56,3,.84,4.5Z"/>
  <path class="cls-6" d="M1269.73,3226.08c-1.52,2.59-3.04,5.19-4.56,7.78,1.52-2.59,3.04-5.19,4.56-7.78Z"/>
  <path class="cls-6" d="M1264.63,3223.88c.65-1.98,1.3-3.96,1.95-5.95.54,1.82,1.08,3.64,1.61,5.47-1.19.16-2.38.32-3.56.48Z"/>
  <path class="cls-17" d="M1652.21,3170.36c1.05,3.68,2.11,7.35,3.16,11.03-1.05-3.68-2.11-7.35-3.16-11.03Z"/>
</svg>