<?xml version="1.0" encoding="UTF-8"?>
<svg id="Capa_1" data-name="Capa 1" xmlns="http://www.w3.org/2000/svg" viewBox="0 0 1190.55 1697.06">
  <defs>
    <style>
      .cls-1 {
        fill: #0a2231;
      }

      .cls-2 {
        fill: #f9b233;
      }

      .cls-3 {
        fill: #f39200;
      }

      .cls-4 {
        fill: #3cb5d6;
      }

      .cls-5 {
        fill: #2380af;
      }
    </style>
  </defs>
  <path class="cls-1" d="M1190.52,130.96c-.1-37.55-6.32-68.71-33.93-96.06C1116.43-4.87,1073.94.21,1022.31.21l-635.52.07c-68.83,6.93-86.66,45.68-132.8,91.25L63.2,282.65C-3.49,348.96.03,361.54.03,447.19L.01,1498.08c-.12,82.21,1.17,180.59,110.28,196.24,26.8,3.85,55.77,1.96,82.82,1.96l609.76-.06,178.32.06c31.69,0,80.69,3.35,110.69-3.87,87.41-21.03,98.71-90.38,98.66-163.67l-.03-1397.78Z"/>
  <path class="cls-4" d="M1011.95,56.93l-586.41.06c-47.44-.19-53.01-5.71-86.25,27.26l-41.23,41.56c-.05,9.08.01,19.11.01,30.47v525.49c11.82-.72,24.85-1.05,39.37-1.04l545.54.04c111.51-3.28,120.4,43.72,120.33,142.86l.25,574.28c0,2.47-.14,4.95-.32,7.42h97.68s33.8,0,33.8,0l.12-1276.92c-.48-80.97-64.17-71.46-122.87-71.46ZM1039.85,382.98c-.8,14.21-8.28,20.91-21.67,25.48l-1.01.06c-45.9,2.33-32.75-57.94-32.72-87.29l.06-126.75-122.34.04c-22.01.02-45.12,1.37-67-.59-32.53-2.91-31.59-47.35-2.6-56.09,30.78-.96,61.92-.05,92.73.02l113.58-.25c14.49.1,27,1.26,37.74,12.14,7.29,21.13,5.28,196.63,3.22,233.24Z"/>
  <path class="cls-5" d="M114.8,1638.29c10.18,1.78,21.14,2.12,32.16,2.02,11-.1,22.05-.65,32.4-.65l588.15-.05,209.94-.04h0c15.31,0,37.9.98,59.12.94,16.48-.03,32.12-.68,42.87-2.87,59.76-12.16,55.25-69.95,55.26-114.61v-117.72s-33.8-.01-33.8-.01h-97.68c-3.19,42.67-33.03,83.38-76.86,90.74-21.75,3.65-46.16,1.83-68.22,1.82l-541.48-.04c-68.27.16-125.71-14.05-126.3-95.4l.03-566.68c0-115.44,12.19-148.19,107.65-153.98V156.27c.01-11.35-.05-21.39,0-30.47v-.15l-191.34,192.85c-25.88,26.19-50.76,43.17-50.94,82.93l.18,1137.65c0,41.86,5.56,89.88,58.85,99.2Z"/>
  <path class="cls-2" d="M299.64,1267.23c5.01,64.25,25.52,124.25,108.68,136.17,15.61,2.24,31.96,2.52,48.23,2.38v-138.55s-156.91,0-156.91,0Z"/>
  <path class="cls-2" d="M718.83,1239.73c-10.91,8.17-20.08,17.87-29.67,27.5-20.38.72-40.9.04-61.3.01h-115.34s0,42.38,0,42.38v84.8s0,.49,0,.49v10.44l206.32-.02.05-100.98c.01-21.07,1.82-43.76-.07-64.62Z"/>
  <path class="cls-2" d="M300.52,736.39l-2.47.1v179.6s108.38,0,108.38,0c16.69,0,33.43-.3,50.12,0v-179.69h-156.04Z"/>
  <path class="cls-2" d="M573.99,916.08h108.93c11.85,11.22,23.36,23.18,35.9,33.6.64-24.06.03-48.21.01-72.28v-141.01c-10.01-.57-19.68-.5-29.68,0h-176.64c0,59.87-.73,119.83,0,179.69h61.48Z"/>
  <path class="cls-2" d="M661.49,973.02h-363.45v234.14c0,1.19,0,2.4,0,3.6h366.91l53.88-56.06v-126.91c-18.36-18.55-36.57-37.55-56.2-54.77h-1.13Z"/>
  <path class="cls-2" d="M947.7,1297.24l.04-484.3c-.01-78.59-4.13-76.72-79.86-76.66l-94.08.11v668.94l171.92-.02c7.4-32.94,1.99-82.62,1.99-108.08Z"/>
  <path class="cls-3" d="M456.55,1405.78c-16.28.14-32.62-.14-48.23-2.38-83.16-11.93-103.67-71.92-108.68-136.17h-52.94l-.05,90.6c0,94.25,6.67,83.98,88.7,83.92h121.2v-35.98Z"/>
  <polygon class="cls-3" points="512.52 1405.36 512.52 1441.75 718.83 1441.75 718.83 1441.69 718.85 1405.34 512.52 1405.36"/>
  <path class="cls-3" d="M298.05,916.08v-179.6c-56.91,2.11-51.91,28.41-51.47,76.04v.56c.02,1.56.03,3.15.03,4.76l.1,98.23h51.34Z"/>
  <rect class="cls-3" x="246.7" y="973.02" width="51.34" height="237.73"/>
  <path class="cls-3" d="M773.79,1441.75l88.77.09c25.17,0,53.31,6.13,73.05-12.96,1.24-1.49,2.37-3.17,3.41-4.98.64-1.11,1.19-2.36,1.76-3.57.32-.7.68-1.35.98-2.08.72-1.73,1.36-3.59,1.96-5.49l.23-.7c.65-2.13,1.23-4.35,1.74-6.65l.02-.09h0l-171.92.02v36.42Z"/>
</svg>