<?xml version="1.0" encoding="utf-8"?>
<!-- Generator: Adobe Illustrator 25.4.1, SVG Export Plug-In . SVG Version: 6.00 Build 0)  -->
<svg version="1.1" id="Layer_1" xmlns="http://www.w3.org/2000/svg" xmlns:xlink="http://www.w3.org/1999/xlink" x="0px" y="0px"
	 viewBox="0 0 53 53" style="enable-background:new 0 0 53 53;" xml:space="preserve">
<style type="text/css">
	.st0{fill:#3E3E3F;}
	.st1{fill:#F3B607;}
	.st2{fill:#FA5655;}
	.st3{fill:#BCBCBC;}
	.st4{fill:#E5E5E5;}
	.st5{fill:#545454;}
	.st6{fill:#CE9761;}
	.st7{fill:#9E643C;}
	.st8{fill:#21BDD6;}
	.st9{fill:#10A3B2;}
	.st10{fill:#DA3130;}
	.st11{fill:#E59900;}
	.st12{fill:#FFFFFF;}
	.st13{fill:#D8A782;}
	.st14{fill:#FFDCB6;}
	.st15{opacity:0.2;fill:#F3B607;}
	.st16{opacity:0.3;fill:#BCBCBC;}
	.st17{opacity:0.3;fill:#DA3130;}
	.st18{fill:#895531;}
	.st19{fill:#FFCA28;}
	.st20{fill:#875533;}
	.st21{opacity:0.15;fill:#3E3E3F;}
	.st22{opacity:0.2;fill:#3E3E3F;}
	.st23{opacity:0.1;fill:#3E3E3F;}
	.st24{opacity:0.36;}
	.st25{fill:#D38802;}
	.st26{opacity:0.3;fill:#3E3E3F;}
	.st27{opacity:0.2;fill:#FFFFFF;}
	.st28{fill:#C62A2A;}
</style>
<g>
	<g>
		<g>
			<path class="st5" d="M17.9619713,15.1417866l-0.5100098,0.9599609l-0.2600098,0.4900513l-0.3699951,0.6900024
				l-0.2600098,0.4899902l-0.3699951,0.6900024l-0.2600088,0.4799805l-0.3699951,0.6900024l-0.25,0.4899902l-0.3699951,0.6900024
				L14.6819429,21.29175l-0.5,0.9400024l-1.2299805-0.6499634l-2.2600098-1.210022
				c-0.5100098-0.2600098-0.6900024-0.8699951-0.4299927-1.3499756l0.0100098-0.0100098l0.25-0.4899902l0.3699951-0.7000122
				l0.25-0.4700317l0.3699951-0.6999512l0.2600098-0.4899902l0.3599854-0.6900024l0.2600098-0.4900513l0.3599854-0.6900024
				l0.2600098-0.4899902l0.0499878-0.0899658c0.2600098-0.5100098,0.8699951-0.6900024,1.3800049-0.4299927l2.0800161,1.0999756
				L17.9619713,15.1417866z"/>
		</g>
		<g>
			<polygon class="st0" points="17.4519615,16.1017475 17.1919518,16.5917988 12.7519503,14.29175 13.01196,13.8017597 			"/>
			<polygon class="st0" points="16.8219566,17.2818012 16.5619469,17.7717915 12.1319551,15.4718037 12.3919649,14.9817524 			"/>
			<polygon class="st0" points="16.1919518,18.4617939 15.9319429,18.9417744 11.51196,16.6517963 11.7719698,16.1618061 			"/>
			<polygon class="st0" points="15.5619478,19.6317768 15.3119478,20.121767 10.8919649,17.8217793 11.1419649,17.3517475 			"/>
			<polygon class="st0" points="14.9419527,20.8117695 14.6819429,21.29175 10.2719698,19.0117817 10.5219698,18.5217915 			"/>
		</g>
		<path class="st0" d="M16.5219688,14.3817768c-0.1800537,0.1900024-0.3300171,0.4099731-0.4500122,0.6400146l-2.9100332,5.8900146
			c-0.0999756,0.2099609-0.1699829,0.4399414-0.2099609,0.6699829l1.2299805,0.6499634l3.7800283-7.0899658L16.5219688,14.3817768z"
			/>
		<path class="st2" d="M50.3319664,37.7417641L38.2419395,4.331789C37.7519493,3.0017719,36.3019371,2.29175,34.97192,2.7218037
			l-5.6900024,1.8099976c-0.789978,0.2599487-1.4199829,0.8699951-1.6799927,1.6599731l-1.1199951,3.2600098
			c-0.2299805,0.7199707-0.7699585,1.2799683-1.4599609,1.5800171l-7.1600342,2.9899902
			c-0.5599976,0.2299805-1.0499878,0.6900024-1.3300171,1.25l-2.9099722,5.8900146
			c-0.2999878,0.6399536-0.3499756,1.3799438-0.0999756,2.039978l9.1599722,25.4500141
			c0.4799805,1.4099731,2.0599976,2.1199951,3.4400024,1.5599976l22.7299805-9.1600342
			C50.1519737,40.5217934,50.8119469,39.0617714,50.3319664,37.7417641z M35.9419518,7.7617817L30.7919273,9.54175
			c-0.5899658,0.210022-1.2399902-0.1099854-1.4400024-0.6999512c-0.2099609-0.5900269,0.1100464-1.2400513,0.7000122-1.4400024
			l5.1500244-1.7800293c0.5899658-0.2099609,1.2399902,0.1000366,1.4400024,0.7000122
			c0.039978,0.1199951,0.0599976,0.25,0.0599976,0.3699951C36.7019615,7.1618061,36.4119225,7.5917988,35.9419518,7.7617817z"/>
		<path class="st4" d="M45.6119347,38.0017738l-19.0499878,7.6699829c-0.5999756,0.2400513-1.2800293-0.0700073-1.5-0.6699829
			l-6.3499756-17.6900043c-0.210022-0.5700073,0.0799561-1.210022,0.6399536-1.4400024l19-7.7299805
			c0.6000366-0.2399902,1.2800293,0.0599976,1.5,0.6699829l6.4100342,17.7399921
			C46.47192,37.1317787,46.181942,37.7717934,45.6119347,38.0017738z"/>
		<path class="st3" d="M45.6119347,38.0017738l-19.0499878,7.6699829c-0.4500122,0.1799927-0.9500122,0.0500488-1.2700195-0.289978
			c0.0900269-0.0100098,0.1799927-0.0300293,0.2700195-0.0700073l19.0499878-7.6699829
			c0.5700073-0.2299805,0.8599854-0.8699951,0.6500244-1.4500122l-6.4100342-17.7399921
			c-0.0499878-0.1500244-0.1300049-0.2800293-0.2299805-0.3800049c0.5200195-0.0700073,1.039978,0.2199707,1.2299805,0.7399902
			l6.4100342,17.7399921C46.47192,37.1317787,46.181942,37.7717934,45.6119347,38.0017738z"/>
		<g>
			<g>
				<path class="st1" d="M10.2022448,25.5859432c0,1.5168304-1.2340212,2.7508507-2.7508521,2.7508507
					S4.700541,27.1027737,4.700541,25.5859432c0-1.5168324,2.7508516-5.5016518,2.7508516-5.5016518
					S10.2022448,24.0691109,10.2022448,25.5859432z"/>
				<path class="st11" d="M7.4538951,20.0879536v8.2485962c1.5156255-0.0013428,2.7483525-1.2346191,2.7483525-2.7506104
					C10.2022476,24.0767841,7.481483,20.1279926,7.4538951,20.0879536z"/>
			</g>
			<g>
				<path class="st1" d="M6.8896408,34.3999519c0,1.207077-0.9820213,2.1891022-2.1891007,2.1891022
					s-2.1891007-0.9820251-2.1891007-2.1891022c0-1.2070808,2.1891007-4.3781605,2.1891007-4.3781605
					S6.8896408,33.1928711,6.8896408,34.3999519z"/>
				<path class="st11" d="M4.7025313,30.0247059v6.5641537c1.2061195-0.0010719,2.1871119-0.9824982,2.1871119-2.1889114
					C6.8896432,33.1989784,4.7244859,30.0565681,4.7025313,30.0247059z"/>
			</g>
			<g>
				<path class="st1" d="M12.1005125,33.0057869c0,1.0467148-0.8515539,1.8982697-1.8982658,1.8982697
					s-1.8982668-0.8515549-1.8982668-1.8982697c0-1.046711,1.8982668-3.7964954,1.8982668-3.7964954
					S12.1005125,31.9590759,12.1005125,33.0057869z"/>
				<path class="st11" d="M10.2039728,29.2118187v5.6920662c1.0458803-0.000927,1.8965416-0.8519669,1.8965416-1.898098
					C12.1005144,31.9643707,10.223011,29.2394485,10.2039728,29.2118187z"/>
			</g>
		</g>
	</g>
	<g>
		<g>
			<g>
				<path class="st8" d="M33.2318916,37.9362679c0,0-0.3955956-4.8886452-4.360323-5.2354774
					c-2.6072598-0.2414322-2.8725338-2.4164658-2.8452644-3.450386c0.0038795-0.1476669-0.2029705-0.2109184-0.2779579-0.0870514
					c-0.9789944,1.4690018-1.440712,2.773901-1.6058426,3.9014244c-0.4483318,3.0701103,1.7412262,6.0817528,4.8287582,6.4507523
					C31.5565243,39.8135109,33.2318916,37.9362679,33.2318916,37.9362679z"/>
			</g>
			<g>
				<path class="st8" d="M34.4640923,37.1269569c0,0-3.5474834-4.524231-0.4093208-7.9761868
					c2.0530815-2.2815533,0.5516243-4.3654499-0.294178-5.234066c-0.1207848-0.1240711,0.0070267-0.3430519,0.1701164-0.29603
					c2.011364,0.4863205,3.4467812,1.2427425,4.4857368,2.0823154c2.8278351,2.2870846,3.3376884,6.6218395,0.9725075,9.3952198
					C37.3997879,37.4109573,34.4640923,37.1269569,34.4640923,37.1269569z"/>
			</g>
			<g>
				<path class="st9" d="M33.6776009,38.4964447l0.5430183,1.7017136l0.7622986-0.2432518l-0.5592422-1.7525482
					c1.4857101-2.1874962,2.2455521-4.860218,2.3187904-7.9297047l-0.8096657-0.0103703
					c-0.0539093,2.8841629-0.7644844,5.3954964-2.1269989,7.4429131c-1.9782486-0.4438286-4.1526566-1.1162491-5.6395569-2.5119591
					l-0.5540218,0.5799294C29.259119,37.3194313,31.578167,38.0241585,33.6776009,38.4964447z"/>
			</g>
		</g>
	</g>
</g>
</svg>
