<?xml version="1.0" encoding="utf-8" ?>
<svg xmlns="http://www.w3.org/2000/svg" xmlns:xlink="http://www.w3.org/1999/xlink" width="2500" height="2500">
	<path fill="#1145A7" transform="scale(4.88281 4.88281)" d="M264.997 60.7177C288.676 60.7323 289.718 64.3917 289.552 85.7894L289.52 100.779C291.929 101.652 293.96 104.347 291.521 106.629C289.685 108.347 285.14 107.496 282.842 107.354C282.228 111.979 281.508 123.705 285.795 126.937C313.794 148.045 325.48 160.922 325.218 198.712C325.173 205.186 326.867 212.147 320.807 216.498C327.51 223.761 326.652 249.418 324.639 256.492C323.975 258.826 322.182 260.949 320.807 262.928C326.276 267.869 325.238 274.642 325.249 281.364C325.262 290.066 327.272 301.187 320.807 307.487C325.567 314.509 325.235 317.887 325.236 325.93L325.227 408.501C325.301 427.441 319.298 444.261 298.672 450.057C290.883 452.246 281.824 451.412 273.766 451.412L248.563 451.402L230.184 451.437C225.492 451.45 220.691 451.707 216.057 450.861C200.022 447.933 187.829 433.379 187.17 417.276C186.875 410.073 187.127 402.783 187.126 395.571L187.105 329.445C187.096 319.691 185.882 316.078 190.989 307.487C188.768 305.369 187.574 303.593 187.275 300.46C186.397 291.24 184.757 270.482 190.989 262.928C185.767 257.907 187.116 250.918 187.105 244.326C187.092 236.466 185.1 223.031 190.989 217.459C184.937 210.392 187.058 200.317 187.057 191.649C187.055 171.27 197.749 151.324 212.652 137.91C227.135 124.875 230.241 131.519 229.809 107.354C227.161 107.33 223.262 108.427 220.904 106.992C217.713 105.051 219.417 101.382 222.511 100.779L222.489 83.1672C222.463 63.1261 225.494 60.6878 247.008 60.6965L264.997 60.7177Z"/>
	<path fill="#8AC3FB" transform="scale(4.88281 4.88281)" d="M229.118 77.8785C229.119 71.5437 231.387 67.4692 238.054 67.2382C245.601 66.9767 253.241 67.2205 260.796 67.2282C270.532 67.2381 282.904 64.0412 282.842 77.8785C275.804 71.6705 264.076 73.9031 255.409 73.8987C245.55 73.8936 237.687 72.0542 229.118 77.8785Z"/>
	<path fill="#1CB3FD" transform="scale(4.88281 4.88281)" d="M229.118 77.8785C237.687 72.0542 245.55 73.8936 255.409 73.8987C264.076 73.9031 275.804 71.6705 282.842 77.8785L282.842 100.779L229.118 100.779L229.118 77.8785Z"/>
	<path fill="#DBF0F8" transform="scale(4.88281 4.88281)" d="M236.712 107.354L275.627 107.354C275.524 128.412 275.396 126.82 292.296 139.964C312.705 155.838 318.704 173.333 318.491 197.666C318.401 207.899 321.403 211.089 309.233 213.907C298.373 216.422 286.71 217.296 275.627 215.903C263.174 214.676 255.07 210.71 243.664 206.553C227.394 200.625 210.663 199.922 193.668 202.117C193.813 176.688 196.961 160.632 217.843 142.257C233.512 128.47 236.752 132.967 236.712 107.354Z"/>
	<path fill="#8AC3FB" transform="scale(4.88281 4.88281)" d="M193.668 208.907C229.462 201.803 239.739 216.592 269 221.829C285.332 224.751 298.813 222.7 314.558 219.399C320.961 224.363 318.489 232.22 318.495 239.552L318.514 249.524C318.52 251.122 318.697 252.93 318.488 254.504C316.753 257.905 312.14 259.737 313.201 263.967C314.667 266.292 317.236 268.044 318.127 270.693C318.733 272.498 318.843 297.349 318.349 299.99C317.794 302.953 314.409 304.767 313.201 307.487C311.75 307.374 309.753 306.957 308.375 307.487C304.779 304.27 294.655 305.786 289.977 305.795L223.246 305.799C218.368 305.798 205.615 304.156 202.503 307.487C201.35 306.883 200.285 306.754 198.999 306.702C191.287 302.711 193.655 295.039 193.665 287.795C193.672 282.742 193.32 277.547 193.512 272.515C193.69 267.848 197.388 266.377 199.82 262.928C198.044 260.435 194.997 258.566 193.928 255.633C193.412 254.215 193.37 226.916 193.697 224.185C194.044 221.288 196.564 219.813 197.912 217.459C196.591 214.584 194.607 211.932 193.668 208.907Z"/>
	<path fill="#1145A7" transform="scale(4.88281 4.88281)" d="M202.503 262.928C202.702 255.917 229.27 259.273 235.531 259.272L278.763 259.264C286.947 259.264 295.18 259.087 303.358 259.367C306.522 259.476 307.446 259.81 308.375 262.928C306.528 267.783 294.239 265.92 289.625 265.917L222.092 265.929C216.791 265.932 204.409 268.205 202.503 262.928Z"/>
	<path fill="#DBF0F8" transform="scale(4.88281 4.88281)" d="M308.375 262.928L309.301 263.296C310.625 263.837 311.775 263.993 313.201 263.967C314.667 266.292 317.236 268.044 318.127 270.693C318.733 272.498 318.843 297.349 318.349 299.99C317.794 302.953 314.409 304.767 313.201 307.487C311.75 307.374 309.753 306.957 308.375 307.487C304.779 304.27 294.655 305.786 289.977 305.795L223.246 305.799C218.368 305.798 205.615 304.156 202.503 307.487C201.35 306.883 200.285 306.754 198.999 306.702C191.287 302.711 193.655 295.039 193.665 287.795C193.672 282.742 193.32 277.547 193.512 272.515C193.69 267.848 197.388 266.377 199.82 262.928C201.02 263.896 201.292 263.811 202.503 262.928C204.409 268.205 216.791 265.932 222.092 265.929L289.625 265.917C294.239 265.92 306.528 267.783 308.375 262.928Z"/>
	<path fill="#8AC3FB" transform="scale(4.88281 4.88281)" d="M202.503 307.487C205.615 304.156 218.368 305.798 223.246 305.799L289.977 305.795C294.655 305.786 304.779 304.27 308.375 307.487C309.753 306.957 311.75 307.374 313.201 307.487C313.486 312.244 318.431 311.111 318.485 322.62L318.492 402.829C318.495 420.488 317.724 438.293 296.32 443.828C288.856 445.758 279.579 444.983 271.835 444.971L229.273 444.985C218.525 444.992 210.563 444.584 202.524 436.476C191.703 425.56 193.667 413.181 193.662 399.026L193.662 333.668C193.664 327.997 193.323 322.082 193.794 316.445C194.133 312.375 199.067 310.891 198.999 306.702C200.285 306.754 201.35 306.883 202.503 307.487Z"/>
	<path fill="#1145A7" transform="scale(4.88281 4.88281)" d="M202.503 307.487C205.615 304.156 218.368 305.798 223.246 305.799L289.977 305.795C294.655 305.786 304.779 304.27 308.375 307.487L308.463 307.876C309.25 311.196 306.648 312.245 303.785 312.268L217.499 312.244C212.596 312.25 201.34 314.564 202.503 307.487Z"/>
</svg>
