<?xml version="1.0" encoding="UTF-8"?>
<svg id="Calque_2" data-name="Calque 2" xmlns="http://www.w3.org/2000/svg" viewBox="0 0 323.8 296.51">
  <defs>
    <style>
      .cls-1 {
        fill: #fff;
      }

      .cls-2 {
        fill: #ffa000;
      }

      .cls-3 {
        fill: #30303a;
      }
    </style>
  </defs>
  <g id="_Ñëîé_1" data-name="Ñëîé 1">
    <g>
      <path class="cls-2" d="M161.9,43.54l-122.44,97.93v125.25c0,19.21,15.57,29.78,34.78,29.78h175.31c19.21,0,34.78-10.57,34.78-29.78v-125.25l-122.44-97.93Z"/>
      <path class="cls-3" d="M323.76,132.08c-.28-3.18-1.78-6.07-4.23-8.13L169.81,2.8C167.6.95,164.78-.05,161.9,0c-2.88-.06-5.7.94-7.91,2.8L4.28,123.96c-2.45,2.06-3.95,4.94-4.23,8.13-.28,3.19.7,6.29,2.75,8.74,2.28,2.72,5.62,4.28,9.17,4.28,2.81,0,5.54-.99,7.69-2.8L161.9,27.41l142.24,114.88c2.15,1.81,4.88,2.8,7.69,2.8h0c3.55,0,6.89-1.56,9.17-4.28,2.06-2.45,3.03-5.55,2.75-8.74Z"/>
      <polygon class="cls-3" points="246.84 58.43 284.34 88.52 284.34 32.51 246.84 32.51 246.84 58.43"/>
    </g>
    <path class="cls-1" d="M255.6,185.59c0,1.66-1.62,3-3.63,3h-32.85c-2,0-3.63-1.34-3.63-3h0c0-1.66,1.62-3,3.63-3h32.85c2,0,3.63,1.34,3.63,3h0ZM108.3,185.59c0-1.66-1.62-3-3.63-3h-32.85c-2,0-3.63,1.34-3.63,3h0c0,1.66,1.62,3,3.63,3h32.85c2,0,3.63-1.34,3.63-3h0ZM228.16,119.33c-1.17-1.17-3.27-.98-4.69.44l-23.23,23.23c-1.42,1.42-1.61,3.51-.44,4.69h0c1.17,1.17,3.27.97,4.69-.44l23.23-23.23c1.42-1.42,1.61-3.51.44-4.69h0ZM124,223.49c-1.17-1.17-3.27-.98-4.69.44l-23.23,23.23c-1.42,1.42-1.61,3.51-.44,4.69h0c1.17,1.17,3.27.97,4.69-.44l23.23-23.23c1.42-1.42,1.61-3.51.44-4.69h0ZM161.9,91.89c-1.66,0-3,1.62-3,3.63v32.85c0,2,1.34,3.63,3,3.63h0c1.66,0,3-1.62,3-3.63v-32.85c0-2-1.34-3.63-3-3.63h0ZM95.64,119.33c-1.17,1.17-.98,3.27.44,4.69l23.23,23.23c1.42,1.42,3.51,1.61,4.69.44h0c1.17-1.17.97-3.27-.44-4.69l-23.23-23.23c-1.42-1.42-3.51-1.61-4.69-.44h0ZM199.8,223.49c-1.17,1.17-.98,3.27.44,4.69l23.23,23.23c1.42,1.42,3.51,1.61,4.69.44h0c1.17-1.17.97-3.27-.44-4.69l-23.23-23.23c-1.42-1.42-3.51-1.61-4.69-.44h0ZM195.43,213.57c-.15.18-.03.04,0,0-1.59,1.95-3.46,3.63-4.99,5.63-2.33,3.06-4.34,6.39-6.12,9.79-.94,1.8-1.82,3.64-2.57,5.54-.21.54-1.34,4.62-1.62,4.62h-33.71c-.72,0-2.86.25-3.02-.43-1.04-4.3-3.12-8.39-5.3-12.22-1.79-3.14-3.76-6.71-6.38-9.25-1.91-1.87-3.67-3.91-5.2-6.1-8.01-11.4-10.03-26.38-5.3-39.51,6.28-17.43,23.58-29.11,42.08-28.52,19.72.64,37.01,15.13,40.94,34.5,2.57,12.65-.72,25.93-8.81,35.95ZM164.69,156.98c0-.67-.25-1.3-.71-1.77-.47-.48-1.09-.74-1.76-.75-8.8-.1-17.15,3.26-23.44,9.43-6.3,6.17-9.82,14.42-9.91,23.24,0,.67.25,1.3.71,1.77.47.48,1.09.74,1.76.75h.03c.12,0,.24,0,.36-.02,1.21-.17,2.13-1.22,2.14-2.45.08-7.48,3.06-14.49,8.41-19.72,5.27-5.16,12.23-8,19.6-8,.1,0,.2,0,.32,0,1.36,0,2.48-1.11,2.5-2.47ZM183.05,245.09c0-2-1.62-3.63-3.63-3.63h-35.05c-2,0-3.63,1.62-3.63,3.63h0c0,2,1.62,3.63,3.63,3.63h35.05c2,0,3.63-1.62,3.63-3.63h0ZM181.85,254.47c0-2.03-1.65-3.68-3.68-3.68h-32.22c-2.03,0-3.68,1.65-3.68,3.68h0c0,2.03,1.65,3.68,3.68,3.68h32.22c2.03,0,3.68-1.65,3.68-3.68h0ZM180.48,264.12c0-2.07-1.67-3.74-3.74-3.74h-29.37c-2.06,0-3.74,1.67-3.74,3.74h0c0,2.06,1.68,3.74,3.74,3.74h29.37c2.06,0,3.74-1.68,3.74-3.74h0ZM151.87,269.85c2.03,3.52,5.84,5.89,10.19,5.89s8.15-2.37,10.19-5.89h-20.38Z"/>
  </g>
</svg>