<?xml version="1.0" encoding="UTF-8"?>
<svg xmlns="http://www.w3.org/2000/svg" viewBox="0 0 121.33 248.33">
  <defs>
    <style>
      .cls-1 {
        fill: #333;
      }

      .cls-2 {
        fill: #595959;
        mix-blend-mode: screen;
      }

      .cls-3 {
        fill: #0d0d0d;
      }

      .cls-4 {
        isolation: isolate;
      }

      .cls-5 {
        fill: #b3b3b3;
      }

      .cls-6 {
        fill: #2c2c6b;
      }

      .cls-7 {
        fill: #e6e6e6;
      }
    </style>
  </defs>
  <g class="cls-4">
    <g id="Calque_2" data-name="Calque 2">
      <g id="Layer_1" data-name="Layer 1">
        <g>
          <rect class="cls-5" width="121.33" height="248.33" rx="18.67" ry="18.67"/>
          <path class="cls-3" d="M-44.83,65.5h211c9.2,0,16.67,7.47,16.67,16.67v84c0,9.2-7.47,16.67-16.67,16.67H-44.83c-9.2,0-16.67-7.47-16.67-16.67v-84c0-9.2,7.47-16.67,16.67-16.67Z" transform="translate(184.83 63.5) rotate(90)"/>
          <path class="cls-7" d="M8.65,29.83h105.04c.72,0,1.31.59,1.31,1.31v186.38c0,.72-.59,1.31-1.31,1.31H8.65c-.72,0-1.31-.59-1.31-1.31V31.15c0-.72.59-1.31,1.31-1.31Z"/>
          <path class="cls-1" d="M62.78,9.29c0,1.17-.95,2.11-2.11,2.11s-2.11-.95-2.11-2.11.95-2.11,2.11-2.11,2.11.95,2.11,2.11Z"/>
          <path class="cls-6" d="M62.01,9.29c0,.74-.6,1.34-1.34,1.34s-1.34-.6-1.34-1.34.6-1.34,1.34-1.34,1.34.6,1.34,1.34Z"/>
          <circle cx="60.67" cy="9.29" r=".68"/>
          <path class="cls-1" d="M69.12,17.33h-16.92c-.55,0-1-.45-1-1h0c0-.55.45-1,1-1h16.92c.55,0,1,.45,1,1h0c0,.55-.45,1-1,1Z"/>
          <path class="cls-2" d="M112.78,241.61c3.39-2.88,5.55-7.16,5.55-11.94V18.67c0-8.64-7.03-15.67-15.67-15.67h-43.54l53.66,238.61Z"/>
        </g>
      </g>
    </g>
  </g>
</svg>