<?xml version="1.0" encoding="UTF-8"?>
<svg id="Layer_1" data-name="Layer 1" xmlns="http://www.w3.org/2000/svg" viewBox="0 0 2100 2100">
  <defs>
    <style>
      .cls-1 {
        fill: #1b2936;
      }

      .cls-2 {
        fill: #dd1d15;
      }

      .cls-3 {
        fill: #b3b9c2;
      }

      .cls-4 {
        fill: #4d4d4d;
      }

      .cls-5 {
        fill: #2b4051;
      }

      .cls-6 {
        fill: none;
      }

      .cls-7 {
        fill: red;
      }

      .cls-8 {
        fill: #e73010;
      }

      .cls-9 {
        fill: gray;
      }

      .cls-10 {
        fill: #e6e6e6;
      }
    </style>
  </defs>
  <g>
    <path class="cls-7" d="M963.89,256.68c-17.84,0-29.75,17.84-29.75,29.75,0,17.84,11.91,29.75,29.75,29.75h505.71c17.84,0,29.75-11.91,29.75-29.75,0-11.91-11.91-29.75-29.75-29.75h-505.71Z"/>
    <path class="cls-5" d="M636.67,1625.02h-11.85c-77.33,0-130.9-29.75-160.65-83.32-71.41-124.92,11.91-362.9,101.16-529.48,113.01-202.25,65.42-404.56,65.42-404.56,0-5.93,5.93-11.85,11.91-11.85,5.93-5.99,11.91,0,11.91,5.93,5.93,11.91,47.58,214.16-65.42,422.4-95.23,172.5-166.64,398.57-101.16,505.65,23.76,47.65,71.35,71.41,136.83,71.41s113.01-17.84,136.83-59.5c71.41-113.01-11.91-345.06-23.82-374.81v-11.91l11.91-5.92h178.49c5.93,0,11.91,5.92,11.91,11.91s-5.99,11.91-11.91,11.91h-160.65c23.82,65.42,89.24,273.66,17.84,380.74-29.75,47.58-83.26,71.41-148.74,71.41h0Z"/>
    <path class="cls-1" d="M678.33,649.33v17.84c0,11.91-5.93,17.84-17.84,17.84h-17.84c-5.99,0-17.84-5.93-17.84-17.84v-17.84h53.51Z"/>
    <path class="cls-1" d="M719.99,643.4c-5.93-5.99-23.82-35.73-23.82-53.57v-5.93c11.91-5.99,29.75-11.91,35.73-11.91v-11.91s-29.75,5.93-41.66,17.84c-5.93,5.99-5.93,11.91-5.93,11.91,0,23.82,17.84,59.5,23.76,59.5l11.91-5.93Z"/>
    <polygon class="cls-3" points="731.9 447.08 761.65 387.58 833.05 351.85 821.14 328.09 749.73 369.75 743.81 375.67 708.07 435.17 731.9 447.08"/>
    <path class="cls-8" d="M612.91,518.49v124.92c0,11.91,5.93,17.84,17.84,17.84l101.16-5.93c11.91,0,17.84-5.99,17.84-11.91v-124.92c0-5.99-11.91-17.9-17.84-17.9l-101.16,5.99c-11.91,0-17.84,5.93-17.84,11.91h0ZM660.49,548.17l5.99-5.93h53.51l5.93,5.93v89.24l-5.93,5.99h-53.51l-5.99-5.99v-89.24Z"/>
    <polygon class="cls-1" points="612.91 524.41 595.07 500.59 612.91 453 684.31 417.33 749.73 458.93 749.73 524.41 612.91 524.41"/>
    <polygon class="cls-1" points="690.24 429.24 696.16 417.33 708.07 411.34 743.81 435.17 743.81 447.08 737.82 458.93 690.24 429.24"/>
    <rect class="cls-2" x="809.23" y="1089.56" width="118.99" height="142.81"/>
    <path class="cls-7" d="M850.89,1755.87h362.9v-844.79h-362.9v844.79ZM1213.79,1755.87h368.83v-844.79h-368.83v844.79Z"/>
    <path class="cls-9" d="M1213.79,280.5h-309.39c-29.75,0-53.51,23.76-53.51,53.51v577.06h731.73V334.01c0-29.75-23.82-53.51-53.57-53.51h-315.25Z"/>
    <path class="cls-10" d="M1213.79,833.74h5.93v-35.67h261.75c29.75,0,53.57-23.82,53.57-53.57v-291.49c0-29.75-23.82-53.51-53.57-53.51h-529.48c-29.75,0-53.51,23.76-53.51,53.51v291.49c0,29.75,23.76,53.57,53.51,53.57h261.81v35.67ZM1219.71,798.07h0v-362.9h-5.93v-35.67h5.93v398.57Z"/>
    <path class="cls-4" d="M1213.79,1874.86h493.74v-160.65h-493.74v160.65ZM725.91,1874.86h487.88v-160.65h-487.88v160.65Z"/>
  </g>
  <rect class="cls-6" width="2100" height="2100"/>
</svg>