<?xml version="1.0" encoding="UTF-8"?>
<svg id="Calque_2" data-name="Calque 2" xmlns="http://www.w3.org/2000/svg" viewBox="0 0 323.8 296.51">
  <defs>
    <style>
      .cls-1 {
        fill: #fff;
      }

      .cls-2 {
        fill: #30303a;
      }

      .cls-3 {
        fill: #00ac00;
      }
    </style>
  </defs>
  <g id="_Ñëîé_1" data-name="Ñëîé 1">
    <g>
      <path class="cls-3" d="M161.9,43.54l-122.44,97.93v125.25c0,19.21,15.57,29.78,34.78,29.78h175.31c19.21,0,34.78-10.57,34.78-29.78v-125.25l-122.44-97.93Z"/>
      <path class="cls-2" d="M323.75,132.08c-.28-3.18-1.78-6.07-4.23-8.13L169.81,2.8C167.6.95,164.78-.05,161.9,0c-2.88-.06-5.7.94-7.91,2.8L4.28,123.96c-2.45,2.06-3.95,4.94-4.23,8.13-.28,3.19.7,6.29,2.75,8.74,2.28,2.72,5.62,4.28,9.17,4.28,2.81,0,5.54-.99,7.69-2.8L161.9,27.41l142.24,114.88c2.15,1.81,4.88,2.8,7.69,2.8h0c3.55,0,6.89-1.56,9.17-4.28,2.06-2.45,3.03-5.55,2.75-8.74Z"/>
      <polygon class="cls-2" points="246.84 58.43 284.34 88.52 284.34 32.51 246.84 32.51 246.84 58.43"/>
    </g>
    <path class="cls-1" d="M223.12,193.66c-.05-.31-.12-.63-.19-.94h.41l-.21.94ZM219.95,207.59l.63-2.77c-1.24,1.92-2.89,3.75-4.89,5.48.63.45,1.17,1.03,1.57,1.74,1.49,2.69.39,6.15-2.46,7.74-2.85,1.59-6.37.7-7.87-1.99-.26-.46-.43-.94-.54-1.43-3.32,1.67-7.04,3.15-11.09,4.41,1.11.77,1.92,1.87,2.21,3.19.71,3.19-1.82,6.46-5.65,7.31-3.82.85-7.5-1.05-8.2-4.24-.27-1.21-.07-2.43.49-3.52-5.09.95-10.51,1.58-16.16,1.85.63.88,1,1.91,1,3.01,0,3.26-3.18,5.91-7.09,5.91s-7.09-2.65-7.09-5.91c0-1.1.37-2.13,1-3.01-5.65-.27-11.07-.9-16.16-1.85.56,1.1.76,2.32.49,3.52-.71,3.19-4.38,5.08-8.2,4.24-3.82-.85-6.35-4.12-5.65-7.31.29-1.32,1.1-2.41,2.21-3.19-4.05-1.26-7.78-2.74-11.09-4.41-.11.49-.28.98-.54,1.43-1.49,2.69-5.01,3.58-7.87,1.99-2.85-1.59-3.95-5.06-2.46-7.74.4-.71.94-1.29,1.57-1.74-2-1.73-3.64-3.56-4.89-5.48l.63,2.77-1.87,8.02c-.99,2.09-1.51,4.27-1.51,6.5,0,16.23,27.5,29.39,61.43,29.39s61.43-13.16,61.43-29.39c0-2.23-.52-4.41-1.51-6.5l-1.87-8.02ZM100.88,192.73h-.41l.21.94c.05-.31.12-.63.19-.94ZM161.9,163.34c-33.93,0-61.43,13.16-61.43,29.39s27.5,29.39,61.43,29.39,61.43-13.16,61.43-29.39-27.5-29.39-61.43-29.39ZM164.28,159.92c3.07-2.55,3.22-5.62,1.6-8.93-1.2-2.46-3.06-4.56-3.99-7.21-.93,2.65-2.79,4.75-3.99,7.21-1.61,3.32-1.47,6.38,1.6,8.93-5.05,0-9.63-7.13-8.64-12.76.7-3.96,2.5-7.24,4.69-10.47,2.28-3.37,4.93-6.54,6.34-10.52v-.02s0,0,0,.01c0,0,0,0,0-.01v.02c1.41,3.99,4.06,7.15,6.34,10.52,2.19,3.24,3.99,6.51,4.69,10.47.99,5.63-2.86,12.76-8.64,12.76ZM196.63,163.4c3.61-1.7,4.52-4.64,3.78-8.25-.55-2.68-1.83-5.18-2.07-7.98-1.56,2.34-3.89,3.91-5.67,5.99-2.39,2.81-3.01,5.82-.67,9.05-4.89-1.26-7.55-9.31-5.19-14.51,1.67-3.67,4.22-6.39,7.15-8.98,3.05-2.7,6.4-5.1,8.76-8.61v-.02s0,0,0,.01c0,0,0,0,0-.01v.02c.37,4.21,2.14,7.93,3.51,11.77,1.31,3.68,2.24,7.3,1.93,11.31-.44,5.7-5.95,11.64-11.55,10.2ZM221.08,177.47c3.65-.58,5.49-3.04,6.21-6.57.54-2.62.39-5.27,1.23-7.91-2.17,1.72-4.7,2.54-6.95,3.97-3.04,1.94-4.67,4.53-3.92,8.15-3.61-2.49-2.86-10.62,1.04-14.77,2.75-2.92,5.9-4.73,9.3-6.31,3.55-1.65,7.24-2.95,10.51-5.54v-.02s.01,0,0,.01c0,0,0,0,0,0v.02c-1.26,3.98-1.16,7.89-1.44,11.79-.27,3.74-.84,7.33-2.58,10.94-2.48,5.12-9.28,9.1-13.42,6.24ZM228.77,199.81c3.27.83,6.06-.45,8.5-2.97,1.82-1.87,3.09-4.01,5.16-5.8-2.67.59-5.15.34-7.74.67-3.48.45-6.18,1.92-7.47,5.03-1.62-3.24,3.27-9.38,8.62-11.26,3.77-1.33,7.28-1.64,10.87-1.68,3.75-.05,7.43.23,11.45-.65h.02s0,0,0,0c0,0,0,0,.01,0h-.02c-3.11,2.7-5.09,5.82-7.37,8.8-2.19,2.85-4.54,5.48-7.86,7.7-4.71,3.16-12.32,3.88-14.18.17ZM115.63,153.2c-.31-4.01.61-7.63,1.93-11.31,1.37-3.84,3.14-7.56,3.52-11.77v-.02s0,0,0,.01c0,0,0,0,0-.01v.02c2.37,3.51,5.72,5.91,8.77,8.61,2.93,2.59,5.48,5.31,7.15,8.98,2.36,5.2-.3,13.25-5.19,14.51,2.34-3.24,1.72-6.24-.67-9.05-1.78-2.09-4.1-3.66-5.67-5.99-.24,2.8-1.52,5.3-2.07,7.98-.74,3.61.17,6.55,3.78,8.25-5.6,1.44-11.11-4.5-11.55-10.2ZM89.3,171.23c-1.75-3.61-2.32-7.19-2.58-10.94-.28-3.91-.18-7.81-1.43-11.79v-.02s0,0,0,0c0,0,0,0,0-.01v.02c3.29,2.59,6.97,3.89,10.52,5.54,3.4,1.58,6.55,3.39,9.3,6.31,3.9,4.14,4.66,12.28,1.04,14.77.76-3.62-.88-6.21-3.92-8.15-2.26-1.44-4.78-2.25-6.95-3.97.84,2.64.69,5.29,1.23,7.91.72,3.53,2.57,5.98,6.21,6.57-4.14,2.85-10.94-1.12-13.42-6.24ZM80.84,199.64c-3.32-2.23-5.67-4.85-7.86-7.7-2.28-2.98-4.26-6.09-7.37-8.79h-.02s0,0,.01,0c0,0,0,0,0,0h.02c4.02.89,7.7.61,11.45.66,3.6.04,7.1.36,10.87,1.68,5.35,1.88,10.25,8.02,8.62,11.26-1.29-3.12-3.98-4.58-7.47-5.03-2.59-.33-5.07-.08-7.74-.67,2.07,1.79,3.35,3.92,5.16,5.8,2.45,2.52,5.23,3.8,8.5,2.97-1.86,3.71-9.47,2.99-14.18-.17Z"/>
  </g>
</svg>