<svg width="400" height="400" viewBox="0 0 400 400" fill="none" xmlns="http://www.w3.org/2000/svg">
<path d="M66.6095 346.497C59.7762 347.971 53.0562 349.987 46.4495 352.547C43.8429 353.561 41.8795 354.897 40.5595 356.557C39.8695 357.427 39.4695 359.437 40.3995 360.537C43.1295 363.777 47.5495 365.537 51.5695 366.707C58.2229 368.661 64.8128 370.197 71.3395 371.317C85.0395 373.677 96.8829 375.277 106.87 376.117C160.49 380.611 214.193 380.941 267.98 377.107C287.26 375.727 305.406 373.394 322.42 370.107C328.146 369.007 333.606 367.557 338.799 365.757C341.966 364.657 344.773 363.141 347.22 361.207C350.3 358.777 347.09 355.397 344.76 354.067C340.846 351.827 336.616 350.184 332.07 349.137C326.97 347.957 321.876 346.921 316.79 346.027" stroke="#C9CBD3" stroke-width="2"/>
<path d="M316.789 346.029C316.889 251.415 316.873 156.855 316.739 62.3488C316.739 58.6154 316.489 55.9154 315.989 54.2488C315.183 51.5221 313.799 49.1021 311.839 46.9888C307.686 42.5088 302.666 40.2621 296.779 40.2488C270.973 40.1688 202.696 40.1454 91.9494 40.1788C85.9294 40.1854 81.7094 40.6588 79.2894 41.5988C73.8694 43.7054 70.0361 47.5288 67.7894 53.0688C66.9761 55.0821 66.5661 58.0921 66.5594 62.0988C66.4528 156.665 66.4694 251.465 66.6094 346.499" stroke="#8C919C" stroke-width="2"/>
<path d="M316.789 346.027C316.343 349.961 314.976 353.341 312.689 356.167C308.503 361.347 302.856 363.934 295.749 363.927C226.249 363.874 156.749 363.884 87.2494 363.957C82.3027 363.964 77.9594 362.494 74.2194 359.547C69.8727 356.127 67.336 351.777 66.6094 346.497" stroke="#575E71" stroke-width="2"/>
<path d="M166.069 50.9401L166.119 88.8501C166.119 88.9483 166.158 89.0424 166.228 89.1118C166.297 89.1812 166.391 89.2201 166.489 89.2201H310.529C310.949 89.2201 311.156 89.0101 311.149 88.5901C311.049 78.7435 310.979 70.2401 310.939 63.0801C310.919 58.9401 310.536 55.9301 309.789 54.0501C308.536 50.8768 306.346 48.5435 303.219 47.0501C301.093 46.0368 297.536 45.5201 292.549 45.5001C273.943 45.4135 255.359 45.3868 236.799 45.4201" stroke="#818794" stroke-width="2"/>
<path d="M236.799 45.418L166.549 45.458C166.441 45.458 166.336 45.5012 166.259 45.5781C166.183 45.6549 166.139 45.7592 166.139 45.868L166.069 50.938" stroke="#8C919C" stroke-width="2"/>
<path d="M236.799 45.418C235.312 47.0446 233.799 47.9646 232.259 48.178C224.052 49.338 212.756 50.3313 198.369 51.158" stroke="#F3F5F6" stroke-width="2"/>
<path d="M198.37 51.1597C193.603 49.7064 189.013 50.0564 184.6 52.2097" stroke="#8C919C" stroke-width="2"/>
<path d="M184.599 52.2075C182.006 51.4875 180.043 51.2175 178.709 51.3975C174.356 51.9775 170.143 51.8242 166.069 50.9375" stroke="#F3F5F6" stroke-width="2"/>
<path d="M184.6 52.2102C177.64 56.9902 174.97 63.1602 176.59 70.7202C179.19 82.8702 193.61 89.1302 203.49 80.4902C208.363 76.2235 210.223 70.7635 209.07 64.1102C208.083 58.4368 204.516 54.1202 198.37 51.1602" stroke="#818794" stroke-width="2"/>
<path d="M74.1699 89.1978L160.43 89.2378C160.504 89.2378 160.575 89.2083 160.628 89.1558C160.68 89.1033 160.71 89.0321 160.71 88.9578L160.81 45.5078" stroke="#818794" stroke-width="2"/>
<path d="M160.809 45.5089C157.416 45.4422 154.313 45.4122 151.499 45.4189C131.319 45.4589 111.139 45.4689 90.9594 45.4489C86.326 45.4422 83.086 45.8322 81.2394 46.6189C77.7927 48.0789 75.256 50.4689 73.6294 53.7889C72.7227 55.6422 72.2627 59.1955 72.2494 64.4489C72.2227 72.4022 72.176 80.3555 72.1094 88.3089C72.1094 88.6555 72.2694 88.8922 72.5894 89.0189C73.0494 89.1989 73.576 89.2589 74.1694 89.1989" stroke="#8C919C" stroke-width="2"/>
<path d="M160.81 45.5078C158.29 46.7278 156.113 47.4045 154.28 47.5378C147.72 47.9878 140.21 47.7678 133.64 48.1878C124.373 48.7745 110.88 49.0911 93.1599 49.1378C82.0999 49.1678 77.1599 54.5278 76.0199 65.2578C75.1799 73.1711 74.5633 81.1511 74.1699 89.1978" stroke="#F3F5F6" stroke-width="2"/>
<path d="M72.2595 300.469C72.2329 314.635 72.2229 328.812 72.2295 342.999C72.2362 346.472 72.9329 349.219 74.3195 351.239" stroke="#818794" stroke-width="2"/>
<path d="M74.3193 351.237C77.1327 355.871 80.986 358.191 85.8793 358.198C155.613 358.284 225.346 358.301 295.079 358.247C298.059 358.247 300.303 357.974 301.809 357.427C306.419 355.767 310.139 351.748 311.009 346.878C311.149 346.091 311.213 343.664 311.199 339.598C311.099 301.311 311.103 263.007 311.209 224.688" stroke="#626D80" stroke-width="2"/>
<path d="M311.21 224.689L311.19 95.0586C311.19 94.7253 311.026 94.5586 310.7 94.5586L229.8 94.6286" stroke="#818794" stroke-width="2"/>
<path d="M229.799 94.6289L72.8592 94.7589C72.4192 94.7589 72.1992 94.9822 72.1992 95.4289L72.2592 300.469" stroke="#8C919C" stroke-width="2"/>
<path d="M229.8 94.6289C228.686 95.7556 227.33 96.3522 225.73 96.4189C212.716 96.9789 200.976 97.3356 190.51 97.4889C182.083 97.6089 175.42 97.7756 170.52 97.9889C144.093 99.1756 120.043 99.5722 98.3698 99.1789C93.5964 99.0922 87.4398 99.3422 79.8998 99.9289C79.4356 99.9658 79.0001 100.168 78.6718 100.498C78.3435 100.828 78.1441 101.265 78.1098 101.729C77.9898 103.482 77.9298 104.606 77.9298 105.099C77.9764 119.019 77.8298 133.986 77.4898 149.999C77.3098 158.546 77.1998 165.212 77.1598 169.999C76.8264 207.026 76.5498 232.566 76.3298 246.619C76.2298 253.306 76.0031 259.969 75.6498 266.609C75.6298 266.896 75.2298 273.972 74.4498 287.839C74.2031 292.159 73.4731 296.369 72.2598 300.469" stroke="#F3F5F6" stroke-width="2"/>
<path d="M311.209 224.688C310.856 227.201 310.446 229.687 309.979 232.147C309.193 236.301 308.529 240.777 307.989 245.577C307.543 249.551 307.129 252.361 306.749 254.007C299.609 285.261 282.869 309.594 256.529 327.008C232.389 342.958 204.679 350.658 175.969 353.598C170.816 354.131 164.173 354.644 156.039 355.138C140.826 356.058 125.483 356.061 110.009 355.147C100.436 354.581 93.096 354.158 87.9893 353.878C85.9227 353.764 81.366 352.884 74.3193 351.237" stroke="#C9D1DB" stroke-width="2"/>
<path d="M303.268 56.3611C303.269 55.8069 303.161 55.258 302.95 54.7457C302.739 54.2333 302.429 53.7674 302.038 53.3749C301.647 52.9823 301.182 52.6708 300.67 52.4578C300.159 52.2448 299.61 52.1347 299.056 52.1338L238.096 52.0274C237.542 52.0264 236.993 52.1345 236.48 52.3457C235.968 52.5568 235.502 52.867 235.11 53.2582C234.717 53.6493 234.406 54.114 234.193 54.6257C233.98 55.1373 233.87 55.6859 233.869 56.2401L233.83 78.3399C233.829 78.894 233.937 79.443 234.148 79.9553C234.36 80.4677 234.67 80.9336 235.061 81.3261C235.452 81.7187 235.917 82.0303 236.428 82.2433C236.94 82.4563 237.489 82.5663 238.043 82.5673L299.003 82.6737C299.557 82.6746 300.106 82.5665 300.618 82.3553C301.13 82.1442 301.596 81.8341 301.989 81.4429C302.381 81.0518 302.693 80.5871 302.906 80.0754C303.119 79.5638 303.229 79.0151 303.23 78.461L303.268 56.3611Z" stroke="#818794" stroke-width="2"/>
<path d="M128.76 62.2786C128.76 62.0213 128.657 61.7746 128.476 61.5927C128.294 61.4108 128.047 61.3086 127.79 61.3086H109.65C109.392 61.3086 109.146 61.4108 108.964 61.5927C108.782 61.7746 108.68 62.0213 108.68 62.2786V63.3786C108.68 63.6359 108.782 63.8826 108.964 64.0645C109.146 64.2464 109.392 64.3486 109.65 64.3486H127.79C128.047 64.3486 128.294 64.2464 128.476 64.0645C128.657 63.8826 128.76 63.6359 128.76 63.3786V62.2786Z" stroke="#818794" stroke-width="2"/>
<path d="M143.329 69.207L94.6092 69.287C94.3798 69.287 94.1527 69.3324 93.941 69.4204C93.7292 69.5085 93.537 69.6376 93.3752 69.8002C93.2135 69.9628 93.0856 70.1558 92.9987 70.3681C92.9119 70.5804 92.8679 70.8077 92.8692 71.037L92.8792 80.197C92.8804 80.8878 93.0224 81.5716 93.297 82.2093C93.5716 82.8469 93.9734 83.4261 94.4795 83.9136C94.9856 84.4011 95.586 84.7874 96.2465 85.0506C96.9071 85.3137 97.6148 85.4484 98.3292 85.447L139.649 85.367C141.092 85.3643 142.474 84.8076 143.493 83.8192C144.511 82.8309 145.082 81.492 145.079 80.097L145.069 70.937C145.067 70.4773 144.882 70.0373 144.556 69.7131C144.23 69.389 143.789 69.207 143.329 69.207Z" stroke="#818794" stroke-width="2"/>
<path d="M184.51 75.66C186.722 77.9166 189.69 79.2532 192.785 79.3875C195.881 79.5219 198.862 78.4434 201.1 76.38C202.555 75.0414 203.635 73.3419 204.24 71.4395C204.845 69.5372 204.955 67.494 204.56 65.5" stroke="#242D47" stroke-width="2"/>
<path d="M204.56 65.4978C204.302 64.1868 203.832 62.923 203.17 61.7578" stroke="#303951" stroke-width="2"/>
<path d="M203.17 61.7592C202.462 60.5093 201.544 59.3885 200.46 58.4492" stroke="#3A425A" stroke-width="2"/>
<path d="M200.46 58.4499C199.073 57.2462 197.443 56.3636 195.692 55.8683C193.941 55.373 192.115 55.2778 190.35 55.5899C188.626 55.896 187.006 56.5838 185.606 57.6038C184.205 58.6238 183.059 59.9509 182.25 61.4899C181.073 63.7253 180.657 66.3092 181.064 68.8605C181.471 71.4118 182.679 73.7954 184.51 75.6599" stroke="#818794" stroke-width="2"/>
<path d="M200.459 58.4501C197.132 57.2501 193.872 56.9834 190.679 57.6501C189.052 57.9901 187.532 58.8934 186.119 60.3601C182.346 64.2734 181.379 68.5834 183.219 73.2901" stroke="#A1A6B5" stroke-width="2"/>
<path d="M183.22 73.2891C184.393 74.3691 184.823 75.1591 184.51 75.6591" stroke="#8B91A2" stroke-width="2"/>
<path d="M203.17 61.7578C201.53 62.5045 200.257 63.1978 199.35 63.8378C196.93 65.5645 192.633 68.7511 186.46 73.3978" stroke="#505772" stroke-width="2"/>
<path d="M186.46 73.3997C185.353 72.833 184.273 72.7964 183.22 73.2897" stroke="#444C68" stroke-width="2"/>
<path d="M204.56 65.5C200.473 72.3533 194.44 74.9867 186.46 73.4" stroke="#3A435F" stroke-width="2"/>
<path d="M238.42 58.0394L238.12 63.2594C238.053 64.3727 238.58 64.9294 239.7 64.9294H245.36C246.347 64.9294 246.753 64.4494 246.58 63.4894C246.353 62.2094 246.5 60.0827 247.02 57.1094" stroke="#752F43" stroke-width="2"/>
<path d="M247.02 57.1094C245.8 55.3494 243.117 54.8494 238.97 55.6094C238.637 55.6694 238.44 55.8661 238.38 56.1994C238.247 56.9594 238.26 57.5728 238.42 58.0394" stroke="#8C919C" stroke-width="2"/>
<path d="M247.02 57.1094C244.46 58.136 241.593 58.446 238.42 58.0394" stroke="#E79CA5" stroke-width="2"/>
<path d="M250.979 58.2695C250.293 62.5095 250.659 64.6229 252.079 64.6095" stroke="#575E71" stroke-width="2"/>
<path d="M252.079 64.6087L258.489 64.8386C258.842 64.8453 259.056 64.6786 259.129 64.3386C259.499 62.5686 259.479 60.8386 259.769 59.0886C259.889 58.3353 259.799 57.7953 259.499 57.4688" stroke="#3A425A" stroke-width="2"/>
<path d="M259.5 57.4678C259.613 56.2345 259.366 55.6145 258.76 55.6078C256.346 55.5878 253.903 55.5378 251.43 55.4578C251.096 55.4445 250.893 55.6012 250.82 55.9278C250.626 56.8012 250.68 57.5812 250.98 58.2678" stroke="#818794" stroke-width="2"/>
<path d="M259.499 57.4688C257.333 57.902 255.086 58.162 252.759 58.2486C252.326 58.262 251.873 58.4986 251.399 58.9586" stroke="#A1A6B5" stroke-width="2"/>
<path d="M251.4 58.9595C250.9 58.8062 250.76 58.5762 250.98 58.2695" stroke="#BDC2CB" stroke-width="2"/>
<path d="M252.079 64.607L251.399 58.957" stroke="#777C92" stroke-width="2"/>
<path d="M264 58.8398C263.226 62.1065 263.363 64.1032 264.41 64.8298" stroke="#4B5268" stroke-width="2"/>
<path d="M264.409 64.8302L272.209 64.9402C272.556 64.9402 272.762 64.7735 272.829 64.4402C273.316 62.0735 273.349 59.8135 272.929 57.6602" stroke="#3A425A" stroke-width="2"/>
<path d="M272.93 57.6569C272.983 57.0035 272.94 56.5035 272.8 56.1569C272.64 55.7502 272.34 55.5469 271.9 55.5469H264.26C263.946 55.5469 263.77 55.7002 263.73 56.0069C263.596 57.0335 263.686 57.9769 264 58.8369" stroke="#818794" stroke-width="2"/>
<path d="M272.929 57.6602L265.569 57.8602C265.406 57.8664 265.247 57.9071 265.102 57.9796C264.957 58.0521 264.83 58.1546 264.729 58.2802C264.536 58.5202 264.402 58.8235 264.329 59.1902" stroke="#A1A6B5" stroke-width="2"/>
<path d="M264.329 59.1898C263.829 59.0365 263.719 58.9198 263.999 58.8398" stroke="#B2B6C3" stroke-width="2"/>
<path d="M264.409 64.8275C264.856 63.2208 264.829 61.3408 264.329 59.1875" stroke="#6B7189" stroke-width="2"/>
<path d="M277.3 58.1002L276.99 64.3402C276.97 64.7002 277.143 64.8802 277.51 64.8802H285.41C285.565 64.8808 285.716 64.8272 285.837 64.7287C285.957 64.6302 286.04 64.4928 286.07 64.3402C286.53 62.0468 286.56 59.9035 286.16 57.9102" stroke="#3A425A" stroke-width="2"/>
<path d="M286.159 57.91C286.146 57.0233 286.003 56.3533 285.729 55.9C285.657 55.778 285.553 55.677 285.428 55.6069C285.304 55.5367 285.163 55.4999 285.019 55.5H277.759C277.393 55.5 277.169 55.68 277.089 56.04C276.929 56.78 276.999 57.4667 277.299 58.1" stroke="#818794" stroke-width="2"/>
<path d="M286.16 57.9102L277.3 58.1002" stroke="#A1A6B5" stroke-width="2"/>
<path d="M290.77 58.1894C289.843 60.3227 289.66 62.496 290.22 64.7094C290.306 65.056 290.526 65.2294 290.88 65.2294H298.2C298.58 65.2294 298.816 65.046 298.91 64.6794C299.543 62.2527 299.576 59.9794 299.01 57.8594" stroke="#314F37" stroke-width="2"/>
<path d="M299.009 57.8595C299.043 57.0929 298.963 56.4895 298.769 56.0495C298.616 55.6962 298.346 55.5195 297.959 55.5195H290.939C290.784 55.5198 290.632 55.5677 290.503 55.657C290.375 55.7462 290.276 55.8726 290.219 56.0195C289.926 56.7995 290.109 57.5229 290.769 58.1895" stroke="#818794" stroke-width="2"/>
<path d="M299.01 57.8594L290.77 58.1894" stroke="#98B391" stroke-width="2"/>
<path d="M246.64 69.493C246.64 69.3853 246.62 69.2786 246.579 69.1789C246.538 69.0792 246.478 68.9885 246.403 68.9119C246.327 68.8354 246.237 68.7745 246.137 68.7328C246.038 68.6911 245.932 68.6693 245.824 68.6687L238.964 68.6328C238.856 68.6323 238.75 68.6529 238.65 68.6936C238.55 68.7343 238.459 68.7942 238.383 68.87C238.306 68.9457 238.246 69.0358 238.204 69.135C238.162 69.2343 238.14 69.3408 238.14 69.4485L238.099 77.3084C238.098 77.4161 238.119 77.5228 238.159 77.6225C238.2 77.7223 238.26 77.813 238.336 77.8895C238.412 77.9661 238.502 78.0269 238.601 78.0687C238.7 78.1104 238.807 78.1322 238.914 78.1327L245.774 78.1686C245.882 78.1692 245.989 78.1485 246.088 78.1079C246.188 78.0672 246.279 78.0072 246.355 77.9315C246.432 77.8557 246.493 77.7657 246.534 77.6664C246.576 77.5671 246.598 77.4606 246.599 77.3529L246.64 69.493Z" stroke="#752F43" stroke-width="2"/>
<path d="M250.229 69.5703L250.649 77.6203C250.676 78.1003 250.93 78.3403 251.41 78.3403H258.91C259.09 78.3405 259.264 78.2709 259.394 78.146C259.525 78.0211 259.602 77.8507 259.609 77.6703L259.98 69.3203" stroke="#303951" stroke-width="2"/>
<path d="M259.98 69.3179C256.306 67.9979 253.056 68.0813 250.229 69.5679" stroke="#4B5268" stroke-width="2"/>
<path d="M259.98 69.3203C256.626 70.647 253.376 70.7303 250.229 69.5703" stroke="#616880" stroke-width="2"/>
<path d="M263.639 70.0477C263.013 72.5277 262.999 75.0743 263.599 77.6877C263.686 78.0677 263.926 78.2577 264.319 78.2577H272.439C272.846 78.2577 273.049 78.0577 273.049 77.6577L273.079 69.0977" stroke="#303951" stroke-width="2"/>
<path d="M273.08 69.1006L264.54 68.6306C264.18 68.6106 263.93 68.7673 263.79 69.1006C263.69 69.3473 263.64 69.6639 263.64 70.0506" stroke="#4B5268" stroke-width="2"/>
<path d="M273.079 69.0977C271.233 70.0843 269.129 70.4777 266.769 70.2777C266.283 70.2377 265.773 70.2877 265.239 70.4277C264.153 70.7143 263.619 70.5877 263.639 70.0477" stroke="#616880" stroke-width="2"/>
<path d="M276.72 69.4373L276.88 77.7273C276.886 78.0407 277.046 78.1973 277.36 78.1973H285.46C285.673 78.1974 285.877 78.1134 286.029 77.9636C286.181 77.8139 286.267 77.6104 286.27 77.3973L286.36 69.2773" stroke="#303951" stroke-width="2"/>
<path d="M286.36 69.2784C282.7 68.1584 279.486 68.2117 276.72 69.4384" stroke="#575E71" stroke-width="2"/>
<path d="M286.36 69.2773C283.173 70.5107 279.96 70.564 276.72 69.4373" stroke="#6C7388" stroke-width="2"/>
<path d="M289.77 69.7705L290 77.5905C290.005 77.7912 290.088 77.9819 290.232 78.1221C290.376 78.2622 290.569 78.3405 290.77 78.3405H298.32C298.7 78.3405 298.93 78.1538 299.01 77.7805C299.57 75.1938 299.583 72.4271 299.05 69.4805" stroke="#314F37" stroke-width="2"/>
<path d="M299.05 69.4794C295.383 67.9994 292.29 68.0961 289.77 69.7694" stroke="#4B5268" stroke-width="2"/>
<path d="M299.05 69.4805C296.07 70.4005 292.976 70.4971 289.77 69.7705" stroke="#627E66" stroke-width="2"/>
<path d="M97.4795 81.3281C98.4995 81.8881 99.9228 82.1681 101.749 82.1681C119.896 82.1415 131.476 82.1548 136.489 82.2081C137.783 82.2215 138.843 81.9981 139.669 81.5381" stroke="#626D80" stroke-width="2"/>
<path d="M139.669 81.5392C140.329 81.3059 140.719 80.7892 140.839 79.9892C141.059 78.4759 141.122 77.0059 141.029 75.5792C141.004 75.2045 140.839 74.8535 140.568 74.5972C140.297 74.341 139.94 74.1987 139.569 74.1992H98.1991C97.4258 74.1992 96.9358 74.5692 96.7291 75.3092C96.0424 77.7292 96.2924 79.7359 97.4791 81.3292" stroke="#303951" stroke-width="2"/>
<path d="M139.669 81.5389C139.383 80.6122 138.329 80.1822 136.509 80.2489C135.576 80.2889 135.066 80.3089 134.979 80.3089C123.486 80.3022 111.993 80.2889 100.499 80.2689C99.0728 80.2689 98.0662 80.6222 97.4795 81.3289" stroke="#788298" stroke-width="2"/>
<path d="M95.9191 219.879C95.6991 227.272 96.7991 234.429 99.2191 241.349C100.146 243.982 100.869 246.022 101.389 247.469C102.222 249.776 103.069 251.779 103.929 253.479C112.476 270.459 124.722 283.919 140.669 293.859C145.569 296.912 150.999 299.539 156.959 301.739C162.586 303.812 168.432 305.422 174.499 306.569C180.039 307.616 186.139 308.086 192.799 307.979C200.199 307.866 207.009 307.169 213.229 305.889C219.482 304.602 225.796 302.519 232.169 299.639C253.489 289.999 269.559 273.922 280.379 251.409C285.519 240.709 287.906 230.329 287.539 220.269" stroke="#C9D1DB" stroke-width="2"/>
<path d="M287.539 220.268C291.579 194.755 287.283 171.588 274.649 150.768C262.329 130.468 242.759 115.228 220.269 108.378C158.659 89.588 96.7493 134.448 94.5493 198.508C94.3026 205.748 94.7593 212.871 95.9193 219.878" stroke="#818794" stroke-width="2"/>
<path d="M287.54 220.269C284.2 235.856 277.9 249.646 268.64 261.639C258.973 274.166 246.687 283.939 231.78 290.959C206.52 302.859 177.37 302.669 152.47 291.289C133.503 282.616 118.74 269.469 108.18 251.849C102.413 242.229 98.3266 231.572 95.9199 219.879" stroke="#626D80" stroke-width="2"/>
<path d="M101.31 190.758L100.43 204.918" stroke="#626D80" stroke-width="2"/>
<path d="M100.429 204.918C100.303 210.318 100.836 215.685 102.029 221.018" stroke="#4B5268" stroke-width="2"/>
<path d="M102.029 221.02C103.229 227.26 105.173 233.306 107.859 239.16C114.686 254.02 124.666 266.283 137.799 275.95C139.759 277.396 142.243 278.686 145.249 279.82" stroke="#3A425A" stroke-width="2"/>
<path d="M145.25 279.818C147.097 281.811 148.883 283.261 150.61 284.168C159.177 288.701 168.927 291.771 179.86 293.378C193.8 295.418 206.9 292.998 220.06 288.998C229.93 285.988 238.77 281.418 247.08 274.718C250.847 271.678 254.45 268.481 257.89 265.128C260.803 262.288 264.313 257.808 268.42 251.688C275.827 240.661 280.283 229.311 281.79 217.638C283.077 207.718 283.157 198.001 282.03 188.488C281.11 180.668 279.59 174.184 277.47 169.038C276.47 166.611 275.05 163.354 273.21 159.268C271.883 156.328 270.04 153.658 267.68 151.258" stroke="#242D47" stroke-width="2"/>
<path d="M267.68 151.259C266.22 148.272 264.62 145.726 262.88 143.619C261.533 141.986 259.133 139.386 255.68 135.819C248.58 128.492 240.51 122.899 231.47 119.039" stroke="#3A425A" stroke-width="2"/>
<path d="M231.47 119.037C223.27 114.651 214.62 111.981 205.52 111.027" stroke="#575E71" stroke-width="2"/>
<path d="M205.52 111.029C196.2 109.642 187.186 109.616 178.48 110.949C154.213 114.656 134.55 126.249 119.49 145.729C109.47 158.689 103.41 173.699 101.31 190.759" stroke="#8C919C" stroke-width="2"/>
<path d="M205.52 111.027C205.513 111.621 205.41 112.131 205.21 112.557" stroke="#C9CBD3" stroke-width="2"/>
<path d="M205.209 112.559C195.896 112.219 186.016 112.989 175.569 114.869C164.116 116.922 153.833 120.962 144.719 126.989C129.086 137.329 117.543 151.109 110.089 168.329C107.096 175.242 104.643 183.449 102.729 192.949" stroke="#BDC0CB" stroke-width="2"/>
<path d="M102.73 192.948C102.15 192.348 101.676 191.618 101.31 190.758" stroke="#D4DAE3" stroke-width="2"/>
<path d="M221.589 117.167C211.189 115.921 202.579 115.801 195.759 116.807C188.606 117.854 182.149 119.144 176.389 120.677C165.256 123.631 154.686 128.657 144.679 135.757C142.493 137.311 139.969 139.427 137.109 142.107C133.323 145.667 130.946 147.954 129.979 148.967C124.726 154.487 119.926 161.151 115.579 168.957C111.399 176.477 108.089 182.977 105.869 190.877C105.203 193.251 104.426 196.274 103.539 199.947C102.926 202.467 102.576 205.551 102.489 209.197C102.396 213.117 102.243 217.057 102.029 221.017" stroke="#6B7189" stroke-width="2"/>
<path d="M100.43 204.919C100.43 206.366 100.71 207.533 101.27 208.419C101.55 208.859 101.706 208.819 101.74 208.299L102.73 192.949" stroke="#939CAF" stroke-width="2"/>
<path d="M231.47 119.038L221.59 117.168" stroke="#777C92" stroke-width="2"/>
<path d="M221.59 117.169L205.21 112.559" stroke="#888DA0" stroke-width="2"/>
<path d="M267.68 151.258C268.18 155.098 268.65 158.938 269.09 162.778C269.903 169.938 269.38 176.948 267.52 183.808" stroke="#444C68" stroke-width="2"/>
<path d="M267.519 183.81C264.699 181.43 262.033 180.137 259.519 179.93C259.332 179.912 259.153 179.839 259.006 179.72C258.859 179.601 258.749 179.441 258.689 179.26C255.479 169.25 250.209 159.28 243.239 152.15C230.619 139.23 215.323 131.893 197.349 130.14C181.463 128.593 166.479 132.333 152.399 141.36C150.946 142.3 149.676 143.233 148.589 144.16C145.679 146.64 142.159 149.13 139.659 151.92C128.086 164.793 121.599 179.603 120.199 196.35C118.139 220.91 128.409 244.75 147.919 259.91C148.819 260.603 150.469 261.733 152.869 263.3C154.716 264.507 156.379 265.667 157.859 266.78" stroke="#3A425A" stroke-width="2"/>
<path d="M157.859 266.777C159.033 268.444 161.093 269.837 164.039 270.957C174.499 274.917 184.013 276.824 192.579 276.677C196.119 276.617 200.399 276.407 205.419 276.047C206.459 275.974 207.786 275.704 209.399 275.237C210.719 274.857 212.063 274.577 213.429 274.397" stroke="#A1A6B5" stroke-width="2"/>
<path d="M213.43 274.398C211.183 275.565 208.89 276.488 206.55 277.168C205.83 277.382 204.987 277.715 204.02 278.168C203.187 278.562 202.32 278.875 201.42 279.108C182.713 283.942 163.99 284.178 145.25 279.818" stroke="#444C68" stroke-width="2"/>
<path d="M213.43 274.397L224.45 269.438" stroke="#8B91A2" stroke-width="2"/>
<path d="M224.449 269.44C228.469 268.06 231.653 266.58 233.999 265C241.473 259.98 247.829 253.004 253.069 244.07C253.859 242.72 255.439 240.89 255.979 239.02C256.012 238.908 256.014 238.79 255.987 238.677C255.96 238.564 255.903 238.46 255.824 238.375C255.744 238.29 255.644 238.228 255.532 238.194C255.421 238.159 255.303 238.155 255.189 238.18L253.099 238.64" stroke="#3A435F" stroke-width="2"/>
<path d="M267.52 183.809C267.586 185.282 267.673 186.929 267.78 188.749C267.906 190.895 267.91 192.545 267.79 193.699C267.603 195.452 267.493 196.912 267.46 198.079C267.4 200.052 267.376 201.502 267.39 202.429C267.583 215.489 267.583 224.639 267.39 229.879C267.296 232.365 266.353 234.275 264.56 235.609C263.613 236.315 261.746 236.859 258.96 237.239C256.84 237.532 254.886 237.999 253.1 238.639" stroke="#242D47" stroke-width="2"/>
<path d="M253.099 238.641L244.279 251.421" stroke="#303951" stroke-width="2"/>
<path d="M244.279 251.418C233.879 262.351 221.793 269.475 208.019 272.788C191.393 276.775 174.673 274.771 157.859 266.778" stroke="#818794" stroke-width="2"/>
<path d="M224.449 269.438C228.643 266.691 233.189 263.321 238.089 259.328C240.963 256.981 243.026 254.345 244.279 251.418" stroke="#969DAB" stroke-width="2"/>
<path d="M126.89 213.82C129.496 228.654 136.173 240.994 146.92 250.84C149.606 253.3 153.783 256.387 159.45 260.1C160.343 260.687 161.53 261.247 163.01 261.78C164.263 262.234 165.473 262.767 166.64 263.38C168.04 264.107 169.273 264.517 170.34 264.61" stroke="#2C3D56" stroke-width="2"/>
<path d="M170.34 264.607C172.68 266.067 175.417 267.061 178.55 267.587C197.317 270.754 214.23 266.994 229.29 256.307C230.857 255.194 233.33 252.851 236.71 249.277" stroke="#818794" stroke-width="2"/>
<path d="M236.71 249.278C240.063 247.725 243.343 244.398 246.55 239.298C247.363 238.011 247.807 237.031 247.88 236.358C247.913 236.025 247.803 235.745 247.55 235.518C245.25 233.458 242.58 230.988 242.38 227.618C242.24 225.305 242.21 223.708 242.29 222.828C243.21 212.628 243.573 202.628 243.38 192.828C243.32 189.741 243.607 187.488 244.24 186.068C245.247 183.835 246.907 182.118 249.22 180.918" stroke="#2C3D56" stroke-width="2"/>
<path d="M249.219 180.919C250.586 180.872 251.543 180.482 252.089 179.749C252.289 179.482 252.333 179.189 252.219 178.869C249.546 171.269 245.559 164.492 240.259 158.539C238.349 156.389 236.269 155.069 234.509 153.139C233.416 151.939 232.013 150.692 230.299 149.399C227.573 147.345 225.643 145.995 224.509 145.349C208.276 136.089 191.359 133.879 173.759 138.719C169.379 139.925 163.749 142.389 156.869 146.109C153.843 147.749 150.909 149.892 148.069 152.539C144.136 156.192 141.583 158.812 140.409 160.399C139.543 161.572 137.129 165.719 133.169 172.839C131.329 176.159 129.973 179.262 129.099 182.149C127.686 186.835 126.843 190.135 126.569 192.049C125.649 198.482 125.756 205.739 126.889 213.819" stroke="#242D47" stroke-width="2"/>
<path d="M249.22 180.92C248.387 177.82 247.27 175.25 245.87 173.21C244.943 171.863 244.153 170.563 243.5 169.31C242.347 167.103 241.59 165.75 241.23 165.25C236.683 158.943 232.073 154.137 227.4 150.83C215.687 142.557 202.277 139.067 187.17 140.36" stroke="#364764" stroke-width="2"/>
<path d="M187.169 140.36C179.796 140.327 172.143 141.77 164.209 144.69C157.416 147.197 151.746 150.813 147.199 155.54" stroke="#4E637D" stroke-width="2"/>
<path d="M147.199 155.539C145.393 157.886 143.566 160.336 141.719 162.889C139.939 165.356 138.446 167.989 137.239 170.789C136.033 173.589 134.866 176.399 133.739 179.219" stroke="#60788D" stroke-width="2"/>
<path d="M133.739 179.219C131.566 183.532 130.369 188.112 130.149 192.959" stroke="#4E637D" stroke-width="2"/>
<path d="M130.15 192.957C128.69 195.837 127.766 198.387 127.38 200.607C126.74 204.3 126.576 208.704 126.89 213.817" stroke="#364764" stroke-width="2"/>
<path d="M236.71 249.277C233.957 249.544 231.333 250.641 228.84 252.567C226.267 254.561 224.947 255.577 224.88 255.617C218.793 259.617 212.48 262.357 205.94 263.837C199.76 265.231 192.417 265.881 183.91 265.787C181.943 265.767 179.683 265.601 177.13 265.287C174.937 265.021 172.673 264.794 170.34 264.607" stroke="#92A1B1" stroke-width="2"/>
<path d="M130.15 192.957L129.85 194.687" stroke="#55738C" stroke-width="2"/>
<path d="M129.849 194.69C128.656 203.337 129.336 211.75 131.889 219.93C133.559 225.27 135.849 228.48 141.099 229.9C155.699 233.84 171.499 230.64 184.249 222.97C188.576 220.364 191.333 218.63 192.519 217.77C199.733 212.537 205.309 205.954 209.249 198.02C211.663 193.154 213.443 188.864 214.589 185.15C216.669 178.384 216.986 171.41 215.539 164.23C213.753 155.33 208.956 148.527 201.149 143.82C199.509 142.834 197.829 142.547 196.109 142.96" stroke="#4B6882" stroke-width="2"/>
<path d="M196.11 142.959C193.463 141.533 190.483 140.666 187.17 140.359" stroke="#55738C" stroke-width="2"/>
<path d="M196.109 142.957C205.536 150.21 209.669 159.357 208.509 170.397C207.956 175.644 205.866 181.68 202.239 188.507" stroke="#63839B" stroke-width="2"/>
<path d="M202.239 188.508C198.606 188.794 196.689 190.781 196.489 194.468C196.463 194.948 196.573 195.318 196.819 195.578C197.059 195.838 197.396 196.084 197.829 196.318" stroke="#80A4B5" stroke-width="2"/>
<path d="M197.83 196.318C196.816 195.958 196.12 196.014 195.74 196.488C194.166 198.468 192.096 200.307 189.53 202.007C188.016 203.007 185.636 204.617 182.39 206.837C176.196 211.064 169.416 213.867 162.05 215.247C153.69 216.814 145.506 215.797 137.5 212.197C133.98 210.617 131.826 208.351 131.04 205.397C130.586 203.697 130.19 200.128 129.85 194.688" stroke="#63839B" stroke-width="2"/>
<path d="M133.739 179.218C133.346 181.465 133.066 183.715 132.899 185.968C131.709 202.398 147.549 203.898 159.319 200.788C167.506 198.622 174.649 194.652 180.749 188.878C184.203 185.618 186.926 182.448 188.919 179.368C192.449 173.918 195.029 166.748 194.569 160.218C194.263 155.852 192.459 152.185 189.159 149.218C186.453 146.792 182.909 145.415 178.529 145.088C172.496 144.635 166.896 146.008 161.729 149.208C161.596 149.295 161.036 149.745 160.049 150.558C159.549 150.972 158.939 151.358 158.219 151.718L147.199 155.538" stroke="#80A4B5" stroke-width="2"/>
<path d="M158.219 151.719C152.652 153.399 148.789 157.029 146.629 162.609C145.996 164.255 145.859 165.732 146.219 167.039C146.499 168.079 147.222 168.949 148.389 169.649" stroke="#C8DCE2" stroke-width="2"/>
<path d="M148.39 169.648C155.59 170.915 161.073 168.221 164.84 161.568C166.17 159.238 166.92 154.308 163.28 153.578" stroke="#BDD2DA" stroke-width="2"/>
<path d="M163.28 153.578C161.96 152.185 160.273 151.565 158.22 151.718" stroke="#C8DCE2" stroke-width="2"/>
<path d="M197.829 196.318C200.169 197.011 202.076 196.248 203.549 194.028C205.236 191.488 204.799 189.648 202.239 188.508" stroke="#7699AB" stroke-width="2"/>
<path d="M163.28 153.578C162.68 155.865 161.583 157.755 159.99 159.248C158.29 160.848 154.423 164.315 148.39 169.648" stroke="#F3F5F6" stroke-width="2"/>
<path d="M249.199 226.879L249.569 227.309" stroke="#3A425A" stroke-width="2"/>
<path d="M249.57 227.309C248.923 228.269 248.556 229.222 248.47 230.169C248.436 230.502 248.543 230.779 248.79 230.999C250.19 232.259 251.523 232.942 252.79 233.049C256.35 233.339 262.6 232.579 263.88 228.209C264.42 226.356 264.46 224.246 264 221.879" stroke="#242D47" stroke-width="2"/>
<path d="M264 221.878L264.11 188.168" stroke="#3A425A" stroke-width="2"/>
<path d="M264.109 188.17C262.803 186.656 261.889 185.8 261.369 185.6C258.209 184.406 254.946 184.5 251.579 185.88C249.479 186.74 248.426 187.946 248.419 189.5C248.366 202.666 248.333 213.916 248.319 223.25C248.313 224.823 248.606 226.033 249.199 226.88" stroke="#8C919C" stroke-width="2"/>
<path d="M264.109 188.168C260.536 188.235 257.493 188.318 254.979 188.418C253.599 188.478 252.483 188.765 251.629 189.278C251.266 189.498 250.967 189.809 250.76 190.181C250.553 190.553 250.446 190.972 250.449 191.398C250.523 202.525 250.416 213.641 250.129 224.748C250.103 225.788 249.793 226.498 249.199 226.878" stroke="#ACAFBD" stroke-width="2"/>
<path d="M263.999 221.879C261.673 227.306 257.336 229.526 250.989 228.539C250.259 228.429 249.769 227.969 249.569 227.309" stroke="#444C68" stroke-width="2"/>
<path d="M239.88 196.147C239.04 205.987 236.056 214.944 230.93 223.017C228.696 226.537 225.746 230.054 222.08 233.567C217.9 237.587 214.32 240.501 211.34 242.307C202.193 247.867 192.176 251.277 181.29 252.537C174.876 253.277 167.023 252.634 157.73 250.607C156.52 250.337 155.31 249.457 154.02 249.247C153.313 249.134 153.253 249.284 153.84 249.697C158.32 252.891 161.673 254.711 163.9 255.157C168.68 256.111 172.133 256.601 174.26 256.627C176.733 256.647 181.07 256.284 187.27 255.537C200.73 253.904 212.613 248.447 222.92 239.167C230.94 231.947 236.253 223.111 238.86 212.657C239.973 208.184 240.56 202.624 240.62 195.977C240.62 195.904 240.58 195.867 240.5 195.867H240.18C239.993 195.867 239.893 195.961 239.88 196.147Z" stroke="#4B6882" stroke-width="2"/>
<path d="M178.509 152.379L178.429 151.669C178.216 149.876 177.236 149.019 175.489 149.099C172.029 149.272 169.669 150.512 168.409 152.819C168.277 153.058 168.21 153.327 168.215 153.601C168.22 153.874 168.296 154.141 168.437 154.377C168.577 154.612 168.776 154.807 169.015 154.942C169.254 155.078 169.525 155.149 169.799 155.149H176.049C177.909 155.149 178.729 154.226 178.509 152.379Z" stroke="#BDD2DA" stroke-width="2"/>
<path d="M142.079 172.868C140.949 175.218 142.499 176.698 144.709 177.078C145.036 177.131 145.316 177.041 145.549 176.808C146.616 175.728 146.972 174.295 146.619 172.508C146.538 172.086 146.309 171.708 145.974 171.44C145.638 171.172 145.218 171.033 144.789 171.048C143.549 171.081 142.646 171.688 142.079 172.868Z" stroke="#C8DCE2" stroke-width="2"/>
<path d="M316.79 346.029C316.344 349.962 314.977 353.342 312.69 356.169C308.504 361.349 302.857 363.935 295.75 363.929C226.25 363.875 156.75 363.885 87.2504 363.959C82.3037 363.965 77.9604 362.495 74.2204 359.549C69.8737 356.129 67.3371 351.779 66.6104 346.499C66.4704 251.465 66.4537 156.665 66.5604 62.0988C66.5671 58.0921 66.9771 55.0821 67.7904 53.0688C70.0371 47.5288 73.8704 43.7054 79.2904 41.5988C81.7104 40.6588 85.9304 40.1854 91.9504 40.1788C202.697 40.1454 270.974 40.1688 296.78 40.2488C302.667 40.2621 307.687 42.5088 311.84 46.9888C313.8 49.1021 315.184 51.5221 315.99 54.2488C316.49 55.9154 316.74 58.6154 316.74 62.3488C316.874 156.855 316.89 251.415 316.79 346.029ZM166.07 50.9388L166.12 88.8488C166.12 88.9469 166.159 89.041 166.229 89.1104C166.298 89.1798 166.392 89.2188 166.49 89.2188H310.53C310.95 89.2188 311.157 89.0088 311.15 88.5888C311.05 78.7421 310.98 70.2388 310.94 63.0788C310.92 58.9388 310.537 55.9288 309.79 54.0488C308.537 50.8754 306.347 48.5421 303.22 47.0488C301.094 46.0354 297.537 45.5188 292.55 45.4988C273.944 45.4121 255.36 45.3854 236.8 45.4188L166.55 45.4588C166.442 45.4588 166.337 45.502 166.26 45.5789C166.184 45.6557 166.14 45.76 166.14 45.8688L166.07 50.9388ZM74.1704 89.1988L160.43 89.2388C160.505 89.2388 160.576 89.2093 160.628 89.1568C160.681 89.1042 160.71 89.033 160.71 88.9588L160.81 45.5088C157.417 45.4421 154.314 45.4121 151.5 45.4188C131.32 45.4588 111.14 45.4688 90.9604 45.4488C86.3271 45.4421 83.0871 45.8321 81.2404 46.6188C77.7937 48.0788 75.2571 50.4688 73.6304 53.7888C72.7237 55.6421 72.2637 59.1954 72.2504 64.4488C72.2237 72.4021 72.1771 80.3554 72.1104 88.3088C72.1104 88.6554 72.2704 88.8921 72.5904 89.0188C73.0504 89.1988 73.5771 89.2588 74.1704 89.1988ZM72.2604 300.469C72.2337 314.635 72.2237 328.812 72.2304 342.999C72.2371 346.472 72.9337 349.219 74.3204 351.239C77.1337 355.872 80.9871 358.192 85.8804 358.199C155.614 358.285 225.347 358.302 295.08 358.249C298.06 358.249 300.304 357.975 301.81 357.429C306.42 355.769 310.14 351.749 311.01 346.879C311.15 346.092 311.214 343.665 311.2 339.599C311.1 301.312 311.104 263.009 311.21 224.689L311.19 95.0588C311.19 94.7254 311.027 94.5588 310.7 94.5588L229.8 94.6288L72.8604 94.7588C72.4204 94.7588 72.2004 94.9821 72.2004 95.4288L72.2604 300.469Z" fill="#1A2339"/>
<path d="M236.8 45.4219C235.314 47.0485 233.8 47.9685 232.26 48.1819C224.054 49.3419 212.757 50.3352 198.37 51.1619C193.604 49.7085 189.014 50.0585 184.6 52.2119C182.007 51.4919 180.044 51.2219 178.71 51.4019C174.357 51.9819 170.144 51.8285 166.07 50.9419L166.14 45.8719C166.14 45.7631 166.184 45.6589 166.26 45.582C166.337 45.5051 166.442 45.4619 166.55 45.4619L236.8 45.4219Z" fill="#FEFEFE"/>
<path d="M166.07 50.9401C170.144 51.8268 174.357 51.9801 178.71 51.4001C180.044 51.2201 182.007 51.4901 184.6 52.2101C177.64 56.9901 174.97 63.1601 176.59 70.7201C179.19 82.8701 193.61 89.1301 203.49 80.4901C208.364 76.2235 210.224 70.7635 209.07 64.1101C208.084 58.4368 204.517 54.1201 198.37 51.1601C212.757 50.3335 224.054 49.3401 232.26 48.1801C233.8 47.9668 235.314 47.0468 236.8 45.4201C255.36 45.3868 273.944 45.4135 292.55 45.5001C297.537 45.5201 301.094 46.0368 303.22 47.0501C306.347 48.5435 308.537 50.8768 309.79 54.0501C310.537 55.9301 310.92 58.9401 310.94 63.0801C310.98 70.2401 311.05 78.7435 311.15 88.5901C311.157 89.0101 310.95 89.2201 310.53 89.2201H166.49C166.392 89.2201 166.298 89.1812 166.229 89.1118C166.159 89.0424 166.12 88.9483 166.12 88.8501L166.07 50.9401ZM303.27 56.3607C303.27 55.8066 303.162 55.2576 302.951 54.7453C302.74 54.2329 302.43 53.7671 302.039 53.3746C301.648 52.982 301.183 52.6704 300.671 52.4574C300.16 52.2444 299.611 52.1343 299.057 52.1333L238.097 52.0269C237.543 52.026 236.994 52.1342 236.481 52.3453C235.969 52.5565 235.503 52.8666 235.111 53.2578C234.718 53.6489 234.407 54.1136 234.194 54.6252C233.981 55.1369 233.871 55.6855 233.87 56.2396L233.831 78.3395C233.83 78.8937 233.938 79.4427 234.15 79.955C234.361 80.4674 234.671 80.9332 235.062 81.3257C235.453 81.7183 235.918 82.0299 236.429 82.2429C236.941 82.4559 237.49 82.566 238.044 82.5669L299.004 82.6733C299.558 82.6743 300.107 82.5661 300.619 82.3549C301.131 82.1438 301.597 81.8337 301.99 81.4425C302.382 81.0513 302.694 80.5867 302.907 80.075C303.12 79.5634 303.23 79.0148 303.231 78.4606L303.27 56.3607Z" fill="#E7EBEE"/>
<path d="M160.81 45.5089C158.29 46.7289 156.114 47.4055 154.28 47.5389C147.72 47.9889 140.21 47.7689 133.64 48.1889C124.374 48.7755 110.88 49.0922 93.1604 49.1389C82.1004 49.1689 77.1603 54.5289 76.0203 65.2589C75.1803 73.1722 74.5637 81.1522 74.1703 89.1989C73.577 89.2589 73.0503 89.1989 72.5903 89.0189C72.2703 88.8922 72.1104 88.6555 72.1104 88.3089C72.177 80.3555 72.2237 72.4022 72.2504 64.4489C72.2637 59.1955 72.7237 55.6422 73.6303 53.7889C75.257 50.4689 77.7937 48.0789 81.2403 46.6189C83.087 45.8322 86.327 45.4422 90.9604 45.4489C111.14 45.4689 131.32 45.4589 151.5 45.4189C154.314 45.4122 157.417 45.4422 160.81 45.5089Z" fill="#FEFEFE"/>
<path d="M74.1699 89.2017C74.5633 81.1551 75.1799 73.1751 76.0199 65.2617C77.1599 54.5317 82.0999 49.1717 93.1599 49.1417C110.88 49.0951 124.373 48.7784 133.64 48.1917C140.21 47.7717 147.72 47.9917 154.28 47.5417C156.113 47.4084 158.29 46.7317 160.81 45.5117L160.71 88.9617C160.71 89.036 160.68 89.1072 160.628 89.1597C160.575 89.2122 160.504 89.2417 160.43 89.2417L74.1699 89.2017ZM128.76 62.2817C128.76 62.0245 128.658 61.7777 128.476 61.5958C128.294 61.4139 128.047 61.3117 127.79 61.3117H109.65C109.393 61.3117 109.146 61.4139 108.964 61.5958C108.782 61.7777 108.68 62.0245 108.68 62.2817V63.3817C108.68 63.639 108.782 63.8857 108.964 64.0676C109.146 64.2495 109.393 64.3517 109.65 64.3517H127.79C128.047 64.3517 128.294 64.2495 128.476 64.0676C128.658 63.8857 128.76 63.639 128.76 63.3817V62.2817ZM143.33 69.2117L94.6099 69.2917C94.3806 69.2917 94.1535 69.3371 93.9417 69.4251C93.73 69.5132 93.5377 69.6422 93.376 69.8049C93.2143 69.9675 93.0863 70.1605 92.9995 70.3728C92.9126 70.585 92.8686 70.8124 92.8699 71.0417L92.8799 80.2017C92.8812 80.8925 93.0232 81.5763 93.2978 82.2139C93.5723 82.8516 93.9741 83.4308 94.4802 83.9183C94.9863 84.4058 95.5868 84.7921 96.2473 85.0552C96.9078 85.3183 97.6155 85.4531 98.3299 85.4517L139.65 85.3717C141.093 85.369 142.475 84.8122 143.494 83.8239C144.512 82.8356 145.083 81.4967 145.08 80.1017L145.07 70.9417C145.067 70.482 144.883 70.042 144.557 69.7178C144.231 69.3937 143.79 69.2117 143.33 69.2117Z" fill="#E7EBEE"/>
<path d="M198.37 51.1597C204.516 54.1197 208.083 58.4364 209.07 64.1097C210.223 70.763 208.363 76.223 203.49 80.4897C193.61 89.1297 179.19 82.8697 176.59 70.7197C174.97 63.1597 177.64 56.9897 184.6 52.2097C189.013 50.0564 193.603 49.7064 198.37 51.1597ZM184.51 75.6597C186.722 77.9163 189.689 79.2529 192.785 79.3872C195.881 79.5216 198.862 78.4431 201.1 76.3797C202.555 75.0411 203.635 73.3416 204.24 71.4392C204.845 69.5369 204.955 67.4937 204.56 65.4997C204.302 64.1887 203.832 62.9249 203.17 61.7597C202.462 60.5098 201.544 59.389 200.46 58.4497C199.073 57.246 197.443 56.3634 195.692 55.8682C193.941 55.3729 192.115 55.2777 190.35 55.5897C188.626 55.8959 187.006 56.5836 185.606 57.6036C184.205 58.6237 183.059 59.9507 182.25 61.4897C181.073 63.7251 180.657 66.309 181.064 68.8603C181.471 71.4116 182.679 73.7953 184.51 75.6597Z" fill="#1A2339"/>
<path d="M303.231 78.461C303.23 79.0151 303.12 79.5638 302.907 80.0754C302.694 80.5871 302.382 81.0518 301.99 81.4429C301.597 81.8341 301.131 82.1442 300.619 82.3553C300.107 82.5665 299.558 82.6746 299.004 82.6737L238.044 82.5673C237.489 82.5663 236.941 82.4563 236.429 82.2433C235.918 82.0303 235.453 81.7187 235.062 81.3261C234.671 80.9336 234.361 80.4677 234.149 79.9553C233.938 79.443 233.83 78.894 233.831 78.3399L233.87 56.2401C233.871 55.6859 233.981 55.1373 234.194 54.6257C234.407 54.114 234.718 53.6493 235.111 53.2582C235.503 52.867 235.969 52.5568 236.481 52.3457C236.994 52.1345 237.543 52.0264 238.097 52.0274L299.057 52.1338C299.611 52.1347 300.16 52.2448 300.671 52.4578C301.183 52.6708 301.648 52.9823 302.039 53.3749C302.43 53.7674 302.74 54.2333 302.951 54.7457C303.162 55.258 303.27 55.8069 303.269 56.3611L303.231 78.461ZM238.42 58.0405L238.12 63.2606C238.054 64.3739 238.58 64.9306 239.7 64.9306H245.36C246.347 64.9306 246.754 64.4506 246.58 63.4906C246.354 62.2106 246.5 60.0838 247.02 57.1105C245.8 55.3505 243.117 54.8505 238.97 55.6105C238.637 55.6705 238.44 55.8671 238.38 56.2005C238.247 56.9605 238.26 57.5738 238.42 58.0405ZM250.98 58.2705C250.294 62.5105 250.66 64.6239 252.08 64.6106L258.49 64.8404C258.844 64.8471 259.057 64.6804 259.13 64.3404C259.5 62.5704 259.48 60.8405 259.77 59.0905C259.89 58.3371 259.8 57.7971 259.5 57.4705C259.614 56.2371 259.367 55.6171 258.76 55.6105C256.347 55.5905 253.904 55.5406 251.43 55.4606C251.097 55.4472 250.894 55.6038 250.82 55.9305C250.627 56.8038 250.68 57.5838 250.98 58.2705ZM264 58.8405C263.227 62.1071 263.364 64.1038 264.41 64.8305L272.21 64.9405C272.557 64.9405 272.764 64.7738 272.83 64.4405C273.317 62.0738 273.35 59.8138 272.93 57.6605C272.984 57.0071 272.94 56.5071 272.8 56.1605C272.64 55.7538 272.34 55.5505 271.9 55.5505H264.26C263.947 55.5505 263.77 55.7039 263.73 56.0106C263.597 57.0372 263.687 57.9805 264 58.8405ZM277.3 58.1006L276.99 64.3404C276.97 64.7004 277.144 64.8805 277.51 64.8805H285.41C285.566 64.8812 285.717 64.8276 285.837 64.7291C285.958 64.6306 286.04 64.4931 286.07 64.3404C286.53 62.0471 286.56 59.9038 286.16 57.9105C286.147 57.0238 286.004 56.3539 285.73 55.9006C285.657 55.7785 285.554 55.6774 285.429 55.6073C285.305 55.5372 285.164 55.5004 285.02 55.5005H277.76C277.394 55.5005 277.17 55.6805 277.09 56.0405C276.93 56.7805 277 57.4672 277.3 58.1006ZM290.77 58.1906C289.844 60.3239 289.66 62.4972 290.22 64.7106C290.307 65.0572 290.527 65.2305 290.88 65.2305H298.2C298.58 65.2305 298.817 65.0472 298.91 64.6806C299.544 62.2539 299.577 59.9805 299.01 57.8605C299.044 57.0938 298.964 56.4905 298.77 56.0505C298.617 55.6971 298.347 55.5205 297.96 55.5205H290.94C290.785 55.5207 290.633 55.5687 290.504 55.658C290.376 55.7472 290.277 55.8735 290.22 56.0205C289.927 56.8005 290.11 57.5239 290.77 58.1906ZM246.641 69.4928C246.641 69.3851 246.621 69.2784 246.58 69.1787C246.539 69.079 246.479 68.9882 246.404 68.9117C246.328 68.8351 246.238 68.7742 246.139 68.7325C246.039 68.6908 245.933 68.6691 245.825 68.6686L238.965 68.6326C238.857 68.632 238.751 68.6526 238.651 68.6933C238.551 68.734 238.461 68.7939 238.384 68.8697C238.308 68.9454 238.247 69.0356 238.205 69.1349C238.163 69.2341 238.141 69.3407 238.141 69.4484L238.1 77.3082C238.099 77.4158 238.12 77.5226 238.161 77.6223C238.201 77.722 238.261 77.8127 238.337 77.8892C238.413 77.9658 238.503 78.0267 238.602 78.0684C238.701 78.1101 238.808 78.1319 238.915 78.1325L245.775 78.1685C245.883 78.169 245.99 78.1483 246.089 78.1076C246.189 78.0669 246.28 78.007 246.356 77.9312C246.433 77.8555 246.494 77.7654 246.536 77.6661C246.577 77.5669 246.599 77.4603 246.6 77.3527L246.641 69.4928ZM250.23 69.5706L250.65 77.6205C250.677 78.1005 250.93 78.3405 251.41 78.3405H258.91C259.091 78.3407 259.264 78.2711 259.395 78.1462C259.525 78.0214 259.603 77.851 259.61 77.6705L259.98 69.3206C256.307 68.0006 253.057 68.0839 250.23 69.5706ZM263.64 70.0505C263.014 72.5305 263 75.0771 263.6 77.6905C263.687 78.0705 263.927 78.2605 264.32 78.2605H272.44C272.847 78.2605 273.05 78.0605 273.05 77.6605L273.08 69.1005L264.54 68.6305C264.18 68.6105 263.93 68.7672 263.79 69.1005C263.69 69.3472 263.64 69.6638 263.64 70.0505ZM276.72 69.4405L276.88 77.7305C276.887 78.0438 277.047 78.2005 277.36 78.2005H285.46C285.673 78.2006 285.878 78.1166 286.03 77.9669C286.181 77.8171 286.268 77.6135 286.27 77.4005L286.36 69.2806C282.7 68.1605 279.487 68.2138 276.72 69.4405ZM289.77 69.7705L290 77.5905C290.005 77.7913 290.089 77.982 290.233 78.1221C290.377 78.2622 290.569 78.3406 290.77 78.3405H298.32C298.7 78.3405 298.93 78.1539 299.01 77.7806C299.57 75.1939 299.584 72.4271 299.05 69.4805C295.384 68.0005 292.29 68.0972 289.77 69.7705Z" fill="#1A2339"/>
<path d="M200.46 58.4499C197.133 57.2499 193.873 56.9832 190.68 57.6499C189.053 57.9899 187.533 58.8932 186.12 60.3599C182.346 64.2732 181.38 68.5832 183.22 73.2899C184.393 74.3699 184.823 75.1599 184.51 75.6599C182.679 73.7954 181.471 71.4118 181.064 68.8605C180.657 66.3092 181.073 63.7253 182.25 61.4899C183.059 59.9509 184.205 58.6238 185.606 57.6038C187.006 56.5838 188.626 55.896 190.35 55.5899C192.115 55.2778 193.941 55.373 195.692 55.8683C197.443 56.3636 199.073 57.2462 200.46 58.4499Z" fill="#E7EBEE"/>
<path d="M247.02 57.1094C244.46 58.1361 241.593 58.4461 238.42 58.0394C238.26 57.5728 238.247 56.9594 238.38 56.1994C238.44 55.8661 238.637 55.6694 238.97 55.6094C243.117 54.8494 245.8 55.3494 247.02 57.1094Z" fill="#FEFEFE"/>
<path d="M259.5 57.4717C257.333 57.9051 255.086 58.1651 252.76 58.2517C252.326 58.2651 251.873 58.5017 251.4 58.9617C250.9 58.8084 250.76 58.5784 250.98 58.2717C250.68 57.5851 250.626 56.8051 250.82 55.9317C250.893 55.6051 251.096 55.4484 251.43 55.4617C253.903 55.5417 256.346 55.5917 258.76 55.6117C259.366 55.6184 259.613 56.2384 259.5 57.4717Z" fill="#E7EBEE"/>
<path d="M272.93 57.6608L265.57 57.8608C265.407 57.867 265.247 57.9078 265.102 57.9802C264.957 58.0527 264.83 58.1552 264.73 58.2808C264.536 58.5208 264.403 58.8241 264.33 59.1908C263.83 59.0374 263.72 58.9208 264 58.8408C263.686 57.9808 263.596 57.0374 263.73 56.0108C263.77 55.7041 263.946 55.5508 264.26 55.5508H271.9C272.34 55.5508 272.64 55.7541 272.8 56.1608C272.94 56.5074 272.983 57.0074 272.93 57.6608Z" fill="#E7EBEE"/>
<path d="M286.16 57.91L277.3 58.1C277 57.4667 276.93 56.78 277.09 56.04C277.17 55.68 277.394 55.5 277.76 55.5H285.02C285.164 55.4999 285.305 55.5367 285.429 55.6069C285.554 55.677 285.657 55.778 285.73 55.9C286.004 56.3533 286.147 57.0233 286.16 57.91Z" fill="#E7EBEE"/>
<path d="M299.01 57.8595L290.77 58.1895C290.11 57.5229 289.927 56.7995 290.22 56.0195C290.277 55.8726 290.376 55.7462 290.504 55.657C290.633 55.5677 290.785 55.5198 290.94 55.5195H297.96C298.347 55.5195 298.617 55.6962 298.77 56.0495C298.964 56.4895 299.044 57.0929 299.01 57.8595Z" fill="#E7EBEE"/>
<path d="M200.46 58.4501C201.545 59.3894 202.462 60.5102 203.17 61.7601C201.53 62.5068 200.257 63.2001 199.35 63.8401C196.93 65.5668 192.633 68.7534 186.46 73.4001C185.353 72.8334 184.273 72.7968 183.22 73.2901C181.38 68.5834 182.347 64.2734 186.12 60.3601C187.533 58.8934 189.053 57.9901 190.68 57.6501C193.873 56.9834 197.133 57.2501 200.46 58.4501Z" fill="#5A607B"/>
<path d="M259.5 57.4688C259.8 57.7953 259.89 58.3353 259.77 59.0886C259.48 60.8386 259.5 62.5686 259.13 64.3386C259.057 64.6786 258.844 64.8453 258.49 64.8386L252.08 64.6087L251.4 58.9586C251.874 58.4986 252.327 58.262 252.76 58.2486C255.087 58.162 257.334 57.902 259.5 57.4688Z" fill="#5A607B"/>
<path d="M247.02 57.1094C246.5 60.0827 246.353 62.2094 246.58 63.4894C246.753 64.4494 246.347 64.9294 245.36 64.9294H239.7C238.58 64.9294 238.053 64.3727 238.12 63.2594L238.42 58.0394C241.593 58.446 244.46 58.136 247.02 57.1094Z" fill="#D03A4C"/>
<path d="M272.93 57.6602C273.35 59.8135 273.317 62.0735 272.83 64.4402C272.763 64.7735 272.557 64.9402 272.21 64.9402L264.41 64.8302C264.857 63.2235 264.83 61.3435 264.33 59.1902C264.403 58.8235 264.537 58.5202 264.73 58.2802C264.831 58.1546 264.958 58.0521 265.103 57.9796C265.248 57.9071 265.407 57.8664 265.57 57.8602L272.93 57.6602Z" fill="#5A607B"/>
<path d="M286.16 57.9102C286.56 59.9035 286.53 62.0468 286.07 64.3402C286.04 64.4928 285.957 64.6302 285.837 64.7287C285.716 64.8272 285.565 64.8808 285.41 64.8802H277.51C277.143 64.8802 276.97 64.7002 276.99 64.3402L277.3 58.1002L286.16 57.9102Z" fill="#5A607B"/>
<path d="M299.01 57.8594C299.576 59.9794 299.543 62.2527 298.91 64.6794C298.816 65.046 298.58 65.2294 298.2 65.2294H290.88C290.526 65.2294 290.306 65.056 290.22 64.7094C289.66 62.496 289.843 60.3227 290.77 58.1894L299.01 57.8594Z" fill="#487B34"/>
<path d="M251.4 58.9595L252.08 64.6095C250.66 64.6229 250.294 62.5095 250.98 58.2695C250.76 58.5762 250.9 58.8062 251.4 58.9595Z" fill="#9398A8"/>
<path d="M264.33 59.1898C264.83 61.3432 264.856 63.2232 264.41 64.8298C263.363 64.1032 263.226 62.1065 264 58.8398C263.72 58.9198 263.83 59.0365 264.33 59.1898Z" fill="#7C8197"/>
<path d="M127.79 61.3086H109.65C109.114 61.3086 108.68 61.7429 108.68 62.2786V63.3786C108.68 63.9143 109.114 64.3486 109.65 64.3486H127.79C128.325 64.3486 128.76 63.9143 128.76 63.3786V62.2786C128.76 61.7429 128.325 61.3086 127.79 61.3086Z" fill="#1A2339"/>
<path d="M204.56 65.5017C200.473 72.3551 194.44 74.9884 186.46 73.4017C192.633 68.7551 196.93 65.5684 199.35 63.8417C200.257 63.2017 201.53 62.5084 203.17 61.7617C203.832 62.9269 204.302 64.1907 204.56 65.5017Z" fill="#454E68"/>
<path d="M204.56 65.5C204.955 67.494 204.845 69.5372 204.24 71.4395C203.635 73.3419 202.555 75.0414 201.1 76.38C198.862 78.4434 195.881 79.5219 192.785 79.3875C189.689 79.2532 186.722 77.9166 184.51 75.66C184.823 75.16 184.393 74.37 183.22 73.29C184.273 72.7967 185.353 72.8333 186.46 73.4C194.44 74.9867 200.473 72.3533 204.56 65.5Z" fill="#2E3755"/>
<path d="M245.824 68.6692L238.965 68.6333C238.512 68.6309 238.143 68.9961 238.14 69.449L238.099 77.3089C238.097 77.7618 238.462 78.1308 238.915 78.1332L245.775 78.1691C246.228 78.1715 246.597 77.8063 246.599 77.3534L246.64 69.4935C246.642 69.0406 246.277 68.6716 245.824 68.6692Z" fill="#D03A4C"/>
<path d="M259.98 69.3218C256.627 70.6485 253.377 70.7318 250.23 69.5718C253.057 68.0852 256.307 68.0018 259.98 69.3218Z" fill="#7C8197"/>
<path d="M273.08 69.1006C271.233 70.0873 269.13 70.4806 266.77 70.2806C266.283 70.2406 265.773 70.2906 265.24 70.4306C264.153 70.7173 263.62 70.5906 263.64 70.0506C263.64 69.6639 263.69 69.3473 263.79 69.1006C263.93 68.7673 264.18 68.6106 264.54 68.6306L273.08 69.1006Z" fill="#7C8197"/>
<path d="M286.36 69.2784C283.173 70.5117 279.96 70.565 276.72 69.4384C279.486 68.2117 282.7 68.1584 286.36 69.2784Z" fill="#9398A8"/>
<path d="M299.05 69.4794C296.07 70.3994 292.976 70.4961 289.77 69.7694C292.29 68.0961 295.383 67.9994 299.05 69.4794Z" fill="#7C8197"/>
<path d="M263.64 70.0516C263.62 70.5916 264.154 70.7182 265.24 70.4316C265.774 70.2916 266.284 70.2416 266.77 70.2816C269.13 70.4816 271.234 70.0882 273.08 69.1016L273.05 77.6616C273.05 78.0616 272.847 78.2616 272.44 78.2616H264.32C263.927 78.2616 263.687 78.0716 263.6 77.6916C263 75.0782 263.014 72.5316 263.64 70.0516Z" fill="#454E68"/>
<path d="M143.33 69.2109C143.79 69.2109 144.231 69.3929 144.557 69.717C144.883 70.0412 145.068 70.4812 145.07 70.9409L145.08 80.1009C145.083 81.4959 144.512 82.8348 143.494 83.8232C142.475 84.8115 141.093 85.3682 139.65 85.3709L98.3301 85.4509C97.6157 85.4523 96.908 85.3176 96.2475 85.0545C95.587 84.7913 94.9865 84.405 94.4804 83.9175C93.9744 83.43 93.5726 82.8508 93.298 82.2132C93.0234 81.5755 92.8814 80.8917 92.8801 80.2009L92.8701 71.0409C92.8688 70.8116 92.9129 70.5843 92.9997 70.372C93.0866 70.1597 93.2145 69.9667 93.3762 69.8041C93.5379 69.6415 93.7302 69.5124 93.942 69.4243C94.1537 69.3363 94.3808 69.2909 94.6101 69.2909L143.33 69.2109ZM97.4801 81.3309C98.5001 81.8909 99.9235 82.1709 101.75 82.1709C119.897 82.1443 131.477 82.1576 136.49 82.2109C137.783 82.2243 138.843 82.0009 139.67 81.5409C140.33 81.3076 140.72 80.7909 140.84 79.9909C141.06 78.4776 141.123 77.0076 141.03 75.5809C141.005 75.2062 140.84 74.8552 140.569 74.5989C140.298 74.3427 139.941 74.2004 139.57 74.2009H98.2001C97.4268 74.2009 96.9368 74.5709 96.7301 75.3109C96.0435 77.7309 96.2935 79.7376 97.4801 81.3309Z" fill="#1A2339"/>
<path d="M276.72 69.4414C279.96 70.568 283.173 70.5146 286.36 69.2812L286.27 77.4014C286.267 77.6144 286.181 77.8179 286.029 77.9677C285.877 78.1174 285.673 78.2014 285.46 78.2013H277.36C277.046 78.2013 276.886 78.0447 276.88 77.7314L276.72 69.4414Z" fill="#454E68"/>
<path d="M259.98 69.3203L259.61 77.6703C259.603 77.8507 259.526 78.0211 259.395 78.146C259.265 78.2709 259.091 78.3405 258.91 78.3403H251.41C250.93 78.3403 250.677 78.1003 250.65 77.6203L250.23 69.5703C253.377 70.7303 256.627 70.647 259.98 69.3203Z" fill="#454E68"/>
<path d="M299.05 69.4805C299.583 72.4271 299.57 75.1938 299.01 77.7805C298.93 78.1538 298.7 78.3405 298.32 78.3405H290.77C290.569 78.3405 290.376 78.2622 290.232 78.1221C290.088 77.9819 290.005 77.7912 290 77.5905L289.77 69.7705C292.976 70.4971 296.07 70.4005 299.05 69.4805Z" fill="#487B34"/>
<path d="M139.67 81.5392C139.383 80.6126 138.33 80.1826 136.51 80.2492C135.577 80.2892 135.067 80.3092 134.98 80.3092C123.487 80.3026 111.993 80.2892 100.5 80.2692C99.0734 80.2692 98.0668 80.6226 97.4801 81.3292C96.2934 79.7359 96.0434 77.7292 96.7301 75.3092C96.9368 74.5692 97.4267 74.1992 98.2001 74.1992H139.57C139.941 74.1987 140.298 74.341 140.569 74.5972C140.84 74.8535 141.005 75.2045 141.03 75.5792C141.123 77.0059 141.06 78.4759 140.84 79.9892C140.72 80.7892 140.33 81.3059 139.67 81.5392Z" fill="#454E68"/>
<path d="M139.67 81.5389C138.844 81.9989 137.784 82.2222 136.49 82.2089C131.477 82.1556 119.897 82.1422 101.75 82.1689C99.9238 82.1689 98.5005 81.8889 97.4805 81.3289C98.0671 80.6222 99.0738 80.2689 100.5 80.2689C111.994 80.2889 123.487 80.3022 134.98 80.3089C135.067 80.3089 135.577 80.2889 136.51 80.2489C138.33 80.1822 139.384 80.6122 139.67 81.5389Z" fill="#AAB6C7"/>
<path d="M229.8 94.6289C228.687 95.7556 227.33 96.3522 225.73 96.4189C212.717 96.9789 200.977 97.3356 190.51 97.4889C182.084 97.6089 175.42 97.7756 170.52 97.9889C144.094 99.1756 120.044 99.5722 98.3702 99.1789C93.5969 99.0922 87.4402 99.3422 79.9002 99.9289C79.4361 99.9658 79.0005 100.168 78.6722 100.498C78.3439 100.828 78.1445 101.265 78.1102 101.729C77.9902 103.482 77.9302 104.606 77.9302 105.099C77.9769 119.019 77.8302 133.986 77.4902 149.999C77.3102 158.546 77.2002 165.212 77.1602 169.999C76.8269 207.026 76.5502 232.566 76.3302 246.619C76.2302 253.306 76.0035 259.969 75.6502 266.609C75.6302 266.896 75.2302 273.972 74.4502 287.839C74.2035 292.159 73.4735 296.369 72.2602 300.469L72.2002 95.4289C72.2002 94.9822 72.4202 94.7589 72.8602 94.7589L229.8 94.6289Z" fill="#FEFEFE"/>
<path d="M311.21 224.689C310.856 227.202 310.446 229.689 309.98 232.149C309.193 236.302 308.53 240.779 307.99 245.579C307.543 249.552 307.13 252.362 306.75 254.009C299.61 285.262 282.87 309.595 256.53 327.009C232.39 342.959 204.68 350.659 175.97 353.599C170.816 354.132 164.173 354.645 156.04 355.139C140.826 356.059 125.483 356.062 110.01 355.149C100.436 354.582 93.0962 354.159 87.9895 353.879C85.9229 353.765 81.3662 352.885 74.3195 351.239C72.9329 349.219 72.2362 346.472 72.2295 342.999C72.2229 328.812 72.2329 314.635 72.2595 300.469C73.4729 296.369 74.2029 292.159 74.4495 287.839C75.2295 273.972 75.6295 266.895 75.6495 266.609C76.0029 259.969 76.2295 253.305 76.3295 246.619C76.5495 232.565 76.8262 207.025 77.1595 169.999C77.1995 165.212 77.3095 158.545 77.4895 149.999C77.8295 133.985 77.9762 119.019 77.9295 105.099C77.9295 104.605 77.9895 103.482 78.1095 101.729C78.1439 101.264 78.3432 100.828 78.6715 100.497C78.9998 100.167 79.4354 99.9655 79.8995 99.9286C87.4395 99.3419 93.5962 99.0919 98.3695 99.1786C120.043 99.5719 144.093 99.1753 170.52 97.9886C175.42 97.7753 182.083 97.6086 190.51 97.4886C200.976 97.3353 212.716 96.9786 225.73 96.4186C227.33 96.3519 228.686 95.7553 229.8 94.6286L310.7 94.5586C311.026 94.5586 311.19 94.7253 311.19 95.0586L311.21 224.689ZM95.9195 219.879C95.6995 227.272 96.7995 234.429 99.2195 241.349C100.146 243.982 100.87 246.022 101.39 247.469C102.223 249.775 103.07 251.779 103.93 253.479C112.476 270.459 124.723 283.919 140.67 293.859C145.57 296.912 151 299.539 156.96 301.739C162.586 303.812 168.433 305.422 174.5 306.569C180.04 307.615 186.14 308.085 192.8 307.979C200.2 307.865 207.01 307.169 213.23 305.889C219.483 304.602 225.796 302.519 232.17 299.639C253.49 289.999 269.56 273.922 280.38 251.409C285.52 240.709 287.906 230.329 287.54 220.269C291.58 194.755 287.283 171.589 274.65 150.769C262.33 130.469 242.76 115.229 220.27 108.379C158.66 89.5886 96.7495 134.449 94.5495 198.509C94.3029 205.749 94.7595 212.872 95.9195 219.879Z" fill="#E7EBEE"/>
<path d="M287.54 220.272C284.2 235.859 277.9 249.649 268.64 261.642C258.974 274.169 246.687 283.942 231.78 290.962C206.52 302.862 177.37 302.672 152.47 291.292C133.504 282.619 118.74 269.472 108.18 251.852C102.414 242.232 98.3269 231.575 95.9202 219.882C94.7602 212.875 94.3036 205.752 94.5502 198.512C96.7502 134.452 158.66 89.5919 220.27 108.382C242.76 115.232 262.33 130.472 274.65 150.772C287.284 171.592 291.58 194.759 287.54 220.272ZM101.31 190.762L100.43 204.922C100.304 210.322 100.837 215.689 102.03 221.022C103.23 227.262 105.174 233.309 107.86 239.162C114.687 254.022 124.667 266.285 137.8 275.952C139.76 277.399 142.244 278.689 145.25 279.822C147.097 281.815 148.884 283.265 150.61 284.172C159.177 288.705 168.927 291.775 179.86 293.382C193.8 295.422 206.9 293.002 220.06 289.002C229.93 285.992 238.77 281.422 247.08 274.722C250.847 271.682 254.45 268.485 257.89 265.132C260.804 262.292 264.314 257.812 268.42 251.692C275.827 240.665 280.284 229.315 281.79 217.642C283.077 207.722 283.157 198.005 282.03 188.492C281.11 180.672 279.59 174.189 277.47 169.042C276.47 166.615 275.05 163.359 273.21 159.272C271.884 156.332 270.04 153.662 267.68 151.262C266.22 148.275 264.62 145.729 262.88 143.622C261.534 141.989 259.134 139.389 255.68 135.822C248.58 128.495 240.51 122.902 231.47 119.042C223.27 114.655 214.62 111.985 205.52 111.032C196.2 109.645 187.187 109.619 178.48 110.952C154.214 114.659 134.55 126.252 119.49 145.732C109.47 158.692 103.41 173.702 101.31 190.762Z" fill="#1A2339"/>
<path d="M205.52 111.029C205.513 111.622 205.41 112.132 205.21 112.559C195.896 112.219 186.016 112.989 175.57 114.869C164.116 116.922 153.833 120.962 144.72 126.989C129.086 137.329 117.543 151.109 110.09 168.329C107.096 175.242 104.643 183.449 102.73 192.949C102.15 192.349 101.676 191.619 101.31 190.759C103.41 173.699 109.47 158.689 119.49 145.729C134.55 126.249 154.213 114.656 178.48 110.949C187.186 109.616 196.2 109.642 205.52 111.029Z" fill="#FEFEFE"/>
<path d="M231.47 119.041L221.59 117.171L205.21 112.561C205.41 112.135 205.513 111.625 205.52 111.031C214.62 111.985 223.27 114.655 231.47 119.041Z" fill="#9398A8"/>
<path d="M205.21 112.559L221.59 117.169C211.19 115.922 202.58 115.802 195.76 116.809C188.607 117.855 182.15 119.145 176.39 120.679C165.257 123.632 154.687 128.659 144.68 135.759C142.494 137.312 139.97 139.429 137.11 142.109C133.324 145.669 130.947 147.955 129.98 148.969C124.727 154.489 119.927 161.152 115.58 168.959C111.4 176.479 108.09 182.979 105.87 190.879C105.204 193.252 104.427 196.275 103.54 199.949C102.927 202.469 102.577 205.552 102.49 209.199C102.397 213.119 102.244 217.059 102.03 221.019C100.837 215.685 100.304 210.319 100.43 204.919C100.43 206.365 100.71 207.532 101.27 208.419C101.55 208.859 101.707 208.819 101.74 208.299L102.73 192.949C104.644 183.449 107.097 175.242 110.09 168.329C117.544 151.109 129.087 137.329 144.72 126.989C153.834 120.962 164.117 116.922 175.57 114.869C186.017 112.989 195.897 112.219 205.21 112.559Z" fill="#7C8197"/>
<path d="M221.59 117.171L231.47 119.041C240.51 122.901 248.58 128.495 255.68 135.821C259.134 139.388 261.534 141.988 262.88 143.621C264.62 145.728 266.22 148.275 267.68 151.261C268.18 155.101 268.65 158.941 269.09 162.781C269.904 169.941 269.38 176.951 267.52 183.811C264.7 181.431 262.034 180.138 259.52 179.931C259.333 179.913 259.154 179.84 259.007 179.721C258.859 179.602 258.749 179.442 258.69 179.261C255.48 169.251 250.21 159.281 243.24 152.151C230.62 139.231 215.324 131.895 197.35 130.141C181.464 128.595 166.48 132.335 152.4 141.361C150.947 142.301 149.677 143.235 148.59 144.161C145.68 146.641 142.16 149.131 139.66 151.921C128.087 164.795 121.6 179.605 120.2 196.351C118.14 220.911 128.41 244.751 147.92 259.911C148.82 260.605 150.47 261.735 152.87 263.301C154.717 264.508 156.38 265.668 157.86 266.781C159.034 268.448 161.094 269.841 164.04 270.961C174.5 274.921 184.014 276.828 192.58 276.681C196.12 276.621 200.4 276.411 205.42 276.051C206.46 275.978 207.787 275.708 209.4 275.241C210.72 274.861 212.064 274.581 213.43 274.401C211.184 275.568 208.89 276.491 206.55 277.171C205.83 277.385 204.987 277.718 204.02 278.171C203.187 278.565 202.32 278.878 201.42 279.111C182.714 283.945 163.99 284.181 145.25 279.821C142.244 278.688 139.76 277.398 137.8 275.951C124.667 266.285 114.687 254.021 107.86 239.161C105.174 233.308 103.23 227.261 102.03 221.021C102.244 217.061 102.397 213.121 102.49 209.201C102.577 205.555 102.927 202.471 103.54 199.951C104.427 196.278 105.204 193.255 105.87 190.881C108.09 182.981 111.4 176.481 115.58 168.961C119.927 161.155 124.727 154.491 129.98 148.971C130.947 147.958 133.324 145.671 137.11 142.111C139.97 139.431 142.494 137.315 144.68 135.761C154.687 128.661 165.257 123.635 176.39 120.681C182.15 119.148 188.607 117.858 195.76 116.811C202.58 115.805 211.19 115.925 221.59 117.171Z" fill="#5A607B"/>
<path d="M267.52 183.81C267.587 185.283 267.674 186.93 267.78 188.75C267.907 190.897 267.91 192.547 267.79 193.7C267.604 195.453 267.494 196.913 267.46 198.08C267.4 200.053 267.377 201.503 267.39 202.43C267.584 215.49 267.584 224.64 267.39 229.88C267.297 232.367 266.354 234.277 264.56 235.61C263.614 236.317 261.747 236.86 258.96 237.24C256.84 237.533 254.887 238 253.1 238.64L244.28 251.42C233.88 262.353 221.794 269.477 208.02 272.79C191.394 276.777 174.674 274.773 157.86 266.78C156.38 265.667 154.717 264.507 152.87 263.3C150.47 261.733 148.82 260.603 147.92 259.91C128.41 244.75 118.14 220.91 120.2 196.35C121.6 179.603 128.087 164.793 139.66 151.92C142.16 149.13 145.68 146.64 148.59 144.16C149.677 143.233 150.947 142.3 152.4 141.36C166.48 132.333 181.464 128.593 197.35 130.14C215.324 131.893 230.62 139.23 243.24 152.15C250.21 159.28 255.48 169.25 258.69 179.26C258.75 179.441 258.86 179.601 259.007 179.72C259.154 179.839 259.333 179.912 259.52 179.93C262.034 180.137 264.7 181.43 267.52 183.81ZM126.89 213.82C129.497 228.653 136.174 240.993 146.92 250.84C149.607 253.3 153.784 256.387 159.45 260.1C160.344 260.687 161.53 261.247 163.01 261.78C164.264 262.233 165.474 262.767 166.64 263.38C168.04 264.107 169.274 264.517 170.34 264.61C172.68 266.07 175.417 267.063 178.55 267.59C197.317 270.757 214.23 266.997 229.29 256.31C230.857 255.197 233.33 252.853 236.71 249.28C240.064 247.727 243.344 244.4 246.55 239.3C247.364 238.013 247.807 237.033 247.88 236.36C247.914 236.027 247.804 235.747 247.55 235.52C245.25 233.46 242.58 230.99 242.38 227.62C242.24 225.307 242.21 223.71 242.29 222.83C243.21 212.63 243.574 202.63 243.38 192.83C243.32 189.743 243.607 187.49 244.24 186.07C245.247 183.837 246.907 182.12 249.22 180.92C250.587 180.873 251.544 180.483 252.09 179.75C252.29 179.483 252.334 179.19 252.22 178.87C249.547 171.27 245.56 164.493 240.26 158.54C238.35 156.39 236.27 155.07 234.51 153.14C233.417 151.94 232.014 150.693 230.3 149.4C227.574 147.347 225.644 145.997 224.51 145.35C208.277 136.09 191.36 133.88 173.76 138.72C169.38 139.927 163.75 142.39 156.87 146.11C153.844 147.75 150.91 149.893 148.07 152.54C144.137 156.193 141.584 158.813 140.41 160.4C139.544 161.573 137.13 165.72 133.17 172.84C131.33 176.16 129.974 179.263 129.1 182.15C127.687 186.837 126.844 190.137 126.57 192.05C125.65 198.483 125.757 205.74 126.89 213.82ZM249.2 226.88L249.57 227.31C248.924 228.27 248.557 229.223 248.47 230.17C248.437 230.503 248.544 230.78 248.79 231C250.19 232.26 251.524 232.943 252.79 233.05C256.35 233.34 262.6 232.58 263.88 228.21C264.42 226.357 264.46 224.247 264 221.88L264.11 188.17C262.804 186.657 261.89 185.8 261.37 185.6C258.21 184.407 254.947 184.5 251.58 185.88C249.48 186.74 248.427 187.947 248.42 189.5C248.367 202.667 248.334 213.917 248.32 223.25C248.314 224.823 248.607 226.033 249.2 226.88Z" fill="#1A2339"/>
<path d="M249.22 180.919C248.387 177.819 247.27 175.249 245.87 173.209C244.944 171.862 244.154 170.562 243.5 169.309C242.347 167.102 241.59 165.749 241.23 165.249C236.684 158.942 232.074 154.135 227.4 150.829C215.687 142.555 202.277 139.065 187.17 140.359C179.797 140.325 172.144 141.769 164.21 144.689C157.417 147.195 151.747 150.812 147.2 155.539C145.394 157.885 143.567 160.335 141.72 162.889C139.94 165.355 138.447 167.989 137.24 170.789C136.034 173.589 134.867 176.399 133.74 179.219C131.567 183.532 130.37 188.112 130.15 192.959C128.69 195.839 127.767 198.389 127.38 200.609C126.74 204.302 126.577 208.705 126.89 213.819C125.757 205.739 125.65 198.482 126.57 192.049C126.844 190.135 127.687 186.835 129.1 182.149C129.974 179.262 131.33 176.159 133.17 172.839C137.13 165.719 139.544 161.572 140.41 160.399C141.584 158.812 144.137 156.192 148.07 152.539C150.91 149.892 153.844 147.749 156.87 146.109C163.75 142.389 169.38 139.925 173.76 138.719C191.36 133.879 208.277 136.089 224.51 145.349C225.644 145.995 227.574 147.345 230.3 149.399C232.014 150.692 233.417 151.939 234.51 153.139C236.27 155.069 238.35 156.389 240.26 158.539C245.56 164.492 249.547 171.269 252.22 178.869C252.334 179.189 252.29 179.482 252.09 179.749C251.544 180.482 250.587 180.872 249.22 180.919Z" fill="#2E3755"/>
<path d="M249.22 180.92C246.906 182.12 245.246 183.837 244.24 186.07C243.606 187.49 243.32 189.743 243.38 192.83C243.573 202.63 243.21 212.63 242.29 222.83C242.21 223.71 242.24 225.307 242.38 227.62C242.58 230.99 245.25 233.46 247.55 235.52C247.803 235.747 247.913 236.027 247.88 236.36C247.806 237.033 247.363 238.013 246.55 239.3C243.343 244.4 240.063 247.727 236.71 249.28C233.956 249.547 231.333 250.643 228.84 252.57C226.266 254.563 224.946 255.58 224.88 255.62C218.793 259.62 212.48 262.36 205.94 263.84C199.76 265.233 192.416 265.883 183.91 265.79C181.943 265.77 179.683 265.603 177.13 265.29C174.936 265.023 172.673 264.797 170.34 264.61C169.273 264.517 168.04 264.107 166.64 263.38C165.473 262.767 164.263 262.233 163.01 261.78C161.53 261.247 160.343 260.687 159.45 260.1C153.783 256.387 149.606 253.3 146.92 250.84C136.173 240.993 129.496 228.653 126.89 213.82C126.576 208.707 126.74 204.303 127.38 200.61C127.766 198.39 128.69 195.84 130.15 192.96L129.85 194.69C128.657 203.337 129.336 211.75 131.89 219.93C133.56 225.27 135.85 228.48 141.1 229.9C155.7 233.84 171.5 230.64 184.25 222.97C188.576 220.363 191.333 218.63 192.52 217.77C199.733 212.537 205.31 205.953 209.25 198.02C211.663 193.153 213.443 188.863 214.59 185.15C216.67 178.383 216.986 171.41 215.54 164.23C213.753 155.33 208.956 148.527 201.15 143.82C199.51 142.833 197.83 142.547 196.11 142.96C193.463 141.533 190.483 140.667 187.17 140.36C202.276 139.067 215.686 142.557 227.4 150.83C232.073 154.137 236.683 158.943 241.23 165.25C241.59 165.75 242.346 167.103 243.5 169.31C244.153 170.563 244.943 171.863 245.87 173.21C247.27 175.25 248.386 177.82 249.22 180.92ZM239.88 196.15C239.04 205.99 236.056 214.947 230.93 223.02C228.696 226.54 225.746 230.057 222.08 233.57C217.9 237.59 214.32 240.503 211.34 242.31C202.193 247.87 192.176 251.28 181.29 252.54C174.876 253.28 167.023 252.637 157.73 250.61C156.52 250.34 155.31 249.46 154.02 249.25C153.313 249.137 153.253 249.287 153.84 249.7C158.32 252.893 161.673 254.713 163.9 255.16C168.68 256.113 172.133 256.603 174.26 256.63C176.733 256.65 181.07 256.287 187.27 255.54C200.73 253.907 212.613 248.45 222.92 239.17C230.94 231.95 236.253 223.113 238.86 212.66C239.973 208.187 240.56 202.627 240.62 195.98C240.62 195.907 240.58 195.87 240.5 195.87H240.18C239.993 195.87 239.893 195.963 239.88 196.15Z" fill="#3D5773"/>
<path d="M187.17 140.36C190.483 140.667 193.463 141.533 196.11 142.96C205.536 150.213 209.67 159.36 208.51 170.4C207.956 175.647 205.866 181.683 202.24 188.51C198.606 188.797 196.69 190.783 196.49 194.47C196.463 194.95 196.573 195.32 196.82 195.58C197.06 195.84 197.396 196.087 197.83 196.32C196.816 195.96 196.12 196.017 195.74 196.49C194.166 198.47 192.096 200.31 189.53 202.01C188.016 203.01 185.636 204.62 182.39 206.84C176.196 211.067 169.416 213.87 162.05 215.25C153.69 216.817 145.506 215.8 137.5 212.2C133.98 210.62 131.826 208.353 131.04 205.4C130.586 203.7 130.19 200.13 129.85 194.69L130.15 192.96C130.37 188.113 131.566 183.533 133.74 179.22C133.346 181.467 133.066 183.717 132.9 185.97C131.71 202.4 147.55 203.9 159.32 200.79C167.506 198.623 174.65 194.653 180.75 188.88C184.203 185.62 186.926 182.45 188.92 179.37C192.45 173.92 195.03 166.75 194.57 160.22C194.263 155.853 192.46 152.187 189.16 149.22C186.453 146.793 182.91 145.417 178.53 145.09C172.496 144.637 166.896 146.01 161.73 149.21C161.596 149.297 161.036 149.747 160.05 150.56C159.55 150.973 158.94 151.36 158.22 151.72L147.2 155.54C151.746 150.813 157.416 147.197 164.21 144.69C172.143 141.77 179.796 140.327 187.17 140.36Z" fill="#6D8EA4"/>
<path d="M129.85 194.69C130.19 200.13 130.587 203.7 131.04 205.4C131.827 208.354 133.98 210.62 137.5 212.2C145.507 215.8 153.69 216.817 162.05 215.25C169.417 213.87 176.197 211.067 182.39 206.84C185.637 204.62 188.017 203.01 189.53 202.01C192.097 200.31 194.167 198.47 195.74 196.49C196.12 196.017 196.817 195.96 197.83 196.32C200.17 197.014 202.077 196.25 203.55 194.03C205.237 191.49 204.8 189.65 202.24 188.51C205.867 181.684 207.957 175.647 208.51 170.4C209.67 159.36 205.537 150.214 196.11 142.96C197.83 142.547 199.51 142.834 201.15 143.82C208.957 148.527 213.754 155.33 215.54 164.23C216.987 171.41 216.67 178.384 214.59 185.15C213.444 188.864 211.664 193.154 209.25 198.02C205.31 205.954 199.734 212.537 192.52 217.77C191.334 218.63 188.577 220.364 184.25 222.97C171.5 230.64 155.7 233.84 141.1 229.9C135.85 228.48 133.56 225.27 131.89 219.93C129.337 211.75 128.657 203.337 129.85 194.69Z" fill="#597891"/>
<path d="M133.74 179.218C134.867 176.398 136.034 173.588 137.24 170.788C138.447 167.988 139.94 165.355 141.72 162.888C143.567 160.335 145.394 157.885 147.2 155.538L158.22 151.718C152.654 153.398 148.79 157.028 146.63 162.608C145.997 164.255 145.86 165.732 146.22 167.038C146.5 168.078 147.224 168.948 148.39 169.648C155.59 170.915 161.074 168.222 164.84 161.568C166.17 159.238 166.92 154.308 163.28 153.578C161.96 152.185 160.274 151.565 158.22 151.718C158.94 151.358 159.55 150.972 160.05 150.558C161.037 149.745 161.597 149.295 161.73 149.208C166.897 146.008 172.497 144.635 178.53 145.088C182.91 145.415 186.454 146.792 189.16 149.218C192.46 152.185 194.264 155.852 194.57 160.218C195.03 166.748 192.45 173.918 188.92 179.368C186.927 182.448 184.204 185.618 180.75 188.878C174.65 194.652 167.507 198.622 159.32 200.788C147.55 203.898 131.71 202.398 132.9 185.968C133.067 183.715 133.347 181.465 133.74 179.218ZM178.51 152.378L178.43 151.668C178.217 149.875 177.237 149.018 175.49 149.098C172.03 149.272 169.67 150.512 168.41 152.818C168.278 153.057 168.211 153.327 168.216 153.6C168.221 153.873 168.297 154.141 168.437 154.376C168.578 154.611 168.777 154.806 169.016 154.942C169.255 155.077 169.525 155.148 169.8 155.148H176.05C177.91 155.148 178.73 154.225 178.51 152.378ZM142.08 172.868C140.95 175.218 142.5 176.698 144.71 177.078C145.037 177.132 145.317 177.042 145.55 176.808C146.617 175.728 146.974 174.295 146.62 172.508C146.539 172.087 146.311 171.708 145.975 171.44C145.639 171.172 145.219 171.033 144.79 171.048C143.55 171.082 142.647 171.688 142.08 172.868Z" fill="#92B9C5"/>
<path d="M176.05 155.149H169.8C169.526 155.149 169.255 155.078 169.016 154.942C168.777 154.807 168.578 154.612 168.438 154.377C168.297 154.141 168.221 153.874 168.216 153.601C168.211 153.327 168.278 153.058 168.41 152.819C169.67 150.512 172.03 149.272 175.49 149.099C177.237 149.019 178.217 149.876 178.43 151.669L178.51 152.379C178.73 154.226 177.91 155.149 176.05 155.149Z" fill="#E7EBEE"/>
<path d="M145.25 279.822C163.99 284.182 182.713 283.945 201.42 279.112C202.32 278.878 203.187 278.565 204.02 278.172C204.987 277.718 205.83 277.385 206.55 277.172C208.89 276.492 211.183 275.568 213.43 274.402L224.45 269.442C228.47 268.062 231.653 266.582 234 265.002C241.473 259.982 247.83 253.005 253.07 244.072C253.86 242.722 255.44 240.892 255.98 239.022C256.012 238.91 256.015 238.792 255.988 238.679C255.96 238.565 255.904 238.461 255.824 238.377C255.745 238.292 255.644 238.229 255.533 238.195C255.422 238.161 255.304 238.156 255.19 238.182L253.1 238.642C254.887 238.002 256.84 237.535 258.96 237.242C261.747 236.862 263.613 236.318 264.56 235.612C266.353 234.278 267.297 232.368 267.39 229.882C267.583 224.642 267.583 215.492 267.39 202.432C267.377 201.505 267.4 200.055 267.46 198.082C267.493 196.915 267.603 195.455 267.79 193.702C267.91 192.548 267.907 190.898 267.78 188.752C267.673 186.932 267.587 185.285 267.52 183.812C269.38 176.952 269.903 169.942 269.09 162.782C268.65 158.942 268.18 155.102 267.68 151.262C270.04 153.662 271.883 156.332 273.21 159.272C275.05 163.358 276.47 166.615 277.47 169.042C279.59 174.188 281.11 180.672 282.03 188.492C283.157 198.005 283.077 207.722 281.79 217.642C280.283 229.315 275.827 240.665 268.42 251.692C264.313 257.812 260.803 262.292 257.89 265.132C254.45 268.485 250.847 271.682 247.08 274.722C238.77 281.422 229.93 285.992 220.06 289.002C206.9 293.002 193.8 295.422 179.86 293.382C168.927 291.775 159.177 288.705 150.61 284.172C148.883 283.265 147.097 281.815 145.25 279.822Z" fill="#2E3755"/>
<path d="M163.28 153.578C162.68 155.865 161.583 157.755 159.99 159.248C158.29 160.848 154.423 164.315 148.39 169.648C147.223 168.948 146.5 168.078 146.22 167.038C145.86 165.731 145.997 164.255 146.63 162.608C148.79 157.028 152.653 153.398 158.22 151.718C160.273 151.565 161.96 152.185 163.28 153.578Z" fill="#FEFEFE"/>
<path d="M148.39 169.648C154.423 164.315 158.29 160.848 159.99 159.248C161.583 157.755 162.68 155.865 163.28 153.578C166.92 154.308 166.17 159.238 164.84 161.568C161.073 168.221 155.59 170.915 148.39 169.648Z" fill="#E7EBEE"/>
<path d="M142.08 172.872C142.647 171.692 143.55 171.085 144.79 171.052C145.219 171.037 145.639 171.176 145.975 171.444C146.31 171.711 146.539 172.09 146.62 172.512C146.973 174.299 146.617 175.732 145.55 176.812C145.317 177.045 145.037 177.135 144.71 177.082C142.5 176.702 140.95 175.222 142.08 172.872Z" fill="#FEFEFE"/>
<path d="M264.11 188.17C260.537 188.236 257.494 188.32 254.98 188.42C253.6 188.48 252.484 188.766 251.63 189.28C251.267 189.5 250.968 189.811 250.761 190.183C250.554 190.554 250.447 190.974 250.45 191.4C250.524 202.526 250.417 213.643 250.13 224.75C250.104 225.79 249.794 226.5 249.2 226.88C248.607 226.033 248.314 224.823 248.32 223.25C248.334 213.916 248.367 202.666 248.42 189.5C248.427 187.946 249.48 186.74 251.58 185.88C254.947 184.5 258.21 184.406 261.37 185.6C261.89 185.8 262.804 186.656 264.11 188.17Z" fill="#FEFEFE"/>
<path d="M264.11 188.172L264 221.882C261.674 227.309 257.337 229.529 250.99 228.542C250.26 228.432 249.77 227.972 249.57 227.312L249.2 226.882C249.794 226.502 250.104 225.792 250.13 224.752C250.417 213.645 250.524 202.529 250.45 191.402C250.447 190.976 250.554 190.556 250.761 190.185C250.967 189.813 251.267 189.502 251.63 189.282C252.484 188.769 253.6 188.482 254.98 188.422C257.494 188.322 260.537 188.239 264.11 188.172Z" fill="#5A607B"/>
<path d="M202.24 188.512C204.8 189.652 205.237 191.492 203.55 194.032C202.077 196.252 200.17 197.015 197.83 196.322C197.397 196.088 197.06 195.842 196.82 195.582C196.574 195.322 196.464 194.952 196.49 194.472C196.69 190.785 198.607 188.798 202.24 188.512Z" fill="#92B9C5"/>
<path d="M102.73 192.952L101.74 208.302C101.706 208.822 101.55 208.862 101.27 208.422C100.71 207.535 100.43 206.368 100.43 204.922L101.31 190.762C101.676 191.622 102.15 192.352 102.73 192.952Z" fill="#AAB6C7"/>
<path d="M239.88 196.151C239.893 195.964 239.993 195.871 240.18 195.871H240.5C240.58 195.871 240.62 195.908 240.62 195.981C240.56 202.628 239.973 208.188 238.86 212.661C236.253 223.114 230.94 231.951 222.92 239.171C212.613 248.451 200.73 253.908 187.27 255.541C181.07 256.288 176.733 256.651 174.26 256.631C172.133 256.604 168.68 256.114 163.9 255.161C161.673 254.714 158.32 252.894 153.84 249.701C153.253 249.288 153.313 249.138 154.02 249.251C155.31 249.461 156.52 250.341 157.73 250.611C167.023 252.638 174.876 253.281 181.29 252.541C192.176 251.281 202.193 247.871 211.34 242.311C214.32 240.504 217.9 237.591 222.08 233.571C225.746 230.058 228.696 226.541 230.93 223.021C236.056 214.948 239.04 205.991 239.88 196.151Z" fill="#597891"/>
<path d="M95.9201 219.879C98.3267 231.572 102.413 242.229 108.18 251.849C118.74 269.469 133.503 282.616 152.47 291.289C177.37 302.669 206.52 302.859 231.78 290.959C246.687 283.939 258.973 274.166 268.64 261.639C277.9 249.646 284.2 235.856 287.54 220.269C287.907 230.329 285.52 240.709 280.38 251.409C269.56 273.922 253.49 289.999 232.17 299.639C225.797 302.519 219.483 304.602 213.23 305.889C207.01 307.169 200.2 307.866 192.8 307.979C186.14 308.086 180.04 307.616 174.5 306.569C168.433 305.422 162.587 303.812 156.96 301.739C151 299.539 145.57 296.912 140.67 293.859C124.723 283.919 112.477 270.459 103.93 253.479C103.07 251.779 102.223 249.776 101.39 247.469C100.87 246.022 100.147 243.982 99.2201 241.349C96.8001 234.429 95.7001 227.272 95.9201 219.879Z" fill="#AAB6C7"/>
<path d="M264 221.879C264.46 224.246 264.42 226.356 263.88 228.209C262.6 232.579 256.35 233.339 252.79 233.049C251.523 232.942 250.19 232.259 248.79 230.999C248.543 230.779 248.436 230.502 248.47 230.169C248.556 229.222 248.923 228.269 249.57 227.309C249.77 227.969 250.26 228.429 250.99 228.539C257.336 229.526 261.673 227.306 264 221.879Z" fill="#2E3755"/>
<path d="M311.21 224.691C311.104 263.011 311.1 301.315 311.2 339.601C311.214 343.668 311.15 346.095 311.01 346.881C310.14 351.751 306.42 355.771 301.81 357.431C300.304 357.978 298.06 358.251 295.08 358.251C225.347 358.305 155.614 358.288 85.8803 358.201C80.987 358.195 77.1336 355.875 74.3203 351.241C81.367 352.888 85.9236 353.768 87.9903 353.881C93.097 354.161 100.437 354.585 110.01 355.151C125.484 356.065 140.827 356.061 156.04 355.141C164.174 354.648 170.817 354.135 175.97 353.601C204.68 350.661 232.39 342.961 256.53 327.011C282.87 309.598 299.61 285.265 306.75 254.011C307.13 252.365 307.544 249.555 307.99 245.581C308.53 240.781 309.194 236.305 309.98 232.151C310.447 229.691 310.857 227.205 311.21 224.691Z" fill="#AAB6C7"/>
<path d="M224.45 269.44C228.644 266.694 233.19 263.324 238.09 259.33C240.964 256.984 243.027 254.347 244.28 251.42L253.1 238.64L255.19 238.18C255.304 238.155 255.422 238.159 255.533 238.194C255.644 238.228 255.745 238.29 255.825 238.375C255.904 238.46 255.961 238.564 255.988 238.677C256.015 238.79 256.013 238.908 255.98 239.02C255.44 240.89 253.86 242.72 253.07 244.07C247.83 253.004 241.474 259.98 234 265C231.654 266.58 228.47 268.06 224.45 269.44Z" fill="#454E68"/>
<path d="M236.71 249.281C233.33 252.855 230.857 255.198 229.29 256.311C214.23 266.998 197.317 270.758 178.55 267.591C175.417 267.065 172.68 266.071 170.34 264.611C172.673 264.798 174.937 265.025 177.13 265.291C179.683 265.605 181.943 265.771 183.91 265.791C192.417 265.885 199.76 265.235 205.94 263.841C212.48 262.361 218.793 259.621 224.88 255.621C224.947 255.581 226.267 254.565 228.84 252.571C231.333 250.645 233.957 249.548 236.71 249.281Z" fill="#E7EBEE"/>
<path d="M244.28 251.422C243.027 254.349 240.964 256.985 238.09 259.332C233.19 263.325 228.644 266.695 224.45 269.442L213.43 274.402C212.064 274.582 210.72 274.862 209.4 275.242C207.787 275.709 206.46 275.979 205.42 276.052C200.4 276.412 196.12 276.622 192.58 276.682C184.014 276.829 174.5 274.922 164.04 270.962C161.094 269.842 159.034 268.449 157.86 266.782C174.674 274.775 191.394 276.779 208.02 272.792C221.794 269.479 233.88 262.355 244.28 251.422Z" fill="#E7EBEE"/>
<path d="M66.6095 346.501C67.3362 351.781 69.8729 356.131 74.2195 359.551C77.9595 362.498 82.3029 363.968 87.2495 363.961C156.75 363.888 226.25 363.878 295.75 363.931C302.856 363.938 308.503 361.351 312.69 356.171C314.976 353.345 316.343 349.965 316.79 346.031C321.876 346.925 326.97 347.961 332.07 349.141C336.616 350.188 340.846 351.831 344.76 354.071C347.09 355.401 350.3 358.781 347.22 361.211C344.773 363.145 341.966 364.661 338.799 365.761C333.606 367.561 328.146 369.011 322.42 370.111C305.406 373.398 287.26 375.731 267.98 377.111C214.193 380.945 160.49 380.615 106.87 376.121C96.8829 375.281 85.0395 373.681 71.3395 371.321C64.8128 370.201 58.2229 368.665 51.5695 366.711C47.5495 365.541 43.1295 363.781 40.3995 360.541C39.4695 359.441 39.8695 357.431 40.5595 356.561C41.8795 354.901 43.8429 353.565 46.4495 352.551C53.0562 349.991 59.7762 347.975 66.6095 346.501Z" fill="#9398A8"/>
</svg>
