<?xml version="1.0" encoding="UTF-8"?>
<svg xmlns="http://www.w3.org/2000/svg" viewBox="0 0 1516.56 1905.19">
  <defs>
    <style>
      .cls-1 {
        fill: #5e3b90;
      }

      .cls-2 {
        fill: #f59e61;
      }

      .cls-3 {
        fill: #8682ad;
      }

      .cls-3, .cls-4, .cls-5, .cls-6, .cls-7, .cls-8 {
        mix-blend-mode: multiply;
      }

      .cls-4 {
        fill: #bde3e9;
      }

      .cls-9 {
        fill: #e83841;
      }

      .cls-5 {
        fill: #e7d9d4;
      }

      .cls-10, .cls-11, .cls-12 {
        fill: #fff;
      }

      .cls-13 {
        fill: #45b9b2;
      }

      .cls-6 {
        fill: #4da6c9;
      }

      .cls-14 {
        isolation: isolate;
      }

      .cls-15 {
        fill: none;
        stroke: #29123b;
        stroke-miterlimit: 10;
        stroke-width: 4.78px;
      }

      .cls-16 {
        fill: #29123b;
      }

      .cls-17 {
        fill: #0069a6;
      }

      .cls-18 {
        fill: #21195b;
      }

      .cls-11 {
        opacity: .3;
      }

      .cls-19 {
        fill: #74b93f;
      }

      .cls-7 {
        fill: #d79eaf;
      }

      .cls-20 {
        fill: #e81c78;
      }

      .cls-8 {
        fill: #98ccd1;
      }

      .cls-21 {
        fill: #2e257a;
      }

      .cls-12 {
        mix-blend-mode: soft-light;
      }

      .cls-22 {
        fill: #0d284a;
      }

      .cls-23 {
        fill: #f7a300;
      }

      .cls-24 {
        fill: #372053;
      }
    </style>
  </defs>
  <g class="cls-14">
    <g id="Capa_1" data-name="Capa 1">
      <g>
        <g>
          <g>
            <g>
              <polygon class="cls-1" points="733.44 852.99 779.45 894.37 1266.49 352.77 1220.45 311.39 733.44 852.99"/>
              <polygon class="cls-11" points="758.65 875.68 768.98 884.96 1256.01 343.35 1245.68 334.07 758.65 875.68"/>
              <polygon class="cls-3" points="1237.56 326.79 750.54 868.38 733.44 852.99 1220.45 311.39 1237.56 326.79"/>
            </g>
            <polygon class="cls-2" points="1220.34 311.41 1266.42 352.87 1290.01 287.9 1300.8 268.01 1282.03 280.74 1220.34 311.41"/>
            <polygon class="cls-24" points="1282.62 280.34 1300.8 268.01 1290.33 287.27 1282.62 280.34"/>
          </g>
          <g>
            <g>
              <polygon class="cls-13" points="700.46 840.85 752.56 874.24 1145.67 261.08 1093.57 227.67 700.46 840.85"/>
              <polygon class="cls-11" points="729.02 859.14 740.69 866.65 1133.81 253.46 1122.12 245.97 729.02 859.14"/>
              <polygon class="cls-8" points="1112.95 240.08 719.83 853.26 700.46 840.85 1093.57 227.67 1112.95 240.08"/>
            </g>
            <polygon class="cls-2" points="1093.46 227.7 1145.64 261.16 1158.41 193.24 1165.86 171.86 1149.38 187.46 1093.46 227.7"/>
            <polygon class="cls-24" points="1149.91 186.97 1165.86 171.86 1158.62 192.57 1149.91 186.97"/>
          </g>
          <g>
            <g>
              <polygon class="cls-17" points="671.69 827.11 728.21 852.35 1025.11 187.24 968.6 162.01 671.69 827.11"/>
              <polygon class="cls-11" points="702.64 840.94 715.34 846.61 1012.23 181.49 999.55 175.84 702.64 840.94"/>
              <rect class="cls-6" x="466.46" y="487.75" width="728.37" height="23.01" transform="translate(36.16 1054.25) rotate(-65.94)"/>
            </g>
            <polygon class="cls-2" points="968.48 162.06 1025.07 187.34 1027.53 118.27 1031.71 96.02 1017.75 113.9 968.48 162.06"/>
            <polygon class="cls-24" points="1018.18 113.33 1031.71 96.02 1027.66 117.57 1018.18 113.33"/>
          </g>
          <g>
            <g>
              <polygon class="cls-20" points="633.1 820.11 692.29 838.16 904.88 141.51 845.67 123.45 633.1 820.11"/>
              <polygon class="cls-11" points="665.53 830 678.81 834.06 891.42 137.41 878.11 133.35 665.53 830"/>
              <polygon class="cls-7" points="865.42 129.48 652.82 826.13 633.1 820.11 845.67 123.45 865.42 129.48"/>
            </g>
            <polygon class="cls-2" points="845.59 123.52 904.88 141.61 898.8 72.77 900.19 50.18 888.56 69.64 845.59 123.52"/>
            <polygon class="cls-24" points="888.92 69.03 900.19 50.18 898.84 72.06 888.92 69.03"/>
          </g>
          <g>
            <polygon class="cls-23" points="606.75 814.67 680.02 826.24 793.59 106.77 720.31 95.21 606.75 814.67"/>
            <polygon class="cls-11" points="646.9 821.01 663.34 823.61 776.9 104.13 760.47 101.54 646.9 821.01"/>
            <polygon class="cls-7" points="744.72 99.06 631.19 818.52 606.75 814.67 720.31 95.21 744.72 99.06"/>
            <polygon class="cls-2" points="720.53 95.33 793.29 106.82 774.74 26.82 772.63 0 762.17 24.83 720.53 95.33"/>
            <polygon class="cls-24" points="762.51 24.04 772.63 0 774.68 25.97 762.51 24.04"/>
            <path class="cls-1" d="M677.97,840.24c-4.05,25.62-22.38,33.17-42.35,30.01-19.99-3.16-35.42-13.92-31.05-41.6l73.4,11.58Z"/>
            <polygon class="cls-16" points="604.59 828.94 677.75 840.48 680.04 825.87 606.89 814.33 604.59 828.94"/>
          </g>
        </g>
        <g>
          <rect class="cls-13" x="79.36" y="598.57" width="1156.89" height="922.62" transform="translate(-548.01 1379.37) rotate(-73.01)"/>
          <polygon class="cls-10" points="1073.62 872.69 452.97 683.11 490.52 560.22 1111.17 749.79 1073.62 872.69"/>
          <polygon class="cls-10" points="1045.12 966.01 424.47 776.43 439.56 727.07 1060.19 916.64 1045.12 966.01"/>
          <polygon class="cls-4" points="362.2 1574.41 47.64 1478.33 385.59 371.91 362.2 1574.41"/>
          <polygon class="cls-12" points="697.35 1676.77 633.34 1657.21 622.75 444.35 686.77 463.9 697.35 1676.77"/>
          <polygon class="cls-12" points="817.93 1713.59 753.92 1694.05 750.75 483.45 814.77 503 817.93 1713.59"/>
          <g>
            <path class="cls-22" d="M439.53,457.12c-3.46,11.36-15.48,17.75-26.86,14.28l-101.72-31.06c-11.36-3.47-17.75-15.5-14.29-26.86l.72-2.28c3.46-11.38,15.47-17.77,26.84-14.3l101.74,31.07c11.36,3.47,17.75,15.5,14.28,26.86l-.7,2.29Z"/>
            <path class="cls-22" d="M412.65,545.13c-3.48,11.36-15.49,17.76-26.86,14.28l-101.74-31.07c-11.36-3.47-17.74-15.49-14.28-26.86l.7-2.28c3.47-11.36,15.48-17.76,26.85-14.29l101.72,31.07c11.37,3.48,17.76,15.5,14.29,26.86l-.69,2.29Z"/>
            <path class="cls-22" d="M385.76,633.14c-3.46,11.36-15.49,17.76-26.85,14.29l-101.73-31.08c-11.35-3.47-17.75-15.49-14.28-26.86l.69-2.29c3.48-11.36,15.49-17.76,26.86-14.29l101.72,31.07c11.37,3.47,17.77,15.49,14.29,26.85l-.7,2.29Z"/>
            <path class="cls-22" d="M358.88,721.15c-3.48,11.37-15.49,17.76-26.87,14.29l-101.72-31.07c-11.36-3.48-17.74-15.5-14.28-26.85l.69-2.29c3.46-11.36,15.49-17.76,26.85-14.29l101.74,31.08c11.36,3.47,17.76,15.49,14.29,26.86l-.7,2.28Z"/>
            <path class="cls-22" d="M332,809.16c-3.46,11.36-15.48,17.76-26.86,14.28l-101.72-31.06c-11.36-3.47-17.77-15.49-14.3-26.86l.7-2.29c3.46-11.36,15.49-17.76,26.85-14.28l101.74,31.07c11.36,3.47,17.75,15.49,14.28,26.85l-.69,2.29Z"/>
            <path class="cls-22" d="M305.11,897.17c-3.46,11.36-15.47,17.76-26.85,14.28l-101.73-31.07c-11.37-3.47-17.76-15.49-14.29-26.86l.7-2.29c3.47-11.36,15.48-17.76,26.85-14.28l101.73,31.07c11.36,3.48,17.75,15.5,14.28,26.86l-.7,2.28Z"/>
            <path class="cls-22" d="M278.24,985.18c-3.49,11.36-15.5,17.77-26.87,14.29l-101.73-31.07c-11.34-3.47-17.75-15.5-14.28-26.86l.7-2.29c3.47-11.36,15.47-17.76,26.84-14.28l101.73,31.07c11.36,3.48,17.77,15.5,14.29,26.86l-.69,2.28Z"/>
            <path class="cls-22" d="M251.35,1073.19c-3.47,11.37-15.48,17.76-26.85,14.29l-101.74-31.06c-11.36-3.48-17.75-15.5-14.28-26.86l.67-2.29c3.48-11.36,15.5-17.75,26.86-14.28l101.73,31.07c11.37,3.47,17.76,15.49,14.3,26.85l-.71,2.28Z"/>
            <path class="cls-22" d="M224.46,1161.2c-3.47,11.36-15.49,17.77-26.86,14.29l-101.71-31.07c-11.37-3.48-17.77-15.5-14.3-26.86l.71-2.28c3.48-11.36,15.49-17.77,26.86-14.29l101.72,31.07c11.37,3.48,17.75,15.5,14.27,26.86l-.68,2.28Z"/>
            <path class="cls-22" d="M197.58,1249.21c-3.46,11.37-15.47,17.76-26.86,14.29l-101.72-31.07c-11.35-3.47-17.75-15.5-14.28-26.86l.69-2.29c3.48-11.35,15.5-17.75,26.86-14.28l101.71,31.06c11.38,3.48,17.78,15.5,14.3,26.86l-.7,2.28Z"/>
            <path class="cls-22" d="M170.71,1337.23c-3.49,11.36-15.5,17.76-26.87,14.28l-101.71-31.07c-11.38-3.47-17.77-15.5-14.3-26.85l.7-2.29c3.47-11.36,15.5-17.76,26.86-14.29l101.71,31.07c11.37,3.47,17.76,15.5,14.3,26.86l-.69,2.28Z"/>
            <path class="cls-22" d="M143.82,1425.24c-3.47,11.36-15.48,17.76-26.86,14.28l-101.73-31.06c-11.34-3.48-17.75-15.5-14.28-26.86l.7-2.29c3.47-11.38,15.49-17.77,26.85-14.29l101.72,31.07c11.38,3.47,17.77,15.49,14.29,26.85l-.69,2.29Z"/>
          </g>
        </g>
        <path class="cls-9" d="M266.32,1147.27c1.78-2.48,3.78-4.75,5.98-6.75,16.18-14.69,44.33-17.55,66.79,5.42,39.25,40.08,139.42,144.39,162.94,170.69,28.38,31.75,23.35,67.33,3.75,86.04-18.8,17.94-53.82,22.87-86.23-8.71-18.42-17.94-71.68-69.74-71.68-69.74l11.2-11.46s53.26,51.82,71.67,69.76c24.97,24.31,50.14,21.85,64,8.62,13.6-13,17.96-38.52-4.68-63.86-23.38-26.16-123.29-130.17-162.44-170.17-16.1-16.47-34.39-14.02-44.57-4.79-9.4,8.53-14.54,25.43,1.99,44.9,17.84,21.07,118.5,121.16,133.35,134.75,7.18,6.56,15.73,5.4,20.13.98,5.6-5.66,3.76-14.93-4.85-24.18-25.59-27.42-104.65-106.7-105.44-107.49-3.12-3.13-3.12-8.17.04-11.3,3.14-3.12,8.19-3.12,11.32.01.79.79,80.04,80.27,105.81,107.87,16.88,18.11,14.43,36.3,4.46,46.32-9.65,9.71-27.76,12.87-42.29-.42-15-13.69-116.68-114.86-134.76-136.2-19.03-22.44-17.07-45.41-6.49-60.29Z"/>
        <g>
          <g>
            <path class="cls-21" d="M1436.52,1519.47c7.18,23.72-6.24,48.76-29.95,55.94l-334.07,101.11c-23.72,7.18-48.76-6.23-55.94-29.95l-192.11-634.71c-7.19-23.72,6.25-48.77,29.96-55.95l334.04-101.11c23.73-7.17,48.78,6.23,55.95,29.95l192.12,634.72Z"/>
            <g>
              <path class="cls-23" d="M1015.43,1033.95c10.11,33.37-8.78,68.62-42.15,78.72-33.39,10.11-68.65-8.76-78.74-42.13-10.11-33.4,8.76-68.65,42.15-78.76,33.37-10.09,68.64,8.77,78.74,42.17Z"/>
              <path class="cls-12" d="M965.91,1013.16c19.44,11.24-18.22,10.92-29.48,30.35-11.23,19.42,8.19,51.23-11.24,39.99-19.42-11.24-26.05-36.11-14.8-55.54,11.25-19.41,36.09-26.04,55.52-14.8Z"/>
            </g>
            <g>
              <path class="cls-19" d="M1063.57,1193.02c10.11,33.38-8.79,68.64-42.14,78.74-33.4,10.11-68.67-8.77-78.76-42.15-10.1-33.39,8.76-68.64,42.17-78.75,33.37-10.1,68.62,8.77,78.73,42.17Z"/>
              <path class="cls-12" d="M1014.07,1172.23c19.42,11.23-18.25,10.92-29.5,30.34-11.23,19.43,8.19,51.23-11.23,40-19.42-11.24-26.05-36.11-14.81-55.53,11.24-19.42,36.09-26.06,55.54-14.82Z"/>
            </g>
            <g>
              <path class="cls-17" d="M1111.22,1350.5c10.11,33.4-8.74,68.65-42.13,78.75-33.38,10.11-68.65-8.77-78.76-42.16-10.1-33.38,8.78-68.64,42.17-78.75,33.36-10.09,68.64,8.78,78.72,42.16Z"/>
              <path class="cls-12" d="M1061.72,1329.71c19.44,11.23-18.25,10.93-29.5,30.35-11.22,19.42,8.21,51.24-11.22,40-19.42-11.24-26.05-36.11-14.8-55.52,11.22-19.43,36.09-26.07,55.51-14.83Z"/>
            </g>
            <g>
              <path class="cls-1" d="M1161.32,1515.94c10.09,33.38-8.78,68.64-42.15,78.74-33.4,10.11-68.65-8.77-78.76-42.14-10.09-33.4,8.78-68.65,42.17-78.75,33.37-10.1,68.63,8.76,78.74,42.15Z"/>
              <path class="cls-12" d="M1111.8,1495.16c19.42,11.23-18.23,10.91-29.49,30.35-11.22,19.41,8.2,51.23-11.24,39.99-19.42-11.25-26.05-36.11-14.79-55.55,11.24-19.4,36.09-26.04,55.52-14.79Z"/>
            </g>
            <g>
              <path class="cls-9" d="M1213.63,977.43c10.1,33.38-8.74,68.64-42.14,78.75-33.38,10.1-68.65-8.78-78.75-42.14-10.1-33.4,8.79-68.66,42.16-78.76,33.39-10.1,68.64,8.76,78.73,42.15Z"/>
              <path class="cls-12" d="M1164.13,956.63c19.42,11.25-18.24,10.93-29.47,30.36-11.24,19.42,8.18,51.23-11.24,39.99-19.43-11.24-26.05-36.11-14.81-55.52,11.23-19.42,36.1-26.06,55.52-14.83Z"/>
            </g>
            <g>
              <path class="cls-13" d="M1261.8,1136.5c10.09,33.38-8.77,68.64-42.16,78.75-33.38,10.09-68.65-8.77-78.76-42.16-10.1-33.39,8.79-68.65,42.16-78.75,33.4-10.11,68.65,8.78,78.76,42.16Z"/>
              <path class="cls-12" d="M1212.29,1115.7c19.42,11.24-18.25,10.92-29.49,30.35-11.24,19.43,8.18,51.24-11.24,40-19.42-11.24-26.04-36.11-14.81-55.52,11.24-19.43,36.1-26.07,55.54-14.83Z"/>
            </g>
            <g>
              <path class="cls-20" d="M1309.45,1293.98c10.1,33.39-8.76,68.64-42.14,78.75-33.38,10.11-68.66-8.77-78.76-42.15-10.1-33.39,8.79-68.65,42.16-78.75,33.39-10.1,68.65,8.77,78.74,42.15Z"/>
              <path class="cls-12" d="M1259.95,1273.18c19.42,11.25-18.23,10.93-29.48,30.36-11.24,19.43,8.19,51.23-11.24,40-19.42-11.24-26.04-36.1-14.82-55.52,11.25-19.43,36.11-26.07,55.54-14.83Z"/>
            </g>
            <g>
              <path class="cls-16" d="M1359.52,1459.43c10.1,33.37-8.74,68.63-42.14,78.74-33.38,10.09-68.65-8.77-78.75-42.15-10.11-33.39,8.78-68.65,42.16-78.76,33.38-10.1,68.64,8.77,78.73,42.17Z"/>
              <path class="cls-12" d="M1310.02,1438.63c19.42,11.24-18.23,10.93-29.47,30.35-11.26,19.42,8.18,51.23-11.24,40.01-19.44-11.26-26.05-36.13-14.84-55.54,11.24-19.43,36.13-26.06,55.55-14.82Z"/>
            </g>
            <polygon class="cls-18" points="1245.13 1595.63 1218.08 1603.82 1015.88 935.7 1042.91 927.52 1245.13 1595.63"/>
            <path class="cls-3" d="M1199.97,1637.94l-127.47,38.59c-23.72,7.18-48.76-6.23-55.94-29.95l-192.11-634.71,375.52,626.07Z"/>
            <polygon class="cls-11" points="956.87 924.9 890.81 944.9 1297.28 1608.49 1358.42 1589.99 956.87 924.9"/>
            <path class="cls-11" d="M1017.26,906.63l-36.59,11.07,396.45,666.63s31.89-9.73,33.08-10.21l-392.94-667.49Z"/>
          </g>
          <g>
            <path class="cls-23" d="M1439.73,1275.34l27.5-105.13s4.69-17.33-9.79-23.22c-14.49-5.88-23.48,9.7-23.48,9.7l-51.88,95.21,57.66,23.44Z"/>
            <path class="cls-17" d="M1382.16,1251.34l-158.78,390.63s-28.14,71.43.06,82.89c25.89,10.54,59.1-62.39,59.1-62.39l157.53-387.58-57.91-23.54Z"/>
            <path class="cls-11" d="M1406.54,1261.26l-13.21-5.37-182.16,448.18c.72,7.71,3.1,14.26,7.96,18.24l187.41-461.05Z"/>
            <path class="cls-6" d="M1418.72,1266.21l-186.66,459.28c24.08-5.08,50.47-63.03,50.47-63.03l157.53-387.58-21.35-8.67Z"/>
            <g>
              <path class="cls-16" d="M1433.28,1151.4s-19.14-70.87,32.87-73.68c25.21-1.36,36.28-41.1,26.54-61.73-9.75-20.63,71.42,62.32-20.26,150.51,0,0-7.69,5.67-21.53.04-16.19-6.57-17.63-15.13-17.63-15.13Z"/>
              <path class="cls-12" d="M1486.73,1097.82c8.99,10.84-13.1,2.47-23.92,11.46-10.85,8.97-6.31,31.92-15.31,21.09-8.99-10.84-7.48-26.91,3.34-35.9,10.85-8.98,26.9-7.48,35.89,3.35Z"/>
            </g>
          </g>
        </g>
        <g>
          <path class="cls-23" d="M84,1805.49l654.75,99.7,107.38-705.11L84,1805.49ZM651.94,1798.43l-321.07-48.89,373.77-297.13-52.7,346.01Z"/>
          <polygon class="cls-11" points="221.23 1826.38 270.51 1833.88 373.75 1756.07 331.65 1749.66 221.23 1826.38"/>
          <polygon class="cls-11" points="704.64 1452.42 698.88 1490.19 817.83 1385.89 824.26 1343.63 704.64 1452.42"/>
          <polygon class="cls-11" points="284.29 1835.98 321.54 1842.46 432.77 1765.08 391.84 1758.85 284.29 1835.98"/>
          <polygon class="cls-11" points="695.58 1511.81 688.57 1557.84 808.96 1444.16 815.63 1400.25 695.58 1511.81"/>
          <polygon class="cls-5" points="683.33 1592.37 651.94 1798.43 463.08 1769.68 357.07 1847.07 738.75 1905.19 803.58 1479.43 683.33 1592.37"/>
          <g>
            <g>
              <line class="cls-15" x1="168.53" y1="1781.15" x2="163.01" y2="1817.34"/>
              <line class="cls-15" x1="234.62" y1="1791.22" x2="229.11" y2="1827.4"/>
              <line class="cls-15" x1="181.25" y1="1792.75" x2="177.16" y2="1819.5"/>
              <line class="cls-15" x1="194.48" y1="1794.77" x2="190.41" y2="1821.51"/>
              <line class="cls-15" x1="207.72" y1="1796.78" x2="203.66" y2="1823.53"/>
              <line class="cls-15" x1="220.99" y1="1798.8" x2="216.91" y2="1825.54"/>
              <line class="cls-15" x1="300.88" y1="1801.31" x2="295.37" y2="1837.49"/>
              <line class="cls-15" x1="247.51" y1="1802.84" x2="243.44" y2="1829.59"/>
              <line class="cls-15" x1="260.75" y1="1804.85" x2="256.68" y2="1831.6"/>
              <line class="cls-15" x1="274" y1="1806.87" x2="269.94" y2="1833.63"/>
              <line class="cls-15" x1="287.24" y1="1808.89" x2="283.16" y2="1835.64"/>
              <line class="cls-15" x1="367.41" y1="1811.44" x2="361.9" y2="1847.63"/>
              <line class="cls-15" x1="314.04" y1="1812.97" x2="309.97" y2="1839.72"/>
              <line class="cls-15" x1="327.29" y1="1814.99" x2="323.2" y2="1841.74"/>
              <line class="cls-15" x1="340.53" y1="1817.01" x2="336.46" y2="1843.75"/>
              <line class="cls-15" x1="353.78" y1="1819.02" x2="349.71" y2="1845.77"/>
              <line class="cls-15" x1="433.68" y1="1821.53" x2="428.17" y2="1857.72"/>
              <line class="cls-15" x1="380.3" y1="1823.06" x2="376.23" y2="1849.81"/>
              <line class="cls-15" x1="393.55" y1="1825.08" x2="389.47" y2="1851.82"/>
              <line class="cls-15" x1="406.8" y1="1827.09" x2="402.73" y2="1853.84"/>
              <line class="cls-15" x1="420.05" y1="1829.11" x2="415.99" y2="1855.86"/>
              <line class="cls-15" x1="500.21" y1="1831.66" x2="494.69" y2="1867.85"/>
              <line class="cls-15" x1="446.84" y1="1833.19" x2="442.76" y2="1859.95"/>
              <line class="cls-15" x1="460.08" y1="1835.21" x2="455.99" y2="1861.96"/>
              <line class="cls-15" x1="473.35" y1="1837.22" x2="469.28" y2="1863.97"/>
              <line class="cls-15" x1="486.58" y1="1839.24" x2="482.51" y2="1865.99"/>
              <line class="cls-15" x1="566.49" y1="1841.75" x2="560.99" y2="1877.94"/>
              <line class="cls-15" x1="513.11" y1="1843.28" x2="509.03" y2="1870.03"/>
              <line class="cls-15" x1="526.35" y1="1845.3" x2="522.27" y2="1872.05"/>
              <line class="cls-15" x1="539.6" y1="1847.32" x2="535.52" y2="1874.07"/>
              <line class="cls-15" x1="552.85" y1="1849.34" x2="548.78" y2="1876.09"/>
              <line class="cls-15" x1="633.03" y1="1851.89" x2="627.51" y2="1888.07"/>
              <line class="cls-15" x1="579.65" y1="1853.41" x2="575.58" y2="1880.16"/>
              <line class="cls-15" x1="592.87" y1="1855.43" x2="588.82" y2="1882.18"/>
              <line class="cls-15" x1="606.12" y1="1857.45" x2="602.06" y2="1884.2"/>
              <line class="cls-15" x1="619.38" y1="1859.46" x2="615.3" y2="1886.22"/>
              <line class="cls-15" x1="699.29" y1="1861.98" x2="693.76" y2="1898.16"/>
              <line class="cls-15" x1="645.9" y1="1863.5" x2="641.83" y2="1890.25"/>
              <line class="cls-15" x1="659.15" y1="1865.52" x2="655.1" y2="1892.27"/>
              <line class="cls-15" x1="672.39" y1="1867.54" x2="668.32" y2="1894.29"/>
              <line class="cls-15" x1="685.63" y1="1869.55" x2="681.57" y2="1896.31"/>
            </g>
            <g>
              <line class="cls-15" x1="711.36" y1="1843.48" x2="747.56" y2="1848.99"/>
              <line class="cls-15" x1="721.43" y1="1777.37" x2="757.64" y2="1782.88"/>
              <line class="cls-15" x1="722.96" y1="1830.75" x2="749.72" y2="1834.83"/>
              <line class="cls-15" x1="724.98" y1="1817.5" x2="751.75" y2="1821.57"/>
              <line class="cls-15" x1="726.98" y1="1804.26" x2="753.76" y2="1808.34"/>
              <line class="cls-15" x1="729.02" y1="1791" x2="755.77" y2="1795.07"/>
              <line class="cls-15" x1="731.52" y1="1711.1" x2="767.72" y2="1716.62"/>
              <line class="cls-15" x1="733.05" y1="1764.48" x2="759.82" y2="1768.56"/>
              <line class="cls-15" x1="735.07" y1="1751.23" x2="761.83" y2="1755.31"/>
              <line class="cls-15" x1="737.08" y1="1737.98" x2="763.84" y2="1742.06"/>
              <line class="cls-15" x1="739.1" y1="1724.74" x2="765.86" y2="1728.82"/>
              <line class="cls-15" x1="741.65" y1="1644.57" x2="777.86" y2="1650.09"/>
              <line class="cls-15" x1="743.17" y1="1697.95" x2="769.95" y2="1702.03"/>
              <line class="cls-15" x1="745.19" y1="1684.71" x2="771.97" y2="1688.78"/>
              <line class="cls-15" x1="747.21" y1="1671.45" x2="773.99" y2="1675.53"/>
              <line class="cls-15" x1="749.23" y1="1658.2" x2="776" y2="1662.28"/>
              <line class="cls-15" x1="751.74" y1="1578.3" x2="787.95" y2="1583.82"/>
              <line class="cls-15" x1="753.28" y1="1631.68" x2="780.04" y2="1635.75"/>
              <line class="cls-15" x1="755.3" y1="1618.44" x2="782.06" y2="1622.51"/>
              <line class="cls-15" x1="757.31" y1="1605.18" x2="784.07" y2="1609.25"/>
              <line class="cls-15" x1="759.33" y1="1591.94" x2="786.1" y2="1596.01"/>
              <line class="cls-15" x1="761.88" y1="1511.77" x2="798.07" y2="1517.29"/>
              <line class="cls-15" x1="763.4" y1="1565.15" x2="790.18" y2="1569.23"/>
              <line class="cls-15" x1="765.42" y1="1551.9" x2="792.18" y2="1555.97"/>
              <line class="cls-15" x1="767.44" y1="1538.65" x2="794.21" y2="1542.72"/>
              <line class="cls-15" x1="769.46" y1="1525.41" x2="796.21" y2="1529.49"/>
              <line class="cls-15" x1="771.95" y1="1445.5" x2="808.18" y2="1451.02"/>
              <line class="cls-15" x1="773.5" y1="1498.89" x2="800.27" y2="1502.96"/>
              <line class="cls-15" x1="775.51" y1="1485.64" x2="802.28" y2="1489.71"/>
              <line class="cls-15" x1="777.54" y1="1472.4" x2="804.29" y2="1476.47"/>
              <line class="cls-15" x1="779.54" y1="1459.13" x2="806.32" y2="1463.21"/>
              <line class="cls-15" x1="782.09" y1="1378.98" x2="818.3" y2="1384.48"/>
              <line class="cls-15" x1="783.61" y1="1432.36" x2="810.4" y2="1436.43"/>
              <line class="cls-15" x1="785.65" y1="1419.11" x2="812.41" y2="1423.18"/>
              <line class="cls-15" x1="787.65" y1="1405.86" x2="814.44" y2="1409.93"/>
              <line class="cls-15" x1="789.68" y1="1392.61" x2="816.44" y2="1396.68"/>
              <line class="cls-15" x1="792.18" y1="1312.71" x2="828.41" y2="1318.23"/>
              <line class="cls-15" x1="793.72" y1="1366.09" x2="820.48" y2="1370.17"/>
              <line class="cls-15" x1="795.73" y1="1352.83" x2="822.51" y2="1356.91"/>
              <line class="cls-15" x1="797.75" y1="1339.59" x2="824.51" y2="1343.67"/>
              <line class="cls-15" x1="799.76" y1="1326.35" x2="826.54" y2="1330.43"/>
            </g>
          </g>
        </g>
      </g>
    </g>
  </g>
</svg>