<?xml version="1.0" encoding="UTF-8"?>
<svg xmlns="http://www.w3.org/2000/svg" xmlns:xlink="http://www.w3.org/1999/xlink" viewBox="0 0 3510.99 3672.43">
  <defs>
    <style>
      .cls-1 {
        fill: #eff1f4;
      }

      .cls-2 {
        fill: #c8ccd8;
      }

      .cls-2, .cls-3 {
        opacity: .63;
      }

      .cls-4 {
        fill: #c69c6d;
      }

      .cls-5 {
        fill: #fbc9c7;
      }

      .cls-6 {
        fill: #d0d9ef;
      }

      .cls-7, .cls-8 {
        fill: #e7ecf7;
      }

      .cls-9 {
        clip-path: url(#clippath-1);
      }

      .cls-10 {
        opacity: .88;
      }

      .cls-11 {
        isolation: isolate;
      }

      .cls-12 {
        fill: #fff;
        mix-blend-mode: soft-light;
        opacity: .9;
      }

      .cls-13 {
        fill: #b7a120;
      }

      .cls-14 {
        fill: #504506;
      }

      .cls-15 {
        fill: #a67c52;
      }

      .cls-16 {
        fill: none;
        stroke: #e8bf77;
        stroke-linecap: round;
        stroke-miterlimit: 10;
        stroke-width: 8.24px;
      }

      .cls-17 {
        fill: #ffaeaa;
      }

      .cls-3 {
        fill: #f4d62a;
      }

      .cls-18 {
        fill: #dd9197;
      }

      .cls-8, .cls-19 {
        opacity: .5;
      }

      .cls-20 {
        clip-path: url(#clippath-2);
      }

      .cls-21 {
        fill: #d4757d;
      }

      .cls-22 {
        fill: #ffffdf;
      }

      .cls-23 {
        fill: #fceda4;
      }

      .cls-24 {
        clip-path: url(#clippath);
      }
    </style>
    <clipPath id="clippath">
      <path class="cls-21" d="M3510.55,2431.03h.02s0-127.8,0-127.8l-72.26,53.64-1187.05-685.34c-60.5-34.93-159.85-34.72-220.79.46L69.23,2804.31.21,2746.39l-.21,137.88.09-.08c.96,22.23,15.93,44.23,45.05,61.04l1214.41,701.14c60.5,34.93,159.85,34.72,220.79-.46l1984.53-1145.77c32.79-18.93,48.01-44.29,45.68-69.11ZM1143.53,3344.9s-.01.01-.01.01c0,0-.01,0-.02,0-.06.04-.12.07-.18.11h0c-39.6,22.86-103.58,23-142.89.3l-433.87-250.49c-39.31-22.7-39.08-59.63.52-82.5h0c.06-.03.12-.07.18-.1,0,0,0,0,0,0,0,0,.02,0,.02,0,39.62-22.75,103.44-22.84,142.68-.19l98.09,56.63c4.21,2.29,8.26,4.55,12.09,6.76l213.88,123.48c5.75,3.32,11.48,6.71,17.15,10.13l92.65,53.49c39.25,22.66,39.08,59.5-.32,82.38Z"/>
    </clipPath>
    <clipPath id="clippath-1">
      <path class="cls-21" d="M1657.94,3306.48h.02s0-127.8,0-127.8l-72.26,53.64-800.68-461.56c-60.5-34.93-159.85-34.72-220.79.46l-144.32,120.08-69.02-57.92-.21,137.88.09-.08c.96,22.23,757.67,441.11,757.67,441.11,60.5,34.93,148.28,68.27,209.22,33.09l294.61-69.79c32.79-18.93,48.01-44.29,45.68-69.11ZM1143.53,3344.9s-.01.01-.01.01c0,0-.01,0-.02,0-.06.04-.12.07-.18.11h0c-39.6,22.86-103.58,23-142.89.3l-433.87-250.49c-39.31-22.7-39.08-59.63.52-82.5h0c.06-.03.12-.07.18-.1,0,0,0,0,0,0,0,0,.02,0,.02,0,39.62-22.75,103.44-22.84,142.68-.19l98.09,56.63c4.21,2.29,8.26,4.55,12.09,6.76l213.88,123.48c5.75,3.32,11.48,6.71,17.15,10.13l92.65,53.49c39.25,22.66,39.08,59.5-.32,82.38Z"/>
    </clipPath>
    <clipPath id="clippath-2">
      <path class="cls-17" d="M2030.65,1538.38L46.12,2684.15c-60.94,35.18-61.3,92.55-.8,127.47l1214.41,701.14c60.5,34.93,159.85,34.72,220.79-.46l1984.53-1145.77c60.94-35.18,61.3-92.55.8-127.47l-1214.41-701.14c-60.5-34.93-159.85-34.72-220.79.46ZM1034.23,3065.3c5.75,3.32,11.48,6.7,17.15,10.12l92.65,53.49c39.25,22.66,39.08,59.5-.32,82.38,0,0,0,.01,0,.01,0,0-.01,0-.02,0-.06.04-.12.07-.18.11h0c-39.6,22.86-103.58,23-142.89.3l-433.87-250.49c-39.32-22.7-39.08-59.63.52-82.5h0c.06-.03.12-.07.18-.1,0,0,0-.01,0-.01,0,0,.02,0,.02,0,39.62-22.75,103.44-22.84,142.68-.19l98.09,56.63c4.21,2.29,8.26,4.55,12.09,6.76l213.88,123.48Z"/>
    </clipPath>
  </defs>
  <g class="cls-11">
    <g id="Calque_2" data-name="Calque 2">
      <g id="Layer_1" data-name="Layer 1">
        <path class="cls-2" d="M1029.03,1759.16c177.49,102.47,176.44,269.22-2.34,372.44-178.78,103.22-467.59,103.83-645.08,1.35-177.49-102.47-176.44-269.22,2.34-372.44,178.78-103.22,467.59-103.83,645.08-1.35Z"/>
        <g>
          <g>
            <g class="cls-19">
              <path class="cls-7" d="M1144.1,1190.61c-39.53-37.12-83.1-68.16-129.39-93.13-69.09-37.28-111.82-109.81-111.82-188.32v-442.87c-208.35,145.87-395.3,0-395.3,0v443.53c0,78.48-42.75,150.89-111.75,188.28-45.71,24.76-88.77,55.44-127.91,92.05-242.28,226.61-242.82,594.23-1.2,821.09,241.62,226.86,633.9,227.07,876.18.45,242.28-226.61,242.82-594.23,1.2-821.09Z"/>
            </g>
            <path class="cls-8" d="M933.36,298.84h-.04c.42-33.85-21.59-67.68-66.16-93.41-88.74-51.23-233.13-50.93-322.52.68-46.43,26.81-68.86,62.18-67.27,97.16h0v93.2c-1.78,34.83,20.23,69.89,66.1,96.37,88.74,51.23,233.13,50.93,322.52-.68,42.74-24.68,65.12-56.61,67.17-88.82h.2v-104.5Z"/>
            <path class="cls-6" d="M703.65,539.13c-59.61,0-119.08-13.04-164.3-39.15-46.53-26.87-72.12-64.66-70.22-103.72v-92.82c-1.69-39.23,24.32-77.31,71.39-104.48,91.52-52.83,239.89-53.14,330.76-.68,42.39,24.47,66.93,56.92,69.97,92.12h.32s.04,8.44.04,8.44v112.74h-1.06c-5.17,33.4-29.89,64.31-70.43,87.72-45.97,26.54-106.29,39.83-166.46,39.83ZM706.98,175.38c-57.19,0-114.51,12.63-158.22,37.86-42.25,24.39-64.68,56.23-63.16,89.65v.37s0,93.62,0,93.62c-1.69,33.22,20.32,64.76,61.99,88.82,86.32,49.84,227.31,49.53,314.28-.68,38.72-22.35,61.11-51.55,63.07-82.21l.19-2.93v-92.6h-.15s.11-8.55.11-8.55c.4-32.24-21.64-62.85-62.04-86.18-42.95-24.79-99.44-37.18-156.06-37.18Z"/>
            <path class="cls-1" d="M708.68,1666.22h-.01c-125.36,0-243.6,28.43-332.97,80.02-46,26.56-81.76,57.7-106.31,92.57-24.36,34.61-36.71,71.34-36.71,109.17,0,37.49,12.14,73.82,36.08,107.98,24.13,34.42,59.32,65.13,104.59,91.27,87.87,50.73,204.58,78.67,328.63,78.67s243.56-28.42,332.94-80.02c46-26.56,81.76-57.7,106.31-92.57,24.36-34.61,36.71-71.34,36.71-109.17s-12.14-73.82-36.08-107.98c-24.13-34.42-59.32-65.13-104.59-91.27-87.87-50.73-204.56-78.67-328.59-78.67h0Z"/>
            <path class="cls-6" d="M1149.74,1184.6c-39.26-36.87-83.38-68.62-131.12-94.37-66.3-35.77-107.49-105.15-107.49-181.06v-453.96c-5.14,5.89-10.84,11.27-16.48,16.72v437.24c0,81.98,44.51,156.92,116.15,195.57,46.49,25.08,89.44,55.99,127.66,91.88,115.1,108.07,178.41,251.67,178.26,404.35-.15,152.88-63.88,296.62-179.45,404.72-238.78,223.34-626.78,223.15-864.91-.44-115.1-108.07-178.41-251.67-178.26-404.35.15-152.89,63.88-296.62,179.45-404.72,37.85-35.4,80.31-65.96,126.21-90.82,71.59-38.78,116.07-113.7,116.07-195.52v-436.31c-5.75-6.27-11.23-12.76-16.48-19.45v455.76c0,75.76-41.17,145.13-107.44,181.03-47.13,25.53-90.74,56.92-129.62,93.28-118.94,111.25-184.52,259.25-184.67,416.74-.15,157.28,65,305.16,183.46,416.38,118.39,111.16,275.89,172.43,443.48,172.51h.36c167.45,0,324.99-61.1,443.62-172.05,118.94-111.25,184.52-259.25,184.68-416.74.15-157.28-65.01-305.16-183.46-416.38Z"/>
            <g class="cls-10">
              <path class="cls-13" d="M1123.5,1209.88c-41.44-38.91-87.54-70.83-136.61-95.74-60.14-30.53-111.44-91.68-111.44-159.12v-293.02c1.73-26.09-14.52-52.43-48.88-72.27-65.73-37.95-172.69-37.73-238.9.5-34.56,19.95-51.14,46.31-49.8,72.35v293.51c0,67.06-53.65,127.86-113.44,158.23-48.8,24.79-94.67,56.5-135.97,95.12-230.9,215.97-231.42,566.33-1.14,782.54,230.27,216.21,604.13,216.4,835.04.43,230.9-215.97,231.42-566.33,1.14-782.54Z"/>
              <path class="cls-3" d="M826.58,589.34c65.73,37.95,65.34,99.7-.87,137.93-66.21,38.23-173.17,38.45-238.9.5-65.73-37.95-65.34-99.7.87-137.93,66.21-38.23,173.17-38.45,238.9-.5Z"/>
            </g>
            <rect class="cls-12" x="562.63" y="579.69" width="81.28" height="325.71" rx="40.64" ry="40.64"/>
            <g>
              <path class="cls-15" d="M869.88,392.94l9.39-292.34h-345.3l10.17,297.72h.02c1.41,22.82,17.11,45.34,47.18,62.7,63.4,36.6,166.57,36.39,230.43-.48,29.99-17.31,45.97-39.63,47.93-62.22h0v-.15c.15-1.74.19-3.48.17-5.23Z"/>
              <path class="cls-4" d="M829.62,29.04c67.4,38.91,67,102.24-.89,141.44-67.89,39.2-177.57,39.43-244.98.51-67.4-38.91-67-102.24.89-141.44,67.89-39.2,177.57-39.43,244.98-.51Z"/>
            </g>
            <path class="cls-6" d="M923.45,243.63c-10.2-14.42-24.54-27.8-42.7-39.54l-.64,19.56c29.18,21.33,45.02,47.23,45.02,74.26,0,28.56-17.6,55.92-49.91,78.14-4.2,2.93-8.65,5.73-13.35,8.45-86.98,50.22-227.96,50.51-314.28.68-4.12-2.37-8.06-4.84-11.79-7.38-32.56-22.01-50.3-49.33-50.3-77.97,0-27.12,15.85-53.14,45.09-74.74l-.68-19.6c-39.38,25.8-60.89,58.95-60.89,94.33,0,37.26,23.92,71.94,67.46,97.92.95.58,1.9,1.13,2.86,1.69,45.21,26.11,104.68,39.15,164.29,39.15s120.5-13.27,166.48-39.81c1.5-.87,3.01-1.75,4.47-2.64,43.27-26.33,67.03-61.08,67.03-98.23,0-19.04-6.24-37.38-18.17-54.28Z"/>
            <path class="cls-6" d="M877.08,241.78c-.72-1.03-1.46-2.04-2.25-3.05l-1.15,35.69c.7,3.4,1.05,6.84,1.05,10.3,0,4.62-.62,9.17-1.83,13.68-5.13,19.16-21.06,37.13-46.12,51.6-66.72,38.51-174.88,38.76-241.11.52-23.96-13.83-39.42-30.99-44.84-49.39-1.46-4.88-2.2-9.87-2.2-14.92,0-3.87.43-7.71,1.3-11.52l-1.2-34.89c-10.98,14.3-16.75,30.04-16.75,46.4,0,17.91,6.92,35.05,20.05,50.32v.02c8.98,10.45,20.83,20.03,35.32,28.39,35.24,20.36,81.58,30.52,128.05,30.52s93.9-10.34,129.71-31.03c15.15-8.74,27.45-18.75,36.64-29.69,12.86-15.25,19.64-32.27,19.64-50.01,0-15.08-4.9-29.61-14.3-42.94Z"/>
            <g>
              <circle class="cls-3" cx="507.85" cy="1262.37" r="31.04" transform="translate(-743.88 728.85) rotate(-45)"/>
              <circle class="cls-3" cx="562.63" cy="1448.96" r="31.04" transform="translate(-927.61 1890.79) rotate(-85.29)"/>
              <circle class="cls-3" cx="383.06" cy="1391.33" r="31.04" transform="translate(-668.11 402.61) rotate(-31.36)"/>
            </g>
            <g>
              <path class="cls-14" d="M539.07,1616.02c42.83,6.08,74.72,40.24,74.87,83.83.14,42.76-32.24,75.59-76.03,68.64-43.87-6.97-74.32-45.53-74.74-89.32-.42-43.72,32.81-70.64,75.67-63.18.09.01.14.02.23.04ZM536.04,1636.07c-27.67-4.3-37.76,24.61-37.57,47.13.24,27.82,12.87,60.3,41.98,65.17,26.65,4.46,38.46-27.16,38.2-49.46-.3-25.99-13.8-57.1-42.38-62.81-.09-.01-.14-.02-.23-.04Z"/>
              <path class="cls-14" d="M636.64,1646.51c0-13.75-.47-19.37-.94-24.06,4.68-1.8,22.72-3.67,28.34-3.45,4.22.16,5.15,1.35,5.15,15.33v112.1c0,11.42.47,24.02.94,30.79-5.39.99-26.71.68-30.22.47-2.34-.14-3.28-.9-3.28-3.23,0-42.65,0-85.3,0-127.94Z"/>
              <path class="cls-14" d="M730.15,1771.96c0,4.2-1.94,5.36-7.97,6.2-5.11.71-15.01,1.09-25.32,1,.23-9.55.7-23.07.7-36.82v-39.85c0-14.45-.47-21.68-.94-26.11,6.1-1.58,23.21-3.05,28.6-3.14,3.98-.07,4.92,1.07,4.92,14.59v84.13ZM714.68,1622.57c9.85-.07,15.94,6.99,15.94,16.55,0,10.02-7.27,17.89-17.11,17.95-7.74.05-16.65-4.45-16.65-16.8s11.02-17.65,17.59-17.7c.09,0,.14,0,.23,0Z"/>
              <path class="cls-14" d="M773.51,1669.99c3.75-.23,5.62,2.21,6.79,5.16,7.25,21.36,14,42.83,20.59,64.4,8.26-24.5,16.66-48.98,23.83-73.83,7.7-.82,14.06-.06,20.3,1.84,5.5,1.68,3.96,7.66.93,15.96-10.49,28.16-22.04,55.92-32.67,84.03-1.4,3.63-3.77,5.09-7.71,6.31-6.66,2.06-15.9,3.65-21.05,4.01-8.8-24.33-17.96-48.44-27.4-72.53-3.52-8.93-7.03-18.57-11.48-27.97,6.33-3.48,20.62-6.95,27.64-7.37.09,0,.14,0,.23-.01Z"/>
              <path class="cls-14" d="M945.41,1726.74c.23,11.37-9.46,24.45-13.61,27.13-3.2,2.07-13.81,6.17-20.8,7.81-30.64,7.22-54.28-15.02-53.64-44.71.61-27.77,22.1-57.7,50.4-63.29,21.9-4.33,42.34,9.61,42.03,32.7-.05,3.45-.53,6.2-.92,7.9-.77,3.29-8.86,8.68-18.91,13.59-5.52,2.7-30.3,7.68-40.74,8.95,1.62,18.84,16.24,22.44,29.89,19.79,11.33-2.2,21.93-7.98,25.85-10.47.18.24.28.36.46.6ZM905.44,1672.52c-7.41,1.34-15.77,9.97-16,26.55,6.03-.3,22.25-3.45,28.26-5.08,1.39-.27,2.31-2.78,2.31-5.34,0-10.25-3.92-18.07-14.35-16.18-.09.02-.14.03-.23.04Z"/>
              <path class="cls-14" d="M644.95,1810.35c42.84,1.8,75.24,33.46,75.24,76.66,0,43.13-31.95,78.49-76.41,75.92-44.07-2.54-75.2-38.78-75.49-82.1-.29-43.98,32.74-73.66,76.43-70.49.09,0,.14,0,.23.01ZM641.91,1830.69c-27.89-.76-38.03,26.94-37.9,50.75.14,27.05,13.08,59.26,42.35,61.13,26.82,1.71,38.58-30.2,38.43-53.12-.16-25.42-13.77-55.92-42.65-58.74-.09,0-.14,0-.23-.01Z"/>
              <path class="cls-14" d="M775.73,1953.45c0,4.2-1.94,5.44-7.96,6.53-5.11.92-14.99,1.7-25.3,2.04.23-9.56.7-23.1.7-36.85v-39.85c0-14.45-.47-21.66-.94-26.07,6.09-1.83,23.2-4,28.58-4.31,3.98-.23,4.92.87,4.92,14.39v84.13ZM760.28,1804.69c9.84-.48,15.92,6.34,15.92,15.9,0,10.02-7.26,18.19-17.1,18.65-7.73.37-16.64-3.77-16.64-16.12s11.02-18.1,17.57-18.42c.09,0,.14,0,.23-.01Z"/>
              <path class="cls-14" d="M803.58,1827.86c0-13.75-.47-19.3-.94-23.92,4.68-2.5,22.66-7.07,28.27-7.7,4.2-.47,5.13.58,5.13,14.56v112.1c0,11.42.47,23.95.93,30.65-5.37,1.8-26.62,4.68-30.12,5-2.34.21-3.27-.41-3.27-2.74v-127.94Z"/>
            </g>
          </g>
          <g>
            <g>
              <path class="cls-21" d="M3510.55,2431.03h.02s0-127.8,0-127.8l-72.26,53.64-1187.05-685.34c-60.5-34.93-159.85-34.72-220.79.46L69.23,2804.31.21,2746.39l-.21,137.88.09-.08c.96,22.23,15.93,44.23,45.05,61.04l1214.41,701.14c60.5,34.93,159.85,34.72,220.79-.46l1984.53-1145.77c32.79-18.93,48.01-44.29,45.68-69.11ZM1143.53,3344.9s-.01.01-.01.01c0,0-.01,0-.02,0-.06.04-.12.07-.18.11h0c-39.6,22.86-103.58,23-142.89.3l-433.87-250.49c-39.31-22.7-39.08-59.63.52-82.5h0c.06-.03.12-.07.18-.1,0,0,0,0,0,0,0,0,.02,0,.02,0,39.62-22.75,103.44-22.84,142.68-.19l98.09,56.63c4.21,2.29,8.26,4.55,12.09,6.76l213.88,123.48c5.75,3.32,11.48,6.71,17.15,10.13l92.65,53.49c39.25,22.66,39.08,59.5-.32,82.38Z"/>
              <g class="cls-24">
                <g>
                  <polygon class="cls-18" points="267.3 2940.5 267.3 3141.01 325.19 3173.89 325.19 2973.87 267.3 2940.5"/>
                  <polygon class="cls-18" points="557.3 3107.95 557.3 3308.46 615.2 3341.34 615.2 3141.32 557.3 3107.95"/>
                  <polygon class="cls-18" points="1020.46 3375.62 1020.46 3576.13 1078.35 3609.01 1078.35 3408.99 1020.46 3375.62"/>
                  <polygon class="cls-18" points="1136.25 3442.48 1136.25 3642.98 1194.14 3675.86 1194.14 3475.84 1136.25 3442.48"/>
                  <polygon class="cls-18" points="210.52 2907.01 210.52 3107.58 94.15 3040.48 94.15 2840.15 210.52 2907.01"/>
                  <polygon class="cls-18" points="848.62 3274.72 848.62 3475.29 732.24 3408.2 732.24 3207.87 848.62 3274.72"/>
                </g>
              </g>
            </g>
            <g>
              <path class="cls-21" d="M1657.94,3306.48h.02s0-127.8,0-127.8l-72.26,53.64-800.68-461.56c-60.5-34.93-159.85-34.72-220.79.46l-144.32,120.08-69.02-57.92-.21,137.88.09-.08c.96,22.23,757.67,441.11,757.67,441.11,60.5,34.93,148.28,68.27,209.22,33.09l294.61-69.79c32.79-18.93,48.01-44.29,45.68-69.11ZM1143.53,3344.9s-.01.01-.01.01c0,0-.01,0-.02,0-.06.04-.12.07-.18.11h0c-39.6,22.86-103.58,23-142.89.3l-433.87-250.49c-39.31-22.7-39.08-59.63.52-82.5h0c.06-.03.12-.07.18-.1,0,0,0,0,0,0,0,0,.02,0,.02,0,39.62-22.75,103.44-22.84,142.68-.19l98.09,56.63c4.21,2.29,8.26,4.55,12.09,6.76l213.88,123.48c5.75,3.32,11.48,6.71,17.15,10.13l92.65,53.49c39.25,22.66,39.08,59.5-.32,82.38Z"/>
              <g class="cls-9">
                <g>
                  <polygon class="cls-18" points="830.92 2949.61 830.92 3150.12 888.82 3183 888.82 2982.98 830.92 2949.61"/>
                  <polygon class="cls-18" points="1122.24 3116.39 1122.24 3316.96 1005.86 3249.86 1005.86 3049.53 1122.24 3116.39"/>
                </g>
              </g>
            </g>
            <g>
              <path class="cls-17" d="M2030.65,1538.38L46.12,2684.15c-60.94,35.18-61.3,92.55-.8,127.47l1214.41,701.14c60.5,34.93,159.85,34.72,220.79-.46l1984.53-1145.77c60.94-35.18,61.3-92.55.8-127.47l-1214.41-701.14c-60.5-34.93-159.85-34.72-220.79.46ZM1034.23,3065.3c5.75,3.32,11.48,6.7,17.15,10.12l92.65,53.49c39.25,22.66,39.08,59.5-.32,82.38,0,0,0,.01,0,.01,0,0-.01,0-.02,0-.06.04-.12.07-.18.11h0c-39.6,22.86-103.58,23-142.89.3l-433.87-250.49c-39.32-22.7-39.08-59.63.52-82.5h0c.06-.03.12-.07.18-.1,0,0,0-.01,0-.01,0,0,.02,0,.02,0,39.62-22.75,103.44-22.84,142.68-.19l98.09,56.63c4.21,2.29,8.26,4.55,12.09,6.76l213.88,123.48Z"/>
              <g class="cls-20">
                <g>
                  <polygon class="cls-5" points="92.89 2840.15 2408.97 1502.78 2525.7 1569.88 210.52 2907.01 92.89 2840.15"/>
                  <polygon class="cls-5" points="267.3 2940.5 2582.66 1603.07 2640.55 1636.49 325.19 2973.87 267.3 2940.5"/>
                  <polygon class="cls-5" points="557.3 3107.95 2872.66 1770.52 2930.55 1803.94 615.2 3141.32 557.3 3107.95"/>
                  <polygon class="cls-5" points="1020.46 3375.62 3335.82 2038.19 3393.71 2071.61 1078.35 3408.99 1020.46 3375.62"/>
                  <polygon class="cls-5" points="1136.25 3442.48 3451.61 2105.04 3509.5 2138.47 1194.14 3475.84 1136.25 3442.48"/>
                  <polygon class="cls-5" points="730.98 3207.87 3047.07 1870.5 3163.8 1937.6 848.62 3274.72 730.98 3207.87"/>
                </g>
              </g>
            </g>
            <g>
              <g>
                <path class="cls-23" d="M3010.9,1835.44l-681.13-393.25c-15.94-9.2-30.5-9.79-41.68-3.36v-.02l-812.89,469.24,763.32,877.28,812.27-468.91c1.32-.65,2.6-1.4,3.83-2.24l.08-.05h0c12.28-8.41,19.95-25.9,19.95-50.22v-306.66c0-46.95-28.54-101.49-63.76-121.82Z"/>
                <path class="cls-22" d="M2196.62,2782.12l-681.13-393.25c-35.21-20.33-63.76-74.87-63.76-121.82v-306.66c0-46.95,28.54-68.53,63.76-48.2l681.13,393.25c35.21,20.33,63.76,74.87,63.76,121.82v306.66c0,46.95-28.54,68.53-63.76,48.2Z"/>
              </g>
              <path class="cls-23" d="M1891.59,2952.87v-112.23l-86.12,46.84-618.3-356.98c-35.21-20.33-96.72-17.78-137.37,5.69l-218.23,126-80.98-48.76v121.42l.03-.02c.18,12.75,7.97,24.9,23.74,34.01l681.13,393.25c35.21,20.33,96.72,17.78,137.37-5.69l265.58-153.33c24.79-14.31,36.08-33.1,33.15-50.19Z"/>
              <path class="cls-22" d="M774.36,2647.09l681.13,393.25c35.21,20.33,96.72,17.78,137.37-5.69l265.58-153.33c40.66-23.47,45.07-58.98,9.86-79.31l-681.13-393.25c-35.21-20.33-96.72-17.78-137.37,5.69l-265.58,153.33c-40.66,23.47-45.07,58.98-9.86,79.31Z"/>
              <g>
                <path class="cls-23" d="M2131.6,2342.71l-681.13-393.25c-15.94-9.2-30.5-9.79-41.68-3.35v-.02l-105.27,61.79,83.19,42.06v254.38c0,46.95,28.54,101.49,63.76,121.82l599.63,346.2-20.73-8.12,43.36,117.29,98.76-57.81c1.32-.65,2.6-1.4,3.83-2.24l.08-.05h0c12.28-8.41,19.95-25.9,19.95-50.22v-306.66c0-46.95-28.54-101.49-63.76-121.82Z"/>
                <path class="cls-22" d="M2027.59,2880.43l-681.13-393.25c-35.21-20.33-63.76-74.87-63.76-121.82v-306.66c0-46.95,28.54-68.53,63.76-48.2l681.13,393.25c35.21,20.33,63.76,74.87,63.76,121.82v306.66c0,46.95-28.54,68.53-63.76,48.2Z"/>
              </g>
            </g>
            <g>
              <path class="cls-23" d="M774.09,2571.81s592.98,341.84,579.88,333.74c-.17-.11,57.29,40.89,108.7,3.62,47.49-34.43,64.04-103.35,64.04-103.35l-578.94-334.28-173.68,100.28Z"/>
              <path class="cls-23" d="M1472.68,2782.08l-66.03,40.74s-30.83,21.64-69.87-29.75c-39.05-51.39-46-95.84-19.22-129.12,26.78-33.28,84.89,3.45,100.49,26.36,15.6,22.91,48.83,56.38,54.63,91.77Z"/>
              <path class="cls-22" d="M1421.58,2692.2l-38.1,27.78s58.08,55.89,23.17,102.84l66.03-40.74s-4.82-43.65-51.1-89.88Z"/>
              <g>
                <path class="cls-16" d="M1413.75,2699.32c23.04,14.49,40.88,47.17,39.84,72.98-1.3,32.26-25.7,43.73-54.5,25.62-36-22.65-63.87-73.7-62.24-114.03.53-13.17,3.52-24.13,8.46-32.62"/>
                <path class="cls-16" d="M1416.49,2770.18c-29.53-25.47-50.78-69.08-49.35-104.44.58-14.49,4.15-26.29,10-35.09"/>
                <path class="cls-16" d="M1444.04,2681.17c23.04,14.49,40.88,47.17,39.84,72.98-.91,22.57-13.13,34.97-30.25,34.17"/>
              </g>
              <path class="cls-22" d="M1633.05,2809.73l-177.91,103.84s54.04-30.56,18.96-136.48c0,0-73.37-160.32-149.05-119.39l184.38-105.09s75.01-5.42,117.76,81.15c42.75,86.57,39.77,134.08,5.86,175.97Z"/>
              <line class="cls-16" x1="1308.79" y1="2679.77" x2="947.76" y2="2471.53"/>
              <path class="cls-16" d="M1492.72,2562.15c15.62-15.07,41.06-15.44,69.18,2.26,56.25,35.38,99.79,115.15,97.26,178.17-1.74,43.19-20.43,71.11-48.55,80.24"/>
              <path class="cls-16" d="M1379.98,2720.15c23.04,14.49,40.88,47.17,39.84,72.98-1.3,32.26-25.7,43.73-54.5,25.62-36-22.65-63.87-73.7-62.24-114.03,2.03-50.41,40.15-68.33,85.15-40.03,56.25,35.38,99.79,115.15,97.26,178.17-3.17,78.77-62.74,106.77-133.05,62.54l-578.35-333.59"/>
              <path class="cls-16" d="M1345.31,2651.27c13.96-24,43.45-28.32,76.69-7.41,56.25,35.38,99.79,115.15,97.26,178.17-3.17,78.77-62.74,106.77-133.05,62.54l-578.35-333.59"/>
              <path class="cls-16" d="M1475.66,2887.31c-17.93-.84-38.07-7.61-59.17-20.89l-578.35-333.59"/>
              <path class="cls-16" d="M1377.13,2630.65c14.51-21.81,43.09-25.11,75.16-4.94,56.25,35.38,99.79,115.15,97.26,178.17-1.72,42.71-20.02,70.49-47.61,79.93"/>
              <line class="cls-16" x1="1329.87" y1="2785.29" x2="865.66" y2="2517.54"/>
              <path class="cls-16" d="M1482.03,2868.51c-12.1-3.36-24.87-9.1-38.02-17.38l-43.77-25.25"/>
              <path class="cls-16" d="M1406.65,2612.59c15.04-19.28,42.5-21.45,73.16-2.17,56.25,35.38,99.79,115.15,97.26,178.17-1.78,44.11-21.23,72.29-50.36,80.8"/>
              <line class="cls-16" x1="1308.74" y1="2742.06" x2="893.39" y2="2502.48"/>
              <path class="cls-16" d="M1483.92,2843.08c-4.02-2.09-8.08-4.42-12.18-7l-53.69-30.97"/>
              <path class="cls-16" d="M1434.61,2597.24c15.08-19.02,42.43-21.07,72.93-1.88,56.25,35.38,99.79,115.15,97.26,178.17-1.78,44.19-21.31,72.4-50.52,80.85"/>
              <line class="cls-16" x1="1301.17" y1="2702.07" x2="923.68" y2="2484.33"/>
              <line class="cls-16" x1="1482.03" y1="2806.39" x2="1450.77" y2="2788.36"/>
              <path class="cls-16" d="M1462.67,2582.15c14.51-21.81,43.09-25.11,75.16-4.94,56.25,35.38,99.79,115.15,97.26,178.17-1.82,45.17-22.18,73.65-52.48,81.38"/>
            </g>
          </g>
        </g>
      </g>
    </g>
  </g>
</svg>