<?xml version="1.0" encoding="UTF-8"?>
<svg id="Capa_1" data-name="Capa 1" xmlns="http://www.w3.org/2000/svg" viewBox="0 0 1879.08 1855.43">
  <defs>
    <style>
      .cls-1 {
        fill: #9ab8e2;
      }

      .cls-2 {
        fill: #7faddd;
      }

      .cls-3 {
        fill: #5e6388;
      }

      .cls-4 {
        fill: #484b6c;
      }

      .cls-5 {
        fill: #363953;
      }

      .cls-6 {
        fill: #4c5372;
      }

      .cls-7 {
        fill: #6b7396;
      }
    </style>
  </defs>
  <path class="cls-5" d="M824.9,1790.39c-1.17-.33-2.33-.74-3.46-1.24-1.13-.49-2.24-1.07-3.31-1.72l-600.45-366.33c-2.18-1.33-4.09-2.89-5.72-4.62-1.63-1.73-2.99-3.64-4.07-5.66-.54-1.01-1.02-2.05-1.42-3.11-1.21-3.18-1.81-6.55-1.8-9.91v47.83c0,18.66,9.71,35.98,25.64,45.7,259.7,158.51,575.78,355.52,580.23,358.38,11.79,6.26,21.53,5.7,21.53,5.7v-64.01c-2.41-.02-4.82-.36-7.16-1.02Z"/>
  <path class="cls-4" d="M1865.77,1184.4l-1019.66,603.22c-2.16,1.28-4.45,2.23-6.81,2.86-2.36.63-4.78.94-7.2.92-.01,0-.02,0-.03,0v64.01s8.76,0,25.11-7.79c3.66-2.16,853.67-504.29,1000.46-591,13.33-7.87,21.46-22.18,21.45-37.67l-.04-56.9c-.33,8.71-4.73,17.29-13.27,22.34Z"/>
  <path class="cls-5" d="M173.37,1362.84c-1.05-2.22-1.86-4.63-2.36-7.19L35.98,669.32c-.32-1.64-.51-3.29-.58-4.92-.18-4.7.73-9.3,2.52-13.53l-35.75-28.48s-4.43,16.22-.65,34.79c2.47,12.13,137.42,673.7,137.42,673.7,1.43,7,5.31,13.25,10.96,17.62l29.85,23.14c-.89-.84-1.73-1.74-2.51-2.7-1.51-1.84-2.82-3.89-3.87-6.11Z"/>
  <path class="cls-7" d="M38.13,650.29c1.3-2.92,3.04-5.64,5.18-8.06,1.07-1.21,2.23-2.35,3.49-3.39,1.26-1.05,2.61-2.01,4.05-2.86L866.42,149.1l210.09-125.42c6.33-3.78,13.63-3.56,19.46-.49l-36.77-19.06c-11.33-5.87-24.88-5.48-35.85,1.05,0,0-987.08,587.4-1001.69,596.09-14.6,8.69-19.49,21.12-19.49,21.12l35.75,28.48c.08-.19.12-.39.21-.58Z"/>
  <path class="cls-6" d="M1076.51,23.69l-210.09,125.42-36.76,101.25,264.37-154.54,128.89,654.31-687,410.05c-3.24,10.27-6.39,20.28-9.44,29.98l707.79-423.09c.31-.19.65-.32.97-.49l.22-.13c7.76-4.64,11.77-13.65,10.03-22.53L1106.23,36.93c-1.24-6.27-5.2-11.07-10.26-13.73-5.83-3.07-13.13-3.29-19.46.49Z"/>
  <path class="cls-2" d="M1094.03,95.82l-264.37,154.54c-107.07,301.54-202.39,605.44-294.12,910.05l.38-.22,687-410.05-128.89-654.31Z"/>
  <path class="cls-1" d="M72.36,693.03l133.49,664.16,329.69-196.78h0c91.73-304.61,187.04-608.51,294.12-910.05L72.36,693.03Z"/>
  <path class="cls-4" d="M569.06,388.96s0,0,.01,0c11.89-7.28,21.53-24.05,21.53-37.44,0-9.69-5.06-14.9-12.35-14.32-.09,0-.19.02-.28.02l-.12.06c-.1.06-.19.12-.29.18-11.76,7.38-21.24,23.98-21.24,37.26,0,9.85,5.25,15.04,12.74,14.24Z"/>
  <path class="cls-5" d="M577.97,337.21c7.44-.74,12.63,4.49,12.63,14.3,0,13.4-9.64,30.16-21.53,37.44,0,0,0,0-.01,0-.04.02-.07.03-.11.05.27-.03.57-.13.85-.17.72-.11,1.43-.22,2.18-.43,1.13-.32,2.29-.75,3.49-1.33,0,0,.02,0,.03-.01.76-.37,1.53-.79,2.3-1.26.01,0,.03-.01.04-.02,11.89-7.28,21.53-24.05,21.53-37.44,0-.84-.04-1.64-.11-2.41-.02-.21-.06-.39-.09-.6-.07-.55-.13-1.1-.24-1.61-.07-.33-.17-.62-.25-.93-.09-.36-.17-.73-.28-1.07-.16-.47-.35-.9-.54-1.34-.06-.14-.11-.3-.18-.44-3.25-6.69-10.85-8.13-19.73-2.75Z"/>
  <path class="cls-3" d="M1879.04,1160.17c0-.3-.03-.59-.05-.89-.53-8.32-4.77-16.43-12.84-21.39l-603.74-370.66c-8.31-5.1-18.66-5.29-27.17-.66-.32.17-.65.3-.97.49l-707.79,423.09c3.05-9.7,6.2-19.7,9.44-29.98l-.38.22-329.69,196.78L72.36,693.03,829.65,250.35l36.76-101.25L50.85,635.97c-1.44.86-2.79,1.82-4.05,2.86-1.26,1.05-2.42,2.18-3.49,3.39-2.13,2.42-3.87,5.14-5.18,8.06-.08.19-.13.39-.21.58-1.79,4.23-2.7,8.83-2.52,13.53.06,1.64.25,3.28.58,4.92l135.02,686.32c.5,2.56,1.31,4.97,2.36,7.19,1.05,2.22,2.36,4.27,3.87,6.11,1,1.22,2.13,2.32,3.3,3.36.31.28.63.54.95.81,1.2.98,2.44,1.9,3.76,2.69,1.01.59,2.05,1.13,3.11,1.61,2.13.95,4.38,1.66,6.68,2.1,6.91,1.32,14.38.26,21.11-3.77l.81-.48c.32-.21.6-.45.93-.64l308.55-184.35,59.6,7.35,14.3-8.58c4.21-2.52,10.95-2.54,15.05-.04l19.16,11.65c1.54.94,2.49,2.1,2.86,3.31l20.61,2.54,3.67-2.2c4.14-2.48,10.84-2.46,14.94.03l9.2,5.59,13.11,1.62-17.04-10.36c-4.11-2.5-4.09-6.53.07-9.02l49.11-29.39c4.13-2.47,10.83-2.45,14.94.06l45.03,27.44c4.11,2.5,4.08,6.54-.05,9.01l-32.82,19.58,18.49,2.28c3.98-1.2,8.88-.85,12.18,1.15l.72.44,13.12,1.62-8.55-5.21c-4.11-2.5-4.09-6.54.05-9.01l49.15-29.3c4.15-2.48,10.87-2.45,14.98.06l45.05,27.49c4.12,2.51,4.08,6.55-.08,9.02l-26.98,16.03,22.78,2.81c-.11-1.72.89-3.45,3.09-4.76l49.2-29.21c4.16-2.47,10.85-2.42,14.97.09l45.06,27.52c4.11,2.51,4.1,6.55-.06,9.01l-15.66,9.27,18.23,2.25,45.76-27.06c4.17-2.47,10.88-2.41,15.01.11l45.08,27.56c4.13,2.52,4.1,6.55-.08,9.01l-4.81,2.83,13.54,1.67,229.43-135.19c4.15-2.45,10.87-2.37,15,.18l45.22,27.83c4.14,2.55,4.12,6.59-.03,9.03l-188.4,110.64,59.09,7.29,19.2-11.3c11.2-6.59,24.89-6.72,35.85-.33l40.15,23.38,242.51,29.92-780.35,461.65,1019.66-603.22c8.54-5.05,12.94-13.63,13.27-22.34.02-.63.02-1.26,0-1.89Z"/>
  <path class="cls-7" d="M1383.94,1296.06l73.66,42.89s0,0,0,0c1.4.82,2.62,1.78,3.75,2.81.19.18.4.34.58.53,1.06,1.04,1.98,2.16,2.77,3.35.11.17.21.34.31.5.71,1.13,1.27,2.32,1.75,3.55.23.58.39,1.16.56,1.76.19.63.36,1.25.49,1.89.16.78.28,1.57.36,2.36.03.36.05.71.06,1.07.44,8.1-3.3,16.49-11.37,21.23l-231.03,135.93c-10.72,6.31-23.84,6.43-34.33.32l-119.59-69.63c-7.2-4.19-10.09-12.03-8.84-19.38.15-.93.37-1.85.65-2.76,0,0,0-.02,0-.03.45-1.4,1.06-2.76,1.83-4.05.06-.1.13-.19.19-.29.77-1.23,1.67-2.4,2.73-3.47.08-.08.17-.15.25-.22,1.12-1.08,2.36-2.07,3.79-2.91l216.2-127.2-59.09-7.29-182.64,107.26c-4.15,2.44-10.87,2.4-14.99-.11l-44.99-27.39c-4.12-2.51-4.07-6.52.08-8.97l141.32-83.27-13.54-1.67-44.45,26.2c-4.16,2.45-10.87,2.41-15-.11l-45.04-27.49c-4.13-2.52-4.1-6.55.06-9.01l3.46-2.05-18.23-2.25-33.58,19.87c-4.16,2.46-10.86,2.41-14.97-.1l-45.03-27.45c-1.94-1.18-2.93-2.71-3.03-4.24l-22.78-2.81-22.21,13.2c-4.14,2.46-10.83,2.43-14.95-.08l-36.46-22.21-13.12-1.62,44.29,26.97c4.12,2.51,4.1,6.52-.07,9l-49.18,29.22c-4.14,2.46-10.83,2.44-14.94-.06l-44.97-27.33c-4.1-2.49-4.08-6.52.06-8.99l49.14-29.29c.82-.49,1.8-.8,2.77-1.1l-18.49-2.28-16.33,9.74c-4.16,2.48-10.84,2.45-14.95-.04l-27.96-17-13.11-1.62,35.79,21.77c4.11,2.5,4.07,6.53-.07,9l-49.15,29.31c-4.15,2.48-10.84,2.46-14.94-.03l-44.95-27.29c-4.1-2.49-4.08-6.52.07-9l45.44-27.19-20.61-2.54c.61,2.02-.4,4.2-3.03,5.77l-49.84,29.85c-4.2,2.51-10.95,2.53-15.05.04l-19.14-11.61c-4.1-2.49-4.03-6.56.17-9.07l35.52-21.31-59.6-7.35-308.55,184.35c-.33.2-.61.44-.93.64-1.79,1.17-3.43,2.47-4.83,3.93-1.65,1.72-3.02,3.61-4.12,5.62-1.65,3.01-2.69,6.29-3.12,9.64-.14,1.11-.22,2.24-.22,3.36,0,0,0,0,0,0-.01,3.37.58,6.74,1.8,9.91.41,1.06.88,2.1,1.42,3.11,1.08,2.02,2.44,3.92,4.07,5.66,1.63,1.73,3.54,3.29,5.72,4.62l600.45,366.33c1.07.65,2.18,1.23,3.31,1.72,1.13.49,2.29.9,3.46,1.24,2.34.66,4.75,1,7.16,1.02.01,0,.02,0,.03,0,2.42.02,4.84-.29,7.2-.92,2.36-.63,4.65-1.58,6.81-2.86l780.35-461.65-242.51-29.92Z"/>
  <path class="cls-4" d="M1457.6,1368.42l-113.8-66.26c-10.96-6.38-24.66-6.25-35.85.33l-235.4,138.5c-.99.58-1.78,1.34-2.62,2.04-5.6-4.39-7.87-11.29-6.83-17.8-1.25,7.34,1.64,15.18,8.84,19.38l119.59,69.63c10.49,6.11,23.61,5.99,34.33-.32l231.03-135.93c8.07-4.75,11.8-13.14,11.37-21.23.26,5.64-1.53,11.43-5.4,16.03-1.48-1.65-3.17-3.16-5.25-4.37Z"/>
  <path class="cls-5" d="M1307.94,1273.01l-235.4,138.5c-1.43.84-2.67,1.83-3.79,2.91-.08.08-.17.14-.25.22-1.07,1.07-1.96,2.24-2.73,3.47-.06.1-.13.19-.19.29-.77,1.29-1.38,2.65-1.83,4.05,0,0,0,.02,0,.03-.28.91-.5,1.83-.65,2.76-1.04,6.51,1.23,13.41,6.83,17.8.84-.71,1.63-1.46,2.62-2.04l235.4-138.5c11.2-6.59,24.89-6.71,35.85-.33l113.8,66.26c2.07,1.21,3.77,2.72,5.25,4.37,3.88-4.6,5.66-10.39,5.4-16.03-.02-.36-.03-.72-.06-1.07-.07-.79-.2-1.58-.36-2.36-.13-.64-.31-1.26-.49-1.89-.17-.59-.34-1.18-.56-1.76-.48-1.22-1.04-2.42-1.75-3.55-.11-.17-.2-.34-.31-.5-.8-1.19-1.72-2.31-2.77-3.35-.19-.18-.39-.35-.58-.53-1.13-1.03-2.35-2-3.75-2.81,0,0,0,0,0,0l-73.66-42.89-40.15-23.38c-10.96-6.38-24.66-6.25-35.85.33Z"/>
  <path class="cls-5" d="M1192.62,842.86l19.3,11.93c4.13,2.55,10.91,2.6,15.12.08l49.84-29.85c4.22-2.53,4.25-6.65.11-9.21l-19.32-11.96c-4.14-2.56-10.91-2.61-15.12-.07l-49.82,29.89c-4.21,2.52-4.25,6.64-.11,9.2Z"/>
  <path class="cls-5" d="M1122.21,885.08l19.28,11.89c4.13,2.55,10.91,2.58,15.12.06l49.85-29.85c4.2-2.51,4.24-6.64.11-9.19l-19.3-11.93c-4.14-2.55-10.91-2.58-15.11-.07l-49.83,29.89c-4.21,2.53-4.26,6.64-.13,9.19Z"/>
  <path class="cls-5" d="M1050.73,927.94l19.27,11.86c4.12,2.54,10.89,2.57,15.1.05l49.84-29.85c4.21-2.52,4.26-6.64.13-9.19l-19.28-11.89c-4.13-2.55-10.9-2.57-15.11-.05l-49.82,29.89c-4.21,2.52-4.25,6.63-.13,9.17Z"/>
  <path class="cls-5" d="M979.24,970.81l19.25,11.82c4.12,2.53,10.9,2.55,15.09.04l49.85-29.85c4.22-2.53,4.26-6.64.13-9.17l-19.27-11.86c-4.13-2.54-10.89-2.56-15.1-.03l-49.83,29.89c-4.2,2.52-4.25,6.62-.13,9.16Z"/>
  <path class="cls-5" d="M907.76,1013.67l19.23,11.79c4.12,2.52,10.88,2.55,15.09.02l49.84-29.85c4.21-2.52,4.25-6.62.13-9.15l-19.25-11.82c-4.12-2.53-10.88-2.55-15.09-.03l-49.82,29.89c-4.21,2.53-4.26,6.62-.14,9.15Z"/>
  <path class="cls-5" d="M836.29,1056.53l19.21,11.75c4.11,2.52,10.87,2.53,15.07.02l49.85-29.85c4.22-2.53,4.26-6.62.15-9.15l-19.23-11.79c-4.12-2.52-10.87-2.54-15.09,0l-49.83,29.89c-4.2,2.52-4.25,6.61-.13,9.12Z"/>
  <path class="cls-5" d="M764.8,1099.4l19.2,11.72c4.11,2.51,10.87,2.52,15.06,0l49.86-29.86c4.21-2.52,4.27-6.62.15-9.13l-19.21-11.75c-4.12-2.52-10.88-2.52-15.08,0l-49.84,29.9c-4.19,2.52-4.25,6.6-.14,9.11Z"/>
  <path class="cls-5" d="M693.31,1142.27l19.18,11.68c4.11,2.5,10.86,2.5,15.08-.02l49.85-29.85c4.19-2.51,4.26-6.6.15-9.11l-19.19-11.72c-4.11-2.51-10.87-2.5-15.07.01l-49.82,29.89c-4.22,2.53-4.28,6.61-.17,9.11Z"/>
  <path class="cls-5" d="M621.84,1185.13l19.16,11.65c4.1,2.49,10.85,2.49,15.06-.03l49.85-29.85c4.21-2.52,4.26-6.6.16-9.1l-19.18-11.68c-4.11-2.5-10.86-2.49-15.06.03l-49.83,29.89c-4.21,2.52-4.27,6.59-.16,9.09Z"/>
  <path class="cls-5" d="M634.56,1200.64l-19.16-11.65c-4.1-2.5-10.85-2.48-15.05.04l-14.3,8.58-35.52,21.31c-4.2,2.52-4.27,6.59-.17,9.07l19.14,11.61c4.1,2.49,10.86,2.47,15.05-.04l49.84-29.85c2.63-1.57,3.64-3.75,3.03-5.77-.37-1.22-1.32-2.38-2.86-3.31Z"/>
  <path class="cls-5" d="M478.86,1270.87l19.13,11.58c4.09,2.48,10.84,2.46,15.06-.06l49.85-29.85c4.21-2.52,4.27-6.59.17-9.07l-19.14-11.61c-4.1-2.49-10.84-2.47-15.05.05l-49.82,29.89c-4.22,2.53-4.29,6.59-.19,9.07Z"/>
  <path class="cls-5" d="M407.39,1313.73l19.11,11.55c4.09,2.47,10.83,2.45,15.04-.07l49.85-29.85c4.22-2.53,4.27-6.58.18-9.06l-19.12-11.58c-4.1-2.48-10.82-2.46-15.04.07l-49.82,29.89c-4.2,2.52-4.27,6.57-.18,9.05Z"/>
  <path class="cls-5" d="M335.9,1356.6l19.09,11.51c4.09,2.46,10.85,2.42,15.06-.1l49.84-29.84c4.21-2.52,4.28-6.57.18-9.04l-19.11-11.54c-4.09-2.47-10.83-2.44-15.03.08l-49.81,29.88c-4.21,2.53-4.31,6.58-.22,9.05Z"/>
  <path class="cls-5" d="M264.42,1399.46l19.07,11.47c4.08,2.46,10.83,2.42,15.02-.1l49.85-29.85c4.21-2.52,4.28-6.57.19-9.03l-19.09-11.51c-4.09-2.47-10.82-2.43-15.03.1l-49.82,29.89c-4.19,2.52-4.28,6.56-.2,9.02Z"/>
  <path class="cls-5" d="M695.68,1581.77l-19.09-11.51c-4.09-2.47-10.85-2.44-15.06.04l-50.05,29.45c-4.22,2.48-4.35,6.49-.26,8.95l19.07,11.47c4.1,2.47,10.85,2.45,15.07-.03l50.07-29.41c4.21-2.48,4.34-6.5.23-8.97Z"/>
  <path class="cls-5" d="M750.86,1526.34l-19.1-11.54c-4.1-2.48-10.84-2.48-15.06,0l-50.04,29.47c-4.21,2.48-4.33,6.51-.23,8.98l19.08,11.51c4.09,2.47,10.86,2.45,15.08-.03l50.06-29.43c4.23-2.48,4.3-6.5.21-8.98Z"/>
  <path class="cls-5" d="M792.69,1551.61l-19.1-11.54c-4.1-2.48-10.83-2.48-15.06,0l-50.06,29.42c-4.22,2.48-4.34,6.5-.24,8.97l19.08,11.51c4.09,2.47,10.85,2.45,15.07-.03l50.08-29.38c4.23-2.48,4.32-6.49.22-8.96Z"/>
  <path class="cls-5" d="M844.64,1494.25l-19.13-11.58c-4.1-2.48-10.85-2.47-15.07.01l-50.04,29.44c-4.25,2.5-4.35,6.51-.25,8.99l19.11,11.55c4.11,2.48,10.85,2.48,15.1-.01l50.06-29.4c4.23-2.48,4.33-6.51.22-9Z"/>
  <path class="cls-5" d="M1237.02,869.09l45.32,28c4.13,2.56,10.84,2.63,14.99.16l49.13-29.31c4.15-2.48,4.16-6.57.03-9.13l-45.35-28.08c-4.14-2.56-10.87-2.63-15.02-.14l-49.09,29.38c-4.15,2.48-4.13,6.56,0,9.11Z"/>
  <path class="cls-5" d="M1277.05,900.25l-45.31-28c-4.14-2.55-10.85-2.62-15-.14l-49.09,29.38c-4.14,2.48-4.16,6.57-.03,9.12l45.27,27.92c4.13,2.55,10.87,2.6,15.01.13l49.13-29.31c4.15-2.48,4.15-6.55.02-9.11Z"/>
  <path class="cls-5" d="M1147.37,913.63l-49.12,29.4c-4.12,2.47-4.14,6.55-.01,9.09l45.24,27.84c4.13,2.54,10.85,2.59,14.97.13l49.16-29.32c4.14-2.47,4.16-6.55.02-9.09l-45.27-27.92c-4.13-2.55-10.85-2.6-14.99-.13Z"/>
  <path class="cls-5" d="M1077.97,955.17l-49.09,29.38c-4.14,2.48-4.16,6.55-.03,9.08l45.2,27.77c4.12,2.53,10.84,2.58,14.98.11l49.13-29.31c4.15-2.48,4.17-6.55.05-9.09l-45.23-27.84c-4.13-2.54-10.85-2.59-15-.11Z"/>
  <path class="cls-5" d="M1008.61,996.68l-49.11,29.39c-4.16,2.49-4.17,6.55-.05,9.07l45.16,27.69c4.12,2.53,10.82,2.57,14.98.09l49.15-29.32c4.14-2.47,4.15-6.53.02-9.06l-45.19-27.76c-4.12-2.53-10.83-2.58-14.96-.11Z"/>
  <path class="cls-5" d="M939.22,1038.2l-49.12,29.4c-4.12,2.47-4.15,6.53-.03,9.05l45.12,27.61c4.12,2.52,10.83,2.55,14.95.09l49.16-29.32c4.14-2.47,4.15-6.52.03-9.05l-45.15-27.68c-4.12-2.53-10.82-2.57-14.96-.09Z"/>
  <path class="cls-5" d="M869.83,1079.74l-49.1,29.38c-4.14,2.48-4.17,6.53-.05,9.04l45.07,27.53c4.11,2.51,10.82,2.54,14.96.07l49.13-29.31c4.15-2.48,4.18-6.53.06-9.05l-45.11-27.6c-4.12-2.52-10.83-2.55-14.97-.07Z"/>
  <path class="cls-5" d="M860.48,1148.84l-45.07-27.52c-4.11-2.51-10.82-2.53-14.97-.05l-49.09,29.38c-4.15,2.48-4.17,6.53-.06,9.03l45.03,27.45c4.11,2.5,10.81,2.53,14.96.06l49.13-29.31c4.15-2.48,4.18-6.52.07-9.04Z"/>
  <path class="cls-5" d="M791.05,1190.27l-45.03-27.44c-4.11-2.5-10.8-2.53-14.94-.06l-49.11,29.39c-4.15,2.49-4.17,6.52-.07,9.02l17.04,10.36,27.96,17c4.11,2.5,10.79,2.52,14.95.04l16.33-9.74,32.82-19.58c4.14-2.47,4.16-6.5.05-9.01Z"/>
  <path class="cls-5" d="M661.69,1204.3l-3.67,2.2-45.44,27.19c-4.15,2.48-4.17,6.51-.07,9l44.95,27.29c4.1,2.49,10.79,2.51,14.94.03l49.15-29.31c4.14-2.47,4.18-6.51.07-9l-35.79-21.77-9.2-5.59c-4.11-2.5-10.8-2.51-14.94-.03Z"/>
  <path class="cls-5" d="M543.14,1284.2l44.91,27.21c4.1,2.48,10.78,2.49,14.92.03l49.15-29.32c4.14-2.47,4.18-6.5.08-8.99l-44.95-27.28c-4.1-2.49-10.8-2.49-14.94-.02l-49.11,29.39c-4.13,2.47-4.16,6.5-.06,8.98Z"/>
  <path class="cls-5" d="M582.77,1314.56l-44.91-27.2c-4.1-2.48-10.8-2.48-14.93,0l-49.1,29.38c-4.15,2.48-4.16,6.49-.07,8.97l44.87,27.13c4.09,2.48,10.76,2.49,14.91.01l49.13-29.31c4.14-2.47,4.18-6.49.09-8.98Z"/>
  <path class="cls-5" d="M453.55,1328.87l-49.11,29.39c-4.15,2.48-4.18,6.5-.09,8.96l44.83,27.05c4.09,2.47,10.77,2.47,14.92,0l49.15-29.32c4.15-2.48,4.17-6.48.08-8.95l-44.87-27.12c-4.1-2.47-10.76-2.49-14.91,0Z"/>
  <path class="cls-5" d="M443.91,1397.43l-44.83-27.04c-4.09-2.47-10.78-2.46-14.92.02l-76.74,45.93c-4.15,2.48-4.19,6.49-.1,8.95l44.78,26.94c4.09,2.46,10.76,2.45,14.91-.03l76.8-45.81c4.14-2.47,4.19-6.48.1-8.95Z"/>
  <path class="cls-5" d="M1519.08,1043.4l45.3,27.99c4.15,2.57,10.86,2.67,15.03.22l49.31-28.96c4.17-2.45,4.19-6.51.04-9.08l-45.34-28.07c-4.15-2.57-10.88-2.66-15.05-.2l-49.27,29.03c-4.16,2.45-4.17,6.5-.02,9.06Z"/>
  <path class="cls-5" d="M1559.07,1074.51l-45.3-27.99c-4.15-2.56-10.86-2.65-15.03-.2l-49.27,29.03c-4.15,2.45-4.19,6.51-.05,9.07l45.26,27.92c4.15,2.56,10.89,2.63,15.05.19l49.31-28.96c4.17-2.45,4.18-6.5.03-9.06Z"/>
  <path class="cls-5" d="M1489.4,1115.45l-45.26-27.91c-4.14-2.55-10.87-2.63-15.02-.18l-49.3,29.05c-4.14,2.44-4.17,6.49-.03,9.04l45.22,27.84c4.14,2.55,10.88,2.63,15.02.19l49.33-28.97c4.15-2.44,4.18-6.49.04-9.05Z"/>
  <path class="cls-5" d="M1418.08,1157.35l-45.22-27.83c-4.14-2.55-10.85-2.62-15-.18l-229.43,135.19-141.32,83.27c-4.15,2.45-4.2,6.46-.08,8.97l44.99,27.39c4.12,2.51,10.84,2.55,14.99.11l182.64-107.26,188.4-110.64c4.16-2.44,4.18-6.48.03-9.03Z"/>
  <path class="cls-5" d="M496.13,1387.82l-49.14,29.3c-4.15,2.47-4.17,6.47-.08,8.94l44.81,27.02c4.1,2.47,10.76,2.48,14.92.01l49.18-29.22c4.16-2.47,4.2-6.47.1-8.95l-44.85-27.09c-4.09-2.47-10.77-2.49-14.93,0Z"/>
  <path class="cls-5" d="M625.4,1373.61l-44.89-27.17c-4.1-2.48-10.8-2.48-14.94-.02l-49.14,29.29c-4.15,2.48-4.18,6.49-.09,8.96l44.85,27.09c4.1,2.48,10.78,2.49,14.94.02l49.17-29.22c4.15-2.46,4.2-6.48.09-8.96Z"/>
  <path class="cls-5" d="M694.9,1332.3l-44.93-27.25c-4.1-2.49-10.8-2.5-14.95-.02l-49.14,29.3c-4.15,2.48-4.18,6.49-.08,8.97l44.89,27.17c4.1,2.48,10.79,2.5,14.94.03l49.18-29.22c4.16-2.47,4.2-6.49.09-8.98Z"/>
  <path class="cls-5" d="M655.25,1301.9l44.93,27.25c4.11,2.49,10.78,2.52,14.94.05l49.19-29.23c4.14-2.46,4.17-6.48.06-8.98l-44.97-27.33c-4.1-2.49-10.8-2.52-14.94-.05l-49.15,29.3c-4.15,2.47-4.17,6.49-.07,8.98Z"/>
  <path class="cls-5" d="M776.67,1221.14c-.98.29-1.95.61-2.77,1.1l-49.14,29.29c-4.14,2.47-4.16,6.5-.06,8.99l44.97,27.33c4.11,2.5,10.8,2.53,14.94.06l49.18-29.22c4.17-2.48,4.18-6.49.07-9l-44.29-26.97-.72-.44c-3.3-2.01-8.2-2.35-12.18-1.15Z"/>
  <path class="cls-5" d="M903.37,1208.38l-45.05-27.49c-4.11-2.51-10.83-2.54-14.98-.06l-49.15,29.3c-4.14,2.47-4.16,6.5-.05,9.01l8.55,5.21,36.46,22.21c4.12,2.51,10.81,2.54,14.95.08l22.21-13.2,26.98-16.03c4.16-2.47,4.2-6.51.08-9.02Z"/>
  <path class="cls-5" d="M972.84,1167.09l-45.09-27.57c-4.11-2.52-10.8-2.57-14.96-.09l-49.14,29.3c-4.15,2.48-4.17,6.52-.06,9.03l45.05,27.49c4.12,2.51,10.81,2.55,14.97.08l49.18-29.22c4.15-2.47,4.16-6.5.04-9.02Z"/>
  <path class="cls-5" d="M982.24,1098.03l-49.14,29.29c-4.15,2.48-4.17,6.52-.05,9.04l45.09,27.57c4.12,2.52,10.82,2.56,14.98.09l49.18-29.22c4.15-2.47,4.17-6.51.04-9.03l-45.13-27.65c-4.12-2.52-10.81-2.58-14.97-.1Z"/>
  <path class="cls-5" d="M1051.68,1056.63l-49.14,29.29c-4.14,2.47-4.17,6.53-.05,9.05l45.13,27.65c4.13,2.53,10.84,2.57,14.99.11l49.17-29.22c4.16-2.47,4.19-6.53.06-9.06l-45.17-27.72c-4.12-2.53-10.85-2.58-15-.1Z"/>
  <path class="cls-5" d="M1121.14,1015.23l-49.16,29.31c-4.14,2.47-4.15,6.53-.03,9.06l45.17,27.73c4.13,2.54,10.83,2.59,14.98.13l49.2-29.23c4.14-2.46,4.17-6.52.03-9.07l-45.21-27.8c-4.13-2.54-10.85-2.59-14.99-.12Z"/>
  <path class="cls-5" d="M1186.6,1040.02c4.13,2.54,10.84,2.6,15,.14l49.2-29.24c4.13-2.45,4.14-6.52,0-9.07l-45.25-27.88c-4.13-2.54-10.85-2.61-14.97-.15l-49.17,29.31c-4.15,2.47-4.16,6.54-.03,9.08l45.21,27.81Z"/>
  <path class="cls-5" d="M1320.32,960.54l-45.29-27.96c-4.13-2.55-10.84-2.63-15-.15l-49.15,29.3c-4.14,2.47-4.14,6.54-.01,9.09l45.25,27.89c4.14,2.55,10.85,2.62,14.99.15l49.19-29.23c4.17-2.48,4.17-6.54.02-9.09Z"/>
  <path class="cls-5" d="M1280.29,929.44l45.29,27.97c4.14,2.56,10.88,2.62,15.03.15l76.84-45.66c4.16-2.47,4.17-6.55.03-9.12l-45.35-28.07c-4.14-2.56-10.87-2.64-15.03-.16l-76.78,45.78c-4.15,2.48-4.17,6.57-.04,9.12Z"/>
  <path class="cls-5" d="M594.09,1476.98l-44.82-27.05c-4.1-2.47-10.77-2.49-14.93-.01l-29.41,17.47-63.32-38.17c-4.09-2.47-10.77-2.47-14.93,0l-49.14,29.29c-4.15,2.48-4.19,6.48-.1,8.93l70.67,42.52,4.61,2.77,40.16,24.16c4.08,2.46,10.77,2.47,14.93,0l86.18-51c4.17-2.47,4.19-6.46.1-8.93Z"/>
  <path class="cls-5" d="M554.55,1446.79l44.83,27.05c4.09,2.47,10.78,2.49,14.94.02l49.22-29.13c4.16-2.46,4.2-6.48.11-8.95l-44.86-27.13c-4.1-2.48-10.8-2.48-14.96-.02l-49.18,29.21c-4.16,2.47-4.2,6.47-.1,8.94Z"/>
  <path class="cls-5" d="M624.06,1405.53l44.87,27.13c4.09,2.47,10.82,2.48,14.95.04l49.24-29.14c4.13-2.45,4.18-6.47.08-8.95l-44.9-27.21c-4.1-2.49-10.81-2.5-14.94-.04l-49.21,29.22c-4.13,2.45-4.2,6.47-.09,8.95Z"/>
  <path class="cls-5" d="M802.75,1353.44l-44.94-27.29c-4.11-2.49-10.79-2.52-14.94-.06l-49.18,29.2c-4.17,2.48-4.21,6.49-.1,8.98l44.91,27.21c4.1,2.48,10.8,2.51,14.97.04l49.22-29.13c4.16-2.46,4.17-6.47.07-8.96Z"/>
  <path class="cls-5" d="M763.1,1323.01l44.95,27.29c4.1,2.49,10.8,2.53,14.96.06l49.23-29.14c4.16-2.46,4.18-6.49.08-8.98l-44.98-27.37c-4.11-2.5-10.81-2.53-14.96-.06l-49.2,29.21c-4.16,2.47-4.19,6.49-.08,8.98Z"/>
  <path class="cls-5" d="M832.6,1281.75l44.99,27.37c4.1,2.5,10.82,2.53,14.97.08l49.22-29.13c4.16-2.46,4.19-6.5.08-9l-45.02-27.44c-4.11-2.51-10.82-2.54-14.98-.07l-49.19,29.21c-4.15,2.46-4.19,6.49-.07,8.99Z"/>
  <path class="cls-5" d="M1011.42,1229.88l-45.06-27.52c-4.12-2.52-10.82-2.56-14.97-.09l-49.2,29.21c-2.2,1.3-3.2,3.04-3.09,4.76.1,1.54,1.09,3.06,3.03,4.24l45.03,27.45c4.11,2.5,10.8,2.56,14.97.1l33.58-19.87,15.66-9.27c4.16-2.46,4.17-6.5.06-9.01Z"/>
  <path class="cls-5" d="M1080.98,1188.7l-45.1-27.6c-4.12-2.52-10.83-2.57-14.99-.1l-49.19,29.21c-4.14,2.46-4.18,6.5-.06,9.02l45.07,27.53c4.11,2.51,10.84,2.56,14.98.1l49.22-29.13c4.16-2.46,4.18-6.51.07-9.03Z"/>
  <path class="cls-5" d="M1041.15,1157.97l45.11,27.61c4.11,2.52,10.85,2.56,15,.11l49.22-29.13c4.16-2.46,4.17-6.51.05-9.04l-45.14-27.68c-4.13-2.53-10.84-2.58-14.99-.12l-49.18,29.21c-4.14,2.46-4.19,6.52-.07,9.04Z"/>
  <path class="cls-5" d="M1170.82,1144.52l49.22-29.13c4.15-2.45,4.17-6.51.04-9.05l-45.18-27.76c-4.13-2.54-10.85-2.59-14.99-.13l-49.19,29.21c-4.17,2.47-4.18,6.52-.06,9.05l45.15,27.69c4.12,2.53,10.84,2.59,15.01.12Z"/>
  <path class="cls-5" d="M1240.37,1103.36l49.24-29.14c4.15-2.45,4.15-6.51.02-9.05l-45.22-27.84c-4.13-2.54-10.84-2.61-14.99-.15l-49.2,29.21c-4.14,2.46-4.17,6.52-.04,9.06l45.19,27.77c4.12,2.53,10.86,2.6,15,.14Z"/>
  <path class="cls-5" d="M1359.19,1023.98l-45.26-27.92c-4.14-2.55-10.85-2.62-15.01-.16l-49.19,29.21c-4.14,2.46-4.17,6.53-.03,9.07l45.23,27.85c4.13,2.54,10.86,2.61,15.01.16l49.22-29.13c4.16-2.46,4.16-6.53.03-9.07Z"/>
  <path class="cls-5" d="M1319.22,992.92l45.27,27.93c4.13,2.55,10.86,2.63,15.01.17l109.53-64.82c4.16-2.46,4.17-6.55.03-9.11l-45.34-28.07c-4.14-2.57-10.87-2.64-15.03-.17l-109.44,64.99c-4.15,2.47-4.16,6.53-.03,9.08Z"/>
  <path class="cls-5" d="M662.51,1467.15l44.84,27.09c4.11,2.48,10.81,2.49,14.97.04l49.28-29.05c4.15-2.45,4.21-6.45.1-8.94l-44.88-27.16c-4.11-2.49-10.82-2.51-14.97-.06l-49.24,29.13c-4.16,2.46-4.21,6.47-.1,8.95Z"/>
  <path class="cls-5" d="M791.94,1453.24l49.27-29.04c4.16-2.45,4.21-6.45.09-8.95l-44.92-27.24c-4.11-2.5-10.81-2.53-14.97-.07l-49.23,29.12c-4.14,2.45-4.19,6.47-.08,8.96l44.88,27.17c4.11,2.49,10.81,2.5,14.96.06Z"/>
  <path class="cls-5" d="M850.99,1346.78l-49.24,29.12c-4.15,2.45-4.18,6.47-.06,8.96l44.92,27.25c4.11,2.5,10.8,2.53,14.96.08l49.28-29.05c4.16-2.45,4.2-6.46.09-8.96l-44.96-27.32c-4.12-2.5-10.82-2.54-14.98-.08Z"/>
  <path class="cls-5" d="M916.2,1371.07c4.12,2.5,10.82,2.53,14.98.08l49.28-29.05c4.16-2.45,4.2-6.46.08-8.97l-45-27.4c-4.12-2.51-10.83-2.55-14.99-.09l-49.24,29.12c-4.16,2.46-4.2,6.49-.08,8.99l44.96,27.33Z"/>
  <path class="cls-5" d="M940.84,1302.6l45,27.41c4.12,2.51,10.82,2.55,14.99.09l49.27-29.04c4.15-2.44,4.19-6.46.06-8.98l-45.04-27.48c-4.12-2.52-10.84-2.57-14.98-.11l-49.23,29.12c-4.17,2.47-4.19,6.49-.07,9Z"/>
  <path class="cls-5" d="M1119.78,1251.02l-45.08-27.56c-4.13-2.52-10.84-2.58-15.01-.11l-45.76,27.06-3.46,2.05c-4.16,2.46-4.19,6.5-.06,9.01l45.04,27.49c4.13,2.52,10.83,2.56,15,.11l44.45-26.2,4.81-2.83c4.18-2.46,4.21-6.48.08-9.01Z"/>
  <path class="cls-5" d="M1189.4,1209.96l-45.12-27.64c-4.13-2.53-10.86-2.59-15.02-.13l-49.24,29.12c-4.13,2.45-4.15,6.48-.02,9.01l45.08,27.57c4.13,2.52,10.83,2.58,14.97.14l49.28-29.05c4.16-2.45,4.2-6.49.07-9.02Z"/>
  <path class="cls-5" d="M1259.02,1168.9l-45.16-27.72c-4.14-2.54-10.86-2.6-15.01-.15l-49.24,29.12c-4.16,2.46-4.19,6.51-.05,9.04l45.12,27.65c4.13,2.53,10.85,2.58,15.01.13l49.28-29.05c4.15-2.45,4.19-6.49.05-9.03Z"/>
  <path class="cls-5" d="M1328.63,1127.85l-45.2-27.8c-4.14-2.55-10.86-2.62-15.01-.17l-49.24,29.12c-4.16,2.46-4.18,6.52-.05,9.06l45.16,27.73c4.14,2.54,10.86,2.6,15.02.14l49.28-29.05c4.15-2.45,4.17-6.49.03-9.03Z"/>
  <path class="cls-5" d="M1398.25,1086.79l-45.24-27.88c-4.14-2.55-10.88-2.63-15.04-.17l-49.23,29.12c-4.15,2.45-4.16,6.51-.02,9.05l45.2,27.81c4.14,2.55,10.85,2.62,15,.17l49.27-29.04c4.16-2.45,4.2-6.51.05-9.06Z"/>
  <path class="cls-5" d="M1359.39,1055.14l45.24,27.89c4.14,2.55,10.84,2.64,15.02.18l49.25-29.04c4.18-2.46,4.19-6.51.05-9.08l-45.28-27.96c-4.15-2.56-10.87-2.65-15.05-.18l-49.22,29.11c-4.17,2.47-4.17,6.52-.02,9.08Z"/>
  <path class="cls-5" d="M1430.17,1013.29l45.28,27.97c4.15,2.56,10.86,2.65,15.03.19l69.81-41.15c4.17-2.46,4.19-6.52.04-9.09l-45.33-28.06c-4.15-2.57-10.89-2.66-15.05-.2l-69.76,41.26c-4.16,2.46-4.16,6.53-.01,9.09Z"/>
  <path class="cls-5" d="M701.07,1497.95l-44.84-27.08c-4.11-2.48-10.8-2.5-14.96-.04l-122.59,72.51c-4.16,2.46-4.2,6.45-.1,8.92l44.76,26.93c4.1,2.47,10.78,2.47,14.94.02l122.69-72.32c4.17-2.46,4.22-6.44.11-8.93Z"/>
  <path class="cls-5" d="M928.71,1444.86l-44.93-27.27c-4.11-2.5-10.8-2.53-14.95-.09l-49.29,29.04c-4.17,2.46-4.21,6.45-.1,8.94l44.9,27.2c4.11,2.49,10.8,2.53,14.98.08l49.32-28.97c4.15-2.44,4.19-6.44.08-8.94Z"/>
  <path class="cls-5" d="M964.55,1361.1l-75.39,44.42c-4.15,2.45-4.19,6.45-.08,8.94l44.94,27.28c4.12,2.5,10.81,2.54,14.97.1l75.45-44.31c4.17-2.45,4.2-6.45.08-8.96l-44.99-27.38c-4.12-2.51-10.81-2.55-14.98-.09Z"/>
</svg>