<?xml version="1.0" encoding="UTF-8"?>
<svg id="Capa_1" data-name="Capa 1" xmlns="http://www.w3.org/2000/svg" viewBox="0 0 2146.82 1072.41">
  <defs>
    <style>
      .cls-1 {
        fill: #c76a22;
      }

      .cls-2 {
        fill: #f7b66f;
      }

      .cls-3 {
        fill: #d97e38;
      }

      .cls-4 {
        fill: #d17229;
      }

      .cls-5 {
        fill: #d18735;
      }

      .cls-6 {
        fill: #db8f3b;
      }
    </style>
  </defs>
  <path class="cls-6" d="M2146.69,610.98c-.03-1.05-.1-2.1-.14-3.15-.04-1.14-.09-2.27-.15-3.41-.2-4.09-.46-8.18-.83-12.26-.07-.75-.11-1.51-.18-2.27,0-.1-.01-.19-.02-.29-.15-1.75-.35-3.53-.54-5.31-.19-1.79-.39-3.53-.62-5.32-.06-.48-.15-.95-.21-1.43-.41-3.19-.9-6.36-1.4-9.53-.25-1.63-.45-3.27-.72-4.9l-.04-.23c-.1-.6-.24-1.21-.34-1.81-.24-1.33-.5-2.67-.76-4-.28-1.48-.54-2.95-.84-4.43-.35-1.75-.7-3.49-1.09-5.2l-.04-.16c-.14-.61-.28-1.2-.42-1.81-.15-.67-.31-1.34-.46-2-.1-.42-.19-.85-.29-1.27-.57-2.46-1.25-4.88-1.88-7.32-.49-1.88-.93-3.78-1.45-5.64-.07-.25-.14-.49-.21-.74-.36-1.3-.72-2.61-1.11-3.91-.93-3.26-1.94-6.44-2.99-9.66-.02-.06-.04-.11-.06-.17-.1-.31-.22-.62-.32-.93-.83-2.5-1.69-5.01-2.57-7.51-.23-.7-.47-1.4-.74-2.05-.36-1-.75-2.01-1.13-3.01-.19-.51-.38-1.02-.57-1.53-.17-.46-.35-.89-.52-1.34-.26-.69-.52-1.39-.8-2.07-.62-1.67-1.27-3.3-1.97-4.93-.51-1.32-1.05-2.6-1.59-3.88-.21-.49-.43-.97-.64-1.46-.21-.48-.42-.96-.63-1.44-.45-1.04-.9-2.09-1.37-3.11-1.12-2.52-2.29-5.04-3.49-7.49-.21-.44-.44-.9-.65-1.34-.4-.82-.8-1.65-1.21-2.48-.11-.21-.21-.42-.31-.63-.97-1.94-1.98-3.92-2.99-5.86-1.01-1.9-2.02-3.8-3.03-5.7l-.31-.58c-6.32-11.44-13.31-22.58-21.03-33.33-135.11-188.57-364.27-251.33-365.62-251.7,0,0-.03-.03-.03-.03,0,0-25.35-13.46-52.98,11.94-16.16-24.04-34.08-46.65-54.06-66.98-174.04-177.1-509.58-101.16-510.64-100.92h-.04s-68.01,11.6-108.01,76.71c-6.85-1.61-13.66-2.75-20.43-3.34-207.83-18.34-437.01,161.88-437.26,162.08h-.02s-64.45,30.27-99.2,105.29c-64.2-1.97-99.58,13.98-99.58,13.98-159.8,93.5-254.38,207.79-306.87,290.89-1.13,1.78-2.21,3.57-3.3,5.39-37.78,64.36-34.22,145.25,9.62,206.2,1.05,1.47,2.09,2.95,3.15,4.38,29.48,40.54,71.15,70.49,118.75,86.13,760.82,249.85,1645.52-.97,1870.57-73.25,35.46-11.41,63.66-38.72,76.16-73.83,9.35-26.27,17.19-52.03,23.7-76.31,3.85-14.28,7.22-28.05,10.17-41.12,1.15-5.03,2.17-10.08,3.08-15.14.2-1.11.35-2.23.55-3.35.61-3.54,1.22-7.07,1.72-10.61.05-.39.08-.79.13-1.18.78-5.77,1.44-11.57,1.94-17.35.03-.31.08-.63.1-.95.35-4.27.61-8.53.81-12.79.03-.77.06-1.55.09-2.32.06-1.47.15-2.93.18-4.4v-.04c.05-1.62,0-3.26.03-4.89.03-2.63.07-5.27.04-7.91,0-.77.02-1.53.01-2.29-.04-1.78-.08-3.57-.12-5.39Z"/>
  <g>
    <path class="cls-2" d="M958.96,664.52c27.31,29.56,76.16,2.17,64.79-36.43-37.25-126.17-150.34-307.42-488.79-376.24h0s-.02,0-.02,0c0,0-64.45,30.26-99.2,105.28,105.8,3.24,289.9,55.15,523.21,307.39Z"/>
    <path class="cls-2" d="M1371.75,515.73c15.48,27.55,57.54,14.12,54.32-17.3-14.55-140.44-78.1-365.46-325.38-482.04,0,0,.02,0,.03,0h-.04s-68.01,11.6-108.01,76.71c142.04,33.48,297.96,278.1,379.09,422.63Z"/>
    <path class="cls-2" d="M1841.72,553.21c18.7-85.66,14.7-224.4-123.33-380.86,0,0,.03,0,.03,0,0,0-.03-.03-.03-.03,0,0-25.35-13.46-52.98,11.94,79.36,118.09,115.1,271.57,130.57,367.69,4.07,25.37,40.28,26.34,45.74,1.24Z"/>
    <path class="cls-5" d="M2004.43,801.08c-25.53-11.95-40.35-38.37-58.66-59.82-9.93-11.68-23.2-22.46-37.36-28.01-21.18,12.45-43.14,23.39-65.56,33.06-4.11,7.8-7.95,15.9-12.34,23.28-23.16,38.91-70.26,62.11-115.22,56.76-21.61-2.56-45.24-11.33-65.48-24.56-59.94,10.16-120.66,14.55-181.33,13.62-32.82,33.87-65.06,71.03-109.48,86.17-61.3,20.91-127.6-5.66-186.88-31.78-35.23-15.55-70.5-31.08-105.72-46.63-26.46-11.64-54.08-23.55-82.99-22.42-61.26,2.33-105.91,60.68-165.08,76.78-67.77,18.47-132.52-21.14-199.45-48.65-190.91,41.94-306.72,98.12-407.2,88.81C14.59,899.35,26,667.39,26,667.39c-37.78,64.36-34.22,145.25,9.62,206.2,1.05,1.47,2.09,2.95,3.15,4.38,29.48,40.54,71.15,70.49,118.75,86.13,760.82,249.85,1645.52-.97,1870.57-73.25,35.46-11.41,63.66-38.72,76.16-73.83,9.35-26.27,17.19-52.03,23.7-76.31-28.98,45.08-77.39,81.94-123.52,60.37Z"/>
    <path class="cls-4" d="M148.86,890.93c55.48,36.16,129.85,15.25,188.63-15.25,58.81-30.45,117.16-70.53,183.35-70.45,33.56.04,66.03,10.43,98.04,23.63,170.2-37.4,400.14-63.51,732.16-21.8,39.03,4.93,78.21,7.72,117.43,8.34l5.7-5.82c5.59-5.66,11.41-11.29,17.46-16.68,40.34-36.04,101.76-37.59,142.88-2.48,4.77,4.07,9.89,7.88,15.29,11.37,10.71-1.78,21.34-3.8,31.96-5.97,52.42-10.79,107.89-26.54,161.08-49.5,7.29-13.97,15.56-27,29.52-33.33,11.71-5.32,24.21-4.35,36.04.27,91.63-53.61,168.06-134.35,196.62-255.78l.03-.08c-6.32-11.44-13.31-22.58-21.03-33.33-135.11-188.57-364.27-251.33-365.62-251.7,0,0-.03,0-.03,0,138.04,156.46,142.04,295.2,123.33,380.86-5.47,25.1-41.67,24.13-45.74-1.24-15.47-96.12-51.2-249.59-130.57-367.69-16.16-24.04-34.08-46.65-54.06-66.98-174.04-177.1-509.58-101.16-510.64-100.92,0,0-.03,0-.03,0,247.28,116.58,310.83,341.6,325.38,482.04,3.22,31.42-38.84,44.85-54.32,17.3-81.13-144.53-237.05-389.15-379.09-422.63-6.85-1.61-13.66-2.75-20.43-3.34-207.83-18.34-437.01,161.88-437.26,162.08h0c338.46,68.83,451.54,250.08,488.79,376.25,11.37,38.6-37.48,65.99-64.79,36.43-233.31-252.24-417.41-304.15-523.21-307.39-64.2-1.97-99.58,13.98-99.58,13.98-159.8,93.5-254.38,207.79-306.87,290.89-1.13,1.78-2.21,3.57-3.3,5.39,15.87,53.46,37.67,105.18,64.98,153.79,14.93,26.61,32.32,53.11,57.88,69.75ZM1882.93,283.68c10.12,6.01,20.2,12.89,28.25,21.62,1.84,1.99,3.63,4.08,5.23,6.29,12.84,2.97,25.9,10.65,34.24,16.42,36,24.91,59.85,66.58,63.16,110.23,1.09,2.06,2.08,4.21,2.94,6.55,1.31,3.57-.13,6.81-2.65,8.95-1.34,38.97-18.5,77.32-47.15,103.85-11.24,10.41-24.79,19.32-40.04,20.92-15.24,1.61-32.17-5.85-37.76-20.12-3.79-9.69-1.96-20.55-.3-30.82,5.86-36.25,8.85-73.48,6.46-110.27-3.7-4.32-4.17-11.12-1.45-16.1-1.02-9.25-2.29-18.47-4.11-27.61-3.25-16.35-14.93-38.44-4.17-53.25-6.06-5.54-12.2-10.94-17.98-16.8-10.08-10.23,2.92-27.22,15.32-19.85ZM1520.88,74.92c11.52,4.7,21.72,10.87,31.15,19.01,3.9,3.36,7.87,7.06,10.29,11.7,1.97,3.79.68,9.21,2.73,12.48,1.81,2.89-.01,6.51-3.04,7.48-4.12,1.32-7.84.49-10.97-2.52-3.39-3.25-5.06-5.29-9.21-7.91-10.25-6.46-18.22-15.2-29.13-20.8-10.64-5.46-2.95-24,8.2-19.44ZM1421.06,73.26c.35-.71.69-1.42,1.03-2.13,1.26-2.59,4.45-4.14,7.21-4.14s5.96,1.55,7.21,4.14c.34.71.69,1.42,1.03,2.13.86,1.49,1.3,3.1,1.3,4.82,0,1.72-.44,3.33-1.3,4.82-1.7,2.9-4.88,4.73-8.24,4.73s-6.54-1.83-8.24-4.73c-.87-1.49-1.3-3.09-1.3-4.82,0-1.72.44-3.33,1.3-4.82ZM1332.93,113.57c1.47-12.6,3.91-25.68,7.58-37.85,1.38-4.57,3.08-9.11,6.66-12.45,1.51-1.41,3.54-2.8,5.19-4.05.56-.43,1.12-.86,1.67-1.29.06-.03.08-.03.14-.06,1.4-2.76,5.5-3.04,7.55-.95.74.81,1.51,1.57,2.33,2.3,2.76,2.56,2.95,6.85,1.29,10.02-1.56,2.97-4.2,5.02-5.81,7.88-1.6,2.86-1.97,6.41-2.84,9.54-2.69,9.73-6.53,19.06-8.75,28.94-1.87,8.32-16,6.53-15-2.03ZM1262.48,46.14c2.81-.3,5.61-2.59,8.33-3.37,3.52-1,7.49-1.18,11.08-.25,5.55,1.44,10.31,5.41,15.46,7.81,8.8,4.09,16.72,13.06,11.96,23.13-1.6,3.38-6.78,3.02-8.48,0-.53-.93-1.35-1.6-1.4-1.85-1.7-.09-3.69.08-5.32-.3-3.13-.73-6.22-1.43-9.2-2.63-2.67-1.07-7.76-4.54-9.26-4.51-1.69.04-4.33,1.8-5.96,2.26-2.37.66-4.77.87-7.21,1-13.91.72-13.32-19.86,0-21.28ZM1403.32,207.38c-.21.16-.42.33-.63.49-.84.36-1.68.71-2.52,1.06-.93.13-1.87.25-2.81.38-.93-.13-1.87-.25-2.8-.38-1.37-.33-2.57-.96-3.58-1.89-.8-.47-1.42-1.1-1.89-1.89-.65-.66-1.1-1.43-1.35-2.33-.48-.82-.72-1.71-.72-2.66-.25-.93-.25-1.87,0-2.8.06-1.41.48-2.71,1.25-3.92.55-.71,1.1-1.42,1.65-2.13.45-.35.9-.7,1.35-1.05-12.18-17.47-23.74-35.1-32.56-53.57-47.63-99.74,162.28-25.31,195.07-.19,20.24,15.51,37.94,34.21,52.6,55.07,2.02-3.57,5.71-6.17,11.07-6.17,16.56,0,17.13,24.64,1.87,26.55,11.77,20.63,20.72,42.86,26.3,65.94,4.76,4.43,9.71,8.53,15.75,11.41,7.31,3.49,13.61,6.72,18.06,13.82,2.19,3.5,2.09,8.33,0,11.84l-.48.8c-1.78,2.98-5.24,5.22-8.81,5.05-5.43-.25-7.7-2.77-11.71-5.63-2.19-1.56-4.7-2.7-7.17-3.87,3.9,36.06,1.31,72.77-1.74,109.04-3.03,36.09-11.91,79.57-46.16,91.36-25.19,8.66-53.55-5.7-69.9-26.74-16.34-21.03-23.58-47.49-31.6-72.89-8.25-26.13-17.74-51.86-28.36-77.12-.05.04-.07.1-.12.14-1.09,1.18-2.39,2.01-3.89,2.5-1.44.76-2.99,1.1-4.66,1.04-3.28,0-6.18-1.37-8.55-3.54-2.37-2.18-3.4-5.43-3.54-8.55-.06-1.66.28-3.22,1.05-4.66.48-1.5,1.32-2.8,2.5-3.89,1.1-1.18,2.4-2.01,3.89-2.5,1.37-.72,2.84-1.04,4.41-1.02-7.29-16.2-15.01-32.2-23.24-47.94-10.69-20.44-24.3-39.85-37.99-59.16ZM676.79,238.89c-10.55,0-10.53-16.37,0-16.37s10.53,16.37,0,16.37ZM988.97,467.84c-62.54-85.66-142.89-139.51-234.92-188.55-35.49-18.91-80.25-57.39-37.2-93.55,38.37-32.23,113.47-48.62,162.15-51.51,60.13-3.57,119.67,17.23,168.4,53.07,2.79-7.8,5.14-16.72,10.72-22.53,3.27-3.42,10.27-3.02,12.42,1.6,5.3,11.39-.53,23.2-5.59,34.91,13.58,11.68,26.17,24.5,37.35,38.39,3.33,4.14,6.55,8.35,9.66,12.64,5.86,1.07,8.5,6.51,7.98,11.58,41.46,62.71,60.98,139.17,62.1,214.66.42,28.77-2.09,58.94-17.35,83.33-15.27,24.4-46.65,40.76-73.57,30.6-14.32-5.4-25.22-17.13-34.84-29.03-24.52-30.32-44.32-64.13-67.31-95.62ZM162.49,602.93c41.48-72.97,111.68-126.46,188.24-160.87,34.8-15.64,71.96-27.87,110.12-27.92,26.64-.04,52.97,5.87,78.39,13.83,103.46,32.39,195.24,100.52,256.83,189.67,12.89,18.66,18,41.92,12.35,63.88-2.55,9.94-7.04,18.19-18.47,23.44-49.5,22.75-105.05,27.71-159.33,32.35-107.79,9.21-215.59,18.43-323.38,27.64-29.64,2.53-59.81,5.03-88.87-1.3-29.06-6.34-57.38-22.97-70.5-49.67-17.14-34.91-4.59-77.24,14.62-111.05Z"/>
    <path class="cls-1" d="M618.88,828.86c66.92,27.51,131.68,67.12,199.45,48.65,59.16-16.1,103.82-74.45,165.08-76.78,28.9-1.13,56.52,10.78,82.99,22.42,35.22,15.55,70.49,31.08,105.72,46.63,59.28,26.11,125.58,52.69,186.88,31.78,44.42-15.13,76.66-52.3,109.48-86.17-39.22-.62-78.41-3.41-117.43-8.34-332.02-41.71-561.96-15.6-732.16,21.8Z"/>
    <path class="cls-1" d="M1649.8,801.78c20.25,13.23,43.88,22,65.48,24.56,44.96,5.35,92.07-17.84,115.22-56.76,4.39-7.37,8.23-15.48,12.34-23.28-53.19,22.97-108.67,38.72-161.08,49.5-10.63,2.17-21.26,4.19-31.96,5.97Z"/>
    <path class="cls-1" d="M2146.81,616.37c-.04-1.78-.08-3.57-.12-5.39-.03-1.05-.1-2.1-.14-3.15-.04-1.14-.09-2.27-.15-3.41-.2-4.09-.46-8.18-.83-12.26-.07-.75-.11-1.51-.18-2.27,0-.1-.01-.19-.02-.29-.15-1.75-.35-3.53-.54-5.31-.19-1.79-.39-3.53-.62-5.32-.06-.48-.15-.95-.21-1.43-.41-3.19-.9-6.36-1.4-9.53-.25-1.63-.45-3.27-.72-4.9l-.04-.23c-.1-.6-.24-1.21-.34-1.81-.24-1.33-.5-2.67-.76-4-.28-1.48-.54-2.95-.84-4.43-.35-1.75-.7-3.49-1.09-5.2l-.04-.16c-.14-.61-.28-1.2-.42-1.81-.15-.67-.31-1.34-.46-2-.1-.42-.19-.85-.29-1.27-.57-2.46-1.25-4.88-1.88-7.32-.49-1.88-.93-3.78-1.45-5.64-.07-.25-.14-.49-.21-.74-.36-1.3-.72-2.61-1.11-3.91-.93-3.26-1.94-6.44-2.99-9.66-.02-.06-.04-.11-.06-.17-.1-.31-.22-.62-.32-.93-.83-2.5-1.69-5.01-2.57-7.51-.23-.7-.47-1.4-.74-2.05-.36-1-.75-2.01-1.13-3.01-.19-.51-.38-1.02-.57-1.53-.17-.46-.35-.89-.52-1.34-.26-.69-.52-1.39-.8-2.07-.62-1.67-1.27-3.3-1.97-4.93-.51-1.32-1.05-2.6-1.59-3.88-.21-.49-.43-.97-.64-1.46-.21-.48-.42-.96-.63-1.44-.45-1.04-.9-2.09-1.37-3.11-1.12-2.52-2.29-5.04-3.49-7.49-.21-.44-.44-.9-.65-1.34-.4-.82-.8-1.65-1.21-2.48-.11-.21-.21-.42-.31-.63-.97-1.94-1.98-3.92-2.99-5.86-1.01-1.9-2.02-3.8-3.03-5.7l-.31-.58-.03.08c-28.56,121.43-104.99,202.17-196.62,255.78,14.16,5.55,27.43,16.33,37.36,28.01,18.31,21.45,33.13,47.87,58.66,59.82,46.13,21.57,94.55-15.29,123.52-60.37,3.85-14.28,7.22-28.05,10.17-41.12,1.15-5.03,2.17-10.08,3.08-15.14.2-1.11.35-2.23.55-3.35.61-3.54,1.22-7.07,1.72-10.61.05-.39.08-.79.13-1.18.78-5.77,1.44-11.57,1.94-17.35.03-.31.08-.63.1-.95.35-4.27.61-8.53.81-12.79.03-.77.06-1.55.09-2.32.06-1.47.15-2.93.18-4.4v-.04c.05-1.62,0-3.26.03-4.89.03-2.63.07-5.27.04-7.91,0-.77.02-1.53.01-2.29Z"/>
    <path class="cls-3" d="M1091.11,592.5c26.92,10.16,58.3-6.21,73.57-30.6,15.26-24.4,17.77-54.56,17.35-83.33-1.12-75.49-20.64-151.95-62.1-214.66-.5,4.83-3.84,9.3-10.09,9.3-13.59,0-13.57-21.1,0-21.1.75,0,1.44.09,2.11.21-3.11-4.29-6.33-8.5-9.66-12.64-11.19-13.89-23.77-26.71-37.35-38.39-2.72,6.31-5.22,12.6-5.62,18.77-.81,12.54-19.41,12.74-19.64,0-.19-10.3,2.49-19.76,6.37-29.21.47-1.14.91-2.33,1.35-3.55-48.73-35.84-108.27-56.64-168.4-53.07-48.67,2.89-123.77,19.29-162.15,51.51-43.05,36.15,1.71,74.63,37.2,93.55,92.03,49.04,172.38,102.89,234.92,188.55,22.98,31.49,42.79,65.31,67.31,95.62,9.62,11.9,20.52,23.63,34.84,29.03ZM1074.35,322.1c13.93-.53,24.13,3.41,34.78,12.21,9.72,8.04,18.95,20.42,11.49,31.95-2.63,4.07-9.24,5.93-12.91,1.9-.05-.02-.07-.03-.12-.05-.94-.68-1.86-1.4-2.74-2.15-1.41-1.36-2.37-3.05-3.65-4.52-2.49-2.86-5.42-5.63-8.34-8.05-5.83-4.84-10.95-7.66-18.51-8.2-14.75-1.06-14.96-22.52,0-23.1ZM953.95,168.97c.52-1.59,1.4-2.96,2.65-4.12,1.8-1.71,3.52-2.84,5.93-3.52,1.29-.36,2.65-.42,3.98-.55l1.35-.14c2.4,0,4.63.61,6.7,1.81.9.69,1.79,1.39,2.69,2.08,1.65,1.66,2.79,3.61,3.42,5.86.15,1.18.31,2.35.47,3.53.07,1.83-.31,3.53-1.14,5.11-.53,1.64-1.45,3.07-2.75,4.27-1.2,1.29-2.62,2.21-4.27,2.75-1.59.83-3.29,1.21-5.12,1.14l-1.35-.14c-1.33-.14-2.69-.19-3.98-.55-2.41-.68-4.14-1.81-5.93-3.52-1.59-1.6-2.69-3.48-3.3-5.66-.15-1.13-.3-2.27-.45-3.41-.07-1.77.3-3.41,1.1-4.94ZM839.32,193.78c1.82-11.79,6.54-21.73,17.38-27.87,4.8-2.72,12.54-.51,13.63,5.54,1.13,6.34.36,9.55-3.08,14.93-2.99,4.68-3.49,8.42-4.53,13.74-2.32,11.91-11.01,21.21-12.82,33.3-1.72,11.51-20.43,8.51-20-2.71.51-13.22,7.45-24.12,9.43-36.93ZM737.14,207.32c7.01.53,14.08,1.54,20.88,3.34,7.15,1.89,13.6,2.57,18.29,8.72,2.81,3.68.48,9.27-3,11.44-6.17,3.85-12.94,1.23-19.52-.34-6.42-1.53-12.6-3.82-19.09-5.13-10.15-2.05-7.81-18.81,2.44-18.04ZM889.77,327.26c-14.65,0-14.63-22.73,0-22.73s14.63,22.73,0,22.73ZM980.08,276.72c-5.26-.55-9.52-1.79-13.85-4.89-3.04-2.17-5.5-4.65-8.88-6.31-8.12-3.98-15.92-5.7-22.63-12.32-9.32-9.21,3.09-26.05,14.22-18.42,6.98,4.79,15.92,3.22,23.27,7.43,7.34,4.21,12.67,10.83,17.65,17.49,4.93,6.59-1.65,17.89-9.77,17.03ZM1009,368.15c-1.75,1.01-3.63,1.52-5.65,1.53-2.01,0-3.9-.52-5.64-1.53-.54-.24-1.08-.48-1.63-.72-.03-.02-.07-.03-.11-.05,0,0,0,0-.01,0-1.55-.92-2.78-2.15-3.69-3.69-.45-.7-.73-1.45-.93-2.21-.03-.08-.07-.16-.1-.24-.27-1-.36-2.01-.33-3.01,0-.82.07-1.64.33-2.46.19-.8.52-1.52.93-2.2.03-.09.07-.17.11-.26.43-.8,1.01-1.45,1.65-2.04.59-.64,1.24-1.22,2.04-1.65.09-.04.18-.08.28-.12.46-.27.95-.47,1.47-.65,0,0,0,0,0,0,1.75-1.01,3.63-1.52,5.64-1.52,2.02,0,3.9.51,5.65,1.52,3.4,1.99,5.54,5.71,5.54,9.66s-2.13,7.67-5.54,9.66Z"/>
    <path class="cls-3" d="M1464.55,314.48c.09,0,.17-.03.25-.02,3.28,0,6.18,1.37,8.55,3.54,2.37,2.18,3.4,5.43,3.54,8.55.06,1.66-.28,3.22-1.04,4.66-.47,1.44-1.28,2.68-2.38,3.75,10.62,25.26,20.11,50.99,28.36,77.12,8.02,25.4,15.27,51.86,31.6,72.89,16.35,21.04,44.71,35.4,69.9,26.74,34.25-11.79,43.13-55.27,46.16-91.36,3.06-36.27,5.64-72.98,1.74-109.04-.98-.46-1.97-.91-2.91-1.42-9.72-5.35-17.26-13.42-24.81-21.38-10.15-10.72,5.56-26.46,16.2-16.2,1.96,1.89,3.91,3.75,5.87,5.58-5.57-23.08-14.52-45.31-26.3-65.94-.61.08-1.2.19-1.87.19-11.86,0-15.54-12.66-11.07-20.56-14.65-20.86-32.36-39.56-52.6-55.07-32.79-25.12-242.7-99.55-195.07.19,8.82,18.47,20.38,36.09,32.56,53.57.26-.2.52-.4.78-.6.56-.39,1.13-.77,1.68-1.16,1.34-.78,2.78-1.16,4.32-1.17,1.54,0,2.99.39,4.32,1.17l1.2.65c1.66,1.08,2.76,2.51,3.36,4.37.14.44.22.92.25,1.41.3.78.51,1.58.55,2.43.25.93.25,1.87,0,2.8-.06,1.41-.48,2.71-1.25,3.92-.55.71-1.1,1.42-1.65,2.13-.5.39-1,.77-1.5,1.16,13.69,19.31,27.3,38.72,37.99,59.16,8.23,15.74,15.96,31.74,23.24,47.94ZM1578.36,291.63c-3.9,6.03-10.59,6.41-17.23,6.64-5.46.19-10.1,2.1-15.46,2.86-5.61.8-11.21-1.29-12.86-7.31-1.44-5.22,1.78-11.67,7.3-12.86,6.58-1.42,12.09-4.4,18.99-4.61,6.96-.21,15.32.64,19.25,7.01,1.47,2.39,1.54,5.88,0,8.26ZM1564.19,217.25c12.78,0,12.76,19.82,0,19.82s-12.76-19.82,0-19.82ZM1521.59,152.63c13.72,0,13.69,21.28,0,21.28s-13.69-21.28,0-21.28ZM1401.63,106.27c12.26,7.4,29.24,5.7,36.87,19.92,3.44,6.41-2.21,13.13-9.05,11.77-7.05-1.39-13.17-5.02-19.78-7.74-6.88-2.82-12.56-5.87-18.29-10.67-7.5-6.29,2.23-18.12,10.25-13.28ZM1480.16,205.33c2.43-1.37,4.93-.38,6.47,1.7,5.02,6.78,2.92,16.94,1.51,24.73-2.12,11.63-3.09,22.64-3.78,34.45-.67,11.58-16.81,11.34-17.82,0-1.15-12.89-1.52-23.78,1.01-36.51,1.91-9.64,3.32-19.12,12.61-24.37Z"/>
    <path class="cls-3" d="M1921.67,328.31c-.57,2.06-.81,2.72-.9,2.77-.06.37-.13.81-.22,1.36-1.04,6.24-10.11,8.48-14.37,4.2-6.62-2.21-11.69-8.02-16.8-12.83-1.25-1.18-2.53-2.31-3.79-3.46-10.76,14.8.92,36.89,4.17,53.25,1.82,9.14,3.08,18.36,4.11,27.61,1.99-3.63,5.67-6.29,11.08-6.29,17.11,0,17.09,26.55,0,26.55-4.29,0-7.5-1.67-9.63-4.16,2.4,36.79-.59,74.03-6.46,110.27-1.66,10.27-3.49,21.13.3,30.82,5.59,14.27,22.51,21.73,37.76,20.12,15.24-1.61,28.79-10.51,40.04-20.92,28.65-26.53,45.81-64.88,47.15-103.85-2.94,2.5-7.35,3.48-10.84,1.42-4.81-2.84-10.7-4.53-15.86-7.05-6.3-3.08-12.13-7.12-18.2-10.64-14.91-8.64-1.56-31.43,13.5-23.08,6.88,3.82,14.06,7.58,20.63,11.93,4.82,3.2,8.01,7.22,10.49,11.92-3.31-43.65-27.15-85.31-63.16-110.23-8.35-5.77-21.4-13.45-34.24-16.42,1.57,2.17,2.95,4.47,3.97,6.93,1.38,3.3,2.28,6.18,1.29,9.79Z"/>
    <path class="cls-3" d="M218.36,763.65c29.07,6.34,59.24,3.83,88.87,1.3,107.79-9.21,215.59-18.43,323.38-27.64,54.28-4.64,109.83-9.6,159.33-32.35,11.44-5.25,15.92-13.5,18.47-23.44,5.65-21.96.53-45.23-12.35-63.88-61.59-89.14-153.37-157.28-256.83-189.67-25.43-7.96-51.76-13.87-78.39-13.83-38.15.05-75.32,12.28-110.12,27.92-76.56,34.41-146.76,87.9-188.24,160.87-19.21,33.81-31.76,76.15-14.62,111.05,13.11,26.7,41.44,43.34,70.5,49.67ZM485.12,655.56c-12.31,0-12.29-19.1,0-19.1s12.28,19.1,0,19.1ZM610.99,576.79c-8.04,4.8-15.03,5.67-24.19,6.41-6.87.55-13.15,3.03-19.21,1.42-2.43.42-4.97-.34-6.26-2.89-5.63-11.09,4.23-16.97,13.89-19.82,9.32-2.75,18.77-.7,27.84-3.9,11.31-3.99,17.59,13.01,7.92,18.78ZM595.15,498.94c11.13,0,11.12,17.28,0,17.28s-11.12-17.28,0-17.28ZM453.17,425.94c20.01-.52,33.41,8.23,49.92,18.16,14.55,8.76,30.77,18.87,38.63,34.58,3.65,7.3-3.68,14.55-10.95,10.95-12.17-6.03-23.18-14.9-35.35-21.37-13.81-7.35-26.11-19.15-42.24-21.04-13.3-1.55-14.02-20.91,0-21.28ZM408.2,534.48c16.4-2.46,36.31-8.2,51.96-.84,4.56,2.14,4.36,9.57,0,11.78-13.98,7.07-34.21,8.4-49.58,6.57-9.02-1.08-13.17-15.88-2.37-17.5ZM371.53,460.26c10.67,0,10.65,16.55,0,16.55s-10.65-16.55,0-16.55ZM340.07,618.64c-1.41,8.76-10.45,7.17-16.79,6.52-3.89-.41-7.75-.62-11.52-1.79-3.48-1.08-6.7-2.64-10.27-3.47-10.56-2.45-8.35-20.36,2.59-19.11,3.95.45,7.58,1.37,11.43,2.22,3.48.76,7.07.68,10.58,1.41,6.91,1.44,15.32,5.89,13.98,14.23ZM288.77,490.95c8.77,10.92,31.78,17.5,26.63,35.54-.89,3.11-4.98,4.32-7.29,1.93-9.88-10.21-23.92-15.69-32.61-27.22-5.79-7.68,7.34-17.65,13.28-10.25ZM204.7,572.75c7.5,0,7.49,11.64,0,11.64s-7.49-11.64,0-11.64Z"/>
    <path class="cls-2" d="M453.17,447.22c16.13,1.89,28.43,13.7,42.24,21.04,12.17,6.47,23.18,15.34,35.35,21.37,7.27,3.6,14.6-3.65,10.95-10.95-7.86-15.71-24.08-25.83-38.63-34.58-16.5-9.93-29.91-18.68-49.92-18.16-14.02.36-13.3,19.72,0,21.28Z"/>
    <path class="cls-2" d="M410.58,551.98c15.37,1.83,35.6.5,49.58-6.57,4.36-2.2,4.56-9.64,0-11.78-15.65-7.36-35.55-1.62-51.96.84-10.8,1.62-6.65,16.43,2.37,17.5Z"/>
    <path class="cls-2" d="M575.23,561.91c-9.67,2.85-19.53,8.74-13.89,19.82,1.29,2.55,3.83,3.31,6.26,2.89,6.06,1.61,12.34-.87,19.21-1.42,9.16-.73,16.14-1.61,24.19-6.41,9.67-5.77,3.39-22.77-7.92-18.78-9.07,3.2-18.52,1.15-27.84,3.9Z"/>
    <path class="cls-2" d="M308.1,528.41c2.31,2.39,6.41,1.19,7.29-1.93,5.15-18.04-17.86-24.62-26.63-35.54-5.94-7.41-19.07,2.57-13.28,10.25,8.69,11.52,22.73,17.01,32.61,27.22Z"/>
    <path class="cls-2" d="M371.53,476.8c10.65,0,10.67-16.55,0-16.55s-10.67,16.55,0,16.55Z"/>
    <path class="cls-2" d="M304.09,600.78c-10.94-1.25-13.15,16.66-2.59,19.11,3.57.83,6.79,2.39,10.27,3.47,3.76,1.17,7.63,1.39,11.52,1.79,6.34.66,15.38,2.24,16.79-6.52,1.34-8.34-7.07-12.8-13.98-14.23-3.51-.73-7.09-.64-10.58-1.41-3.85-.84-7.48-1.76-11.43-2.22Z"/>
    <path class="cls-2" d="M485.12,636.46c-12.29,0-12.31,19.1,0,19.1s12.31-19.1,0-19.1Z"/>
    <path class="cls-2" d="M595.15,516.21c11.12,0,11.13-17.28,0-17.28s-11.13,17.28,0,17.28Z"/>
    <path class="cls-2" d="M204.7,584.39c7.49,0,7.5-11.64,0-11.64s-7.5,11.64,0,11.64Z"/>
    <path class="cls-2" d="M849.89,233.41c1.81-12.08,10.5-21.39,12.82-33.3,1.04-5.31,1.54-9.06,4.53-13.74,3.44-5.38,4.21-8.59,3.08-14.93-1.09-6.05-8.82-8.26-13.63-5.54-10.83,6.14-15.55,16.08-17.38,27.87-1.97,12.81-8.92,23.71-9.43,36.93-.43,11.22,18.29,14.21,20,2.71Z"/>
    <path class="cls-2" d="M989.85,259.69c-4.98-6.66-10.3-13.28-17.65-17.49-7.35-4.2-16.29-2.63-23.27-7.43-11.13-7.63-23.54,9.21-14.22,18.42,6.7,6.62,14.5,8.34,22.63,12.32,3.38,1.66,5.84,4.14,8.88,6.31,4.33,3.1,8.6,4.33,13.85,4.89,8.12.86,14.7-10.43,9.77-17.03Z"/>
    <path class="cls-2" d="M956.6,182.98c1.8,1.71,3.52,2.84,5.93,3.52,1.29.36,2.65.42,3.98.55l1.35.14c1.83.07,3.53-.31,5.12-1.14,1.64-.53,3.07-1.45,4.27-2.75,1.3-1.2,2.21-2.63,2.75-4.27.83-1.58,1.21-3.29,1.14-5.11-.16-1.18-.32-2.35-.47-3.53-.63-2.25-1.77-4.2-3.42-5.86-.89-.69-1.79-1.38-2.69-2.08-2.07-1.2-4.3-1.8-6.7-1.81l-1.35.14c-1.33.13-2.69.19-3.98.55-2.41.68-4.14,1.81-5.93,3.52-1.25,1.16-2.13,2.54-2.65,4.12-.8,1.53-1.17,3.17-1.1,4.94.15,1.13.3,2.27.45,3.41.61,2.17,1.71,4.06,3.3,5.66Z"/>
    <path class="cls-2" d="M889.77,304.53c-14.63,0-14.65,22.73,0,22.73s14.65-22.73,0-22.73Z"/>
    <path class="cls-2" d="M734.7,225.36c6.49,1.31,12.67,3.6,19.09,5.13,6.58,1.57,13.35,4.19,19.52.34,3.49-2.17,5.81-7.76,3-11.44-4.69-6.15-11.14-6.84-18.29-8.72-6.8-1.8-13.87-2.81-20.88-3.34-10.25-.77-12.59,15.99-2.44,18.04Z"/>
    <path class="cls-2" d="M1009,348.83c-1.75-1.01-3.63-1.52-5.65-1.52-2.01,0-3.9.51-5.64,1.52,0,0,0,0,0,0-.51.17-1.01.38-1.47.65-.09.04-.18.08-.28.12-.8.43-1.45,1.01-2.04,1.65-.64.59-1.22,1.24-1.65,2.04-.04.09-.07.17-.11.26-.4.68-.74,1.4-.93,2.2-.26.82-.34,1.64-.33,2.46-.03,1.01.06,2.01.33,3.01.03.08.07.16.1.24.2.77.49,1.51.93,2.21.92,1.55,2.15,2.78,3.69,3.69,0,0,0,0,.01,0,.03.02.07.03.11.05.55.24,1.09.48,1.63.72,1.75,1.01,3.63,1.52,5.64,1.53,2.02,0,3.9-.52,5.65-1.53,3.4-1.99,5.54-5.72,5.54-9.66s-2.13-7.67-5.54-9.66Z"/>
    <path class="cls-2" d="M1109.84,273.2c6.25,0,9.59-4.48,10.09-9.3.52-5.08-2.12-10.52-7.98-11.58-.67-.12-1.36-.21-2.11-.21-13.57,0-13.59,21.1,0,21.1Z"/>
    <path class="cls-2" d="M1074.35,345.19c7.57.54,12.68,3.37,18.51,8.2,2.92,2.42,5.84,5.18,8.34,8.05,1.28,1.47,2.24,3.16,3.65,4.52.88.76,1.8,1.47,2.74,2.15.05.02.07.03.12.05,3.67,4.03,10.28,2.18,12.91-1.9,7.45-11.54-1.78-23.92-11.49-31.95-10.65-8.8-20.85-12.75-34.78-12.21-14.96.58-14.75,22.03,0,23.1Z"/>
    <path class="cls-2" d="M1039.68,220.06c.23,12.74,18.83,12.54,19.64,0,.4-6.18,2.9-12.46,5.62-18.77,5.05-11.72,10.88-23.53,5.59-34.91-2.15-4.63-9.15-5.02-12.42-1.6-5.57,5.82-7.92,14.73-10.72,22.53-.43,1.21-.88,2.4-1.35,3.55-3.87,9.45-6.55,18.91-6.37,29.21Z"/>
    <path class="cls-2" d="M676.79,222.52c-10.53,0-10.55,16.37,0,16.37s10.55-16.37,0-16.37Z"/>
    <path class="cls-2" d="M1347.93,115.6c2.22-9.88,6.07-19.21,8.75-28.94.87-3.13,1.24-6.68,2.84-9.54,1.61-2.87,4.26-4.91,5.81-7.88,1.66-3.17,1.47-7.46-1.29-10.02-.81-.73-1.59-1.5-2.33-2.3-2.05-2.09-6.15-1.81-7.55.95-.06.02-.08.03-.14.06-.56.43-1.12.86-1.67,1.29-1.65,1.25-3.69,2.64-5.19,4.05-3.57,3.33-5.27,7.88-6.66,12.45-3.67,12.16-6.12,25.25-7.58,37.85-1,8.57,13.14,10.35,15,2.03Z"/>
    <path class="cls-2" d="M1409.67,130.22c6.61,2.71,12.73,6.34,19.78,7.74,6.84,1.35,12.49-5.37,9.05-11.77-7.63-14.22-24.62-12.52-36.87-19.92-8.02-4.84-17.75,6.99-10.25,13.28,5.73,4.8,11.4,7.85,18.29,10.67Z"/>
    <path class="cls-2" d="M1429.31,87.62c3.37,0,6.54-1.83,8.24-4.73.86-1.49,1.3-3.09,1.3-4.82,0-1.72-.44-3.33-1.3-4.82-.34-.71-.69-1.42-1.03-2.13-1.26-2.59-4.45-4.14-7.21-4.14s-5.96,1.55-7.21,4.14c-.34.71-.68,1.42-1.03,2.13-.87,1.49-1.3,3.1-1.3,4.82,0,1.72.44,3.33,1.3,4.82,1.7,2.9,4.88,4.73,8.24,4.73Z"/>
    <path class="cls-2" d="M1406.47,204.08c.77-1.21,1.19-2.52,1.25-3.92.25-.93.25-1.87,0-2.8-.04-.85-.25-1.65-.55-2.43-.03-.49-.11-.97-.25-1.41-.6-1.87-1.71-3.29-3.36-4.37l-1.2-.65c-1.33-.78-2.78-1.16-4.32-1.17-1.55,0-2.99.39-4.32,1.17-.55.39-1.12.77-1.68,1.16-.26.2-.52.4-.78.6-.45.35-.9.7-1.35,1.05-.55.71-1.1,1.42-1.65,2.13-.77,1.21-1.19,2.52-1.25,3.92-.25.93-.25,1.87,0,2.8,0,.95.24,1.84.72,2.66.25.89.7,1.67,1.35,2.33.47.79,1.1,1.42,1.89,1.89,1.02.93,2.21,1.56,3.58,1.89.93.13,1.87.25,2.8.38.93-.13,1.87-.25,2.81-.38.84-.36,1.68-.71,2.52-1.06.21-.16.42-.33.63-.49.5-.39,1-.77,1.5-1.16.55-.71,1.1-1.42,1.65-2.13Z"/>
    <path class="cls-2" d="M1262.48,67.41c2.44-.13,4.84-.33,7.21-1,1.63-.45,4.27-2.22,5.96-2.26,1.5-.04,6.59,3.43,9.26,4.51,2.98,1.2,6.08,1.9,9.2,2.63,1.62.38,3.62.21,5.32.3.05.25.87.92,1.4,1.85,1.7,3.02,6.88,3.38,8.48,0,4.76-10.06-3.16-19.04-11.96-23.13-5.15-2.4-9.91-6.37-15.46-7.81-3.58-.93-7.56-.75-11.08.25-2.72.77-5.52,3.07-8.33,3.37-13.32,1.41-13.91,22,0,21.28Z"/>
    <path class="cls-2" d="M1466.54,266.2c1.01,11.34,17.15,11.58,17.82,0,.68-11.82,1.66-22.82,3.78-34.45,1.42-7.79,3.52-17.95-1.51-24.73-1.54-2.08-4.04-3.07-6.47-1.7-9.29,5.25-10.71,14.73-12.61,24.37-2.53,12.72-2.16,23.62-1.01,36.51Z"/>
    <path class="cls-2" d="M1521.59,173.9c13.69,0,13.72-21.28,0-21.28s-13.71,21.28,0,21.28Z"/>
    <path class="cls-2" d="M1559.1,276.36c-6.9.21-12.41,3.19-18.99,4.61-5.52,1.19-8.74,7.64-7.3,12.86,1.65,6.02,7.25,8.1,12.86,7.31,5.36-.76,10-2.67,15.46-2.86,6.63-.23,13.32-.61,17.23-6.64,1.54-2.38,1.47-5.87,0-8.26-3.94-6.37-12.3-7.22-19.25-7.01Z"/>
    <path class="cls-2" d="M1564.19,237.07c12.76,0,12.78-19.82,0-19.82s-12.77,19.82,0,19.82Z"/>
    <path class="cls-2" d="M1623.53,288.5c7.54,7.96,15.08,16.03,24.81,21.38.93.51,1.93.96,2.91,1.42,2.47,1.17,4.98,2.3,7.17,3.87,4.01,2.86,6.29,5.38,11.71,5.63,3.57.17,7.03-2.07,8.81-5.05l.48-.8c2.09-3.51,2.19-8.34,0-11.84-4.45-7.1-10.75-10.34-18.06-13.82-6.05-2.89-10.99-6.98-15.75-11.41-1.96-1.82-3.91-3.69-5.87-5.58-10.64-10.26-26.35,5.49-16.2,16.2Z"/>
    <path class="cls-2" d="M1617.44,212.13c.67,0,1.25-.11,1.87-.19,15.26-1.91,14.69-26.55-1.87-26.55-5.36,0-9.05,2.6-11.07,6.17-4.47,7.89-.79,20.56,11.07,20.56Z"/>
    <path class="cls-2" d="M1476.9,326.55c-.14-3.13-1.17-6.37-3.54-8.55-2.37-2.17-5.27-3.54-8.55-3.54-.09,0-.16.02-.25.02-1.57-.02-3.04.3-4.41,1.02-1.5.49-2.79,1.32-3.89,2.5-1.18,1.1-2.01,2.39-2.5,3.89-.76,1.44-1.11,3-1.05,4.66.14,3.13,1.17,6.37,3.54,8.55,2.37,2.17,5.27,3.54,8.55,3.54,1.67.06,3.22-.28,4.66-1.04,1.5-.49,2.8-1.32,3.89-2.5.05-.04.07-.1.12-.14,1.1-1.07,1.91-2.31,2.38-3.75.76-1.44,1.1-3,1.04-4.66Z"/>
    <path class="cls-2" d="M1512.68,94.36c10.91,5.6,18.89,14.33,29.13,20.8,4.15,2.62,5.81,4.66,9.21,7.91,3.14,3.01,6.85,3.84,10.97,2.52,3.03-.97,4.85-4.59,3.04-7.48-2.04-3.27-.75-8.69-2.73-12.48-2.41-4.64-6.38-8.34-10.29-11.7-9.43-8.13-19.63-14.3-31.15-19.01-11.15-4.55-18.84,13.98-8.2,19.44Z"/>
    <path class="cls-2" d="M1867.62,303.54c5.78,5.86,11.92,11.26,17.98,16.8,1.26,1.16,2.54,2.29,3.79,3.46,5.11,4.81,10.18,10.62,16.8,12.83,4.26,4.28,13.34,2.04,14.37-4.2.09-.55.16-.99.22-1.36.09-.05.33-.71.9-2.77,1-3.62.1-6.49-1.29-9.79-1.03-2.46-2.41-4.75-3.97-6.93-1.6-2.21-3.39-4.3-5.23-6.29-8.04-8.72-18.13-15.6-28.25-21.62-12.39-7.36-25.39,9.62-15.32,19.85Z"/>
    <path class="cls-2" d="M2003.32,426.32c-6.57-4.35-13.75-8.11-20.63-11.93-15.05-8.34-28.41,14.44-13.5,23.08,6.07,3.52,11.9,7.56,18.2,10.64,5.17,2.52,11.05,4.21,15.86,7.05,3.49,2.06,7.91,1.08,10.84-1.42,2.52-2.14,3.96-5.38,2.65-8.95-.86-2.34-1.85-4.49-2.94-6.55-2.48-4.7-5.66-8.72-10.49-11.92Z"/>
    <path class="cls-2" d="M1904.95,421.46c17.09,0,17.11-26.55,0-26.55-5.4,0-9.09,2.66-11.08,6.29-2.72,4.97-2.25,11.78,1.45,16.1,2.14,2.5,5.35,4.16,9.63,4.16Z"/>
  </g>
</svg>