<svg id="Layer_1" data-name="Layer 1" xmlns="http://www.w3.org/2000/svg" viewBox="0 0 512 512"><path d="M286.4,106.89c-9.44-5.41-21.95-9.12-31.49-9.12a83.852,83.852,0,0,1-.99-11.32c-.47-18.43,3.78-53.33,41.95-57.95C295.87,28.5,322.79,87.27,286.4,106.89Z" style="fill:#81c83d"/><path d="M239.21,100.42A65.11,65.11,0,0,0,225,106.79h-.01c-41.09-4.6-38.61-69.39-38.61-69.39,50.78-13.65,67.54,49.05,67.54,49.05a83.852,83.852,0,0,0,.99,11.32A54.05,54.05,0,0,0,239.21,100.42Z" style="fill:#50dd5a"/><path d="M273.543,107.2a6,6,0,0,1-5.816-7.491l8.592-33.5a6,6,0,0,1,11.624,2.98l-8.592,33.5A6,6,0,0,1,273.543,107.2Z" style="fill:#6ba52f"/><path d="M239.218,106.418a5.991,5.991,0,0,1-4.691-2.254l-25.419-31.8a6,6,0,0,1,9.374-7.492l25.419,31.8a6,6,0,0,1-4.683,9.746Z" style="fill:#3bb741"/><path d="M474.79,321.19v.01c0,89.44-72.54,162.3-162.03,162.3H203.49C114,483.5,41.46,410.99,41.46,321.55h429.1A24.557,24.557,0,0,0,474.79,321.19Z" style="fill:#55d8d8"/><path d="M91.46,321.55h-50c0,89.44,72.54,161.95,162.03,161.95h50C164,483.5,91.46,410.99,91.46,321.55Z" style="fill:#50b5b2"/><path d="M469.08,248.41c0,6.92-3.7,17.52-9.23,22.26H52.15c-5.53-4.74-9.23-15.34-9.23-22.26,0-10.43,7.68-19.46,18.86-23.85a23.714,23.714,0,0,1-.76-5.97c0-15.95,16.03-28.97,36.21-29.78-.05-.5-.07-1.01-.07-1.52,0-11.49,10.58-21.05,24.56-23.07a19.755,19.755,0,0,1-.54-4.56c0-13.74,14.27-24.88,31.87-24.88a39.582,39.582,0,0,1,11.04,1.54c1.99-11.94,15.05-21.16,30.89-21.16a37.408,37.408,0,0,1,17.6,4.26c1.78-4.58,6.44-8.99,12.41-12.63H225a65.11,65.11,0,0,1,14.21-6.37,54.05,54.05,0,0,1,15.7-2.65c9.54,0,22.05,3.71,31.49,9.12,6.32,3.62,11.26,7.99,13.02,12.53a37.408,37.408,0,0,1,17.6-4.26c15.84,0,28.9,9.22,30.89,21.16a39.582,39.582,0,0,1,11.04-1.54c17.6,0,31.87,11.14,31.87,24.88a19.755,19.755,0,0,1-.54,4.56c13.98,2.02,24.56,11.58,24.56,23.07,0,.51-.02,1.02-.07,1.52,20.18.81,36.21,13.83,36.21,29.78a23.714,23.714,0,0,1-.76,5.97C461.4,228.95,469.08,237.98,469.08,248.41Z" style="fill:#e9fbff"/><path d="M92.92,248.41c0-10.43,7.68-19.46,18.86-23.85a23.714,23.714,0,0,1-.76-5.97c0-15.95,16.03-28.97,36.21-29.78-.05-.5-.07-1.01-.07-1.52,0-11.49,10.58-21.05,24.56-23.07a19.755,19.755,0,0,1-.54-4.56c0-13.74,14.27-24.88,31.87-24.88a39.582,39.582,0,0,1,11.04,1.54c1.99-11.94,15.05-21.16,30.89-21.16a37.408,37.408,0,0,1,17.6,4.26c1.78-4.58,6.44-8.99,12.41-12.63H275a59.748,59.748,0,0,1,5.421-2.918c-8.343-3.722-17.876-6.1-25.511-6.1a54.05,54.05,0,0,0-15.7,2.65A65.11,65.11,0,0,0,225,106.79h-.01c-5.97,3.64-10.63,8.05-12.41,12.63a37.408,37.408,0,0,0-17.6-4.26c-15.84,0-28.9,9.22-30.89,21.16a39.582,39.582,0,0,0-11.04-1.54c-17.6,0-31.87,11.14-31.87,24.88a19.755,19.755,0,0,0,.54,4.56c-13.98,2.02-24.56,11.58-24.56,23.07,0,.51.02,1.02.07,1.52-20.18.81-36.21,13.83-36.21,29.78a23.714,23.714,0,0,0,.76,5.97c-11.18,4.39-18.86,13.42-18.86,23.85,0,6.92,3.7,17.52,9.23,22.26h50C96.62,265.93,92.92,255.33,92.92,248.41Z" style="fill:#ace1ea"/><path d="M404.23,221.21a5.975,5.975,0,1,1-6,5.98A5.994,5.994,0,0,1,404.23,221.21Z" style="fill:#d4e1f4"/><path d="M329.35,192.88a5.975,5.975,0,1,1-6,5.97A5.979,5.979,0,0,1,329.35,192.88Z" style="fill:#d4e1f4"/><path d="M271.79,145.27a5.975,5.975,0,1,1-6,5.97A5.979,5.979,0,0,1,271.79,145.27Z" style="fill:#d4e1f4"/><ellipse cx="250.81" cy="230.59" rx="6" ry="5.98" style="fill:#d4e1f4"/><path d="M190.85,146.55a5.975,5.975,0,1,1-6,5.98A5.988,5.988,0,0,1,190.85,146.55Z" style="fill:#d4e1f4"/><ellipse cx="158.99" cy="208.82" rx="6" ry="5.98" style="fill:#d4e1f4"/><path d="M102.77,230.05a6,6,0,1,1-6.03,6A6.009,6.009,0,0,1,102.77,230.05Z" style="fill:#d4e1f4"/><path d="M470.56,270.67H41.44a25.44,25.44,0,0,0,0,50.88H470.56a24.557,24.557,0,0,0,4.23-.36,25.437,25.437,0,0,0-4.23-50.52Z" style="fill:#61a3bc"/><path d="M66,296.11a25.436,25.436,0,0,1,25.44-25.44h-50a25.44,25.44,0,0,0,0,50.88h50A25.44,25.44,0,0,1,66,296.11Z" style="fill:#468391"/></svg>