<svg id="Layer_1" data-name="Layer 1" xmlns="http://www.w3.org/2000/svg" viewBox="0 0 512 512"><polygon points="347 463.16 344.1 496 311.45 496 308.55 463.16 347 463.16" style="fill:#73849b"/><polygon points="203.45 463.16 200.55 496 167.9 496 165 463.16 203.45 463.16" style="fill:#73849b"/><polygon points="369.745 134 142.255 134 142 133.48 142 157 370 157 370 133.48 369.745 134" style="fill:#4ca987"/><path d="M370,157.19v-.01a17.923,17.923,0,0,0-6.61-1.18H148.61a14.943,14.943,0,0,0-6.065,1.225A15.762,15.762,0,0,0,133,171.91V448.16A15.531,15.531,0,0,0,148.61,464H363.39A15.531,15.531,0,0,0,379,448.16V171.91A16.567,16.567,0,0,0,370,157.19Z" style="fill:#88ced8"/><path d="M379.39,32v86.52a15.995,15.995,0,0,1-16,16H148.61a15.995,15.995,0,0,1-16-16V32a16,16,0,0,1,16-16H363.39A16,16,0,0,1,379.39,32Z" style="fill:#88ced8"/><path d="M163,448.16V171.91a15.762,15.762,0,0,1,9.545-14.685A14.943,14.943,0,0,1,178.61,156h-30a14.943,14.943,0,0,0-6.065,1.225A15.762,15.762,0,0,0,133,171.91V448.16A15.531,15.531,0,0,0,148.61,464h30A15.531,15.531,0,0,1,163,448.16Z" style="fill:#659ca0"/><path d="M163,118.52V32a15.667,15.667,0,0,1,15.61-16h-30A15.667,15.667,0,0,0,133,32v86.52a16.173,16.173,0,0,0,9.625,15A15.13,15.13,0,0,0,148.61,135h30a15.13,15.13,0,0,1-5.985-1.48A16.173,16.173,0,0,1,163,118.52Z" style="fill:#659ca0"/><path d="M165.049,97.624a6,6,0,0,1-6-6v-37.3a6,6,0,0,1,12,0v37.3A6,6,0,0,1,165.049,97.624Z" style="fill:#487172"/><path d="M165.049,281.484a6,6,0,0,1-6-6V187.008a6,6,0,0,1,12,0v88.476A6,6,0,0,1,165.049,281.484Z" style="fill:#487172"/><path d="M337.339,385a6,6,0,0,1-6-6V197.6a6,6,0,1,1,12,0V379A6,6,0,0,1,337.339,385Z" style="fill:#a1f8ff"/><path d="M337.339,439.318a6,6,0,0,1-6-6V410.239a6,6,0,0,1,12,0v23.079A6,6,0,0,1,337.339,439.318Z" style="fill:#a1f8ff"/></svg>