<?xml version="1.0" encoding="UTF-8"?>
<svg id="Capa_1" data-name="Capa 1" xmlns="http://www.w3.org/2000/svg" viewBox="0 0 1466.47 1240.86">
  <defs>
    <style>
      .cls-1 {
        fill: #bae3f2;
      }

      .cls-2 {
        fill: #e5f5f7;
      }

      .cls-3 {
        fill: #f3ac00;
      }

      .cls-4 {
        fill: #e09500;
      }

      .cls-5 {
        fill: #c9e9f4;
      }

      .cls-6 {
        fill: #fad700;
      }

      .cls-7 {
        fill: #f6c100;
      }
    </style>
  </defs>
  <path class="cls-5" d="M1466,495.91c-.07-.57-.17-1.14-.26-1.7-.29-1.87-.66-3.72-1.14-5.53-.1-.39-.19-.78-.3-1.16-1.3-4.61-3.16-8.97-5.52-13.02,0,0,0,0,0,0-3.6-6.18-8.41-11.51-13.99-15.92h.22l-1.01-.65c-2.62-1.99-5.35-3.83-8.3-5.35l-96.48-62.16V98.08h-453.76L733.24,0l-152.23,98.08H146.96v279.65l-116.19,74.86c-9.37,4.81-17.19,12.16-22.61,21.15h0s0,0,0,0c-2.53,4.19-4.54,8.72-5.92,13.53-.07.26-.13.52-.2.78-.54,1.96-.95,3.97-1.28,6.01-.09.56-.18,1.11-.26,1.68-.3,2.34-.5,4.72-.5,7.14,0,0,0,0,0,.02v681.41c0,1.81.1,3.6.27,5.36.06.63.16,1.26.24,1.88.14,1.1.3,2.2.5,3.28.15.78.33,1.55.51,2.32.2.87.42,1.74.67,2.6.25.87.51,1.73.8,2.59.23.68.48,1.34.73,2.01.37.97.74,1.94,1.16,2.88.16.36.34.7.51,1.05,1.83,3.91,4.09,7.58,6.73,10.94,0,0,0,.01.01.02,0,0,0,0,0,0,3.85,4.89,8.47,9.13,13.71,12.53.2.13.41.24.61.37,1.46.92,2.96,1.78,4.5,2.57.46.23.93.45,1.39.67,1.32.63,2.67,1.21,4.05,1.74.6.23,1.2.45,1.81.66,1.3.45,2.63.84,3.97,1.19.67.18,1.33.36,2,.51,1.39.31,2.82.55,4.25.75.63.09,1.24.22,1.88.29,2.06.23,4.15.37,6.28.37h1353.34c1.74,0,3.45-.11,5.15-.26.47-.04.94-.1,1.42-.15,1.37-.16,2.72-.36,4.06-.62.34-.07.7-.11,1.04-.19,1.58-.33,3.14-.74,4.67-1.2.48-.15.96-.31,1.43-.47,1.1-.37,2.18-.76,3.25-1.19.52-.21,1.05-.41,1.56-.64,1.36-.6,2.7-1.23,4-1.93.54-.29,1.07-.62,1.6-.92.82-.47,1.62-.96,2.41-1.47.64-.42,1.28-.84,1.9-1.28.66-.47,1.3-.96,1.94-1.45,1.12-.87,2.21-1.77,3.26-2.72.47-.42.94-.83,1.39-1.27.69-.66,1.36-1.35,2.01-2.04.35-.37.69-.75,1.03-1.14,2.19-2.45,4.17-5.1,5.91-7.91.21-.33.41-.66.61-1,.56-.94,1.1-1.9,1.61-2.87.12-.23.2-.47.31-.7.8-1.61,1.54-3.24,2.19-4.93.12-.3.22-.61.33-.91.59-1.62,1.1-3.28,1.55-4.97.13-.48.26-.96.37-1.45.37-1.58.65-3.19.89-4.82.08-.54.18-1.07.25-1.61.25-2.12.4-4.27.4-6.46V502.89c0-2.37-.19-4.68-.47-6.97Z"/>
  <path class="cls-7" d="M1466,495.91c-.07-.57-.17-1.14-.26-1.7-.29-1.87-.66-3.72-1.14-5.53-.1-.39-.19-.78-.3-1.16-1.31-4.6-3.16-8.97-5.52-13.02,0,0,0,0,0,0l-119.55,87.19-99.12,72.29-61.41,44.79-39.64,28.91-40.79,29.75-39.64,28.91-40.79,29.75-39.64,28.91-115.19,84.01-129.76-65.43-127.14,66.23-35.49-25.88-80.8-58.93-39.64-28.91-40.79-29.75-39.64-28.91-40.79-29.75-39.64-28.91-142.35-103.82L8.16,473.73h0s0,0,0,0c-2.53,4.19-4.53,8.73-5.92,13.53-.07.26-.13.52-.2.78-.54,1.96-.95,3.97-1.28,6.01-.09.56-.18,1.11-.26,1.68-.3,2.34-.5,4.72-.5,7.14,0,0,0,0,0,.02v681.41c0,1.81.1,3.6.27,5.36.06.63.16,1.26.24,1.88.14,1.1.3,2.2.5,3.28.15.78.33,1.55.51,2.32.2.87.42,1.74.67,2.6.25.87.51,1.73.8,2.59.23.68.48,1.34.73,2.01.37.97.74,1.94,1.16,2.88.16.36.34.7.51,1.05,1.84,3.91,4.09,7.58,6.73,10.94,0,0,0,.01.01.02,0,0,0,0,0,0,3.85,4.89,8.48,9.12,13.71,12.53.2.13.41.24.61.37,1.46.92,2.96,1.78,4.5,2.57.46.23.93.45,1.39.67,1.32.63,2.67,1.21,4.05,1.74.6.23,1.2.45,1.81.66,1.3.45,2.63.84,3.97,1.19.67.18,1.33.36,2,.51,1.39.31,2.82.55,4.25.75.63.09,1.24.22,1.88.29,2.06.23,4.15.37,6.28.37h1353.34c1.74,0,3.45-.11,5.15-.26.47-.04.94-.1,1.41-.15,1.37-.16,2.72-.36,4.06-.62.34-.07.69-.11,1.04-.19,1.58-.33,3.14-.74,4.67-1.2.48-.15.96-.31,1.43-.47,1.1-.37,2.18-.76,3.25-1.19.52-.21,1.05-.41,1.56-.64,1.36-.6,2.7-1.23,4-1.93.54-.29,1.07-.62,1.6-.92.82-.47,1.62-.96,2.41-1.47.64-.42,1.28-.84,1.9-1.28.66-.47,1.3-.96,1.94-1.45,1.12-.87,2.21-1.77,3.26-2.72.47-.42.94-.83,1.39-1.27.69-.66,1.36-1.35,2.01-2.04.35-.37.69-.75,1.03-1.14,2.19-2.45,4.17-5.1,5.91-7.91.21-.33.41-.66.61-1,.56-.94,1.1-1.9,1.61-2.87.12-.23.2-.47.31-.7.8-1.61,1.54-3.24,2.19-4.93.12-.3.22-.61.33-.91.59-1.62,1.1-3.28,1.55-4.97.13-.48.26-.96.37-1.45.37-1.58.65-3.19.89-4.82.08-.54.18-1.07.25-1.61.25-2.12.4-4.27.4-6.46V502.89c0-2.37-.19-4.69-.47-6.97Z"/>
  <polygon class="cls-3" points="733.24 0 581 98.08 804.99 98.08 885.47 98.08 733.24 0"/>
  <polygon class="cls-3" points="1435.71 452.58 1339.23 390.43 1435.7 452.58 1435.71 452.58"/>
  <path class="cls-3" d="M146.96,446.32v-68.59l-116.19,74.86c7.74-3.98,16.5-6.27,25.8-6.27h90.39Z"/>
  <path class="cls-6" d="M1457.96,1214.03c-1.74,2.81-3.72,5.45-5.91,7.91,2.19-2.45,4.17-5.1,5.91-7.91Z"/>
  <path class="cls-6" d="M146.96,446.32H56.57c-9.3,0-18.06,2.29-25.8,6.27-9.37,4.81-17.19,12.16-22.61,21.15l138.8,101.23v-128.64Z"/>
  <path class="cls-6" d="M12.13,1219.22c3.85,4.89,8.47,9.13,13.71,12.53-5.23-3.4-9.86-7.64-13.71-12.53Z"/>
  <path class="cls-6" d="M2.24,487.26c1.39-4.8,3.39-9.34,5.92-13.53-2.53,4.19-4.54,8.72-5.92,13.53Z"/>
  <path class="cls-6" d="M1458.78,474.5c2.36,4.05,4.21,8.42,5.52,13.02-1.3-4.61-3.16-8.97-5.52-13.02Z"/>
  <path class="cls-6" d="M1466,495.91c.29,2.29.47,4.61.47,6.97,0-2.37-.19-4.68-.47-6.97Z"/>
  <path class="cls-6" d="M12.11,1219.2c-2.64-3.36-4.89-7.04-6.73-10.94,1.84,3.91,4.09,7.58,6.73,10.94Z"/>
  <path class="cls-6" d="M1409.9,446.32h-70.68v115.38l119.55-87.19c-3.6-6.18-8.41-11.51-13.99-15.92h-8.47l-26.42-12.27Z"/>
  <path class="cls-6" d="M1444,457.93c-2.62-1.99-5.35-3.83-8.3-5.35t0,0l8.3,5.35Z"/>
  <polygon class="cls-4" points="1409.9 446.32 1436.33 458.58 1444.8 458.58 1445.02 458.58 1444 457.93 1435.7 452.58 1339.23 390.43 1339.23 446.32 1409.9 446.32"/>
  <path class="cls-4" d="M885.47,98.08L733.24,0s37.79,41.81,71.75,98.08h80.48Z"/>
  <path class="cls-1" d="M1210.13,200.38c7.98,0,14.45,6.47,14.45,14.45h0c0,7.99-6.47,14.46-14.45,14.46h-588.16c124.95,42.7,255.17,95.11,364.26,156.17h223.91c7.98,0,14.45,6.47,14.45,14.45h0c0,7.99-6.47,14.46-14.45,14.46h-174.98c15.55,9.72,30.52,19.64,44.8,29.75h130.18c7.98,0,14.45,6.47,14.45,14.45h0c0,7.99-6.47,14.46-14.45,14.46h-91.91c12.04,9.75,23.4,19.67,34.03,29.75h57.87c7.98,0,14.45,6.47,14.45,14.45h0c0,7.99-6.47,14.46-14.45,14.46h-29.87c8.63,9.78,16.52,19.7,23.64,29.75h6.23c7.98,0,14.45,6.47,14.45,14.45h0c0,4.23-1.84,8-4.74,10.64,8.73,15.51,15.55,31.32,20.26,47.44l99.12-72.29V98.08H146.96s175.74,35.98,386.78,102.3h676.4Z"/>
  <path class="cls-2" d="M1224.59,214.84h0c0-7.99-6.47-14.46-14.45-14.46H256.94c-7.98,0-14.45,6.47-14.45,14.45h0c0,7.99,6.47,14.46,14.45,14.46h953.19c7.98,0,14.45-6.47,14.45-14.45Z"/>
  <path class="cls-2" d="M1224.59,399.93h0c0-7.99-6.47-14.46-14.45-14.46H256.94c-7.98,0-14.45,6.47-14.45,14.45h0c0,7.99,6.47,14.46,14.45,14.46h953.19c7.98,0,14.45-6.47,14.45-14.45Z"/>
  <path class="cls-2" d="M1224.59,458.59h0c0-7.99-6.47-14.46-14.45-14.46H256.94c-7.98,0-14.45,6.47-14.45,14.45h0c0,7.99,6.47,14.46,14.45,14.46h953.19c7.98,0,14.45-6.47,14.45-14.45Z"/>
  <path class="cls-2" d="M1224.59,517.25h0c0-7.99-6.47-14.46-14.45-14.46H256.94c-7.98,0-14.45,6.47-14.45,14.45h0c0,7.99,6.47,14.46,14.45,14.46h953.19c7.98,0,14.45-6.47,14.45-14.45Z"/>
  <path class="cls-2" d="M1224.59,575.91c0-7.98-6.47-14.45-14.45-14.45H256.94c-7.98,0-14.45,6.47-14.45,14.45h0c0,7.99,6.47,14.46,14.45,14.46h953.19c3.76,0,7.15-1.47,9.72-3.82,2.89-2.64,4.74-6.41,4.74-10.63h0Z"/>
  <rect class="cls-2" x="242.49" y="620.11" width="982.1" height="28.91" rx="14.45" ry="14.45"/>
  <polygon class="cls-2" points="328.94 707.69 1139.06 707.69 1178.7 678.78 289.3 678.78 328.94 707.69"/>
  <polygon class="cls-2" points="409.38 766.35 1058.62 766.35 1098.26 737.44 369.74 737.44 409.38 766.35"/>
  <polygon class="cls-2" points="489.81 825.01 978.19 825.01 1017.83 796.1 450.17 796.1 489.81 825.01"/>
  <path class="cls-3" d="M733.24,843.59l-127.14,66.23L12.13,1219.22s0,0,0,0c3.85,4.89,8.48,9.12,13.71,12.53.2.13.41.24.61.37,1.46.92,2.96,1.78,4.5,2.57.46.23.93.45,1.39.67,1.32.63,2.67,1.21,4.05,1.74.6.23,1.2.45,1.81.66,1.3.45,2.63.84,3.97,1.19.67.18,1.33.36,2,.51,1.39.31,2.82.55,4.25.75.63.09,1.24.22,1.88.29,2.06.23,4.15.37,6.28.37h1353.34c1.74,0,3.45-.11,5.15-.26.47-.04.94-.1,1.41-.15,1.37-.16,2.72-.36,4.06-.62.34-.07.69-.11,1.04-.19,1.58-.33,3.14-.74,4.67-1.2.48-.15.96-.31,1.43-.47,1.1-.37,2.18-.76,3.25-1.19.52-.21,1.05-.41,1.56-.64,1.36-.6,2.7-1.23,4-1.93.54-.29,1.07-.62,1.6-.92.82-.47,1.62-.96,2.41-1.47.64-.42,1.28-.84,1.9-1.28.66-.47,1.3-.96,1.94-1.45,1.12-.87,2.21-1.77,3.26-2.72.47-.42.94-.83,1.39-1.27.69-.66,1.36-1.35,2.01-2.04.35-.37.69-.75,1.03-1.14,2.19-2.45,4.17-5.1,5.91-7.91.21-.33.41-.66.61-1,.56-.94,1.1-1.9,1.61-2.87l-597.18-301.13-129.76-65.43Z"/>
  <polygon class="cls-4" points="570.61 883.94 12.13 1219.22 606.09 909.82 570.61 883.94"/>
  <polygon class="cls-4" points="863 909.02 1460.18 1210.15 897.39 883.94 863 909.02"/>
</svg>