<?xml version="1.0" encoding="UTF-8"?>
<svg xmlns="http://www.w3.org/2000/svg" xmlns:xlink="http://www.w3.org/1999/xlink" viewBox="0 0 984.77 1050.2">
  <defs>
    <style>
      .cls-1 {
        fill: #e5e5e6;
      }

      .cls-2 {
        mask: url(#mask-1);
      }

      .cls-3 {
        mask: url(#mask);
      }

      .cls-4 {
        fill: #5e0000;
      }

      .cls-5 {
        fill: #dea675;
      }

      .cls-6 {
        fill: url(#_名称未設定グラデーション_14);
      }

      .cls-7 {
        isolation: isolate;
      }

      .cls-8 {
        fill: #f2ede7;
      }

      .cls-8, .cls-9 {
        mix-blend-mode: multiply;
      }

      .cls-9 {
        fill: url(#_名称未設定グラデーション_15);
      }

      .cls-10 {
        fill: #ff5d39;
      }

      .cls-11 {
        filter: url(#luminosity-noclip);
      }
    </style>
    <filter id="luminosity-noclip" x="0" y="0" width="468.79" height="974.28" color-interpolation-filters="sRGB" filterUnits="userSpaceOnUse">
      <feFlood flood-color="#fff" result="bg"/>
      <feBlend in="SourceGraphic" in2="bg"/>
    </filter>
    <filter id="luminosity-noclip-2" x="0" y="-8918.2" width="468.79" height="32766" color-interpolation-filters="sRGB" filterUnits="userSpaceOnUse">
      <feFlood flood-color="#fff" result="bg"/>
      <feBlend in="SourceGraphic" in2="bg"/>
    </filter>
    <mask id="mask-1" x="0" y="-8918.2" width="468.79" height="32766" maskUnits="userSpaceOnUse"/>
    <linearGradient id="_名称未設定グラデーション_15" data-name="名称未設定グラデーション 15" x1="234.4" y1="0" x2="234.4" y2="974.28" gradientUnits="userSpaceOnUse">
      <stop offset="0" stop-color="#000"/>
      <stop offset="1" stop-color="#f6f6f6"/>
    </linearGradient>
    <mask id="mask" x="0" y="0" width="468.79" height="974.28" maskUnits="userSpaceOnUse">
      <g class="cls-11">
        <g class="cls-2">
          <path class="cls-9" d="M237.9,974.28l-25.32-.08c.14-42.62,6.38-80.47,12.41-117.07,8.38-50.83,16.29-98.84,5.19-150.44-2.61-12.16-8.76-21-14.7-29.55-7.37-10.61-14.99-21.59-13.26-36.4,1.68-14.44,12.21-29.13,34.12-47.62,21.63-18.26,59.73-21.45,100.06-24.83,47.68-3.99,96.99-8.12,106.61-37.28.77-2.32.6-4.17-.57-6.37-3.13-5.89-14.02-15.63-48.14-28.56-27.5-10.42-63.54-20.59-101.7-31.36-61.84-17.45-131.93-37.23-187.3-64.15C38.39,368.02,4.07,330.21.37,284.96c-2.48-30.31,7.4-62.6,29.36-95.98,18.52-28.16,45.2-56.57,79.28-84.43C175.68,50.05,251.87,12.77,297.8,0l6.78,24.39c-43.39,12.06-115.73,47.58-179.55,99.75C57.09,179.68,21.78,236.06,25.6,282.89c6.7,82.06,154.84,123.86,273.88,157.46,38.71,10.92,75.27,21.24,103.8,32.05,34.71,13.15,53.68,25.6,61.52,40.35,4.4,8.28,5.18,17.33,2.25,26.19-6.88,20.86-24.04,35.06-52.46,43.43-22.64,6.67-49.81,8.94-76.08,11.14-34.6,2.9-70.38,5.9-85.85,18.95-15.94,13.46-24.46,23.96-25.3,31.21-.59,5.05,2.83,10.26,8.91,19.02,6.67,9.61,14.97,21.56,18.65,38.67,12.11,56.29,3.82,106.6-4.96,159.87-5.87,35.62-11.94,72.45-12.07,113.04Z"/>
        </g>
      </g>
    </mask>
    <linearGradient id="_名称未設定グラデーション_14" data-name="名称未設定グラデーション 14" x1="234.4" y1="0" x2="234.4" y2="974.28" gradientUnits="userSpaceOnUse">
      <stop offset="0" stop-color="#bdbdbd"/>
      <stop offset="1" stop-color="#afabaa"/>
    </linearGradient>
  </defs>
  <g class="cls-7">
    <g id="_レイヤー_1" data-name="レイヤー 1">
      <g class="cls-3">
        <path class="cls-6" d="M237.9,974.28l-25.32-.08c.14-42.62,6.38-80.47,12.41-117.07,8.38-50.83,16.29-98.84,5.19-150.44-2.61-12.16-8.76-21-14.7-29.55-7.37-10.61-14.99-21.59-13.26-36.4,1.68-14.44,12.21-29.13,34.12-47.62,21.63-18.26,59.73-21.45,100.06-24.83,47.68-3.99,96.99-8.12,106.61-37.28.77-2.32.6-4.17-.57-6.37-3.13-5.89-14.02-15.63-48.14-28.56-27.5-10.42-63.54-20.59-101.7-31.36-61.84-17.45-131.93-37.23-187.3-64.15C38.39,368.02,4.07,330.21.37,284.96c-2.48-30.31,7.4-62.6,29.36-95.98,18.52-28.16,45.2-56.57,79.28-84.43C175.68,50.05,251.87,12.77,297.8,0l6.78,24.39c-43.39,12.06-115.73,47.58-179.55,99.75C57.09,179.68,21.78,236.06,25.6,282.89c6.7,82.06,154.84,123.86,273.88,157.46,38.71,10.92,75.27,21.24,103.8,32.05,34.71,13.15,53.68,25.6,61.52,40.35,4.4,8.28,5.18,17.33,2.25,26.19-6.88,20.86-24.04,35.06-52.46,43.43-22.64,6.67-49.81,8.94-76.08,11.14-34.6,2.9-70.38,5.9-85.85,18.95-15.94,13.46-24.46,23.96-25.3,31.21-.59,5.05,2.83,10.26,8.91,19.02,6.67,9.61,14.97,21.56,18.65,38.67,12.11,56.29,3.82,106.6-4.96,159.87-5.87,35.62-11.94,72.45-12.07,113.04Z"/>
      </g>
      <g>
        <rect class="cls-1" x="208.98" y="948.92" width="775.79" height="101.27"/>
        <rect class="cls-5" x="768.18" y="948.92" width="216.59" height="101.27"/>
        <rect class="cls-10" x="208.77" y="948.92" width="46.03" height="101.27"/>
      </g>
      <path class="cls-4" d="M254.94,948.78l-4.14,4.14,2.07,4.14-2.07,5.17v7.24l4,4.76-4,7.66,2.07,4.14v6.21l-2.07,7.24v12.42s-5.17,5.17-4.14,7.24c1.03,2.07,4.14,5.17,4.14,5.17v16.56l-4.14,5.17h4.14l-.07,4.14h4.07s.14-14.18.14-14.18l3.1-3.42v-3.1l-3.24-4.66,3.24-3.62v-32.08l2.07-5.17v-35.04l-5.17-.14Z"/>
      <rect class="cls-8" x="208.37" y="999.49" width="776.17" height="50.71"/>
    </g>
  </g>
</svg>