<?xml version="1.0" encoding="UTF-8"?>
<svg id="Capa_1" data-name="Capa 1" xmlns="http://www.w3.org/2000/svg" viewBox="0 0 1305.52 1414.2">
  <defs>
    <style>
      .cls-1 {
        fill: #f7a70a;
      }

      .cls-2 {
        fill: #dadada;
      }

      .cls-3 {
        fill: #b9b8b8;
      }

      .cls-4 {
        fill: #ffd200;
      }

      .cls-5 {
        fill: #ffde00;
      }

      .cls-6 {
        fill: #ededed;
      }

      .cls-7 {
        stroke: #454f56;
        stroke-linecap: round;
        stroke-width: 6.89px;
      }

      .cls-7, .cls-8 {
        fill: none;
        stroke-miterlimit: 10;
      }

      .cls-9 {
        fill: #c6c6c6;
      }

      .cls-8 {
        stroke: #fff;
        stroke-width: 14.08px;
      }

      .cls-10 {
        fill: #454f56;
      }
    </style>
  </defs>
  <path class="cls-6" d="M830.57,209.37h-355.62s6.84-129.73,28.17-174.39c11.43-23.94,35.48-34.98,47.61-34.98h209.93c14.74,0,36.96,8.01,46.15,27.24,17.91,37.51,23.75,182.13,23.75,182.13Z"/>
  <path class="cls-4" d="M1178.2,718.37c-9.42,4.05-28.11-18.36-41.74-50.06h0c-13.63-31.7-17.03-60.68-7.6-64.73,0,0,49.11-41.31,107.4-46.17,58.29-4.86,69.26,108.66,29.47,130.66l-87.52,30.3Z"/>
  <path class="cls-4" d="M121.35,718.37c9.42,4.05,28.11-18.36,41.74-50.06h0c13.63-31.7,17.03-60.68,7.6-64.73,0,0-49.11-41.31-107.4-46.17-58.29-4.86-69.26,108.66-29.47,130.66l87.53,30.3Z"/>
  <path class="cls-4" d="M1203.22,766.85H105.85s21.12-400.33,86.94-538.14c35.28-73.86,109.49-107.95,146.93-107.95h647.82c45.48,0,114.05,24.74,142.39,84.08,55.27,115.75,73.28,562.02,73.28,562.02Z"/>
  <path class="cls-10" d="M1164.21,766.85H144.87s19.62-371.87,80.76-499.88c32.77-68.61,101.7-100.27,136.48-100.27h601.76c42.24,0,105.94,22.97,132.27,78.09,51.34,107.51,68.07,522.06,68.07,522.06Z"/>
  <line class="cls-8" x1="343.41" y1="612.05" x2="948.23" y2="299.86"/>
  <line class="cls-8" x1="535.11" y1="612.05" x2="894.16" y2="424.28"/>
  <path class="cls-10" d="M81.36,1066.06v310.65c0,20.72,16.8,37.5,37.52,37.5h157.88c20.7,0,37.53-16.77,37.53-37.5v-310.65H81.36Z"/>
  <path class="cls-10" d="M1007.06,1066.06v310.65c0,20.72,16.8,37.5,37.52,37.5h157.88c20.7,0,37.53-16.77,37.53-37.5v-310.65h-232.93Z"/>
  <path class="cls-4" d="M1265.73,1138.23v-357.38c0-63.39-51.38-114.78-114.79-114.78,0,0-228.47-28.02-517.74-28.02s-475.08,28.02-475.08,28.02c-63.39,0-114.77,51.4-114.77,114.78v357.38h1222.38Z"/>
  <path class="cls-9" d="M550.51,299.86c-13.22,0-23.93-21.41-23.93-47.83h0c0-26.42,10.72-47.81,23.93-47.81h208.05c13.22,0,23.95,21.4,23.95,47.81h0c0,26.42-10.73,47.83-23.95,47.83h-208.05Z"/>
  <rect class="cls-2" x="347.18" y="766.63" width="606.96" height="266.57"/>
  <rect class="cls-3" x="388.06" y="784.58" width="525.21" height="230.67"/>
  <path class="cls-1" d="M1206.9,892.43c0,59.55-48.28,107.83-107.84,107.83s-107.84-48.28-107.84-107.83,48.27-107.85,107.84-107.85,107.84,48.29,107.84,107.85Z"/>
  <path class="cls-1" d="M325.21,892.43c0,59.55-48.27,107.83-107.83,107.83s-107.85-48.28-107.85-107.83,48.27-107.85,107.85-107.85,107.83,48.29,107.83,107.85Z"/>
  <rect class="cls-2" x="371.29" y="824.05" width="564" height="29.68"/>
  <rect class="cls-2" x="371.29" y="885.07" width="564" height="29.69"/>
  <rect class="cls-2" x="371.29" y="946.1" width="564" height="29.69"/>
  <path class="cls-5" d="M287.2,869.4c0,25.06-20.31,45.36-45.36,45.36s-45.36-20.31-45.36-45.36,20.32-45.35,45.36-45.35,45.36,20.31,45.36,45.35Z"/>
  <path class="cls-5" d="M1178.98,869.4c0,25.06-20.32,45.36-45.36,45.36s-45.35-20.31-45.35-45.36,20.31-45.35,45.35-45.35,45.36,20.31,45.36,45.35Z"/>
  <path class="cls-2" d="M1305.52,1218.46c0,25.52-23.16,46.27-51.7,46.27H51.69c-28.56,0-51.69-20.75-51.69-46.27v-110.07c0-25.53,23.13-46.24,51.69-46.24h1202.12c28.55,0,51.7,20.71,51.7,46.24v110.07Z"/>
  <rect class="cls-9" x="633.2" y="166.7" width="42.67" height="85.34"/>
  <rect class="cls-6" x="509.05" y="1150.78" width="351.41" height="178.71"/>
  <g>
    <line class="cls-7" x1="746.62" y1="97.8" x2="746.62" y2="25.63"/>
    <g>
      <line class="cls-7" x1="590.25" y1="97.8" x2="590.25" y2="25.63"/>
      <line class="cls-7" x1="565.38" y1="25.63" x2="615.14" y2="25.63"/>
    </g>
    <g>
      <line class="cls-7" x1="624.2" y1="97.8" x2="642.3" y2="25.63"/>
      <line class="cls-7" x1="642.3" y1="25.63" x2="664.32" y2="97.8"/>
      <line class="cls-7" x1="632.34" y1="66.89" x2="654.18" y2="66.89"/>
    </g>
    <line class="cls-7" x1="677.5" y1="25.63" x2="725.11" y2="97.8"/>
    <line class="cls-7" x1="725.25" y1="25.63" x2="677.36" y2="97.8"/>
  </g>
</svg>