<?xml version="1.0" encoding="UTF-8"?>
<svg id="Objects" xmlns="http://www.w3.org/2000/svg" xmlns:xlink="http://www.w3.org/1999/xlink" viewBox="0 0 620.14 798.42">
  <defs>
    <style>
      .cls-1 {
        fill: #048080;
      }

      .cls-2 {
        fill: none;
      }

      .cls-3 {
        fill: #88aac6;
      }

      .cls-4 {
        fill: #333;
      }

      .cls-5 {
        fill: #efa67d;
      }

      .cls-6 {
        fill: #e16a02;
      }

      .cls-7 {
        fill: #f2c87c;
      }

      .cls-8 {
        clip-path: url(#clippath);
      }
    </style>
    <clipPath id="clippath">
      <path class="cls-2" d="M609.23,459.33c-6.24-8.1-13.44-12.21-17.42-14.43-25.53-14.25-53.89-7.23-67.64-2.33-2.58-19.71-5.7-33.82-7.02-39.51-.58-4.52-2.77-7.94-5.11-10.76-58.55-70.77-454.39-64.82-500.13,56.02-4.76,12.58-3.46,20.41-2.45,24.2,46.42,183.95,150.54,311.19,247.42,320.89,54.17,5.42,103.66-13.03,103.66-13.03,59.6-22.22,92.53-63.67,107-81.9,14.53-18.3,25.77-37.83,34.42-57.81,19.12-2.43,52.12-10.5,78.38-38.15,21.27-22.39,27.73-46.67,32.42-64.33,5.88-22.12,14.68-55.22-3.54-78.86ZM574.42,524.57c-1.89,19.99-11.9,33.73-15.12,38.03-11.91,15.89-27.85,24.24-41.01,28.67,9.33-39.12,10.87-77.53,9.37-109.53,17.8-2.78,34.01,1.67,41.89,12.54,6.84,9.45,5.71,21.42,4.87,30.27Z"/>
    </clipPath>
  </defs>
  <path class="cls-7" d="M609.23,459.33c-6.24-8.1-13.44-12.21-17.42-14.43-25.53-14.25-53.89-7.23-67.64-2.33-2.58-19.71-5.7-33.82-7.02-39.51-.58-4.52-2.77-7.94-5.11-10.76-58.55-70.77-454.39-64.82-500.13,56.02-4.76,12.58-3.46,20.41-2.45,24.2,46.42,183.95,150.54,311.19,247.42,320.89,54.17,5.42,103.66-13.03,103.66-13.03,59.6-22.22,92.53-63.67,107-81.9,14.53-18.3,25.77-37.83,34.42-57.81,19.12-2.43,52.12-10.5,78.38-38.15,21.27-22.39,27.73-46.67,32.42-64.33,5.88-22.12,14.68-55.22-3.54-78.86ZM574.42,524.57c-1.89,19.99-11.9,33.73-15.12,38.03-11.91,15.89-27.85,24.24-41.01,28.67,9.33-39.12,10.87-77.53,9.37-109.53,17.8-2.78,34.01,1.67,41.89,12.54,6.84,9.45,5.71,21.42,4.87,30.27Z"/>
  <path class="cls-6" d="M488.36,408.05c1.09,8.22-6.35,17.62-19.9,27.21-37.96,26.97-123.67,55.73-202.34,64.77-73.74,8.46-176.13,6.43-214.02-17.7-7.24-4.62-12.15-10.03-14.01-16.34-.86-2.92-1.92-8.92,2.38-18.63,41.59-93.3,392.23-101.41,443.43-47.54,2.05,2.16,3.96,4.77,4.46,8.23Z"/>
  <path class="cls-5" d="M468.45,435.26c-37.96,26.97-123.67,55.73-202.34,64.77-73.74,8.46-176.13,6.43-214.02-17.7,60.57-73.91,331.76-84.55,416.35-47.06Z"/>
  <path class="cls-6" d="M314.77,610.84c5.68,8.2-1.14,21.13-10.72,38.78-8.42,15.52-14.3,26.03-22.38,25.9-4.37-.07-7.56-3.23-10.17-5.9-25.89-26.46-42.88-43.81-36.93-54.79,2.18-4.02,6.49-5.43,7.74-5.84,9.92-3.24,22.96,3.76,33.41,17.82,9.87-15.64,23.09-23.79,32.52-20.72,1.34.44,4.4,1.69,6.52,4.74Z"/>
  <path class="cls-3" d="M199.32,250.51c-21.03,39.54-10.8,71.93-22.27,73.75-12.42,1.97-34.19-34.39-33.16-69.53.62-21.29,9.48-38.1,13.25-45.06,13.96-25.82,26.48-24.94,36.36-47.06,2.56-5.74,14.8-33.13,3.53-55.17-10.86-21.22-33.7-18.23-48.68-46.09-3.49-6.48-7.44-14.07-6.36-23.5,2.11-18.3,22.19-34.5,40.05-37.36,39.99-6.39,91.36,50.51,99.22,109.12,1.32,9.88,3.51,27.64-3.19,48.28-14.83,45.64-53.7,45.56-78.74,92.62Z"/>
  <path class="cls-3" d="M414.48,163.53c-.26,7.79-1.1,33.57-19.44,54.95-26.93,31.4-60.11,16.59-85.69,47.99-18.27,22.42-14.3,45.87-21.54,45.94-10.56.1-32.06-49.64-14.44-84.68,14.98-29.79,44.38-21.44,63.2-56.27,12.83-23.75,6.65-41.5,24.45-54.47,9.05-6.59,23.55-11.41,34.99-6.09,19.89,9.25,18.76,43.64,18.47,52.64Z"/>
  <path class="cls-1" d="M137.11,562.93c1.2,4.97,4.15,14.07,11.87,22.53,4.17,4.57,8.52,7.62,11.93,9.6,3.39,26.4,5.38,59,2.75,96.11-3.03,42.86-11.32,79.18-19.86,107.25-19.7-2.48-43.55-7.08-69.82-15.7-28.03-9.21-51.21-20.5-69.22-30.84,1.9-22.46,4.76-46.45,8.9-71.72,5.24-31.9,11.78-61.3,18.88-87.95,5.23-2.06,14.4-6.46,22.99-15.4,8.83-9.19,12.86-18.81,14.68-24.18,8.6.61,17.66,1.52,27.12,2.82,14.37,1.98,27.66,4.58,39.78,7.48Z"/>
  <path class="cls-7" d="M110.53,599.5c-.68,2.84-2.92,5.62-5.91,6.56-6.77,2.12-16.63-5.45-15.81-13.34.42-4.1,3.72-8.21,7.74-9.01,7.32-1.45,15.78,8.33,13.99,15.79Z"/>
  <path class="cls-6" d="M413.12,445.2c-.17,0-.33-.01-.5-.04-45.81-6.85-92.14-9.19-137.72-6.95-1.89.04-3.42-1.33-3.51-3.18-.09-1.85,1.33-3.42,3.18-3.51,46.03-2.25,92.81.1,139.05,7.01,1.83.27,3.09,1.98,2.82,3.81-.25,1.66-1.68,2.85-3.31,2.85Z"/>
  <path class="cls-6" d="M181.88,450.2c-1.5,0-2.87-1.02-3.25-2.54-.44-1.8.65-3.61,2.45-4.06,18.28-4.53,36.67-6.96,52.24-8.73,1.84-.2,3.5,1.11,3.71,2.95.21,1.84-1.11,3.5-2.95,3.71-15.36,1.75-33.48,4.14-51.39,8.58-.27.07-.54.1-.81.1Z"/>
  <g class="cls-8">
    <path class="cls-6" d="M185.52,534.22c-86.15,0-173.19-15.8-184.41-59.32-2.09-8.1-1.24-17.52,2.53-27.99,10.01-27.86,47.72-78.03,187.76-101.02,64.85-10.65,138.46-12.52,201.96-5.15,66.5,7.73,112.91,24.32,130.68,46.73,2.21,2.79,5.23,7.19,5.99,13.26h0c1,8.03-2.12,16.76-9.29,25.95-33.53,43.01-148.15,89.95-250.3,102.49-26.16,3.21-55.49,5.05-84.92,5.05ZM312.9,342.93c-39.43,0-80.72,3.05-120.41,9.57-46.66,7.66-87.5,19.78-118.1,35.05-34.19,17.07-55.87,37.8-64.44,61.62-3.3,9.19-4.09,17.28-2.34,24.05,8.06,31.25,64.35,43.99,97.19,48.81,48.16,7.06,109.78,7.24,164.83.48,98.92-12.14,213.8-58.85,245.84-99.96,6.03-7.74,8.7-14.8,7.92-21-.54-4.35-2.74-7.59-4.6-9.93-24.16-30.47-109.5-48.71-205.89-48.71Z"/>
    <path class="cls-6" d="M498.81,670.16l-5.33-4.06c58.33-76.67,33.83-237.04,33.57-238.65l6.62-1.04c.06.41,6.45,41.5,5.39,91.69-1.43,67.69-14.97,118.86-40.24,152.07Z"/>
  </g>
  <path class="cls-4" d="M98.35,592.83c-1.75,0-3.23-1.36-3.34-3.13-4.17-64.41,1.16-96.65,16.79-101.46,5.38-1.66,11.65.09,18.65,5.2,1.49,1.09,1.82,3.19.73,4.68-1.09,1.49-3.19,1.82-4.68.73-5.19-3.8-9.48-5.22-12.72-4.21-6.67,2.05-17.1,17.07-12.08,94.63.12,1.85-1.28,3.44-3.13,3.56-.07,0-.15,0-.22,0Z"/>
  <path class="cls-4" d="M28.85,683.77c-1.07,0-2.11-.51-2.76-1.45-1.05-1.52-.66-3.61.86-4.66,6.86-4.72,13.94-9.33,21.03-13.69,1.58-.97,3.64-.48,4.61,1.1.97,1.58.48,3.64-1.1,4.61-7,4.3-13.98,8.84-20.74,13.5-.58.4-1.24.59-1.9.59Z"/>
  <path class="cls-4" d="M78.24,653.91c-1.2,0-2.37-.65-2.97-1.79-.86-1.64-.24-3.66,1.4-4.53,24.91-13.14,45.8-22.21,65.77-28.53,1.76-.56,3.65.42,4.21,2.18.56,1.77-.42,3.65-2.18,4.21-19.58,6.2-40.12,15.12-64.67,28.07-.5.26-1.03.39-1.56.39Z"/>
  <path class="cls-4" d="M42.53,732.81c-.89,0-1.77-.35-2.43-1.05-1.27-1.34-1.22-3.46.13-4.74,28.91-27.42,83.03-53.44,85.32-54.53,1.67-.8,3.67-.09,4.47,1.58.8,1.67.09,3.67-1.58,4.47-.55.26-55.46,26.66-83.59,53.35-.65.61-1.48.92-2.3.92Z"/>
  <path class="cls-4" d="M67.62,759.04c-.75,0-1.51-.25-2.13-.77-1.42-1.18-1.62-3.29-.44-4.72,14.14-17.08,43.45-26.87,44.69-27.27,1.76-.58,3.65.38,4.23,2.13.58,1.76-.38,3.65-2.13,4.23-.29.09-28.73,9.6-41.62,25.18-.66.8-1.62,1.21-2.58,1.21Z"/>
</svg>