<?xml version="1.0" encoding="UTF-8"?>
<svg id="Layer_1" data-name="Layer 1" xmlns="http://www.w3.org/2000/svg" xmlns:xlink="http://www.w3.org/1999/xlink" viewBox="0 0 4200 3200">
  <defs>
    <style>
      .cls-1 {
        fill: url(#linear-gradient-15);
      }

      .cls-2 {
        fill: url(#linear-gradient-13);
      }

      .cls-3 {
        fill: url(#linear-gradient-28);
      }

      .cls-4 {
        fill: url(#linear-gradient-2);
      }

      .cls-5 {
        fill: url(#linear-gradient-25);
      }

      .cls-6 {
        fill: url(#linear-gradient-10);
      }

      .cls-7 {
        fill: url(#linear-gradient-12);
      }

      .cls-8 {
        fill: url(#linear-gradient-40);
      }

      .cls-9 {
        fill: url(#linear-gradient-27);
      }

      .cls-10 {
        fill: url(#linear-gradient-37);
      }

      .cls-11 {
        fill: #4d4d4d;
      }

      .cls-12 {
        fill: url(#linear-gradient-39);
      }

      .cls-13 {
        fill: url(#linear-gradient-26);
      }

      .cls-14 {
        fill: none;
      }

      .cls-15 {
        fill: url(#linear-gradient-4);
      }

      .cls-16 {
        fill: url(#linear-gradient-35);
      }

      .cls-17 {
        fill: url(#linear-gradient-30);
      }

      .cls-18 {
        fill: url(#linear-gradient-3);
      }

      .cls-19 {
        fill: url(#linear-gradient-34);
      }

      .cls-20 {
        fill: url(#linear-gradient-5);
      }

      .cls-21 {
        fill: url(#linear-gradient-38);
      }

      .cls-22 {
        fill: url(#linear-gradient-22);
      }

      .cls-23 {
        fill: url(#linear-gradient-24);
      }

      .cls-24 {
        fill: url(#linear-gradient-33);
      }

      .cls-25 {
        fill: url(#linear-gradient-8);
      }

      .cls-26 {
        fill: #666;
      }

      .cls-27 {
        fill: url(#linear-gradient-14);
      }

      .cls-28 {
        fill: url(#linear-gradient-29);
      }

      .cls-29 {
        fill: url(#linear-gradient-20);
      }

      .cls-30 {
        fill: url(#linear-gradient-17);
      }

      .cls-31 {
        fill: url(#linear-gradient-7);
      }

      .cls-32 {
        fill: url(#linear-gradient-9);
      }

      .cls-33 {
        fill: #999;
      }

      .cls-34 {
        fill: url(#linear-gradient-11);
      }

      .cls-35 {
        fill: url(#linear-gradient-19);
      }

      .cls-36 {
        fill: url(#linear-gradient-6);
      }

      .cls-37 {
        fill: url(#linear-gradient-36);
      }

      .cls-38 {
        fill: url(#linear-gradient-21);
      }

      .cls-39 {
        fill: gray;
      }

      .cls-40 {
        fill: url(#linear-gradient-32);
      }

      .cls-41 {
        fill: url(#linear-gradient-41);
      }

      .cls-42 {
        fill: url(#linear-gradient-16);
      }

      .cls-43 {
        fill: url(#linear-gradient);
      }

      .cls-44 {
        fill: url(#linear-gradient-23);
      }

      .cls-45 {
        fill: url(#linear-gradient-31);
      }

      .cls-46 {
        fill: url(#linear-gradient-18);
      }
    </style>
    <linearGradient id="linear-gradient" x1="2152.46" y1="1348.3" x2="2271.53" y2="1864.06" gradientUnits="userSpaceOnUse">
      <stop offset="0" stop-color="#f2f2f2"/>
      <stop offset=".26" stop-color="#e9e9e9"/>
      <stop offset=".35" stop-color="#d7d7d7"/>
      <stop offset=".47" stop-color="#c3c3c3"/>
      <stop offset=".56" stop-color="#bcbcbc"/>
      <stop offset=".56" stop-color="#bbb"/>
      <stop offset=".86" stop-color="#6c6c6c"/>
      <stop offset="1" stop-color="#4d4d4d"/>
    </linearGradient>
    <linearGradient id="linear-gradient-2" x1="863.3" y1="1633.57" x2="863.3" y2="1971.48" gradientUnits="userSpaceOnUse">
      <stop offset="0" stop-color="#f2f2f2"/>
      <stop offset=".26" stop-color="#e9e9e9"/>
      <stop offset=".32" stop-color="#d7d7d7"/>
      <stop offset=".41" stop-color="#c3c3c3"/>
      <stop offset=".47" stop-color="#bcbcbc"/>
      <stop offset=".47" stop-color="#bbb"/>
      <stop offset=".83" stop-color="#6c6c6c"/>
      <stop offset="1" stop-color="#4d4d4d"/>
    </linearGradient>
    <linearGradient id="linear-gradient-3" x1="3125.32" y1="1593.38" x2="3344.89" y2="1593.38" gradientUnits="userSpaceOnUse">
      <stop offset="0" stop-color="gray"/>
      <stop offset=".02" stop-color="#818181"/>
      <stop offset=".4" stop-color="#9c9c9c"/>
      <stop offset=".74" stop-color="#adadad"/>
      <stop offset="1" stop-color="#b3b3b3"/>
    </linearGradient>
    <linearGradient id="linear-gradient-4" x1="3125.32" y1="1596.37" x2="3344.89" y2="1596.37" gradientUnits="userSpaceOnUse">
      <stop offset="0" stop-color="#b3b3b3"/>
      <stop offset=".02" stop-color="#b4b4b4"/>
      <stop offset=".4" stop-color="#cfcfcf"/>
      <stop offset=".74" stop-color="#e0e0e0"/>
      <stop offset="1" stop-color="#e6e6e6"/>
    </linearGradient>
    <linearGradient id="linear-gradient-5" x1="3137.96" y1="1601.38" x2="3325.98" y2="1601.38" gradientUnits="userSpaceOnUse">
      <stop offset="0" stop-color="#999"/>
      <stop offset=".25" stop-color="#888"/>
      <stop offset=".72" stop-color="#6f6f6f"/>
      <stop offset="1" stop-color="#666"/>
    </linearGradient>
    <linearGradient id="linear-gradient-6" x1="183.58" y1="1766.29" x2="676.27" y2="1766.29" gradientUnits="userSpaceOnUse">
      <stop offset="0" stop-color="#ccc"/>
      <stop offset=".33" stop-color="#bfbfbf"/>
      <stop offset=".93" stop-color="#9d9d9d"/>
      <stop offset="1" stop-color="#999"/>
    </linearGradient>
    <linearGradient id="linear-gradient-7" x1="1388.09" y1="1459.15" x2="1548.2" y2="1459.15" gradientUnits="userSpaceOnUse">
      <stop offset="0" stop-color="#666"/>
      <stop offset=".53" stop-color="#484848"/>
      <stop offset="1" stop-color="#333"/>
    </linearGradient>
    <linearGradient id="linear-gradient-8" x1="1021.02" y1="920.61" x2="1717.74" y2="1617.32" gradientUnits="userSpaceOnUse">
      <stop offset="0" stop-color="#1d3160"/>
      <stop offset=".05" stop-color="#203462"/>
      <stop offset=".1" stop-color="#2b3d68"/>
      <stop offset=".14" stop-color="#3c4d73"/>
      <stop offset=".18" stop-color="#566383"/>
      <stop offset=".22" stop-color="#768097"/>
      <stop offset=".26" stop-color="#9da2af"/>
      <stop offset=".3" stop-color="#ccc"/>
      <stop offset=".59" stop-color="#c8c8c8"/>
      <stop offset=".85" stop-color="#bdbdbd"/>
      <stop offset="1" stop-color="#b3b3b3"/>
    </linearGradient>
    <linearGradient id="linear-gradient-9" x1="888.02" y1="1249.3" x2="1924.4" y2="1249.3" gradientUnits="userSpaceOnUse">
      <stop offset="0" stop-color="#b3b3b3"/>
      <stop offset=".18" stop-color="#dedede"/>
      <stop offset=".21" stop-color="#e6e6e6"/>
      <stop offset=".26" stop-color="#d8d8d8"/>
      <stop offset=".34" stop-color="#c7c7c7"/>
      <stop offset=".45" stop-color="#bbb"/>
      <stop offset=".59" stop-color="#b4b4b4"/>
      <stop offset="1" stop-color="#b3b3b3"/>
    </linearGradient>
    <linearGradient id="linear-gradient-10" x1="2495.69" y1="2033.81" x2="2898.01" y2="1336.96" gradientUnits="userSpaceOnUse">
      <stop offset="0" stop-color="#4d4d4d"/>
      <stop offset=".1" stop-color="#666"/>
      <stop offset=".33" stop-color="#a7a7a7"/>
      <stop offset=".36" stop-color="#b3b3b3"/>
      <stop offset=".54" stop-color="#c5c5c5"/>
      <stop offset=".83" stop-color="#ddd"/>
      <stop offset="1" stop-color="#e6e6e6"/>
    </linearGradient>
    <linearGradient id="linear-gradient-11" x1="2614.19" y1="1788.92" x2="2817.4" y2="1671.6" gradientUnits="userSpaceOnUse">
      <stop offset="0" stop-color="#333"/>
      <stop offset=".32" stop-color="#363636"/>
      <stop offset=".57" stop-color="#3f3f3f"/>
      <stop offset=".8" stop-color="#505050"/>
      <stop offset="1" stop-color="#666"/>
    </linearGradient>
    <linearGradient id="linear-gradient-12" x1="2789.32" y1="1789.46" x2="2964.46" y2="1688.34" gradientUnits="userSpaceOnUse">
      <stop offset="0" stop-color="#666"/>
      <stop offset="1" stop-color="#333"/>
    </linearGradient>
    <linearGradient id="linear-gradient-13" x1="2924.16" y1="1755.63" x2="3146.81" y2="1755.63" xlink:href="#linear-gradient-12"/>
    <linearGradient id="linear-gradient-14" x1="2613.64" y1="1722.39" x2="2662.94" y2="1750.86" gradientUnits="userSpaceOnUse">
      <stop offset="0" stop-color="#666"/>
      <stop offset=".23" stop-color="#696969"/>
      <stop offset=".4" stop-color="#727272"/>
      <stop offset=".56" stop-color="#838383"/>
      <stop offset=".71" stop-color="#9a9a9a"/>
      <stop offset=".8" stop-color="#ababab"/>
      <stop offset=".95" stop-color="#afafaf"/>
      <stop offset="1" stop-color="#b3b3b3"/>
    </linearGradient>
    <linearGradient id="linear-gradient-15" x1="2790.58" y1="1725.51" x2="2836.86" y2="1752.22" gradientUnits="userSpaceOnUse">
      <stop offset="0" stop-color="#666"/>
      <stop offset=".34" stop-color="#696969"/>
      <stop offset=".6" stop-color="#727272"/>
      <stop offset=".8" stop-color="gray"/>
      <stop offset=".88" stop-color="#848484"/>
      <stop offset=".97" stop-color="#929292"/>
      <stop offset="1" stop-color="#999"/>
    </linearGradient>
    <linearGradient id="linear-gradient-16" x1="2941.49" y1="1740.35" x2="2986.4" y2="1766.28" xlink:href="#linear-gradient-15"/>
    <linearGradient id="linear-gradient-17" x1="2962.85" y1="1740.64" x2="2970.69" y2="1754.23" gradientUnits="userSpaceOnUse">
      <stop offset="0" stop-color="#e6e6e6"/>
      <stop offset="1" stop-color="#999"/>
    </linearGradient>
    <linearGradient id="linear-gradient-18" x1="2810.24" y1="1725.89" x2="2816.65" y2="1736.98" xlink:href="#linear-gradient-17"/>
    <linearGradient id="linear-gradient-19" x1="2632.87" y1="1723.7" x2="2641.1" y2="1737.96" xlink:href="#linear-gradient-17"/>
    <linearGradient id="linear-gradient-20" x1="3297.36" y1="1555.29" x2="3297.36" y2="1913.32" gradientUnits="userSpaceOnUse">
      <stop offset="0" stop-color="#e6e6e6"/>
      <stop offset=".12" stop-color="#ccc"/>
      <stop offset=".33" stop-color="#999"/>
      <stop offset=".72" stop-color="#6e6e6e"/>
      <stop offset="1" stop-color="#4d4d4d"/>
    </linearGradient>
    <linearGradient id="linear-gradient-21" x1="3060.05" y1="1793.16" x2="3206.96" y2="1793.16" gradientUnits="userSpaceOnUse">
      <stop offset="0" stop-color="#000"/>
      <stop offset=".46" stop-color="#020202"/>
      <stop offset=".75" stop-color="#0b0b0b"/>
      <stop offset="1" stop-color="#191919"/>
      <stop offset="1" stop-color="#1a1a1a"/>
    </linearGradient>
    <linearGradient id="linear-gradient-22" x1="3455.54" y1="1555.29" x2="3455.54" y2="1817.91" gradientUnits="userSpaceOnUse">
      <stop offset="0" stop-color="#f2f2f2"/>
      <stop offset=".14" stop-color="#d8d8d8"/>
      <stop offset=".2" stop-color="#ccc"/>
      <stop offset=".42" stop-color="#acacac"/>
      <stop offset=".64" stop-color="#949494"/>
      <stop offset=".84" stop-color="#858585"/>
      <stop offset="1" stop-color="gray"/>
    </linearGradient>
    <linearGradient id="linear-gradient-23" x1="3096.16" y1="1738.67" x2="3118.46" y2="1865.16" gradientUnits="userSpaceOnUse">
      <stop offset="0" stop-color="#333"/>
      <stop offset=".12" stop-color="#4c4c4c"/>
      <stop offset=".32" stop-color="#717171"/>
      <stop offset=".42" stop-color="gray"/>
      <stop offset=".5" stop-color="#717171"/>
      <stop offset=".71" stop-color="#4f4f4f"/>
      <stop offset=".89" stop-color="#3a3a3a"/>
      <stop offset="1" stop-color="#333"/>
    </linearGradient>
    <linearGradient id="linear-gradient-24" x1="3025.5" y1="1804.31" x2="3080.95" y2="1804.31" gradientTransform="translate(67.77 -110.05) rotate(2.09)" gradientUnits="userSpaceOnUse">
      <stop offset="0" stop-color="#000"/>
      <stop offset=".39" stop-color="#050505"/>
      <stop offset=".91" stop-color="#161616"/>
      <stop offset="1" stop-color="#1a1a1a"/>
    </linearGradient>
    <linearGradient id="linear-gradient-25" x1="3009.15" y1="1783.26" x2="3047.02" y2="1848.85" gradientUnits="userSpaceOnUse">
      <stop offset="0" stop-color="#1a1a1a"/>
      <stop offset=".9" stop-color="#1a1a1a"/>
      <stop offset="1" stop-color="#1a1a1a"/>
    </linearGradient>
    <linearGradient id="linear-gradient-26" x1="3423.52" y1="1556.17" x2="3423.52" y2="1826.76" gradientUnits="userSpaceOnUse">
      <stop offset="0" stop-color="#e6e6e6"/>
      <stop offset=".12" stop-color="#ccc"/>
      <stop offset=".33" stop-color="#999"/>
      <stop offset=".9" stop-color="#6e6e6e"/>
      <stop offset="1" stop-color="#666"/>
    </linearGradient>
    <linearGradient id="linear-gradient-27" x1="3282.32" y1="1605.21" x2="3282.32" y2="1880.09" gradientUnits="userSpaceOnUse">
      <stop offset="0" stop-color="#b3b3b3"/>
      <stop offset=".32" stop-color="#999"/>
      <stop offset=".33" stop-color="#999"/>
      <stop offset=".72" stop-color="#6e6e6e"/>
      <stop offset="1" stop-color="#4d4d4d"/>
    </linearGradient>
    <linearGradient id="linear-gradient-28" x1="2495.69" y1="2033.81" x2="2892.27" y2="1346.91" gradientUnits="userSpaceOnUse">
      <stop offset="0" stop-color="#666"/>
      <stop offset=".47" stop-color="#4d4d4d"/>
      <stop offset=".69" stop-color="#6a6a6a"/>
      <stop offset="1" stop-color="#999"/>
    </linearGradient>
    <linearGradient id="linear-gradient-29" x1="3100.74" y1="1407.73" x2="2806.8" y2="1916.85" gradientUnits="userSpaceOnUse">
      <stop offset=".17" stop-color="#e6e6e6"/>
      <stop offset=".25" stop-color="#ccc"/>
      <stop offset=".33" stop-color="#b3b3b3"/>
      <stop offset="1" stop-color="#999"/>
    </linearGradient>
    <linearGradient id="linear-gradient-30" x1="3131.24" y1="1436.78" x2="3302.59" y2="1733.57" gradientUnits="userSpaceOnUse">
      <stop offset="0" stop-color="#152140"/>
      <stop offset=".35" stop-color="#2e364b"/>
      <stop offset="1" stop-color="#666"/>
    </linearGradient>
    <linearGradient id="linear-gradient-31" x1="3174.07" y1="1427.39" x2="3338.78" y2="1712.67" gradientUnits="userSpaceOnUse">
      <stop offset="0" stop-color="#333"/>
      <stop offset=".18" stop-color="#4c4c4c"/>
      <stop offset=".49" stop-color="gray"/>
      <stop offset=".7" stop-color="#787878"/>
      <stop offset="1" stop-color="#666"/>
    </linearGradient>
    <linearGradient id="linear-gradient-32" x1="462.86" y1="1845.08" x2="462.86" y2="1940.77" gradientUnits="userSpaceOnUse">
      <stop offset="0" stop-color="#333"/>
      <stop offset=".11" stop-color="#272727"/>
      <stop offset=".27" stop-color="#1d1d1d"/>
      <stop offset=".47" stop-color="#1a1a1a"/>
      <stop offset=".78" stop-color="#1b1b1b"/>
      <stop offset=".9" stop-color="#222"/>
      <stop offset=".98" stop-color="#2e2e2e"/>
      <stop offset="1" stop-color="#333"/>
    </linearGradient>
    <linearGradient id="linear-gradient-33" x1="432.8" y1="1896.59" x2="467.07" y2="1896.59" gradientUnits="userSpaceOnUse">
      <stop offset="0" stop-color="#1a1a1a"/>
      <stop offset=".39" stop-color="#1e1e1e"/>
      <stop offset=".85" stop-color="#2c2c2c"/>
      <stop offset="1" stop-color="#333"/>
    </linearGradient>
    <linearGradient id="linear-gradient-34" x1="1388.01" y1="1451.83" x2="1477.74" y2="1451.83" gradientUnits="userSpaceOnUse">
      <stop offset="0" stop-color="#999"/>
      <stop offset=".15" stop-color="#9d9d9d"/>
      <stop offset="1" stop-color="#b3b3b3"/>
    </linearGradient>
    <linearGradient id="linear-gradient-35" x1="1231.74" y1="1582.59" x2="1231.74" y2="1971.48" gradientUnits="userSpaceOnUse">
      <stop offset="0" stop-color="#1e5ec0"/>
      <stop offset=".04" stop-color="#1c5ab8"/>
      <stop offset=".37" stop-color="#103d7c"/>
      <stop offset=".65" stop-color="#082850"/>
      <stop offset=".87" stop-color="#021b35"/>
      <stop offset="1" stop-color="#01172c"/>
    </linearGradient>
    <linearGradient id="linear-gradient-36" x1="534.11" y1="1501.84" x2="1135.68" y2="1154.53" gradientUnits="userSpaceOnUse">
      <stop offset="0" stop-color="#999"/>
      <stop offset=".2" stop-color="#a1a1a1"/>
      <stop offset=".52" stop-color="#b8b8b8"/>
      <stop offset=".91" stop-color="#dcdcdc"/>
      <stop offset="1" stop-color="#e6e6e6"/>
    </linearGradient>
    <linearGradient id="linear-gradient-37" x1="450.06" y1="1338.79" x2="1219.43" y2="1338.79" gradientUnits="userSpaceOnUse">
      <stop offset="0" stop-color="#032049"/>
      <stop offset=".37" stop-color="#063067"/>
      <stop offset=".77" stop-color="#083f82"/>
      <stop offset="1" stop-color="#0a458c"/>
    </linearGradient>
    <linearGradient id="linear-gradient-38" x1="1051.93" y1="1761.87" x2="1104.99" y2="1853.78" gradientUnits="userSpaceOnUse">
      <stop offset="0" stop-color="#b3b3b3"/>
      <stop offset=".33" stop-color="#a6a6a6"/>
      <stop offset=".93" stop-color="#848484"/>
      <stop offset="1" stop-color="gray"/>
    </linearGradient>
    <linearGradient id="linear-gradient-39" x1="715.79" y1="1858.97" x2="1099.42" y2="1858.97" gradientUnits="userSpaceOnUse">
      <stop offset="0" stop-color="#ccc"/>
      <stop offset=".58" stop-color="#bfbfbf"/>
      <stop offset="1" stop-color="#b3b3b3"/>
    </linearGradient>
    <linearGradient id="linear-gradient-40" x1="1070.94" y1="1790.18" x2="1070.94" y2="1895.2" gradientUnits="userSpaceOnUse">
      <stop offset="0" stop-color="gray"/>
      <stop offset=".58" stop-color="#8c8c8c"/>
      <stop offset="1" stop-color="#999"/>
    </linearGradient>
    <linearGradient id="linear-gradient-41" x1="715.79" y1="1835.22" x2="1099.42" y2="1835.22" gradientUnits="userSpaceOnUse">
      <stop offset="0" stop-color="#b3b3b3"/>
      <stop offset=".23" stop-color="#a6a6a6"/>
      <stop offset=".67" stop-color="#848484"/>
      <stop offset="1" stop-color="#666"/>
    </linearGradient>
  </defs>
  <g>
    <path class="cls-43" d="M676.27,1748.06h0c-153.2,57.4-205.85,93.97-228.73,105.95-22.83,11.96-17.89,81.1,6.27,84.57,0,0,686.17,55.13,1158.51,22.64,226.46-15.58,554.54-117.27,554.54-117.27,0,0,184.8,22.34,513.44-81.07,308.5-97.08,550.85-200.33,550.85-200.33,0,0,783.27-136.6,742.65-328.58-14.89-70.39-114.52-89.21-122.5-95.5-30.75-24.25-79.04-132.48-366.45-87.07-240.34,37.97-678.51,147.48-1103.83,249.57-419.83,100.77-827.14,198.8-1019.3,245.07-454.11,113.29-685.45,202.03-685.45,202.03h0Z"/>
    <path class="cls-4" d="M1034.4,1633.57c-237.68,68.29-358.13,114.49-358.13,114.49-153.2,57.4-205.85,93.97-228.73,105.95-22.83,11.96-17.89,81.1,6.27,84.57,0,0,427.56,34.35,840,32.84l-259.4-337.86Z"/>
    <g>
      <path class="cls-18" d="M3183.99,1634.27c27.6-15.88,98.29-54.44,160.9-71.1-16.79-6.31-37.52-10.02-60.61-10.69-33.25,6.6-53.12,10.07-53.12,10.07,0,0-39.08,16.65-105.83,42.86,24.53,12.97,44.83,22.6,58.67,28.86Z"/>
      <path class="cls-15" d="M3183.99,1634.27c27.6-15.88,98.29-54.44,160.9-71.1-16.79-6.31-37.6-5.1-60.61-3.17-33.78,2.83-92.21,19.2-158.95,45.41,24.53,12.97,44.83,22.6,58.67,28.86Z"/>
      <path class="cls-20" d="M3137.96,1612c18.88,9.69,34.65,17.13,46.03,22.27,24.85-14.29,84.63-46.97,141.99-65.5-11.64-.75-24.41.13-37.95,1.26-32.27,2.7-87.05,17.77-150.07,41.97Z"/>
    </g>
    <path class="cls-36" d="M676.27,1748.06l-1.84-5.8-348.86-35.82c-16.54-1.7-33.24-.03-49.12,4.89l-89.78,27.86c-4.22,1.31-4.07,7.34.21,8.44l309.36,79.14c34.96-18.58,90.21-45.07,180.03-78.72Z"/>
    <path class="cls-31" d="M1437.36,1431.95h0l-49.27,38.53v11.15c-.04,2.02,1.51,3.74,3.53,3.87,95.32,6.48,156.58-25.9,156.58-25.9h0l-110.84-27.65Z"/>
    <path class="cls-25" d="M958.66,1263.33c20.15,36.4,54.52,62.79,94.89,72.86l579.41,144.56c87.58-21.07,186.14-44.78,291.44-70.09l-757.44-107.4c-48.61-6.82-93.23-29.37-125.96-65.94l-131.32-146.74c-5.75-6.43-13.97-10.1-22.6-10.1h-24.73c-2.21,0-3.61,2.36-2.55,4.3l98.86,178.56Z"/>
    <path class="cls-32" d="M1041,1237.32l-131.32-146.74c-5.54-6.2-13.38-9.82-21.66-10.08l137.95,169.95c24.25,29.87,58.84,49.54,96.91,55.1l770.6,112.54c10.24-2.46,20.53-4.94,30.91-7.43l-757.44-107.4c-48.61-6.82-93.23-29.37-125.96-65.94Z"/>
    <path class="cls-6" d="M2779.92,1541.38c-163.79,48.85-712.79,244.92-613.07,302.58,0,0,184.8,22.34,513.44-81.07,308.5-97.08,550.85-200.33,550.85-200.33,0,0,10.36-158.84-451.23-21.18Z"/>
    <path class="cls-26" d="M3829.88,1182.72l-26.06-54.02c-1.33-2.81-4.81-3.89-7.47-2.28-4.32,2.62-7.86,5.23-10.42,7.29-2.9,2.33-4.16,6.14-3.24,9.74,3.76,14.82,14.54,53.39,24.57,52.75,7.42-.47,14.29-3.5,20.54-6.97,2.31-1.28,3.23-4.13,2.08-6.51Z"/>
    <path class="cls-11" d="M3861.66,1150.92c-14.18-7.68-27.41-22.24-33.83-29.95-2.73-3.28-7.13-4.65-11.24-3.5-1.36.38-2.69.8-3.99,1.25-2.56.88-3.75,3.83-2.53,6.25l26.43,52.34c1.5,2.97,5.42,3.72,7.9,1.5,8.96-8.01,15.43-16.83,18.76-21.83,1.38-2.07.69-4.87-1.5-6.06Z"/>
    <path class="cls-39" d="M3655.09,1325.36c-2.17,0-4.29-.7-6.06-2.06-2.5-1.9-3.95-4.79-3.97-7.93-.21-32.99-6.28-117.38-58.11-188.28-1.72-2.35-2.15-5.39-1.16-8.12.99-2.73,3.26-4.77,6.08-5.47l48.56-12.04c6.61-1.64,13.48.9,17.48,6.48,60.61,84.43,62.45,160.99,60.43,189.98-.45,6.5-4.99,12.02-11.28,13.72l-49.3,13.37c-.88.24-1.78.36-2.66.36ZM3592.17,1114.71c-2.45.61-4.34,2.31-5.2,4.68-.85,2.34-.48,4.94.99,6.96,52.05,71.2,58.15,155.9,58.36,189.01.02,2.75,1.28,5.28,3.47,6.94,2.19,1.67,4.98,2.21,7.64,1.49l49.3-13.37c5.78-1.57,9.94-6.63,10.36-12.6,2.01-28.86.18-105.06-60.19-189.16-3.7-5.16-10.04-7.51-16.16-5.99l-48.56,12.04Z"/>
    <g>
      <path class="cls-39" d="M3590.29,1242.5l-3.69-15.91c-1.21-5.22-6.43-8.48-11.66-7.26-5.22,1.21-8.48,6.43-7.26,11.66l3.69,15.91c1.21,5.22,6.43,8.48,11.66,7.26,5.22-1.21,8.48-6.43,7.26-11.66Z"/>
      <path class="cls-39" d="M3546.85,1253.2l-3.69-15.91c-1.21-5.22-6.43-8.48-11.66-7.26-5.22,1.21-8.48,6.43-7.26,11.66l3.69,15.91c1.21,5.22,6.43,8.48,11.66,7.26,5.22-1.21,8.48-6.43,7.26-11.66Z"/>
      <path class="cls-39" d="M3501.48,1263.76l-3.69-15.91c-1.21-5.22-6.43-8.48-11.66-7.26-5.22,1.21-8.48,6.43-7.26,11.66l3.69,15.91c1.21,5.22,6.43,8.48,11.66,7.26,5.22-1.21,8.48-6.43,7.26-11.66Z"/>
      <path class="cls-39" d="M3455.54,1275l-3.56-15.32c-1.17-5.03-6.2-8.16-11.23-7-5.03,1.17-8.16,6.2-7,11.23l3.56,15.32c1.17,5.03,6.2,8.16,11.23,7,5.03-1.17,8.16-6.2,7-11.23Z"/>
      <path class="cls-39" d="M3408.76,1287.17l-3.56-15.32c-1.17-5.03-6.2-8.16-11.23-7-5.03,1.17-8.16,6.2-7,11.23l3.56,15.32c1.17,5.03,6.2,8.16,11.23,7,5.03-1.17,8.16-6.2,7-11.23Z"/>
      <path class="cls-39" d="M3364.3,1298.13l-3.56-15.32c-1.17-5.03-6.2-8.16-11.23-7-5.03,1.17-8.16,6.2-7,11.23l3.56,15.32c1.17,5.03,6.2,8.16,11.23,7,5.03-1.17,8.16-6.2,7-11.23Z"/>
      <path class="cls-39" d="M3318.28,1309.04l-3.56-15.32c-1.17-5.03-6.2-8.16-11.23-7-5.03,1.17-8.16,6.2-7,11.23l3.56,15.32c1.17,5.03,6.2,8.16,11.23,7,5.03-1.17,8.16-6.2,7-11.23Z"/>
      <path class="cls-39" d="M3272.83,1319.55l-3.56-15.32c-1.17-5.03-6.2-8.16-11.23-7-5.03,1.17-8.16,6.2-7,11.23l3.56,15.32c1.17,5.03,6.2,8.16,11.23,7,5.03-1.17,8.16-6.2,7-11.23Z"/>
      <path class="cls-39" d="M3226.08,1330.84l-3.56-15.32c-1.17-5.03-6.2-8.16-11.23-7-5.03,1.17-8.16,6.2-7,11.23l3.56,15.32c1.17,5.03,6.2,8.16,11.23,7,5.03-1.17,8.16-6.2,7-11.23Z"/>
      <path class="cls-39" d="M2944.77,1400.19l-3.56-15.32c-1.17-5.03-6.2-8.16-11.23-7-5.03,1.17-8.16,6.2-7,11.23l3.56,15.32c1.17,5.03,6.2,8.16,11.23,7,5.03-1.17,8.16-6.2,7-11.23Z"/>
      <path class="cls-39" d="M2992.64,1389.21l-3.56-15.32c-1.17-5.03-6.2-8.16-11.23-7-5.03,1.17-8.16,6.2-7,11.23l3.56,15.32c1.17,5.03,6.2,8.16,11.23,7,5.03-1.17,8.16-6.2,7-11.23Z"/>
      <path class="cls-39" d="M3040.27,1376.41l-3.56-15.32c-1.17-5.03-6.2-8.16-11.23-7-5.03,1.17-8.16,6.2-7,11.23l3.56,15.32c1.17,5.03,6.2,8.16,11.23,7,5.03-1.17,8.16-6.2,7-11.23Z"/>
      <path class="cls-39" d="M3086.64,1364.88l-3.56-15.32c-1.17-5.03-6.2-8.16-11.23-7-5.03,1.17-8.16,6.2-7,11.23l3.56,15.32c1.17,5.03,6.2,8.16,11.23,7,5.03-1.17,8.16-6.2,7-11.23Z"/>
      <path class="cls-39" d="M3134.38,1353.58l-3.56-15.32c-1.17-5.03-6.2-8.16-11.23-7-5.03,1.17-8.16,6.2-7,11.23l3.56,15.32c1.17,5.03,6.2,8.16,11.23,7,5.03-1.17,8.16-6.2,7-11.23Z"/>
      <path class="cls-39" d="M3180.51,1343.07l-3.56-15.32c-1.17-5.03-6.2-8.16-11.23-7-5.03,1.17-8.16,6.2-7,11.23l3.56,15.32c1.17,5.03,6.2,8.16,11.23,7,5.03-1.17,8.16-6.2,7-11.23Z"/>
      <path class="cls-39" d="M2872.63,1417.21l-3.56-15.32c-1.17-5.03-6.2-8.16-11.23-7-5.03,1.17-8.16,6.2-7,11.23l3.56,15.32c1.17,5.03,6.2,8.16,11.23,7,5.03-1.17,8.16-6.2,7-11.23Z"/>
      <path class="cls-39" d="M2796.52,1436.34l-3.56-15.32c-1.17-5.03-6.2-8.16-11.23-7-5.03,1.17-8.16,6.2-7,11.23l3.56,15.32c1.17,5.03,6.2,8.16,11.23,7,5.03-1.17,8.16-6.2,7-11.23Z"/>
    </g>
    <g>
      <path class="cls-39" d="M2741.74,1449.99l-3.56-15.32c-1.17-5.03-6.2-8.16-11.23-7-5.03,1.17-8.16,6.2-7,11.23l3.56,15.32c1.17,5.03,6.2,8.16,11.23,7,5.03-1.17,8.16-6.2,7-11.23Z"/>
      <path class="cls-39" d="M2692.76,1461.75l-3.56-15.32c-1.17-5.03-6.2-8.16-11.23-7-5.03,1.17-8.16,6.2-7,11.23l3.56,15.32c1.17,5.03,6.2,8.16,11.23,7,5.03-1.17,8.16-6.2,7-11.23Z"/>
      <path class="cls-39" d="M2644.08,1473.77l-3.56-15.32c-1.17-5.03-6.2-8.16-11.23-7-5.03,1.17-8.16,6.2-7,11.23l3.56,15.32c1.17,5.03,6.2,8.16,11.23,7,5.03-1.17,8.16-6.2,7-11.23Z"/>
      <path class="cls-39" d="M2594.21,1485.37l-3.56-15.32c-1.17-5.03-6.2-8.16-11.23-7-5.03,1.17-8.16,6.2-7,11.23l3.56,15.32c1.17,5.03,6.2,8.16,11.23,7,5.03-1.17,8.16-6.2,7-11.23Z"/>
      <path class="cls-39" d="M2545.38,1497.7l-3.56-15.32c-1.17-5.03-6.2-8.16-11.23-7-5.03,1.17-8.16,6.2-7,11.23l3.56,15.32c1.17,5.03,6.2,8.16,11.23,7,5.03-1.17,8.16-6.2,7-11.23Z"/>
      <path class="cls-39" d="M2495.3,1510.23l-3.56-15.32c-1.17-5.03-6.2-8.16-11.23-7-5.03,1.17-8.16,6.2-7,11.23l3.56,15.32c1.17,5.03,6.2,8.16,11.23,7,5.03-1.17,8.16-6.2,7-11.23Z"/>
      <path class="cls-39" d="M2446.09,1522.74l-3.56-15.32c-1.17-5.03-6.2-8.16-11.23-7-5.03,1.17-8.16,6.2-7,11.23l3.56,15.32c1.17,5.03,6.2,8.16,11.23,7,5.03-1.17,8.16-6.2,7-11.23Z"/>
      <path class="cls-39" d="M2395.39,1534.85l-3.56-15.32c-1.17-5.03-6.2-8.16-11.23-7-5.03,1.17-8.16,6.2-7,11.23l3.56,15.32c1.17,5.03,6.2,8.16,11.23,7,5.03-1.17,8.16-6.2,7-11.23Z"/>
      <path class="cls-39" d="M2345.82,1546.66l-3.56-15.32c-1.17-5.03-6.2-8.16-11.23-7-5.03,1.17-8.16,6.2-7,11.23l3.56,15.32c1.17,5.03,6.2,8.16,11.23,7,5.03-1.17,8.16-6.2,7-11.23Z"/>
      <path class="cls-39" d="M2294.92,1559.83l-3.56-15.32c-1.17-5.03-6.2-8.16-11.23-7-5.03,1.17-8.16,6.2-7,11.23l3.56,15.32c1.17,5.03,6.2,8.16,11.23,7,5.03-1.17,8.16-6.2,7-11.23Z"/>
      <path class="cls-39" d="M2244.05,1571.4l-3.56-15.32c-1.17-5.03-6.2-8.16-11.23-7-5.03,1.17-8.16,6.2-7,11.23l3.56,15.32c1.17,5.03,6.2,8.16,11.23,7,5.03-1.17,8.16-6.2,7-11.23Z"/>
      <path class="cls-39" d="M2193.7,1584.54l-3.56-15.32c-1.17-5.03-6.2-8.16-11.23-7-5.03,1.17-8.16,6.2-7,11.23l3.56,15.32c1.17,5.03,6.2,8.16,11.23,7,5.03-1.17,8.16-6.2,7-11.23Z"/>
      <path class="cls-39" d="M2142.97,1596.88l-3.56-15.32c-1.17-5.03-6.2-8.16-11.23-7-5.03,1.17-8.16,6.2-7,11.23l3.56,15.32c1.17,5.03,6.2,8.16,11.23,7,5.03-1.17,8.16-6.2,7-11.23Z"/>
      <path class="cls-39" d="M2091.34,1608.23l-3.56-15.32c-1.17-5.03-6.2-8.16-11.23-7-5.03,1.17-8.16,6.2-7,11.23l3.56,15.32c1.17,5.03,6.2,8.16,11.23,7,5.03-1.17,8.16-6.2,7-11.23Z"/>
      <path class="cls-39" d="M2039.16,1621.49l-3.56-15.32c-1.17-5.03-6.2-8.16-11.23-7-5.03,1.17-8.16,6.2-7,11.23l3.56,15.32c1.17,5.03,6.2,8.16,11.23,7,5.03-1.17,8.16-6.2,7-11.23Z"/>
      <path class="cls-39" d="M1988.11,1634.41l-3.56-15.32c-1.17-5.03-6.2-8.16-11.23-7-5.03,1.17-8.16,6.2-7,11.23l3.56,15.32c1.17,5.03,6.2,8.16,11.23,7,5.03-1.17,8.16-6.2,7-11.23Z"/>
      <path class="cls-39" d="M1936.55,1646.56l-3.56-15.32c-1.17-5.03-6.2-8.16-11.23-7-5.03,1.17-8.16,6.2-7,11.23l3.56,15.32c1.17,5.03,6.2,8.16,11.23,7,5.03-1.17,8.16-6.2,7-11.23Z"/>
      <path class="cls-39" d="M1884.35,1659.43l-3.56-15.32c-1.17-5.03-6.2-8.16-11.23-7-5.03,1.17-8.16,6.2-7,11.23l3.56,15.32c1.17,5.03,6.2,8.16,11.23,7,5.03-1.17,8.16-6.2,7-11.23Z"/>
      <path class="cls-39" d="M1830.92,1672.42l-3.56-15.32c-1.17-5.03-6.2-8.16-11.23-7-5.03,1.17-8.16,6.2-7,11.23l3.56,15.32c1.17,5.03,6.2,8.16,11.23,7,5.03-1.17,8.16-6.2,7-11.23Z"/>
      <path class="cls-39" d="M1778.65,1684.97l-3.56-15.32c-1.17-5.03-6.2-8.16-11.23-7-5.03,1.17-8.16,6.2-7,11.23l3.56,15.32c1.17,5.03,6.2,8.16,11.23,7,5.03-1.17,8.16-6.2,7-11.23Z"/>
      <path class="cls-39" d="M1727.33,1698.56l-3.56-15.32c-1.17-5.03-6.2-8.16-11.23-7-5.03,1.17-8.16,6.2-7,11.23l3.56,15.32c1.17,5.03,6.2,8.16,11.23,7,5.03-1.17,8.16-6.2,7-11.23Z"/>
      <path class="cls-39" d="M1672.92,1710.98l-3.56-15.32c-1.17-5.03-6.2-8.16-11.23-7-5.03,1.17-8.16,6.2-7,11.23l3.56,15.32c1.17,5.03,6.2,8.16,11.23,7,5.03-1.17,8.16-6.2,7-11.23Z"/>
      <path class="cls-39" d="M1618.1,1723.96l-3.56-15.32c-1.17-5.03-6.2-8.16-11.23-7-5.03,1.17-8.16,6.2-7,11.23l3.56,15.32c1.17,5.03,6.2,8.16,11.23,7,5.03-1.17,8.16-6.2,7-11.23Z"/>
    </g>
    <path class="cls-39" d="M2783.72,1500.64c-2.1,0-4.17-.65-5.92-1.91-2.51-1.8-4.06-4.59-4.27-7.68-2.71-40.99-11.98-73.38-17.26-89.03-1.09-3.24-.8-6.68.81-9.69,1.62-3.01,4.33-5.15,7.63-6.02l17.2-4.55c5.82-1.54,11.99,1.46,14.35,6.98,6.99,16.39,18.73,50.65,18.84,96.02.01,4.6-3.1,8.66-7.58,9.86l-21.17,5.67c-.88.23-1.77.35-2.65.35ZM2765.04,1387.53c-2.97.78-5.4,2.7-6.85,5.4-1.45,2.7-1.71,5.79-.73,8.69,5.3,15.72,14.6,48.22,17.32,89.35.18,2.71,1.54,5.17,3.74,6.74,2.18,1.57,4.93,2.06,7.52,1.37l21.17-5.67c3.92-1.05,6.66-4.6,6.65-8.64-.12-45.15-11.79-79.23-18.74-95.53-2.11-4.95-7.65-7.65-12.87-6.26l-17.2,4.55Z"/>
    <path class="cls-39" d="M2858.35,1482.75c-2.1,0-4.17-.65-5.92-1.91-2.51-1.8-4.06-4.59-4.27-7.68-2.71-40.98-11.98-73.37-17.26-89.03-1.09-3.24-.8-6.68.81-9.69,1.62-3.01,4.33-5.15,7.63-6.02l17.2-4.55c5.82-1.54,11.99,1.46,14.35,6.98,6.99,16.39,18.73,50.66,18.84,96.02.01,4.6-3.1,8.66-7.58,9.86l-21.16,5.67c-.88.23-1.77.35-2.65.35ZM2839.68,1369.63c-2.97.78-5.4,2.7-6.85,5.4-1.45,2.7-1.71,5.79-.73,8.69,5.3,15.72,14.6,48.23,17.32,89.35.18,2.71,1.54,5.17,3.74,6.74,2.18,1.57,4.93,2.06,7.52,1.37l21.17-5.67c3.92-1.05,6.66-4.6,6.65-8.64-.12-45.14-11.79-79.23-18.74-95.53-2.11-4.96-7.65-7.65-12.87-6.26l-17.2,4.55Z"/>
    <path class="cls-34" d="M2774.5,1703.9l-127.79,11.81c-17.84,12.18-38.98,27.15-47.82,33.43-2.48,1.76-3.43,4.98-2.31,7.8l1.67,4.22c1,2.53,3.46,4.21,6.18,4.17,103.67-1.48,236.53-52.91,236.54-52.91-40.47-4.81-66.47-8.53-66.47-8.53Z"/>
    <path class="cls-7" d="M2835.66,1711.79c-21.67,9.84-52.62,34.96-61.09,41.99-1.35,1.12-1.92,2.93-1.47,4.62l1.35,5.01c.5,1.85,2.12,3.16,4.03,3.31,73.58,5.64,208.17-39.74,208.26-39.77-57.67-4.52-111.89-10.45-151.09-15.17Z"/>
    <path class="cls-2" d="M2987.83,1727.04c-23.4,10.51-52.63,33.31-61.64,40.55-1.69,1.36-2.41,3.59-1.84,5.68l1.83,6.66c.62,2.25,2.61,3.88,4.94,4,98.44,4.75,215.69-49.62,215.69-49.62l-1.05-.48c-49.58.27-105.17-2.66-157.93-6.78Z"/>
    <path class="cls-27" d="M2681.87,1712.46l-35.16,3.25c-17.84,12.18-38.98,27.15-47.82,33.43-2.48,1.76-3.43,4.98-2.31,7.8l1.67,4.22c1,2.53,3.46,4.21,6.18,4.17,15.4-.22,31.45-1.55,47.61-3.64,14.16-17.69,30.93-40.72,29.83-49.23Z"/>
    <path class="cls-1" d="M2855.21,1714.1c-6.86-.79-13.39-1.56-19.55-2.3-21.67,9.84-52.62,34.96-61.09,41.99-1.35,1.12-1.92,2.93-1.47,4.62l1.35,5.01c.5,1.85,2.12,3.16,4.03,3.31,14.09,1.08,30.42.29,47.6-1.7,13.84-17.85,27.66-38.43,29.11-50.94Z"/>
    <path class="cls-42" d="M3008.09,1728.56h0c-6.79-.48-13.55-.99-20.27-1.51-23.4,10.51-52.63,33.31-61.64,40.55-1.69,1.36-2.41,3.59-1.84,5.68l1.83,6.66c.62,2.25,2.61,3.88,4.94,4,13.25.64,26.85.2,40.45-1.03,5.13-7.06,29.64-41.02,36.52-54.34Z"/>
    <path class="cls-30" d="M3004.64,1734.62c1.39-2.29,2.57-4.35,3.45-6.06-6.79-.48-13.55-.99-20.27-1.51-23.4,10.51-52.63,33.31-61.64,40.55,0,0,44.35-12.93,78.45-32.97Z"/>
    <path class="cls-46" d="M2774.58,1753.79s43.17-14.89,80.63-39.69c-6.86-.79-13.39-1.56-19.55-2.3-21.67,9.84-52.62,34.96-61.09,41.99Z"/>
    <path class="cls-35" d="M2646.71,1715.71c-17.84,12.18-38.98,27.15-47.82,33.43-2.48,1.76-3.43,4.98-2.31,7.8,0,0,67.77-28.01,85.29-44.49l-35.16,3.25Z"/>
    <g>
      <path class="cls-29" d="M3414.7,1556.88c-79.71-15.26-242.65,84.42-242.65,84.42l-15.24,54.69c21.27,15.4,38.71,44.23,46.31,79.61,8.21,38.21,2.9,74.61-12.69,97.61h0c-18.53,30.4-103.1,34.18-106.47,24.68-2.46-6.95,11.95-11.57,24.77-14.25-1.26-.96-2.51-1.97-3.74-3.02-3.31,1.01-26.75,8.4-26.75,16.15,0,15.7,41.96,21.09,95.22,12.43,77.46-12.6,218.18-49.17,300.06-92.25,55.27-29.08,76.94-234.07-58.84-260.06Z"/>
      <path class="cls-38" d="M3203.12,1775.6c-12.57-58.51-52.03-99.11-91.25-90.68-39.21,8.42-60.81,62.68-48.25,121.18,7.27,33.85,24.38,61.7,45.11,77.54-12.82,2.68-27.23,7.3-24.77,14.25,3.37,9.5,87.94,5.72,106.47-24.68h0c15.59-23,20.9-59.39,12.69-97.6Z"/>
      <path class="cls-22" d="M3414.7,1556.88c-6.22-1.19-12.95-1.68-20.07-1.57.71.12,1.43.22,2.13.35,122.09,23.37,117.32,204.77,74.93,262.25.62-.32,1.24-.64,1.86-.96,55.27-29.08,76.94-234.07-58.84-260.06Z"/>
      <path class="cls-44" d="M3140.89,1861.2c-6.58.99-85.57.43-85.57.43l-4.18-114.64s90.29-18.11,94.42-12.68c41.5,54.41,16.28,123.75-4.67,126.9Z"/>
      <ellipse class="cls-23" cx="3053.22" cy="1804.31" rx="27.66" ry="57.36" transform="translate(-63.72 112.45) rotate(-2.09)"/>
      <path class="cls-5" d="M3056.29,1843.49c-3.37,1.74-56.7-14.23-75.74-18.4-3.66-.8-6.4-3.84-6.84-7.56h0c-.33-2.84.72-5.69,2.87-7.57,10.17-8.88,67.78-47.83,71.79-49.25,12.46-4.42,24.95,73.98,7.91,82.78Z"/>
      <path class="cls-13" d="M3459.9,1823.8c11.96-30.16,17.65-65.56,15.03-102.97-5.35-76.14-43.65-139.23-93.95-164.65-3.11.33-6.28.76-9.49,1.27,51.91,24.29,91.79,88.45,97.25,166.26,2.63,37.45-3.1,72.88-15.08,103.06,2.11-.98,4.19-1.97,6.24-2.96Z"/>
      <path class="cls-9" d="M3309.47,1878.05c14.6-28.82,22.99-62.55,22.99-98.6,0-77.19-38.48-143.74-93.96-174.24-2.15,1.06-4.27,2.11-6.34,3.16,54.85,30.8,92.78,96.95,92.78,173.59,0,35.86-8.31,69.42-22.76,98.14,2.42-.67,4.85-1.35,7.29-2.04Z"/>
    </g>
    <path class="cls-3" d="M2680.3,1762.89c308.5-97.08,550.85-200.33,550.85-200.33,0,0,.67-10.33-5.98-23.44,0,0-69.62-16.83-189.69,17.06-300.55,84.85-551.08,174.54-551.08,174.54,0,0-22.65,16.26-49.2,53.5,0,0-146.83,8.78-200.66-27.65-65.75,36.97-99.27,69.13-67.68,87.39,0,0,184.8,22.34,513.44-81.07Z"/>
    <g>
      <path class="cls-28" d="M3262.02,1570.05c-20.42-25.65-71.16-93.22-90.69-119.29-4.9-6.54-12.75-10.19-20.9-9.72l-29.25,1.67c-.71.04-1.16.77-.89,1.43l83.76,198.82s-91.7-36.57-196.34-108.74c0,0-73.83-19.25-435.53,140.43-59.14,26.11-87.78,56.07-87.78,56.07l290.09-26.82s290.12,41.44,440.69,26.82c37.47-3.64,114.32-14.63,147.23-31.69,0,0-74.96-97-100.4-128.98Z"/>
      <path class="cls-17" d="M3220.84,1730.14c39.08-4.13,110.24-14.86,141.58-31.12,0,0-74.96-97-100.4-128.98-20.42-25.65-71.16-93.22-90.69-119.29-4.9-6.54-12.75-10.19-20.9-9.72l-29.25,1.67c-.71.04-1.16.77-.89,1.43l83.76,198.82c37.46,76.32,17.04,87.06,16.78,87.19Z"/>
      <g>
        <path class="cls-11" d="M3215.42,1668.32c-.21-.52-.42-1.05-.64-1.58-47.44-17.89-183.91-72.64-242.7-131.2-.51.07-1.02.14-1.54.21,59.1,59.45,198.24,115.02,244.89,132.56Z"/>
        <path class="cls-11" d="M3224.92,1698.5c-154.61-11.99-403.13-69.58-491.64-90.95-.68.26-1.37.53-2.05.79,87.05,21.04,338.23,79.41,493.94,91.43-.08-.42-.16-.84-.25-1.28Z"/>
      </g>
      <path class="cls-45" d="M3362.42,1699.03s-74.96-97-100.4-128.98c-20.42-25.65-71.16-93.22-90.69-119.29-4.9-6.54-12.75-10.19-20.9-9.72,176.37,258.55,175.67,270.6,175.6,270.92,14.37-3.81,27.13-8.13,36.39-12.93Z"/>
      <path class="cls-11" d="M3226.48,1716.91c-127.72,10.02-281.38-18.5-365.39-34.09-31.19-5.79-51.79-9.61-57.38-8.85-66.51,9.05-209.35,18.85-274.54,23.06-.77.47-1.52.94-2.27,1.4,64.06-4.13,209.62-14.06,276.98-23.22,5.37-.73,25.91,3.08,56.98,8.84,84.02,15.6,237.66,44.11,365.5,34.12.05-.41.09-.83.12-1.27Z"/>
    </g>
    <path class="cls-40" d="M492.91,1902.66c0-25.2-12.03-47-29.54-57.58-6.54,3.77-11.68,6.76-15.84,8.94-22.83,11.96-17.89,81.1,6.27,84.57,0,0,10.13.81,28.73,2.18,6.52-10.67,10.38-23.85,10.38-38.11Z"/>
    <path class="cls-24" d="M446.34,1854.72c-21.24,13.58-16.36,79.12,6.76,83.73,9.24-4.43,15.21-22.18,13.75-42.91-1.5-21.37-10.37-38.51-20.51-40.82Z"/>
    <path d="M453.8,1895.54c.62,8.23-2.33,15.17-6.61,15.49-4.27.32-8.24-6.09-8.87-14.32-.62-8.23,2.33-15.17,6.61-15.49,4.27-.32,8.24,6.09,8.87,14.32Z"/>
    <path class="cls-33" d="M221.71,1728.33l351.61,61.36c.69-.3,1.38-.61,2.07-.91l-351.06-61.26-2.62.81Z"/>
    <path class="cls-33" d="M562.28,1765.96l36.21-19.12,59.51,8.15c.81-.31,1.61-.62,2.43-.93l-61.97-8.49-.2-.03-39.95,21.09,51.25,7.62c.75-.31,1.51-.62,2.26-.93l-49.55-7.36Z"/>
    <path class="cls-33" d="M1197.54,1307.6l-34.33,13.18,616.64,124.64c.96-.23,1.92-.46,2.89-.69l-615.06-124.32,32.42-12.45-2.55-.36Z"/>
    <path class="cls-19" d="M1437.36,1431.95l-49.03,37.56c-.62.47-.28,1.46.49,1.46,0,0,6.44,1.63,13.01,0,.31-.08.84-.08,1.24-.23l74.67-28.72-40.38-10.08Z"/>
    <path class="cls-16" d="M1219.43,1582.59c-157.27,41.6-280.77,78.43-370,106.72,165.92,58.56,289.63,266.01,298.55,281.28,157.69,2.3,320.88.51,464.34-9.36,0,0,50.63-134.44-392.88-378.64Z"/>
    <path class="cls-39" d="M1362.16,1883.77c-3.4,0-6.69-1.23-9.29-3.53-3.24-2.86-4.98-6.99-4.78-11.33,3.8-82.67-19.27-160.09-33.35-198.89-1.87-5.14-1.36-10.81,1.4-15.54,2.76-4.75,7.45-8,12.87-8.93l64.23-10.96c8.25-1.4,16.42,2.92,19.88,10.52,15,33,48.48,119.94,35.59,214.24-.83,6.08-5.5,10.87-11.61,11.9l-72.54,12.31c-.79.13-1.59.2-2.38.2ZM1396.33,1635.59c-.96,0-1.93.08-2.9.25l-64.23,10.96c-5.05.86-9.42,3.89-11.99,8.32-2.57,4.41-3.04,9.69-1.3,14.48,14.12,38.89,37.23,116.49,33.43,199.38-.18,3.96,1.41,7.72,4.36,10.33,2.91,2.58,6.79,3.69,10.63,3.03l72.54-12.31c5.57-.94,9.82-5.3,10.58-10.84,12.85-93.97-20.54-180.65-35.49-213.55-2.81-6.19-8.99-10.05-15.63-10.05Z"/>
    <path class="cls-37" d="M676.27,1748.06h0s231.34-88.74,685.45-202.03c-71.35,17.18-146.51-3.72-198.75-55.27l-488.99-482.49c-16.91-16.72-41.19-23.64-64.38-18.34l-152.56,34.87c-5.12,1.17-8.15,6.46-6.56,11.47l225.79,711.8Z"/>
    <path class="cls-10" d="M849.43,1689.3h0c89.23-28.29,212.73-65.11,370-106.72h0l-597.75-594.31h0c-1.99.1-3.99.28-5.98.55-.07,0-.15.02-.22.03-.84.12-1.67.25-2.51.4-.21.04-.42.07-.63.11-.91.17-1.83.35-2.74.56l-152.56,34.87c-5.12,1.17-8.15,6.46-6.56,11.47l125.51,395.68,273.43,257.35Z"/>
    <path class="cls-21" d="M1003.74,1789.69s0,0,0,0c27.98,26.43,52.74,54.31,73.52,80.1h0s47.68-92.76,47.68-92.76c0,0-50.97-2.78-121.2,12.66Z"/>
    <path class="cls-12" d="M715.79,1880.26l203.38,47.5,129.09-34.1,30.45-81.6,14.61-7.31,6.09-14.58c-33.61,7.94-148.85,10.97-197.3,21.89-18.69,4.21-50.74,17.85-83.04,29.93-51.33,19.19-103.3,38.27-103.3,38.27Z"/>
    <path class="cls-8" d="M1091.39,1791.75l-4.32,13.01-14.61,7.31-29.99,83.13,5.81-1.54,30.45-81.6,14.61-7.31,6.09-14.58c-2.31.54-5.01,1.07-8.04,1.57Z"/>
    <path class="cls-41" d="M902.13,1812.06c48.45-10.92,163.68-13.94,197.3-21.89-33.61,7.94-114.53-2.01-194.79,10.61-18.93,2.98-58.26,22.86-90.56,34.94-51.33,19.19-98.29,44.54-98.29,44.54,0,0,51.97-19.08,103.3-38.27,32.3-12.08,64.35-25.72,83.04-29.93Z"/>
  </g>
  <rect class="cls-14" width="4200" height="3200"/>
</svg>