<?xml version="1.0" encoding="UTF-8"?>
<svg id="_Ñëîé_1" data-name="Ñëîé 1" xmlns="http://www.w3.org/2000/svg" viewBox="0 0 6029.77 3315.94">
  <defs>
    <style>
      .cls-1 {
        fill: #282130;
      }

      .cls-2 {
        fill: #0d0b11;
      }

      .cls-3 {
        fill: #2f283a;
      }

      .cls-4 {
        fill: #18141e;
      }
    </style>
  </defs>
  <rect class="cls-4" x="2834.44" y="2788.4" width="360.89" height="443.04"/>
  <rect class="cls-2" x="2834.44" y="2788.4" width="360.89" height="161.01"/>
  <rect class="cls-2" x="2834.44" y="3034.31" width="360.89" height="161.01"/>
  <rect class="cls-4" y="0" width="6029.77" height="2870.72"/>
  <rect class="cls-1" x="112.82" y="93.35" width="5804.12" height="2637.19"/>
  <path class="cls-4" d="M2255.91,3089.36h1517.96c93.95,0,170.23,76.28,170.23,170.23v56.34h-1858.41v-56.34c0-93.95,76.28-170.23,170.23-170.23Z"/>
  <polygon class="cls-3" points="3435.6 2730.54 4601.23 2730.54 5916.95 464.02 5916.95 93.35 4966.49 93.35 3435.6 2730.54"/>
  <polygon class="cls-3" points="2284.72 2730.54 3815.61 93.35 3609.04 93.35 2078.15 2730.54 2284.72 2730.54"/>
  <polygon class="cls-3" points="263.31 2730.54 1428.94 2730.54 2959.83 93.35 1794.19 93.35 263.31 2730.54"/>
  <polygon class="cls-3" points="112.82 981.79 112.82 1693.48 1041.69 93.35 628.56 93.35 112.82 981.79"/>
</svg>