<?xml version="1.0" encoding="UTF-8"?>
<svg id="Calque_2" data-name="Calque 2" xmlns="http://www.w3.org/2000/svg" viewBox="0 0 215.56 274.94">
  <defs>
    <style>
      .cls-1 {
        fill: #5db2a6;
      }

      .cls-2 {
        fill: #cbe6e2;
      }

      .cls-3 {
        fill: #4c1d10;
      }

      .cls-4 {
        fill: #a81300;
      }

      .cls-5 {
        fill: #dceeeb;
      }

      .cls-6 {
        fill: #f5efd9;
      }

      .cls-7 {
        fill: #ff898b;
      }

      .cls-8 {
        fill: #a0d2cb;
      }

      .cls-9 {
        fill: #6e0000;
      }

      .cls-10 {
        fill: #c6e4e0;
      }

      .cls-11 {
        fill: #f6f6f1;
      }
    </style>
  </defs>
  <g id="Layer_1" data-name="Layer 1">
    <g>
      <g>
        <g>
          <path class="cls-9" d="M145.79,91.47c-1.81-.21-3.31-1.64-3.55-3.53-.27-2.22,1.31-4.25,3.53-4.52.17-.02,7.64-1.02,15.98-5.01,10.86-5.2,18.05-12.83,21.35-22.66.71-2.12,3.01-3.27,5.14-2.55,2.12.71,3.27,3.01,2.55,5.14-4,11.9-12.92,21.42-25.79,27.51-9.54,4.52-17.89,5.58-18.24,5.63-.33.04-.66.04-.98,0Z"/>
          <path class="cls-3" d="M146.27,92.23c-.19,0-.37-.01-.56-.03h0c-2.19-.26-3.91-1.97-4.19-4.17-.32-2.62,1.54-5.01,4.16-5.34.3-.04,7.56-1.02,15.75-4.94,10.68-5.12,17.74-12.6,20.98-22.24.84-2.5,3.56-3.85,6.06-3.01,2.5.84,3.85,3.56,3.01,6.06-4.07,12.09-13.11,21.75-26.16,27.94-9.66,4.58-18.11,5.65-18.46,5.69-.2.03-.39.04-.59.04ZM145.88,90.75c.26.03.53.03.8,0,.35-.04,8.57-1.09,18.02-5.56,12.68-6.01,21.47-15.38,25.41-27.09.58-1.74-.36-3.63-2.1-4.22-1.74-.58-3.63.35-4.22,2.09-3.37,10.03-10.68,17.79-21.73,23.09-8.4,4.02-15.88,5.04-16.2,5.08-1.82.23-3.12,1.89-2.9,3.71.19,1.53,1.39,2.72,2.91,2.9Z"/>
        </g>
        <g>
          <g>
            <path class="cls-11" d="M191.45,61.79c1,1.36.94,3.46.01,4.87-2.22,3.35-6.66,1.83-9.52.3-3.31-1.77-7.35-5.27-4.45-9.28,1.28-1.77,3.35-2.2,5.19-1.16,2.31,1.31,4.63,2.61,7,3.81.76.38,1.36.9,1.78,1.47Z"/>
            <path class="cls-3" d="M187.55,69.39c-1.7,0-3.71-.6-5.96-1.8-1.48-.79-5-2.96-5.71-6.03-.34-1.47,0-2.92,1-4.32,1.49-2.06,3.95-2.61,6.13-1.37,2.19,1.24,4.54,2.56,6.97,3.79.83.42,1.54,1.01,2.04,1.69h0c1.14,1.55,1.16,4,.03,5.7-1.04,1.56-2.58,2.34-4.52,2.34ZM180.65,56.68c-.98,0-1.91.49-2.58,1.42-.76,1.05-1.01,2.08-.77,3.14.58,2.49,3.67,4.38,4.98,5.08,2.35,1.26,6.59,2.92,8.57-.06.79-1.19.79-2.96,0-4.03-.37-.5-.9-.94-1.53-1.26-2.45-1.25-4.83-2.58-7.03-3.82-.55-.31-1.11-.46-1.66-.46Z"/>
          </g>
          <g>
            <path class="cls-11" d="M182.38,46.08c-2.51,1.49-5.39-4-6.72-5.49-2.14-2.4-5.4-4.1-8.01-1.33-2.58,2.75.21,5.14,2.46,6.82,3.19,2.37,5.15,5.23,6.92,8.79,1.54,3.09,3.67,5.89,7.35,6.52.43.07,3.42-.25,3.47-.12,1.56,3.42,5.53,3.82,8.5,2.01,3.34-2.04,5.65-5.79,7.79-8.86,2.12-3.04,4.1-6.15,6.03-9.29,1.88-3.06,4.25-6.14,4.64-9.83.3-2.83-1.83-4.28-4.14-2.56-1.73,1.29-2.74,3.23-3.79,5.07-1.52,2.69-3.63,5.44-5.87,7.58,2.57-4.67,4.58-9.69,6.1-14.79.88-2.96,1.57-7.7-2.15-9.03-2.54-.91-3.85,2.08-4.54,3.97-1.06,2.91-1.8,5.89-3.26,8.65-1.15,2.19-1.66,4.77-3.21,6.76.31-3.56,1.16-7.04,1.45-10.62.24-3.02.6-6.71-1.64-9.13-.75-.81-1.76-1.26-2.95-1.05-2.75.51-2.72,5.73-2.84,7.85-.19,3.34-.61,6.68-1.42,9.94-.65,2.61-1.63,6.65-4.16,8.16Z"/>
            <path class="cls-3" d="M192.68,65.06c-.65,0-1.29-.09-1.89-.27-1.49-.46-2.66-1.42-3.41-2.82-.33.02-.83.05-1.2.07-1.17.08-1.67.11-1.93.06-4.34-.74-6.57-4.3-7.88-6.91-2-4-3.94-6.47-6.71-8.53-1.86-1.38-3.61-2.93-3.78-4.85-.09-1.06.32-2.09,1.22-3.05,1.05-1.12,2.28-1.67,3.64-1.66,2.44.03,4.46,1.9,5.45,3,.32.35.69.88,1.12,1.49,1.23,1.75,3.3,4.67,4.68,3.85,2.23-1.32,3.17-5.08,3.8-7.57l.04-.13c.73-2.92,1.19-6.13,1.4-9.8,0-.19.02-.4.03-.63.12-2.56.33-7.33,3.4-7.9,1.34-.25,2.62.2,3.61,1.27,2.41,2.59,2.1,6.41,1.85,9.48l-.02.2c-.15,1.87-.45,3.72-.74,5.51-.05.33-.11.66-.16.99.04-.1.08-.2.12-.3.35-.91.71-1.85,1.18-2.73.98-1.86,1.62-3.8,2.29-5.86.29-.89.59-1.8.92-2.7.51-1.39,2.06-5.63,5.47-4.4,3.2,1.15,4.15,4.76,2.61,9.93-1.03,3.46-2.25,6.75-3.63,9.84.76-1.04,1.46-2.12,2.07-3.19l.22-.39c1-1.77,2.03-3.61,3.76-4.9,1.29-.96,2.66-1.16,3.76-.53,1.14.65,1.72,2.05,1.54,3.75-.34,3.24-2.08,5.96-3.77,8.59-.33.51-.66,1.03-.97,1.54-2.24,3.66-4.17,6.62-6.06,9.33-.26.37-.52.75-.78,1.13-1.95,2.84-4.15,6.07-7.22,7.94-1.26.77-2.68,1.16-4.05,1.16ZM188.52,60.98c.56,1.21,1.49,2.04,2.7,2.41,1.47.45,3.25.17,4.75-.74,2.8-1.71,4.92-4.79,6.78-7.52.27-.39.53-.77.79-1.14,1.87-2.69,3.78-5.63,6.01-9.26.32-.52.65-1.04.99-1.57,1.59-2.49,3.24-5.07,3.54-7.96.12-1.09-.2-1.98-.81-2.33-.57-.32-1.36-.17-2.17.43-1.48,1.11-2.44,2.8-3.36,4.44l-.23.4c-1.58,2.8-3.77,5.62-6,7.75-.26.25-.66.27-.95.05-.29-.22-.37-.61-.19-.93,2.42-4.39,4.45-9.32,6.04-14.65.76-2.54,1.55-6.97-1.7-8.14-1.42-.51-2.54.58-3.61,3.53-.32.88-.62,1.79-.91,2.66-.66,2.02-1.35,4.11-2.39,6.08-.42.81-.76,1.67-1.11,2.58-.57,1.47-1.15,2.99-2.17,4.29-.2.26-.54.35-.84.23-.3-.12-.49-.42-.46-.74.16-1.77.44-3.53.72-5.23.29-1.76.58-3.58.73-5.39l.02-.2c.24-2.93.51-6.25-1.46-8.38-.45-.49-1.21-1.02-2.28-.83-1.93.36-2.12,4.53-2.21,6.53,0,.24-.02.46-.03.65-.22,3.77-.69,7.06-1.44,10.07l-.03.14c-.68,2.72-1.71,6.83-4.47,8.47h0c-2.54,1.51-4.99-1.97-6.62-4.26-.4-.58-.75-1.07-1.02-1.37-1.41-1.58-3-2.5-4.38-2.52h-.04c-.92,0-1.77.41-2.52,1.21-.62.66-.89,1.29-.83,1.92.12,1.35,1.68,2.69,3.2,3.81,2.93,2.17,5.06,4.88,7.14,9.04,1.87,3.75,3.98,5.64,6.82,6.12.17.02,1.02-.04,1.59-.08,1.9-.13,2.22-.15,2.43.39ZM182.38,46.08h0,0Z"/>
          </g>
          <path class="cls-3" d="M203.15,48.2c-.2,0-.41-.08-.55-.25-2.84-3.26-7.48-5.48-11.61-7.3-.37-.16-.54-.59-.37-.96.16-.37.59-.53.96-.37,4.27,1.89,9.09,4.19,12.12,7.68.26.3.23.76-.07,1.03-.14.12-.31.18-.48.18Z"/>
          <path class="cls-3" d="M198.03,55.27c-.3,0-.58-.19-.69-.49-1.34-3.85-5.37-8.49-9-10.35-.36-.18-.5-.62-.32-.98.18-.36.62-.5.98-.31,3.92,2,8.27,7.02,9.71,11.17.13.38-.07.8-.45.93-.08.03-.16.04-.24.04Z"/>
          <path class="cls-3" d="M185.84,62.18c-.07,0-.15,0-.22,0-.4,0-.72-.35-.71-.75.01-.4.35-.72.75-.71,1.63.05,3.56-.56,4.81-1.5.32-.24.78-.18,1.02.15.24.32.18.78-.14,1.02-1.46,1.1-3.6,1.79-5.51,1.79Z"/>
        </g>
      </g>
      <g>
        <g>
          <path class="cls-8" d="M156.21,257.06c.49,4.96-19.12,10.96-43.81,13.4-24.68,2.44-45.09.39-45.58-4.58-.49-4.96,19.12-10.96,43.81-13.4,24.68-2.44,45.09-.39,45.58,4.58Z"/>
          <path class="cls-3" d="M92.56,272.2c-14.43,0-26.03-1.86-26.46-6.25-.62-6.31,22.44-12.02,44.46-14.2,11.98-1.18,23.35-1.36,32.01-.49,9.25.93,14.09,2.85,14.37,5.72.62,6.31-22.44,12.02-44.46,14.2-6.71.66-13.59,1.02-19.91,1.02ZM130.39,252.18c-6.08,0-12.78.34-19.69,1.03-11.89,1.17-22.97,3.21-31.2,5.72-9.04,2.77-12.1,5.37-11.95,6.88.15,1.51,3.66,3.46,13.07,4.41,8.56.86,19.83.69,31.72-.49,11.89-1.17,22.97-3.21,31.2-5.72,9.04-2.77,12.1-5.37,11.95-6.88-.15-1.51-3.66-3.47-13.07-4.41-3.59-.36-7.65-.54-12.03-.54Z"/>
        </g>
        <g>
          <path class="cls-8" d="M109.28,200.51c-3.29-33.29-4.89-56.5-3.26-59.35,1.25-2.17,1.86-4.41,2.08-5.35-.3.07-.61.13-.91.19l-7.98.79-7.98.79c-.31,0-.62,0-.93-.01.4.88,1.44,2.95,3.09,4.84,2.16,2.48,5.12,25.55,8.41,58.84,3.29,33.29,1.07,42.76.01,45.89-1.06,3.13-4.94,8.22-4.94,8.22.37.97,5.61,2.47,14.2,1.62,8.6-.85,13.44-3.34,13.61-4.37,0,0-4.8-4.23-6.45-7.1-1.65-2.86-5.67-11.71-8.96-45Z"/>
          <path class="cls-3" d="M106.18,257.95c-5.59,0-9.49-1.04-9.98-2.34-.09-.23-.05-.5.1-.7.04-.05,3.82-5.03,4.83-8.01,2.25-6.66,2.24-22.42-.05-45.58-4.51-45.66-6.97-56.98-8.23-58.43-1.73-1.98-2.81-4.17-3.2-5.02-.1-.23-.08-.49.06-.7s.37-.34.62-.33c.3,0,.59.01.88.01l15.88-1.57c.28-.06.57-.12.86-.19.24-.05.5.02.68.2.18.18.25.43.19.68-.21.91-.85,3.27-2.16,5.55-.96,1.67-1.16,13.25,3.35,58.92,2.29,23.16,5.35,38.62,8.87,44.71,1.57,2.73,6.25,6.87,6.3,6.91.19.17.28.42.24.67-.29,1.75-6.09,4.17-14.26,4.97-1.76.17-3.43.25-4.97.25ZM97.85,255.26c1.21.62,5.53,1.74,13.15.99,7.62-.75,11.64-2.7,12.71-3.54-1.29-1.18-4.71-4.42-6.1-6.83-3.62-6.27-6.75-21.93-9.05-45.29-4.93-49.94-4.17-58.04-3.17-59.79.84-1.47,1.39-2.98,1.71-4.05l-15.62,1.54c.52.99,1.35,2.36,2.47,3.64,1.32,1.52,3.66,9.31,8.59,59.25,2.31,23.37,2.3,39.34-.02,46.19-.89,2.63-3.62,6.48-4.65,7.89Z"/>
        </g>
        <g>
          <path class="cls-1" d="M112.41,270.46c-24.68,2.44-45.09.39-45.58-4.58h0l.27,2.73c.49,4.96,20.9,7.01,45.58,4.58,24.68-2.44,44.3-8.44,43.81-13.4l-.27-2.72c.49,4.96-19.12,10.96-43.81,13.4Z"/>
          <path class="cls-3" d="M92.92,274.94c-4.43,0-8.54-.18-12.18-.54-9.25-.93-14.09-2.85-14.37-5.72l-.27-2.72s0,0,0,0c-.04-.4.25-.75.65-.8.4-.04.76.25.8.65h0c.15,1.52,3.66,3.47,13.07,4.41,8.56.86,19.83.69,31.72-.49l.07.72-.07-.72c11.89-1.17,22.97-3.21,31.2-5.72,9.04-2.77,12.1-5.37,11.95-6.88-.04-.4.25-.76.65-.8.4-.04.76.25.8.65l.27,2.72c.28,2.86-4.08,5.7-12.97,8.42-8.32,2.55-19.5,4.6-31.48,5.78-6.95.69-13.7,1.03-19.83,1.03ZM67.81,268.41v.12c.16,1.51,3.67,3.47,13.08,4.41,8.56.86,19.83.69,31.72-.49,11.89-1.17,22.97-3.21,31.2-5.72,9.04-2.77,12.1-5.37,11.95-6.88v-.12c-4.98,5.17-24.51,9.6-43.28,11.45-18.77,1.85-38.79,1.33-44.67-2.77Z"/>
        </g>
        <g>
          <path class="cls-10" d="M129.23,254.63c-.9-1.1-4.54-2.03-4.54-2.03h0c-.17,1.03-5.01,3.52-13.61,4.37-8.6.85-13.83-.65-14.2-1.62h0s-3.39,1.62-4.06,2.88c-.67,1.26,6.06,4.63,18.71,3.38,12.66-1.25,18.6-5.87,17.69-6.97Z"/>
          <path class="cls-3" d="M106.16,262.61c-7.86,0-12.8-1.86-13.86-3.43-.29-.43-.33-.9-.12-1.29.73-1.37,4.25-3.26,4.7-3.26.29,0,.54.17.66.42.47.51,4.86,2.05,13.47,1.2,8.61-.85,12.62-3.22,12.97-3.81.08-.33.37-.56.71-.56.14,0,4.02.97,5.1,2.3.28.34.33.82.13,1.29-.88,2.13-7.32,5.78-18.32,6.87-1.94.19-3.76.28-5.45.28ZM93.55,258.43c.76,1.06,6.93,3.53,17.92,2.45,10.99-1.09,16.56-4.71,17.09-5.9-.59-.54-2.25-1.16-3.54-1.53-1.47,1.64-6.77,3.55-13.86,4.25-7.09.7-12.67-.14-14.43-1.46-1.2.62-2.7,1.55-3.18,2.2ZM128.66,255.09h0,0ZM123.97,252.48h0s0,0,0,0Z"/>
        </g>
        <g>
          <path class="cls-2" d="M122.79,2.47c.22,2.18-15.94,5.56-36.09,7.55-20.15,1.99-36.66,1.83-36.87-.35,0,0-16.12,53.49-13.24,85.12,2.65,29.08,33.76,42.42,55.06,42.73l7.56-.75,7.56-.75c20.83-4.47,48.73-23.63,45.64-52.67-3.36-31.58-29.63-80.89-29.63-80.89Z"/>
          <path class="cls-3" d="M91.65,138.26h-.01c-11.84-.17-24.89-4.17-34.91-10.69-8.67-5.64-19.33-15.89-20.86-32.7-2.86-31.41,13.1-84.87,13.27-85.4.1-.33.42-.55.77-.52.32.03.57.26.64.57.19.17,1.7,1.15,11.13,1.18,6.82.02,15.69-.48,24.96-1.39,9.27-.91,18.06-2.16,24.75-3.51,9.24-1.87,10.53-3.13,10.69-3.33,0-.31.21-.59.52-.68.33-.1.69.05.85.35.26.49,26.37,49.8,29.71,81.16,1.78,16.78-6.66,28.92-14.07,36.15-8.56,8.36-20.57,14.83-32.15,17.31-.03,0-.05,0-.08.01l-15.12,1.49s-.05,0-.07,0ZM50.2,11c-2.27,7.83-15.49,55.11-12.88,83.74,2.6,28.49,33.31,41.74,54.31,42.07l15.04-1.48c20.53-4.43,48.06-23.43,45.03-51.87-3.04-28.58-25.25-72.37-29.01-79.6-.52.38-1.3.75-2.36,1.14-1.82.66-4.45,1.35-7.79,2.05-6.84,1.43-15.99,2.75-25.76,3.72-9.77.96-19,1.46-25.99,1.39-3.42-.03-6.13-.2-8.05-.49-1.12-.17-1.95-.38-2.54-.65ZM106.77,136.04h0,0ZM122.06,2.54h0,0Z"/>
        </g>
        <g>
          <path class="cls-4" d="M149.5,78.58c.99,1.53-.5,3.85-2.23,4.76-2.8,1.47-6.66,1.06-9.7,1.07-7.23.01-14.18.18-21.26,2.02-5.92,1.54-11.92,3.26-18.09,3.29-5.3.02-10.33-.25-15.63.16-5.34.42-10.68.76-16.03,1.03-3.88.19-6.94.88-10.6-.97-4.52-2.27-8.18-6.11-10.64-10.49-1.11-1.97-.79-3.73,2.05-3.73,2.58,0,4.96,2.61,7.15,3.67,8.72,4.21,16.17-2.45,24.81-2.49,5.24-.03,10.08,1.46,15.19,2.28,6.51,1.04,12.94-.69,19.43-1,6.61-.31,12.89,2.08,19.58.72,3.07-.62,6.13-1.3,9.25-1.55,1.63-.13,3.7-.38,5.28.2.7.26,1.16.62,1.44,1.04Z"/>
          <path class="cls-3" d="M61.58,91.92c-1.92,0-3.86-.27-5.96-1.33-4.39-2.21-8.28-6.03-10.95-10.78-.76-1.35-.89-2.59-.37-3.49.35-.61,1.17-1.33,3.05-1.33h.01c1.93,0,3.69,1.25,5.25,2.35.78.55,1.51,1.06,2.2,1.4,5.12,2.47,9.79,1,14.74-.56,3.12-.98,6.34-1.99,9.75-2.01,3.68-.03,7.22.7,10.63,1.4,1.53.31,3.1.63,4.68.89,4.2.67,8.48.15,12.63-.36,2.17-.27,4.42-.54,6.65-.65,2.83-.14,5.62.22,8.32.56,3.8.48,7.39.94,11.15.17l1-.2c2.71-.56,5.51-1.14,8.34-1.36l.49-.04c1.57-.13,3.52-.3,5.1.28.81.3,1.42.75,1.8,1.33h0c.44.68.55,1.5.32,2.39-.35,1.34-1.48,2.71-2.82,3.41-2.47,1.3-5.61,1.23-8.38,1.18-.58-.01-1.14-.03-1.67-.02-7.11.01-14.06.17-21.08,2-.5.13-.99.26-1.49.39-5.42,1.42-11.03,2.9-16.78,2.92-1.61,0-3.22-.01-4.77-.04-3.68-.05-7.15-.09-10.81.19-5.37.42-10.77.77-16.05,1.04-.67.03-1.33.08-1.96.13-1.03.08-2.04.15-3.05.15ZM47.37,76.45h0c-.93,0-1.57.22-1.8.61-.24.42-.1,1.18.38,2.04,2.53,4.5,6.2,8.11,10.33,10.19,2.85,1.43,5.35,1.24,8.25,1.02.64-.05,1.3-.1,1.99-.13,5.27-.26,10.65-.61,16.01-1.03,3.73-.29,7.4-.25,10.95-.2,1.54.02,3.14.04,4.74.03,5.56-.02,11.08-1.47,16.41-2.87.5-.13,1-.26,1.49-.39,7.18-1.87,14.24-2.04,21.45-2.05.55,0,1.11.01,1.7.02,2.59.06,5.53.12,7.66-1.01.98-.52,1.84-1.54,2.09-2.5.13-.49.08-.9-.13-1.23h0c-.2-.31-.56-.57-1.07-.75-1.27-.47-2.97-.32-4.47-.2l-.5.04c-2.74.22-5.5.79-8.17,1.34l-1,.21c-4,.82-7.88.33-11.63-.15-2.63-.34-5.36-.68-8.07-.55-2.18.1-4.4.38-6.54.64-4.25.52-8.64,1.06-13.04.35-1.6-.26-3.2-.58-4.74-.9-3.5-.71-6.79-1.38-10.33-1.37-3.2.02-6.31,1-9.33,1.94-5,1.58-10.17,3.2-15.81.48-.8-.39-1.58-.94-2.41-1.52-1.45-1.02-2.95-2.08-4.41-2.08Z"/>
        </g>
        <g>
          <path class="cls-5" d="M122.79,2.47c.22,2.18-15.94,5.56-36.09,7.55-20.15,1.99-36.66,1.83-36.87-.35-.22-2.18,15.94-5.56,36.09-7.55,20.15-1.99,36.66-1.83,36.87.35Z"/>
          <path class="cls-3" d="M62.04,12.15c-.43,0-.85,0-1.26,0-3.42-.03-6.13-.2-8.05-.49-2.45-.38-3.54-.95-3.63-1.9-.09-.96.86-1.73,3.19-2.58,1.82-.66,4.45-1.36,7.79-2.06,6.84-1.43,15.99-2.75,25.76-3.72C95.62.43,104.84-.06,111.83,0c3.42.03,6.13.2,8.05.49,2.45.38,3.54.95,3.63,1.9h0c.1.96-.86,1.73-3.19,2.58-1.82.66-4.45,1.35-7.79,2.05-6.84,1.43-15.99,2.75-25.76,3.72-9.19.91-17.9,1.4-24.72,1.4ZM50.65,9.59c.48.29,2.58,1.07,11.02,1.1,6.82.02,15.69-.48,24.96-1.39,9.27-.91,18.06-2.16,24.75-3.51,8.27-1.67,10.18-2.86,10.59-3.23-.48-.29-2.58-1.08-11.02-1.1-6.81-.02-15.69.48-24.96,1.39-9.27.92-18.06,2.16-24.75,3.52-8.27,1.67-10.17,2.85-10.59,3.23ZM122.1,2.66h0,0Z"/>
        </g>
        <g>
          <path class="cls-8" d="M119.45,2.6c.12,1.21-14.56,3.92-32.81,5.73-18.26,1.8-33.18,2.01-33.3.8-.07-.66,14.56-3.9,32.82-5.7,18.26-1.8,33.22-1.59,33.3-.83Z"/>
          <path class="cls-3" d="M60.36,10.62c-1.76,0-3.25-.04-4.39-.12-2.46-.18-3.28-.49-3.36-1.29-.07-.69-.13-1.28,10.13-3.21,4.09-.77,12.57-2.22,23.34-3.29,10.91-1.08,19.43-1.32,23.53-1.38,10.43-.13,10.5.51,10.56,1.2h0c.08.8-.66,1.27-3.04,1.92-1.66.46-4.1.98-7.07,1.5-6.43,1.14-14.73,2.24-23.35,3.09-8.63.85-16.98,1.4-23.51,1.53-1.01.02-1.96.03-2.84.03ZM55.62,9.02c4.32.37,15.83.07,30.94-1.42,15.22-1.5,26.63-3.48,30.71-4.69-4.46-.31-16.58-.19-31.06,1.24-14.01,1.38-26.11,3.67-30.6,4.86Z"/>
        </g>
        <path class="cls-3" d="M97.77,143.65c-2.7,0-4.49-.52-4.6-.56-.38-.12-.6-.52-.49-.91.11-.38.52-.6.91-.49h0s3.48,1.01,7.96.12c.39-.08.78.18.85.57.08.39-.18.78-.57.85-1.49.3-2.87.4-4.07.4Z"/>
        <g>
          <path class="cls-8" d="M98.7,154s7.38,58.34,7.19,76.5l-7.19-76.5Z"/>
          <path class="cls-3" d="M105.89,231.24h0c-.4,0-.72-.34-.72-.74.19-17.91-7.11-75.83-7.18-76.41-.05-.4.23-.76.63-.82.4-.05.76.23.81.63.07.58,7.39,58.6,7.19,76.61,0,.4-.33.72-.73.72Z"/>
        </g>
        <g>
          <path class="cls-8" d="M104.9,243.95s-.24,5.26-4.23,10.12l4.23-10.12Z"/>
          <path class="cls-3" d="M100.67,254.8c-.16,0-.33-.05-.46-.17-.31-.25-.36-.71-.1-1.03,3.78-4.6,4.06-9.64,4.06-9.69.02-.4.36-.72.76-.69.4.02.71.36.69.76-.01.23-.3,5.56-4.39,10.55-.14.17-.35.27-.56.27Z"/>
        </g>
        <path class="cls-3" d="M105.57,264.91c-10.19,0-15.3-2.84-16.19-5.05-.35-.88-.13-1.73.6-2.28.32-.24.78-.18,1.02.14.24.32.18.78-.14,1.02-.17.13-.25.27-.13.58.61,1.52,5.13,4.14,14.79,4.14,2.18,0,4.61-.13,7.33-.44.4-.04.76.24.81.64.05.4-.24.76-.64.8-2.73.31-5.21.45-7.45.45Z"/>
        <path class="cls-3" d="M118.69,263.46c-.34,0-.64-.24-.71-.59-.08-.4.18-.78.57-.86.06-.01,5.5-1.11,9.47-3.61.34-.22.79-.11,1,.23.21.34.11.79-.23,1-4.21,2.65-9.73,3.76-9.97,3.81-.05.01-.1.02-.14.02Z"/>
        <path class="cls-6" d="M103.95,144.21c-.39,2.31,3.45,76.95,10.73,96.11,0,0-4.75-6.34-8.73-46.59-3.97-40.25-2-49.52-2-49.52Z"/>
        <path class="cls-6" d="M120.82,7.21s24.29,44.02,25.88,64.29c-10.9-33.92-23.6-54.24-30.43-63.02l4.55-1.27Z"/>
        <g>
          <path class="cls-9" d="M149.74,78.44c.6,3.71-11.29,5.45-13.72,5.49-7.04.12-14.21-.88-20.98,1.63-5.64,2.08-10.22,3.32-16.24,2.76-5.27-.49-10.1-2.78-14.75-5.16-4.67-2.39-9.55-2.83-14.66-1.24-4.24,1.32-7.92,2.68-12.26.69-3.07-1.41-5.14-3.53-7.24-6.07-1.74-2.11-4.94-6.05-8-3.72-1.32,1.01-1.54,2.82-2,4.37-2.24,7.58-1.56,16.6.55,24.14,1.61,5.77,4.4,11.24,8.47,15.66,10,10.86,25.23,16.96,39.8,17.97,1.7.12,3.41.08,5.1-.08l10.32-1.02c1.7-.17,3.38-.47,5.02-.92,19.7-5.38,44.01-23.43,41.17-50.14-.15-1.43-.35-2.89-.6-4.38Z"/>
          <path class="cls-3" d="M90.73,135.78c-.7,0-1.39-.03-2.07-.07-15.74-1.1-30.8-7.9-40.28-18.21-3.93-4.27-6.92-9.79-8.64-15.96-2.41-8.62-2.6-17.57-.54-24.55.08-.29.16-.58.24-.88.35-1.35.74-2.89,2.02-3.86,3.58-2.74,7.21,1.66,8.95,3.77l.05.06c2.12,2.57,4.12,4.56,6.98,5.87,3.84,1.76,7.17.71,11.02-.5l.72-.23c5.24-1.63,10.36-1.2,15.21,1.28,4.51,2.31,9.35,4.6,14.48,5.08,5.73.53,10.18-.6,15.92-2.72,5.26-1.94,10.78-1.83,16.12-1.71,1.68.04,3.41.07,5.1.04,2.42-.04,10.78-1.42,12.69-3.71.36-.43.36-.74.32-.94-.06-.4.2-.77.6-.84.4-.06.77.2.83.6.25,1.55.46,3.04.6,4.42,1.3,12.26-2.96,23.89-12.33,33.65-7.65,7.96-18.36,14.26-29.37,17.27-1.64.45-3.37.76-5.14.94l-10.32,1.02c-1.06.11-2.12.16-3.16.16ZM43.88,72.85c-.52,0-1.04.17-1.55.56-.87.67-1.17,1.83-1.49,3.07-.08.31-.16.62-.25.93-1.99,6.72-1.79,15.37.55,23.74,1.66,5.95,4.53,11.26,8.31,15.36,9.24,10.03,23.94,16.67,39.31,17.74,1.61.11,3.29.08,4.98-.08l10.32-1.02c1.69-.17,3.34-.47,4.9-.89,17.93-4.89,43.54-22.08,40.64-49.36-.07-.65-.15-1.32-.25-2.02-3.02,2.67-11.6,3.75-13.34,3.78-1.72.03-3.47,0-5.16-.04-5.2-.11-10.58-.23-15.58,1.62-5.94,2.2-10.56,3.36-16.56,2.8-5.39-.5-10.37-2.86-15.01-5.23-4.57-2.34-9.18-2.73-14.12-1.19l-.71.22c-3.97,1.25-7.72,2.43-12.07.43-3.11-1.43-5.25-3.54-7.5-6.27l-.05-.06c-1.68-2.04-3.56-4.1-5.39-4.1Z"/>
        </g>
        <path class="cls-3" d="M40.68,70.2s-.05,0-.08,0c-.4-.04-.69-.4-.64-.8.84-7.58,2.22-16.05,4.1-25.17.08-.39.47-.65.86-.57.39.08.65.47.57.86-1.87,9.08-3.24,17.5-4.08,25.04-.04.37-.36.65-.72.65Z"/>
        <path class="cls-3" d="M46.22,38.35c-.05,0-.11,0-.16-.02-.39-.09-.64-.48-.55-.87,3.1-13.82,6.2-24.14,6.23-24.24.11-.38.52-.6.91-.49.39.11.6.52.49.91-.03.1-3.11,10.37-6.2,24.14-.08.34-.38.57-.71.57Z"/>
        <path class="cls-3" d="M106.15,131.95c-.34,0-.64-.23-.71-.58-.08-.39.17-.78.56-.87,7.98-1.71,16.47-5.7,23.29-10.95.32-.25.78-.19,1.02.13.25.32.19.77-.13,1.02-6.99,5.39-15.7,9.48-23.88,11.23-.05.01-.1.02-.15.02Z"/>
        <path class="cls-3" d="M91.52,133.28c-9.2,0-19.9-2.92-28.62-7.8-7.77-4.35-17.7-12.38-20.87-25.91-.09-.39.15-.78.54-.88.39-.09.78.15.88.54,5.28,22.48,31.29,32.59,48.08,32.59.4,0,.73.33.73.73s-.33.73-.73.73Z"/>
      </g>
      <g>
        <g>
          <path class="cls-9" d="M55.63,117.61c-.41.19-25.24,11.63-36.89,33.52-.73,1.37-2.13,2.15-3.58,2.15-.64,0-1.3-.15-1.9-.48-1.98-1.05-2.73-3.51-1.68-5.49,13.02-24.46,39.6-36.61,40.73-37.11l3.32,7.4Z"/>
          <path class="cls-3" d="M15.15,154.01c-.78,0-1.55-.19-2.25-.56-1.13-.6-1.96-1.6-2.33-2.83-.37-1.22-.25-2.52.35-3.64,13.14-24.68,39.94-36.93,41.07-37.44.37-.16.8,0,.96.37.16.37,0,.8-.37.96-1.12.5-27.48,12.54-40.38,36.79-.42.78-.5,1.68-.25,2.54.26.85.83,1.55,1.62,1.97.49.26,1.01.39,1.56.39,1.23,0,2.36-.68,2.94-1.77,11.75-22.06,36.98-33.73,37.23-33.84.37-.17.8,0,.96.36.17.37,0,.8-.36.96-.25.11-25.03,11.57-36.55,33.2-.83,1.56-2.45,2.54-4.23,2.54Z"/>
        </g>
        <g>
          <g>
            <path class="cls-11" d="M28.76,146.7c-1,1.46-2.68,2.6-4.25,2.41-2.05-.25-4.26-.47-6.18-1.07-2.04-.64-4.76-.78-6.07-2.72-1.86-2.77.52-6.17,3.07-7.51,3.16-1.66,7.06-1.25,9.95.79,2.66,1.87,5.77,4.75,3.47,8.11Z"/>
            <path class="cls-3" d="M24.86,149.86c-.14,0-.29,0-.43-.03l-.56-.07c-1.94-.23-3.94-.47-5.75-1.03-.45-.14-.95-.26-1.47-.38-1.79-.42-3.82-.91-4.98-2.63-.76-1.12-.97-2.43-.63-3.79.48-1.89,2.04-3.76,3.97-4.77,3.31-1.74,7.51-1.41,10.71.84,4.43,3.11,5.66,6.18,3.65,9.12h0c-.97,1.41-2.69,2.75-4.5,2.75ZM19.59,137.5c-1.36,0-2.7.31-3.91.94-1.56.82-2.86,2.36-3.23,3.84-.24.96-.1,1.84.43,2.62.84,1.25,2.5,1.64,4.11,2.02.53.12,1.07.25,1.57.41,1.68.52,3.62.75,5.49.98l.56.07c1.15.14,2.62-.72,3.56-2.1,1.51-2.21.47-4.47-3.28-7.1-1.58-1.11-3.45-1.68-5.29-1.68ZM28.76,146.7h0,0Z"/>
          </g>
          <g>
            <path class="cls-11" d="M25.74,145.81c-1.26-.98-2.64-1.71-4.27-2.29-4.89-1.73-10.84-.53-14.49,3.22-2.41,2.49-4.1,5.77-5.11,9.05-1.03,3.37-1.5,7.1-.85,10.59.6,3.22,2.96,8.13,6.98,6.23.73,2.12,4.38,3.29,6.36,3.29,1.94,0,3.25-.75,4.42-2.25,2.9,2,6.06-.83,7.41-3.43.37-.72.69-1.38.93-2.16.38-1.26.66-2.51-.06-3.7-1.31-2.14-3.76-1.75-5.49-.54-.27.19-.18-4.43-.13-4.87.14-1.29,1.06-5.03,3.12-3.41,1.76,1.38,3.05,4.08,5.44,4.56,1.93.39,5.93-.38,6.66-2.61.72-2.2-2.16-3.32-3.51-4.24-2.24-1.52-3.78-3.82-5.6-5.76-.59-.63-1.19-1.19-1.83-1.68Z"/>
            <path class="cls-3" d="M14.37,176.64h0c-1.76,0-5.39-.95-6.72-3.09-1.13.36-2.25.28-3.25-.23-2.31-1.18-3.64-4.4-4.09-6.79-.61-3.3-.31-7.08.87-10.94.8-2.6,2.36-6.33,5.28-9.35,3.74-3.86,10.01-5.25,15.25-3.4,1.74.62,3.16,1.38,4.47,2.4h0c.66.52,1.29,1.09,1.91,1.75.56.6,1.1,1.23,1.62,1.84,1.22,1.44,2.38,2.8,3.86,3.81.22.15.5.32.8.49,1.5.88,3.76,2.21,2.99,4.57-.92,2.79-5.43,3.52-7.5,3.1-1.81-.36-3.04-1.78-4.12-3.02-.55-.64-1.07-1.24-1.63-1.67-.4-.32-.58-.24-.64-.22-.57.24-1.16,1.85-1.3,3.13-.04.35-.07,2.39-.04,3.62,1.05-.5,2.14-.67,3.1-.46,1.02.21,1.86.83,2.45,1.79.88,1.44.55,2.91.14,4.29-.24.8-.56,1.5-.98,2.29-.87,1.66-2.67,3.81-4.91,4.36-1.03.26-2.05.14-2.99-.33-1.26,1.4-2.7,2.04-4.58,2.04ZM8.01,171.89c.1,0,.19.02.28.06.19.08.34.24.41.43.58,1.68,3.8,2.8,5.67,2.8h0c1.64,0,2.75-.57,3.84-1.97.24-.3.67-.37.99-.15.75.52,1.53.67,2.38.45,1.66-.41,3.19-2.12,3.97-3.62.39-.75.67-1.35.88-2.04.35-1.15.58-2.18.01-3.11-.38-.62-.89-1-1.51-1.13-.86-.18-1.96.12-2.95.8-.23.16-.57.18-.82.03-.38-.23-.51-.43-.51-2.96,0-1.14.03-2.36.06-2.62.02-.15.42-3.57,2.19-4.32.47-.2,1.21-.29,2.1.41.66.52,1.26,1.2,1.83,1.86,1.02,1.18,1.99,2.29,3.31,2.55,1.65.33,5.24-.34,5.83-2.13.38-1.16-.73-1.91-2.34-2.86-.32-.19-.62-.37-.88-.54-1.65-1.12-2.92-2.62-4.15-4.07-.51-.6-1.03-1.22-1.57-1.79-.57-.61-1.14-1.13-1.74-1.6h0c-1.19-.92-2.48-1.61-4.07-2.17-4.72-1.67-10.36-.42-13.72,3.04-2.72,2.8-4.19,6.31-4.94,8.76-1.11,3.64-1.4,7.18-.83,10.25.41,2.23,1.6,4.88,3.32,5.76.81.42,1.68.4,2.64-.06.1-.05.21-.07.31-.07Z"/>
          </g>
          <path class="cls-3" d="M9.68,175.3c-.19,0-.37-.07-.51-.21-2.36-2.33-3.61-5.62-3.62-9.5,0-.4.32-.73.73-.73h0c.4,0,.73.32.73.73,0,2.43.56,5.87,3.19,8.47.29.28.29.74,0,1.03-.14.14-.33.21-.52.21Z"/>
          <path class="cls-3" d="M21.09,175.1c-1.38,0-2.66-.56-3.7-1.62-1.93-1.98-2.73-5.32-2.65-7.6.01-.4.34-.72.75-.7.4.01.72.35.7.75-.07,2.04.68,4.94,2.24,6.53.78.8,1.69,1.21,2.7,1.18h0c.4,0,.72.32.73.72,0,.4-.32.73-.72.74h-.06Z"/>
        </g>
      </g>
      <g>
        <g>
          <path class="cls-11" d="M69.97,58.54s.37-6.21,0-19.24c-.37-13.03,2.55-17.04,7.37-17.45,7.39-.63,11.38,10.68,12.02,34.04,0,0-9.88-3.34-19.4,2.65Z"/>
          <path class="cls-3" d="M69.97,59.26c-.13,0-.26-.03-.37-.1-.24-.14-.37-.4-.36-.67,0-.06.36-6.33,0-19.17-.35-12.24,2.06-17.68,8.04-18.19,1.98-.17,3.77.44,5.3,1.81,4.55,4.07,7.01,14.84,7.51,32.93,0,.24-.1.47-.3.61-.19.14-.44.18-.67.11-.1-.03-9.68-3.15-18.78,2.58-.12.07-.25.11-.39.11ZM77.93,22.55c-.17,0-.35,0-.52.02-3.54.3-7.11,2.52-6.71,16.7.27,9.52.14,15.46.06,17.95,7.66-4.24,15.2-2.97,17.86-2.31-.54-16.84-2.9-27.23-7-30.89-1.1-.99-2.31-1.47-3.69-1.47Z"/>
        </g>
        <g>
          <path class="cls-11" d="M95.49,55.73s.37-6.2,0-19.24c-.37-13.03,2.55-17.04,7.37-17.45,7.39-.63,11.38,10.68,12.02,34.04,0,0-9.88-3.34-19.4,2.65Z"/>
          <path class="cls-3" d="M95.49,56.46c-.13,0-.26-.03-.37-.1-.23-.14-.37-.4-.36-.67,0-.06.36-6.33,0-19.17-.34-12.08,2.14-17.69,8.04-18.19,1.98-.17,3.77.44,5.3,1.81,4.55,4.07,7.01,14.84,7.51,32.93,0,.24-.1.46-.29.61-.19.14-.44.18-.67.1-.09-.03-9.68-3.15-18.78,2.58-.12.08-.25.11-.39.11ZM103.45,19.75c-.17,0-.35,0-.52.02-3.54.3-7.11,2.52-6.71,16.7.27,9.52.14,15.46.06,17.95,7.66-4.24,15.2-2.97,17.86-2.31-.54-16.84-2.9-27.23-7-30.89-1.11-.99-2.32-1.47-3.69-1.47Z"/>
        </g>
        <g>
          <path class="cls-11" d="M69.97,58.54s.37-6.21,0-19.24c-.37-13.03,2.55-17.04,7.37-17.45,7.39-.63,11.38,10.68,12.02,34.04,0,0-9.88-3.34-19.4,2.65Z"/>
          <path class="cls-3" d="M69.97,59.26c-.13,0-.26-.03-.37-.1-.24-.14-.37-.4-.36-.67,0-.06.36-6.33,0-19.17-.35-12.24,2.06-17.68,8.04-18.19,1.98-.17,3.77.44,5.3,1.81,4.55,4.07,7.01,14.84,7.51,32.93,0,.24-.1.47-.3.61-.19.14-.44.18-.67.11-.1-.03-9.68-3.15-18.78,2.58-.12.07-.25.11-.39.11ZM77.93,22.55c-.17,0-.35,0-.52.02-3.54.3-7.11,2.52-6.71,16.7.27,9.52.14,15.46.06,17.95,7.66-4.24,15.2-2.97,17.86-2.31-.54-16.84-2.9-27.23-7-30.89-1.1-.99-2.31-1.47-3.69-1.47Z"/>
        </g>
        <path class="cls-3" d="M78.58,44.56l5.25-8.46c-1.36-3.99-3.28-6.08-5.87-5.73-3.87.53-4.85,4.96-4.6,13.66.25,8.71,0,12.85,0,12.85,6.47-3.18,12.96-1.77,12.96-1.77-.12-4.37-.41-8.29-.87-11.65l-6.87,1.09Z"/>
        <path class="cls-3" d="M104.45,41.72l5.25-8.46c-1.36-3.99-3.28-6.08-5.87-5.73-3.87.53-4.85,4.96-4.6,13.66.25,8.71,0,12.85,0,12.85,6.47-3.18,12.96-1.77,12.96-1.77-.12-4.37-.41-8.29-.87-11.65l-6.87,1.09Z"/>
        <g>
          <path class="cls-2" d="M92.22,55.18c3.3.07,3.55-4.25,6.2-4.65,1.73-.25,3.08,2.03,3.23,3.52.41,4.2-3.74,5.25-6.91,5.75l-2.52-4.62Z"/>
          <path class="cls-3" d="M94.75,60.53c-.35,0-.66-.25-.72-.61-.06-.4.21-.77.61-.83,4.68-.74,6.56-2.22,6.29-4.96-.08-.78-.61-1.94-1.36-2.53-.35-.27-.7-.39-1.04-.34-.9.13-1.49.95-2.16,1.91-.88,1.24-1.99,2.8-4.16,2.74-.4,0-.72-.34-.71-.74,0-.4.33-.71.73-.71.03,0,.05,0,.08,0,1.36,0,2.07-.99,2.88-2.13.76-1.07,1.62-2.28,3.14-2.51.74-.11,1.48.11,2.15.63,1.17.91,1.81,2.47,1.91,3.54.51,5.27-5.32,6.19-7.52,6.54-.04,0-.08,0-.11,0Z"/>
        </g>
        <path class="cls-3" d="M68.37,24.66c-.09,0-.17-.02-.26-.05-.38-.15-.56-.57-.42-.94.08-.22,2.09-5.32,6.8-6.89,2.96-.99,6.29-.35,9.87,1.91.34.21.44.66.23,1-.21.34-.66.44-1,.23-3.2-2.01-6.11-2.6-8.64-1.76-4.07,1.36-5.88,5.98-5.9,6.03-.11.29-.39.47-.68.47Z"/>
        <path class="cls-3" d="M93.78,21.43c-.09,0-.18-.02-.26-.05-.37-.15-.56-.57-.42-.94.08-.21,2.09-5.32,6.8-6.89,2.96-.99,6.29-.35,9.87,1.91.34.21.44.66.23,1-.21.34-.66.44-1,.23-3.2-2.01-6.1-2.6-8.63-1.76-4.06,1.35-5.89,5.99-5.91,6.03-.11.29-.39.47-.68.47Z"/>
        <g>
          <path class="cls-7" d="M109.78,55.71c.16,2.74,4.63,4.71,9.99,4.41,5.36-.3,9.58-2.77,9.43-5.5-.15-2.74-4.62-4.71-9.99-4.41-5.36.3-9.58,2.77-9.43,5.5Z"/>
          <path class="cls-3" d="M118.67,60.87c-5.32,0-9.45-2.15-9.62-5.12h0c-.09-1.61.98-3.15,3.01-4.33,1.88-1.1,4.4-1.78,7.11-1.94,2.7-.15,5.29.25,7.28,1.12,2.15.95,3.38,2.36,3.47,3.97.09,1.61-.98,3.15-3.01,4.33-1.88,1.1-4.4,1.78-7.11,1.94-.38.02-.76.03-1.14.03ZM120.29,50.9c-.35,0-.7.01-1.05.03-2.48.14-4.77.76-6.45,1.74-1.51.88-2.34,1.97-2.29,2.99h0c.11,2.04,3.85,4.02,9.22,3.72,2.48-.14,4.77-.76,6.46-1.74,1.51-.88,2.34-1.97,2.28-2.99-.06-1.02-1.01-2.01-2.61-2.71-1.53-.68-3.47-1.03-5.56-1.03Z"/>
        </g>
        <path class="cls-3" d="M95.22,72.57c-8.58,0-12.89-4.91-13.09-5.13-.26-.3-.23-.76.08-1.03s.76-.23,1.03.08c.05.06,4.78,5.38,14.01,4.53,9.25-.86,12.72-7.47,12.75-7.54.18-.36.62-.5.98-.32.36.18.5.62.32.98-.15.3-3.87,7.4-13.92,8.33-.75.07-1.47.1-2.16.1Z"/>
        <path class="cls-3" d="M112.36,66.02c-.32,0-.61-.21-.7-.53-.58-2.08-2.63-1.92-2.86-1.9-.4.04-.76-.25-.8-.65-.04-.4.24-.76.64-.8,1.21-.14,3.68.3,4.42,2.96.11.39-.12.79-.51.9-.07.02-.13.03-.2.03Z"/>
        <path class="cls-3" d="M81.06,69.81h-.02c-.4,0-.72-.34-.71-.74.07-3.24,2.52-4.24,3.81-4.31.4-.03.75.28.77.69.02.4-.28.74-.68.77-.25.02-2.39.25-2.44,2.89,0,.4-.33.71-.73.71Z"/>
        <path class="cls-3" d="M96.65,77.2c-1.41,0-2.78-.25-3.81-.76-.36-.18-.5-.62-.32-.98.18-.36.62-.51.98-.33,2.08,1.05,6.19.7,7.99-.68.32-.25.78-.18,1.02.13.25.32.19.78-.13,1.02-1.34,1.03-3.59,1.59-5.72,1.59Z"/>
        <g>
          <path class="cls-7" d="M59.69,63.51c.53,2.69,5.22,4.03,10.49,3,5.27-1.03,9.11-4.05,8.59-6.74-.53-2.69-5.22-4.03-10.49-3-5.27,1.03-9.11,4.05-8.59,6.74Z"/>
          <path class="cls-3" d="M66.69,67.59c-4.09,0-7.24-1.49-7.72-3.94-.31-1.58.54-3.25,2.38-4.7,1.71-1.34,4.12-2.37,6.78-2.89,2.66-.52,5.27-.48,7.37.12,2.26.64,3.67,1.87,3.98,3.45.31,1.58-.54,3.25-2.38,4.7-1.71,1.34-4.12,2.37-6.78,2.89-1.26.25-2.48.37-3.63.37ZM71.77,57.15c-1.07,0-2.2.11-3.35.34-2.44.48-4.62,1.4-6.16,2.61-1.38,1.08-2.05,2.27-1.85,3.28h0c.39,2.01,4.36,3.46,9.64,2.42,2.44-.48,4.62-1.4,6.16-2.61,1.38-1.08,2.05-2.27,1.85-3.28-.2-1-1.27-1.85-2.95-2.33-.99-.28-2.13-.43-3.34-.43Z"/>
        </g>
      </g>
    </g>
  </g>
</svg>