<?xml version="1.0" encoding="UTF-8"?>
<svg id="Calque_2" data-name="Calque 2" xmlns="http://www.w3.org/2000/svg" viewBox="0 0 229.64 281.6">
  <defs>
    <style>
      .cls-1 {
        fill: #5db2a6;
      }

      .cls-2 {
        fill: #f9f8e0;
      }

      .cls-3 {
        fill: #cbe6e2;
      }

      .cls-4 {
        fill: #ff8f95;
      }

      .cls-5 {
        fill: #4c1d10;
      }

      .cls-6 {
        fill: #dceeeb;
      }

      .cls-7 {
        fill: #eeea9d;
      }

      .cls-8 {
        fill: #f5efd9;
      }

      .cls-9 {
        fill: #a0d2cb;
      }

      .cls-10 {
        fill: #f6f6f1;
      }
    </style>
  </defs>
  <g id="Layer_1" data-name="Layer 1">
    <g>
      <g>
        <g>
          <path class="cls-7" d="M71.67,102.22c-.33,0-.65-.04-.98-.13-.33-.09-8.16-2.16-17.55-7.7-12.51-7.38-21.9-17.47-27.16-29.2-.88-1.97,0-4.28,1.96-5.16,1.97-.88,4.27,0,5.16,1.97,4.63,10.33,12.63,18.92,23.8,25.55,8.48,5.04,15.69,6.97,15.76,6.99,2.08.55,3.33,2.68,2.78,4.76-.46,1.75-2.04,2.91-3.77,2.91Z"/>
          <path class="cls-5" d="M71.67,102.95c-.39,0-.79-.05-1.17-.15-.33-.09-8.25-2.19-17.73-7.77-12.64-7.45-22.14-17.66-27.45-29.53-.51-1.13-.54-2.39-.1-3.54.44-1.15,1.3-2.07,2.43-2.57,2.33-1.05,5.07,0,6.12,2.33,4.56,10.19,12.47,18.67,23.5,25.22,8.38,4.97,15.5,6.89,15.58,6.91,2.47.65,3.95,3.19,3.3,5.65-.53,2.04-2.37,3.46-4.47,3.46ZM29.53,60.43c-.43,0-.87.09-1.29.28-.77.35-1.37.97-1.67,1.77-.3.79-.28,1.65.07,2.43,5.19,11.59,14.48,21.57,26.86,28.87,9.3,5.48,17.03,7.53,17.36,7.62.27.07.54.1.8.1,1.44,0,2.7-.98,3.07-2.37.44-1.69-.57-3.43-2.26-3.87-.07-.02-7.33-1.95-15.95-7.07-11.3-6.7-19.4-15.41-24.09-25.88-.53-1.18-1.69-1.87-2.9-1.87Z"/>
        </g>
        <g>
          <g>
            <path class="cls-10" d="M32.91,61.73c2.39-2.39,3.25-5.37,4.52-8.76,1.21-3.21,2.69-5.34,5.16-7.73,1.05-1.01,4.83-2.99,4.46-4.75-.52-2.44-4.11-1.32-5.54-.59-2.81,1.43-4.59,4.27-6.59,6.61.3-.35.3-2.14.48-2.68,1.38-4.33,5.07-8.28,8.36-11.28,1.07-.97,2.58-2.09,2.03-3.74-1.38-4.14-6.31-.96-8.42.69-3.83,2.97-6.86,8.17-8.12,12.82-1.2-4.57,2.2-10.24,4.49-13.91.76-1.22,1.42-3-.05-4.1-3.6-2.68-7.99,3.47-9.17,6.02-1.35,2.93-1.6,5.75-2.29,8.79-.45,1.98-1.2,6.54-4.02,6.41-3.12-.14-5.65-3.74-8.8-4.45-2.49-.56-5.32.06-7.05,2.04-1.16,1.33-2.39,4.14-1.04,5.71,1.22,1.43,3.59.82,5.25.92,2.43.14,4.29.56,5.96,2.35,2.86,3.07,4.32,7.38,7.36,10.37,2.95,2.9,7.91,2.95,11.23.71.69-.46,1.28-.96,1.8-1.48Z"/>
            <path class="cls-5" d="M25.85,65.51c-2.43,0-4.8-.85-6.48-2.5-1.66-1.64-2.87-3.64-4.03-5.58-1.05-1.75-2.04-3.41-3.35-4.81-1.49-1.6-3.13-1.99-5.47-2.12-.38-.02-.82,0-1.28.02-1.49.07-3.33.15-4.48-1.2-1.62-1.9-.36-5.04,1.05-6.66,1.77-2.04,4.82-2.93,7.75-2.27,1.6.36,3,1.36,4.35,2.32,1.47,1.05,2.86,2.04,4.32,2.11,1.99.09,2.75-3.44,3.17-5.34.04-.18.08-.35.11-.51.18-.81.34-1.62.49-2.4.42-2.22.83-4.32,1.85-6.53.71-1.54,3.49-6.12,6.87-6.98,1.23-.31,2.38-.09,3.4.67,1.47,1.1,1.55,2.94.23,5.07-1.41,2.26-3.7,5.92-4.41,9.46,1.69-3.75,4.22-7.19,6.98-9.33,1.71-1.33,4.95-3.45,7.34-2.73,1.06.32,1.8,1.12,2.22,2.38.65,1.94-.84,3.26-1.92,4.23-.11.1-.21.19-.31.28-4.33,3.94-6.98,7.46-8.08,10.74,1.42-1.77,2.94-3.51,5.02-4.58,1.19-.6,3.64-1.43,5.24-.67.71.34,1.17.95,1.35,1.76.38,1.77-1.76,3.29-3.47,4.52-.49.35-.95.68-1.19.91-2.46,2.37-3.86,4.46-4.99,7.45-.17.45-.33.89-.49,1.32-1.04,2.83-2.01,5.5-4.2,7.69h0c-.57.57-1.2,1.09-1.91,1.57-1.69,1.14-3.7,1.7-5.67,1.7ZM6.15,49.04c.15,0,.3,0,.45.01,2.64.15,4.64.64,6.45,2.58,1.41,1.51,2.48,3.31,3.53,5.05,1.12,1.86,2.27,3.79,3.81,5.29,2.57,2.52,7.1,2.8,10.31.62.63-.43,1.18-.88,1.69-1.39h0c1.96-1.96,2.84-4.37,3.86-7.16.16-.44.32-.88.49-1.33,1.21-3.21,2.71-5.45,5.34-7.99.31-.3.79-.64,1.35-1.04,1.07-.77,3.08-2.2,2.9-3.03-.08-.37-.25-.61-.55-.75-.95-.45-2.88.11-3.95.65-2.03,1.03-3.55,2.93-5.02,4.77-.44.55-.89,1.12-1.35,1.66,0,0,0,0,0,0h0c-.26.31-.72.34-1.03.08-.29-.25-.34-.67-.12-.98.08-.2.14-.85.18-1.24.05-.51.09-.94.19-1.23,1.14-3.6,3.94-7.39,8.56-11.6.1-.09.21-.19.32-.29,1.12-1,1.83-1.72,1.51-2.68-.27-.8-.68-1.27-1.26-1.45-1.27-.38-3.52.54-6.02,2.49-3.46,2.68-6.54,7.56-7.87,12.43-.09.32-.37.54-.7.54h0c-.33,0-.62-.23-.7-.54-1.32-5.04,2.51-11.18,4.58-14.48.91-1.46.96-2.51.14-3.12-.66-.49-1.37-.63-2.16-.43-2.59.66-5.14,4.52-5.91,6.17-.95,2.06-1.33,4.07-1.74,6.2-.15.8-.31,1.62-.5,2.45-.04.15-.07.32-.11.5-.5,2.32-1.43,6.64-4.66,6.49-1.9-.09-3.53-1.25-5.1-2.38-1.29-.92-2.51-1.79-3.82-2.09-2.42-.54-4.91.17-6.34,1.81-1.05,1.21-2.03,3.61-1.04,4.77.68.8,2.02.74,3.3.68.34-.01.66-.03.98-.03ZM34.37,46.04h0,0Z"/>
          </g>
          <g>
            <path class="cls-10" d="M34.54,65.98c.13.06.26.14.38.21.48-.92,1.34-1.24,1.68-2.27.3-.92.23-1.95-.16-2.83-3.29-7.45-18.01-2.85-15.15,5.08.94,2.6,3.94,6.44,6.96,4.22-1.29-1.34.1-3.3,1.29-4.08,1.49-.98,3.41-1.14,4.99-.34Z"/>
            <path class="cls-5" d="M26.37,71.8c-.36,0-.73-.05-1.09-.17-2.16-.66-3.93-3.16-4.67-5.2-1.52-4.22,1.41-7.55,4.98-8.98,4.14-1.66,9.58-1.05,11.52,3.35.47,1.06.54,2.28.19,3.35-.24.73-.68,1.17-1.07,1.56-.27.27-.5.5-.66.81-.09.18-.26.31-.45.36-.19.05-.4.02-.57-.09-.1-.06-.21-.12-.32-.18h0c-1.34-.67-2.98-.55-4.27.3-.65.43-1.39,1.3-1.47,2.08-.04.35.06.63.3.89.15.15.22.36.2.57-.02.21-.13.4-.29.52-.73.53-1.51.81-2.32.81ZM29.93,58.06c-1.28,0-2.6.26-3.8.74-2.71,1.09-5.42,3.61-4.15,7.13.62,1.73,2.14,3.82,3.72,4.3.52.16,1.03.14,1.52-.07-.18-.4-.25-.84-.19-1.31.14-1.3,1.17-2.51,2.12-3.14,1.67-1.1,3.77-1.27,5.54-.47.17-.21.34-.38.51-.55.33-.33.59-.59.72-1,.24-.73.19-1.56-.13-2.3-1.04-2.35-3.37-3.33-5.85-3.33Z"/>
          </g>
        </g>
      </g>
      <g>
        <g>
          <path class="cls-3" d="M134.54,273.54c-.34,4.13-16.8,6.14-36.75,4.47-19.95-1.66-35.85-6.36-35.5-10.5.34-4.13,16.8-6.14,36.75-4.48,19.95,1.66,35.85,6.36,35.5,10.5Z"/>
          <path class="cls-5" d="M111.32,279.33c-4.28,0-8.88-.2-13.59-.59-9.7-.81-18.76-2.35-25.51-4.35-7.28-2.15-10.87-4.48-10.66-6.93.2-2.45,4.13-4.16,11.66-5.07,6.99-.85,16.18-.88,25.88-.07,9.7.81,18.76,2.35,25.51,4.35,7.28,2.15,10.87,4.48,10.66,6.93h0c-.2,2.45-4.13,4.16-11.66,5.07-3.59.44-7.76.66-12.28.66ZM85.5,263.19c-4.46,0-8.57.21-12.11.64-7.5.91-10.28,2.54-10.38,3.75-.1,1.21,2.37,3.27,9.62,5.42,6.66,1.97,15.62,3.49,25.21,4.29,9.6.8,18.69.78,25.58-.06,7.5-.91,10.29-2.54,10.39-3.75.1-1.21-2.38-3.27-9.62-5.42-6.66-1.97-15.62-3.49-25.22-4.29-4.68-.39-9.24-.58-13.47-.58ZM134.54,273.54h0,0Z"/>
        </g>
        <g>
          <path class="cls-9" d="M106.23,214.45c2.72-32.57,5.17-55.16,6.97-57.63,1.38-1.89,2.24-3.94,2.58-4.81-.26.01-.52.03-.78.04l-6.68-.55-6.68-.56c-.25-.05-.5-.11-.76-.16.19.91.7,3.08,1.75,5.17,1.37,2.74.05,25.42-2.66,57.99-2.71,32.57-6.07,41.31-7.45,44.15-1.38,2.84-5.39,7.09-5.39,7.09.14,1,4.08,2.75,11.27,3.35,7.19.6,11.69-.45,12-1.41,0,0-3.25-4.86-4.14-7.89-.89-3.03-2.75-12.2-.04-44.77Z"/>
          <path class="cls-5" d="M102.36,269.42c-1.32,0-2.68-.06-4.01-.17-6.66-.55-11.68-2.22-11.93-3.97-.03-.22.04-.44.19-.6.04-.04,3.95-4.21,5.27-6.91,2.93-6.04,5.49-21.22,7.38-43.89,3.72-44.69,3.54-56,2.74-57.61-1.1-2.19-1.63-4.47-1.81-5.35-.05-.24.03-.49.21-.67.17-.17.43-.24.67-.19.23.05.47.11.71.15l13.26,1.11c.24-.01.48-.02.72-.04.25-.02.49.1.63.3.15.2.18.46.09.69-.32.84-1.23,3-2.67,4.97-1.06,1.46-3.11,12.57-6.84,57.27l-.73-.06.73.06c-1.89,22.67-1.88,38.06.01,44.51.85,2.89,4.02,7.64,4.05,7.69.12.18.15.42.09.63-.46,1.45-4.36,2.08-8.75,2.08ZM88.07,265.24c.86.67,4.05,2.03,10.4,2.56,6.2.52,9.94-.24,11.01-.79-.87-1.34-3.15-5.04-3.91-7.58-1.95-6.62-1.97-22.19-.07-45.04,4.07-48.83,6.01-56.49,7.11-58.01.94-1.28,1.63-2.66,2.07-3.63l-12.83-1.07c.27,1.04.73,2.51,1.44,3.93.84,1.67,1.48,9.55-2.59,58.38-1.9,22.84-4.5,38.2-7.52,44.41-1.17,2.4-4.05,5.67-5.11,6.84Z"/>
        </g>
        <g>
          <path class="cls-1" d="M97.79,278.02c-19.95-1.66-35.85-6.36-35.5-10.5h0l-.19,2.27c-.34,4.13,15.55,8.83,35.5,10.5,19.95,1.66,36.41-.34,36.75-4.47l.19-2.27c-.35,4.13-16.8,6.14-36.75,4.47Z"/>
          <path class="cls-5" d="M111.13,281.6c-4.28,0-8.88-.2-13.59-.59-9.7-.81-18.76-2.35-25.51-4.35-7.28-2.15-10.86-4.48-10.66-6.93l.19-2.27c.03-.4.39-.7.79-.67.4.03.7.39.67.79-.1,1.21,2.37,3.27,9.62,5.42,6.66,1.97,15.61,3.49,25.21,4.29,9.6.8,18.69.78,25.58-.06,7.5-.91,10.28-2.54,10.38-3.75.03-.4.39-.7.79-.66.4.03.7.39.66.79h0s-.19,2.27-.19,2.27c-.2,2.45-4.13,4.16-11.66,5.08-3.59.44-7.76.66-12.28.66ZM62.83,270.08c.21,1.23,2.8,3.17,9.61,5.19,6.66,1.97,15.62,3.49,25.21,4.29,9.6.8,18.69.78,25.58-.06,7.04-.86,9.93-2.34,10.33-3.52-1.84,1.21-5.17,2.12-9.97,2.7-6.99.85-16.18.87-25.88.06-9.7-.81-18.76-2.35-25.51-4.35-4.64-1.37-7.77-2.81-9.39-4.31Z"/>
        </g>
        <path class="cls-5" d="M109,158.18c-3.94,0-6.61-1.54-6.73-1.61-.35-.2-.46-.65-.26-1,.2-.35.65-.46,1-.26.05.03,2.67,1.52,6.41,1.4.4,0,.74.3.75.71.01.4-.3.74-.7.75-.16,0-.31,0-.46,0Z"/>
        <path class="cls-8" d="M111.01,159.42c-.7,2.16-9.67,74.6-6.82,94.23,0,0-2.87-6.88.41-46.26,3.28-39.38,6.41-47.97,6.41-47.97Z"/>
        <path class="cls-5" d="M120.32,146.51c-.34,0-.64-.24-.71-.58-.08-.39.17-.78.56-.86,6.03-1.26,12.08-3.85,17.52-7.51.33-.23.79-.14,1.01.2.23.33.14.79-.2,1.01-5.59,3.76-11.83,6.44-18.03,7.73-.05,0-.1.01-.15.01Z"/>
        <g>
          <g>
            <path class="cls-3" d="M159.14,10.21c-.38,2.92-17.94,3.83-39.21,2.06-21.27-1.77-38.44-5.58-38.33-8.52,0,0-22.98,62.31-23.45,96.94-.39,29.12,25.32,46.54,43.59,50.26l6.59.55,6.59.55c18.63-.64,46.88-13.56,51.31-42.35,5.27-34.24-7.09-99.49-7.09-99.49Z"/>
            <path class="cls-5" d="M114.92,152.77s-.04,0-.06,0l-13.18-1.1s-.06,0-.08-.01c-10.27-2.09-21.17-7.99-29.16-15.79-6.97-6.81-15.24-18.44-15.01-35.19.46-34.36,23.27-96.56,23.5-97.18.12-.34.47-.53.82-.46.35.07.6.38.59.74,0,.02.23,1.66,10.58,3.96,7.2,1.6,16.82,2.95,27.08,3.81,10.27.86,19.97,1.12,27.34.73,10.59-.55,11.09-2.14,11.09-2.15.05-.36.35-.62.7-.63.36,0,.67.24.74.59.12.65,12.32,65.76,7.09,99.73-2.55,16.55-12.62,26.65-20.63,32.22-9.17,6.37-20.9,10.39-31.37,10.75h-.03ZM101.84,150.22l13.1,1.09c17.18-.61,46.07-12.46,50.57-41.73,4.76-30.91-5.05-87.99-6.82-97.79-1.38.77-4.43,1.58-11.29,1.93-7.43.39-17.21.13-27.54-.73-10.33-.86-20.01-2.22-27.28-3.84-6.7-1.49-9.58-2.79-10.81-3.77-3.36,9.37-22.48,64.05-22.91,95.32-.4,29.61,26.12,46.08,42.97,49.52Z"/>
          </g>
          <g>
            <path class="cls-6" d="M159.14,10.21c-.38,2.92-17.94,3.83-39.21,2.06-21.27-1.77-38.44-5.58-38.33-8.52.1-2.96,17.66-3.92,39.22-2.13,21.56,1.8,38.71,5.65,38.32,8.59Z"/>
            <path class="cls-5" d="M140.05,13.9c-6.05,0-12.98-.31-20.18-.91-10.33-.86-20.01-2.22-27.28-3.84-11.82-2.62-11.75-4.67-11.72-5.43.01-.31.13-.78.64-1.22,3.3-2.93,22.3-3.03,39.37-1.6,17.07,1.42,35.8,4.66,38.56,8.1.42.53.46,1,.42,1.31h0c-.1.76-.37,2.79-12.46,3.42-2.25.12-4.72.18-7.36.18ZM100.69,1.44c-10.14,0-16.78.87-18.22,2.15-.12.1-.15.17-.15.19,0,.02.23,1.66,10.58,3.96,7.2,1.6,16.82,2.95,27.08,3.81,10.27.86,19.97,1.12,27.34.73,10.59-.55,11.09-2.14,11.09-2.15h0s-.01-.09-.11-.21c-1.88-2.33-16.44-5.8-37.55-7.56-7.59-.63-14.37-.91-20.07-.91Z"/>
          </g>
          <g>
            <path class="cls-2" d="M160.4,101.4c-3.8,2.94-10,4.61-13.82,5.41-7.58,1.59-15.42,1.67-23.12,1.59-12.86-.14-26.83-1.58-38.8-6.54-3.04-1.26-9.93-3.48-10.4-7.13-.7-5.47,15.3-1.42,18.59-.58,8.06,2.07,16.04,3.26,24.34,3.01,9.49-.28,18.88-1.89,28.25-3.63,3.3-.61,17.7-4.2,18.41,1.25.35,2.66-1.22,4.89-3.45,6.61Z"/>
            <path class="cls-5" d="M127.16,109.16c-1.25,0-2.48-.01-3.71-.03-16.01-.18-28.79-2.33-39.07-6.6-.37-.15-.79-.32-1.25-.5-3.64-1.43-9.12-3.58-9.59-7.21-.13-.98.17-1.81.86-2.42,2.71-2.39,11.62-.75,18.63,1.04,8.83,2.27,16.5,3.22,24.13,2.99,9.51-.28,19.12-1.94,28.14-3.62.32-.06.75-.15,1.26-.25,4.25-.88,13.1-2.71,16.56-.25.83.59,1.32,1.39,1.45,2.38.34,2.62-.94,5.13-3.72,7.28h0c-3.8,2.93-9.77,4.64-14.11,5.55-6.5,1.37-13.16,1.63-19.58,1.63ZM79.21,92.65c-1.9,0-3.22.28-3.85.84-.33.29-.45.64-.38,1.14.35,2.77,5.56,4.82,8.68,6.04.47.19.91.36,1.28.51,10.11,4.19,22.71,6.31,38.53,6.49,7.44.08,15.35.03,22.97-1.58,3.43-.72,9.75-2.37,13.52-5.28h0c2.38-1.84,3.45-3.83,3.17-5.94-.07-.57-.35-1.02-.85-1.38-2.93-2.09-11.68-.29-15.42.49-.52.11-.96.2-1.29.26-9.08,1.69-18.75,3.36-28.36,3.64-7.77.23-15.57-.74-24.54-3.04-5.69-1.46-10.34-2.21-13.45-2.21ZM160.4,101.4h0,0Z"/>
          </g>
          <g>
            <path class="cls-9" d="M155.65,9.65c-.21,1.62-16.09,1.99-35.42.38-19.33-1.61-34.93-4.61-34.87-6.23.03-.9,15.93-1.99,35.42-.37,19.49,1.62,35,5.21,34.87,6.22Z"/>
            <path class="cls-5" d="M142.76,11.79c-6.54,0-14.45-.36-22.59-1.04-9.14-.76-17.94-1.87-24.78-3.12-3.16-.58-5.77-1.17-7.54-1.71-2.38-.72-3.25-1.31-3.22-2.16,0-.23.11-.44.29-.6,1.41-1.25,18.06-1.95,35.91-.46,17.12,1.42,34.02,4.75,35.33,6.37.16.2.23.43.2.67h0c-.11.84-1.06,1.28-3.53,1.6-1.84.24-4.51.39-7.72.44-.77.01-1.55.02-2.36.02ZM86.81,4.04c3.34,1.4,16.23,3.82,33.48,5.26,17.39,1.45,30.58,1.18,33.97.33-3.48-1.29-16.89-4.09-33.54-5.48-17.1-1.43-30.22-.74-33.91-.11Z"/>
          </g>
          <g>
            <path class="cls-7" d="M163.84,94.79c-.32,5.52-6.77,8.59-12.1,9.9-7.17,1.77-24.79,3.04-45.87-7.76-8.79-4.5-17.49-11.02-27.24-14.15-25.11-8.07-19.05,27.93-13.87,38.14,6.46,12.73,19.74,23.28,34.82,27.26,1.45.38,2.92.62,4.4.75l9.03.75c1.49.12,2.98.13,4.47,0,12.92-1.19,25.42-7.12,34.02-15.57,8.02-7.88,15.12-24.55,12.33-39.31Z"/>
            <path class="cls-5" d="M115.22,150.51c-.75,0-1.5-.03-2.26-.09l-9.03-.75c-1.56-.13-3.08-.39-4.53-.77-15.15-4-28.67-14.59-35.29-27.63-3.57-7.03-8.12-27.97-.74-36.63,3.34-3.92,8.55-4.77,15.48-2.54,6.51,2.09,12.55,5.67,18.4,9.13,3.08,1.82,5.98,3.54,8.95,5.07,23.7,12.14,41.94,8.54,45.36,7.7,2.62-.65,11.19-3.23,11.54-9.24.02-.37.31-.66.68-.68.37-.02.7.23.76.59,1.66,8.8-.25,17.16-2.14,22.61-2.39,6.89-6.18,13.21-10.39,17.35-8.87,8.71-21.75,14.6-34.47,15.78-.76.07-1.54.11-2.33.11ZM72.06,82.34c-3.2,0-5.73,1.08-7.57,3.23-6.45,7.56-3.02,27.25.93,35.02,6.43,12.69,19.6,22.99,34.36,26.88,1.36.36,2.8.6,4.28.73l9.03.75c1.48.12,2.94.12,4.34-.01,12.39-1.14,24.95-6.88,33.58-15.36,7.43-7.3,13.74-22.02,12.58-35.35-2.43,4.4-8.67,6.42-11.66,7.16-3.5.87-22.21,4.56-46.37-7.82-3.01-1.54-6.07-3.36-9.03-5.11-5.78-3.42-11.75-6.96-18.1-9-2.35-.75-4.47-1.13-6.36-1.13Z"/>
          </g>
          <path class="cls-8" d="M156.71,15.51s10.28,51.36,8.41,73.29c-3.64-39.41-9.44-60.47-12.58-72.39l4.18-.91Z"/>
          <path class="cls-5" d="M64.55,78.27s-.09,0-.13-.01c-.39-.07-.66-.45-.58-.85,2.26-12.15,5.39-23.88,7.61-31.59.11-.39.51-.61.9-.5.39.11.61.51.5.9-2.21,7.67-5.33,19.36-7.58,31.45-.07.35-.37.6-.71.6Z"/>
          <path class="cls-5" d="M77.96,27.01c-.07,0-.15-.01-.22-.03-.38-.12-.59-.53-.47-.91,2.84-8.93,5-15.44,5.03-15.5.13-.38.54-.59.92-.46.38.13.59.54.46.92-.02.06-2.18,6.56-5.02,15.49-.1.31-.39.51-.7.51Z"/>
          <path class="cls-5" d="M99.95,146.72c-.07,0-.13,0-.2-.03-10.25-2.95-24.02-10.97-31.93-24.64-.2-.35-.08-.79.27-.99.35-.2.79-.08,1,.27,7.69,13.3,21.09,21.1,31.07,23.97.39.11.61.51.5.9-.09.32-.38.53-.7.53Z"/>
        </g>
      </g>
      <g>
        <g>
          <path class="cls-7" d="M143.35,121.78h0c.25.23,25.44,22.75,49.29,17.64,2.11-.45,4.18.89,4.63,3,.45,2.11-.89,4.18-3,4.63-1.48.32-2.99.55-4.53.7-10.52,1.04-22.28-1.78-34.32-8.27-10.22-5.51-17.05-11.67-17.33-11.93l5.25-5.77Z"/>
          <path class="cls-5" d="M185.47,148.69c-9.51,0-19.92-2.92-30.39-8.56-10.31-5.56-17.19-11.77-17.48-12.03-.3-.27-.32-.73-.05-1.03.27-.3.73-.32,1.03-.05.28.26,7.03,6.36,17.19,11.83,11.83,6.38,23.55,9.21,33.9,8.18,1.51-.15,3-.38,4.45-.69.83-.18,1.54-.67,2-1.38.46-.71.62-1.56.44-2.39-.37-1.71-2.06-2.8-3.77-2.44-24.21,5.19-49.68-17.58-49.94-17.81-.3-.27-.32-.73-.05-1.03.27-.3.73-.32,1.03-.05.25.23,25.17,22.5,48.65,17.47,2.5-.53,4.96,1.06,5.5,3.56.26,1.21.03,2.45-.64,3.48-.67,1.04-1.71,1.75-2.92,2.01-1.5.32-3.05.56-4.61.72-1.42.14-2.88.21-4.35.21Z"/>
        </g>
        <g>
          <g>
            <path class="cls-10" d="M188.35,137.03c-1.66-.85-3.69-.76-5.29.52-2.42,1.93-3.22,5.51-2.75,8.46.44,2.78,2.08,5.31,4.96,6.02,6.58,1.62,7.66-9.93,4.85-13.52-.5-.64-1.1-1.13-1.77-1.47Z"/>
            <path class="cls-5" d="M186.48,152.91c-.45,0-.9-.06-1.38-.17-2.9-.71-4.96-3.19-5.5-6.61-.48-2.97.27-6.96,3.02-9.14,1.75-1.39,4.08-1.62,6.07-.59.78.4,1.46.96,2.01,1.67,2.17,2.78,2.16,9.04-.02,12.4-1.04,1.61-2.5,2.45-4.2,2.45ZM186.09,137.21c-.91,0-1.82.31-2.57.91-2.28,1.82-2.9,5.22-2.49,7.78.45,2.83,2.1,4.86,4.41,5.43,1.68.42,3.03-.14,4.01-1.65,1.98-3.05,1.73-8.62.1-10.71-.42-.54-.94-.97-1.53-1.28h0c-.61-.31-1.27-.47-1.93-.47Z"/>
          </g>
          <g>
            <path class="cls-10" d="M207.18,144.46c-.79.82-.81,1.94-1.34,3.19-.94,2.25-2.65,3.76-4.85,4.76-3.28,1.5-7.86,2.09-10.96-.15-1.98-1.42-1.84-4.15-.75-6.11-4.46-1.27-4.28-7.18-3.17-10.68,1.09-3.43,2.33-6.47,1.74-10.18-.27-1.66-1.19-3.35.25-4.73,1.3-1.25,3.56-.88,5.01-.11,2.05,1.09,2.96,3.17,2.67,5.43-.25,1.86-2.61,4.97-1.53,6.74,2.37,3.88,17.8-10.93,20.32-12.74,1.63-1.17,3.81-1.6,4.51.62,1.13,3.56-1.17,6.17-4.73,9.21-3.44,2.93-5.68,4.32-9.17,7.22,4.86-1.22,8.93-2.79,13.48-4.9,3.59-1.67,6.97-4.4,8.6-3.58,2.91,1.46,1.68,5.03-1.26,7.12-6.98,4.96-16.28,7.51-17.86,8.24-.41.19-.71.41-.95.66Z"/>
            <path class="cls-5" d="M195.08,154.46c-1.93,0-3.87-.45-5.48-1.61-2.04-1.47-2.21-4.13-1.33-6.29-1.12-.5-1.99-1.32-2.6-2.46-1.42-2.65-1.03-6.42-.26-8.85.13-.42.27-.84.41-1.25.97-2.96,1.8-5.51,1.31-8.59-.05-.34-.14-.68-.23-1.04-.33-1.32-.73-2.96.69-4.33,1.54-1.48,4.11-1.16,5.86-.23,2.26,1.2,3.4,3.51,3.05,6.17-.1.76-.48,1.63-.87,2.54-.59,1.36-1.26,2.91-.76,3.72.07.11.18.24.45.28,2.89.46,12-7.42,15.9-10.79,1.38-1.19,2.39-2.06,2.92-2.44,1.36-.97,2.77-1.32,3.87-.95.58.19,1.36.69,1.77,1.94,1.33,4.19-1.72,7.22-4.95,9.98-1.86,1.58-3.34,2.7-4.9,3.88-.48.36-.97.73-1.48,1.12,3.16-.97,6.28-2.21,9.91-3.89,1.11-.52,2.19-1.13,3.24-1.73,2.53-1.44,4.53-2.58,6-1.84,1.22.62,1.96,1.64,2.05,2.89.14,1.84-1.12,3.99-3.22,5.47-5.58,3.96-12.68,6.43-16.08,7.62-.89.31-1.59.55-1.89.69-.3.14-.54.31-.73.5h0c-.39.41-.55.95-.75,1.63-.11.4-.25.86-.45,1.33-.96,2.29-2.67,3.98-5.22,5.14-1.73.79-3.97,1.39-6.21,1.39ZM190.38,120.48c-.69,0-1.33.18-1.78.61-.78.75-.62,1.56-.29,2.93.09.38.19.76.25,1.16.55,3.43-.38,6.27-1.36,9.27-.13.41-.27.82-.4,1.24-.74,2.33-.98,5.62.15,7.73.55,1.03,1.4,1.71,2.52,2.03.22.06.39.21.47.42.08.2.07.44-.04.63-.94,1.7-1.06,4.01.54,5.16,2.98,2.14,7.38,1.38,10.24.07,2.21-1.01,3.67-2.44,4.48-4.38.16-.4.28-.8.39-1.18.22-.77.46-1.57,1.09-2.23h0c.32-.33.7-.59,1.17-.81.37-.17,1.06-.41,2.02-.75,3.35-1.16,10.31-3.58,15.72-7.42,1.66-1.18,2.71-2.86,2.61-4.18-.05-.73-.48-1.31-1.25-1.7-.77-.38-2.82.78-4.62,1.81-1.07.61-2.18,1.24-3.35,1.78-5.03,2.34-9.1,3.82-13.62,4.95-.33.08-.67-.07-.83-.38-.15-.3-.08-.67.19-.89,1.64-1.36,3.01-2.39,4.33-3.39,1.54-1.17,3.01-2.27,4.83-3.83,3.67-3.12,5.47-5.39,4.51-8.43-.17-.55-.45-.87-.84-1-.63-.21-1.61.08-2.56.76-.48.34-1.51,1.23-2.82,2.36-6.84,5.91-13.8,11.64-17.08,11.12-.64-.1-1.15-.43-1.47-.96-.89-1.46-.06-3.37.67-5.06.35-.82.69-1.59.76-2.15.27-2.03-.58-3.79-2.29-4.69-.72-.38-1.58-.62-2.38-.62ZM207.18,144.46h0,0Z"/>
          </g>
          <g>
            <path class="cls-10" d="M201.65,145.3c-.79.25-1.52.62-2.15,1.19-2.01,1.84-1.2,4.47,1.35,5.55,2.23.94,7.68.42,10.48-1.85,1.78-1.45,2.42-5.84-.75-6.89-.79-.26-1.34.04-2.16.32-2.22.76-4.55.98-6.76,1.68Z"/>
            <path class="cls-5" d="M203.72,153.22c-1.23,0-2.34-.17-3.15-.51-1.56-.65-2.63-1.88-2.88-3.27-.22-1.27.24-2.51,1.31-3.49.65-.6,1.44-1.04,2.42-1.35,1.09-.34,2.2-.57,3.28-.8,1.15-.24,2.35-.49,3.47-.87.12-.04.23-.08.34-.12.68-.25,1.38-.5,2.28-.2,1.43.47,2.37,1.57,2.65,3.09.34,1.83-.38,4.01-1.67,5.06-2.01,1.63-5.34,2.47-8.07,2.47ZM209.97,143.93c-.26,0-.53.09-.96.25-.12.04-.24.09-.37.13-1.21.41-2.45.67-3.65.92-1.09.23-2.12.44-3.13.76h0c-.77.25-1.39.58-1.88,1.04-.69.63-.99,1.4-.86,2.16.16.9.91,1.72,2,2.18,1.97.83,7.12.38,9.74-1.74.88-.71,1.4-2.35,1.16-3.66-.13-.69-.52-1.59-1.68-1.97-.13-.04-.25-.06-.37-.06ZM201.65,145.3h0,0Z"/>
          </g>
          <path class="cls-5" d="M197.81,147.48c-.11,0-.23-.03-.33-.08-.36-.18-.5-.62-.31-.98,1.23-2.39,1.42-4.78,1.63-7.3.07-.8.13-1.64.24-2.49.05-.4.41-.68.81-.63.4.05.68.41.63.81-.1.82-.17,1.64-.23,2.43-.22,2.67-.42,5.19-1.78,7.85-.13.25-.38.4-.65.4Z"/>
          <path class="cls-5" d="M205.83,142.55s-.03,0-.05,0c-.4-.03-.71-.38-.67-.78.13-1.88-.44-3.45-1.03-5.12-.2-.56-.41-1.13-.59-1.73-.12-.38.1-.79.48-.91.38-.12.79.1.91.48.17.57.38,1.13.57,1.67.62,1.74,1.26,3.53,1.11,5.71-.03.38-.35.68-.73.68Z"/>
          <path class="cls-5" d="M191.09,147.17c-1.09,0-2.07-.24-2.97-.73-.35-.19-.49-.63-.3-.99.19-.36.63-.49.99-.3.85.46,1.81.63,2.93.52.4-.04.76.25.8.65.04.4-.25.76-.66.8-.27.03-.54.04-.79.04Z"/>
        </g>
      </g>
      <g>
        <g>
          <path class="cls-10" d="M131.96,50.15c-1.15,10.46-5.88,18.53-10.56,18.01-4.68-.51-7.54-9.41-6.39-19.87,1.15-10.46,5.88-18.53,10.56-18.01,4.68.51,7.54,9.41,6.39,19.87Z"/>
          <path class="cls-5" d="M121.83,68.91c-.17,0-.34,0-.51-.03-5.16-.57-8.25-9.65-7.03-20.68.57-5.16,2.01-9.92,4.05-13.41,2.15-3.66,4.74-5.52,7.31-5.25,5.16.57,8.25,9.65,7.04,20.68h0c-.57,5.16-2.01,9.92-4.05,13.41-2.01,3.42-4.4,5.27-6.8,5.27ZM125.15,30.98c-1.84,0-3.85,1.64-5.56,4.55-1.94,3.32-3.31,7.87-3.86,12.83-1.08,9.88,1.55,18.61,5.75,19.07,1.93.21,4.08-1.44,5.89-4.53,1.94-3.31,3.31-7.87,3.86-12.83,1.08-9.87-1.55-18.61-5.75-19.07-.11-.01-.22-.02-.33-.02ZM131.96,50.15h0,0Z"/>
        </g>
        <path class="cls-5" d="M125.36,50.15l-4.44-8.58c1.57-3.79,3.81-6.16,6.03-5.92,3.52.39,5.66,7.19,4.78,15.2-.88,8.01-4.45,14.19-7.97,13.8-3.5-.38-5.63-7.1-4.8-15.03l6.4.53Z"/>
        <g>
          <path class="cls-10" d="M111.34,47.39c-1.15,10.46-5.88,18.52-10.56,18.01-4.68-.52-7.54-9.41-6.39-19.87,1.15-10.46,5.88-18.52,10.56-18.01,4.68.51,7.54,9.41,6.39,19.87Z"/>
          <path class="cls-5" d="M101.21,66.15c-.17,0-.34-.01-.51-.03-5.16-.57-8.25-9.65-7.03-20.68,1.21-11.03,6.2-19.22,11.36-18.65,5.16.57,8.25,9.65,7.04,20.68-1.17,10.67-5.88,18.68-10.85,18.68ZM104.52,28.22c-4.1,0-8.35,7.78-9.4,17.39-1.09,9.87,1.55,18.61,5.75,19.07.11.01.23.02.35.02,4.1,0,8.35-7.78,9.4-17.39h0c1.08-9.87-1.55-18.61-5.75-19.07-.12-.01-.23-.02-.35-.02Z"/>
        </g>
        <path class="cls-5" d="M104.75,47.39l-4.44-8.59c1.58-3.79,3.81-6.16,6.03-5.92,3.52.39,5.66,7.2,4.78,15.2-.88,8.01-4.45,14.19-7.97,13.8-3.5-.38-5.63-7.1-4.8-15.04l6.4.53Z"/>
        <g>
          <path class="cls-3" d="M107.31,67.27c-3.41.22-5.92-6.08-4.45-8.66,2.33-4.07,6.19,4.23,7.59,5.65l-3.14,3.01Z"/>
          <path class="cls-5" d="M107.14,68.01c-1.48,0-2.93-.98-4.01-2.71-1.25-2-1.99-5.15-.91-7.05.55-.96,1.25-1.46,2.07-1.48h.06c1.98,0,3.85,2.88,5.36,5.2.5.77.98,1.5,1.25,1.78.28.29.28.75,0,1.03-.29.28-.75.28-1.03,0-.38-.39-.85-1.1-1.44-2.01-1.03-1.59-2.95-4.54-4.13-4.54,0,0-.01,0-.02,0-.29,0-.57.26-.85.75-.68,1.19-.29,3.68.88,5.55.84,1.34,1.89,2.08,2.89,2.02.4-.02.75.28.77.68.03.4-.28.75-.68.77-.07,0-.14,0-.21,0Z"/>
        </g>
        <path class="cls-5" d="M135.7,36.7c-.36,0-.67-.26-.72-.63-1-6.92-3.66-11.29-7.32-11.99-2.53-.48-4.84.98-5.8,2.67-.2.35-.65.47-.99.27-.35-.2-.47-.64-.27-.99,1.45-2.54,4.47-3.93,7.34-3.38,2.53.48,6.99,2.84,8.49,13.21.05.4-.22.77-.62.83-.04,0-.07,0-.11,0Z"/>
        <path class="cls-5" d="M114.08,33.6c-.35,0-.66-.26-.72-.61-1.05-6.61-3.69-10.76-7.25-11.41-2.14-.39-4.39.67-5.48,2.57-.2.35-.64.47-.99.27-.35-.2-.47-.64-.27-.99,1.41-2.47,4.23-3.78,7-3.28,1.98.36,6.78,2.32,8.42,12.62.06.4-.21.77-.6.83-.04,0-.08,0-.12,0Z"/>
        <path class="cls-5" d="M114.41,75.46c-3.65,0-7.4-.5-11.2-1.49-3.07-.8-5.49-1.75-6.98-2.41-2.84-1.25-2.95-1.6-3.02-1.8-.13-.38.08-.79.46-.92.27-.09.56-.01.75.18.69.49,6.83,3.7,15.18,4.69,7.61.91,18.75.08,28.69-8.98.3-.27.76-.25,1.03.05.27.3.25.76-.05,1.03-5.58,5.09-12.06,8.2-19.27,9.25-1.83.27-3.7.4-5.59.4ZM94.58,69.3h0s0,0,0,0ZM94.58,69.29h0Z"/>
        <path class="cls-5" d="M139.91,67.62c-.33,0-.63-.23-.71-.56-.5-2.11-1.89-2.45-1.95-2.47-.39-.09-.64-.48-.55-.86.08-.39.46-.64.85-.56.1.02,2.35.5,3.07,3.55.09.39-.15.78-.54.88-.05.01-.11.02-.17.02Z"/>
        <path class="cls-5" d="M93.02,71.51c-.4,0-.73-.33-.73-.73,0-2.62,1.68-3.43,2.56-3.49.4-.03.75.28.77.68.03.4-.27.74-.67.78-.21.02-1.21.23-1.21,2.03,0,.4-.33.73-.73.73Z"/>
        <g>
          <path class="cls-4" d="M117.21,74.73s3.01,2.2,3.39,6.46c.38,4.26,1.38,9.02,6.39,8.02,5.02-1,6.39-6.77,5.14-11.66-1.25-4.89-2.65-6.05-2.65-6.05,0,0-4.75,2.67-12.27,3.23Z"/>
          <path class="cls-5" d="M125.72,90.07c-1.11,0-2.08-.3-2.89-.91-2.13-1.6-2.69-4.9-2.96-7.92-.34-3.86-3.06-5.92-3.09-5.94-.25-.18-.35-.5-.27-.79.08-.29.34-.5.64-.52,7.25-.54,11.92-3.11,11.97-3.14.26-.15.59-.12.82.08.16.13,1.61,1.46,2.89,6.43.88,3.42.49,6.91-1.03,9.33-1.08,1.71-2.69,2.83-4.67,3.23-.5.1-.97.15-1.42.15ZM118.86,75.3c.97,1.13,2.22,3.07,2.47,5.82.23,2.54.7,5.62,2.38,6.88.8.6,1.83.76,3.15.5,1.6-.32,2.85-1.19,3.72-2.57,1.3-2.06,1.62-5.2.85-8.19-.82-3.18-1.68-4.7-2.12-5.32-1.34.65-5.07,2.26-10.45,2.89Z"/>
        </g>
        <path class="cls-5" d="M127.92,84.26s-.02,0-.04,0c-.4-.02-.71-.36-.69-.76.33-7.03-3.12-9.3-3.27-9.39-.34-.21-.44-.66-.23-1,.21-.34.66-.45,1-.24.18.11,4.34,2.75,3.96,10.7-.02.39-.34.69-.73.69Z"/>
        <path class="cls-5" d="M114.87,79.92c-2.13,0-3.58-.26-3.68-.28-.4-.07-.66-.45-.59-.85.07-.39.45-.66.85-.58.04,0,3.99.71,8.41-.28.39-.09.78.16.87.55.09.39-.16.78-.55.87-1.95.44-3.8.57-5.3.57Z"/>
        <path class="cls-5" d="M131.66,76.08c-.25,0-.5-.13-.63-.37-.2-.35-.08-.79.27-.99l2.16-1.22c.35-.2.8-.07.99.27.2.35.08.8-.27.99l-2.16,1.22c-.11.07-.24.09-.36.09Z"/>
        <path class="cls-5" d="M143.67,68.25h-.01c-.4,0-.72-.34-.72-.74.11-6.23-5.84-6.76-6.1-6.78-.4-.03-.7-.38-.67-.78.03-.4.38-.7.78-.67.08,0,7.58.64,7.44,8.26,0,.4-.33.71-.73.71Z"/>
        <path class="cls-5" d="M89,73.14c-.37,0-.69-.28-.72-.67-.67-7.5,4.82-9.51,4.87-9.53.38-.13.79.07.93.45.13.38-.07.79-.45.93-.19.07-4.47,1.7-3.91,8.02.04.4-.26.75-.66.79-.02,0-.04,0-.07,0Z"/>
      </g>
    </g>
  </g>
</svg>