<?xml version="1.0" encoding="UTF-8"?>
<svg id="Livello_1" data-name="Livello 1" xmlns="http://www.w3.org/2000/svg" viewBox="0 0 964 964">
  <defs>
    <style>
      .cls-1 {
        fill: #9c9d9d;
      }

      .cls-1, .cls-2, .cls-3, .cls-4, .cls-5, .cls-6, .cls-7, .cls-8, .cls-9, .cls-10, .cls-11, .cls-12, .cls-13, .cls-14 {
        fill-rule: evenodd;
      }

      .cls-2 {
        fill: #c04c4f;
      }

      .cls-3 {
        fill: #3b3b3a;
      }

      .cls-15 {
        fill: none;
        stroke: #fff;
        stroke-miterlimit: 22.93;
        stroke-width: .22px;
      }

      .cls-4 {
        fill: #aa2d32;
      }

      .cls-5 {
        fill: #fff;
      }

      .cls-6 {
        fill: #6f6f6e;
      }

      .cls-7 {
        fill: #d77e80;
      }

      .cls-8 {
        fill: #d25d62;
      }

      .cls-9 {
        fill: #c25a5e;
      }

      .cls-10 {
        fill: #f5fbff;
      }

      .cls-11 {
        fill: #ececed;
      }

      .cls-13 {
        fill: #e3f4fe;
      }

      .cls-14 {
        fill: #c34c51;
      }
    </style>
  </defs>
  <g>
    <path class="cls-13" d="M598.66,894.65c-1.25.82-2.93.47-3.75-.78-.82-1.25-.47-2.93.78-3.75,1.15-.76,2.26-1.54,3.32-2.33-14.85,1.47-27.59,3.77-36.96,6.62-9.88,3.01-15.7,6.3-15.7,9.45,0,4.23,9.62,8.47,25.17,11.9,16.66,3.67,39.75,5.95,65.32,5.95s48.66-2.27,65.32-5.95c15.55-3.43,25.17-7.67,25.17-11.9,0-3.35-6.96-7.1-18.46-10.47-11.28-3.31-26.62-5.88-44.09-7.06,2.41,2.96,5.14,5.46,8.25,7.38,1.27.78,1.66,2.45.88,3.72-.78,1.27-2.45,1.66-3.72.88-29.03-17.94-28.48-78.11-28.22-105.64v-1.63c.05-4.36.08-8.99.11-13.8.13-24.36.29-53.18,2.22-70.94.64-5.89,3.88-11.34,8.85-16.7-14.37,3.74-28.35,1.17-37.26-1.51,6.22,7.9,10.36,15.74,10.76,23.02,1.9,21.7,2.85,125.79,2.87,127.22h0c0,.1.73,26.15-19.23,46.75-.26.9-.97,1.62-1.89,1.87-2.85,2.71-6.07,5.3-9.73,7.71Z"/>
    <path class="cls-4" d="M742.56,595.23c-5.78,2.11-15.6,3.79-28.37,4.94-19.76,1.79-46.94,2.89-76.88,2.89s-57.12-1.1-76.88-2.89c-12.6-1.14-22.34-2.79-28.14-4.86,1.64,8.35,6.39,25.68,18.86,36.46,3.6,3.11,8.9,7.18,15.02,11.86,13.04,9.99,29.68,22.74,42.21,35.86l.18.08c.09.04,30.02,14.89,55.63-.36.3-.18.63-.29.96-.35,4.76-3.74,10.07-7.55,15.65-11.55,12.33-8.85,26.02-18.67,37.69-30.53,17.94-18.22,22.77-34.25,24.07-41.55Z"/>
    <path class="cls-9" d="M713.7,586.32c-19.47-1.76-46.47-2.85-76.39-2.85s-56.92,1.09-76.39,2.85c-18.09,1.64-29.28,3.18-29.28,4.24s11.19,2.6,29.28,4.24c19.47,1.76,46.47,2.85,76.39,2.85s56.92-1.09,76.39-2.85c18.09-1.64,29.28-3.18,29.28-4.24s-11.19-2.6-29.28-4.24Z"/>
    <path class="cls-13" d="M637.31,578.05c29.93,0,57.12,1.1,76.88,2.89,12.93,1.17,22.84,2.88,28.59,5.03-1.2-19.68-5.11-43.74-9.84-67.13-9.3-45.98-21.64-89.05-22.89-91.24-1.19-2.09-3.77-1.98-3.77-1.98h-.03c-.37,0-128.63,1.18-133.91,1.18s-6.35,2.77-6.48,3.16l-.04.12c-.1.3-32.38,99.86-34.19,155.98,5.71-2.19,15.71-3.93,28.81-5.11,19.76-1.79,46.94-2.89,76.88-2.89Z"/>
    <path class="cls-3" d="M258.37,621.36c1.47,132.18,3.04,267.57,3.05,268.3,0,.09,0,.18-.01.28,0,.06-2.49,22.58,22.94,25.91,15.91,2.08,53.64,3.84,89.2,3.62,26.7-.17,52.11-1.45,65.99-4.55.14-.03.28-.05.42-.06h0c.08,0,27.99-1.35,27.74-28.57-.14-14.83-1.03-141.22-1.89-264.63-30.37,3.71-62.84,5.39-97.36,5.26-34.64-.13-71.35-2.06-110.08-5.55Z"/>
    <path class="cls-11" d="M256.2,416.76c.44,46.19,1.25,121.8,2.11,199.17,38.79,3.51,75.52,5.46,110.14,5.58,34.54.12,67-1.56,97.32-5.3l-1.39-199.6c-39.84-3.07-74.68-4.91-108.15-5.04-33.36-.13-65.5,1.44-100.03,5.19Z"/>
    <path class="cls-3" d="M320.79,236.84l-.21,20.97c.17,1.81,1.92,24.19-16.16,36.81-10.08,7.04-25.15,20.7-35.85,38.22-7.41,12.13-12.71,26.1-12.71,40.94,0,5.19.1,18.5.28,37.54,34.47-3.73,66.64-5.28,100.1-5.15,33.64.13,68.44,1.96,108.09,5.01l-.25-36.45c0-.08.54-26.46-13.07-44.54-12.76-16.95-17.99-21.64-26.75-29.5l-2.63-2.36c-1.11-1-2.36-2.1-3.58-3.17l-.14-.13c-9.44-8.3-17.18-15.18-17.45-29.7-.07-3.68-.22-14.49-.4-28.73-33.32-1.32-69.37-.14-79.27.24Z"/>
    <path class="cls-11" d="M321.27,191.35c-.16,14.55-.31,28.63-.42,40.07,10.3-.39,46.01-1.54,79.15-.24-.16-12.2-.34-26.36-.52-40.53-33.21-1.29-68.48.22-78.2.69Z"/>
    <path class="cls-4" d="M398.53,94.99c-5-.25-25.86-.59-44.6-.59-13.18,0-25.22.17-29.76.66-.41.08-1.32.24-2.44.27.55,3.16,1.13,7.62.79,11.12-.28,2.81-.77,41.78-1.19,79.49,10.21-.49,45.08-1.96,78.08-.69-.44-34.81-.85-68.07-.88-70.35,0-.04-.85-13.88-.55-17.03.09-.95.3-1.94.55-2.88Z"/>
    <path class="cls-4" d="M397.6,70.05c-36.31-1.63-73.84.8-78,1.08-.95.49-1.29,2.32-1.36,2.81-.05,1.16-.41,11.1.66,14.86.1.35.31.61.6.79.07.04.15.08.22.12,1.09.51,2.87.18,3.33.08.14-.04.29-.07.45-.09,4.74-.53,17.05-.72,30.45-.72,20.71,0,44.26.45,46.32.73.17.02.31.04.43.04.13-.13.27-.25.42-.35-.18-2.97-.58-10.79-.17-15.68.26-3.14-3.03-3.63-3.34-3.67Z"/>
    <path class="cls-4" d="M321.81,65.57c9.95-.61,43.54-2.39,76.21-.91l.2.02h0s.27.02.7.11c0-2.62-.2-5.98-1.03-8.07-1.1-2.77-7.85-3.12-7.87-3.13-2.34-.05-51.08-1.08-60.05-.44-6.4.46-7.76,4.49-7.98,5.33l-.18,7.09Z"/>
    <path class="cls-1" d="M455.04,622.88c.97,127.32,1.87,255.81,1.87,255.81,0,0-.57,16.07-4.45,32.83-6.43,3.03-12.47,3.33-12.5,3.33h0c-.14.01-.28.03-.42.06-7.1,1.59-17.22,2.7-28.98,3.43,4.34-13.89,8.84-31.67,8.84-45.64,0-13.04-1.12-129.82-2.28-246.89,12.97-.67,25.61-1.64,37.92-2.93h0ZM401.04,331.67s11.97-10.48,19.95-23.95c0,0,31.13,22.45,31.93,70.34.09,5.63.22,16.89.37,32.3-13.26-.96-26-1.78-38.36-2.43l-.33-32.12s-2.39-33.67-13.57-44.15Z"/>
    <path class="cls-6" d="M268.82,622.27c.95,126.44,2.12,253.42,2.12,253.42,0,0,1.18,18.85,4.09,37.65,2.59,1.15,5.66,2.02,9.32,2.5,7.59.99,20.13,1.91,35.04,2.58-.98-7.06-1.6-14.08-1.35-19.53.4-8.62.2-142.13-.1-273.33-15.98-.78-32.35-1.88-49.11-3.28h0ZM312.44,298s-43.9,18.71-44.7,81.57c-.08,6.51-.11,17.04-.1,30.6,16.89-1.61,33.32-2.7,49.71-3.33-.07-25.42-.12-40.74-.12-40.74,0,0,2.39-32.93,11.17-43.4l-15.96-24.69Z"/>
    <path class="cls-5" d="M453.35,415.79c.44,45.75,1.05,123.13,1.65,201.66-12.31,1.3-24.95,2.28-37.93,2.95-.8-81.13-1.62-161.65-2.08-207.05,12.34.65,25.08,1.47,38.35,2.44h0ZM267.65,415.59c.07,46.25.55,123.3,1.13,201.26,16.77,1.41,33.15,2.51,49.13,3.3-.19-80.77-.41-159.97-.55-207.91-16.38.63-32.8,1.73-49.72,3.36Z"/>
    <path class="cls-5" d="M344.18,190.51v40.28c-4.37.08-8.36.17-11.83.27v-40.18c3.45-.13,7.44-.26,11.83-.37h0ZM375.37,190.16v40.47c4.95.04,10,.12,15.06.25v-40.5c-5.06-.12-10.11-.19-15.06-.22Z"/>
    <path class="cls-14" d="M344.18,94.44v90.67c-4.39.11-8.37.24-11.83.37v-90.84c3.38-.1,7.43-.16,11.83-.19h0ZM344.18,69.95v19.07c-4.37.04-8.41.1-11.83.2v-18.8c3.43-.16,7.42-.33,11.83-.47h0ZM344.18,52.95v11.59c-4.4.14-8.39.31-11.83.47v-11.96c2.82-.08,6.99-.11,11.83-.1Z"/>
    <path class="cls-8" d="M375.37,94.53v90.23c4.94.02,9.99.09,15.06.21v-90.21c-4.12-.09-9.34-.17-15.06-.23h0ZM375.37,69.5v19.61c5.66.07,10.87.15,15.06.25v-19.58c-5.07-.16-10.12-.24-15.06-.28h0ZM375.37,53.31v10.79c4.93.03,9.98.12,15.06.27v-10.75c-.26-.02-.41-.03-.41-.03-.78-.02-6.73-.14-14.64-.28Z"/>
    <path class="cls-6" d="M344.18,236.2v27.81c-4.33,1.17-8.34,3.1-11.83,5.25v-32.78c3.47-.09,7.45-.19,11.83-.27Z"/>
    <path class="cls-1" d="M375.37,236.03v27.97c5.51,1.17,10.61,3.1,15.06,5.25v-32.96c-5.05-.13-10.1-.21-15.06-.26Z"/>
    <path class="cls-10" d="M688.56,425.77c4.65,30.92,16.95,114.92,19.62,154.67-12.75-.99-28.03-1.72-44.81-2.1-.85-48.34-4.13-120.98-5.61-152.29l30.8-.28Z"/>
    <path class="cls-10" d="M537.52,584.29c-.06-2.09.03-4.19.31-6.28,3.58-26.89,16.49-96.43,26.89-130.84,0,0-20.07,101.09-17.21,124.75.45,3.72,1.01,7.14,1.66,10.28-4.48.61-8.39,1.32-11.65,2.09Z"/>
    <path class="cls-7" d="M538.5,592.32c-.24-1.14-.43-2.28-.59-3.43,3.12-.48,7.33-1,12.46-1.54.62,2.37,1.29,4.57,2.02,6.64-5.71-.58-10.41-1.14-13.88-1.66h0ZM708.5,585.88c.18,3.69.24,6.84.17,9.35-12.7,1.01-28.08,1.75-45.09,2.13,0-4.19-.05-8.75-.12-13.6,16.98.38,32.35,1.12,45.04,2.12Z"/>
    <path class="cls-2" d="M561.13,632.5s-15.4-15.82-21.34-35.17c4.12.86,9.1,1.62,14.8,2.26,3.08,6.98,6.74,12.33,10.48,17.5,7.53,10.4,12.01,14.52,12.01,14.52l-15.95.9h0ZM708.35,600.66c-2.64,30.55-18.14,49.94-53.83,66.07,8.24-31.9,8.24-44.45,8.24-44.45.51-3.61.76-10.44.81-19.51,16.78-.38,32.05-1.11,44.78-2.11Z"/>
    <path class="cls-5" d="M658.5,886.87c-17.16-24.78-16.74-71.05-16.52-94.21v-1.63c.05-4.36.08-8.99.11-13.8.13-24.36.29-53.18,2.22-70.94.64-5.89,3.88-11.34,8.85-16.7-4.16,1.08-8.29,1.64-12.27,1.81-1.45,6.56-2.84,14.92-3,23.36-.36,18.28.36,122.95.36,122.95,0,0,3.37,38.23,20.26,49.15Z"/>
  </g>
  <path class="cls-12" d="M321.81,65.57c9.95-.61,43.54-2.39,76.21-.91l.2.02h0s.27.02.7.11c0-2.62-.2-5.98-1.03-8.07-1.1-2.77-7.85-3.12-7.87-3.13-2.34-.05-51.08-1.08-60.05-.44-6.4.46-7.76,4.49-7.98,5.33l-.18,7.09h0ZM397.6,70.05c-36.31-1.63-73.84.8-78,1.08-.95.49-1.29,2.32-1.36,2.81-.05,1.16-.41,11.1.66,14.86.1.35.31.61.6.79.07.04.15.08.22.12,1.09.51,2.87.18,3.33.08.14-.04.29-.07.45-.09,4.74-.53,17.05-.72,30.45-.72,20.71,0,44.26.45,46.32.73.17.02.31.04.43.04.13-.13.27-.25.42-.35-.18-2.97-.58-10.79-.17-15.68.26-3.14-3.03-3.63-3.34-3.67h0ZM404.27,67.58c1.35,1.42,2.32,3.51,2.06,6.58-.48,5.74.25,16.02.25,16.05.04.53-.08,1.03-.31,1.46-.25.53-.76,1.41-1.66,2.15-.45,1.12-1.11,2.97-1.26,4.55-.26,2.71.56,16.17.57,16.21h0v.13c0,.39,1.67,135.34,1.95,150.53.22,12.13,7.16,18.3,15.62,25.73l.15.12c1.13,1,2.3,2.02,3.62,3.21l2.63,2.36c8.97,8.05,14.32,12.86,27.45,30.29,14.64,19.44,14.16,47.41,14.15,47.83.02,2.56,3.33,481.65,3.61,511.45.29,31.05-30,33.81-32.63,33.99-14.33,3.16-40.01,4.46-66.9,4.63-35.79.22-73.82-1.56-89.92-3.66-29.51-3.86-27.81-29.61-27.63-31.64-.06-5.61-4.08-351.73-5.25-474.96-.01-.15-.02-.31,0-.46-.2-20.73-.31-35.11-.31-40.35,0-15.95,5.63-30.86,13.51-43.76,11.15-18.25,26.86-32.49,37.38-39.83,16.18-11.3,13.86-31.92,13.86-31.98,0-.09-.01-.19-.01-.29,0-.1.09-9.25.23-23-.05-.18-.08-.37-.08-.56-.01-.29.02-.58.1-.85.12-12.26.29-27.91.46-44.03-.05-.17-.07-.35-.08-.54-.02-.31.02-.61.1-.9.43-38.51.94-79.15,1.23-82.12.4-4.03-.71-9.84-1.22-12.21-.97-.77-1.78-1.87-2.23-3.45-1.36-4.8-.85-16.61-.84-16.64,0-.12.02-.24.04-.36.11-.73.77-4.49,3.49-6.47l.22-8.72c0-.15.02-.29.05-.43h0s1.62-9.08,12.95-9.89c9.29-.66,60.49.44,60.63.44h.1s0,0,0,0c.03,0,10.2.52,12.59,6.53,1.51,3.79,1.47,10.07,1.37,12.86h0ZM398.53,94.99c-5-.25-25.86-.59-44.6-.59-13.18,0-25.22.17-29.76.66-.41.08-1.32.24-2.44.27.55,3.16,1.13,7.62.79,11.12-.28,2.81-.77,41.78-1.19,79.49,10.21-.49,45.08-1.96,78.08-.69-.44-34.81-.85-68.07-.88-70.35,0-.04-.85-13.88-.55-17.03.09-.95.3-1.94.55-2.88h0ZM321.27,191.35c-.16,14.55-.31,28.63-.42,40.07,10.3-.39,46.01-1.54,79.15-.24-.16-12.2-.34-26.36-.52-40.53-33.21-1.29-68.48.22-78.2.69h0ZM320.79,236.84l-.21,20.97c.17,1.81,1.92,24.19-16.16,36.81-10.08,7.04-25.15,20.7-35.85,38.22-7.41,12.13-12.71,26.1-12.71,40.94,0,5.19.1,18.5.28,37.54,34.47-3.73,66.64-5.28,100.1-5.15,33.64.13,68.44,1.96,108.09,5.01l-.25-36.45c0-.08.54-26.46-13.07-44.54-12.76-16.95-17.99-21.64-26.75-29.5l-2.63-2.36c-1.11-1-2.36-2.1-3.58-3.17l-.14-.13c-9.44-8.3-17.18-15.18-17.45-29.7-.07-3.68-.22-14.49-.4-28.73-33.32-1.32-69.37-.14-79.27.24h0ZM256.2,416.76c.44,46.19,1.25,121.8,2.11,199.17,38.79,3.51,75.52,5.46,110.14,5.58,34.54.12,67-1.56,97.32-5.3l-1.39-199.6c-39.84-3.07-74.68-4.91-108.15-5.04-33.36-.13-65.5,1.44-100.03,5.19h0ZM258.37,621.36c1.47,132.18,3.04,267.57,3.05,268.3,0,.09,0,.18-.01.28,0,.06-2.49,22.58,22.94,25.91,15.91,2.08,53.64,3.84,89.2,3.62,26.7-.17,52.11-1.45,65.99-4.55.14-.03.28-.05.42-.06h0c.08,0,27.99-1.35,27.74-28.57-.14-14.83-1.03-141.22-1.89-264.63-30.37,3.71-62.84,5.39-97.36,5.26-34.64-.13-71.35-2.06-110.08-5.55h0ZM637.31,578.05c29.93,0,57.12,1.1,76.88,2.89,12.93,1.17,22.84,2.88,28.59,5.03-1.2-19.68-5.11-43.74-9.84-67.13-9.3-45.98-21.64-89.05-22.89-91.24-1.19-2.09-3.77-1.98-3.77-1.98h-.03c-.37,0-128.63,1.18-133.91,1.18s-6.35,2.77-6.48,3.16l-.04.12c-.1.3-32.38,99.86-34.19,155.98,5.71-2.19,15.71-3.93,28.81-5.11,19.76-1.79,46.94-2.89,76.88-2.89h0ZM713.7,586.32c18.09,1.64,29.28,3.18,29.28,4.24s-11.19,2.6-29.28,4.24c-19.47,1.76-46.47,2.85-76.39,2.85s-56.92-1.09-76.39-2.85c-18.09-1.64-29.28-3.18-29.28-4.24s11.19-2.6,29.28-4.24c19.47-1.76,46.47-2.85,76.39-2.85s56.92,1.09,76.39,2.85h0ZM742.56,595.23c-5.78,2.11-15.6,3.79-28.37,4.94-19.76,1.79-46.94,2.89-76.88,2.89s-57.12-1.1-76.88-2.89c-12.6-1.14-22.34-2.79-28.14-4.86,1.64,8.35,6.39,25.68,18.86,36.46,3.6,3.11,8.9,7.18,15.02,11.86,13.04,9.99,29.68,22.74,42.21,35.86l.18.08c.09.04,30.02,14.89,55.63-.36.3-.18.63-.29.96-.35,4.76-3.74,10.07-7.55,15.65-11.55,12.33-8.85,26.02-18.67,37.69-30.53,17.94-18.22,22.77-34.25,24.07-41.55h0ZM598.66,894.65c3.66-2.4,6.89-5,9.73-7.71.92-.25,1.64-.97,1.89-1.87,19.96-20.59,19.23-46.65,19.23-46.74h0c-.01-1.44-.96-105.53-2.87-127.23-.4-7.28-4.54-15.13-10.76-23.02,8.92,2.68,22.89,5.25,37.26,1.51-4.97,5.37-8.21,10.81-8.85,16.7-1.93,17.75-2.09,46.58-2.22,70.94-.03,4.8-.05,9.44-.09,13.8v1.63c-.27,27.54-.82,87.7,28.21,105.64,1.27.78,2.93.39,3.72-.88.78-1.27.39-2.93-.88-3.72-3.11-1.92-5.84-4.42-8.25-7.38,17.47,1.19,32.81,3.75,44.09,7.06,11.5,3.37,18.46,7.13,18.46,10.47,0,4.23-9.62,8.47-25.17,11.9-16.66,3.67-39.75,5.95-65.32,5.95s-48.66-2.27-65.32-5.95c-15.55-3.43-25.17-7.67-25.17-11.9,0-3.15,5.82-6.44,15.7-9.45,9.37-2.86,22.1-5.16,36.96-6.62-1.06.8-2.17,1.58-3.32,2.33-1.25.82-1.6,2.5-.78,3.75.82,1.25,2.5,1.6,3.75.78h0ZM605.97,881.75c18.83-19,18.15-43.25,18.15-43.33v-.04c0-.88-.96-105.57-2.86-126.91v-.1s-.01,0-.01,0c-1.07-19.56-35.45-45.9-58.36-63.45-6.15-4.71-11.5-8.81-15.27-12.07-18.5-16-21.46-44.69-21.47-44.77-.01-.1-.01-.19-.02-.29h0c0-55.85,34.45-162.07,34.55-162.38l.03-.09c.36-1.05,2.75-6.97,11.63-6.97,10.02,0,132.34-1.14,133.84-1.16.02,0,5.76-.23,8.58,4.69,1.33,2.32,14.08,46.36,23.48,92.87,5.21,25.75,9.43,52.34,10.2,73.2,0,.08,0,.16,0,.23-.04,1.68-1.03,23.91-26.09,49.36-11.98,12.17-25.87,22.14-38.39,31.12-17.99,12.91-33.02,23.7-34.27,35.17-1.91,17.58-2.07,46.2-2.2,70.38-.03,4.83-.05,9.49-.09,13.82v1.63c-.21,21.62-.61,64.08,13.48,87.97,19.64,1.06,36.98,3.85,49.53,7.53,13.93,4.08,22.36,9.64,22.36,15.66,0,7.12-11.25,13.16-29.43,17.17-17.07,3.76-40.58,6.09-66.49,6.09s-49.41-2.33-66.49-6.09c-18.18-4.01-29.43-10.05-29.43-17.17,0-5.84,7.25-10.86,19.55-14.61,11.28-3.44,27.1-6.09,45.47-7.5h0ZM554,906.4c4.6,2.57,12.44,5.8,25.59,8.28,12.95,2.44,31.18,4.17,56.81,3.83,24.41-.32,42.35-2.39,55.36-4.82,13.13-2.46,21.29-5.29,26.04-7.1,1.4-.53,2.1-2.1,1.57-3.49-.53-1.4-2.1-2.1-3.49-1.57-4.58,1.75-12.45,4.48-25.11,6.85-12.78,2.39-30.42,4.42-54.43,4.74-25.2.33-43.08-1.36-55.75-3.75-12.46-2.34-19.74-5.33-23.96-7.68-1.3-.72-2.95-.26-3.67,1.05-.72,1.3-.26,2.95,1.05,3.67Z"/>
  <rect class="cls-15" x=".11" y=".11" width="963.78" height="963.78"/>
</svg>