<?xml version="1.0" encoding="UTF-8"?>
<svg id="Calque_2" data-name="Calque 2" xmlns="http://www.w3.org/2000/svg" xmlns:xlink="http://www.w3.org/1999/xlink" viewBox="0 0 4602.86 2229.97">
  <defs>
    <style>
      .cls-1 {
        fill: #81ceeb;
      }

      .cls-2, .cls-3 {
        fill: #fff;
      }

      .cls-4 {
        stroke: url(#Dégradé_sans_nom_5);
      }

      .cls-4, .cls-5 {
        fill: #e30518;
        stroke-miterlimit: 10;
        stroke-width: 10.77px;
      }

      .cls-6 {
        fill: #e39221;
      }

      .cls-7 {
        fill: #d7edf3;
      }

      .cls-8 {
        fill: #3e3863;
      }

      .cls-3 {
        font-family: MyriadPro-Regular, 'Myriad Pro';
        font-size: 318px;
      }

      .cls-9 {
        fill: #9baab3;
      }

      .cls-10 {
        fill: #352e35;
      }

      .cls-5 {
        stroke: url(#Dégradé_sans_nom_5-2);
      }

      .cls-11 {
        fill: #b3dfef;
      }

      .cls-12 {
        fill: #fcc01f;
      }

      .cls-13 {
        fill: #f8a800;
      }

      .cls-14 {
        fill: #1d2342;
      }

      .cls-15 {
        fill: #6f838e;
      }

      .cls-16 {
        fill: #f59c00;
      }

      .cls-17 {
        fill: #d4d4d4;
      }
    </style>
    <linearGradient id="Dégradé_sans_nom_5" data-name="Dégradé sans nom 5" x1="2389.29" y1="749.12" x2="3202.28" y2="749.12" gradientUnits="userSpaceOnUse">
      <stop offset="0" stop-color="#fff"/>
      <stop offset="1" stop-color="#fff"/>
    </linearGradient>
    <linearGradient id="Dégradé_sans_nom_5-2" data-name="Dégradé sans nom 5" x1="2941.09" y1="1428.51" x2="4602.86" y2="1428.51" xlink:href="#Dégradé_sans_nom_5"/>
  </defs>
  <g id="Capa_1" data-name="Capa 1">
    <g>
      <path class="cls-12" d="M4150.43,702.43l-258.28-165.01-445.94-474.82c-33.63-35.81-80.5-56.23-129.63-56.49L2150.52,0c-83.08-.44-164.48,23.35-234.25,68.46l-667.52,431.58c-38.27,24.75-80.36,43.03-124.56,54.13l-679.38,169.78c-176.97,57.4-322.85,165.01-337.2,268.11l-57.4,420.64-5.15,3.68c-28.28,20.2-45.06,52.81-45.06,87.57v145.5c0,59.44,48.18,107.62,107.62,107.62h544.55c1.03,7.67,2.23,15.28,3.59,22.83.04.21.07.42.11.63,1.36,7.49,2.88,14.91,4.56,22.28.04.19.09.38.13.57,15.5,67.45,44.34,129.78,83.67,184.05.26.37.52.74.78,1.11,3.87,5.32,7.88,10.54,11.95,15.7.76.96,1.5,1.93,2.27,2.89,3.82,4.77,7.74,9.45,11.73,14.08,1.1,1.28,2.2,2.56,3.31,3.83,3.83,4.36,7.74,8.65,11.72,12.87,1.36,1.44,2.73,2.88,4.1,4.3,3.89,4.04,7.84,8.02,11.86,11.93,1.54,1.5,3.1,2.97,4.67,4.45,3.99,3.78,8.01,7.52,12.11,11.17,1.68,1.49,3.39,2.94,5.09,4.41,4.12,3.56,8.25,7.1,12.48,10.53,1.72,1.4,3.49,2.74,5.23,4.11,4.31,3.41,8.63,6.81,13.07,10.08,1.55,1.15,3.16,2.23,4.73,3.36,14.89,10.74,30.38,20.68,46.43,29.79,2.25,1.28,4.45,2.62,6.72,3.87,3.77,2.06,7.62,3.99,11.44,5.96,3.23,1.66,6.44,3.37,9.71,4.97,3.62,1.77,7.31,3.42,10.98,5.11,3.56,1.64,7.11,3.29,10.72,4.85,3.59,1.55,7.22,3,10.85,4.47,3.79,1.53,7.59,3.06,11.43,4.5,3.58,1.35,7.18,2.62,10.8,3.88,3.97,1.39,7.95,2.75,11.97,4.05,3.59,1.16,7.2,2.27,10.82,3.35,4.14,1.23,8.3,2.41,12.48,3.54,3.58.97,7.17,1.91,10.79,2.8,4.33,1.07,8.69,2.06,13.06,3.01,3.54.78,7.07,1.55,10.64,2.25,4.56.89,9.15,1.68,13.76,2.46,3.46.58,6.9,1.19,10.39,1.7,4.86.71,9.76,1.29,14.66,1.86,3.29.39,6.57.83,9.88,1.15,5.47.53,10.99.9,16.51,1.26,2.78.18,5.55.45,8.35.58,8.35.41,16.74.64,25.19.64s16.84-.23,25.19-.64c2.8-.14,5.56-.4,8.35-.58,5.52-.36,11.04-.72,16.51-1.26,3.31-.32,6.58-.76,9.87-1.15,4.9-.58,9.81-1.15,14.67-1.86,3.48-.51,6.93-1.12,10.39-1.7,4.6-.77,9.2-1.56,13.75-2.46,3.57-.7,7.1-1.48,10.64-2.25,4.37-.96,8.73-1.95,13.07-3.02,3.61-.89,7.19-1.83,10.77-2.8,4.19-1.13,8.35-2.31,12.49-3.55,3.62-1.08,7.22-2.19,10.8-3.34,4.02-1.3,8.01-2.66,11.98-4.05,3.61-1.27,7.22-2.54,10.79-3.88,3.84-1.44,7.63-2.97,11.42-4.5,3.63-1.47,7.27-2.92,10.86-4.47,3.6-1.56,7.15-3.21,10.72-4.85,3.67-1.69,7.35-3.34,10.98-5.11,3.27-1.6,6.48-3.31,9.72-4.98,3.82-1.97,7.66-3.89,11.43-5.95,2.31-1.26,4.55-2.63,6.84-3.93,15.98-9.08,31.42-18.99,46.26-29.69,1.59-1.15,3.22-2.24,4.79-3.41,4.41-3.26,8.71-6.64,13.01-10.04,1.76-1.39,3.55-2.75,5.29-4.16,4.21-3.42,8.33-6.94,12.43-10.49,1.72-1.48,3.45-2.95,5.14-4.45,4.1-3.64,8.1-7.37,12.08-11.14,1.57-1.49,3.15-2.97,4.7-4.48,4.02-3.91,7.96-7.89,11.84-11.92,1.38-1.43,2.74-2.86,4.1-4.3,3.98-4.23,7.89-8.52,11.72-12.88,1.11-1.26,2.2-2.54,3.3-3.81,3.99-4.63,7.91-9.32,11.74-14.09.76-.95,1.51-1.92,2.27-2.88,4.07-5.16,8.07-10.38,11.95-15.7.26-.37.52-.74.78-1.11,39.34-54.28,68.18-116.6,83.68-184.05.04-.19.09-.38.13-.57,1.68-7.37,3.2-14.79,4.56-22.28.04-.21.07-.42.11-.63,1.36-7.56,2.57-15.16,3.59-22.83h1322.27c1.03,7.67,2.23,15.28,3.59,22.83.04.21.07.42.11.63,1.36,7.49,2.88,14.91,4.56,22.28.04.19.09.38.13.57,15.5,67.45,44.34,129.78,83.67,184.05.26.37.52.74.78,1.11,3.87,5.32,7.88,10.54,11.95,15.7.76.96,1.5,1.93,2.27,2.89,3.82,4.77,7.74,9.45,11.73,14.08,1.1,1.28,2.2,2.56,3.32,3.83,3.83,4.36,7.74,8.65,11.72,12.87,1.36,1.44,2.73,2.88,4.1,4.3,3.89,4.04,7.84,8.02,11.86,11.93,1.54,1.5,3.11,2.97,4.67,4.45,3.99,3.78,8.01,7.52,12.11,11.17,1.68,1.49,3.39,2.94,5.09,4.41,4.12,3.56,8.25,7.1,12.48,10.53,1.72,1.4,3.49,2.74,5.23,4.11,4.31,3.41,8.63,6.81,13.06,10.08,1.55,1.15,3.16,2.23,4.73,3.36,14.89,10.74,30.38,20.68,46.43,29.79,2.25,1.28,4.45,2.62,6.72,3.87,3.77,2.06,7.62,3.99,11.44,5.96,3.23,1.66,6.44,3.37,9.71,4.97,3.62,1.77,7.31,3.42,10.98,5.11,3.56,1.64,7.12,3.29,10.72,4.85,3.59,1.55,7.22,3,10.85,4.47,3.79,1.53,7.59,3.06,11.43,4.5,3.57,1.35,7.18,2.62,10.8,3.88,3.97,1.39,7.95,2.75,11.97,4.05,3.59,1.16,7.2,2.27,10.82,3.35,4.14,1.23,8.3,2.41,12.48,3.54,3.58.97,7.17,1.91,10.79,2.8,4.33,1.07,8.69,2.06,13.06,3.01,3.54.78,7.07,1.55,10.64,2.25,4.56.89,9.15,1.68,13.76,2.46,3.46.58,6.9,1.19,10.39,1.7,4.86.71,9.76,1.29,14.66,1.86,3.29.39,6.57.83,9.88,1.15,5.47.53,10.99.9,16.51,1.26,2.79.18,5.55.45,8.35.58,8.35.41,16.74.64,25.19.64s16.84-.23,25.19-.64c2.8-.14,5.56-.4,8.35-.58,5.52-.36,11.04-.72,16.51-1.26,3.31-.32,6.58-.76,9.87-1.15,4.91-.58,9.81-1.15,14.67-1.86,3.48-.51,6.93-1.12,10.39-1.7,4.6-.77,9.2-1.56,13.75-2.46,3.57-.7,7.1-1.48,10.64-2.25,4.37-.96,8.73-1.95,13.07-3.02,3.61-.89,7.19-1.83,10.77-2.8,4.19-1.13,8.35-2.31,12.49-3.55,3.62-1.08,7.22-2.19,10.8-3.34,4.02-1.3,8.01-2.66,11.98-4.05,3.61-1.27,7.22-2.54,10.79-3.88,3.84-1.44,7.63-2.97,11.42-4.5,3.63-1.47,7.27-2.92,10.86-4.47,3.61-1.56,7.16-3.21,10.72-4.85,3.67-1.69,7.36-3.34,10.98-5.11,3.27-1.6,6.48-3.31,9.72-4.98,3.82-1.97,7.66-3.89,11.43-5.95,2.31-1.26,4.55-2.63,6.84-3.93,15.98-9.08,31.42-18.99,46.26-29.69,1.59-1.15,3.22-2.24,4.79-3.41,4.41-3.26,8.71-6.64,13.01-10.04,1.76-1.39,3.55-2.75,5.29-4.16,4.21-3.42,8.33-6.94,12.43-10.49,1.71-1.48,3.45-2.95,5.14-4.45,4.1-3.64,8.1-7.37,12.08-11.14,1.57-1.49,3.15-2.97,4.7-4.48,4.02-3.91,7.96-7.89,11.84-11.92,1.38-1.43,2.74-2.86,4.1-4.3,3.98-4.23,7.89-8.52,11.72-12.88,1.11-1.26,2.2-2.54,3.3-3.81,3.99-4.63,7.91-9.32,11.74-14.09.76-.95,1.51-1.92,2.27-2.88,4.07-5.16,8.07-10.38,11.95-15.7.26-.37.52-.74.78-1.11,39.34-54.28,68.18-116.6,83.67-184.05.04-.19.09-.38.13-.57,1.68-7.37,3.2-14.79,4.56-22.28.04-.21.07-.42.11-.63,1.36-7.56,2.57-15.16,3.59-22.83h82.24l128.47-32.99c6.84-1.76,13.46-3.97,19.97-6.38,1.86-.69,3.69-1.45,5.53-2.19,4.95-2.01,9.78-4.19,14.5-6.56,1.56-.78,3.15-1.51,4.68-2.33,5.97-3.19,11.78-6.63,17.35-10.38,1.03-.7,2-1.47,3.02-2.19,4.57-3.2,8.99-6.58,13.26-10.13,1.53-1.27,3.03-2.56,4.52-3.87,4.16-3.67,8.16-7.51,12-11.5.85-.88,1.75-1.71,2.58-2.6,4.52-4.88,8.75-10,12.76-15.3,1.03-1.36,1.97-2.78,2.97-4.16,3.02-4.2,5.86-8.51,8.55-12.94.99-1.64,2-3.27,2.95-4.94,3.3-5.81,6.42-11.74,9.13-17.88,0-.01.01-.03.02-.04,0-.02.01-.04.02-.06,2.51-5.69,4.69-11.54,6.68-17.48.62-1.85,1.13-3.75,1.69-5.62,1.28-4.22,2.44-8.49,3.43-12.81.5-2.16.96-4.33,1.39-6.51.85-4.37,1.54-8.79,2.11-13.25.26-1.99.56-3.97.76-5.97.62-6.42,1.03-12.9,1.03-19.46v-600.01c0-117.21-95.75-160.72-204.46-227.1Z"/>
      <g>
        <path class="cls-13" d="M4080.47,1681.75c0,25.54-1.8,50.64-4.94,75.33l128.47-32.99c6.84-1.76,13.46-3.97,19.97-6.38,1.86-.69,3.69-1.45,5.53-2.19,4.95-2.01,9.78-4.19,14.5-6.56,1.56-.78,3.15-1.51,4.68-2.33,5.97-3.19,11.78-6.63,17.35-10.38,1.03-.7,2-1.47,3.02-2.19,4.57-3.2,8.99-6.58,13.26-10.13,1.53-1.27,3.03-2.56,4.52-3.87,4.16-3.67,8.16-7.51,12-11.5.85-.88,1.75-1.71,2.58-2.6,4.52-4.88,8.75-10,12.76-15.3,1.03-1.36,1.97-2.78,2.97-4.16,3.02-4.2,5.86-8.51,8.55-12.94.99-1.64,2-3.27,2.95-4.94,3.3-5.81,6.42-11.74,9.13-17.88,0-.01.01-.03.02-.04,0-.02.01-.04.02-.06,2.51-5.69,4.69-11.54,6.68-17.48.62-1.85,1.13-3.75,1.69-5.62,1.28-4.22,2.44-8.49,3.43-12.81.5-2.16.96-4.33,1.39-6.51.85-4.37,1.54-8.79,2.11-13.25.26-1.99.56-3.97.76-5.97.62-6.42,1.03-12.9,1.03-19.46v-124.01l-342.38.86c43.33,82.27,67.97,175.91,67.97,275.35Z"/>
        <path class="cls-13" d="M2963.3,1409.04l-241.29.61V54.34c0-5.56-4.51-10.07-10.06-10.07s-10.06,4.51-10.06,10.07v1355.35l-935.36,2.36c-14.26-54.18-35.9-101.68-62.51-142.77-68.03-105.09-166.53-169.59-247.8-207.94-67.16-31.67-122.6-45.52-140.22-49.46l-118.01-374.86L1978.82,79.27c4.52-3.23,5.57-9.52,2.34-14.04-3.23-4.52-9.52-5.57-14.04-2.34l-792.74,566.24,125.97,400.12,5.91,1.13,1.15.23c12.5,2.54,124.18,27.17,233.59,102.26,54.72,37.53,108.86,87.58,150.14,153.68,22.85,36.61,41.59,78.35,54.54,125.54l-61.87.16c41.43,80.85,64.96,172.39,64.96,269.49,0,25.54-1.8,50.64-4.94,75.33h1157.79c-3.14-24.68-4.94-49.79-4.94-75.33,0-98.38,24.14-191.08,66.61-272.71Z"/>
        <path class="cls-13" d="M628.58,1414.92l-583.52,1.47c-28.28,20.2-45.06,52.81-45.06,87.57v145.5c0,59.44,48.18,107.62,107.62,107.62h462.31c-3.14-24.68-4.94-49.79-4.94-75.33,0-96.03,23.01-186.63,63.6-266.83Z"/>
        <path class="cls-6" d="M4012.51,1406.4c-99.1-188.18-296.48-316.54-523.92-316.54s-426.64,129.58-525.29,319.19c-42.47,81.63-66.61,174.33-66.61,272.71,0,25.54,1.8,50.64,4.94,75.33h82.24c-2.99-22.31-4.67-45.03-4.67-68.15,0-281.33,228.06-509.39,509.38-509.39s509.39,228.06,509.39,509.39c0,23.13-1.69,45.84-4.67,68.15h82.24c3.14-24.68,4.94-49.79,4.94-75.33,0-99.44-24.64-193.08-67.97-275.35Z"/>
        <path class="cls-10" d="M3488.57,1179.54c-281.32,0-509.38,228.06-509.38,509.39,0,23.13,1.69,45.84,4.67,68.15,1.03,7.67,2.23,15.28,3.59,22.83.04.21.07.42.11.63,1.36,7.49,2.88,14.91,4.56,22.28.04.19.09.38.13.57,15.5,67.45,44.34,129.78,83.67,184.05.26.37.52.74.78,1.11,3.87,5.32,7.88,10.54,11.95,15.7.76.96,1.5,1.93,2.27,2.89,3.82,4.77,7.74,9.45,11.73,14.08,1.1,1.28,2.2,2.56,3.32,3.83,3.83,4.36,7.74,8.65,11.72,12.87,1.36,1.44,2.73,2.88,4.1,4.3,3.89,4.04,7.84,8.02,11.86,11.93,1.54,1.5,3.11,2.97,4.67,4.45,3.99,3.78,8.01,7.52,12.11,11.17,1.68,1.49,3.39,2.94,5.09,4.41,4.12,3.56,8.25,7.1,12.48,10.53,1.72,1.4,3.49,2.74,5.23,4.11,4.31,3.41,8.63,6.81,13.06,10.08,1.55,1.15,3.16,2.23,4.73,3.36,14.89,10.74,30.38,20.68,46.43,29.79,2.25,1.28,4.45,2.62,6.72,3.87,3.77,2.06,7.62,3.99,11.44,5.96,3.23,1.66,6.44,3.37,9.71,4.97,3.62,1.77,7.31,3.42,10.98,5.11,3.56,1.64,7.12,3.29,10.72,4.85,3.59,1.55,7.22,3,10.85,4.47,3.79,1.53,7.59,3.06,11.43,4.5,3.57,1.35,7.18,2.62,10.8,3.88,3.97,1.39,7.95,2.75,11.97,4.05,3.59,1.16,7.2,2.27,10.82,3.35,4.14,1.23,8.3,2.41,12.48,3.54,3.58.97,7.17,1.91,10.79,2.8,4.33,1.07,8.69,2.06,13.06,3.01,3.54.78,7.07,1.55,10.64,2.25,4.56.89,9.15,1.68,13.76,2.46,3.46.58,6.9,1.19,10.39,1.7,4.86.71,9.76,1.29,14.66,1.86,3.29.39,6.57.83,9.88,1.15,5.47.53,10.99.9,16.51,1.26,2.79.18,5.55.45,8.35.58,8.35.41,16.74.64,25.19.64s16.84-.23,25.19-.64c2.8-.14,5.56-.4,8.35-.58,5.52-.36,11.04-.72,16.51-1.26,3.31-.32,6.58-.76,9.87-1.15,4.91-.58,9.81-1.15,14.67-1.86,3.48-.51,6.93-1.12,10.39-1.7,4.6-.77,9.2-1.56,13.75-2.46,3.57-.7,7.1-1.48,10.64-2.25,4.37-.96,8.73-1.95,13.07-3.02,3.61-.89,7.19-1.83,10.77-2.8,4.19-1.13,8.35-2.31,12.49-3.55,3.62-1.08,7.22-2.19,10.8-3.34,4.02-1.3,8.01-2.66,11.98-4.05,3.61-1.27,7.22-2.54,10.79-3.88,3.84-1.44,7.63-2.97,11.42-4.5,3.63-1.47,7.27-2.92,10.86-4.47,3.61-1.56,7.16-3.21,10.72-4.85,3.67-1.69,7.36-3.34,10.98-5.11,3.27-1.6,6.48-3.31,9.72-4.98,3.82-1.97,7.66-3.89,11.43-5.95,2.31-1.26,4.55-2.63,6.84-3.93,15.98-9.08,31.42-18.99,46.26-29.69,1.59-1.15,3.22-2.24,4.79-3.41,4.41-3.26,8.71-6.64,13.01-10.04,1.76-1.39,3.55-2.75,5.29-4.16,4.21-3.42,8.33-6.94,12.43-10.49,1.71-1.48,3.45-2.95,5.14-4.45,4.1-3.64,8.1-7.37,12.08-11.14,1.57-1.49,3.15-2.97,4.7-4.48,4.02-3.91,7.96-7.89,11.84-11.92,1.38-1.43,2.74-2.86,4.1-4.3,3.98-4.23,7.89-8.52,11.72-12.88,1.11-1.26,2.2-2.54,3.3-3.81,3.99-4.63,7.91-9.32,11.74-14.09.76-.95,1.51-1.92,2.27-2.88,4.07-5.16,8.07-10.38,11.95-15.7.26-.37.52-.74.78-1.11,39.34-54.28,68.18-116.6,83.67-184.05.04-.19.09-.38.13-.57,1.68-7.37,3.2-14.79,4.56-22.28.04-.21.07-.42.11-.63,1.36-7.56,2.57-15.16,3.59-22.83,2.99-22.31,4.67-45.03,4.67-68.15,0-281.33-228.06-509.39-509.39-509.39Z"/>
        <path class="cls-9" d="M3488.57,1336.27c-194.75,0-352.64,157.89-352.64,352.65s157.89,352.65,352.64,352.65,352.65-157.89,352.65-352.65-157.89-352.65-352.65-352.65Z"/>
        <path class="cls-15" d="M3465.88,1965.94c-10.68-.86-20.04,7.1-20.9,17.78-.86,10.68,7.1,20.04,17.78,20.9,10.68.86,20.03-7.1,20.9-17.78.86-10.68-7.1-20.04-17.78-20.9Z"/>
        <path class="cls-15" d="M3776.19,1767.1c-10.14-3.48-21.17,1.92-24.65,12.06h0c-3.48,10.13,1.92,21.17,12.05,24.65,10.13,3.48,21.17-1.92,24.65-12.06,3.47-10.14-1.92-21.17-12.06-24.65Z"/>
        <path class="cls-15" d="M3244.3,1821.6c-5.12-9.41-16.91-12.89-26.32-7.77-9.41,5.12-12.88,16.9-7.76,26.32h0c5.12,9.41,16.9,12.88,26.31,7.76,9.41-5.12,12.88-16.9,7.76-26.31h0Z"/>
        <path class="cls-15" d="M3640.72,1921.56c-8.96,5.87-11.47,17.9-5.59,26.86,5.87,8.96,17.9,11.46,26.86,5.59h0c8.96-5.87,11.46-17.9,5.59-26.86-5.88-8.96-17.9-11.47-26.86-5.59Z"/>
        <path class="cls-15" d="M3377.21,1943.65h0c-9.81-4.3-21.26.17-25.56,9.99-4.3,9.81.18,21.26,9.99,25.55h0c9.81,4.3,21.25-.18,25.55-9.99,4.3-9.81-.18-21.25-9.99-25.55Z"/>
        <path class="cls-15" d="M3300.62,1893.66c-7.89-7.25-20.17-6.73-27.41,1.16-7.25,7.89-6.73,20.16,1.17,27.41,7.89,7.25,20.16,6.73,27.41-1.16,7.25-7.89,6.72-20.16-1.16-27.41h0Z"/>
        <path class="cls-15" d="M3735.21,1856.17c-8.45-6.59-20.64-5.07-27.22,3.38h0c-6.58,8.45-5.07,20.64,3.38,27.23,8.45,6.58,20.64,5.07,27.23-3.38,6.58-8.45,5.07-20.64-3.38-27.22Z"/>
        <path class="cls-15" d="M3557.05,1958.36h0c-10.39,2.63-16.67,13.18-14.04,23.57,2.63,10.39,13.18,16.67,23.57,14.04h0c10.39-2.63,16.67-13.18,14.04-23.57-2.63-10.39-13.18-16.67-23.57-14.04Z"/>
        <polygon class="cls-15" points="3565.36 1381.56 3565.36 1381.57 3565.36 1381.57 3565.36 1381.56"/>
        <path class="cls-15" d="M3464.79,1411.99h0c10.68-.9,18.59-10.29,17.69-20.97-.9-10.68-10.29-18.6-20.97-17.69-10.68.9-18.6,10.29-17.69,20.97.9,10.68,10.29,18.6,20.97,17.69Z"/>
        <path class="cls-15" d="M3766.52,1687.81h0c0,.2.05.38.06.58,0,.18-.05.36-.05.54h0c0,10.71,8.68,19.4,19.4,19.4s19.4-8.69,19.4-19.4h0c0-.21-.06-.41-.06-.62,0-.22.06-.43.06-.65h0c-.04-10.71-8.76-19.36-19.48-19.32-10.71.04-19.36,8.76-19.32,19.47Z"/>
        <path class="cls-15" d="M3376.23,1434.63c9.8-4.33,14.23-15.79,9.89-25.59-4.34-9.8-15.79-14.23-25.59-9.89-9.8,4.34-14.23,15.79-9.89,25.59,4.34,9.8,15.79,14.23,25.59,9.89Z"/>
        <path class="cls-15" d="M3555.98,1419.21h0c10.4,2.59,20.92-3.74,23.51-14.14,2.59-10.4-3.74-20.92-14.14-23.51-10.4-2.59-20.92,3.74-23.51,14.13-2.59,10.4,3.74,20.93,14.14,23.51Z"/>
        <path class="cls-15" d="M3639.82,1455.7c8.98,5.84,21,3.29,26.84-5.7,5.84-8.98,3.29-21-5.7-26.84-8.99-5.84-21-3.29-26.84,5.7-5.84,8.98-3.29,21,5.7,26.84Z"/>
        <path class="cls-15" d="M3710.6,1490.2c-8.43,6.62-9.89,18.81-3.28,27.24,6.61,8.43,18.81,9.89,27.24,3.28,8.43-6.62,9.89-18.81,3.28-27.24-6.62-8.43-18.81-9.89-27.24-3.28Z"/>
        <path class="cls-15" d="M3775.89,1609.62c10.12-3.52,15.47-14.57,11.96-24.69-3.52-10.12-14.57-15.47-24.69-11.96-10.12,3.52-15.47,14.57-11.95,24.69,3.51,10.12,14.57,15.47,24.69,11.96Z"/>
        <path class="cls-15" d="M3214.48,1735.2c-1.77-10.57-11.77-17.7-22.34-15.93-10.57,1.77-17.7,11.77-15.93,22.34,1.77,10.57,11.77,17.7,22.34,15.93,10.56-1.77,17.7-11.77,15.93-22.34Z"/>
        <path class="cls-15" d="M3192.03,1659.72c10.57,1.73,20.55-5.44,22.28-16.02h0c1.73-10.57-5.44-20.55-16.02-22.27-10.57-1.73-20.55,5.44-22.27,16.01h0c-1.73,10.57,5.44,20.55,16.02,22.28Z"/>
        <path class="cls-15" d="M3217.51,1565.04c9.43,5.09,21.2,1.57,26.28-7.86,5.08-9.43,1.56-21.2-7.87-26.28-9.43-5.09-21.2-1.56-26.28,7.87-5.09,9.43-1.57,21.2,7.86,26.28Z"/>
        <path class="cls-15" d="M3299.85,1484.89c7.86-7.28,8.34-19.55,1.06-27.42-7.28-7.86-19.55-8.34-27.41-1.06-7.86,7.28-8.34,19.55-1.06,27.41,7.28,7.86,19.55,8.34,27.42,1.06Z"/>
        <path class="cls-17" d="M3739.81,1688.92c0-138.75-112.48-251.24-251.24-251.24s-251.23,112.48-251.23,251.24,112.48,251.23,251.23,251.23,251.24-112.48,251.24-251.23Z"/>
        <path class="cls-6" d="M1683.81,1412.26c-98.07-191.36-297.13-322.41-526.94-322.41s-430.71,132.26-528.29,325.07c-40.59,80.2-63.6,170.8-63.6,266.83,0,25.54,1.8,50.64,4.94,75.33h82.24c-2.99-22.31-4.67-45.03-4.67-68.15,0-281.33,228.06-509.39,509.38-509.39s509.39,228.06,509.39,509.39c0,23.13-1.69,45.84-4.67,68.15h82.24c3.14-24.68,4.94-49.79,4.94-75.33,0-97.09-23.53-188.64-64.96-269.49Z"/>
        <path class="cls-10" d="M1156.87,1179.54c-281.32,0-509.38,228.06-509.38,509.39,0,23.13,1.69,45.84,4.67,68.15,1.03,7.67,2.23,15.28,3.59,22.83.04.21.07.42.11.63,1.36,7.49,2.88,14.91,4.56,22.28.04.19.09.38.13.57,15.5,67.45,44.34,129.78,83.67,184.05.26.37.52.74.78,1.11,3.87,5.32,7.88,10.54,11.95,15.7.76.96,1.5,1.93,2.27,2.89,3.82,4.77,7.74,9.45,11.73,14.08,1.1,1.28,2.2,2.56,3.31,3.83,3.83,4.36,7.74,8.65,11.72,12.87,1.36,1.44,2.73,2.88,4.1,4.3,3.89,4.04,7.84,8.02,11.86,11.93,1.54,1.5,3.1,2.97,4.67,4.45,3.99,3.78,8.01,7.52,12.11,11.17,1.68,1.49,3.39,2.94,5.09,4.41,4.12,3.56,8.25,7.1,12.48,10.53,1.72,1.4,3.49,2.74,5.23,4.11,4.31,3.41,8.63,6.81,13.07,10.08,1.55,1.15,3.16,2.23,4.73,3.36,14.89,10.74,30.38,20.68,46.43,29.79,2.25,1.28,4.45,2.62,6.72,3.87,3.77,2.06,7.62,3.99,11.44,5.96,3.23,1.66,6.44,3.37,9.71,4.97,3.62,1.77,7.31,3.42,10.98,5.11,3.56,1.64,7.11,3.29,10.72,4.85,3.59,1.55,7.22,3,10.85,4.47,3.79,1.53,7.59,3.06,11.43,4.5,3.58,1.35,7.18,2.62,10.8,3.88,3.97,1.39,7.95,2.75,11.97,4.05,3.59,1.16,7.2,2.27,10.82,3.35,4.14,1.23,8.3,2.41,12.48,3.54,3.58.97,7.17,1.91,10.79,2.8,4.33,1.07,8.69,2.06,13.06,3.01,3.54.78,7.07,1.55,10.64,2.25,4.56.89,9.15,1.68,13.76,2.46,3.46.58,6.9,1.19,10.39,1.7,4.86.71,9.76,1.29,14.66,1.86,3.29.39,6.57.83,9.88,1.15,5.47.53,10.99.9,16.51,1.26,2.78.18,5.55.45,8.35.58,8.35.41,16.74.64,25.19.64s16.84-.23,25.19-.64c2.8-.14,5.56-.4,8.35-.58,5.52-.36,11.04-.72,16.51-1.26,3.31-.32,6.58-.76,9.87-1.15,4.9-.58,9.81-1.15,14.67-1.86,3.48-.51,6.93-1.12,10.39-1.7,4.6-.77,9.2-1.56,13.75-2.46,3.57-.7,7.1-1.48,10.64-2.25,4.37-.96,8.73-1.95,13.07-3.02,3.61-.89,7.19-1.83,10.77-2.8,4.19-1.13,8.35-2.31,12.49-3.55,3.62-1.08,7.22-2.19,10.8-3.34,4.02-1.3,8.01-2.66,11.98-4.05,3.61-1.27,7.22-2.54,10.79-3.88,3.84-1.44,7.63-2.97,11.42-4.5,3.63-1.47,7.27-2.92,10.86-4.47,3.6-1.56,7.15-3.21,10.72-4.85,3.67-1.69,7.35-3.34,10.98-5.11,3.27-1.6,6.48-3.31,9.72-4.98,3.82-1.97,7.66-3.89,11.43-5.95,2.31-1.26,4.55-2.63,6.84-3.93,15.98-9.08,31.42-18.99,46.26-29.69,1.59-1.15,3.22-2.24,4.79-3.41,4.41-3.26,8.71-6.64,13.01-10.04,1.76-1.39,3.55-2.75,5.29-4.16,4.21-3.42,8.33-6.94,12.43-10.49,1.72-1.48,3.45-2.95,5.14-4.45,4.1-3.64,8.1-7.37,12.08-11.14,1.57-1.49,3.15-2.97,4.7-4.48,4.02-3.91,7.96-7.89,11.84-11.92,1.38-1.43,2.74-2.86,4.1-4.3,3.98-4.23,7.89-8.52,11.72-12.88,1.11-1.26,2.2-2.54,3.3-3.81,3.99-4.63,7.91-9.32,11.74-14.09.76-.95,1.51-1.92,2.27-2.88,4.07-5.16,8.07-10.38,11.95-15.7.26-.37.52-.74.78-1.11,39.34-54.28,68.18-116.6,83.68-184.05.04-.19.09-.38.13-.57,1.68-7.37,3.2-14.79,4.56-22.28.04-.21.07-.42.11-.63,1.36-7.56,2.57-15.16,3.59-22.83,2.99-22.31,4.67-45.03,4.67-68.15,0-281.33-228.06-509.39-509.39-509.39Z"/>
        <path class="cls-9" d="M1156.87,1336.27c-194.75,0-352.64,157.89-352.64,352.65s157.89,352.65,352.64,352.65,352.65-157.89,352.65-352.65-157.89-352.65-352.65-352.65Z"/>
        <path class="cls-15" d="M1444.49,1767.1c-10.14-3.48-21.17,1.92-24.65,12.06h0c-3.48,10.13,1.92,21.17,12.05,24.65s21.17-1.92,24.65-12.06c3.47-10.14-1.92-21.17-12.06-24.65Z"/>
        <path class="cls-15" d="M912.6,1821.6c-5.12-9.41-16.91-12.89-26.32-7.77-9.41,5.12-12.88,16.9-7.76,26.32h0c5.12,9.41,16.9,12.88,26.31,7.76,9.41-5.12,12.88-16.9,7.76-26.31h0Z"/>
        <path class="cls-15" d="M1403.51,1856.17c-8.45-6.59-20.64-5.07-27.22,3.38h0c-6.59,8.45-5.07,20.64,3.38,27.23,8.45,6.58,20.64,5.07,27.23-3.38,6.58-8.45,5.07-20.64-3.38-27.22Z"/>
        <path class="cls-15" d="M1309.02,1921.56c-8.96,5.87-11.47,17.9-5.59,26.86,5.87,8.96,17.9,11.46,26.86,5.59h0c8.96-5.87,11.46-17.9,5.59-26.86-5.88-8.96-17.9-11.47-26.86-5.59Z"/>
        <path class="cls-15" d="M1134.18,1965.94c-10.68-.86-20.04,7.1-20.9,17.78-.86,10.68,7.1,20.04,17.78,20.9,10.68.86,20.03-7.1,20.9-17.78.86-10.68-7.1-20.04-17.78-20.9Z"/>
        <path class="cls-15" d="M1045.51,1943.65h0c-9.81-4.3-21.26.17-25.56,9.99-4.3,9.81.17,21.26,9.99,25.55h0c9.81,4.3,21.25-.18,25.55-9.99,4.3-9.81-.18-21.25-9.99-25.55Z"/>
        <path class="cls-15" d="M968.92,1893.66c-7.89-7.25-20.16-6.73-27.41,1.16-7.25,7.89-6.73,20.16,1.17,27.41,7.89,7.25,20.16,6.73,27.41-1.16,7.25-7.89,6.72-20.16-1.16-27.41h0Z"/>
        <path class="cls-15" d="M1225.35,1958.36h0c-10.39,2.63-16.67,13.18-14.04,23.57,2.63,10.39,13.18,16.67,23.57,14.04h0c10.39-2.63,16.67-13.18,14.04-23.57-2.63-10.39-13.18-16.67-23.57-14.04Z"/>
        <path class="cls-15" d="M1224.28,1419.21h0c10.4,2.59,20.92-3.74,23.51-14.14,2.59-10.4-3.74-20.92-14.14-23.51-10.4-2.59-20.92,3.74-23.51,14.13-2.59,10.4,3.74,20.93,14.14,23.51Z"/>
        <polygon class="cls-15" points="1233.66 1381.56 1233.66 1381.57 1233.66 1381.57 1233.66 1381.56"/>
        <path class="cls-15" d="M1133.09,1411.99h0c10.68-.9,18.59-10.29,17.69-20.97-.9-10.68-10.29-18.6-20.97-17.69-10.68.9-18.6,10.29-17.69,20.97.9,10.68,10.29,18.6,20.97,17.69Z"/>
        <path class="cls-15" d="M1444.19,1609.62c10.12-3.52,15.47-14.57,11.96-24.69-3.52-10.12-14.57-15.47-24.69-11.96-10.12,3.52-15.47,14.57-11.95,24.69,3.51,10.12,14.57,15.47,24.69,11.96Z"/>
        <path class="cls-15" d="M1434.82,1687.81h0c0,.2.05.38.06.58,0,.18-.05.36-.05.54h0c0,10.71,8.68,19.4,19.4,19.4s19.4-8.69,19.4-19.4h0c0-.21-.05-.41-.06-.62,0-.22.06-.43.06-.65h0c-.04-10.71-8.76-19.36-19.48-19.32-10.71.04-19.36,8.76-19.32,19.47Z"/>
        <path class="cls-15" d="M1044.53,1434.63c9.8-4.33,14.23-15.79,9.89-25.59-4.34-9.8-15.79-14.23-25.59-9.89-9.8,4.34-14.23,15.79-9.89,25.59,4.34,9.8,15.79,14.23,25.59,9.89Z"/>
        <path class="cls-15" d="M885.81,1565.04c9.43,5.09,21.2,1.57,26.28-7.86,5.08-9.43,1.56-21.2-7.87-26.28-9.43-5.09-21.2-1.56-26.28,7.87-5.09,9.43-1.57,21.2,7.86,26.28Z"/>
        <path class="cls-15" d="M1378.9,1490.2c-8.43,6.62-9.89,18.81-3.28,27.24,6.61,8.43,18.81,9.89,27.24,3.28,8.43-6.62,9.89-18.81,3.28-27.24-6.62-8.43-18.81-9.89-27.24-3.28Z"/>
        <path class="cls-15" d="M1308.12,1455.7c8.98,5.84,21,3.29,26.84-5.7,5.84-8.98,3.29-21-5.7-26.84-8.99-5.84-21-3.29-26.84,5.7-5.84,8.98-3.29,21,5.7,26.84Z"/>
        <path class="cls-15" d="M968.15,1484.89c7.86-7.28,8.34-19.55,1.06-27.42-7.28-7.86-19.55-8.34-27.41-1.06-7.86,7.28-8.34,19.55-1.06,27.41,7.28,7.86,19.55,8.34,27.42,1.06Z"/>
        <path class="cls-15" d="M882.78,1735.2c-1.77-10.57-11.77-17.7-22.34-15.93-10.57,1.77-17.7,11.77-15.93,22.34,1.77,10.57,11.77,17.7,22.34,15.93,10.57-1.77,17.7-11.77,15.93-22.34Z"/>
        <path class="cls-15" d="M860.33,1659.72c10.57,1.73,20.55-5.44,22.28-16.02h0c1.73-10.57-5.44-20.55-16.02-22.27-10.57-1.73-20.55,5.44-22.27,16.01h0c-1.73,10.57,5.44,20.55,16.02,22.28Z"/>
        <path class="cls-17" d="M1408.11,1688.92c0-138.75-112.48-251.24-251.24-251.24s-251.23,112.48-251.23,251.24,112.48,251.23,251.23,251.23,251.24-112.48,251.24-251.23Z"/>
        <g>
          <path class="cls-11" d="M2617.81,95.05l.04-.04c-.09-.04-.2-.05-.29-.09-3.72-1.46-7.58-2.62-11.59-3.39-.05,0-.1-.01-.16-.02-4.05-.76-8.22-1.17-12.5-1.16-.04,0-.08-.01-.12-.01l-307.06,2.11h0s-237.83,1.63-237.83,1.63c-24.97,1.22-52.29,8.52-78.21,20.64.04-.03.09-.07.13-.1-.26.12-.52.27-.78.39-4.09,1.92-8.14,3.96-12.14,6.11-.81.43-1.61.88-2.42,1.33-3.65,2.03-7.27,4.11-10.82,6.34-1.96,1.22-3.85,2.53-5.78,3.8-2.55,1.71-5.13,3.37-7.6,5.18-4.57,3.32-9.03,6.77-13.31,10.44l-532.8,400.61c-39.78,30.01-20.5,98.62,27.72,98.62h1181.31c2.61,0,5.17-.19,7.69-.49.79-.09,1.55-.24,2.33-.36,1.76-.27,3.49-.59,5.2-1,.84-.2,1.66-.41,2.48-.64,1.72-.48,3.4-1.04,5.05-1.65.67-.25,1.35-.47,2.01-.73,2.29-.93,4.53-1.96,6.68-3.14.05-.03.1-.06.15-.09,2.1-1.15,4.1-2.44,6.06-3.8.54-.38,1.06-.79,1.59-1.19,1.46-1.09,2.88-2.24,4.24-3.44.53-.47,1.05-.93,1.56-1.42,1.42-1.34,2.78-2.75,4.07-4.21.32-.36.66-.71.98-1.08,1.63-1.92,3.16-3.92,4.56-6.01-.1.01-.2,0-.3.02,7.06-10.47,11.37-22.93,11.37-36.51V156.07c0-27.75-17.24-51.38-41.52-61.02Z"/>
          <path class="cls-11" d="M3724.42,559.32l-309.38-414.7c-17.93-19.73-55.6-59.07-111.21-59.07l-26.85.19h0s-433.98,3.03-433.98,3.03c-4.19.03-8.27.48-12.27,1.18h0s0,0,0,0c-4.35.75-8.55,1.88-12.6,3.36-.03.01-.07.02-.1.04-3.54,1.29-6.91,2.92-10.17,4.71-7.9,4.33-14.96,9.99-20.77,16.8-.06.07-.12.13-.18.2-2.56,3.02-4.83,6.26-6.88,9.66-.24.4-.48.78-.72,1.18-1.9,3.29-3.55,6.74-4.94,10.32-.21.54-.4,1.09-.6,1.64-1.3,3.62-2.36,7.34-3.09,11.19-.09.47-.14.96-.22,1.43-.69,4.05-1.12,8.19-1.12,12.43v410.39c0,40.94,33.19,74.14,74.14,74.14h842.87c2.52,0,4.97-.21,7.35-.59,1.07-.17,2.06-.5,3.1-.74,1.25-.29,2.54-.53,3.74-.92,1.37-.45,2.66-1.05,3.97-1.62.77-.34,1.58-.61,2.33-.99,1.54-.77,2.98-1.69,4.42-2.62.43-.28.89-.52,1.31-.81,1.61-1.12,3.11-2.37,4.57-3.68.19-.17.4-.32.58-.49,1.58-1.46,3.04-3.03,4.43-4.68.04-.05.09-.09.13-.14,2.86-3.44,5.29-7.27,7.27-11.36,0-.02.02-.04.03-.06h0c8.64-17.95,8.41-41.02-5.15-59.41Z"/>
        </g>
        <path class="cls-13" d="M3905.69,673.64l-486.42-601.71c-3.49-4.32-9.83-4.99-14.16-1.5-4.32,3.49-4.99,9.83-1.5,14.15l482.15,596.43,14.24,495.23c.16,5.56,4.79,9.93,10.35,9.77,5.56-.16,9.93-4.79,9.77-10.35h0l-14.44-502.02Z"/>
        <path class="cls-16" d="M2578.65,728.27s.01.02.02.03c1.82,2.01,3.48,4.16,4.93,6.47.01.02.02.04.03.06,1.41,2.26,2.66,4.63,3.66,7.13.26.65.4,1.36.63,2.03.67,1.94,1.36,3.87,1.76,5.93.56,2.83.89,5.74.89,8.72,0,24.99-20.46,45.44-45.45,45.44h-181.75c-2.59,0-5.1-.35-7.58-.77-.93-.16-1.85-.32-2.77-.54-1.54-.36-3.01-.89-4.49-1.4-1.94-.68-3.8-1.48-5.61-2.41,8.69,14.77,24.59,24.85,42.88,24.85h172.79c27.46,0,49.92-22.46,49.92-49.92,0-20.32-12.34-37.84-29.86-45.61Z"/>
        <path class="cls-14" d="M2589.69,749.91c-.4-2.05-1.09-3.98-1.76-5.93-.23-.67-.37-1.38-.63-2.03-1-2.5-2.25-4.87-3.66-7.13-.01-.02-.02-.04-.03-.06-1.45-2.32-3.1-4.46-4.93-6.47-8.33-9.19-20.23-15.1-33.54-15.1h-181.75c-24.99,0-45.44,20.45-45.44,45.44,0,17.61,10.25,32.78,24.98,40.32,1.81.93,3.67,1.73,5.61,2.41,1.48.52,2.95,1.04,4.49,1.4.92.22,1.84.38,2.77.54,2.48.42,4.99.77,7.58.77h181.75c24.99,0,45.45-20.44,45.45-45.44,0-2.99-.33-5.89-.89-8.72Z"/>
        <path class="cls-8" d="M2379.53,756.24h165.01c7.9,0,14.35-6.45,14.35-14.34s-6.45-14.35-14.35-14.35h-165.01c-7.9,0-14.35,6.45-14.35,14.35s6.45,14.34,14.35,14.34Z"/>
        <path class="cls-16" d="M3681.12,728.26c7.33,8.08,11.93,18.67,11.93,30.37,0,24.99-20.44,45.44-45.44,45.44h-181.75c-7.39,0-14.28-1.96-20.47-5.12,8.69,14.77,24.6,24.85,42.89,24.85h172.79c27.46,0,49.91-22.46,49.91-49.92,0-20.32-12.33-37.85-29.86-45.62Z"/>
        <path class="cls-14" d="M3681.12,728.26c-8.33-9.18-20.22-15.07-33.51-15.07h-181.75c-24.99,0-45.43,20.45-45.43,45.44,0,17.6,10.24,32.77,24.97,40.31,6.18,3.17,13.08,5.12,20.47,5.12h181.75c24.99,0,45.44-20.44,45.44-45.44,0-11.7-4.6-22.3-11.93-30.37Z"/>
        <path class="cls-8" d="M3482,756.24h165.01c7.9,0,14.35-6.45,14.35-14.34s-6.45-14.35-14.35-14.35h-165.01c-7.9,0-14.35,6.45-14.35,14.35s6.45,14.34,14.35,14.34Z"/>
        <path class="cls-2" d="M548.84,870.75c-39.46-38.97-283.39-7.79-344.38,38.97-60.98,46.77-78.92,137.7-50.21,155.88,56.17,35.6,326.43,20.78,358.71-5.2,32.29-25.98,75.33-150.69,35.88-189.65Z"/>
        <path class="cls-13" d="M469.92,881.8c-31.7,0-57.4,25.7-57.4,57.4s25.7,57.4,57.4,57.4,57.39-25.7,57.39-57.4-25.69-57.4-57.39-57.4Z"/>
        <path class="cls-1" d="M2287.03,618.73l-31.63,28.7h338.2c2.61,0,5.17-.19,7.69-.49.79-.09,1.55-.24,2.33-.36,1.76-.27,3.49-.59,5.2-1,.84-.2,1.66-.41,2.48-.64,1.72-.48,3.4-1.04,5.05-1.65.67-.25,1.35-.47,2.01-.73,2.29-.93,4.53-1.96,6.68-3.14.05-.03.1-.06.15-.09,2.1-1.15,4.1-2.44,6.06-3.8.54-.38,1.06-.79,1.59-1.19,1.46-1.09,2.88-2.24,4.24-3.44.53-.47,1.05-.93,1.56-1.42,1.42-1.34,2.78-2.75,4.07-4.21.32-.36.66-.71.98-1.08,1.63-1.92,3.16-3.92,4.56-6.01-.1.01-.2,0-.3.02-2.53.31-5.1.52-7.73.52h-353.2Z"/>
        <path class="cls-1" d="M1458.93,618.73c-48.23,0-67.51-68.61-27.72-98.62L1964.01,119.51c1.94-1.67,4.06-3.17,6.09-4.77.04-.03.09-.07.13-.1-.26.12-.52.27-.78.39-4.09,1.92-8.14,3.96-12.14,6.11-.81.43-1.61.88-2.42,1.33-3.65,2.03-7.27,4.11-10.82,6.34-1.96,1.22-3.85,2.53-5.78,3.8-2.55,1.71-5.13,3.37-7.6,5.18-4.57,3.32-9.03,6.77-13.31,10.44l-532.8,400.61c-39.78,30.01-20.5,98.62,27.72,98.62h262.2l31.62-28.7h-247.19Z"/>
        <polygon class="cls-1" points="2040.67 618.73 2009.04 647.43 2121.67 647.43 2153.3 618.73 2040.67 618.73"/>
        <path class="cls-1" d="M3238.85,647.43h447.5c2.52,0,4.97-.21,7.35-.59,1.07-.17,2.06-.5,3.1-.74,1.25-.29,2.54-.53,3.74-.92,1.37-.45,2.66-1.05,3.97-1.62.77-.34,1.58-.61,2.33-.99,1.54-.77,2.98-1.69,4.42-2.62.43-.28.89-.52,1.31-.81,1.61-1.12,3.11-2.37,4.57-3.68.19-.17.4-.32.58-.49,1.58-1.46,3.04-3.03,4.43-4.68.04-.05.09-.09.13-.14,2.86-3.44,5.29-7.27,7.27-11.36,0-.02.02-.04.03-.06h-459.1l-31.63,28.7Z"/>
        <polygon class="cls-1" points="3024.1 618.73 2992.47 647.43 3105.11 647.43 3136.73 618.73 3024.1 618.73"/>
        <path class="cls-1" d="M2815.97,134.21c0-16.61,5.52-31.89,14.76-44.26h0s0,0,0,0c-4.35.75-8.55,1.88-12.6,3.36-.03.01-.07.02-.1.04-3.54,1.29-6.91,2.92-10.17,4.71-7.9,4.34-14.96,10-20.77,16.8-.06.07-.12.13-.18.2-2.56,3.02-4.83,6.26-6.88,9.66-.24.4-.48.78-.72,1.18-1.9,3.29-3.55,6.74-4.94,10.32-.21.54-.4,1.09-.6,1.64-1.3,3.62-2.36,7.34-3.09,11.19-.09.47-.14.96-.22,1.43-.69,4.05-1.12,8.19-1.12,12.43v383.44l46.63-42.32V134.21Z"/>
        <path class="cls-7" d="M2040.67,618.73L2617.81,95.05l.04-.04c-.09-.04-.2-.05-.29-.09-3.72-1.46-7.58-2.62-11.59-3.39-.05,0-.1-.01-.16-.02-4.05-.76-8.22-1.17-12.5-1.16-.04,0-.08-.01-.12-.01l-307.06,2.11h0s-580,526.27-580,526.27h334.54Z"/>
        <polygon class="cls-7" points="2287.03 618.73 2659.33 280.93 2659.33 159.58 2153.3 618.73 2287.03 618.73"/>
        <path class="cls-7" d="M2815.97,544.59c0,40.95,33.19,74.14,74.14,74.14h133.99l444.05-402.91-53.11-71.2c-17.93-19.73-55.6-59.07-111.21-59.07l-26.85.19h0s-461,418.3-461,418.3v40.56Z"/>
        <polygon class="cls-7" points="3567.6 349.12 3513.62 276.76 3136.74 618.73 3270.48 618.73 3567.6 349.12"/>
        <path class="cls-11" d="M2890.11,618.73c-40.95,0-74.14-33.19-74.14-74.14v-40.56l-46.63,42.32v26.94c0,40.94,33.19,74.14,74.14,74.14h148.99l31.63-28.7h-133.99Z"/>
        <polygon class="cls-11" points="3136.73 618.73 3105.11 647.43 3238.85 647.43 3270.48 618.73 3136.73 618.73"/>
        <polygon class="cls-11" points="1706.12 618.73 1674.5 647.43 2009.04 647.43 2040.67 618.73 1706.12 618.73"/>
        <polygon class="cls-11" points="2153.3 618.73 2121.67 647.43 2255.4 647.43 2287.03 618.73 2153.3 618.73"/>
      </g>
    </g>
    <g>
      <path class="cls-4" d="M2482.14,565.57c48.86-39.66,110.38-57.9,172.93-51.24,58.74,6.12,191.59,43.78,312.3,96.04,19.38,8.42,37.6,16.79,54.54,25.04l-7.54.52-.36.02-.36.02c-27.28,2.48-51.12,15.35-67.65,34.55-1.38-.57-2.57-1.15-3.95-1.71-113.55-49.16-240.76-85.64-293.62-91.2-45.62-4.81-90.52,8.46-126.26,37.35-35.82,28.99-58.04,70.07-62.93,115.78-5.86,56.39,16.33,109.45,55.31,145.1,26.2,23.96,59.99,40.02,97.83,44.1,53.95,5.7,186.38-2.2,306.27-24.86,2.32-.46,4.64-.93,6.78-1.39,4.47-.74,8.67-1.56,12.77-2.46,4.28-.91,8.48-1.73,12.59-2.63,37.57-8.07,67.99-16.64,92.48-25.12,4.35-1.55,8.6-3,12.59-4.53,4.51-1.73,8.85-3.46,12.83-5.17,46.7-19.38,63.27-37.69,64.49-48.65.7-6.43-3.2-15.17-11.02-24.91,23.84-8.9,51.16-6.34,73.24,7.99,1.53,7.95,1.87,15.68,1.05,23.56-4.22,40.64-39.11,74.45-105.72,101.84-4.07,1.62-8.23,3.34-12.57,4.89-4.07,1.62-8.24,3.16-12.68,4.62-31.66,11.24-69.41,21.21-112.98,30.19-4.02.81-8.3,1.72-12.59,2.45-3.03.67-6.34,1.27-9.46,1.86-1.07.23-2.06.36-3.13.59-126.33,23.66-262.39,31.18-321.58,25-62.28-6.59-118.77-37.03-158.53-86.16-39.58-48.95-57.81-110.3-51.24-172.93,6.57-62.63,37.21-118.96,86.16-158.53Z"/>
      <path class="cls-5" d="M3078.1,936.86c43.96,40.2,112.11,37.15,152.31-6.81s37.15-112.11-6.81-152.31c-7.33-6.7-15.32-12.11-23.79-16.42-2.96-1.67-6.08-2.97-9.2-4.27-3.03-1.22-6.14-2.34-9.24-3.1-25.84-7.77-53.93-5.34-78.26,6.74-2.03.9-4.06,1.98-5.98,3.15-2.02,1.08-3.86,2.34-5.69,3.59-7.27,4.74-14.04,10.45-20.14,17.12-17.18,18.79-26.42,41.9-28.07,65.4-23.59,8.44-54.01,17.19-92.81,25.68l-3.93-138.29c-.05-17.11,5.64-32.95,15.25-45.73,1.27-1.77,2.72-3.54,4.18-5.14,1.55-1.69,3.1-3.2,4.74-4.8,12.02-11.26,27.63-18.71,45.31-20.31l49.5-3.02,11.5-.7,11.14-.68,398.64-24.39c20.76-1.2,40.98,5.92,56.29,19.92l1029.63,941.55c31.09,28.43,33.25,76.8,4.82,107.89l-455.23,497.81c-28.51,31.18-76.8,33.25-107.89,4.82l-1029.63-941.55c-15.31-14-24.2-33.51-24.94-54.2l-6.88-242.75c47.14-9.49,87.65-20.4,121.51-32.73,1.13,1.21,2.45,2.41,3.67,3.53Z"/>
    </g>
    <text class="cls-3" transform="translate(3231.95 1091.13) rotate(42.78)"><tspan x="0" y="0">FOR SALE</tspan></text>
  </g>
</svg>