<?xml version="1.0" encoding="UTF-8"?>
<svg id="Layer_2" data-name="Layer 2" xmlns="http://www.w3.org/2000/svg" viewBox="0 0 2851.28 1791.03">
  <defs>
    <style>
      .cls-1 {
        fill: #bdc3ae;
      }

      .cls-2 {
        fill: #c45d41;
      }

      .cls-3 {
        fill: #e68e49;
      }

      .cls-4 {
        fill: #f1f7d1;
      }

      .cls-5 {
        fill: #f4aa42;
      }

      .cls-6 {
        fill: #bd4c35;
      }

      .cls-7 {
        fill: #bf4d41;
      }

      .cls-8 {
        fill: #bc5231;
      }

      .cls-9 {
        fill: #bb4930;
      }

      .cls-10 {
        fill: #b35d43;
      }

      .cls-11 {
        fill: #a8442b;
      }

      .cls-12 {
        opacity: .2;
      }

      .cls-13 {
        fill: #8f3122;
      }

      .cls-14 {
        fill: #e6bc7d;
      }

      .cls-15 {
        fill: #eaaa5f;
      }

      .cls-16 {
        fill: #e78f4a;
      }

      .cls-17 {
        fill: #bb4937;
      }

      .cls-18 {
        fill: #bd4830;
      }
    </style>
  </defs>
  <g class="cls-12">
    <ellipse cx="1425.64" cy="1658.05" rx="1425.64" ry="132.98"/>
  </g>
  <ellipse class="cls-4" cx="1425.64" cy="1589.52" rx="1311.18" ry="132.98"/>
  <ellipse class="cls-1" cx="1425.64" cy="1573.48" rx="1152.02" ry="68.53"/>
  <g>
    <path class="cls-17" d="M347.34,1372.52c.87,7.36,1.98,14.12,3.06,19.93,8.23,44.19-64.62,60.12-92.09,27.68-27.47-32.46-11.94-111.29,35.83-141.15-69.59,15.08-99.77,182.71-20.5,197.06,12.66-3.34,24.85-8.58,35.81-15.82,49.59-32.76,103.32,27.89,154.03,42.02-49.86-30.27-89.95-71.77-116.15-129.72Z"/>
    <path class="cls-15" d="M294.14,1278.98c-47.78,29.86-63.3,108.69-35.83,141.15,27.47,32.45,100.32,16.51,92.09-27.68-1.08-5.81-2.19-12.57-3.06-19.93-18.78-41.54-30.42-91.53-33.41-151.91-15.1,2.01-29.24,5.42-42.39,10.02-21.53,7.51-40.44,18.15-56.7,30.81-36.78,28.63-59.98,67.57-69.12,104.01-.2.73-.38,1.45-.53,2.18,13.24,66.42,49.23,110.02,122.86,109.75,1.87-.39,3.73-.84,5.59-1.33-79.26-14.35-49.09-181.98,20.5-197.06Z"/>
    <path class="cls-8" d="M145.19,1367.63c-2.62,11.04-3.93,21.81-3.93,31.98,0,62.29,67.33,90.67,126.79,77.76-73.64.28-109.63-43.32-122.86-109.75Z"/>
    <path class="cls-14" d="M271.54,1230.63c-62.86-24.42-127.44,13.28-145.65,67.81,26.92-24.07,61.88-33.48,88.95-37.01,16.26-12.65,35.17-23.3,56.7-30.81Z"/>
    <path class="cls-8" d="M214.84,1261.44c-27.07,3.52-62.03,12.94-88.95,37.01-2.78,8.3-4.48,17-4.94,25.92-1.28,25.3,9.9,36.77,24.77,41.08,9.14-36.44,32.34-75.38,69.12-104.01Z"/>
    <path class="cls-9" d="M2302.7,762.45c-8.07-1.62-15.92-2.59-23.45-2.92-119.24-5.26-179.32,115.16-180.22,117.01,1.29-1.65,105.19-134.26,256.2-65.77,151.95,68.92,213.8,369.29-77.74,515.96-291.55,146.65-466.48,72.44-496.52-116.63-30.04-189.06,141.36-197.89,120.16-374.59-3.22-26.8-2.98-50.9.16-72.65-49.47,83.32-51.55,173.77-123.57,256.8-6.05,6.98-12.6,13.9-19.71,20.77-56.04,54.09-84.72,161.24-51.05,265.74,26.83,83.32,93.3,164.95,217.15,216.69,273.28,114.17,451.68.41,460.57-5.46.19-.13.31-.21.34-.23,76.63-52.15,128.98-137.24,154.94-274.63,54.86-290.32-116.59-456.08-237.24-480.08Z"/>
    <path class="cls-3" d="M2129.05,566.94c-60.98,16.14-124.25,39.57-168.99,81.82-10.33,9.75-19.66,20.51-27.77,32.42-4.84,7.11-9.22,14.62-13.11,22.56-8.57,17.48-14.73,37.08-17.91,59.12-3.14,21.75-3.38,45.85-.16,72.65,21.2,176.7-150.2,185.53-120.16,374.59,30.04,189.07,204.97,263.28,496.52,116.63,291.54-146.66,229.7-447.04,77.74-515.96-151.02-68.48-254.91,64.12-256.2,65.77.91-1.85,60.98-122.27,180.22-117.01,7.53.34,15.38,1.3,23.45,2.92,28.4-57.53,17.99-151.66,24.25-209.65,7.07-65.39,123.68-174.93,153.72-231.47,30.04-56.54-51.24-47.71-65.38-107.78-14.14-60.08-58.31-143.13-90.11-148.43-17.94-2.99-44.85,37.85-65.87,93.67-16.27,43.18-29,95.33-31.32,143.11-5.3,109.55,21.21,233.24-98.95,265.05Z"/>
    <path class="cls-13" d="M1924.09,1522.86c-123.85-51.73-190.32-133.37-217.15-216.69-40.31-27.6-170.48-109.35-422.49-203.85-41.02-15.38-79.77-26.68-115.99-34.15-.04,0-.09-.02-.13-.03-238.31-49.18-367.4,66.64-316.78,268.35,31.55-249.17,196.13-280.11,507.11-161.73,80.3,30.57,144.81,61.14,195.24,91.41,144.89,86.94,173.53,171.37,126.35,246.08-63.61,100.72-243.84,109.56-660.84,5.3-108.02-27.01-207.72-60.41-296.13-97.4,72.46,65.01,173.18,135.31,267.69,172.34,321.73,8.66,779.56,3.69,995.33,3.69,168.08,0,302.27-13.56,398.36-78.79-8.89,5.87-187.29,119.63-460.57,5.46Z"/>
    <path class="cls-11" d="M2173.22,471.52c-45.26,70.24-174.63,75.68-235.86,135.67,8.21,13.64,15.79,27.53,22.69,41.58,44.75-42.25,108.01-65.68,168.99-81.82,120.16-31.8,93.65-155.5,98.95-265.05,2.32-47.78,15.05-99.93,31.32-143.11-8.65-10.23-19.07-18.15-28.34-26.74-68.66,113.56-11.02,266.94-57.76,339.47Z"/>
    <path class="cls-10" d="M2173.22,471.52c46.74-72.53-10.91-225.92,57.76-339.47-12.89-11.92-23.57-25.12-24.18-47.49-1.77-63.61-132.52-125.45-114.85-49.47,17.67,75.98,38.34,320.3-24.74,383.43-61.27,61.33-128.25,98.78-177.85,120.47,17.68,21.66,33.79,44.56,48,68.21,61.23-59.99,190.6-65.42,235.86-135.67Z"/>
    <path class="cls-2" d="M1736.92,571.89c82.9,32.67,150.31,73.9,195.37,109.28,8.1-11.9,17.44-22.66,27.77-32.42-6.9-14.05-14.48-27.93-22.69-41.58-14.21-23.65-30.32-46.55-48-68.21-144.45-176.97-394.2-271.18-582.63-12.49,161.64-30.46,311.73-1.27,430.2,45.41Z"/>
    <path class="cls-9" d="M1919.18,703.74c3.89-7.95,8.27-15.46,13.11-22.56-45.06-35.38-112.47-76.61-195.37-109.28-118.47-46.68-268.56-75.87-430.2-45.41,169.91,2.78,334.58,32.49,467.89,91.39,53.89,23.8,102.65,52.38,144.56,85.87Z"/>
    <path class="cls-16" d="M1237.6,1507.82c289.02,60.36,397.57,39.88,401.24-68.05,2.24-66.13-36.27-127.3-84.94-173.6-50.43-30.26-114.94-60.83-195.24-91.41-310.99-118.38-475.56-87.45-507.11,161.73-50.62-201.71,78.47-317.53,316.78-268.35.04,0,.09.02.13.03,132.2,25.15,454.15,4.17,609.25-48.51,72.03-83.03,74.1-173.48,123.57-256.8,3.18-22.04,9.34-41.64,17.91-59.12-41.91-33.49-90.67-62.07-144.56-85.87,57.8,88.26-21.13,134.96-336.45,159.33-365.76,28.27-496.51,53.01-807.5,197.9-156.2,72.77-245.53,75.12-279.64,38.82-14.92,35.12-25.52,70.4-31.63,105.18,6.09,17.85,16.53,36.51,31.01,55.66,336.58,177.57,598.16,272.69,887.18,333.06Z"/>
    <path class="cls-5" d="M630.67,975.1c310.99-144.9,441.74-169.63,807.5-197.9,315.32-24.37,394.26-71.07,336.45-159.33-133.32-58.9-297.99-88.6-467.89-91.39h0c-47.23-.77-94.88.54-142.36,3.88-431.92,30.39-715.61,253.54-813.33,483.56,34.11,36.3,123.45,33.95,279.64-38.82Z"/>
    <path class="cls-6" d="M1168.45,1068.17c36.23,7.47,74.97,18.77,115.99,34.15,252.01,94.49,382.17,176.25,422.49,203.85-33.67-104.49-4.98-211.64,51.05-265.74,7.12-6.87,13.66-13.79,19.71-20.77-155.09,52.67-477.04,73.66-609.25,48.51Z"/>
    <path class="cls-7" d="M1638.83,1439.77c-3.66,107.93-112.21,128.41-401.24,68.05-289.02-60.37-550.6-155.49-887.18-333.06,61.05,80.81,193.72,170.45,372.86,245.39,88.4,36.99,188.11,70.39,296.13,97.4,417,104.26,597.23,95.42,660.84-5.3,47.18-74.71,18.54-159.14-126.35-246.08,48.67,46.3,87.18,107.48,84.94,173.6Z"/>
    <path class="cls-18" d="M350.41,1174.76c-14.48-19.15-24.92-37.82-31.01-55.66-4.15,23.56-6.24,46.89-6.24,69.78,0,10.89.26,21.46.77,31.73,2.99,60.38,14.63,110.37,33.41,151.91,26.2,57.95,66.28,99.45,116.15,129.72,63.65,38.64,143.21,59.01,230.16,72,60.81,9.08,168.08,14.77,297.32,18.25-94.51-37.03-195.23-107.33-267.69-172.34-179.14-74.94-311.8-164.58-372.86-245.39Z"/>
  </g>
</svg>