<?xml version="1.0" encoding="UTF-8"?>
<svg id="Calque_2" data-name="Calque 2" xmlns="http://www.w3.org/2000/svg" viewBox="0 0 346.28 1422.08">
  <defs>
    <style>
      .cls-1 {
        fill: #2f2f2f;
      }

      .cls-1, .cls-2, .cls-3, .cls-4, .cls-5, .cls-6, .cls-7, .cls-8, .cls-9, .cls-10 {
        fill-rule: evenodd;
      }

      .cls-2 {
        fill: #604739;
      }

      .cls-11, .cls-7 {
        fill: #ffd6a3;
      }

      .cls-3 {
        fill: #5a5a5a;
      }

      .cls-4 {
        fill: #e7f0f1;
      }

      .cls-5 {
        fill: #c8d9db;
      }

      .cls-6 {
        fill: #383838;
      }

      .cls-8 {
        fill: #432e29;
      }

      .cls-9 {
        fill: #474747;
      }

      .cls-10 {
        fill: #4a6882;
      }
    </style>
  </defs>
  <g id="Layer_1" data-name="Layer 1">
    <path class="cls-2" d="M173.05.47c5.11.28,34.22.65,57.14,19.47,8.14,6.69,13.21,14.76,20.39,24.64,10.98,15.12,16.7,20,18.76,25.75,4.68,13.09,2.73,24.8,2.17,34.48-.99,17.3-5.22,36.74-14.68,54.82-21.97,42.03-44.52,45.72-83.78,52.21-39.26-6.49-61.72-16.63-83.69-58.67-9.63-18.43-4.64-24.59-14.38-43.07-5.53-10.49-.93-37.55,3.87-50.13,9.61-25.14,21.22-26.25,32.81-35.77,8.58-7.04,20.62-16.93,28.77-20.43,13.64-5.84,29.42-3.14,32.62-3.32Z"/>
    <path class="cls-7" d="M252.83,81.59s-5.21,57.71-8.21,90.93c-1.3,14.43-9.16,27.45-21.31,35.31-9.31,6.03-20.47,13.25-29.83,19.31-11.94,7.73-27.3,7.73-39.24,0-9.36-6.07-20.52-13.28-29.83-19.31-12.15-7.87-20.01-20.88-21.31-35.31-3-33.21-8.21-90.93-8.21-90.93l100.42-42.05,57.53,42.05Z"/>
    <path class="cls-7" d="M251.51,113.94c4.81-1.61,10.1-.67,14.08,2.49,3.97,3.14,6.09,8.08,5.64,13.12-.08.86-.15,1.71-.23,2.58-1.05,11.73-9.3,21.57-20.68,24.66-5.16,1.39-9.35,2.54-9.35,2.54l3.88-43.18s2.82-.94,6.67-2.2Z"/>
    <path class="cls-7" d="M96.2,113.94c-4.81-1.61-10.1-.67-14.08,2.49-3.97,3.14-6.09,8.08-5.64,13.12.08.86.15,1.71.23,2.58,1.05,11.73,9.3,21.57,20.68,24.66,5.16,1.39,9.35,2.54,9.35,2.54l-3.88-43.18s-2.82-.94-6.67-2.2Z"/>
    <path class="cls-2" d="M210.42,64.57c-10.37-3.28-25.18,13.21-41.84,11.32-21.59-2.43-26.56,12.81-39.63,19.63-18.39,9.6-29.42,2.4-23.78,46.18-10.46-18.49-22.1-36.87-14.23-63.46,12.87-43.5,45.25-65.95,97.57-60.5,47.23,4.9,77.34,58.72,72.59,78.99-4.46,19.03-12.93,36.57-18.55,44.96,1.13-22.21,3.07-28.88-10.5-47.08-11.53-15.47-11.24-26.76-21.62-30.04Z"/>
    <path class="cls-7" d="M335.93,764.01c.68,14.96-2.91,31.77-7.31,47.17-.69,2.42-1.71,4.73-3.02,6.88-5.26,8.59-19.52,31.86-19.52,31.86,0,0-2.2,1.18-4.82,2.59-1.64.88-3.63.78-5.17-.26-1.53-1.06-2.35-2.88-2.12-4.73.93-7.37,2.11-16.81,2.48-19.76.08-.62.13-1.22.16-1.83.2-4.07.99-20.48,1.22-25.31.04-.9.05-1.8.01-2.7-.25-6.46-1.31-33.9-1.31-33.9h39.4Z"/>
    <path class="cls-9" d="M278.89,330.39l2.83,441.25h57.36s4.18-200.2,4.81-230.54c.05-2.54.02-5.1-.09-7.66-1.29-28.22-9.27-203.06-9.27-203.06h-55.64Z"/>
    <path class="cls-7" d="M8.92,764.01c-.68,14.96,2.91,31.77,7.31,47.17.69,2.42,1.71,4.73,3.03,6.88,3.78,6.17,12.23,19.95,16.67,27.2,1.87,3.05,4.51,5.54,7.66,7.25h0c1.64.88,3.63.78,5.17-.26,1.54-1.06,2.35-2.88,2.12-4.73-.93-7.37-2.11-16.81-2.48-19.76-.08-.62-.13-1.22-.16-1.83-.2-4.07-.99-20.48-1.22-25.31-.04-.9-.05-1.8-.01-2.7.25-6.46,1.31-33.9,1.31-33.9H8.92Z"/>
    <path class="cls-9" d="M65.97,330.39l-2.83,441.25H5.77S1.59,571.44.96,541.1c-.05-2.54-.02-5.1.1-7.66,1.29-28.22,9.27-203.06,9.27-203.06h55.64Z"/>
    <polygon class="cls-6" points="300.55 745.31 299.41 796.46 47.06 796.46 45.73 745.31 300.55 745.31"/>
    <polygon class="cls-4" points="271.12 261.39 172.42 559.11 73.78 261.53 173.23 233.97 271.12 261.39"/>
    <rect class="cls-11" x="136.4" y="188.08" width="73.66" height="64.84"/>
    <path class="cls-8" d="M85.45,1359.74s-46.32,19.1-70.81,29.19c-8.93,3.68-14.72,12.41-14.65,22.06.05,5.86.09,11.09.09,11.09h166.7v-62.35h-81.33Z"/>
    <path class="cls-8" d="M260.82,1359.74s46.32,19.1,70.81,29.19c8.93,3.68,14.72,12.41,14.65,22.06-.05,5.86-.09,11.09-.09,11.09h-166.7v-62.35h81.33Z"/>
    <polygon class="cls-6" points="171.14 745.31 169.54 1360.35 79.48 1360.35 47.06 796.46 45.73 745.31 171.14 745.31"/>
    <polygon class="cls-6" points="175.14 745.31 176.74 1360.35 266.8 1360.35 299.22 796.46 300.55 745.31 175.14 745.31"/>
    <polygon class="cls-10" points="155.83 262.41 190.45 262.41 181.8 295.89 164.48 295.89 155.83 262.41"/>
    <polygon class="cls-10" points="200.74 504.43 145.54 504.43 165.32 295.89 180.95 295.89 200.74 504.43"/>
    <polygon class="cls-5" points="173.14 252.97 159.63 283.26 117.03 249.55 129.12 228.45 173.14 252.97"/>
    <polygon class="cls-5" points="173.14 252.97 186.65 283.26 229.25 249.55 217.16 228.45 173.14 252.97"/>
    <path class="cls-9" d="M45.73,745.31l-4.91-189.25-29.87-211.97c-5.06-35.88,17.27-69.94,52.19-79.62l49.21-13.63,60.89,233.06,60.67-232.94,48.01,13.46c34.72,9.72,56.93,43.59,52.03,79.3l-29.16,212.34-4.23,189.25H45.73Z"/>
    <path class="cls-1" d="M172.96,521.21c5.36,0,9.72,4.36,9.72,9.72s-4.36,9.72-9.72,9.72-9.72-4.36-9.72-9.72,4.35-9.72,9.72-9.72Z"/>
    <path class="cls-1" d="M172.96,619.95c5.36,0,9.72,4.36,9.72,9.72s-4.36,9.72-9.72,9.72-9.72-4.36-9.72-9.72,4.35-9.72,9.72-9.72Z"/>
    <polygon class="cls-3" points="95.31 255.56 81.09 305.69 114.08 334.83 92.19 377.29 173.23 483.9 112.34 250.84 95.31 255.56"/>
    <polygon class="cls-3" points="251.15 255.56 265.38 305.69 232.39 334.83 254.27 377.29 173.23 483.9 234.12 250.84 251.15 255.56"/>
  </g>
</svg>