<?xml version="1.0" encoding="UTF-8"?>
<svg id="Calque_2" data-name="Calque 2" xmlns="http://www.w3.org/2000/svg" viewBox="0 0 321.78 1410.61">
  <defs>
    <style>
      .cls-1 {
        fill: #404547;
      }

      .cls-1, .cls-2, .cls-3, .cls-4, .cls-5, .cls-6, .cls-7 {
        fill-rule: evenodd;
      }

      .cls-8, .cls-7 {
        fill: #ffd6a3;
      }

      .cls-2 {
        fill: #8d6b54;
      }

      .cls-3 {
        fill: #75868f;
      }

      .cls-4 {
        fill: #91a2ac;
      }

      .cls-5 {
        fill: #7d4c33;
      }

      .cls-6 {
        fill: #e7f0f1;
      }
    </style>
  </defs>
  <g id="Layer_1" data-name="Layer 1">
    <g>
      <path class="cls-7" d="M318.02,695.96c.68,14.95-2.92,31.77-7.32,47.17-.69,2.42-1.71,4.73-3.03,6.87-3.78,6.19-12.23,19.96-16.67,27.2-1.87,3.05-4.52,5.55-7.67,7.25,0,0,0,0,0,0-1.64.88-3.63.78-5.17-.27-1.54-1.05-2.35-2.87-2.12-4.72.93-7.38,2.11-16.82,2.48-19.76.08-.61.13-1.23.16-1.84.2-4.08.99-20.48,1.22-25.31.04-.9.05-1.8.01-2.7-.25-6.46-1.31-33.89-1.31-33.89h39.4Z"/>
      <path class="cls-3" d="M246.52,323.3l17.28,380.3h57.36c.2-38.37.29-156.93.6-187.42.02-1.57.02-5.11-.1-7.66-1.29-28.23-18.27-176.8-19.76-188.02l-55.39,2.8Z"/>
      <path class="cls-7" d="M3.76,689.18c-.68,14.95,2.92,31.77,7.32,47.16.69,2.42,1.71,4.73,3.02,6.87,3.78,6.19,12.23,19.95,16.67,27.2,1.87,3.05,4.52,5.55,7.67,7.25,0,0,0,0,0,0,1.64.88,3.63.78,5.17-.27,1.54-1.05,2.35-2.87,2.12-4.72-.93-7.38-2.11-16.82-2.48-19.76-.08-.61-.13-1.22-.16-1.84-.2-4.08-.99-20.48-1.22-25.31-.04-.9-.05-1.8-.01-2.7.25-6.46,1.31-33.89,1.31-33.89H3.76Z"/>
      <path class="cls-3" d="M75.25,316.51l-17.28,380.29H.61c-.2-38.37-.29-156.93-.61-187.41-.02-1.57-.02-5.11.1-7.66,1.29-28.23,18.27-176.8,19.76-188.02l55.39,2.8Z"/>
      <polygon class="cls-6" points="252.15 251.7 160.66 499.42 69.22 251.81 161.37 222.5 252.15 251.7"/>
      <path class="cls-5" d="M166.27,1.42c5.24-1.59,25.81-.74,48.74,18.09,8.13,6.68,15.38,10.56,23.23,19.91,12.11,14.44,20.11,34.06,20.09,44.95-.06,27.86,11.68,44.53-2.28,80.94-12.08,31.5-7.82,36.42-16.25,59.92-8.39,23.37,8.74,31.25-1.35,45.64-20.22,28.83-51.86,20.94-75.47,20.94-25.32,0-72.26,11.87-81.56-21.67-2.21-7.98,14.18-23.94,3.15-49.93-5.68-13.39-5.03-24.9-12.09-50.76-3.18-11.65-12.13-29.44-12.06-44.88.05-11.84,3.61-45.41,10.82-61.95,10.75-24.67,16.45-30.54,28.05-40.06,8.58-7.05,18.51-14.31,26.67-17.8,13.64-5.84,36.64-5.44,40.32-3.33Z"/>
      <polygon class="cls-6" points="69.22 251.81 161.37 222.5 252.15 251.7 160.66 499.42 69.22 251.81"/>
      <path class="cls-3" d="M232.97,245.53l23.06,7.42c30.24,9.73,49.59,43.59,45.32,79.31l-40.99,212.34,15.97,120.25H45.88l15.74-120.25-41.61-211.97c-4.4-35.88,15.05-69.94,45.46-79.62l22.96-7.3,72.24,214.8,72.31-214.97Z"/>
      <polygon class="cls-4" points="88.43 245.7 160.66 460.5 85.49 353.61 95.2 322.15 69.51 295.95 80.23 248.31 88.43 245.7"/>
      <polygon class="cls-4" points="232.9 245.7 160.66 460.5 235.84 353.61 226.14 322.15 251.82 295.95 241.11 248.31 232.9 245.7"/>
      <polygon class="cls-2" points="158.75 1369.52 152.97 1410.61 144.36 1410.61 137.29 1389.4 114.39 1410.61 35.42 1410.61 104.1 1338.45 151.89 1338.45 158.75 1369.52"/>
      <polygon class="cls-2" points="162.58 1369.52 168.37 1410.61 176.97 1410.61 184.04 1389.4 206.94 1410.61 285.91 1410.61 217.23 1338.45 169.44 1338.45 162.58 1369.52"/>
      <path class="cls-7" d="M104.1,1338.45l-34.18-383.6h86.22l-4.25,383.6-43.35,35.54c-5.57,4.57-12.55,7.06-19.76,7.06h-25.23l40.54-42.6Z"/>
      <path class="cls-7" d="M217.23,1338.45l34.18-383.6h-86.22l4.25,383.6,43.35,35.54c5.57,4.57,12.55,7.06,19.76,7.06h25.23l-40.54-42.6Z"/>
      <rect class="cls-8" x="129.2" y="176.61" width="62.93" height="64.84"/>
      <path class="cls-7" d="M236.64,88.91s-4.96,43.45-7.81,76.67c-1.24,14.42-8.72,22.91-20.29,30.78-8.86,6.03-19.48,13.25-28.39,19.31-11.36,7.73-25.99,7.73-37.35,0-8.91-6.06-19.53-13.29-28.39-19.31-11.57-7.87-19.05-16.36-20.29-30.78-2.86-33.21-7.81-76.67-7.81-76.67l95.58-42.06,54.76,42.06Z"/>
      <path class="cls-7" d="M239.12,102.46c4.81-1.59,10.1-.66,14.08,2.49,3.97,3.15,6.09,8.08,5.64,13.13-.08.86-.15,1.71-.23,2.56-1.05,11.74-9.3,21.58-20.68,24.67-5.16,1.4-9.35,2.54-9.35,2.54l3.88-43.18s2.82-.93,6.67-2.21Z"/>
      <path class="cls-7" d="M83.82,102.46c-4.81-1.59-10.1-.66-14.07,2.49-3.97,3.15-6.09,8.08-5.64,13.13.08.86.15,1.71.23,2.56,1.05,11.74,9.3,21.58,20.68,24.67,5.16,1.4,9.35,2.54,9.35,2.54l-3.88-43.18s-2.82-.93-6.67-2.21Z"/>
      <path class="cls-5" d="M181.95,57.61s-8.13,20.42-33.57,31.95c-20.84,9.45-56.79,13.33-57.3,43.92-9.39-18.68-12.03-36.31-5.29-53.3,13.57-34.23,42.19-63.64,94.51-58.2,47.23,4.91,66.66,56.28,62.55,76.74-3.84,19.16-7.06,23.1-12.69,31.5-1.2-18.08-5.64-24.37-21.59-37.19-21.39-17.19-26.61-35.42-26.61-35.42Z"/>
      <path class="cls-1" d="M254.62,1018.17H67.59s-22.7-186.44-27.31-238.6c-2.18-24.68-3.2-51.63-.34-74.33,3.83-30.48,13.96-88.48,13.96-88.48h214.41s10.12,58,13.96,88.48c2.86,22.7,1.84,49.65-.34,74.33-4.61,52.15-27.31,238.6-27.31,238.6Z"/>
      <path class="cls-7" d="M229.65,244.46c-14.75,16.47-44.25,34.03-68.98,34.03s-54.08-17.45-68.84-33.87l69.54-22.12,68.28,21.96Z"/>
    </g>
  </g>
</svg>